<svg width="2000" height="1417" viewBox="0 0 2000 1417" fill="none" xmlns="http://www.w3.org/2000/svg">
<path d="M1989.58 199.43C1989.58 91.2459 1905.84 3.54492 1802.53 3.54492H204.788C101.488 3.54492 17.7461 91.2459 17.7461 199.43V927.806H1989.58V199.43ZM352.112 354.015L312.112 490.014C298.591 444.582 285.352 399.151 271.831 354.015L142.535 312.419C144.505 311.381 146.585 310.588 148.732 310.059L271.831 270.232L311.831 134.234L352.112 270.232L481.971 312.124L352.112 354.015Z" fill="#3CAFDA"/>
<path d="M1989.58 1004.8H17.7461V1081.8H1989.58V1004.8Z" fill="#3CAFDA"/>
<path d="M1989.58 1194.2V1159.09H17.7461V1194.2C17.7461 1246.15 37.4523 1295.98 72.5295 1332.71C107.607 1369.45 155.182 1390.09 204.788 1390.09H1802.82C1906.01 1389.92 1989.58 1302.27 1989.58 1194.2Z" fill="#3CAFDA"/>
<path d="M312.113 504.47C305.931 504.509 300.447 500.321 298.592 494.145C291.644 470.937 284.789 447.632 278.029 424.228L260.564 365.226L138.31 325.695C132.944 324.012 129.04 319.159 128.368 313.334C127.696 307.51 130.383 301.823 135.212 298.849C137.689 297.401 140.342 296.309 143.099 295.604L260.564 257.548L298.592 128.924C298.592 120.778 304.898 114.174 312.676 114.174C320.455 114.174 326.761 120.778 326.761 128.924L364.789 257.548L487.324 297.079C495.103 297.079 501.409 303.683 501.409 311.829C501.409 319.976 495.103 326.58 487.324 326.58L364.507 366.406L326.761 495.03C324.906 501.206 319.422 505.394 313.24 505.355L312.113 504.47Z" fill="#EC5565"/>
<path d="M312.111 133.641L352.393 269.64L482.252 311.531L352.111 354.012L312.111 490.011C298.59 444.58 285.351 399.149 271.83 354.012L142.534 312.416C144.504 311.378 146.584 310.586 148.731 310.056L271.83 270.23L311.83 134.231L312.111 133.641ZM311.83 104.73C299.052 104.118 287.484 112.598 283.661 125.381L261.97 198.838L247.886 246.629L196.618 263.15L140.28 281.735C135.836 282.866 131.567 284.654 127.604 287.045C118.137 293.102 112.946 304.414 114.345 315.939C115.743 327.465 123.471 337.058 134.083 340.442L201.125 361.978L249.013 377.318L264.787 431.01L284.787 498.566C288.611 511.349 300.179 519.83 312.956 519.217C325.812 519.792 337.406 511.172 341.125 498.271L362.534 425.994L376.9 377.318H381.407L492.675 341.327C504.458 337.494 512.489 326.076 512.489 313.154C512.489 300.231 504.458 288.813 492.675 284.98L376.9 247.514L356.618 179.072L341.125 126.266C337.301 113.483 325.734 105.003 312.956 105.615L311.83 104.73Z" fill="white"/>
<path d="M1989.58 927.805H17.7461V1004.8H1989.58V927.805Z" fill="#F2D660"/>
<path d="M1989.58 1082.1H17.7461V1159.09H1989.58V1082.1Z" fill="#F2D660"/>
</svg>
