<svg width="2000" height="1417" viewBox="0 0 2000 1417" fill="none" xmlns="http://www.w3.org/2000/svg">
<g clip-path="url(#clip0)">
<path d="M1331.82 0H655.762V1416.04H1331.82V0Z" fill="#ED5565"/>
<path d="M187.308 0.0002372C139.744 -0.0797507 94.1029 20.0731 60.4439 56.017C26.7849 91.9609 7.87103 140.745 7.87109 191.618V1224.42C7.87103 1275.3 26.7849 1324.08 60.4439 1360.02C94.1029 1395.97 139.744 1416.12 187.308 1416.04L655.759 1416.04V0L187.308 0.0002372Z" fill="#434A54"/>
<path d="M1800.55 0H1331.82V1416.04H1800.55C1899.49 1416.04 1979.7 1330.25 1979.7 1224.42V191.617C1979.7 85.79 1899.49 0 1800.55 0Z" fill="#57A863"/>
<path d="M1139.41 509.172C1219.64 595.091 1219.59 734.299 1139.29 820.149C1058.99 905.998 928.839 905.998 848.541 820.149C768.243 734.299 768.19 595.091 848.424 509.172L794.621 451.928C684.704 569.621 684.77 760.324 794.769 877.93C904.767 995.537 1083.07 995.537 1193.06 877.93C1303.06 760.324 1303.13 569.621 1193.21 451.928L1139.41 509.172ZM1053.21 582.987H1074.62V539.602H1053.21V582.987ZM1074.62 529.659H1053.21V534.781H1074.62V529.659ZM1063.92 506.159C1056.96 508.787 1052.25 515.745 1052.09 523.634H1075.75C1076.17 515.479 1071.26 508.098 1063.92 505.858V506.159ZM913.494 582.685H934.903V539.602H913.494V582.685ZM934.903 529.358H913.494V534.48H934.903V529.358ZM924.198 505.858C917.242 508.486 912.532 515.443 912.367 523.332H936.029C936.32 515.288 931.435 508.073 924.198 505.858ZM1078 606.186L1091.8 590.218H1048.71L1027.86 574.551H960.255L940.536 590.82H895.748L909.269 606.788L1078 606.186ZM965.325 565.512H1023.63C1030.88 558.972 1034.76 549.113 1034.06 538.999C1035.2 521.01 1022.68 505.347 1005.89 503.749H1003.92C1001.44 503.613 999.251 501.975 998.283 499.531C997.829 493.43 996.887 487.382 995.466 481.454C994.303 487.311 993.55 493.253 993.212 499.229C992.305 501.821 990.142 503.672 987.579 504.05C979.361 504.05 971.479 507.542 965.668 513.757C959.857 519.972 956.593 528.402 956.593 537.191C956.593 537.191 956.593 537.191 956.593 539.3C955.173 549.393 958.939 559.521 966.452 565.814L965.325 565.512ZM1097.16 773.399H891.241L868.987 792.982H1119.13L1097.16 773.399ZM1053.78 764.963H1075.18V621.551H1053.78V764.963ZM912.931 764.963H934.339V620.949H912.931V764.36V764.963ZM1169.27 732.424C1169.02 728.914 1169.02 725.389 1169.27 721.879V720.373C1169.27 717.963 1169.27 715.552 1169.27 713.142C1169.04 702.386 1164.78 692.18 1157.44 684.821C1145.89 675.481 1140.82 664.334 1137.44 663.43L1138.85 660.718H1140.54C1143.92 660.715 1146.68 657.806 1146.73 654.186C1146.78 650.566 1144.1 647.573 1140.72 647.465C1137.33 647.356 1134.49 650.172 1134.34 653.789C1134.35 655.47 1134.95 657.085 1136.03 658.308L1084.48 753.213L1087.3 755.021L1117.44 698.982C1123.19 702.87 1128.74 707.094 1134.06 711.636L1135.47 713.443C1139.61 722.41 1142.18 732.109 1143.07 742.065V744.174C1143.2 753.011 1146.19 761.528 1151.52 768.277C1157.46 760.518 1163.86 753.172 1170.68 746.283C1171.51 741.292 1170.92 736.149 1168.99 731.52L1169.27 732.424ZM813.776 732.424C814.027 728.914 814.027 725.389 813.776 721.879V720.373C813.776 717.963 813.776 715.552 813.776 713.142C814.005 702.386 818.268 692.18 825.607 684.821C837.156 675.783 842.227 664.334 845.607 663.43L845.043 660.116H843.353C839.968 660.112 837.212 657.204 837.163 653.583C837.114 649.963 839.79 646.971 843.174 646.862C846.558 646.754 849.397 649.569 849.55 653.186C849.543 654.867 848.939 656.483 847.86 657.705L899.128 753.213L896.311 755.021L866.17 698.982C860.417 702.87 854.869 707.094 849.55 711.636L848.142 713.443C844.001 722.41 841.424 732.109 840.536 742.065V744.174C840.407 753.011 837.421 761.528 832.086 768.277C826.144 760.518 819.746 753.172 812.931 746.283C812.099 741.292 812.688 736.149 814.621 731.52L813.776 732.424Z" fill="white"/>
</g>
<defs>
<clipPath id="clip0">
<rect width="2000" height="1416.04" fill="white"/>
</clipPath>
</defs>
</svg>
