<svg width="2000" height="1417" viewBox="0 0 2000 1417" fill="none" xmlns="http://www.w3.org/2000/svg">
<path d="M1971.83 211.524C1971.72 105.606 1891.24 18.9643 1790.14 15.9336H181.975C80.88 18.9643 0.396059 105.606 0.285156 211.524V704.483H1972.12L1971.83 211.524Z" fill="#EC5565"/>
<path d="M1971.83 1206.29V712.449H1.80765e-06V1206.29C-0.0132771 1307.18 73.1351 1391.57 169.014 1401.29C382.723 1401.29 596.338 1401.29 809.859 1401.29H1790.99C1891.53 1397.8 1971.43 1311.65 1971.83 1206.29Z" fill="#434A54"/>
<path d="M1972.12 704.477H0.285156V733.977H1972.12V704.477Z" fill="#434A54"/>
<path d="M961.13 939.021C874.995 956.48 785.93 932.43 718.595 873.529C714.309 869.066 707.387 869.066 703.102 873.529L684.51 895.359C682.343 897.628 681.125 900.705 681.125 903.915C681.125 907.124 682.343 910.201 684.51 912.47C696.131 922.533 708.364 931.796 721.13 940.201L708.172 961.736C704.884 967.367 706.514 974.719 711.834 978.257C725.811 986.888 740.3 994.574 755.214 1001.27C761.126 1003.69 767.793 1000.66 770.144 994.482L778.876 971.177C806.825 982.563 836.096 990.003 865.919 993.302L863.102 1020.44C862.788 1023.65 863.712 1026.86 865.67 1029.36C867.627 1031.85 870.455 1033.42 873.524 1033.72C889.658 1034.79 905.841 1034.79 921.975 1033.72C925.041 1033.49 927.895 1032 929.904 1029.56C931.913 1027.12 932.912 1023.95 932.679 1020.74L930.707 994.187C944.224 993.113 957.673 991.242 970.989 988.582C986.666 985.425 1002.11 981.087 1017.19 975.602L1025.36 999.792C1027.48 1006.04 1034.02 1009.33 1040 1007.17C1053.99 1001.34 1067.63 994.645 1080.85 987.107L996.341 926.63C984.877 931.567 973.114 935.706 961.13 939.021Z" fill="#F2D660"/>
<path d="M1148.17 892.404L1164.79 909.81C1166.95 912.08 1169.89 913.355 1172.96 913.355C1176.02 913.355 1178.96 912.08 1181.13 909.81C1192.25 897.443 1202.6 884.337 1212.11 870.574C1213.83 867.915 1214.47 864.647 1213.89 861.493C1213.31 858.338 1211.56 855.555 1209.01 853.758L1189.58 839.893C1206.3 814.204 1219.75 786.336 1229.58 756.995L1251.55 764.961C1254.46 765.987 1257.65 765.754 1260.39 764.315C1263.14 762.875 1265.23 760.347 1266.2 757.29C1271.03 741.139 1274.89 724.685 1277.75 708.024C1278.23 704.855 1277.5 701.613 1275.7 699.013C1273.9 696.412 1271.19 694.666 1268.17 694.159L1244.79 690.619C1249.01 659.83 1249.48 628.605 1246.2 597.691L1269.86 595.036C1272.93 594.668 1275.73 593.024 1277.64 590.473C1279.55 587.923 1280.4 584.678 1280 581.465C1277.66 564.535 1274.28 547.782 1269.86 531.314C1267.97 524.982 1261.56 521.428 1255.49 523.349L1232.68 530.724C1223.81 501.129 1211.31 472.866 1195.49 446.647L1215.77 433.371C1218.41 431.668 1220.28 428.929 1220.97 425.767C1221.66 422.606 1221.11 419.287 1219.44 416.556C1210.86 402.479 1201.46 388.981 1191.27 376.14C1189.1 373.87 1186.16 372.595 1183.1 372.595C1180.03 372.595 1177.09 373.87 1174.93 376.14L1157.18 393.25C1136.96 370.609 1114.05 350.78 1089.01 334.249L1101.97 312.713C1105.26 307.082 1103.63 299.731 1098.31 296.192C1084.33 287.562 1069.84 279.876 1054.93 273.182C1049.02 270.764 1042.35 273.794 1040 279.967L1031.27 303.273C1017.41 297.481 1003.2 292.652 988.732 288.817C985.743 288.113 982.61 288.681 980.022 290.396C977.433 292.111 975.601 294.833 974.929 297.962L969.013 327.463C967.796 333.649 971.568 339.706 977.464 341.034C1084.34 369.001 1167.2 457.396 1191.93 569.824C1216.66 682.252 1179.07 799.703 1094.65 873.819L1135.21 906.27C1138.87 900.96 1143.94 896.829 1148.17 892.404Z" fill="#F2D660"/>
<path fill-rule="evenodd" clip-rule="evenodd" d="M1328.17 1078.85C1348.45 1093.89 1352.96 1111.89 1340.85 1126.93C1336.09 1131.83 1329.42 1134.12 1322.82 1133.13C1310 1131.97 1299 1123.1 1294.65 1110.41C1293.68 1107.09 1291.82 1104.12 1289.3 1101.86L1210.71 1042.86C1204.51 1038.14 1201.97 1038.43 1197.75 1042.86C1196.17 1045.48 1193.39 1047.05 1190.42 1046.99C1186.67 1046.32 1183.16 1044.58 1180.28 1041.97L875.213 821.601C810.988 779.12 796.058 743.424 800.847 708.318C802.33 698.25 804.784 688.366 808.171 678.817C810.988 670.852 816.622 668.492 823.1 673.507C893.523 731.329 1323.95 1076.19 1328.17 1078.85Z" fill="#F2D660"/>
<path d="M904.228 601.823C902.853 602.276 901.378 602.276 900.003 601.823C897.537 599.937 896.514 596.601 897.468 593.563L911.271 548.722C914.368 538.953 911.062 528.209 903.102 522.171L866.482 494.44C863.784 492.629 862.594 489.137 863.588 485.945C864.582 482.754 867.508 480.668 870.707 480.87H915.778C925.511 480.871 934.145 474.327 937.186 464.645L951.271 419.803C951.538 416.178 954.288 413.298 957.75 413.018C960.803 412.978 963.533 415.003 964.51 418.033L978.313 462.875C981.355 472.557 989.988 479.101 999.721 479.1H1044.79C1047.99 478.898 1050.92 480.984 1051.91 484.175C1052.91 487.367 1051.72 490.859 1049.02 492.67L1012.4 520.401C1004.44 526.439 1001.13 537.183 1004.23 546.952L1018.03 591.793C1019.07 594.886 1018.04 598.328 1015.5 600.241C1012.95 602.154 1009.51 602.078 1007.05 600.053L970.426 572.323C962.53 566.319 951.842 566.319 943.947 572.323L907.327 600.053C906.454 600.909 905.388 601.518 904.228 601.823Z" fill="#F2D660"/>
</svg>
