<svg width="2000" height="1417" viewBox="0 0 2000 1417" fill="none" xmlns="http://www.w3.org/2000/svg">
<path d="M1830.99 2.35547H189.015C105.934 13.0859 39.777 80.3221 27.043 166.97V1220.74C40.9552 1316.38 119.454 1387.06 211.832 1387.12H1809.58C1912.88 1387.12 1996.62 1299.42 1996.62 1191.24V196.471C1996.39 97.1451 1925.21 13.7238 1830.99 2.35547Z" fill="#4658A9"/>
<path d="M727.898 0H209.588C107.058 1.13205 24.5119 88.5023 24.5176 195.886V708.02H728.743L727.898 0Z" fill="#4658A9"/>
<path d="M321.407 514.495V708.02H431.266V510.069L619.716 708.02H727.322V619.518L530.139 413.012H727.322V295.008H530.139L727.322 88.5025V0H619.716L430.984 197.656V0H321.125V193.525L147.604 11.8003C103.567 28.5119 67.0928 61.8704 45.3503 105.318L225.35 295.008H23.6602V413.012H225.35L23.6602 624.238V708.02H136.336L321.407 514.495Z" fill="white"/>
<path d="M349.588 433.367V708.02H403.109V429.237L669.306 708.02H727.898V671.734L452.405 383.216H727.898V324.509H452.405L727.898 35.991V0H669.025L402.827 278.783V0H349.306V274.358L114.658 28.3208C95.6836 40.3767 78.8983 55.8581 65.081 74.0471L304.236 324.509H24.5176V383.511H304.236L24.5176 676.454V708.02H87.3345L349.588 433.367Z" fill="#EC5463"/>
<path fill-rule="evenodd" clip-rule="evenodd" d="M1602.53 383.514C1602.53 383.514 1594.36 389.119 1589.57 391.775C1555.81 410.249 1517.61 417.942 1479.71 413.9C1438.27 410.066 1398.16 396.667 1362.25 374.664C1312.95 405.541 1255.44 418.891 1198.31 412.72C1170.95 409.131 1144.75 399.04 1121.69 383.219C1121.69 489.816 1121.69 596.412 1121.69 703.008C1120.75 743.403 1127.75 783.567 1142.25 821.012C1169.33 886.186 1215.63 940.565 1274.36 976.186C1302.25 993.866 1331.79 1008.5 1362.53 1019.85C1416.72 1000.33 1466.62 969.635 1509.29 929.575C1541.03 899.466 1566.03 862.398 1582.53 821.012C1593.88 790.908 1600.81 759.18 1603.09 726.904C1603.09 660.527 1603.09 594.15 1603.09 527.773C1603.94 495.617 1602.81 428.356 1602.53 383.514Z" stroke="white" stroke-width="2" stroke-linecap="round" stroke-linejoin="round"/>
<path d="M1198.31 413.015C1255.44 419.186 1312.95 405.836 1362.25 374.959C1398.16 396.961 1438.27 410.361 1479.71 414.195C1517.61 418.237 1555.81 410.544 1589.57 392.069C1594.36 389.414 1602.53 383.809 1602.53 383.809C1602.53 429.536 1602.53 496.797 1602.53 527.183C1602.53 593.56 1602.53 659.937 1602.53 726.314C1600.25 758.59 1593.32 790.319 1581.97 820.422H1142.25C1127.75 782.977 1120.75 742.812 1121.69 702.418C1121.69 595.822 1121.69 489.226 1121.69 382.629C1144.75 398.45 1170.95 408.541 1198.31 412.13V413.015ZM1260.28 572.025C1259.43 597.192 1268.85 621.547 1286.19 638.991C1299.72 651.821 1316.59 660.14 1334.64 662.887C1334.64 646.662 1323.38 633.386 1321.12 618.046L1337.74 622.766C1333.8 607.426 1319.43 596.51 1319.43 579.695C1318.3 558.696 1323.95 537.91 1335.49 520.693C1357.95 492.788 1395.95 485.05 1426.76 502.108C1443.38 510.368 1447.32 531.608 1461.12 543.409C1463.09 536.034 1465.07 526.593 1473.24 523.938C1490.77 519.785 1509.14 522.295 1525.07 531.018C1520.21 523.557 1513.48 517.638 1505.63 513.908C1487.32 504.173 1465.91 504.173 1447.32 495.617C1437.62 489.63 1428.22 483.131 1419.15 476.147C1398.85 463.832 1375.52 458.084 1352.11 459.626L1356.9 449.301C1301.21 461.313 1260.94 512.191 1260 571.73L1260.28 572.025ZM1208.73 589.43C1198.54 619.386 1198.54 652.106 1208.73 682.063C1214.82 701.003 1227.08 717.089 1243.38 727.494L1236.62 737.819C1260.67 743.92 1285.56 745.518 1310.14 742.539C1342.86 739.439 1373.16 723.151 1394.64 697.108C1411.03 673.939 1418.74 645.29 1416.33 616.571C1404.22 626.601 1394.36 640.761 1378.59 646.072C1378.59 638.401 1378.59 630.731 1378.59 623.356C1373.94 630.758 1369.89 638.554 1366.47 646.662C1357.03 665.833 1341.04 680.578 1321.69 687.963C1296.16 699.935 1266.69 698.287 1242.53 683.538C1218.28 665.349 1209.67 631.756 1221.97 603.295C1228.16 591.79 1241.4 588.25 1250.14 580.285C1243.38 578.515 1235.21 576.45 1232.39 568.779C1224.78 549.899 1234.36 530.723 1238.87 512.433C1218.02 532.198 1217.46 563.764 1209.29 590.02L1208.73 589.43ZM1389.86 542.524C1399.89 553.014 1409.3 564.148 1418.02 575.86C1412.17 577.762 1406.44 580.028 1400.84 582.645C1415.28 587.183 1428.37 595.51 1438.87 606.836C1458.74 628.02 1471.32 655.521 1474.64 685.013C1474.39 713.814 1458.86 740.079 1434.36 753.16C1422.42 759.567 1408.27 759.567 1396.33 753.16C1385.78 746.379 1373.48 743.185 1361.12 744.014C1366.76 749.03 1376.33 753.75 1373.24 763.19C1368.16 777.645 1353.52 783.841 1341.69 792.691C1363.82 795.201 1386.17 790.786 1405.91 780.005C1433.09 770.653 1458.68 756.81 1481.69 738.999C1497.72 720.79 1507.62 697.578 1509.86 672.917C1513.8 677.048 1517.74 681.768 1521.69 686.193C1528.62 646.351 1515.91 605.531 1487.88 577.63C1461.16 552.148 1425.63 539.248 1389.57 541.934L1389.86 542.524Z" fill="white"/>
<path d="M1436.62 565.541C1436.62 562 1436.62 555.51 1441.12 555.215C1445.63 554.92 1449.01 559.345 1447.32 563.18C1445.63 567.016 1440 565.245 1436.62 565.541Z" fill="white"/>
<path d="M1290.42 609.191H1298.02C1298.02 612.732 1300.84 616.567 1298.02 619.812C1295.21 623.057 1290.98 619.812 1289.57 617.452C1288.16 615.092 1290.14 611.846 1290.42 609.191Z" fill="white"/>
<path d="M1393.52 655.223C1393.52 650.208 1400.28 652.863 1403.66 651.978C1407.04 651.093 1403.66 661.713 1400.56 662.598C1398.54 663.516 1396.2 663.05 1394.64 661.421C1393.09 659.793 1392.64 657.335 1393.52 655.223Z" fill="white"/>
<path d="M1260.28 572.016C1261.22 512.478 1301.49 461.599 1357.18 449.588L1352.39 459.913C1375.81 458.371 1399.14 464.119 1419.44 476.434C1428.51 483.418 1437.91 489.916 1447.61 495.904C1466.2 504.754 1487.61 504.459 1505.92 514.195C1513.77 517.925 1520.49 523.844 1525.35 531.305C1509.42 522.582 1491.05 520.072 1473.52 524.225C1465.35 527.175 1463.38 536.32 1461.41 543.696C1447.89 531.895 1443.66 510.95 1427.04 502.394C1396.23 485.337 1358.24 493.074 1335.77 520.98C1324.24 538.197 1318.58 558.983 1319.72 579.982C1319.72 596.502 1334.08 607.712 1338.03 623.053L1321.41 618.333C1323.66 634.263 1334.65 647.833 1334.93 663.174C1316.87 660.427 1300 652.108 1286.48 639.278C1269.14 621.834 1259.71 597.478 1260.56 572.311L1260.28 572.016ZM1290.7 609.482C1290.7 612.137 1287.32 615.088 1290.7 617.448C1294.08 619.808 1296.34 620.398 1299.15 619.808C1301.97 619.218 1299.15 613.022 1299.15 609.187L1290.7 609.482Z" fill="#E77329"/>
<path d="M1208.73 590.007C1216.9 563.751 1217.46 531.005 1238.31 512.42C1233.8 530.71 1224.23 549.886 1231.83 568.766C1234.65 576.437 1242.82 578.502 1249.58 580.272C1240.28 587.942 1227.04 591.777 1221.41 603.282C1209.11 631.743 1217.72 665.336 1241.97 683.525C1266.13 698.274 1295.6 699.922 1321.13 687.95C1340.48 680.565 1356.47 665.82 1365.92 646.649C1369.33 638.541 1373.38 630.745 1378.03 623.343C1378.03 631.013 1378.03 638.388 1378.03 646.059C1393.8 641.634 1403.38 627.473 1415.77 616.558C1418.18 645.277 1410.47 673.925 1394.08 697.095C1372.6 723.138 1342.3 739.426 1309.58 742.526C1285 745.505 1260.11 743.907 1236.06 737.806L1242.82 727.481C1226.52 717.076 1214.26 700.99 1208.17 682.05C1197.98 652.093 1197.98 619.373 1208.17 589.417L1208.73 590.007ZM1392.68 654.909C1391.8 657.021 1392.24 659.479 1393.8 661.107C1395.35 662.735 1397.7 663.202 1399.72 662.284C1404.22 662.284 1401.97 654.909 1402.82 651.664C1403.66 648.419 1394.37 649.009 1393.52 655.204L1392.68 654.909Z" fill="#E77329"/>
<path d="M1389.58 541.922C1425.32 539.161 1460.6 551.725 1487.32 576.733C1515.35 604.635 1528.06 645.454 1521.13 685.296C1517.18 680.871 1513.52 676.151 1509.3 672.021C1507.06 696.681 1497.16 719.893 1481.13 738.103C1458.12 755.913 1432.54 769.757 1405.35 779.109C1385.61 789.89 1363.26 794.304 1341.13 791.794C1352.96 784.419 1367.61 778.224 1372.68 762.294C1375.49 752.853 1365.92 748.133 1360.56 743.118C1372.92 742.288 1385.22 745.483 1395.77 752.263C1407.71 758.671 1421.87 758.671 1433.8 752.263C1458.31 739.182 1473.83 712.918 1474.08 684.116C1470.77 654.624 1458.18 627.124 1438.31 605.939C1427.81 594.614 1414.72 586.287 1400.28 581.748C1405.88 579.132 1411.61 576.866 1417.46 574.963C1408.74 563.251 1399.34 552.118 1389.3 541.627L1389.58 541.922ZM1436.34 565.228C1439.72 565.228 1445.63 568.178 1447.04 562.868C1448.45 557.558 1445.35 553.133 1440.85 554.903C1436.34 556.673 1436.62 562.278 1436.62 565.523L1436.34 565.228Z" fill="#E77329"/>
<path d="M1142.25 819.236H1582.53C1566.04 860.622 1541.03 897.69 1509.29 927.799C1466.62 967.86 1416.72 998.555 1362.53 1018.07C1331.79 1006.72 1302.25 992.091 1274.36 974.411C1215.63 938.79 1169.33 884.41 1142.25 819.236Z" fill="#3CAFDA"/>
</svg>
