<svg width="2000" height="1417" viewBox="0 0 2000 1417" fill="none" xmlns="http://www.w3.org/2000/svg">
<g clip-path="url(#clip0)">
<path d="M1807.32 0H193.803C94.8588 0 14.6484 85.79 14.6484 191.617V1224.42C14.6484 1330.25 94.8588 1416.04 193.803 1416.04H1807.32C1906.27 1416.04 1986.48 1330.25 1986.48 1224.42V191.617C1986.48 85.79 1906.27 0 1807.32 0Z" fill="#ED5565"/>
<path d="M1000.57 427.821C989.58 425.712 989.299 422.096 994.932 413.66C997.186 410.045 994.932 407.936 987.89 410.346C981.515 409.675 975.894 405.591 972.961 399.5C970.425 395.885 970.707 395.282 972.961 395.282C976.853 394.792 980.501 393 983.383 390.16C985.073 388.051 983.383 385.34 980.285 386.243C971.663 384.935 963.819 380.202 958.313 372.987C956.059 369.673 955.496 367.865 958.313 366.66C962.062 365.251 965.579 363.217 968.735 360.634C971.552 358.525 968.735 355.814 964.792 354.91C956.619 352.47 949.281 347.552 943.665 340.749C941.975 338.64 940.566 335.929 945.355 334.724C952.697 331.407 959.245 326.361 964.51 319.961C967.609 315.14 967.89 310.018 959.158 314.236C947.13 318.722 934.213 319.76 921.693 317.249C899.44 305.499 867.045 290.435 854.651 312.429C833.524 312.429 808.172 309.717 812.961 338.64C816.438 338.373 819.483 336.046 820.848 332.615C824.335 328.229 830.235 327.093 834.932 329.903C840.003 332.012 844.228 335.025 840.566 340.147C836.362 343.211 831.131 344.199 826.2 342.858C820.156 341.407 814.044 340.3 807.89 339.544C802.151 337.747 797.361 333.495 794.651 327.794C791.552 321.166 783.383 313.031 778.313 317.852C773.242 322.672 778.313 330.506 784.51 335.628C790.361 341.333 797.577 345.192 805.355 346.775C811.44 346.963 817.486 347.872 823.383 349.487C828.717 364.832 843.508 373.944 858.594 371.179C878.708 372.294 897.789 381.055 912.397 395.885C936.341 417.878 953.242 490.187 912.397 490.187C887.045 490.187 890.989 462.167 891.834 446.199C892.885 428.595 883.05 412.326 867.609 406.128C850.425 399.199 815.496 385.942 805.637 379.916C801.693 376.904 797.749 387.449 797.186 393.776C796.623 400.103 792.397 398.295 780.003 393.776C745.755 384.62 716.226 361.473 697.749 329.301C682.538 297.364 653.806 329.301 668.172 355.512C685.355 387.75 742.538 413.962 778.876 419.385C785.877 419.385 791.552 425.455 791.552 432.943C791.552 440.43 785.877 446.5 778.876 446.5C745.637 451.622 713.242 451.02 694.369 421.795C678.876 399.5 663.383 419.686 670.144 437.161C684.51 475.123 733.524 491.091 781.13 465.481C792.397 459.456 804.51 460.36 794.932 475.424C770.425 512.783 738.594 518.809 696.623 490.789C684.51 482.655 675.214 483.86 672.397 488.982C669.573 492.848 668.312 497.762 668.894 502.628C669.476 507.495 671.853 511.911 675.496 514.892L679.44 517.302C707.148 539.558 744.58 542.046 774.651 523.629C785.918 517.302 806.482 511.879 788.454 538.694C770.425 565.508 723.383 579.066 703.947 564.002C684.51 548.937 661.13 564.002 675.778 585.996C691.566 604.192 717.202 607.856 736.904 594.733C751.271 585.995 773.524 574.547 782.82 569.726C792.116 564.906 796.623 573.04 785.918 586.598C761.975 616.727 737.468 642.035 704.51 629.983C685.355 623.054 667.89 622.15 672.961 648.06C678.031 673.971 717.468 675.778 736.904 662.823C755.499 651.887 772.885 638.748 788.735 623.656C800.566 611.303 812.116 611.605 799.158 632.695C770.989 679.996 745.073 714.644 703.102 705.907C661.13 697.17 674.933 723.382 682.538 731.215C706.2 754.113 748.172 748.087 798.031 680.298C801.975 674.875 808.454 676.682 805.073 686.323C782.82 749.593 745.918 790.568 709.862 780.626C691.271 775.504 672.961 786.953 691.834 805.331C710.707 823.709 752.397 818.286 780.285 783.94C799.604 761.777 816.868 737.662 831.834 711.933C838.031 698.977 847.327 698.676 846.2 715.247C844.182 739.44 832.34 761.468 813.806 775.504C803.383 780.927 794.369 793.581 813.806 803.222C833.242 812.863 856.341 773.094 874.932 718.26C876.021 713.85 880.246 711.22 884.369 712.385C888.492 713.549 890.951 718.068 889.862 722.478C889.359 737.951 883.307 752.624 872.961 763.452C864.51 772.19 870.989 786.35 882.82 780.626C898.409 773.395 910.461 759.521 916.059 742.362C919.721 732.42 927.609 729.106 923.102 744.471C909.426 785.955 879.481 818.974 841.13 834.857C847.045 841.184 852.397 848.415 857.468 854.139C833.524 867.697 808.454 876.736 788.454 885.774C774.734 877.893 762.277 867.723 751.552 855.646C749.293 843.917 738.576 836.365 727.609 838.774L722.256 840.883C704.228 833.049 691.271 835.158 690.144 853.838C699.507 849.614 710.271 851.11 718.313 857.755C723.069 867.434 733.953 871.619 743.383 867.396C755.214 875.229 765.073 882.761 771.552 888.184C749.299 888.184 732.961 886.377 721.13 884.87C715.447 875.143 703.471 872.177 694.369 878.242L691.271 880.954C685.635 878.787 679.413 879.208 674.078 882.118C668.743 885.028 664.771 890.168 663.102 896.319C671.674 893.792 680.726 893.792 689.299 896.319C695.691 906.113 708.283 908.538 717.468 901.742L719.721 899.935H770.144L741.975 918.012C718.876 912.89 706.482 922.832 708.172 941.211C701.834 950.364 702.547 963.062 709.862 971.339C711.495 962.686 715.292 954.668 720.848 948.14C727.004 950.146 733.673 949.163 739.094 945.453C744.514 941.743 748.141 935.677 749.017 928.858L774.369 910.781C779.472 905.295 787.483 904.413 793.524 908.672C803.947 913.794 813.806 918.313 820.003 921.928C820.981 927.796 824.881 932.621 830.168 934.506C835.454 936.391 841.281 935.033 845.355 930.967C851.046 934.9 855.624 940.422 858.594 946.935C860.73 937.072 858.091 926.722 851.57 919.383C845.049 912.045 835.518 908.7 826.2 910.48L803.665 899.332C818.876 893.306 857.468 877.338 871.271 871.011C881.117 882.147 894.693 888.649 909.017 889.088C911.916 877.37 916.274 866.122 921.975 855.646C930.974 834.2 942.321 813.973 955.778 795.389C966.2 781.831 976.904 789.664 976.341 808.344C974.651 853.537 944.51 921.326 900.003 923.736C884.792 923.736 878.876 927.954 887.045 940.608C899.8 952.678 918.711 953.558 932.397 942.717C945.918 931.871 950.425 932.473 947.89 946.935C943.607 959.622 932.333 968.063 919.721 968.025C903.383 968.025 884.51 975.858 899.721 991.224C914.933 1006.59 940.003 998.154 958.313 974.955C964.792 966.82 969.58 964.711 969.299 977.666C970.258 995.538 959.852 1011.86 943.947 1017.44C931.552 1020.45 918.876 1024.06 922.538 1032.2C930.782 1044.59 946.367 1048.46 958.876 1041.24C969.379 1035.34 978.08 1026.35 983.947 1015.33C986.2 1008.1 990.989 1012.01 989.862 1022.26C987.045 1043.65 973.524 1043.35 973.524 1061.12C977.091 1082.02 986.99 1101.08 1001.69 1115.35C1016.4 1101.08 1026.3 1082.02 1029.86 1061.12C1029.86 1043.35 1016.06 1043.95 1013.52 1022.26C1013.52 1012.31 1016.9 1008.1 1019.44 1015.33C1025.31 1026.35 1034.01 1035.34 1044.51 1041.24C1057.02 1048.46 1072.6 1044.59 1080.85 1032.2C1084.23 1024.37 1071.83 1020.45 1059.44 1017.44C1043.53 1011.86 1033.13 995.538 1034.09 977.666C1034.09 964.711 1038.59 967.121 1045.07 974.955C1063.38 998.154 1088.45 1006.89 1103.66 991.224C1118.88 975.557 1100.28 969.23 1083.66 968.025C1071.05 968.063 1059.78 959.622 1055.5 946.935C1052.68 932.172 1057.47 931.57 1070.99 942.717C1084.67 953.558 1103.59 952.678 1116.34 940.608C1124.79 928.255 1118.59 924.64 1103.38 923.736C1058.88 921.025 1028.74 853.537 1027.05 808.344C1027.05 789.664 1036.9 781.831 1047.61 795.389C1061.07 813.973 1072.41 834.2 1081.41 855.646C1087.11 866.124 1091.47 877.371 1094.37 889.088C1108.69 888.649 1122.27 882.147 1132.12 871.011C1145.92 877.338 1184.23 893.306 1199.72 899.332L1177.19 910.48C1167.76 908.543 1158.07 911.869 1151.46 919.306C1144.84 926.743 1142.23 937.269 1144.51 947.236C1147.49 940.731 1152.07 935.213 1157.75 931.268C1161.82 935.334 1167.65 936.692 1172.94 934.807C1178.22 932.922 1182.12 928.097 1183.1 922.23C1189.3 918.313 1199.16 914.095 1209.58 908.973C1215.62 904.714 1223.63 905.596 1228.74 911.082L1254.09 929.159C1255.56 941.93 1266.36 951.063 1278.31 949.647H1282.54C1288.09 956.175 1291.89 964.192 1293.52 972.846C1300.84 964.568 1301.55 951.871 1295.21 942.717C1296.9 924.339 1284.23 914.396 1261.41 919.518L1233.24 901.441H1283.66C1291.52 909.553 1303.98 909.553 1311.83 901.441L1313.52 899.031C1322.1 896.504 1331.15 896.504 1339.72 899.031C1338.33 893.022 1334.74 887.858 1329.77 884.689C1324.8 881.521 1318.85 880.609 1313.24 882.159C1309.57 878.032 1304.48 875.696 1299.16 875.696C1293.83 875.696 1288.74 878.032 1285.07 882.159L1282.54 885.473C1270.71 885.473 1254.37 888.184 1232.12 888.787C1239.16 883.665 1249.02 875.832 1260.28 867.998C1269.71 872.222 1280.6 868.036 1285.36 858.357C1293.4 851.713 1304.16 850.216 1313.52 854.441C1313.52 835.761 1299.44 833.652 1281.41 841.485C1275.88 838.785 1269.52 838.878 1264.06 841.737C1258.6 844.597 1254.63 849.922 1253.24 856.248C1242.51 868.321 1230.06 878.491 1216.34 886.377C1196.34 877.338 1171.27 868.3 1147.33 854.742C1152.68 849.017 1157.75 841.787 1163.66 835.46C1125.31 819.576 1095.37 786.558 1081.69 745.074C1077.19 729.708 1085.36 733.023 1088.74 742.965C1094.33 760.124 1106.39 773.997 1121.97 781.228C1133.52 786.953 1140.28 772.491 1131.83 764.055C1121.49 753.226 1115.44 738.554 1114.93 723.08C1114.23 720.228 1115 717.19 1116.96 715.111C1118.91 713.033 1121.76 712.229 1124.42 713.002C1127.08 713.776 1129.16 716.01 1129.86 718.862C1148.74 774.901 1171.55 813.164 1190.99 803.825C1210.43 794.485 1201.41 781.831 1190.99 776.106C1172.45 762.07 1160.61 740.043 1158.59 715.849C1158.59 698.977 1166.76 699.58 1172.96 712.535C1187.09 737.718 1203.41 761.423 1221.69 783.337C1249.86 817.684 1288.74 825.517 1310.14 804.728C1331.55 783.94 1310.14 774.6 1292.12 780.023C1256.34 789.965 1219.16 749.895 1196.9 685.721C1193.52 676.08 1200 674.573 1203.95 679.695C1253.81 747.484 1295.5 753.209 1319.44 730.612C1327.89 722.478 1337.47 697.17 1298.88 705.304C1260.28 713.439 1232.12 679.394 1202.82 632.092C1189.86 611.002 1202.82 610.701 1213.24 623.054C1228.17 638.184 1244.61 651.52 1262.26 662.823C1281.69 675.778 1321.13 673.971 1326.2 648.06C1331.27 622.15 1313.81 623.054 1294.65 629.983C1261.41 642.035 1238.31 616.727 1213.24 586.598C1202.54 573.04 1207.05 565.207 1216.34 569.726C1225.64 574.245 1247.89 585.995 1262.26 594.733C1281.96 607.856 1307.59 604.192 1323.38 585.996C1338.59 562.797 1314.93 548.937 1295.21 564.002C1275.5 579.066 1229.3 564.002 1210.71 538.694C1192.12 513.386 1212.96 517.302 1224.51 523.629C1254.58 542.046 1292.01 539.558 1319.72 517.302C1324.7 515.125 1328.44 510.577 1329.82 505.014C1331.21 499.452 1330.07 493.518 1326.76 488.982C1323.95 483.86 1314.65 482.655 1302.54 490.789C1261.41 518.508 1228.74 512.783 1204.23 475.424C1194.37 460.36 1206.48 459.456 1218.03 465.481C1265.64 491.091 1314.65 475.123 1329.02 437.161C1335.78 419.385 1320.57 399.199 1304.79 421.795C1284.51 451.924 1252.12 451.924 1220.28 446.5C1213.28 446.5 1207.61 440.43 1207.61 432.943C1207.61 425.455 1213.28 419.385 1220.28 419.385C1256.62 414.263 1313.81 389.256 1330.99 355.512C1345.35 328.698 1316.62 297.364 1301.41 329.301C1282.93 361.473 1253.41 384.62 1219.16 393.776C1206.76 397.994 1202.26 397.692 1201.97 393.776C1201.69 389.859 1197.19 376.904 1193.52 379.916C1183.66 385.942 1148.74 399.199 1131.55 406.128C1116.11 412.326 1106.28 428.595 1107.33 446.199C1107.33 462.167 1112.12 490.187 1086.76 490.187C1046.2 490.187 1063.1 417.878 1086.76 395.885C1101.37 381.055 1120.45 372.294 1140.57 371.179C1155.63 373.749 1170.29 364.523 1175.5 349.185C1181.39 347.571 1187.44 346.661 1193.52 346.474C1201.3 344.891 1208.52 341.032 1214.37 335.326C1219.44 330.204 1225.64 322.371 1220.57 317.55C1215.5 312.73 1207.61 320.865 1204.23 327.493C1201.52 333.194 1196.73 337.446 1190.99 339.243C1184.83 339.999 1178.72 341.105 1172.68 342.557C1167.75 343.898 1162.52 342.91 1158.31 339.846C1154.65 334.724 1158.31 331.711 1163.95 329.602C1168.64 326.792 1174.54 327.927 1178.03 332.313C1179.4 335.745 1182.44 338.072 1185.92 338.339C1190.71 308.211 1165.35 310.621 1144.23 312.127C1131.83 290.134 1099.44 305.198 1077.19 316.948C1064.67 319.459 1051.75 318.42 1039.72 313.935C1030.71 309.717 1031.27 313.935 1034.37 319.659C1039.63 326.059 1046.18 331.106 1053.52 334.422C1058.31 334.422 1056.62 338.339 1055.21 340.448C1049.6 347.251 1042.26 352.169 1034.09 354.609C1029.02 354.609 1027.33 357.923 1030.14 360.333C1033.3 362.916 1036.82 364.949 1040.57 366.359C1044.51 366.359 1044.23 369.372 1040.57 372.686C1035.06 379.901 1027.22 384.633 1018.59 385.942C1014.37 385.942 1013.81 387.75 1015.5 389.859C1018.38 392.698 1022.03 394.491 1025.92 394.981C1029.02 394.981 1029.3 394.981 1025.92 399.199C1022.99 405.29 1017.36 409.374 1010.99 410.045C1003.38 407.635 1001.41 410.045 1003.95 413.359C1011.83 421.795 1011.55 425.712 1000.57 427.821ZM897.468 331.41C891.686 327.718 884.676 326.946 878.313 329.301C872.961 332.012 871.552 338.038 878.313 340.147C884.501 341.869 890.998 341.869 897.186 340.147C899.18 339.601 900.575 337.679 900.575 335.477C900.575 333.275 899.18 331.353 897.186 330.807L897.468 331.41ZM1104.23 331.41C1110.01 327.718 1117.02 326.946 1123.38 329.301C1128.74 332.012 1130.14 338.038 1123.38 340.147C1117.28 341.805 1110.89 341.805 1104.79 340.147C1102.8 339.601 1101.4 337.679 1101.4 335.477C1101.4 333.275 1102.8 331.353 1104.79 330.807L1104.23 331.41Z" fill="#434A54"/>
</g>
<defs>
<clipPath id="clip0">
<rect width="2000" height="1416.04" fill="white"/>
</clipPath>
</defs>
</svg>
