<svg width="2000" height="1417" viewBox="0 0 2000 1417" fill="none" xmlns="http://www.w3.org/2000/svg">
<path d="M7.04688 214.775V480.283H1978.88V214.775C1978.88 106.591 1895.14 18.8896 1791.84 18.8896H194.089C90.7885 18.8896 7.04688 106.591 7.04688 214.775Z" fill="#52C162"/>
<path d="M7.04688 944.013H1978.88V481.145H7.04688V944.013Z" fill="white"/>
<path d="M7.04688 1209.53C7.04688 1317.71 90.7885 1405.41 194.089 1405.41H1791.84C1895.14 1405.41 1978.88 1317.71 1978.88 1209.53V944.018H7.04688V1209.53Z" fill="#434A54"/>
<path d="M186.202 18.5958C87.2573 18.5958 7.04688 102.598 7.04688 206.221V1217.21C7.04688 1320.84 87.2573 1404.84 186.202 1404.84H514.089V18.3008L186.202 18.5958Z" fill="#ED5565"/>
</svg>
