<svg width="2000" height="1417" viewBox="0 0 2000 1417" fill="none" xmlns="http://www.w3.org/2000/svg">
<path d="M1997.19 391.773H25.3555V1011.29H1997.19V391.773Z" fill="white"/>
<path d="M1818.03 8.26781H204.796C105.851 8.26781 25.6406 92.2705 25.6406 195.893V391.778H1997.47L1997.47 196.188C1997.55 146.324 1978.67 98.4806 1945 63.2217C1911.33 27.9628 1865.65 8.18935 1818.03 8.26781Z" fill="#8CBAE2"/>
<path d="M25.352 1207.18C25.352 1310.8 105.562 1394.8 204.507 1394.8H1817.75C1916.69 1394.8 1996.9 1310.8 1996.9 1207.18V1011.29H25.0703L25.352 1207.18Z" fill="#8CBAE2"/>
<path d="M1187.61 760.827C1187.96 751.656 1190.27 742.683 1194.37 734.571L1205.92 713.626C1209.58 706.019 1209.58 697.042 1205.92 689.435L1194.09 667.899C1190.02 659.773 1187.71 650.809 1187.33 641.644V616.863C1186.87 608.357 1182.58 600.585 1175.78 595.917L1155.78 584.117C1148.39 579.227 1142.14 572.677 1137.47 564.941L1125.92 543.996C1121.46 536.869 1114.04 532.381 1105.92 531.901H1081.98C1073.22 531.495 1064.66 529.078 1056.9 524.82L1036.34 512.43C1029.08 508.591 1020.51 508.591 1013.24 512.43L993.525 524.525C985.775 528.81 977.21 531.229 968.454 531.605H945.356C937.234 532.086 929.812 536.574 925.356 543.701L913.525 565.236C908.841 572.96 902.589 579.507 895.215 584.412L874.651 596.802C867.846 601.47 863.56 609.242 863.102 617.748V641.939C862.752 651.11 860.442 660.082 856.341 668.194L844.792 689.14C841.127 696.747 841.127 705.724 844.792 713.331L856.623 734.866C860.688 742.993 862.996 751.957 863.384 761.122V785.903C863.906 794.463 868.302 802.247 875.215 806.848L895.215 818.649C902.607 823.53 908.863 830.082 913.525 837.824L925.074 858.77C929.53 865.897 936.952 870.385 945.074 870.865H969.018C977.769 871.271 986.328 873.688 994.088 877.945L1014.65 890.336C1021.91 894.175 1030.49 894.175 1037.75 890.336L1057.47 878.24C1065.22 873.956 1073.78 871.537 1082.54 871.16H1105.64C1113.76 870.68 1121.18 866.192 1125.64 859.065L1137.47 837.529C1142.15 829.806 1148.4 823.259 1155.78 818.354L1176.34 805.963C1183.15 801.296 1187.43 793.523 1187.89 785.018L1187.61 760.827Z" fill="#F6BB42"/>
</svg>
