<svg width="2000" height="1417" viewBox="0 0 2000 1417" fill="none" xmlns="http://www.w3.org/2000/svg">
<path d="M1816.06 16.2266H177.468C82.5886 27.065 10.7192 110.978 10.707 210.932V1205.7C10.707 1257.65 30.4132 1307.48 65.4904 1344.21C100.568 1380.95 148.143 1401.59 197.749 1401.59H1795.5C1898.8 1401.59 1982.54 1313.88 1982.54 1205.7V210.932C1982.54 111.079 1910.83 27.2044 1816.06 16.2266Z" fill="#4658A9"/>
<path d="M1949.3 99.125L318.596 708.022L1948.74 1318.69C1970.96 1285.72 1982.87 1246.35 1982.82 1206V210.933C1982.86 170.946 1971.16 131.913 1949.3 99.125Z" fill="white"/>
<path d="M1949.3 99.1304C1935.81 78.6866 1918.69 61.1578 1898.87 47.5039L130.141 708.028L1897.75 1370.32C1917.74 1356.81 1935.05 1339.38 1948.73 1318.99L318.591 708.028L1949.3 99.1304Z" fill="#EC5565"/>
<path d="M1263.67 765.259C1273.39 763.032 1282.84 759.667 1291.84 755.229C1302.64 772.171 1315.84 787.292 1330.99 800.07L1341.7 760.539C1349.78 760.739 1357.77 762.334 1365.36 765.259C1362.27 775.606 1359.83 786.149 1358.03 796.825C1353.24 818.655 1349.02 841.076 1343.39 862.612C1335.5 860.547 1327.33 858.481 1319.72 855.826C1321.98 843.141 1324.23 830.456 1326.77 817.77C1326.77 817.77 1326.77 812.755 1326.77 813.345C1307.34 817.832 1289.08 826.691 1273.24 839.306C1265.05 824.907 1253.89 812.61 1240.57 803.315C1226.88 792.725 1212.68 782.878 1198.03 773.814C1220.11 772.993 1242.07 770.13 1263.67 765.259Z" fill="#F6D660"/>
<path d="M1363.67 784.43C1368.6 784.854 1373.49 785.643 1378.32 786.79C1377.19 793.758 1375.69 800.653 1373.81 807.44C1371.55 821.011 1368.17 834.581 1365.92 848.447C1360.67 848.962 1355.39 848.962 1350.15 848.447C1354.09 826.026 1359.16 805.965 1363.67 784.43Z" fill="#F6D660"/>
<path d="M1458.03 801.539C1466.49 809.504 1473.81 818.65 1482.82 826.025C1492.34 834.31 1503.5 840.258 1515.5 843.43C1526.81 848.09 1538.5 851.645 1550.43 854.051C1550.43 859.656 1532.68 856.706 1527.89 860.246C1522.05 862.899 1515.59 863.718 1509.3 862.606C1486.63 859.451 1463.59 863.782 1443.39 874.996C1439.72 865.537 1439.72 854.955 1443.39 845.495C1445.08 840.185 1446.77 834.875 1448.46 829.565C1450.12 819.724 1453.35 810.248 1458.03 801.539Z" fill="#F6D660"/>
<path d="M1377.19 810.984L1445.92 827.8L1440.57 844.32L1373.24 829.57L1377.19 810.984Z" fill="#F6D660"/>
<path d="M1521.13 845.203L1769.58 906.27C1770.44 909.352 1770.44 912.628 1769.58 915.71C1768.4 918.683 1766.32 921.17 1763.66 922.79C1711.83 910.99 1560.28 874.409 1510.14 861.724C1510.99 855.528 1519.44 851.103 1521.13 845.203Z" fill="#F6D660"/>
<path d="M1380.29 898.008C1383.67 891.518 1388.46 883.553 1396.34 883.258C1405.64 885.031 1413.47 891.567 1417.19 900.663C1421.57 904.613 1422.84 911.165 1420.29 916.594C1417.29 920.314 1414.56 924.258 1412.12 928.394L1417.75 931.049C1414.54 933.873 1410.93 936.162 1407.05 937.834C1405.36 937.834 1404.79 940.49 1404.23 941.965C1409.08 944.646 1414.52 945.967 1420 945.8C1455.22 947.865 1490.71 945.8 1525.92 945.8C1522.07 950.05 1517.93 953.994 1513.53 957.6C1529.47 958.609 1545.47 958.609 1561.41 957.6C1572.03 957.203 1582.54 955.318 1592.68 951.995C1595.97 950.681 1599.02 948.785 1601.7 946.39C1598.88 953.47 1595.78 960.255 1592.4 967.04C1610.43 967.04 1628.46 965.27 1646.48 963.5C1634.51 973.23 1619 976.805 1604.23 973.236C1619.96 984.251 1636.89 993.263 1654.65 1000.08C1635.83 1002.66 1616.71 1001.46 1598.31 996.541C1604.63 1010.64 1615.23 1022.16 1628.46 1029.29C1621.72 1031.05 1614.62 1030.53 1608.17 1027.81C1595.66 1022.13 1584.29 1014.02 1574.65 1003.92L1571.84 1006.28C1576.37 1013.38 1577.9 1022.14 1576.06 1030.47C1559.21 1008.54 1535.61 993.424 1509.3 987.691L1507.89 991.231C1514.25 995.042 1519.81 1000.16 1524.23 1006.28C1525.37 1008.54 1525.86 1011.1 1525.64 1013.65C1521.44 1007.72 1515.15 1003.79 1508.17 1002.74C1499.94 1002.74 1492.12 1006.51 1486.77 1013.06C1477.45 997.259 1462.58 985.923 1445.36 981.496C1430.53 976.785 1415.2 974.011 1399.72 973.236C1395.14 967.451 1389.09 963.153 1382.26 960.845C1370.43 957.305 1357.75 956.125 1346.2 951.7C1332.4 936.359 1318.03 922.199 1303.1 907.744C1303.61 899.086 1307.73 891.101 1314.37 885.913C1319.53 882.646 1325.55 881.199 1331.55 881.783C1332.32 884.847 1333.77 887.678 1335.78 890.043C1345.61 885.559 1356.41 883.928 1367.05 885.323C1373.04 886.252 1378.21 890.229 1380.85 895.943" fill="#F6D660"/>
<path d="M1422.26 901.84C1446.77 904.2 1641.41 912.755 1665.64 917.77C1662.54 922.49 1690.43 933.701 1689.02 939.306C1667.05 939.306 1444.8 919.835 1422.82 918.36C1424.77 913 1424.57 907.041 1422.26 901.84Z" fill="#F6D660"/>
<path d="M1567.61 912.467C1571.62 912.459 1575.6 911.864 1579.44 910.697C1635.78 915.122 1692.12 919.843 1746.77 924.563C1749.47 928.335 1751.39 932.656 1752.4 937.248C1752.4 939.608 1752.4 942.853 1749.02 942.263C1726.77 942.263 1704.8 939.903 1682.82 938.428L1570.15 930.168L1567.61 912.467Z" fill="#F6D660"/>
<path d="M1278.88 674.096C1271.84 681.176 1255.22 690.616 1253.81 706.547C1254.9 722.354 1262.64 736.837 1274.94 746.078C1276.63 746.078 1281.98 753.453 1281.98 746.078C1282.21 739.596 1284.05 733.291 1287.33 727.787C1298.62 728.762 1309.98 727.562 1320.85 724.247C1333.37 717.889 1344.87 709.529 1354.94 699.466H1292.96L1278.88 674.096Z" fill="#866F57"/>
<path d="M1881.41 522.161C1865.35 506.821 1820.56 525.996 1807.61 529.536C1794.65 533.076 1767.89 542.517 1765.35 538.682C1762.82 534.847 1754.93 533.076 1741.69 530.421L1689.02 519.506C1725.57 500.426 1759.88 476.963 1791.27 449.589C1809.36 426.474 1824.16 400.738 1835.21 373.182C1849.58 337.781 1863.38 284.679 1857.18 276.419C1850.99 268.159 1811.55 292.055 1789.3 298.545C1779.29 302.815 1768.27 303.742 1757.75 301.2C1736.49 305.77 1715.59 311.982 1695.21 319.785C1679.44 324.506 1680.28 318.015 1672.4 317.13C1664.51 316.245 1624.79 341.026 1601.13 348.401C1577.47 355.776 1579.16 351.056 1574.65 348.401C1570.14 345.746 1487.61 381.737 1436.34 399.143C1385.07 416.548 1395.78 444.279 1402.82 466.405C1409.86 488.53 1307.89 509.771 1337.75 554.907C1355.49 582.343 1401.13 542.812 1415.21 541.042C1429.3 539.272 1426.76 548.417 1417.75 561.397C1401.8 578.319 1382.59 591.493 1361.41 600.043C1339.44 610.074 1302.54 629.544 1292.68 634.264C1282.82 638.984 1283.94 663.765 1282.25 670.255C1281.6 671.983 1280.53 673.506 1279.16 674.68L1293.24 701.526H1354.93C1364.55 693.28 1374.93 686.065 1385.92 679.991C1416.85 666.957 1449.37 658.517 1482.54 654.915C1490.32 653.826 1498.22 655.711 1504.79 660.225C1515.01 667.523 1526.84 671.988 1539.16 673.205C1549.86 673.205 1539.16 685.596 1547.04 693.561C1554.6 700.429 1560.08 709.449 1562.82 719.522C1565 727.233 1564.09 735.545 1560.28 742.532C1556.9 751.678 1568.17 759.053 1564.79 764.658C1561.41 770.263 1564.79 780.293 1563.1 794.159C1562.38 802.332 1565.67 810.329 1571.83 815.399C1571.83 815.399 1579.72 801.534 1583.38 793.274C1587.04 785.014 1592.11 787.669 1601.13 789.734C1605.46 790.962 1610.03 790.962 1614.37 789.734C1616.92 800.217 1621.1 810.185 1626.76 819.235C1637.47 837.82 1640.85 824.84 1642.54 815.694C1644.23 806.549 1646.2 807.434 1657.47 809.204C1668.73 810.974 1668.17 802.714 1664.51 788.849C1660.85 774.983 1671.55 778.818 1681.13 783.244C1690.71 787.669 1702.25 788.849 1700.56 783.244C1694.9 773.055 1688.69 763.206 1681.97 753.743C1675.78 743.712 1681.97 732.502 1697.75 746.367C1713.52 760.233 1717.18 751.088 1716.34 744.597C1715.12 738.784 1713.02 733.208 1710.14 728.077C1708.45 724.537 1719.72 728.077 1732.11 715.097C1744.51 702.116 1730.42 706.836 1721.69 708.606C1712.96 710.376 1710.14 708.606 1721.69 697.691C1733.24 686.776 1725.35 685.596 1715.49 685.596C1705.64 685.596 1712.11 679.991 1727.89 672.615C1743.66 665.24 1731.55 658.75 1724.51 649.605C1717.47 640.46 1708.73 637.509 1714.09 637.509C1719.44 637.509 1755.49 637.509 1775.78 637.509C1796.06 637.509 1857.75 658.75 1871.83 656.095C1885.92 653.44 1902.54 629.249 1907.04 594.438C1912.87 567.159 1902.83 538.841 1881.41 522.161Z" fill="#866F57"/>
<path d="M1559.16 889.158C1559.01 891.644 1559.6 894.117 1560.85 896.238C1563.38 900.074 1569.86 901.844 1577.75 896.238C1590.74 886.629 1597.57 870.27 1595.5 853.757C1592.12 846.382 1617.47 816.881 1623.67 811.276C1629.86 805.671 1602.54 762.305 1602.54 762.305L1570.99 783.545C1565.7 801.507 1559.21 819.055 1551.55 836.057C1547.05 840.777 1542.82 840.777 1539.16 848.152C1535.5 855.527 1532.12 863.788 1524.23 865.558C1516.34 867.328 1517.75 871.753 1518.88 875.588C1521.13 884.733 1532.68 885.028 1537.47 883.848C1536.58 886.013 1536.58 888.468 1537.47 890.633C1540.35 893.844 1544.45 895.538 1548.65 895.252C1552.84 894.967 1556.7 892.732 1559.16 889.158Z" fill="#866F57"/>
<path d="M1492.96 919.535C1494.05 912.632 1497.44 906.359 1502.54 901.835C1505.57 898.501 1508.87 895.441 1512.4 892.689C1513.22 896.378 1513.79 900.125 1514.09 903.9C1514.09 908.62 1517.75 902.13 1521.97 899.18C1523.75 897.836 1525.64 896.652 1527.61 895.64C1528.91 898.138 1529.86 900.821 1530.43 903.605C1530.43 908.03 1532.96 911.57 1536.62 906.26L1543.38 897.115C1544.99 899.647 1546.41 902.311 1547.61 905.08C1549.86 910.095 1552.4 909.21 1555.5 905.08C1556.72 903.704 1558.04 902.422 1559.44 901.245C1561.11 902.687 1562.29 904.652 1562.82 906.85C1565.25 915.411 1564.75 924.593 1561.41 932.811C1559.66 935.285 1556.89 936.744 1553.95 936.744C1551 936.744 1548.24 935.285 1546.48 932.811C1543.49 934.598 1539.97 935.126 1536.62 934.286C1533.27 933.328 1530.31 931.258 1528.17 928.385C1525.14 930.857 1521.27 931.923 1517.47 931.336C1514.62 930.796 1512.09 929.099 1510.43 926.615C1506.54 927.639 1502.48 927.639 1498.59 926.615C1495.67 925.441 1493.54 922.76 1492.96 919.535Z" fill="#866F57"/>
<path d="M1577.47 896.231C1577.47 896.231 1587.05 898.886 1596.06 885.021C1601.11 879.199 1603.02 871.1 1601.13 863.485C1599.9 860.111 1598.87 856.663 1598.03 853.16C1598.15 845.832 1600.63 838.762 1605.07 833.1L1593.24 820.119L1577.47 896.231Z" fill="#866F57"/>
<path d="M1312.11 652.851C1306.76 663.766 1314.65 675.566 1326.76 670.256C1332.41 668.005 1335.95 662.101 1335.42 655.794C1334.9 649.487 1330.44 644.311 1324.51 643.115C1321.13 643.115 1319.72 647.54 1323.1 648.72L1317.18 655.506C1318.87 652.261 1314.08 649.015 1312.39 652.556L1312.11 652.851Z" fill="white"/>
</svg>
