<svg width="2000" height="1417" viewBox="0 0 2000 1417" fill="none" xmlns="http://www.w3.org/2000/svg">
<g clip-path="url(#clip0)">
<path d="M2000 0H0V1416.04H2000V0Z" fill="#3A7DCE"/>
<path d="M492.728 681.011C481.833 657.864 481.833 657.864 481.833 634.719C476.384 634.719 475.363 635.806 472.212 634.896C469.061 633.994 467.871 656.239 457.653 651.897C455.951 649.727 464.975 633.637 455.185 626.948C452.035 624.769 455.951 611.571 454.588 605.784C454.588 605.784 442.161 612.653 432.795 588.426C428.196 582.094 421.898 594.21 421.898 594.21C421.898 594.21 424.621 601.624 419.685 603.434C412.704 598.007 407.594 600.854 398.742 593.397C389.887 585.937 400.615 577.395 383.758 571.065C394.656 542.134 394.656 547.918 421.898 536.347C405.551 524.773 405.551 524.773 394.656 507.412C378.309 501.625 372.86 495.841 356.513 484.267C334.72 455.333 323.822 397.469 323.822 356.964C337.615 343.4 356.513 403.256 383.758 420.614L421.898 437.975C443.691 449.549 449.139 461.12 465.486 472.693L514.524 490.054C536.317 507.412 547.215 530.56 563.562 536.347C581.269 536.347 584.68 525.515 590.357 524.841C622.389 523.097 638.736 518.715 645.121 508.497C651.588 500.36 667.083 513.199 710.672 495.841L705.225 472.693C705.225 472.693 716.803 462.567 732.467 466.907C732.043 456.329 731.018 428.12 746.449 415.392C737.078 404.952 743.365 397.469 743.365 397.469C743.365 397.469 752.051 388.607 753.07 383.905C748.475 358.408 757.056 358.014 758.981 350.511C760.903 343.012 751.57 345.581 754.201 335.241C756.828 324.897 772.613 322.442 774.725 313.923C776.846 305.404 770.225 301.13 770.607 299.097C774.013 290.961 771.121 271.791 770.607 264.377C799.895 256.059 809.43 230.743 819.645 241.231C825.094 206.511 830.543 194.938 863.233 194.938C867.833 184.269 851.311 175.227 857.785 171.792C868.682 170.345 877.024 171.069 889.801 188.61C893.833 194.168 894.564 180.472 898.65 179.025C902.736 177.578 912.516 177.556 913.97 170.707C915.508 163.654 917.72 154.432 923.169 142.859C927.766 133.456 931.341 146.476 935.427 164.92C958.416 165.824 1010.35 171.25 1032.14 177.578C1048.49 182.099 1059.38 173.057 1075.05 171.249C1086.63 183.545 1097.52 174.324 1103.65 200.544C1112.31 214.692 1126.47 201.81 1129.53 205.969C1147.76 259.314 1210.41 223.328 1215.18 224.233C1223.18 224.233 1232.95 248.084 1239.25 247.492C1249.49 245.661 1246.59 238.247 1255.53 241.231C1253.14 261.303 1273.07 284.449 1273.07 299.457C1273.07 299.457 1277.92 301.989 1282.42 297.536C1286.91 293.085 1291.03 281.647 1295.03 281.917C1304.57 283.364 1308.43 284.664 1319.42 286.704C1348.96 297.424 1364.01 299.842 1375.49 305.335C1380.83 315.71 1386 321.023 1396.82 319.084C1405.76 325.462 1399.24 333.816 1404.52 334.358C1415.42 328.571 1418.99 322.242 1429.89 328.029C1440.78 333.816 1451.68 345.39 1457.13 356.964C1457.13 362.748 1451.68 385.895 1457.13 420.614C1459.85 432.188 1461.17 441.364 1472.88 461.211C1469.77 481.601 1487.61 515.911 1487.61 524.593C1487.61 536.164 1478.92 542.134 1473.48 553.705C1495.27 571.065 1473.48 599.997 1462.58 617.358C1544.31 634.719 1506.17 669.437 1571.55 652.077C1555.2 692.582 1560.99 689.33 1577.34 729.836C1544.64 752.984 1576.66 760.032 1554.87 788.964C1553.5 790.774 1567.8 814.102 1587.9 814.102C1582.45 860.394 1566.1 843.034 1571.55 912.474C1528.64 911.572 1546.01 964.373 1517.06 958.766C1518.77 991.858 1533.58 994.753 1527.96 1028.2C1506.17 1033.99 1506.17 1033.99 1495.27 1051.35L1478.92 1045.56C1473.48 1074.5 1462.58 1080.28 1478.92 1109.22C1478.92 1109.22 1457.81 1109.94 1451.68 1109.22C1451.17 1119.16 1461.05 1121.88 1462.58 1132.36C1461.73 1136.52 1431.59 1154.79 1408.09 1155.51C1401.96 1169.8 1424.44 1184.99 1423.08 1192.22C1397.53 1197.46 1386.3 1230.73 1386.3 1230.73C1386.3 1230.73 1399.41 1236.34 1397.2 1242.31C1390.22 1236.88 1386.3 1236.52 1375.4 1236.52C1369.95 1237.97 1356.67 1236.17 1343.94 1258.99C1329.96 1263.89 1323.37 1262.12 1312.77 1277C1308.07 1262.82 1301.32 1277.14 1293.07 1282.64C1284.82 1288.15 1273.71 1301.84 1272.22 1301.26C1272.56 1297.28 1277.33 1282.81 1277.33 1282.81L1250.08 1288.6C1250.08 1288.6 1248.87 1288.73 1246.73 1288.96C1244.59 1289.18 1245.16 1272.07 1239.99 1272.69C1234.83 1273.31 1220.06 1294.21 1215.03 1294.87C1210 1295.52 1208.41 1288.22 1204.07 1288.85C1199.74 1289.49 1191.3 1310.9 1188.23 1311.47C1185.16 1312.04 1173 1298.46 1162.57 1300.35C1108.93 1320.43 1100.42 1260.75 1092.07 1294.39C1080.84 1288.06 1082.78 1291.73 1071.37 1294.91C1064.08 1296.9 1063.42 1284.68 1056.94 1284.87C1043.98 1285.25 1044.66 1298.28 1037.59 1294.39C1031.8 1267.26 996.892 1272.14 993.489 1260.57C990.72 1248.5 1008.61 1248.56 1014.4 1240.38C1018.82 1228.58 1009.78 1224.1 1027.73 1212.72C1051.13 1195.91 1037.68 1189.57 1041.78 1176.94C1049.12 1158.7 1049.17 1154.24 1043.04 1138.15C1043.04 1138.15 1024.82 1086.07 1021.24 1086.07C1010.35 1082.82 1010.35 1105.24 994.338 1111.39C961.648 1122.96 903.93 1082.09 893.881 1082.09C884.69 1082.27 842.11 1092.8 843.717 1070.25C837.352 1092.17 813.94 1075.4 812.497 1075.4C790.701 1075.4 799.043 1093.3 784.397 1092.58C777.755 1090.23 710.672 1086.07 710.672 1086.07V1097.64L667.083 1074.5L628.943 1062.93C596.252 1051.35 612.599 1022.42 558.113 1039.78V1005.06H530.871C541.766 935.619 530.871 970.34 525.422 906.687L503.626 912.474C481.833 881.19 533.932 887.156 487.282 866.181C487.282 866.181 488.131 831.64 476.384 843.034C474 844.481 481.833 860.394 481.833 860.394C438.244 854.607 427.346 843.034 427.346 796.741C427.346 796.741 463.274 802.168 460.037 796.741C454.93 788.062 448.29 731.643 449.481 727.846C448.97 720.249 482.855 701.084 476.298 682.816C480.47 681.188 492.728 681.011 492.728 681.011Z" fill="white"/>
<path d="M1600.84 849.543C1599.25 853.346 1599.53 857.143 1601.17 859.855C1604.13 855.15 1601.63 852.98 1600.84 849.543Z" stroke="white" stroke-width="2.5" stroke-linejoin="round"/>
<path d="M321.27 422.966C321.27 422.966 312.926 421.881 314.8 429.658C317.525 423.688 321.101 423.328 321.27 422.966Z" stroke="white" stroke-width="2.5" stroke-linejoin="round"/>
<path d="M323.143 404.883C318.546 405.066 312.925 404.161 314.799 411.934C317.525 405.968 322.973 405.245 323.143 404.883Z" stroke="white" stroke-width="2.5" stroke-linejoin="round"/>
<path d="M354.538 508.498C354.538 508.498 361.691 507.956 359.818 515.733C357.092 509.763 354.71 508.861 354.538 508.498Z" stroke="white" stroke-width="2.5" stroke-linejoin="round"/>
</g>
<defs>
<clipPath id="clip0">
<rect width="2000" height="1416.04" rx="186" fill="white"/>
</clipPath>
</defs>
</svg>
