<svg width="2000" height="1417" viewBox="0 0 2000 1417" fill="none" xmlns="http://www.w3.org/2000/svg">
<g clip-path="url(#clip0)">
<path d="M2000 0H0V1416.04H2000V0Z" fill="#002395"/>
<path d="M813.333 0H0V580.576H813.333V0Z" fill="white"/>
<path d="M266.667 0H0V566.416H266.667V0Z" fill="#002395"/>
<path d="M800.001 0H533.334V566.416H800.001V0Z" fill="#ED2939"/>
<path d="M1183.33 647.838L1226.25 720.41H1348.33V973.527L1256.67 821.303L1133.33 1030.17H1193.33L1256.67 909.805L1386.67 1157.61L1516.67 909.805L1580 1030.17H1640L1516.67 821.303L1425 973.527V833.693H1480L1520.83 764.661H1425V720.41H1547.08L1590 647.838H1183.33ZM1326.67 957.597H1193.33V1007.16H1326.67V957.597ZM1580 957.597H1446.67V1007.16H1580V957.597Z" fill="white"/>
<path d="M1386.67 1277.98L1388.63 1284.38L1383.5 1280.42H1389.84L1384.71 1284.38L1386.67 1277.98Z" fill="white"/>
<path d="M1236.67 1157.61L1238.63 1164.02L1233.5 1160.06H1239.84L1234.71 1164.02L1236.67 1157.61Z" fill="white"/>
<path d="M1536.67 1157.61L1538.63 1164.02L1533.5 1160.06H1539.84L1534.71 1164.02L1536.67 1157.61Z" fill="white"/>
<path d="M1110 800.062L1111.96 806.467L1106.83 802.509H1113.17L1108.04 806.467L1110 800.062Z" fill="white"/>
<path d="M1663.33 800.062L1665.29 806.467L1660.16 802.509H1666.5L1661.37 806.467L1663.33 800.062Z" fill="white"/>
</g>
<defs>
<clipPath id="clip0">
<rect width="2000" height="1416.04" rx="186" fill="white"/>
</clipPath>
</defs>
</svg>
