<svg width="2000" height="1417" viewBox="0 0 2000 1417" fill="none" xmlns="http://www.w3.org/2000/svg">
<path d="M1644.22 480.281L1934.65 71.6944C1900.73 31.3578 1851.88 8.25147 1800.56 8.26759H187.323C136.002 8.25147 87.1552 31.3578 53.2383 71.6944L343.661 480.281H1644.22Z" fill="#434A54"/>
<path d="M989.854 311.236L1055.49 210.638C1058.48 205.803 1064.21 203.689 1069.44 205.49C1074.66 207.292 1078.08 212.557 1077.74 218.309L1074.64 340.147C1074.48 344.39 1076.36 348.437 1079.64 350.927C1082.93 353.418 1087.18 354.022 1090.98 352.537L1200.56 311.826C1205.76 309.532 1211.79 311.306 1215.09 316.101C1218.39 320.897 1218.09 327.445 1214.36 331.887L1143.66 428.355C1141.15 431.678 1140.4 436.09 1141.64 440.118C1142.89 444.146 1145.97 447.258 1149.85 448.415L1262.53 482.931C1267.81 484.431 1271.47 489.447 1271.47 495.174C1271.47 500.901 1267.81 505.917 1262.53 507.417L1149.85 541.933C1145.97 543.09 1142.89 546.202 1141.64 550.23C1140.4 554.258 1141.15 558.67 1143.66 561.993L1214.64 658.461C1218.37 662.903 1218.67 669.451 1215.37 674.246C1212.07 679.042 1206.04 680.816 1200.84 678.522L1091.26 637.81C1087.46 636.326 1083.21 636.93 1079.92 639.421C1076.64 641.911 1074.76 645.958 1074.92 650.201L1078.02 772.039C1078.36 777.791 1074.95 783.056 1069.72 784.857C1064.49 786.659 1058.76 784.545 1055.77 779.709L989.854 678.522C987.617 674.935 983.804 672.774 979.713 672.774C975.623 672.774 971.809 674.935 969.573 678.522L903.939 779.119C900.945 783.955 895.216 786.069 889.989 784.267C884.762 782.466 881.352 777.201 881.685 771.449L884.784 649.021C884.946 644.778 883.069 640.731 879.785 638.241C876.501 635.75 872.245 635.146 868.446 636.63L758.868 678.522C753.666 680.816 747.641 679.042 744.341 674.246C741.041 669.451 741.342 662.903 745.066 658.461L816.897 561.993C819.401 558.67 820.157 554.258 818.913 550.23C817.668 546.202 814.588 543.09 810.699 541.933L698.023 507.417C692.746 505.917 689.082 500.901 689.082 495.174C689.082 489.447 692.746 484.431 698.023 482.931L810.699 448.415C814.588 447.258 817.668 444.146 818.913 440.118C820.157 436.09 819.401 431.678 816.897 428.355L745.911 331.887C742.187 327.445 741.886 320.897 745.186 316.101C748.486 311.306 754.511 309.532 759.713 311.826L868.446 354.012C872.245 355.497 876.501 354.893 879.785 352.402C883.069 349.912 884.946 345.865 884.784 341.622L881.685 218.309C881.352 212.557 884.762 207.292 889.989 205.49C895.216 203.689 900.945 205.803 903.939 210.638L969.573 311.236C971.809 314.822 975.623 316.984 979.713 316.984C983.804 316.984 987.617 314.822 989.854 311.236Z" fill="#F6BB42"/>
<path d="M1246.76 480.275H712.956H343.66L679.153 952.289H1308.45L1644.22 480.275H1246.76Z" fill="#3BAFDA"/>
<path d="M993.804 1394.81L1308.45 952.299H679.156L993.804 1394.81Z" fill="white"/>
<path d="M343.661 480.274L53.2384 71.6875C24.1845 105.901 8.14494 150.1 8.16799 195.886V1206.88C8.16799 1310.5 88.3784 1394.5 187.323 1394.5H993.802L679.154 951.992L343.661 480.274Z" fill="#ED5565"/>
<path d="M1934.65 71.6875L1644.23 480.274L1308.73 952.287L994.086 1394.8H1800.56C1899.51 1394.8 1979.72 1310.8 1979.72 1207.17V196.181C1979.81 150.293 1963.77 105.976 1934.65 71.6875Z" fill="#ED5565"/>
</svg>
