<svg width="2000" height="1417" viewBox="0 0 2000 1417" fill="none" xmlns="http://www.w3.org/2000/svg">
<path d="M1811.55 9.72461H169.017C85.9356 20.4551 19.7789 87.6912 7.04492 174.339V1228.11C20.9572 1323.75 99.4562 1394.43 191.834 1394.49H1788.73C1892.04 1394.49 1975.78 1306.79 1975.78 1198.61V204.135C1975.77 105.196 1905.32 21.794 1811.55 9.72461Z" fill="#4658A9"/>
<path d="M707.335 8.57812H189.026C86.4958 9.71018 3.94938 97.0804 3.95508 204.464V715.418H708.18L707.335 8.57812Z" fill="#4658A9"/>
<path d="M300.856 521.866V715.391H410.716V517.441L599.73 715.391H707.335V626.889L510.152 420.383H707.335V302.379H510.152L707.335 95.8736V7.37109H599.448L410.716 205.027V7.37109H300.856V200.897L127.335 19.1714C83.2989 35.883 46.8243 69.2415 25.0818 112.689L205.645 301.789H3.95508V419.793H205.645L3.95508 631.019V714.506H116.631L300.856 521.866Z" fill="white"/>
<path d="M329.017 441.06V715.713H382.538V436.635L647.89 715.418H706.481V678.542L430.988 390.024H706.481V333.087H430.988L706.481 44.5691V8.57812H647.89L381.693 287.361V8.57812H328.172V282.936L93.5237 36.8989C74.5488 48.9548 57.7636 64.4362 43.9462 82.6252L283.101 333.087H3.38281V390.614H283.101L3.38281 683.557V715.713H66.1997L329.017 441.06Z" fill="#EC5463"/>
<path d="M1178.31 388.525C1169.3 395.31 1163.94 391.475 1166.76 379.969L1176.62 337.783C1178.88 325.177 1174.96 312.224 1166.2 303.267L1138.03 276.422C1129.58 268.751 1131.83 262.261 1142.82 261.966H1183.94C1195.72 260.97 1205.79 252.736 1209.58 241.021L1222.54 194.704C1225.63 183.494 1231.27 183.199 1234.93 194.704L1250.42 240.136C1255.15 252.113 1266.22 259.999 1278.59 260.196H1320.56C1331.55 260.196 1333.8 266.686 1325.35 274.357L1293.52 303.857C1284.88 312.752 1281.25 325.704 1283.94 338.078L1294.08 375.249C1297.18 386.46 1292.11 390.59 1282.54 384.69L1248.45 362.564C1238.13 356.104 1225.25 356.104 1214.93 362.564L1178.31 388.525Z" fill="white"/>
<path d="M1516.34 506.523C1507.33 513.308 1501.97 509.473 1504.79 497.968L1514.65 455.781C1516.91 443.175 1512.99 430.222 1504.23 421.265L1476.06 394.42C1467.61 386.749 1469.86 380.259 1480.85 379.964H1521.97C1533.74 378.968 1543.82 370.734 1547.61 359.019L1560.57 312.702C1563.66 301.492 1569.3 301.197 1572.96 312.702L1588.45 358.134C1593.18 370.111 1604.25 377.997 1616.62 378.194H1658.59C1669.58 378.194 1671.83 384.684 1663.38 392.355L1631.55 421.855C1622.91 430.75 1619.28 443.702 1621.97 456.076L1632.11 493.247C1635.21 504.458 1630.14 508.588 1620.57 502.688L1586.48 480.562C1576.16 474.103 1563.28 474.103 1552.96 480.562L1516.34 506.523Z" fill="white"/>
<path d="M1009.3 713.025C1000.29 719.81 994.934 715.975 997.751 704.469L1007.61 662.283C1009.87 649.677 1005.95 636.724 997.188 627.767L969.019 600.922C960.568 593.251 962.822 586.761 973.808 586.466H1014.93C1026.71 585.47 1036.78 577.236 1040.57 565.521L1053.53 519.204C1056.62 507.994 1062.26 507.699 1065.92 519.204L1081.41 564.636C1086.14 576.613 1097.21 584.499 1109.58 584.696H1151.55C1162.54 584.696 1164.79 591.186 1156.34 598.856L1124.51 628.357C1115.87 637.252 1112.24 650.204 1114.93 662.578L1125.08 699.749C1128.17 710.96 1123.1 715.09 1113.53 709.19L1079.44 687.064C1069.12 680.604 1056.24 680.604 1045.92 687.064L1009.3 713.025Z" fill="white"/>
<path d="M318.031 1184.16C306.481 1192.71 299.721 1187.99 303.101 1173.24L315.495 1118.96C318.33 1102.77 313.257 1086.17 301.974 1074.71L263.946 1040.19C253.242 1030.46 256.059 1022.2 270.143 1021.61L323.383 1020.13C338.602 1018.98 351.689 1008.41 356.622 993.288L373.242 934.286C377.186 919.831 384.51 919.536 389.298 934.286L409.298 993.288C415.121 1008.2 428.591 1018.29 443.946 1019.25H498.031C512.115 1019.25 515.214 1027.51 504.51 1037.54L463.383 1075.3C452.135 1086.76 447.433 1103.55 450.988 1119.55L464.228 1167.34C468.171 1181.8 461.411 1187.11 449.298 1179.14L405.355 1149.64C392.052 1141.46 375.559 1141.46 362.256 1149.64L318.031 1184.16Z" fill="white"/>
<path d="M1418.03 861.422C1411.55 866.142 1407.89 863.487 1409.58 855.522L1416.62 826.021C1418.13 817.043 1415.28 807.867 1409.02 801.536L1387.89 782.36C1381.98 777.05 1383.38 772.33 1391.27 772.035H1419.44C1427.87 771.309 1435.07 765.39 1437.75 756.989L1447.05 723.948C1449.3 715.983 1453.24 715.688 1456.06 723.948L1467.33 756.399C1470.54 764.66 1477.98 770.273 1486.48 770.855H1516.62C1524.51 770.855 1526.2 775.575 1520.29 780.885L1497.47 801.831C1492.17 808.586 1490.48 817.677 1492.96 826.021L1500.29 852.572C1502.54 860.537 1498.88 863.487 1492.12 859.357L1467.61 843.427C1460.22 838.886 1451.06 838.886 1443.67 843.427L1418.03 861.422Z" fill="white"/>
</svg>
