<svg width="2000" height="1417" viewBox="0 0 2000 1417" fill="none" xmlns="http://www.w3.org/2000/svg">
<path d="M7.88867 212.7V478.208H1979.72V212.7C1979.72 104.516 1895.98 16.8147 1792.68 16.8147H195.213C145.557 16.7364 97.9098 37.3397 62.7716 74.0838C27.6335 110.828 7.88862 160.697 7.88867 212.7Z" fill="#4758A9"/>
<path d="M7.88867 941.376H1979.72V479.098H7.88867V941.376Z" fill="#ED5565"/>
<path d="M7.88867 1207.17C7.88867 1315.35 91.6303 1403.06 194.931 1403.06H1792.68C1895.98 1403.06 1979.72 1315.35 1979.72 1207.17V941.662H7.88867V1207.17Z" fill="#57A863"/>
<path d="M1053.81 787.666C1046.48 792.976 1042.26 790.026 1044.51 780.881L1052.68 746.66C1055.07 736.006 1051.97 724.818 1044.51 717.159L1021.13 695.033C1014.37 688.838 1016.34 683.528 1025.07 683.233H1058.03C1067.59 682.563 1075.82 675.925 1078.88 666.417L1089.58 628.951C1092.12 619.806 1096.62 619.806 1099.72 628.951L1111.83 666.122C1115.28 675.581 1123.61 682.124 1133.24 682.938H1167.05C1175.78 682.938 1177.75 688.248 1170.99 694.443L1145.07 718.044C1138 725.21 1135.01 735.723 1137.19 745.775L1145.07 775.275C1147.33 784.421 1143.38 787.666 1135.78 782.651L1107.61 764.36C1099.02 758.623 1088.03 758.623 1079.44 764.36L1053.81 787.666ZM1101.69 843.717C1064.7 865.266 1020.41 868.244 981.085 851.828C941.761 835.412 911.574 801.343 898.876 759.05C889.455 728.906 888.38 696.584 895.778 665.827C906.036 622.916 934.141 587.092 972.347 568.229C1010.55 549.366 1054.83 549.456 1092.96 568.475C1094.19 568.835 1095.51 568.664 1096.62 567.999C1097.74 567.333 1098.55 566.23 1098.88 564.934C1099.51 562.728 1098.71 560.345 1096.9 559.034C1050.1 519.187 987.055 507.257 929.894 527.431C872.734 547.605 829.443 597.064 815.215 658.452C805.812 695.575 807.086 734.778 818.876 771.145C833.39 818.497 865.34 857.831 907.643 880.425C949.946 903.02 999.107 907.009 1044.23 891.509H1046.76C1069.22 883.291 1089.83 870.339 1107.33 853.453C1109.03 852.064 1109.71 849.695 1109.02 847.552C1108.21 844.972 1105.59 843.533 1103.1 844.307L1101.69 843.717ZM1105.64 798.286C1102.54 807.136 1097.47 806.841 1094.37 798.286L1082.26 767.015C1078.22 757.583 1070 750.847 1060.28 749.02L1029.02 744.89C1020.28 744.89 1018.59 738.399 1025.92 732.794L1054.09 712.439C1061.54 706.161 1064.66 695.8 1061.98 686.183L1049.02 649.012C1046.2 640.162 1049.02 637.212 1057.19 642.817L1087.33 666.122C1095.43 671.402 1105.7 671.402 1113.81 666.122L1141.98 646.652C1149.3 641.637 1153.52 644.587 1151.27 653.732L1142.82 688.543C1140.96 698.658 1144.27 709.057 1151.55 715.979L1174.65 736.039C1181.69 742.235 1180 747.25 1170.99 747.84H1138.59C1128.99 748.696 1120.64 755.059 1116.9 764.36L1105.64 798.286Z" fill="white"/>
</svg>
