<svg width="2000" height="1417" viewBox="0 0 2000 1417" fill="none" xmlns="http://www.w3.org/2000/svg">
<path d="M1880.56 29.4951C1857.54 18.6186 1832.57 12.9875 1807.32 12.9746H194.078C168.097 12.9685 142.427 18.9089 118.867 30.3801L1002.25 622.462L1880.56 29.4951Z" fill="#ED5565"/>
<path d="M1976.05 1274.43C1983.09 1254.09 1986.71 1232.63 1986.75 1211V200.008C1986.61 179.929 1983.37 160.007 1977.18 141.006L1132.11 710.667L1976.05 1274.43Z" fill="#52C162"/>
<path d="M23.9401 141.006C17.9404 160.041 14.897 179.962 14.926 200.008V1211C14.9827 1234.54 19.2834 1257.87 27.602 1279.74L872.672 709.487L23.9401 141.006Z" fill="#52C162"/>
<path d="M130.418 1386.54C150.74 1394.7 172.316 1398.9 194.08 1398.93H1807.32C1831.52 1398.96 1855.48 1393.84 1877.74 1383.88L1003.09 796.521L130.418 1386.54Z" fill="#ED5565"/>
<path d="M1976.05 1274.43L1133.23 709.492L1978.3 139.831C1962.31 90.3673 1927.42 50.0839 1881.97 28.6133L1003.37 621.58L118.867 29.4983C73.869 51.3334 39.5064 91.6988 23.9375 141.011L873.233 709.492L28.1629 1279.74C46.718 1328.83 84.136 1367.49 131.261 1386.24L1004.5 796.225L1879.15 1382.41C1924.19 1361.81 1959.21 1322.79 1976.05 1274.43Z" fill="white"/>
<path d="M1006.76 1136.07C1232.34 1136.07 1415.21 944.55 1415.21 708.303C1415.21 472.057 1232.34 280.541 1006.76 280.541C781.174 280.541 598.305 472.057 598.305 708.303C598.305 944.55 781.174 1136.07 1006.76 1136.07Z" fill="white"/>
<path d="M947.883 660.225C937.46 667.895 931.545 663.47 934.643 650.489L945.911 602.108C948.496 587.635 943.942 572.772 933.798 562.577L899.995 533.076C890.418 524.226 892.953 516.851 905.629 516.556H952.953C965.972 514.983 976.949 505.67 981.122 492.66L996.052 439.853C999.714 427.168 1006.19 426.873 1010.42 439.853L1028.16 491.775C1033.33 504.983 1045.26 513.925 1058.87 514.786H1107.04C1119.71 514.786 1122.25 522.161 1112.67 531.011L1076.05 564.642C1066.08 574.803 1061.91 589.687 1065.07 603.878L1076.9 646.359C1080.56 659.045 1074.36 664.06 1063.66 656.98L1024.5 631.609C1012.68 624.318 998.014 624.318 986.192 631.609L947.883 660.225Z" fill="#ED5565"/>
<path d="M807.043 955.227C796.62 962.897 790.705 958.472 793.803 945.786L805.071 897.405C807.656 882.932 803.102 868.069 792.958 857.874L759.155 828.373C749.578 819.523 752.113 812.148 764.789 811.853H812.113C825.132 810.279 836.109 800.967 840.282 787.957L855.212 735.15C858.874 722.465 865.353 722.17 869.578 735.15L887.324 787.072C892.492 800.28 904.424 809.222 918.029 810.082H966.198C978.874 810.082 981.409 817.458 971.831 826.308L935.212 859.939C925.241 870.1 921.074 884.984 924.226 899.175L936.057 941.656C939.719 954.341 933.522 959.357 922.817 952.276L883.663 926.906C871.841 919.615 857.174 919.615 845.353 926.906L807.043 955.227Z" fill="#ED5565"/>
<path d="M1088.73 955.227C1078.31 962.897 1072.39 958.472 1075.49 945.786L1086.76 897.405C1089.34 882.932 1084.79 868.069 1074.65 857.874L1040.84 828.373C1031.27 819.523 1033.8 812.148 1046.48 811.853H1093.8C1106.82 810.279 1117.8 800.967 1121.97 787.957L1136.9 735.15C1140.56 722.465 1147.04 722.17 1151.27 735.15L1169.01 787.072C1174.18 800.28 1186.11 809.222 1199.72 810.082H1247.89C1260.56 810.082 1263.1 817.458 1253.52 826.308L1216.9 859.939C1206.93 870.1 1202.76 884.984 1205.91 899.175L1217.74 941.656C1221.41 954.341 1215.21 959.357 1204.5 952.276L1165.35 926.906C1153.53 919.615 1138.86 919.615 1127.04 926.906L1088.73 955.227Z" fill="#ED5565"/>
</svg>
