<svg width="2000" height="1417" viewBox="0 0 2000 1417" fill="none" xmlns="http://www.w3.org/2000/svg">
<path d="M204.79 25.0684C105.845 25.0684 25.6348 109.071 25.6348 212.694V1223.69C25.6348 1327.31 105.845 1411.31 204.79 1411.31H683.663C683.663 949.133 683.663 486.953 683.663 24.7734L204.79 25.0684Z" fill="#434A54"/>
<path d="M683.098 25.0684C683.098 487.248 683.098 949.428 683.098 1411.61H1340.84C1340.84 949.428 1340.84 487.248 1340.84 25.0684H683.098Z" fill="#FFCE54"/>
<path d="M1818.03 25.0684H1340.56C1340.56 487.248 1340.56 949.428 1340.56 1411.61H1818.03C1916.97 1411.61 1997.18 1327.61 1997.18 1223.98V212.694C1997.18 109.071 1916.97 25.0684 1818.03 25.0684Z" fill="#ED5565"/>
</svg>
