<svg width="2000" height="1417" viewBox="0 0 2000 1417" fill="none" xmlns="http://www.w3.org/2000/svg">
<g clip-path="url(#clip0)">
<path d="M2000 0H0V1416.04H2000V0Z" fill="white"/>
<path d="M2000 1416.04H0L2000 0V1416.04Z" fill="#012A87"/>
<path d="M0 0V590.017L833.333 0H0Z" fill="#F9D90F"/>
<path d="M549.999 895.645C697.275 895.645 816.665 768.848 816.665 612.437C816.665 456.025 697.275 329.229 549.999 329.229C402.723 329.229 283.332 456.025 283.332 612.437C283.332 768.848 402.723 895.645 549.999 895.645Z" stroke="black" stroke-width="11"/>
<path d="M550 247.221L600 339.195H500L550 247.221Z" fill="black"/>
<path d="M549.998 431.893L697.222 702.71H402.773L549.998 431.893Z" fill="#DC171D"/>
</g>
<defs>
<clipPath id="clip0">
<rect width="2000" height="1416.04" rx="186" fill="white"/>
</clipPath>
</defs>
</svg>
