<svg width="2000" height="1417" viewBox="0 0 2000 1417" fill="none" xmlns="http://www.w3.org/2000/svg">
<path d="M1818.03 12.387H204.796C105.851 12.387 25.6406 96.3896 25.6406 200.012V690.906H1997.47V200.012C1997.47 150.2 1978.56 102.432 1944.9 67.2367C1911.24 32.0417 1865.6 12.3086 1818.03 12.387Z" fill="#ED5565"/>
<path d="M25.352 1211.01C25.352 1314.63 105.562 1398.64 204.507 1398.64H1817.75C1916.69 1398.64 1996.9 1314.63 1996.9 1211.01V690.91H25.0703L25.352 1211.01Z" fill="#52C162"/>
<path d="M873.237 948.153C851.265 964.379 838.589 955.234 845.068 927.798L868.73 825.135C874.149 794.472 864.522 763.007 843.096 741.353L771.547 676.451C751.265 657.865 756.336 642.23 783.378 641.345L883.66 638.395C912.399 636.146 937.1 616.193 946.476 587.653L978.026 475.55C985.631 448.409 999.434 447.819 1008.45 475.55L1046.19 586.178C1057.24 614.251 1082.61 633.263 1111.55 635.15H1213.8C1241.97 635.15 1246.19 650.785 1225.91 669.371L1148.17 740.763C1127.15 762.381 1118.39 793.903 1125.07 823.955L1149.86 914.228C1157.46 941.368 1144.79 951.694 1121.69 936.943L1037.18 883.252C1011.53 868.468 980.221 869.486 955.491 885.907L873.237 948.153Z" fill="#F6D660"/>
</svg>
