<svg width="2000" height="1417" viewBox="0 0 2000 1417" fill="none" xmlns="http://www.w3.org/2000/svg">
<path d="M1807.32 16.8145H193.803C94.8588 16.8145 14.6484 100.817 14.6484 204.44V1215.73C14.6484 1319.35 94.8588 1403.35 193.803 1403.35H1807.32C1906.27 1403.35 1986.48 1319.35 1986.48 1215.73V204.44C1986.48 100.817 1906.27 16.8145 1807.32 16.8145Z" fill="#ED5565"/>
<path d="M662.539 1250.54L525.638 1115.43L662.539 980.312L525.638 845.198L662.539 710.084L525.638 574.97L662.539 439.856L525.638 304.743L662.539 169.629L521.694 30.6798V16.8145H194.089C95.144 16.8145 14.9336 100.817 14.9336 204.44V1215.43C14.9336 1319.06 95.144 1403.06 194.089 1403.06H521.976V1389.19L662.539 1250.54Z" fill="white"/>
</svg>
