<svg width="2000" height="1417" viewBox="0 0 2000 1417" fill="none" xmlns="http://www.w3.org/2000/svg">
<path d="M25.3633 212.7V478.208H1997.19V212.7C1997.19 104.516 1913.45 16.8147 1810.15 16.8147H212.687C163.032 16.7364 115.384 37.3397 80.2462 74.0838C45.1081 110.828 25.3632 160.697 25.3633 212.7Z" fill="#3BAFDA"/>
<path d="M25.3633 941.376H1997.19V479.098H25.3633V941.376Z" fill="#FFCE54"/>
<path d="M25.3633 1207.17C25.3633 1315.35 109.105 1403.06 212.406 1403.06H1810.15C1913.45 1403.06 1997.19 1315.35 1997.19 1207.17V941.662H25.3633V1207.17Z" fill="#3BAFDA"/>
<path d="M84.5039 64.6113C46.3446 100.103 24.5072 150.997 24.5039 204.445V1215.44C24.5072 1268.89 46.3446 1319.78 84.5039 1355.27L813.236 709.795L84.5039 64.6113Z" fill="#434A54"/>
</svg>
