<svg width="2000" height="1417" viewBox="0 0 2000 1417" fill="none" xmlns="http://www.w3.org/2000/svg">
<path d="M1818.03 3.83984H204.505C105.56 3.83984 25.3496 87.8425 25.3496 191.465V1202.75C25.3496 1306.38 105.56 1390.38 204.505 1390.38H1818.03C1916.97 1390.38 1997.18 1306.38 1997.18 1202.75V191.465C1997.18 87.8425 1916.97 3.83984 1818.03 3.83984Z" fill="#4758A9"/>
<path d="M391.547 3.83984H1433.8V1390.38L391.547 3.83984Z" fill="#F6D660"/>
<path d="M230.699 143.969C223.093 141.609 222.812 136.889 230.699 133.349L258.868 120.368C266.623 116.064 271.805 107.979 272.671 98.8327V69.3319C272.671 61.0717 277.46 59.5966 282.53 65.7918L301.403 89.3925C307.116 95.8956 315.976 98.2152 323.938 95.2926L354.361 82.6073C361.685 79.3622 364.502 82.6073 359.995 89.6875L342.53 119.188C337.989 126.764 337.989 136.393 342.53 143.969L360.84 169.045C365.629 175.535 363.093 179.665 355.488 178.19L325.629 172.29C317.059 171.107 308.52 174.684 303.093 181.73L287.6 204.151C282.812 210.936 278.305 209.756 277.46 201.496L274.361 171.995C272.902 163.132 266.972 155.793 258.868 152.819L230.699 143.969Z" fill="white"/>
<path d="M352.392 306.219C344.787 303.859 344.505 299.139 352.392 295.599L380.561 282.618C388.352 278.356 393.548 270.248 394.364 261.083V231.582C394.364 223.322 399.153 221.847 404.223 228.042L423.097 251.642C428.809 258.146 437.669 260.465 445.632 257.543L476.054 244.857C483.378 241.907 485.913 244.857 481.688 251.937L464.223 281.438C459.683 289.014 459.683 298.643 464.223 306.219L482.533 331.295C487.322 337.785 484.787 341.915 477.181 340.44L447.322 334.54C438.752 333.357 430.213 336.934 424.787 343.98L409.294 366.401C404.505 373.186 399.998 372.006 399.153 363.746L395.773 334.245C394.313 325.382 388.384 318.043 380.28 315.069L352.392 306.219Z" fill="white"/>
<path d="M474.365 468.483C466.759 466.123 466.478 461.403 474.365 457.862L502.534 444.882C510.324 440.619 515.521 432.512 516.337 423.346V393.846C516.337 385.585 521.126 384.11 526.196 390.305L545.069 414.201C550.782 420.704 559.642 423.024 567.605 420.101L598.027 407.416C605.351 404.171 607.886 407.416 603.661 414.496L586.196 443.997C581.655 451.573 581.655 461.202 586.196 468.778L604.506 493.853C609.295 500.344 606.76 504.474 599.154 502.999L569.295 497.099C560.725 495.915 552.186 499.493 546.759 506.539L531.267 528.959C526.759 535.745 521.971 534.565 521.126 526.304L518.027 496.804C516.568 487.941 510.638 480.602 502.534 477.628L474.365 468.483Z" fill="white"/>
<path d="M596.338 630.733C588.732 628.373 588.45 623.652 596.338 620.112L624.507 607.132C632.297 602.869 637.493 594.762 638.309 585.596V556.096C638.309 547.835 643.098 546.36 648.169 552.555L667.042 576.451C672.755 582.954 681.614 585.274 689.577 582.351L720 569.666C727.324 566.716 729.859 569.666 725.633 576.746L708.169 606.247C703.628 613.823 703.628 623.452 708.169 631.028L726.478 656.103C731.267 662.594 728.732 666.724 721.126 665.249L691.267 659.348C682.698 658.165 674.158 661.742 668.732 668.789L653.239 691.209C648.45 697.995 643.943 696.814 643.098 688.554L639.718 659.053C638.316 650.163 632.365 642.797 624.225 639.878L596.338 630.733Z" fill="white"/>
<path d="M718.304 792.983C710.699 790.623 710.417 785.903 718.304 782.362L746.474 769.382C754.229 765.078 759.41 756.993 760.276 747.846V718.346C760.276 710.085 765.065 708.61 770.135 714.805L789.009 738.701C794.722 745.204 803.581 747.524 811.544 744.601L841.966 731.916C849.29 728.671 851.826 731.916 847.6 738.996L830.135 768.497C825.595 776.073 825.595 785.702 830.135 793.278L848.445 818.353C853.234 824.844 850.699 828.974 843.093 827.499L813.234 821.599C804.665 820.415 796.125 823.993 790.699 831.039L775.206 853.46C770.417 860.245 765.91 859.065 765.065 850.804L761.685 821.304C760.283 812.413 754.332 805.047 746.192 802.128L718.304 792.983Z" fill="white"/>
<path d="M840.277 955.246C832.672 952.886 832.39 948.166 840.277 944.626L868.446 931.646C876.201 927.342 881.383 919.257 882.249 910.11V880.609C882.249 872.349 887.038 870.874 892.108 877.069L910.981 900.965C916.694 907.468 925.554 909.788 933.517 906.865L963.939 894.18C971.263 890.935 973.798 894.18 969.573 901.26L952.108 930.761C947.567 938.336 947.567 947.965 952.108 955.541L970.418 980.617C975.207 987.107 972.672 991.237 965.066 989.762L935.207 983.862C926.637 982.679 918.098 986.256 912.672 993.302L897.179 1015.72C892.39 1022.51 887.883 1021.33 887.038 1013.07L883.657 983.567C882.198 974.705 876.269 967.366 868.164 964.392L840.277 955.246Z" fill="white"/>
<path d="M962.25 1117.78C954.644 1115.42 954.362 1110.7 962.25 1107.16L990.419 1094.18C998.174 1089.88 1003.36 1081.79 1004.22 1072.65V1043.15C1004.22 1034.89 1009.01 1033.12 1014.08 1039.61L1032.95 1063.5C1038.67 1070.01 1047.53 1072.33 1055.49 1069.4L1085.91 1056.72C1093.24 1053.47 1095.77 1056.72 1091.55 1063.8L1074.08 1093.3C1069.54 1100.87 1069.54 1110.5 1074.08 1118.08L1092.39 1143.16C1097.18 1149.65 1094.64 1153.78 1087.04 1152.3L1057.18 1146.4C1048.61 1145.22 1040.07 1148.79 1034.64 1155.84L1019.15 1178.26C1014.36 1185.05 1009.86 1183.87 1009.01 1175.61L1005.63 1146.11C1004.17 1137.24 998.241 1129.9 990.137 1126.93L962.25 1117.78Z" fill="white"/>
<path d="M1066.76 1256.74C1059.15 1254.38 1058.87 1249.66 1066.76 1246.12L1094.92 1233.14C1102.68 1228.83 1107.86 1220.75 1108.73 1211.6V1182.1C1108.73 1173.84 1113.52 1172.37 1118.59 1178.56L1137.46 1202.46C1143.17 1208.96 1152.03 1211.28 1160 1208.36L1190.42 1195.67C1197.74 1192.43 1200.28 1195.67 1196.33 1202.75L1178.87 1232.25C1174.33 1239.83 1174.33 1249.46 1178.87 1257.03L1197.18 1282.11C1201.97 1288.6 1199.71 1292.73 1191.83 1291.25L1161.97 1285.35C1153.4 1284.17 1144.86 1287.75 1139.43 1294.79L1123.94 1317.22C1119.43 1324 1114.64 1322.82 1113.8 1314.56L1110.42 1285.06C1108.96 1276.2 1103.03 1268.86 1094.92 1265.88L1066.76 1256.74Z" fill="white"/>
</svg>
