<svg width="2000" height="1417" viewBox="0 0 2000 1417" fill="none" xmlns="http://www.w3.org/2000/svg">
<path d="M1800.56 25.0684H187.044C88.0991 25.0684 7.88867 109.071 7.88867 212.694V1223.98C7.88867 1327.6 88.0991 1411.61 187.044 1411.61H1800.56C1899.51 1411.61 1979.72 1327.6 1979.72 1223.98V212.694C1979.72 109.071 1899.51 25.0684 1800.56 25.0684Z" fill="#ED5565"/>
<path d="M7.88867 1223.99C7.88867 1327.61 88.0991 1411.61 187.044 1411.61H1800.56C1899.51 1411.61 1979.72 1327.61 1979.72 1223.99V1057.6H7.88867V1223.99Z" fill="#57A863"/>
<path d="M187.329 25.0684C88.3842 25.0684 8.17383 109.071 8.17383 212.694V1223.69C8.17383 1327.31 88.3842 1411.31 187.329 1411.31H402.54V24.7734L187.329 25.0684Z" fill="#ED5565"/>
<path d="M64.2285 585.584H120.567V644.586H64.2285V585.584ZM64.2285 762.589H120.567V703.588H64.2285V762.589ZM64.2285 526.583H120.567V467.581H64.2285V526.583ZM64.2285 172.573H120.567V113.571H64.2285V172.573ZM64.2285 290.576H120.567V231.574H64.2285V290.576ZM64.2285 880.593H120.567V821.591H64.2285V880.593ZM64.2285 408.579H120.567V349.578H64.2285V408.579ZM64.2285 1352.61H120.567V1293.6H64.2285V1352.61ZM261.412 113.571V25.0684H187.327C174.443 25.1009 161.599 26.5845 149.017 29.4935V113.571H261.412ZM148.736 1323.11V1407.18C161.317 1410.09 174.161 1411.58 187.045 1411.61H261.412V1323.11H148.736ZM345.919 54.5692V25.0684H289.581V54.5692H345.919ZM148.736 1293.6H261.412V1175.6H148.736V1293.6ZM64.2285 998.596H120.567V939.594H64.2285V998.596ZM64.2285 1116.6H120.567V1057.6H64.2285V1116.6ZM64.2285 1234.6H120.567V1175.6H64.2285V1234.6ZM148.736 408.579H261.412V290.576H148.736V408.579ZM289.581 762.589H345.919V703.588H289.581V762.589ZM289.581 644.586H345.919V585.584H289.581V644.586ZM289.581 998.596H345.919V939.594H289.581V998.596ZM289.581 526.583H345.919V467.581H289.581V526.583ZM289.581 880.593H345.919V821.591H289.581V880.593ZM289.581 172.573H345.919V113.571H289.581V172.573ZM289.581 290.576H345.919V231.574H289.581V290.576ZM289.581 408.579H345.919V349.578H289.581V408.579ZM289.581 1116.6H345.919V1057.6H289.581V1116.6ZM148.736 851.092H261.412V733.088H148.736V851.092ZM148.736 703.588H261.412V585.584H148.736V703.588ZM148.736 1146.1H261.412V1028.1H148.736V1146.1ZM148.736 998.596H261.412V880.593H148.736V998.596ZM148.736 556.083H261.412V438.08H148.736V556.083ZM148.736 261.075H261.412V143.072H148.736V261.075ZM289.581 1234.6H345.919V1175.6H289.581V1234.6ZM289.581 1352.61H345.919V1293.6H289.581V1352.61Z" fill="white"/>
</svg>
