<svg width="2000" height="1417" viewBox="0 0 2000 1417" fill="none" xmlns="http://www.w3.org/2000/svg">
<path d="M14.6484 212.702V1223.7C14.6877 1247.56 19.086 1271.19 27.6062 1293.32H1973.52C1982.04 1271.19 1986.44 1247.56 1986.48 1223.7V212.702C1986.44 188.842 1982.04 165.209 1973.52 143.08H28.1696C19.4565 165.17 14.8666 188.803 14.6484 212.702Z" fill="#4758A9"/>
<path d="M1807.33 25.0821H194.088C120.767 25.0329 54.8168 71.7793 27.6094 143.085H1973.52C1946.36 71.8792 1880.55 25.1536 1807.33 25.0821Z" fill="#ED5565"/>
<path d="M194.082 1411.62H1807.32C1880.64 1411.67 1946.59 1364.92 1973.8 1293.61H28.166C55.297 1364.72 120.965 1411.42 194.082 1411.62Z" fill="#ED5565"/>
<path d="M1014.65 1175.62C1255.79 1175.62 1451.27 970.896 1451.27 718.357C1451.27 465.817 1255.79 261.094 1014.65 261.094C773.509 261.094 578.027 465.817 578.027 718.357C578.027 970.896 773.509 1175.62 1014.65 1175.62Z" fill="white"/>
<path d="M1014.65 1116.61C1224.67 1116.61 1394.93 938.301 1394.93 718.347C1394.93 498.394 1224.67 320.086 1014.65 320.086C804.625 320.086 634.367 498.394 634.367 718.347C634.367 938.301 804.625 1116.61 1014.65 1116.61Z" fill="#57A863"/>
<path d="M1014.64 1057.61C1193.55 1057.61 1338.59 905.719 1338.59 718.351C1338.59 530.983 1193.55 379.092 1014.64 379.092C835.736 379.092 690.701 530.983 690.701 718.351C690.701 905.719 835.736 1057.61 1014.64 1057.61Z" fill="white"/>
<path d="M1078.31 590.021C1053.44 589.595 1030.11 577.324 1014.93 556.686C999.725 577.29 976.411 589.552 951.55 590.021C927.925 589.328 905.368 579.563 888.17 562.586V743.131C888.17 861.134 1014.93 910.991 1014.93 910.991C1014.93 910.991 1141.69 861.724 1141.69 743.131V560.521C1124.86 578.35 1102.23 588.883 1078.31 590.021Z" fill="#F6D660"/>
</svg>
