<svg width="2000" height="1417" viewBox="0 0 2000 1417" fill="none" xmlns="http://www.w3.org/2000/svg">
<g clip-path="url(#clip0)">
<path d="M1813.24 1.80859H181.408C119.732 58.1423 61.8421 119.052 8.16828 184.086V1232.56C8.07337 1241.77 8.92352 1250.96 10.7035 1259.98C29.9156 1351.14 105.581 1415.94 192.957 1416.04H1657.75C1742.39 1416.04 1823.57 1380.08 1883.42 1316.06C1943.28 1252.04 1976.9 1165.22 1976.9 1074.68V200.958C1977.21 99.8874 1907 14.4419 1813.24 1.80859Z" fill="#EC5565"/>
<path d="M711.548 1.80859H193.238C90.7087 2.96473 8.16227 92.1939 8.16797 201.862V723.085H712.393L711.548 1.80859Z" fill="#4658A9"/>
<path d="M305.069 526.044V723.084H414.929V520.922L603.943 723.084H711.548V632.699L514.365 421.799H711.548V301.285H514.365L711.548 90.3855V0H603.661L414.929 201.861V0H305.069V197.643L131.548 12.0514C87.5118 29.1185 51.0372 63.1868 29.2947 107.559L209.858 300.683H8.16797V421.197H209.858L8.16797 636.917V723.084H120.844L305.069 526.044Z" fill="white"/>
<path d="M333.238 443.486V723.079H386.76V438.364L652.957 723.079H711.548V686.021L436.055 391.364H711.548V332.613H436.055L711.548 37.9565V0.898438H652.675L386.478 285.613V0.898438H332.957V281.094L98.3088 29.8218C79.334 42.1342 62.5487 57.945 48.7314 76.521L287.886 332.312H8.16797V391.665H287.886L8.16797 690.841V723.079H70.9849L333.238 443.486Z" fill="#EC5463"/>
<path d="M1598.31 361.543V873.728C1598.31 1009.91 1344.79 1054.5 1344.79 1054.5C1344.79 1054.5 1091.27 1010.21 1091.27 873.728V361.543H1598.31Z" fill="white"/>
<path d="M1343.66 1054.5C1343.66 1054.5 1597.18 1010.21 1597.18 873.724V841.186H1089.01V873.724C1089.01 1009 1343.66 1054.5 1343.66 1054.5Z" fill="#51C161"/>
<path fill-rule="evenodd" clip-rule="evenodd" d="M1598.31 361.543V873.728C1598.31 1009.91 1344.79 1054.5 1344.79 1054.5C1344.79 1054.5 1091.27 1010.21 1091.27 873.728V361.543H1598.31Z" stroke="white" stroke-linecap="round" stroke-linejoin="round"/>
<path d="M1467.04 578.167C1460.22 579.019 1453.3 578.3 1446.76 576.058C1435.49 572.443 1430.71 573.949 1427.33 576.058C1429.9 569.318 1427.04 561.602 1420.85 558.584C1420.85 558.584 1424.51 568.526 1420.85 573.045C1420.85 573.045 1418.59 575.154 1416.06 573.045C1413.49 570.344 1410.76 567.828 1407.89 565.513C1413.31 563.541 1416.63 557.706 1415.78 551.654C1415.39 545.537 1411.44 540.345 1405.92 538.699C1406.45 541.279 1406.45 543.953 1405.92 546.532C1405.92 546.532 1395.49 540.205 1409.58 531.468C1423.66 522.731 1421.13 517.609 1418.59 513.09C1415.74 508.658 1412.11 504.871 1407.89 501.942C1409.43 504.553 1410.21 507.593 1410.14 510.679C1410.14 514.596 1403.38 517.308 1404.51 510.679C1405.64 504.051 1404.51 504.955 1404.51 497.423C1411.5 500.096 1419.22 496.367 1421.97 488.987C1421.97 488.987 1426.76 475.429 1410.99 468.801C1410.99 468.801 1414.93 474.224 1412.96 478.442C1410.99 482.66 1409.58 485.371 1405.64 478.442C1401.69 471.512 1399.16 471.814 1399.44 465.487C1399.44 465.487 1413.8 467.596 1409.86 451.025C1409.86 451.025 1407.61 462.172 1389.02 447.108C1389.02 447.108 1401.13 433.852 1396.34 423.005C1396.34 423.005 1394.93 418.185 1381.69 420.896C1381.69 420.896 1393.24 413.063 1388.17 406.736C1388.17 406.736 1385.64 402.217 1374.93 406.736C1374.93 406.736 1379.16 399.204 1368.73 390.768C1364.94 392.891 1361.35 395.414 1358.03 398.3C1354.45 393.436 1350.49 388.901 1346.2 384.742C1340.92 387.25 1337.06 392.275 1335.78 398.3C1332.32 394.589 1327.91 392.071 1323.1 391.069C1320.3 395.861 1320.3 401.944 1323.1 406.736C1319.09 406.243 1315.18 405.02 1311.55 403.121C1311.55 403.121 1303.1 398.903 1304.23 406.736C1304.67 411.359 1305.91 415.853 1307.89 419.993C1307.89 419.993 1288.73 415.172 1289.58 426.32C1289.88 433.998 1293.14 441.199 1298.59 446.204C1298.59 446.204 1287.89 460.967 1278.87 449.82C1278.87 449.82 1275.78 453.435 1282.54 463.076C1282.54 463.076 1289.3 471.211 1282.54 476.032C1282.54 476.032 1274.93 482.359 1271.27 470.006C1267.95 472.967 1266.23 477.502 1266.68 482.098C1267.14 486.694 1269.7 490.746 1273.52 492.904C1279.71 496.106 1287.09 494.909 1292.11 489.891C1292.11 489.891 1289.3 514.596 1280.28 510.077C1280.28 510.077 1274.93 505.859 1284.51 500.737C1276.74 499.469 1269.47 505.105 1268.17 513.391C1267.43 520.685 1271.91 527.42 1278.59 529.058C1278.59 529.058 1287.89 532.673 1278.59 540.507C1274.65 543.837 1273.68 549.807 1276.34 554.366C1276.34 554.366 1281.69 563.404 1268.17 564.308C1264.8 564.701 1261.4 564.701 1258.03 564.308C1256.55 568.378 1256.55 572.892 1258.03 576.962C1258.03 576.962 1251.27 571.539 1235.78 576.962C1220.28 582.385 1221.41 578.77 1220.28 580.578C1219.16 582.385 1216.06 588.411 1216.06 588.411C1216.06 588.411 1224.23 598.956 1224.23 598.655C1224.23 598.353 1222.82 610.706 1222.82 610.706L1226.76 612.815L1258.59 597.751L1290.99 579.674L1316.9 581.481L1333.52 585.699L1355.21 587.507L1370.71 578.77H1393.24L1418.03 592.026L1446.2 610.103L1460.85 612.815H1472.11V588.411L1467.04 578.167Z" fill="#EC5565"/>
<path d="M1211.27 606.795C1211.27 606.795 1223.66 613.424 1228.73 606.795C1230.63 603.276 1230.79 598.981 1229.16 595.31C1227.53 591.639 1224.31 589.061 1220.56 588.417C1225.36 582.783 1225.36 574.167 1220.56 568.532C1216.85 565.714 1211.88 565.714 1208.17 568.532C1206.03 564.18 1201.78 561.496 1197.18 561.603C1192.91 561.843 1189.26 565.008 1188.17 569.436C1188.17 569.436 1178.87 565.218 1173.8 571.244C1171.39 573.936 1170.36 577.714 1171.03 581.372C1171.7 585.029 1174 588.107 1177.18 589.622H1185.63L1194.08 585.404L1203.38 588.417C1203.16 595.53 1206.08 602.34 1211.27 606.795Z" fill="#EC5565"/>
<path d="M1485.63 582.688C1494.02 581.713 1502.06 586.558 1505.63 594.739C1510.25 605.7 1506.51 618.626 1496.9 624.868C1497.26 628.271 1497.26 631.708 1496.9 635.112C1520.28 638.125 1516.05 665.24 1516.05 665.24L1508.45 658.311C1494.93 652.586 1480.28 664.939 1471.27 685.426C1462.25 705.914 1466.19 715.555 1467.88 739.959C1469.57 764.363 1506.48 778.825 1506.48 778.825L1478.31 858.063C1476.08 867.412 1469.29 874.732 1460.56 877.175C1451.83 879.617 1442.56 876.798 1436.34 869.813C1429.57 863.185 1427.6 866.8 1424.22 869.813C1420.84 872.826 1439.72 888.492 1405.07 903.557C1387.83 910.131 1372.02 920.381 1358.59 933.685C1347.94 936.581 1336.71 935.844 1326.48 931.576C1324.22 928.262 1326.48 928.262 1316.62 922.538C1306.76 916.813 1292.39 911.39 1276.05 902.954C1259.72 894.518 1260 883.371 1260 880.96C1260 878.55 1265.63 860.172 1246.48 874.935C1234.57 882.266 1219.45 879.338 1210.7 868.005C1207.04 862.582 1190.7 816.485 1190.7 816.485C1187.18 803.731 1182.85 791.249 1177.74 779.126C1177.74 779.126 1177.74 781.235 1191.27 772.498C1203.86 763.621 1212.98 750.116 1216.9 734.536C1220.01 719.873 1219.43 704.59 1215.21 690.247C1213.52 685.125 1202.81 662.227 1189.57 657.708C1181.56 655.191 1172.91 658.037 1167.6 664.939C1167.6 664.939 1163.66 636.919 1186.76 634.81C1186.39 631.407 1186.39 627.97 1186.76 624.567C1177.15 618.324 1173.4 605.399 1178.03 594.438C1181.59 586.257 1189.63 581.412 1198.03 582.387L1194.36 589.618C1194.36 589.618 1190.7 629.689 1245.35 602.874C1300 576.06 1298.31 571.239 1329.86 587.81H1352.67C1352.67 587.81 1385.63 571.541 1396.05 578.47C1406.48 585.4 1444.5 608.599 1444.5 608.599C1444.5 608.599 1481.12 623.362 1488.17 596.246L1485.63 582.688Z" fill="#3CAFDA" stroke="white" stroke-width="0.1" stroke-linecap="round" stroke-linejoin="round"/>
<path d="M1321.13 755.921C1321.13 755.921 1319.16 743.568 1317.19 735.735C1314.97 728.622 1316.01 720.808 1320 714.645L1328.45 704.1C1331.38 699.867 1335.54 696.795 1340.28 695.362C1340.28 695.362 1346.76 695.362 1347.61 693.856C1348.45 692.35 1355.5 679.696 1372.68 693.856C1375.89 688.564 1380.8 684.707 1386.48 683.01C1391.37 681.274 1396.75 682.953 1400 687.228C1403.08 684.971 1406.91 684.239 1410.52 685.22C1414.14 686.201 1417.18 688.799 1418.88 692.35C1422.54 690.351 1426.79 689.99 1430.7 691.346C1434.61 692.703 1437.85 695.664 1439.72 699.58C1446.96 695.897 1455.62 699.119 1459.16 706.811C1466.48 720.068 1465.07 725.491 1465.07 725.491L1470.42 746.581L1489.86 772.19L1444.79 790.267H1424.51L1384.23 801.716L1312.4 807.742L1292.4 782.434L1321.13 755.921Z" fill="white"/>
<path d="M1260.56 883.363C1254.97 883.657 1249.46 884.877 1244.22 886.979C1238.7 890.192 1233.34 893.711 1228.17 897.524C1228.17 897.524 1225.35 901.742 1212.67 899.03C1212.67 899.03 1191.27 893.607 1191.27 911.383C1191.27 911.383 1165.63 913.793 1176.06 937.595C1177.38 942.38 1181.02 946.032 1185.56 947.155C1190.11 948.277 1194.87 946.697 1198.03 943.018C1198.03 943.018 1188.45 957.479 1206.76 963.204C1210.35 964.203 1214.16 963.617 1217.34 961.577C1220.52 959.536 1222.8 956.214 1223.66 952.358C1224.8 947.902 1223.74 943.133 1220.84 939.704C1225.31 938.324 1229.13 935.207 1231.55 930.966C1231.55 930.966 1218.03 949.043 1231.55 955.672C1236.16 957.235 1241.19 956.315 1245.05 953.203C1248.91 950.091 1251.12 945.173 1250.98 940.005C1250.1 934.845 1252.36 929.651 1256.62 927.05C1266.38 923.873 1274.27 916.109 1278.03 905.96C1278.03 905.96 1258.31 894.21 1260.56 883.363Z" fill="#EC5565"/>
<path d="M1217.18 702.293C1217.18 702.293 1200.56 694.158 1192.68 702.293C1185.69 698.049 1177.13 698.049 1170.14 702.293C1163.48 706.97 1157.26 712.317 1151.55 718.261C1151.55 718.261 1146.2 723.082 1148.17 738.447C1149.25 743.809 1149.25 749.355 1148.17 754.717C1148.17 754.717 1144.51 754.717 1137.18 763.153C1137.18 763.153 1127.89 774.602 1119.72 763.153C1120.59 767.245 1122.96 770.792 1126.29 773.001C1129.63 775.21 1133.65 775.895 1137.47 774.903C1137.47 774.903 1130.14 781.23 1137.47 797.198C1140.16 805.755 1139.13 815.154 1134.65 822.807C1142.8 818.756 1147.82 809.807 1147.33 800.211C1146.75 793.633 1147.72 787.006 1150.14 780.929C1150.14 780.929 1146.2 788.159 1155.21 803.826C1158.87 810.957 1158.87 819.593 1155.21 826.724C1163.34 822.923 1168.16 813.845 1167.04 804.429C1167.04 787.256 1157.75 794.486 1163.1 778.82C1163.78 783.242 1165.52 787.397 1168.17 790.871C1174.08 796.412 1176.67 804.971 1174.93 813.166C1179.32 807.186 1181.43 799.653 1180.85 792.076C1180.35 787.273 1179.11 782.59 1177.18 778.217L1201.97 763.153L1214.37 739.351L1217.18 702.293Z" fill="#EC5565"/>
<path d="M1209.3 673.983V645.662C1209 642.908 1210.21 640.216 1212.39 638.732C1215.49 636.021 1218.87 631.803 1223.66 643.854C1227.52 639.328 1231.77 635.192 1236.34 631.501C1237.73 630.043 1239.72 629.455 1241.61 629.946C1243.5 630.436 1245.02 631.935 1245.63 633.912C1248 629.913 1251.06 626.436 1254.65 623.668C1254.65 623.668 1264.23 617.04 1264.51 636.924L1271.83 629.694C1275.66 626.667 1281.04 627.47 1283.94 631.501C1288.31 635.884 1292.36 640.618 1296.06 645.662C1297.62 648.275 1298.5 651.295 1298.59 654.399C1298.53 657.854 1299.52 661.237 1301.41 664.04C1303.36 665.875 1305.67 667.214 1308.17 667.957C1312.75 668.245 1316.79 671.278 1318.59 675.79C1318.59 675.79 1318.59 675.79 1323.66 711.342V778.83L1281.13 833.061L1212.96 812.272L1184.79 800.221L1178.59 778.83L1204.79 760.753L1219.16 719.477L1214.65 689.348L1209.3 673.983Z" fill="#F2D660"/>
<path d="M1361.97 766.474L1320.84 614.928L1319.43 615.229L1355.49 768.884L1361.97 766.474Z" fill="#E77329"/>
<path d="M1237.47 949.65C1236.45 951.938 1236.45 954.593 1237.47 956.881C1238.11 958.835 1238.11 960.953 1237.47 962.907C1238.13 961.062 1238.13 959.028 1237.47 957.182C1237.47 957.182 1235.47 952.061 1237.47 949.65Z" fill="white"/>
<path d="M1475.21 606.795C1475.21 606.795 1462.82 613.424 1457.74 606.795C1455.84 603.276 1455.68 598.981 1457.31 595.31C1458.94 591.639 1462.16 589.061 1465.91 588.417C1461.11 582.783 1461.11 574.167 1465.91 568.532C1469.62 565.714 1474.6 565.714 1478.31 568.532C1480.44 564.18 1484.7 561.496 1489.29 561.603C1493.57 561.843 1497.21 565.008 1498.31 569.436C1498.31 569.436 1507.6 565.218 1512.67 571.244C1515.08 573.936 1516.12 577.714 1515.45 581.372C1514.77 585.029 1512.48 588.107 1509.29 589.622H1500.84L1492.39 585.404L1483.1 588.417C1483.32 595.53 1480.4 602.34 1475.21 606.795Z" fill="#EC5565"/>
<path d="M1397.18 709.834L1400.28 704.712L1407.89 698.385C1412.77 711.563 1416.91 725.045 1420.28 738.757V749.001C1420.28 749.001 1438.03 753.821 1441.13 782.745L1426.48 812.873L1403.66 799.315L1397.18 794.193V711.34V709.834Z" fill="#E77329"/>
<path d="M1180.59 936.992C1180.59 936.992 1180.59 936.992 1180.59 935.184C1180.59 933.377 1180.59 935.184 1180.59 935.184C1177.93 939.487 1177.93 945.042 1180.59 949.345C1178.55 945.507 1178.55 940.83 1180.59 936.992Z" fill="white"/>
<path d="M1425.07 883.363C1430.66 883.657 1436.17 884.877 1441.41 886.979C1446.93 890.192 1452.29 893.711 1457.46 897.524C1457.46 897.524 1460.28 901.742 1472.96 899.03C1472.96 899.03 1494.36 893.607 1494.36 911.383C1494.36 911.383 1520 913.793 1509.58 937.595C1508.25 942.38 1504.61 946.032 1500.07 947.155C1495.52 948.277 1490.76 946.697 1487.6 943.018C1487.6 943.018 1497.18 957.479 1478.87 963.204C1475.28 964.203 1471.47 963.617 1468.29 961.577C1465.11 959.536 1462.83 956.214 1461.97 952.358C1460.83 947.902 1461.89 943.133 1464.79 939.704C1460.32 938.324 1456.5 935.207 1454.08 930.966C1454.08 930.966 1467.6 949.043 1454.08 955.672C1449.47 957.235 1444.44 956.315 1440.58 953.203C1436.72 950.091 1434.51 945.173 1434.65 940.005C1435.53 934.845 1433.27 929.651 1429.01 927.05C1419.25 923.873 1411.37 916.109 1407.6 905.96C1407.6 905.96 1427.04 894.21 1425.07 883.363Z" fill="#EC5565"/>
<path d="M1306.19 792.984L1265.07 641.438L1263.66 642.04L1299.71 795.394L1306.19 792.984Z" fill="#E77329"/>
<path d="M1208.17 966.222C1204.97 962.461 1203.43 957.416 1203.94 952.363C1203.94 952.363 1203.94 950.555 1203.94 950.254C1203.94 949.953 1203.94 950.254 1203.94 952.062C1203.25 957.37 1204.92 962.719 1208.45 966.523C1208.45 966.523 1208.45 966.825 1208.17 966.222Z" fill="white"/>
<path d="M1400.56 704.709L1321.97 731.222L1317.74 768.581C1303.59 787.042 1283.49 799.183 1261.41 802.627L1289.57 836.371L1345.91 849.025L1375.77 824.62L1403.94 798.107C1402.68 786.396 1402.68 774.569 1403.94 762.857C1403.75 758.943 1403.75 755.021 1403.94 751.107C1401.7 735.757 1400.57 720.245 1400.56 704.709Z" fill="#E77329"/>
<path d="M1468.73 702.293C1468.73 702.293 1485.35 694.158 1493.24 702.293C1500.22 698.049 1508.78 698.049 1515.77 702.293C1522.43 706.97 1528.65 712.317 1534.36 718.261C1534.36 718.261 1539.71 723.082 1537.74 738.447C1536.66 743.809 1536.66 749.355 1537.74 754.717C1537.74 754.717 1541.4 754.717 1548.73 763.153C1548.73 763.153 1558.02 774.602 1566.19 763.153C1565.32 767.245 1562.96 770.792 1559.62 773.001C1556.28 775.21 1552.26 775.895 1548.45 774.903C1548.45 774.903 1555.77 781.23 1548.45 797.198C1545.75 805.755 1546.78 815.154 1551.26 822.807C1543.12 818.756 1538.1 809.807 1538.59 800.211C1539.16 793.633 1538.19 787.006 1535.77 780.929C1535.77 780.929 1539.71 788.159 1530.7 803.826C1527.04 810.957 1527.04 819.593 1530.7 826.724C1522.57 822.923 1517.75 813.845 1518.87 804.429C1518.87 787.256 1528.17 794.486 1522.81 778.82C1522.14 783.242 1520.39 787.397 1517.74 790.871C1511.83 796.412 1509.24 804.971 1510.98 813.166C1506.59 807.186 1504.48 799.653 1505.07 792.076C1505.57 787.273 1506.8 782.59 1508.73 778.217L1483.94 763.153L1471.55 739.351L1468.73 702.293Z" fill="#EC5565"/>
<path d="M1187.6 798.106C1188.02 795.042 1189.79 792.379 1192.35 790.947C1194.92 789.515 1197.97 789.488 1200.56 790.875C1203.01 779.439 1212.41 771.246 1223.38 770.99C1228.78 770.736 1234.03 772.898 1237.88 776.957C1241.73 781.015 1243.82 786.604 1243.66 792.382C1247.08 787.241 1252.7 784.295 1258.59 784.548C1258.59 784.548 1274.65 784.548 1268.73 811.363L1271.83 814.978C1271.83 814.978 1284.22 784.849 1309.58 792.08C1309.58 792.08 1334.37 800.215 1318.31 825.824C1318.31 825.824 1330.7 842.997 1340.84 841.19C1354.24 839.554 1365.71 830.179 1370.7 816.786C1379.61 802.488 1394.95 794.338 1410.98 795.394C1416.37 796.058 1420.94 799.902 1422.82 805.337C1430.61 778.813 1455.49 762.488 1481.13 767.074L1499.44 777.016L1506.48 780.33L1496.06 810.459L1470.7 870.716L1451.55 877.043L1431.55 864.69L1424.51 868.607V886.985L1398.03 907.171L1379.72 915.306L1359.44 930.069L1354.65 943.325C1347 940.381 1338.63 940.381 1330.98 943.325L1326.76 932.479L1314.93 920.428L1269.01 897.229L1260.84 868.607L1252.39 864.69L1243.1 876.139L1229.29 877.946L1209.01 863.184L1187.6 798.106Z" fill="white"/>
<path d="M1254.37 666.141V668.552C1264.96 669.203 1275.28 664.788 1282.54 656.5V654.09C1271.97 653.641 1261.73 658.024 1254.37 666.141Z" fill="#E77329"/>
<path d="M1310.42 644.757L1340.56 632.404L1341.41 634.815L1311.27 646.866L1310.42 644.757Z" fill="#E77329"/>
<path d="M1477.47 966.222C1480.66 962.461 1482.2 957.416 1481.69 952.363C1481.69 952.363 1481.69 950.555 1481.69 950.254C1481.69 949.953 1481.69 950.254 1481.69 952.062C1482.38 957.37 1480.71 962.719 1477.18 966.523C1477.18 966.523 1476.9 966.825 1477.47 966.222Z" fill="white"/>
<path d="M1504.51 936.992C1504.51 936.992 1504.51 936.992 1504.51 935.184C1504.51 933.377 1504.51 935.184 1504.51 935.184C1507.17 939.487 1507.17 945.042 1504.51 949.345C1506.54 945.507 1506.54 940.83 1504.51 936.992Z" fill="white"/>
<path d="M1447.89 949.65C1448.92 951.938 1448.92 954.593 1447.89 956.881C1447.26 958.835 1447.26 960.953 1447.89 962.907C1447.23 961.062 1447.23 959.028 1447.89 957.182C1447.89 957.182 1450.18 952.061 1447.89 949.65Z" fill="white"/>
<path d="M1345.07 453.736C1335.49 453.736 1343.66 461.57 1343.66 461.57C1343.66 474.224 1334.36 478.14 1327.88 474.525C1321.4 470.91 1327.88 461.57 1327.88 461.57C1325.97 462.809 1324.62 464.832 1324.14 467.165C1323.66 469.499 1324.1 471.941 1325.35 473.922C1329.86 481.153 1342.25 478.14 1346.48 471.211C1350.98 478.14 1363.09 481.455 1367.6 473.922C1368.85 471.941 1369.29 469.499 1368.81 467.165C1368.33 464.832 1366.98 462.809 1365.07 461.57C1365.07 461.57 1370.14 470.608 1365.07 474.525C1360 478.442 1349.29 474.525 1349.29 461.57C1346.48 461.57 1354.64 453.736 1345.07 453.736Z" fill="white"/>
<path d="M1352.11 441.388C1356.18 435.658 1363.04 433.055 1369.58 434.76C1369.58 434.76 1365.92 446.209 1352.11 441.388Z" fill="white"/>
<path d="M1335.49 441.388C1331.42 435.658 1324.56 433.055 1318.02 434.76C1318.02 434.76 1321.69 446.209 1335.49 441.388Z" fill="white"/>
<path d="M1308.45 572.441C1308.45 572.441 1319.43 576.057 1325.63 578.768C1337.35 583.432 1350.25 583.432 1361.97 578.768C1361.97 578.768 1375.77 573.044 1377.46 572.441L1367.04 589.615V598.352L1373.52 608.596C1373.52 608.596 1369.57 610.403 1357.74 602.57C1349.24 596.395 1338.08 596.395 1329.57 602.57C1324.88 605.974 1319.45 608.047 1313.8 608.596L1323.94 596.544L1320 585.698L1308.45 572.441Z" fill="#F2D660"/>
<path d="M1377.19 595.941C1376.96 597.493 1375.82 598.711 1374.37 598.954C1372.52 599.35 1370.69 598.176 1370.14 596.242C1369.47 592.296 1371.01 588.293 1374.09 585.999C1374.09 585.999 1381.97 579.069 1396.62 585.999C1396.62 585.999 1408.45 592.024 1416.62 597.146C1416.62 597.146 1437.75 609.198 1440.28 610.101C1447.65 613.62 1455.6 615.564 1463.66 615.826C1474.51 616.948 1485.14 612.06 1491.83 602.871C1491.83 602.871 1498.03 591.723 1491.83 584.793C1490.12 582.775 1487.6 581.765 1485.07 582.082C1482.86 582.349 1480.84 583.541 1479.44 585.396C1477.59 587.748 1477.59 591.178 1479.44 593.531C1479.44 593.531 1483.95 596.544 1485.64 590.217C1486.72 593.222 1486.72 596.551 1485.64 599.556C1485.64 599.556 1474.09 618.537 1441.69 599.556L1399.44 574.248C1388 567.841 1373.95 570.573 1365.35 580.877C1362.54 584.557 1361.26 589.303 1361.79 594.021C1362.32 598.739 1364.62 603.022 1368.17 605.883C1373.56 609.488 1380.65 607.892 1384.23 602.268C1384.23 602.268 1389.3 592.326 1381.41 588.108C1379.64 587.101 1377.54 586.953 1375.66 587.701C1373.78 588.45 1372.28 590.023 1371.55 592.024C1368.73 599.556 1376.9 601.665 1377.75 596.242C1376.9 596.242 1377.19 594.736 1377.19 595.941Z" fill="#F2D660"/>
<path d="M1481.13 768.577C1469.28 760.172 1461.06 747.045 1458.31 732.122C1455.61 717.011 1457.18 701.383 1462.82 687.23C1468.85 671.77 1480.89 659.889 1495.78 654.691C1484.14 663.527 1475.15 675.768 1469.86 689.942C1467.19 701.053 1466.52 712.608 1467.89 723.987C1468.62 732.737 1470.42 741.347 1473.24 749.596L1481.13 768.577Z" fill="#F2D660"/>
<path d="M1501.69 781.837C1482.85 774.339 1468.5 757.652 1463.1 736.946C1459.5 720.568 1460.78 703.398 1466.76 687.836C1480.56 652.887 1504.22 652.887 1504.22 652.887C1510.54 652.144 1516.32 656.747 1517.46 663.432C1518.43 667.49 1516.84 671.751 1513.52 673.977C1509.28 676.872 1503.71 676.112 1500.28 672.169C1498.62 669.528 1498.62 666.074 1500.28 663.432C1501.74 661.63 1504.06 660.921 1506.2 661.624C1509.29 661.624 1509.01 666.746 1509.01 666.746C1509.26 665.42 1508.97 664.044 1508.22 662.956C1507.47 661.867 1506.33 661.165 1505.07 661.022C1505.07 661.022 1496.05 658.913 1485.07 673.073C1476.31 685.984 1471.4 701.42 1470.98 717.362C1470.33 746.084 1488.72 771.307 1514.93 777.619C1509.1 788.669 1504.47 800.395 1501.12 812.568C1495.91 831.135 1489.41 849.262 1481.69 866.8C1474.14 882.63 1456.47 889.585 1441.12 882.768C1441.12 882.768 1424.5 874.934 1424.5 861.979C1424.5 861.979 1424.5 850.229 1433.24 849.325C1433.24 849.325 1443.1 849.325 1442.81 857.46C1442.81 857.46 1442.81 867.101 1432.39 864.992C1430.32 864.537 1428.95 862.408 1429.29 860.171C1429.29 860.171 1429.29 856.556 1434.36 858.062C1433.18 857.602 1431.88 857.602 1430.7 858.062C1429.55 858.682 1428.87 860.003 1429.01 861.377C1429.07 862.779 1429.82 864.044 1430.98 864.691C1432.57 865.002 1434.19 865.002 1435.77 864.691C1437.79 868.566 1441.12 871.475 1445.07 872.825C1452.14 875.448 1459.98 874.089 1465.91 869.21C1469.68 865.449 1472.74 860.949 1474.93 855.953C1480.84 842.153 1485.92 827.964 1490.14 813.472C1492.87 804.058 1496.07 794.805 1499.72 785.754L1501.69 781.837Z" fill="#F2D660"/>
<path d="M1416.06 870.718C1416.06 870.718 1421.69 870.718 1421.69 875.237C1421.69 875.237 1421.69 883.071 1412.4 881.564C1409.93 880.921 1407.86 879.123 1406.77 876.669C1405.68 874.215 1405.67 871.366 1406.76 868.91C1408.33 864.368 1412.73 861.696 1417.19 862.583C1417.19 862.583 1425.35 862.583 1429.02 874.936C1430.54 881.209 1429.84 887.864 1427.04 893.616C1420.65 902.281 1412.04 908.771 1402.26 912.296C1390.77 916.95 1379.65 922.592 1369.02 929.167C1369.02 929.167 1357.18 938.507 1362.54 947.245C1363.66 949.127 1365.53 950.35 1367.61 950.559C1369.58 950.58 1371.27 949.035 1371.55 946.943C1371.36 948.217 1370.63 949.327 1369.58 949.956C1368.03 950.992 1366.06 950.992 1364.51 949.956C1363.01 947.814 1363.01 944.868 1364.51 942.725C1366.71 938.87 1371.35 937.548 1375.05 939.727C1378.75 941.906 1380.19 946.814 1378.31 950.86C1376.66 955.069 1372.72 957.718 1368.45 957.488C1364.99 957.28 1361.7 955.788 1359.16 953.27C1353.85 945.901 1353.85 935.633 1359.16 928.264C1362.93 923.448 1367.77 919.719 1373.24 917.417L1399.72 905.667C1406.88 903.148 1413.35 898.805 1418.59 893.013C1421.33 889.253 1423.08 884.781 1423.66 880.058C1423.66 880.058 1423.66 874.032 1421.41 872.526C1420.21 872.207 1418.95 872.207 1417.75 872.526L1416.06 870.718Z" fill="#F2D660"/>
<path d="M1308.45 595.941C1308.68 597.493 1309.82 598.711 1311.27 598.954C1313.12 599.35 1314.95 598.176 1315.5 596.242C1316.17 592.296 1314.63 588.293 1311.55 585.999C1311.55 585.999 1303.66 579.069 1289.02 585.999C1289.02 585.999 1277.19 592.024 1269.02 597.146C1269.02 597.146 1247.89 609.198 1245.35 610.101C1237.98 613.62 1230.04 615.564 1221.97 615.826C1211.13 616.948 1200.5 612.06 1193.81 602.871C1193.81 602.871 1187.61 591.723 1193.81 584.793C1195.52 582.775 1198.03 581.765 1200.57 582.082C1202.78 582.349 1204.8 583.541 1206.2 585.396C1208.05 587.748 1208.05 591.178 1206.2 593.531C1206.2 593.531 1201.69 596.544 1200 590.217C1198.92 593.222 1198.92 596.551 1200 599.556C1200 599.556 1211.55 618.537 1243.95 599.556L1286.2 574.248C1297.64 567.841 1311.69 570.573 1320.28 580.877C1323.09 584.557 1324.38 589.303 1323.85 594.021C1323.32 598.739 1321.01 603.022 1317.47 605.883C1312.08 609.488 1304.99 607.892 1301.41 602.268C1301.41 602.268 1296.34 592.326 1304.23 588.108C1306 587.101 1308.1 586.953 1309.98 587.701C1311.86 588.45 1313.36 590.023 1314.09 592.024C1316.9 599.556 1308.73 601.665 1307.89 596.242C1308.73 596.242 1308.73 594.736 1308.45 595.941Z" fill="#F2D660"/>
<path d="M1204.79 768.577C1216.64 760.172 1224.86 747.045 1227.61 732.122C1230.31 717.011 1228.74 701.383 1223.1 687.23C1217.07 671.77 1205.03 659.889 1190.14 654.691C1201.78 663.527 1210.77 675.768 1216.06 689.942C1218.73 701.053 1219.4 712.608 1218.03 723.987C1217.3 732.737 1215.5 741.347 1212.68 749.596L1204.79 768.577Z" fill="#F2D660"/>
<path d="M1183.1 781.837C1201.93 774.339 1216.28 757.652 1221.69 736.946C1225.28 720.568 1224 703.398 1218.02 687.836C1204.22 652.887 1180.56 652.887 1180.56 652.887C1174.24 652.144 1168.46 656.747 1167.32 663.432C1166.35 667.49 1167.95 671.751 1171.26 673.977C1175.51 676.872 1181.08 676.112 1184.5 672.169C1186.16 669.528 1186.16 666.074 1184.5 663.432C1183.04 661.63 1180.72 660.921 1178.59 661.624C1175.49 661.624 1175.77 666.746 1175.77 666.746C1175.53 665.42 1175.81 664.044 1176.56 662.956C1177.31 661.867 1178.46 661.165 1179.71 661.022C1179.71 661.022 1188.73 658.913 1199.71 673.073C1208.47 685.984 1213.38 701.42 1213.8 717.362C1214.46 746.084 1196.06 771.307 1169.86 777.619C1175.69 788.669 1180.32 800.395 1183.66 812.568C1188.87 831.135 1195.37 849.262 1203.1 866.8C1210.65 882.63 1228.31 889.585 1243.66 882.768C1243.66 882.768 1260.28 874.934 1260.28 861.979C1260.28 861.979 1260.28 850.229 1251.55 849.325C1251.55 849.325 1241.69 849.325 1241.97 857.46C1241.97 857.46 1241.97 867.101 1252.39 864.992C1254.47 864.537 1255.84 862.408 1255.49 860.171C1255.49 860.171 1255.49 856.556 1250.42 858.062C1251.6 857.602 1252.9 857.602 1254.08 858.062C1255.24 858.682 1255.91 860.003 1255.77 861.377C1255.72 862.779 1254.96 864.044 1253.8 864.691C1252.22 865.002 1250.59 865.002 1249.01 864.691C1246.99 868.566 1243.67 871.475 1239.71 872.825C1232.64 875.448 1224.81 874.089 1218.87 869.21C1215.1 865.449 1212.04 860.949 1209.86 855.953C1203.95 842.153 1198.87 827.964 1194.64 813.472C1191.91 804.058 1188.72 794.805 1185.07 785.754L1183.1 781.837Z" fill="#F2D660"/>
<path d="M1269.58 870.718C1269.58 870.718 1263.94 870.718 1263.94 875.237C1263.94 875.237 1263.94 883.071 1273.24 881.564C1275.71 880.921 1277.77 879.123 1278.87 876.669C1279.96 874.215 1279.96 871.366 1278.87 868.91C1277.3 864.368 1272.9 861.696 1268.45 862.583C1268.45 862.583 1260.28 862.583 1256.62 874.936C1255.09 881.209 1255.8 887.864 1258.59 893.616C1264.99 902.281 1273.6 908.771 1283.38 912.296C1294.87 916.95 1305.98 922.592 1316.62 929.167C1316.62 929.167 1328.45 938.507 1323.1 947.245C1321.98 949.127 1320.11 950.35 1318.03 950.559C1316.05 950.58 1314.37 949.035 1314.08 946.943C1314.28 948.217 1315 949.327 1316.06 949.956C1317.61 950.992 1319.58 950.992 1321.13 949.956C1322.63 947.814 1322.63 944.868 1321.13 942.725C1318.93 938.87 1314.28 937.548 1310.59 939.727C1306.89 941.906 1305.45 946.814 1307.32 950.86C1308.98 955.069 1312.92 957.718 1317.18 957.488C1320.65 957.28 1323.93 955.788 1326.48 953.27C1331.79 945.901 1331.79 935.633 1326.48 928.264C1322.7 923.448 1317.86 919.719 1312.39 917.417L1285.92 905.667C1278.76 903.148 1272.28 898.805 1267.04 893.013C1264.31 889.253 1262.56 884.781 1261.97 880.058C1261.97 880.058 1261.97 874.032 1264.23 872.526C1265.43 872.207 1266.68 872.207 1267.89 872.526L1269.58 870.718Z" fill="#F2D660"/>
<path d="M1184.79 960.493C1176.01 954.656 1172.94 942.561 1177.75 932.775C1179.12 930.044 1181.91 928.49 1184.79 928.858C1184.79 928.858 1194.37 932.172 1186.76 946.333C1184.87 950.761 1184.19 955.669 1184.79 960.493Z" fill="#F2D660"/>
<path d="M1216.06 976.762C1216.06 976.762 1194.09 966.217 1200.85 946.634C1200.85 946.634 1202.82 940.608 1207.89 940.909C1207.89 940.909 1216.34 940.909 1214.65 953.262C1212.96 961.074 1213.45 969.245 1216.06 976.762Z" fill="#F2D660"/>
<path d="M1230.98 972.249C1240.8 969.709 1247.01 959.351 1245.07 948.749C1244.35 944.153 1240.38 940.972 1236.05 941.518C1236.05 941.518 1227.32 943.928 1232.96 955.98C1234.87 961.416 1234.13 967.513 1230.98 972.249Z" fill="#F2D660"/>
<path d="M1469.58 976.762C1469.58 976.762 1491.55 966.217 1484.79 946.634C1484.79 946.634 1482.82 940.608 1477.75 940.909C1477.75 940.909 1469.3 940.909 1470.99 953.262C1472.68 961.074 1472.19 969.245 1469.58 976.762Z" fill="#F2D660"/>
<path d="M1500.56 960.493C1509.34 954.656 1512.41 942.561 1507.6 932.775C1506.23 930.044 1503.44 928.49 1500.56 928.858C1500.56 928.858 1490.98 932.172 1498.59 946.333C1500.48 950.761 1501.16 955.669 1500.56 960.493Z" fill="#F2D660"/>
<path d="M1454.65 972.249C1444.83 969.709 1438.62 959.351 1440.56 948.749C1441.28 944.153 1445.25 940.972 1449.58 941.518C1449.58 941.518 1458.31 943.928 1452.67 955.98C1450.76 961.416 1451.5 967.513 1454.65 972.249Z" fill="#F2D660"/>
<path d="M1498.59 599.863C1500.52 595.441 1501.01 590.46 1500 585.703C1500 575.158 1507.61 573.953 1510.7 576.966C1513.8 579.979 1514.08 579.979 1510.7 586.908C1508.23 592.629 1503.94 597.222 1498.59 599.863Z" fill="#F2D660"/>
<path d="M1495.78 595.941C1495.78 595.941 1495.78 591.723 1488.73 584.492C1481.69 577.261 1488.73 570.633 1491.83 570.633C1494.93 570.633 1496.06 570.633 1497.75 577.864C1499.13 583.948 1498.43 590.36 1495.78 595.941Z" fill="#F2D660"/>
<path d="M1486.48 592.622C1486.48 592.622 1484.79 589.308 1476.34 585.993C1467.89 582.679 1470.14 574.846 1473.8 573.038C1477.47 571.23 1477.47 571.23 1481.41 576.654C1484.84 581.15 1486.64 586.82 1486.48 592.622Z" fill="#F2D660"/>
<path d="M1492.96 596.247C1488.39 596.577 1483.84 595.308 1480 592.632C1470.98 587.811 1467.04 595.946 1468.45 600.465C1469.86 604.984 1470.14 604.984 1477.18 604.08C1483.15 603.593 1488.76 600.81 1492.96 596.247Z" fill="#F2D660"/>
<path d="M1186.48 599.863C1184.56 595.441 1184.06 590.46 1185.07 585.703C1185.07 575.158 1177.47 573.953 1174.37 576.966C1171.27 579.979 1170.99 579.979 1174.37 586.908C1176.84 592.629 1181.13 597.222 1186.48 599.863Z" fill="#F2D660"/>
<path d="M1189.29 595.941C1189.29 595.941 1189.29 591.723 1196.34 584.492C1203.38 577.261 1196.34 570.633 1193.24 570.633C1190.14 570.633 1189.01 570.633 1187.32 577.864C1185.94 583.948 1186.64 590.36 1189.29 595.941Z" fill="#F2D660"/>
<path d="M1198.59 592.622C1198.59 592.622 1200.28 589.308 1208.74 585.993C1217.19 582.679 1214.93 574.846 1211.27 573.038C1207.61 571.23 1207.61 571.23 1203.66 576.654C1200.23 581.15 1198.43 586.82 1198.59 592.622Z" fill="#F2D660"/>
<path d="M1193.24 596.247C1197.81 596.577 1202.36 595.308 1206.2 592.632C1215.21 587.811 1219.16 595.946 1217.75 600.465C1216.34 604.984 1216.06 604.984 1209.01 604.08C1203.04 603.593 1197.44 600.81 1193.24 596.247Z" fill="#F2D660"/>
</g>
<defs>
<clipPath id="clip0">
<rect width="2000" height="1416.04" fill="white"/>
</clipPath>
</defs>
</svg>
