<svg width="2000" height="1417" viewBox="0 0 2000 1417" fill="none" xmlns="http://www.w3.org/2000/svg">
<path d="M7.89063 200.019V465.526H1979.72V200.019C1979.72 91.834 1895.98 4.13303 1792.68 4.13303H195.215C145.559 4.05472 97.9118 24.658 62.7736 61.4022C27.6354 98.1463 7.89057 148.015 7.89063 200.019Z" fill="#ED5565"/>
<path d="M7.89062 928.694H1979.72V466.416H7.89062V928.694Z" fill="#FFCE54"/>
<path d="M7.89062 1194.49C7.89062 1302.67 91.6323 1390.37 194.933 1390.37H1792.68C1895.98 1390.37 1979.72 1302.67 1979.72 1194.49V928.98H7.89062V1194.49Z" fill="#52C162"/>
<path d="M1138.6 756.399C1138.95 747.228 1141.26 738.256 1145.36 730.143L1156.91 709.198C1160.53 701.58 1160.53 692.625 1156.91 685.007L1145.07 663.472C1141 655.348 1138.69 646.383 1138.31 637.216V612.435C1137.86 603.93 1133.57 596.157 1126.76 591.49L1106.76 579.689C1099.38 574.8 1093.12 568.249 1088.45 560.514L1076.91 539.568C1072.45 532.441 1065.03 527.953 1056.91 527.473H1032.96C1024.21 527.067 1015.65 524.65 1007.89 520.393L987.328 508.002C980.064 504.163 971.492 504.163 964.229 508.002L944.511 520.098C936.761 524.382 928.196 526.801 919.44 527.178H896.342C888.22 527.658 880.798 532.146 876.342 539.273L864.511 560.809C859.827 568.532 853.576 575.079 846.201 579.984L825.637 592.375C818.832 597.042 814.547 604.815 814.088 613.32V637.511C813.738 646.682 811.428 655.654 807.328 663.767L795.778 684.712C792.157 692.33 792.157 701.285 795.778 708.903L807.609 730.439C811.657 738.572 813.964 747.532 814.37 756.694V781.475C814.892 790.035 819.288 797.819 826.201 802.421L846.201 814.221C853.593 819.103 859.849 825.654 864.511 833.396L876.06 854.342C880.517 861.469 887.938 865.957 896.06 866.437H920.004C928.755 866.843 937.314 869.26 945.074 873.518L965.637 885.908C972.901 889.747 981.473 889.747 988.736 885.908L1008.45 873.813C1016.2 869.528 1024.77 867.109 1033.52 866.732H1056.34C1064.46 866.252 1071.89 861.764 1076.34 854.637L1088.17 833.101C1092.86 825.378 1099.11 818.831 1106.48 813.926L1127.05 801.536C1133.85 796.868 1138.14 789.095 1138.6 780.59V756.399Z" fill="#ED5565"/>
</svg>
