<svg width="2000" height="1417" viewBox="0 0 2000 1417" fill="none" xmlns="http://www.w3.org/2000/svg">
<path d="M1796.9 3.83984H183.382C84.437 3.83984 4.22656 87.8425 4.22656 191.465V1202.75C4.22656 1306.38 84.437 1390.38 183.382 1390.38H1796.9C1895.85 1390.38 1976.06 1306.38 1976.06 1202.75V191.465C1976.06 87.8425 1895.85 3.83984 1796.9 3.83984Z" fill="#52C162"/>
<path d="M223.381 697.105L989.86 77.5879L1756.34 697.105L989.86 1316.62L223.381 697.105Z" fill="#F6D660"/>
<path d="M873.242 547.242C793.515 547.234 715.164 568.993 645.918 610.374C603.103 793.674 698.665 981.391 867.847 1046.32C1037.03 1111.25 1225.78 1032.65 1306.2 863.786C1239.28 673.836 1066.57 547.559 873.242 547.242Z" fill="#4758A9"/>
<path d="M873.24 547.245C1066.56 547.562 1239.28 673.839 1306.2 863.789C1318.85 836.875 1328.31 808.441 1334.37 779.122C1210.25 529.391 924.907 419.806 676.056 526.3C662.868 552.946 652.841 581.181 646.197 610.377C715.361 569.046 793.609 547.288 873.24 547.245Z" fill="white"/>
<path d="M1335.22 779.414C1373.99 597.874 1278.34 414.339 1111.57 350.298C944.796 286.258 758.527 361.533 676.061 526.296C925.295 419.127 1211.42 528.953 1335.5 779.414H1335.22Z" fill="#4758A9"/>
</svg>
