<svg width="2000" height="1417" viewBox="0 0 2000 1417" fill="none" xmlns="http://www.w3.org/2000/svg">
<path d="M200.842 16.8165C101.898 16.8165 21.6875 100.819 21.6875 204.442V1215.44C21.6875 1319.06 101.898 1403.06 200.842 1403.06H679.716C679.716 940.881 679.716 478.701 679.716 16.5215L200.842 16.8165Z" fill="#4758A9"/>
<path d="M679.15 16.8164C679.15 478.996 679.15 941.176 679.15 1403.36H1336.9C1336.9 941.176 1336.9 478.996 1336.9 16.8164H679.15Z" fill="#FFCE54"/>
<path d="M1814.08 16.8164H1336.62C1336.62 478.996 1336.62 941.176 1336.62 1403.36H1814.08C1913.02 1403.36 1993.24 1319.35 1993.24 1215.73V204.442C1993.24 100.819 1913.02 16.8164 1814.08 16.8164Z" fill="#4758A9"/>
<path d="M1035.49 990.341V850.802C1065.56 853.709 1095.4 858.835 1124.79 866.143C1130.14 744.009 1160.56 608.601 1247.04 512.133C1191.5 514.603 1139.88 542.819 1106.19 589.13C1118.54 587.507 1131.03 587.507 1143.38 589.13C1110.34 657.827 1090.26 732.548 1084.22 809.206C1068.37 805.499 1052.26 803.131 1036.05 802.126V572.905C1050.29 574.432 1064.19 578.42 1077.18 584.705C1050.24 535.964 1027.25 484.946 1008.45 432.186C989.553 484.956 966.467 535.974 939.433 584.705C952.426 578.42 966.323 574.432 980.56 572.905V802.126C964.348 803.13 948.24 805.497 932.391 809.206C926.358 732.548 906.273 657.827 873.236 589.13C885.582 587.507 898.073 587.507 910.419 589.13C876.785 542.708 825.163 514.379 769.574 511.838C856.053 609.781 886.476 744.894 891.828 865.848C921.211 858.538 951.05 853.412 981.124 850.507V990.046H1037.46L1035.49 990.341Z" fill="#434A54"/>
</svg>
