<svg width="2000" height="1417" viewBox="0 0 2000 1417" fill="none" xmlns="http://www.w3.org/2000/svg">
<path d="M1814.38 3.83984H200.856C101.912 3.83984 21.7012 87.8425 21.7012 191.465V1202.75C21.7012 1306.38 101.912 1390.38 200.856 1390.38H1814.38C1913.32 1390.38 1993.53 1306.38 1993.53 1202.75V191.465C1993.53 87.8425 1913.32 3.83984 1814.38 3.83984Z" fill="#FFCE54"/>
<path d="M1993.53 1007.46L21.7012 383.521V600.648L1993.53 1224C1993.91 1216.93 1993.91 1209.83 1993.53 1202.76V1007.46Z" fill="#434A54"/>
<path d="M21.6878 354.008L1993.52 977.951V760.825L28.1667 139.242C23.3848 156.199 20.919 173.778 20.8428 191.459L21.6878 354.008Z" fill="white"/>
<path d="M1239.44 976.477C1244.55 965.285 1244.55 952.269 1239.44 941.076C1233.97 950.09 1225.39 956.539 1215.49 959.072L1211.27 954.057C1205.79 945.284 1202.85 935.038 1202.82 924.556C1201.81 915.959 1195.27 909.229 1187.04 908.33C1253.38 821.948 1252.44 698.582 1184.79 613.322C1188.4 611.395 1190.91 607.777 1191.55 603.587C1212.11 603.587 1216.9 596.507 1219.72 586.476C1238.59 576.741 1238.87 564.351 1221.97 566.416C1183.53 570.753 1144.68 564.446 1109.29 548.125C1076.05 536.915 1045.07 518.624 1018.03 532.195V505.349C1022.52 499.852 1024.92 492.817 1024.79 485.583C1024.76 496.626 1030.2 506.896 1039.15 512.724C1047.28 505.424 1051.4 494.36 1050.14 483.223C1048.38 496.861 1055.86 509.959 1068.17 514.789C1075.21 491.235 1069.38 465.531 1052.96 447.822C1051.57 446.578 1049.93 445.672 1048.17 445.167C1038.93 442.887 1029.49 441.7 1020 441.627V423.337C1045.91 423.337 1048.17 444.282 1081.97 444.282C1068.45 439.562 1074.65 423.632 1064.51 414.782C1073.81 412.103 1081.9 406.036 1087.32 397.671C1052.39 397.671 1046.76 370.825 1019.15 368.17V362.565C1026.16 360.064 1030.9 353.208 1030.98 345.455C1031.18 335.954 1024.51 327.825 1015.51 326.611C1006.51 325.397 998.085 331.489 995.98 340.733C993.875 349.977 998.768 359.395 1007.32 362.565V439.562C997.836 439.637 988.387 440.825 979.153 443.102C977.39 443.607 975.755 444.513 974.365 445.757C957.946 463.466 952.107 489.17 959.153 512.724C971.457 507.894 978.938 494.796 977.182 481.158C975.918 492.295 980.038 503.359 988.168 510.659C997.124 504.831 1002.56 494.561 1002.53 483.518C1002.33 490.993 1004.85 498.269 1009.58 503.874V530.425C981.407 515.379 951.266 534.555 917.745 546.06C882.363 562.381 843.509 568.688 805.069 564.351C788.168 562.286 788.449 574.676 807.323 584.411C810.139 594.147 814.646 600.047 835.492 601.522C836.13 605.712 838.642 609.33 842.252 611.257C774.494 696.475 773.551 819.923 839.999 906.265C831.773 907.164 825.23 913.894 824.224 922.491C824.102 933.003 821.069 943.251 815.492 951.992L811.266 957.007C801.364 954.474 792.783 948.025 787.323 939.011C782.249 950.213 782.249 963.21 787.323 974.412C767.359 972.008 748.406 984.185 741.407 1003.91C764.784 994.106 791.12 995.728 813.238 1008.34C841.253 1033.83 878.492 1045.25 915.21 1039.61C980.878 1071.44 1056.58 1071.44 1122.25 1039.61C1158.97 1045.25 1196.21 1033.83 1224.22 1008.34C1246.34 995.728 1272.68 994.106 1296.05 1003.91C1292.12 992.331 1283.9 982.895 1273.25 977.733C1262.6 972.572 1250.41 972.119 1239.44 976.477ZM1054.08 629.843C1070.52 640.7 1091.45 640.7 1107.89 629.843C1125.91 632.793 1153.8 636.038 1154.93 619.517H1159.72C1174.61 646.408 1182.48 676.932 1182.53 708.02C1182.12 789.455 1129.94 860.624 1054.93 882.075C1056.56 868.234 1061.08 854.939 1068.17 843.134C1059.19 843.575 1050.25 844.659 1041.41 846.379C1055.49 811.863 1029.29 776.167 1059.15 737.521C1052.15 737.304 1045.32 739.828 1040 744.601C1045.35 715.1 1029.29 685.599 1052.67 654.033C1037.36 655.461 1024.93 667.623 1022.53 683.534C1022.92 675.429 1021.47 667.343 1018.31 659.933V621.582C1028.82 629.46 1042.13 632.053 1054.65 628.663L1054.08 629.843ZM997.745 659.343C994.08 667.232 992.338 675.948 992.675 684.714C990.28 668.803 977.853 656.641 962.534 655.213C985.914 687.074 969.858 716.87 975.21 745.781C969.888 741.008 963.058 738.484 956.055 738.701C985.632 777.347 959.717 813.043 973.801 847.559C964.961 845.851 956.02 844.767 947.041 844.314C954.13 856.119 958.65 869.414 960.28 883.255C885.266 861.804 833.09 790.636 832.675 709.2C832.813 678.086 840.78 647.559 855.773 620.697H860.562C860.562 637.513 888.731 633.973 907.604 631.023C924.04 641.88 944.971 641.88 961.407 631.023C974.183 634.388 987.728 631.573 998.308 623.352L997.745 659.343ZM1396.34 617.452C1393.44 617.669 1390.78 619.172 1389.01 621.582C1378.31 623.057 1367.75 625.525 1357.46 628.958C1355.62 626.642 1352.69 625.614 1349.89 626.301C1347.09 626.988 1344.89 629.272 1344.22 632.203C1341.53 640.259 1340.2 648.744 1340.28 657.278L1336.05 665.244C1329.97 668.677 1325.2 674.198 1322.53 680.879C1314.08 693.112 1303.1 703.195 1290.42 710.38C1267.89 726.015 1275.49 751.681 1275.49 774.102C1275.49 788.852 1275.49 827.203 1273.52 864.669C1270.77 876.647 1269.45 888.933 1269.58 901.25C1264.79 904.2 1258.59 912.461 1271.83 921.016V932.816C1282.17 940.857 1295.15 944.254 1307.89 942.256C1320.56 944.758 1333.64 941.307 1343.66 932.816C1343.66 929.866 1343.66 925.736 1343.66 920.721C1356.62 911.871 1350.7 903.61 1345.91 900.66C1346.11 888.34 1344.78 876.045 1341.97 864.079C1341.97 823.958 1339.44 778.822 1339.72 760.236C1352.27 749.679 1364.13 738.246 1375.21 726.015C1382.58 719.074 1387.7 709.895 1389.86 699.76C1391.73 691.649 1394.08 683.668 1396.9 675.864C1400.58 661.923 1402.57 647.55 1402.82 633.088C1402.82 619.222 1401.13 615.682 1396.62 615.682L1396.34 617.452ZM744.224 933.406V921.606C757.463 913.051 751.266 904.495 746.477 901.84C746.603 889.523 745.279 877.237 742.534 865.259C742.534 827.793 740.562 789.442 740.562 774.692C740.562 752.566 748.168 726.9 725.632 710.97C712.95 703.785 701.974 693.702 693.52 681.469C690.858 674.788 686.084 669.267 679.999 665.834L675.773 657.868C675.854 649.334 674.52 640.849 671.83 632.793C671.16 629.862 668.968 627.578 666.166 626.891C663.364 626.204 660.432 627.233 658.59 629.548C648.302 626.118 637.745 623.65 627.041 622.172C625.253 619.791 622.6 618.295 619.717 618.042C615.21 618.042 612.675 621.582 613.52 635.448C613.763 649.911 615.751 664.283 619.435 678.224C622.255 686.028 624.607 694.009 626.477 702.12C628.63 712.255 633.751 721.434 641.125 728.375C652.214 740.599 664.071 752.032 676.618 762.596C676.618 781.182 676.618 826.318 674.365 866.439C671.555 878.405 670.229 890.7 670.421 903.02C665.632 905.97 659.717 914.231 672.675 923.081C672.675 927.801 672.675 931.931 672.675 935.176C682.7 943.667 695.779 947.118 708.449 944.616C721.096 946.534 733.954 943.141 744.224 935.176V933.406Z" fill="#ED5565"/>
</svg>
