<svg width="2000" height="1417" viewBox="0 0 2000 1417" fill="none" xmlns="http://www.w3.org/2000/svg">
<path d="M1814.36 25.082H200.842C101.898 25.082 21.6875 109.085 21.6875 212.707V1224C21.6875 1327.62 101.898 1411.62 200.842 1411.62H1814.36C1913.31 1411.62 1993.52 1327.62 1993.52 1224V212.707C1993.52 109.085 1913.31 25.082 1814.36 25.082Z" fill="#F6D660"/>
<path d="M1930.14 69.627L85.0664 1367.66C117.369 1396.46 158.418 1412.26 200.841 1412.21H1814.08C1913.02 1412.21 1993.24 1328.21 1993.24 1224.58V212.706C1993.31 157.616 1970.23 105.283 1930.14 69.627Z" fill="#ED5565"/>
<path d="M1638.59 382.036C1620.28 384.101 1603.38 373.776 1585.35 376.136C1575.34 377.327 1565.71 380.856 1557.18 386.461L1539.43 390.591L1555.49 374.366C1567.6 364.336 1585.07 366.401 1597.46 356.37L1606.48 333.655L1594.65 341.915C1585.6 345.195 1575.91 346.008 1566.48 344.275L1541.69 346.045L1524.5 361.976L1531.27 344.275L1542.25 322.15V298.844L1550.7 279.963C1558.39 272.796 1564.87 264.318 1569.86 254.888L1565.35 231.877L1561.69 247.807C1555.01 256.129 1547.12 263.297 1538.31 269.048L1527.32 287.044L1523.66 306.514L1511.27 322.74C1503.01 329.495 1497.81 339.539 1496.9 350.47L1491.83 374.661L1476.62 378.201H1451.83C1442.32 370.032 1430.32 365.737 1418.03 366.106C1415.55 356.555 1409.97 348.208 1402.25 342.505L1381.69 340.145L1374.93 344.275C1367.37 337.842 1358.34 333.573 1348.73 331.885C1339.04 330.606 1329.21 332.459 1320.56 337.195C1313.75 328.58 1304.62 322.31 1294.36 319.199C1283.79 316.942 1273.62 312.96 1264.22 307.399C1253.97 297.115 1242.04 288.824 1229.01 282.913C1214.48 275.855 1198.81 271.75 1182.81 270.818L1164.5 273.768L1151.55 282.028H1175.49C1186.89 283.498 1197.9 287.308 1207.89 293.239L1184.22 287.929L1169.29 295.009L1189.86 297.959L1204.22 306.809L1201.41 316.839C1186.51 305.556 1169.19 298.264 1150.98 295.599C1140.8 293.936 1130.44 297.19 1122.81 304.449C1110.63 300.465 1097.46 301.413 1085.91 307.104L1075.77 323.625L1092.96 317.134H1116.62V319.494L1119.15 318.019L1135.21 324.51L1130.98 328.345C1121.64 325.883 1111.81 326.501 1102.81 330.115L1090.14 343.39L1103.66 338.67H1123.66L1121.12 356.37C1100.73 347.785 1078.87 343.669 1056.9 344.275C1045.67 344.611 1034.83 348.636 1025.91 355.78C1016.4 362.724 1013 375.811 1017.85 386.843C1022.7 397.875 1034.41 403.68 1045.63 400.622L1055.77 387.051L1045.63 389.411L1034.93 382.331L1042.53 371.416C1054.31 368.657 1066.53 368.657 1078.31 371.416V395.902C1059.91 396.911 1042.41 404.515 1028.73 417.437C1018.03 417.437 1006.76 417.437 996.054 418.912C985.698 420.02 975.891 424.333 967.885 431.303L960.28 452.543L976.336 440.448C991.836 434.524 1008.58 433.097 1024.79 436.318C1036.7 438.406 1048.78 439.196 1060.84 438.678L1059.15 449.003C1050.55 455.915 1046.49 467.389 1048.73 478.504L1042.25 501.515C1022.35 510.492 1006.65 527.356 998.59 548.421L1003.1 551.371C1012.14 541.613 1023.52 534.582 1036.05 531.015L1030.42 550.191C1024.41 557.165 1019.56 565.142 1016.05 573.792C1014.58 584.214 1017.12 594.821 1023.1 603.292V599.162C1023.92 589.121 1028.59 579.859 1036.05 573.497L1060.56 567.006C1059.7 576.495 1063.27 585.835 1070.14 592.082L1083.38 598.277C1079.71 612.052 1086 626.598 1098.31 632.793L1091.55 639.284C1082.1 638.67 1072.61 639.464 1063.38 641.644L1053.24 656.099L1066.2 652.559L1083.38 661.704C1091.74 667.263 1101.82 669.268 1111.55 667.309L1115.21 685.305H1097.18L1081.41 679.405L1076.62 670.259L1073.24 685.6L1081.97 697.105H1078.03L1064.79 681.765C1056 677.333 1045.96 676.492 1036.62 679.405C1033.32 666.561 1020.73 658.917 1008.45 662.294H1006.2L1002.81 655.214L991.547 645.184L982.533 624.238L965.35 611.848V600.637L958.589 619.518L965.35 633.088V641.349L944.505 639.874H941.406L915.773 637.808L889.012 634.563C884.733 625.213 876.478 618.538 866.759 616.568L844.787 610.373L837.181 597.097L835.209 614.798L849.294 630.433L852.111 640.464H829.012C820.72 644.957 815.587 653.994 815.773 663.769L789.857 667.604L783.097 682.355C773.317 675.063 760.2 675.063 750.421 682.355L731.547 691.205L716.899 696.81L713.801 710.971L724.787 705.07L738.59 707.43H751.547L746.759 720.411V738.111C737.086 740.617 729.575 748.597 727.322 758.762L728.73 781.478C714.866 788.858 701.908 797.971 690.139 808.618L670.139 815.403L657.744 812.748L673.519 827.794C686.921 828.362 700.303 826.26 712.956 821.599L706.195 846.674L709.012 860.54C700.148 866.761 694.212 876.622 692.674 887.681C683.665 891.523 675.223 896.688 667.604 903.021H652.392L657.744 913.051L675.209 922.492L664.505 930.162H653.519L659.435 948.157C648.717 951.042 637.476 951.042 626.759 948.157L629.857 965.858C618.406 962.528 606.435 961.625 594.646 963.203L576.618 972.053L574.646 977.658H586.759H573.801C564.604 980.477 554.829 980.477 545.632 977.658C534.921 969.762 522.358 965.071 509.294 964.088H490.139L473.519 957.893C463.755 954.399 452.948 956.775 445.35 964.088L441.688 978.248L455.773 971.463C465.47 975.134 474.887 979.572 483.942 984.738H509.012C522.592 985.977 535.662 990.742 547.04 998.604C535.974 998.608 524.999 1000.71 514.646 1004.8L495.209 1014.24C482.876 1017.23 470.357 1019.3 457.744 1020.43L442.533 1028.4L439.716 1040.2L448.449 1036.07C462.148 1036.82 475.876 1036.82 489.575 1036.07C499.205 1030.4 510.078 1027.45 521.125 1027.51C513.81 1035.97 503.787 1041.32 492.956 1042.56C481.998 1043.38 471.291 1046.39 461.406 1051.41L443.378 1064.69C431.829 1070 418.59 1067.93 407.604 1074.13L394.646 1085.63L374.646 1100.09L358.871 1103.33L381.688 1111.3C396.435 1106.01 410.599 1099.09 423.942 1090.65L442.815 1088.58C452.712 1087.63 462.309 1084.52 470.984 1079.44L459.998 1086.81C450.139 1090.94 439.716 1092.71 429.857 1096.55C417.928 1101.01 407.135 1108.27 398.308 1117.79C388.312 1129.8 376.961 1140.5 364.505 1149.65C354.344 1155.8 342.974 1159.43 331.266 1160.27L342.252 1168.53L363.942 1164.4C380.085 1156.07 396.742 1148.87 413.801 1142.86C422.533 1140.5 432.111 1142.86 441.97 1139.32C452.633 1136.98 462.418 1131.44 470.139 1123.39L486.195 1107.46L504.505 1104.22C516.158 1098.04 526.806 1089.98 536.054 1080.32L552.111 1075.9L561.97 1067.93L548.449 1083.86L530.702 1089.47C538.262 1094.41 547.419 1095.9 556.054 1093.6C568.594 1085.98 580.639 1077.51 592.111 1068.23L610.984 1063.51L594.928 1076.78L573.519 1088.88L565.913 1109.53L584.223 1096.55C593.257 1092.73 602.726 1090.15 612.392 1088.88C621.864 1087.46 630.498 1082.42 636.618 1074.72C643.317 1065.02 651.503 1056.54 660.843 1049.64C671.205 1044.22 680.706 1037.15 689.012 1028.69L697.744 1013.06L716.336 997.129C727.863 990.786 739.053 983.794 749.857 976.183H760.561L777.463 977.658L774.928 999.489L755.209 998.014L744.223 1005.98L753.801 1010.99L762.815 1018.66L750.702 1022.79L741.406 1039.02L729.012 1042.56L739.153 1051.12C748.317 1052.54 757.66 1050.33 765.35 1044.92L769.857 1055.54L767.885 1064.1L779.153 1061.44L789.012 1041.97L798.308 1056.13L803.378 1066.75L806.195 1079.14L802.533 1092.42C790.572 1094.13 779.688 1100.57 772.111 1110.41C765.641 1120.34 763.587 1132.71 766.477 1144.34L769.857 1158.5C775.138 1165.27 778.807 1173.26 780.561 1181.8C781.269 1194.53 786.144 1206.62 794.364 1216.02C803.484 1226.59 816.039 1233.22 829.575 1234.61H839.716C853.213 1233.3 865.763 1226.78 874.928 1216.32C884.069 1205.66 888.915 1191.7 888.449 1177.38L896.054 1162.04C899.736 1153.09 899.736 1142.96 896.054 1134.01C896.955 1124.23 894.119 1114.47 888.167 1106.87L895.773 1104.22L911.829 1112.77L925.913 1130.47C927.585 1142.11 927.585 1153.94 925.913 1165.58C932.925 1157.99 937.968 1148.64 940.561 1138.44C942.983 1126.89 941.593 1114.83 936.618 1104.22L930.702 1081.5L909.857 1071.18H879.998L864.223 1066.16C866.031 1057.45 861.478 1048.67 853.519 1045.51C852.998 1033.78 845.411 1023.7 834.646 1020.43C831.293 1001.53 832.553 982.049 838.308 963.793L859.435 967.333L881.406 983.263L896.899 992.704C906.873 995.428 917.348 995.428 927.322 992.704H942.252C955.554 991.081 967.554 983.562 975.209 972.053C983.719 959.432 985.92 943.298 981.125 928.687C978.087 919.588 972.61 911.599 965.35 905.676L963.097 892.106C958.351 881.352 947.924 874.613 936.618 874.995H927.322L905.632 878.24L891.547 882.665V873.225L902.533 859.065L919.435 856.115H931.829L916.899 840.479C906.911 834.839 895.438 832.768 884.223 834.579C874.994 835.993 867.226 842.546 863.942 851.69L860.561 859.95C853.593 867.918 850.481 878.782 852.111 889.451L843.378 895.941L834.083 893.286L825.068 871.75C825.77 862.862 827.666 854.122 830.702 845.789V833.399L832.674 813.928L841.406 799.768L857.463 783.248C867.309 786.388 877.97 782.587 883.942 773.807C892.741 778.737 903.311 778.737 912.111 773.807L918.871 778.232C927.863 781.846 937.701 782.465 947.04 780.003L970.702 787.083L983.66 794.163L1001.97 797.703C1013.83 805.07 1027.78 807.886 1041.41 805.668C1055.12 814.546 1071.31 818.291 1087.32 816.289C1095.22 821.536 1104.96 822.731 1113.8 819.534L1128.73 823.664L1126.2 839.889L1115.77 841.659L1107.6 844.609L1088.17 838.709L1078.59 847.854L1090.98 851.1L1105.07 860.245L1093.24 872.93L1083.38 887.091H1070.42L1090.7 898.301C1100.41 893.193 1109.82 887.48 1118.87 881.19L1122.25 895.941L1117.74 909.511L1129.86 907.151L1142.81 887.386C1145.46 898.56 1155.94 905.661 1166.76 903.611C1172.48 913.966 1183.61 919.676 1194.93 918.066C1202.81 927.156 1215.07 930.512 1226.2 926.622C1233.75 934.224 1243.89 938.364 1254.36 938.127L1271.83 934.587L1292.67 945.502L1286.2 961.138L1294.65 981.198L1302.81 1004.8L1319.43 1014.24L1334.65 1030.17C1345.47 1034.73 1357.38 1035.66 1368.73 1032.82C1386.97 1041.3 1408.03 1039.87 1425.07 1028.99C1452.36 1010.82 1460.43 972.918 1443.1 944.322L1439.15 938.422C1445.73 924.141 1441.99 906.99 1430.14 897.121L1421.97 886.796L1404.79 883.255H1380.28L1385.35 867.62L1395.49 863.195L1409.86 851.69L1427.6 854.05L1411.55 839.004C1398.85 833.255 1384.28 834.243 1372.39 841.659L1351.55 847.559L1344.51 864.965C1334.19 863.555 1324.69 871.018 1323.1 881.78L1304.79 891.516C1298.03 885.409 1289.15 882.524 1280.28 883.55L1270.98 876.47L1251.27 874.405H1245.07H1230.42C1225.01 866.01 1215.86 861.109 1206.2 861.425L1211.27 836.939L1223.1 822.484L1236.34 798.883C1259.38 766.318 1270.03 725.934 1266.2 685.6C1276.82 676.139 1291.58 673.638 1304.51 679.11L1301.12 700.35L1287.04 707.725L1299.43 713.331L1315.21 708.61C1313.73 718.761 1315.51 729.138 1320.28 738.111L1341.12 750.797L1337.18 738.406L1344.79 715.691L1357.18 733.686V746.962L1367.04 729.261C1365.2 717 1361.69 705.078 1356.62 693.86C1369.79 695.027 1383 692.157 1394.65 685.6C1405.07 678.52 1414.93 670.259 1426.2 664.064L1438.03 661.114L1456.9 677.34L1470.42 681.765C1479.8 686.15 1490.02 688.171 1500.28 687.665C1510.92 687.589 1521.08 683.014 1528.45 674.979L1542.53 672.914C1553.45 667.851 1561.83 658.217 1565.63 646.364L1580 632.203C1581.75 622.03 1577.95 611.682 1570.14 605.358L1562.53 586.772L1546.2 575.857C1543.31 556.461 1530.06 540.517 1512.11 534.851C1495.82 529.7 1478.14 533.715 1465.35 545.471C1457.22 553.243 1451.77 563.616 1449.86 574.972C1443.07 583.405 1437.22 592.607 1432.39 602.407L1420.84 600.637C1406.07 602.276 1391.52 605.64 1377.46 610.668C1368.89 612.287 1360.12 612.287 1351.55 610.668C1339.95 609.305 1328.52 606.634 1317.46 602.702L1302.53 594.147L1280.56 579.397C1269.14 574.617 1257.48 570.48 1245.63 567.006C1234.36 561.257 1225.17 551.838 1219.43 540.161L1234.08 541.931L1244.5 546.356C1253.89 550.857 1262.31 557.277 1269.29 565.236L1287.6 578.512L1310.14 575.267L1292.39 568.186C1282.25 559.926 1278.31 546.356 1268.17 538.686L1250.98 530.72C1260.22 519.296 1274.87 514.375 1288.73 518.035C1298.75 521.376 1309.44 521.885 1319.72 519.51L1327.89 516.56C1343.08 519.266 1356.92 527.396 1367.04 539.571L1378.31 553.141L1364.22 569.957L1349.58 572.612L1359.72 578.807C1368.98 583.11 1379.74 581.871 1387.89 575.562L1391.83 589.722L1410.14 599.752L1403.38 587.952L1412.67 574.677L1420.56 584.707L1418.59 596.212L1431.27 590.607L1438.31 571.727L1454.36 555.796C1458.12 546.476 1459.85 536.4 1459.43 526.295C1481.81 532.962 1505.51 532.962 1527.89 526.295C1543.46 521.797 1559.64 520.003 1575.77 520.985L1597.74 531.31L1600.28 552.846L1610.98 535.736L1601.41 514.495C1590.55 506.772 1577.89 502.285 1564.79 501.515C1563.76 487.218 1553.06 475.767 1539.43 474.374L1520.56 484.404H1493.8L1496.62 468.769L1492.11 453.428L1494.36 443.988L1497.74 434.253L1502.53 427.763C1525.73 425.525 1548.06 417.426 1567.6 404.162C1587.62 399.207 1608.18 397.123 1628.73 397.967L1647.04 390.001L1652.67 379.086L1638.59 382.036Z" fill="white"/>
</svg>
