<svg width="2000" height="1417" viewBox="0 0 2000 1417" fill="none" xmlns="http://www.w3.org/2000/svg">
<path d="M1986.49 374.664H14.6543V699.173H1986.49V374.664Z" fill="white"/>
<path d="M1807.34 20.6545H194.096C95.1518 20.6545 14.9414 104.657 14.9414 208.28V374.664H1986.77V208.28C1986.77 158.467 1967.86 110.699 1934.2 75.5043C1900.54 40.3092 1854.9 20.5762 1807.34 20.6545Z" fill="#4758A9"/>
<path d="M14.6508 1219.57C14.6508 1323.2 94.8612 1407.2 193.806 1407.2H1807.05C1905.99 1407.2 1986.2 1323.2 1986.2 1219.57V1053.19H14.3691L14.6508 1219.57Z" fill="#F6D660"/>
<path d="M1986.49 699.178H14.6543V1053.19H1986.49V699.178Z" fill="#52C162"/>
<path d="M1169.58 20.6543H859.723V1407.19H1169.58V20.6543Z" fill="#ED5565"/>
<path d="M281.691 283.209C273.803 289.11 269.296 285.569 271.55 276.129L280.001 239.843C281.907 229.049 278.523 217.972 270.986 210.342L245.634 187.332C238.31 180.842 240.282 175.236 249.86 174.941H285.353C295.53 174.118 304.271 167.05 307.606 156.946L318.874 117.415C321.691 107.679 326.479 107.679 329.578 117.415L343.099 156.356C347.229 166.103 356.06 172.758 366.198 173.761H402.536C412.113 173.761 414.085 179.367 406.761 185.857L378.592 211.227C371.077 218.855 367.971 230.074 370.423 240.728L379.155 272.589C381.691 282.324 377.465 285.865 369.296 280.554L341.127 261.674C332.412 256.404 321.674 256.404 312.958 261.674L281.691 283.209Z" fill="#F6D660"/>
</svg>
