<svg width="2000" height="1417" viewBox="0 0 2000 1417" fill="none" xmlns="http://www.w3.org/2000/svg">
<path d="M187.323 20.6554C88.3784 20.6554 8.16797 104.658 8.16797 208.281V1219.27C8.16797 1322.9 88.3784 1406.9 187.323 1406.9H666.196C666.196 944.72 666.196 482.54 666.196 20.3604L187.323 20.6554Z" fill="#ED5565"/>
<path d="M665.631 20.6553C665.631 482.835 665.631 945.015 665.631 1407.19H1323.94C1323.94 945.015 1323.94 482.835 1323.94 20.6553H665.631Z" fill="white"/>
<path d="M1800.56 20.6553H1323.94C1323.94 482.835 1323.94 945.015 1323.94 1407.19H1800.56C1899.5 1407.19 1979.71 1323.19 1979.71 1219.57V208.281C1979.71 104.658 1899.5 20.6553 1800.56 20.6553Z" fill="#ED5565"/>
<path d="M1010.98 418.027C1008.96 409.821 1001.89 404.087 993.799 404.087C985.707 404.087 978.639 409.821 976.616 418.027L962.532 447.527C956.231 461.766 947.87 474.901 937.743 486.469C925.336 485.861 913.255 482.116 902.532 475.553C892.954 470.243 887.884 482.928 891.546 505.054L904.503 577.626C908.1 594.529 908.1 612.054 904.503 628.958C901.123 636.333 878.588 617.747 865.067 601.522L852.672 586.771C839.151 570.841 825.912 566.121 824.503 576.151C822.483 584.265 819.748 592.166 816.334 599.752C800.341 601.34 784.205 599.84 768.729 595.327H764.785C756.699 590.852 746.773 592.419 740.307 599.192C733.84 605.964 732.343 616.36 736.616 624.827V629.548C741.968 649.903 747.884 672.324 750.137 679.109C746.353 690.06 738.242 698.769 727.884 703.005C720.278 706.84 727.884 721 742.813 734.866L818.87 800.652C830.373 809.718 841.289 819.573 851.546 830.153C852.649 841.509 851.4 852.98 847.884 863.784C844.785 874.995 858.87 882.075 879.433 879.715L937.743 872.634C951.914 870.441 966.241 869.552 980.56 869.979C984.934 884.558 986.279 899.948 984.503 915.116L981.686 987.983C978.146 1001.64 981.792 1016.24 991.264 1026.33C1000.94 1016.36 1004.89 1001.8 1001.69 987.983L999.996 915.411C999.015 901.11 999.773 886.736 1002.25 872.634C1016.97 869.904 1032.04 869.904 1046.76 872.634L1105.07 879.715C1125.63 882.37 1140 874.995 1136.62 863.784C1133.82 854.685 1132.03 845.282 1131.26 835.758C1141.07 820.725 1153.15 807.471 1167.04 796.522L1243.1 730.735C1258.87 717.165 1265.63 702.71 1258.02 698.875C1251.25 695.694 1245.05 691.302 1239.71 685.894C1240.33 665.283 1243.55 644.848 1249.29 625.122V620.402C1253.56 611.934 1252.07 601.539 1245.6 594.766C1239.14 587.994 1229.21 586.427 1221.12 590.902H1217.18C1203.08 594.652 1188.62 596.73 1174.08 597.097C1167.89 589.931 1163.61 581.178 1161.69 571.726C1158.87 561.401 1145.63 566.416 1133.52 582.346L1121.12 597.097C1110.37 610.793 1097.63 622.639 1083.38 632.203C1076.05 635.448 1078.59 593.852 1083.38 573.201L1096.33 500.629C1100 479.978 1096.33 467.293 1085.35 471.128C1076.24 476.096 1066.83 480.432 1057.18 484.108C1042.59 474.071 1031.21 459.685 1024.5 442.807L1010.98 418.027Z" fill="#ED5565"/>
</svg>
