<svg width="2000" height="1417" viewBox="0 0 2000 1417" fill="none" xmlns="http://www.w3.org/2000/svg">
<g clip-path="url(#clip0)">
<path d="M2000 0H0V1416.04H2000V0Z" fill="#008000"/>
<path d="M1000 1003.03C1115.06 1003.03 1208.33 870.949 1208.33 708.02C1208.33 545.091 1115.06 413.012 1000 413.012C884.942 413.012 791.668 545.091 791.668 708.02C791.668 870.949 884.942 1003.03 1000 1003.03Z" fill="#FFE000"/>
<path d="M1064.96 950.769C1159.64 950.769 1236.39 842.086 1236.39 708.019C1236.39 573.952 1159.64 465.27 1064.96 465.27C970.282 465.27 893.531 573.952 893.531 708.019C893.531 842.086 970.282 950.769 1064.96 950.769Z" fill="#008000"/>
<path d="M343.254 722.067C463.792 722.067 561.508 583.698 561.508 413.01C561.508 242.323 463.792 103.954 343.254 103.954C222.716 103.954 125 242.323 125 413.01C125 583.698 222.716 722.067 343.254 722.067Z" fill="#FFE000"/>
<path d="M328.195 646.039H382.693C382.693 646.039 385.153 638.965 382.145 635.428C379.136 631.891 367.417 631.112 370.583 618.601C377.092 592.877 378 600.808 382.088 539.715C386.175 478.622 388.143 382.802 388.143 382.802H380.271C380.271 382.802 381.785 412.598 377.244 451.398C372.702 490.199 371.34 493.627 366.344 523.422C361.349 553.218 360.592 555.792 356.05 573.155C351.509 590.519 351.055 591.376 343.94 607.452C336.825 623.529 339.398 617.527 335.462 627.173C333.494 631.996 331.072 630.71 329.748 634.22C328.423 637.731 328.196 646.037 328.196 646.037L328.195 646.039Z" fill="#802000" stroke="#7B3100" stroke-width="1.38887"/>
<path d="M369.782 187.85C370.234 199.836 369.383 215.704 365.875 228.617C362.318 243.007 358.45 257.351 358.641 272.253C352.986 274.977 347.158 254.924 341.714 266.722C345.807 283.022 355.254 295.928 361.726 310.613C362.818 315.166 372.131 327.055 366.742 329.819C353.142 323.228 349.845 298.827 341.409 284.009C331.612 259.072 313.346 241.446 292.996 240.229C285.353 240.513 260.5 237.547 266.967 256.081C276.49 265.249 288.225 271.228 297.627 281.518C304.633 282.446 317.332 299.007 316.591 305.265C304.27 298.198 298.502 289.728 285.226 282.294C267.239 272.457 242.357 278.374 232.399 303.653C230.542 310.237 227.801 329.426 233.64 331.254C240.462 316.171 250.221 299.309 264.682 303.832C276.04 305.088 252.008 333.794 261.201 328.019C264.114 326.188 270.84 319.936 275.507 319.283C280.173 318.63 282.779 323.576 286.32 324.261C293.401 325.63 295.35 329.833 294.694 332.279C293.92 335.164 291.67 332.7 284.472 335.932C280.873 337.548 278.993 342.027 274.794 344.077C270.596 346.127 261.863 346.273 258.6 344.454C247.182 337.432 228.463 338.654 224.903 358.915C224.9 367.824 219.301 357.93 216.713 361.78C214.773 371.502 214.271 381.484 204.088 380.601C197.906 389.784 191.576 399.293 183.727 405.826C188.333 420.797 206.584 390.79 205.731 403.442C197.752 418.848 209.835 422.09 215.125 410.232C224.071 396.847 235.151 380.554 248.5 394.044C254.858 402.52 258.552 389.562 263.154 390.256C266.053 400.785 269.701 390.774 272.992 387.798C278.379 386.847 276.863 397.325 283.264 390.871C296.021 378.916 311.714 388.961 324.177 377.329C337.441 368.772 326.039 384.222 322.378 390.261C316.55 406.268 321.604 427.281 308.963 437.221C303.885 456.297 314.962 481.444 303.664 495.557C302.02 504.406 318.194 503.393 322.734 507.029C330.688 507.475 322.392 481.249 330.284 477.733C340.868 487.01 340.373 461.143 338.187 453.164C339.213 435.028 339.936 415.198 346.301 398.77C353.067 378.636 359.33 406.97 351.755 414.942C347.453 433.456 341.19 456.625 350.973 473.842C353.793 474.736 356.108 484.413 359.758 487.388C363.409 490.363 368.396 486.634 369.306 477.829C373.988 451.315 371.629 422.803 378.317 397.017C383.036 389.029 389.547 395.729 392.474 403.074C401.845 418.48 408.433 437.739 419.778 450.432C430.108 457.277 439.243 467.63 444.004 482.689C443.94 494.308 467.308 496.089 460.325 483.175C453.625 470.603 458.046 458.028 464.832 449.667C468.467 450.937 467.392 441.719 464.543 445.365C459.98 443.841 459.688 432.016 466.03 437.637C476.712 442.52 465.197 426.69 461.337 426.205C452.305 418.277 441.928 409.157 437.488 395.378C449.245 395.548 461.45 404.527 473.464 398.957C483.094 391.951 492.862 399.542 496.226 411.562C503.67 409.88 500.496 399.308 496.226 395.787C501.671 392.605 505.436 386.009 498.834 380.19C495.347 373.746 503.51 362.756 493.477 363.214C493.804 352.361 490.787 342.43 482.433 338.681C474.064 328.646 449.507 353.465 450.219 330.845C447.744 318.534 460.195 329.2 463.674 323.06C467.268 310.081 446.543 311.348 453.382 301.286C457.848 297.213 478.809 291.364 462.371 287.007C454.167 290.2 447.127 287.836 440.671 282.087C434.787 296.023 417.984 274.518 420.978 299.296C418.679 308.632 403.661 332.89 399.597 314.306C403.054 299.739 420.847 294.976 415.329 275.336C414.483 263.076 407.304 277.468 403.923 276.554C402.21 268.923 409.102 259.928 413.905 258.116C423.437 268.497 423.725 245.02 432.79 246.93C439.408 244.847 430.653 240.828 428.807 239.064C430.62 232.204 440.78 228.699 430.818 222.742C422.028 213.506 415.513 231.935 408.262 232.917C401.304 221.793 414.58 216.445 418.245 210.587C418.442 206.22 410.503 209.269 412.892 205.465C414.966 200.214 429.023 199.823 422.44 191.944C412.527 187.125 399.734 188.327 390.222 194.57C384.23 197.317 382.466 216.504 377.301 215.709C374.873 207.168 378.092 190.318 369.778 187.847L369.782 187.85ZM416.657 375.304C424.211 373.493 416.817 391.549 413.184 391.284C413.505 384.796 402.259 385.42 409.237 379.768C411.499 377.698 414.021 376.12 416.657 375.304Z" fill="#008000"/>
<path d="M1500 1078.89L1513.78 1139.53L1555.85 1116.97L1530.95 1170.03L1569.64 1202.54L1524.82 1208.06L1530.99 1271.16L1500 1224.99L1469.01 1271.16L1475.18 1208.06L1430.36 1202.54L1469.05 1170.03L1444.16 1116.97L1486.23 1139.53L1500 1078.89Z" fill="#FFE000"/>
<path d="M1250 518.371L1263.78 579.015L1305.85 556.453L1280.95 609.514L1319.64 642.024L1274.82 647.545L1280.99 710.646L1250 664.471L1219.01 710.646L1225.18 647.545L1180.36 642.024L1219.05 609.514L1194.16 556.453L1236.23 579.015L1250 518.371Z" fill="#FFE000"/>
<path d="M1500 134.86L1513.78 195.504L1555.85 172.943L1530.95 226.003L1569.64 258.513L1524.82 264.034L1530.99 327.135L1500 280.96L1469.01 327.135L1475.18 264.034L1430.36 258.513L1469.05 226.003L1444.16 172.943L1486.23 195.504L1500 134.86Z" fill="#FFE000"/>
<path d="M1722.22 423.969L1736 484.613L1778.07 462.051L1753.17 515.111L1791.86 547.622L1747.04 553.143L1753.22 616.244L1722.22 570.068L1691.23 616.244L1697.4 553.143L1652.59 547.622L1691.27 515.111L1666.38 462.051L1708.45 484.613L1722.22 423.969Z" fill="#FFE000"/>
<path d="M1600 708.02L1610.89 745.806L1639.63 748.789L1617.61 775.125L1624.49 814.755L1600 793.244L1575.51 814.755L1582.39 775.125L1560.38 748.789L1589.12 745.806L1600 708.02Z" fill="#FFE000"/>
</g>
<defs>
<clipPath id="clip0">
<rect width="2000" height="1416.04" rx="186" fill="white"/>
</clipPath>
</defs>
</svg>
