<svg width="2000" height="1417" viewBox="0 0 2000 1417" fill="none" xmlns="http://www.w3.org/2000/svg">
<path d="M1799.72 23.5969H186.202C87.2573 23.5969 7.04688 107.6 7.04688 211.222V1222.51C7.04688 1326.13 87.2573 1410.14 186.202 1410.14H1799.72C1898.67 1410.14 1978.88 1326.13 1978.88 1222.51V211.222C1978.88 107.6 1898.67 23.5969 1799.72 23.5969Z" fill="#ED5565"/>
<path d="M1274.65 598.858H1105.64V421.853C1105.64 389.268 1080.41 362.852 1049.3 362.852H936.624C905.509 362.852 880.286 389.268 880.286 421.853V598.858H711.272C680.157 598.858 654.934 625.274 654.934 657.86V775.863C654.934 808.449 680.157 834.865 711.272 834.865H880.286V1011.87C880.286 1044.46 905.509 1070.87 936.624 1070.87H1049.3C1080.41 1070.87 1105.64 1044.46 1105.64 1011.87V834.865H1274.65C1305.77 834.865 1330.99 808.449 1330.99 775.863V657.86C1330.99 625.274 1305.77 598.858 1274.65 598.858Z" fill="white"/>
</svg>
