<svg width="2000" height="1417" viewBox="0 0 2000 1417" fill="none" xmlns="http://www.w3.org/2000/svg">
<path d="M21.6899 640.172V1219.57C21.6899 1323.19 101.9 1407.19 200.845 1407.19H1814.08C1913.03 1407.19 1993.24 1323.19 1993.24 1219.57V640.172H21.4082H21.6899Z" fill="#ED5565"/>
<path d="M1814.09 20.6545L782.256 20.6543V640.172H1993.52V208.28C1993.52 158.467 1974.61 110.699 1940.95 75.5043C1907.29 40.3092 1861.65 20.5762 1814.09 20.6545Z" fill="white"/>
<path d="M782.257 20.6543H200.848C101.904 20.6543 21.6934 104.657 21.6934 208.28V640.172H782.257V20.6543Z" fill="#4758A9"/>
<path d="M335.495 458.747C323.946 467.303 317.185 462.582 320.566 447.832L333.242 393.55C336.076 377.361 331.003 360.758 319.72 349.299L281.692 315.078C270.988 305.343 273.805 297.083 287.889 296.493L340.847 295.018C356.066 293.864 369.153 283.294 374.087 268.172L390.706 209.17C394.65 194.715 401.974 194.42 406.763 209.17L426.763 268.172C432.64 283.037 446.079 293.106 461.411 294.133H515.495C529.58 294.133 532.678 302.393 521.974 312.423L480.847 350.184C469.599 361.643 464.897 378.43 468.453 394.436L481.692 442.227C485.636 456.682 478.875 461.992 466.763 454.027L422.819 424.526C409.516 416.34 393.023 416.34 379.72 424.526L335.495 458.747Z" fill="white"/>
</svg>
