<svg width="2000" height="1417" viewBox="0 0 2000 1417" fill="none" xmlns="http://www.w3.org/2000/svg">
<path d="M1800.57 28.9072H187.045C88.1 28.9072 7.88965 112.91 7.88965 216.533V1227.82C7.88965 1331.44 88.1 1415.45 187.045 1415.45H1800.57C1899.51 1415.45 1979.72 1331.44 1979.72 1227.82V216.533C1979.72 112.91 1899.51 28.9072 1800.57 28.9072Z" fill="#ED5565"/>
<path d="M344.511 777.049C321.413 794.455 307.892 784.72 314.37 755.514L339.441 646.951C344.878 614.365 334.291 581.1 311.272 558.448L235.497 489.711C213.807 470.241 219.441 453.425 247.892 452.54L354.089 449.295C385.308 447.673 412.428 426.283 422.54 395.309L455.779 277.305C463.948 247.804 478.314 247.804 487.892 277.305L527.892 395.309C539.592 425.084 566.501 445.247 597.187 447.23H705.357C733.526 447.23 739.441 464.046 718.033 483.516L635.497 559.038C613.103 582.015 603.809 615.581 610.99 647.541L637.187 743.123C645.075 772.624 631.835 782.655 607.61 767.019L518.878 708.017C491.792 692.417 458.735 693.548 432.68 710.968L344.511 777.049Z" fill="#F6D660"/>
<path d="M827.327 318.018C819.44 323.919 814.933 320.674 817.186 310.348L825.637 272.587C827.205 261.818 823.869 250.901 816.623 243.086L790.989 219.191C783.665 212.405 785.637 206.505 795.214 206.21H830.989C841.461 205.284 850.363 197.826 853.524 187.33L864.792 146.029C867.609 135.998 872.397 135.998 875.778 146.029L889.299 186.74C893.316 196.804 902.308 203.725 912.679 204.735H949.299C958.876 204.735 960.848 210.635 953.524 217.421L925.355 243.676C918.066 251.449 914.905 262.486 916.904 273.177L925.918 306.513C928.735 316.543 924.228 320.378 916.059 314.773L886.2 295.008C877.485 289.738 866.747 289.738 858.031 295.008L827.327 318.018Z" fill="#F6D660"/>
<path d="M827.327 900.654C819.44 906.554 814.933 903.309 817.186 892.984L825.637 855.223C827.205 844.454 823.869 833.537 816.623 825.722L790.989 801.826C783.665 795.041 785.637 789.141 795.214 788.846H830.989C841.388 787.966 850.269 780.641 853.524 770.26L864.792 728.959C867.609 718.929 872.397 718.929 875.778 728.959L889.299 769.67C893.316 779.734 902.308 786.656 912.679 787.666H949.299C958.876 787.666 960.848 793.566 953.524 800.351L925.355 826.607C918.066 834.38 914.905 845.417 916.904 856.108L925.918 889.444C928.735 899.474 924.228 903.309 916.059 897.704L886.482 877.939C877.766 872.669 867.028 872.669 858.313 877.939L827.327 900.654Z" fill="#F6D660"/>
<path d="M1022.53 744.302C1014.65 750.203 1010.14 746.958 1012.39 736.927L1020.84 699.166C1022.41 688.397 1019.08 677.48 1011.83 669.665L986.197 645.77C978.873 638.984 980.845 633.084 990.422 632.789H1026.2C1036.6 631.909 1045.48 624.585 1048.73 614.204L1060 572.903C1062.82 562.872 1067.61 562.872 1070.99 572.903L1084.51 613.614C1088.52 623.678 1097.52 630.599 1107.89 631.609H1144.51C1154.08 631.609 1156.06 637.509 1148.73 644.295L1120.56 670.55C1113.38 678.38 1110.32 689.409 1112.39 700.051L1121.41 733.387C1124.23 743.417 1119.44 747.253 1111.55 741.647L1081.97 721.882C1073.26 716.612 1062.52 716.612 1053.8 721.882L1022.53 744.302Z" fill="#F6D660"/>
<path d="M1022.54 474.665C1014.65 480.565 1010.14 477.32 1012.4 466.995L1020.85 429.234C1022.42 418.465 1019.08 407.548 1011.83 399.733L985.918 374.657C978.594 367.872 980.565 361.972 990.143 361.677H1025.92C1036.32 360.797 1045.2 353.472 1048.45 343.091L1059.72 301.79C1062.54 291.76 1067.33 291.76 1070.71 301.79L1084.23 342.501C1088.24 352.565 1097.24 359.487 1107.61 360.497H1144.23C1153.81 360.497 1155.78 366.397 1148.45 373.182L1120.28 399.438C1113.14 407.294 1110.09 418.299 1112.11 428.939L1121.13 462.275C1123.95 472.305 1119.16 476.14 1111.27 470.535L1081.69 450.77C1072.98 445.5 1062.24 445.5 1053.52 450.77L1022.54 474.665Z" fill="#F6D660"/>
</svg>
