<svg width="2000" height="1417" viewBox="0 0 2000 1417" fill="none" xmlns="http://www.w3.org/2000/svg">
<path d="M204.79 7.96005C105.845 7.96005 25.6348 91.9628 25.6348 195.585V1206.58C25.6348 1256.34 44.51 1304.06 78.108 1339.25C111.706 1374.44 157.275 1394.2 204.79 1394.2H683.663C683.663 932.024 683.663 469.845 683.663 7.66504L204.79 7.96005Z" fill="#FFAD54"/>
<path d="M683.099 7.95996C683.099 470.14 683.099 932.319 683.099 1394.5H1340.84C1340.84 932.319 1340.84 470.14 1340.84 7.95996H683.099Z" fill="white"/>
<path d="M1818.03 7.95996H1340.56C1340.56 470.14 1340.56 932.319 1340.56 1394.5H1818.03C1916.97 1394.5 1997.18 1310.5 1997.18 1206.87V195.585C1997.18 91.9627 1916.97 7.95996 1818.03 7.95996Z" fill="#52C162"/>
</svg>
