<svg width="2000" height="1417" viewBox="0 0 2000 1417" fill="none" xmlns="http://www.w3.org/2000/svg">
<path d="M200.842 12.3878C101.898 12.3878 21.6875 96.3905 21.6875 200.013V1211.01C21.6875 1314.63 101.898 1398.63 200.842 1398.63H679.716C679.716 936.452 679.716 474.273 679.716 12.0928L200.842 12.3878Z" fill="#52C162"/>
<path d="M679.152 12.3877C679.152 474.567 679.152 936.747 679.152 1398.93H1336.9C1336.9 936.747 1336.9 474.567 1336.9 12.3877H679.152Z" fill="#ED5565"/>
<path d="M1814.08 12.3877H1336.62C1336.62 474.567 1336.62 936.747 1336.62 1398.93H1814.08C1913.02 1398.93 1993.24 1314.92 1993.24 1211.3V200.013C1993.24 96.3904 1913.02 12.3877 1814.08 12.3877Z" fill="#FFCE54"/>
<path d="M912.113 891.215C895.493 903.605 885.634 896.525 890.423 875.58L908.451 797.107C912.613 773.706 905.318 749.676 889.014 733.091L834.367 683.529C818.874 669.369 822.817 657.273 843.381 656.683L919.719 654.323C941.558 652.211 960.242 637.018 967.606 615.382L991.55 529.535C997.465 508.589 1007.89 508.294 1014.65 529.535L1042.82 614.202C1050.91 635.906 1070.45 650.586 1092.68 651.668H1170.7C1191.27 651.668 1195.21 663.764 1179.72 677.924L1120.28 732.501C1104.17 749.054 1097.45 773.194 1102.54 796.222L1121.41 865.254C1127.04 886.2 1117.47 894.755 1100 882.66L1036.62 841.654C1017.08 830.323 993.183 831.116 974.367 843.719L912.113 891.215Z" fill="#F6BB42"/>
</svg>
