<svg width="2000" height="1417" viewBox="0 0 2000 1417" fill="none" xmlns="http://www.w3.org/2000/svg">
<path d="M145.354 1411.02C157.843 1413.91 170.591 1415.39 183.382 1415.45H1796.62C1895.57 1415.45 1975.78 1331.45 1975.78 1227.82V260.785L145.354 1411.02Z" fill="#4758A9"/>
<path d="M183.389 29.4971C84.4448 29.4971 4.23438 113.5 4.23438 217.122V1087.4L1687.61 29.4971H183.389Z" fill="#4758A9"/>
<path d="M1976.05 216.821C1975.98 200.987 1974 185.226 1970.14 169.915L64.2227 1367.65C87.2314 1389.2 115.183 1404.15 145.349 1411.02L1976.34 260.483L1976.05 216.821Z" fill="#F2D660"/>
<path d="M1824.51 31.5622C1815.19 30.0024 1805.77 29.2133 1796.34 29.2021H1687.32L3.66211 1087.1V1175.6L1824.51 31.5622Z" fill="#F2D660"/>
<path d="M1824.52 31.5557L4.23438 1175.6V1227.81C4.23769 1281.26 26.0751 1332.16 64.2344 1367.65L1970.15 169.915C1952.27 97.5235 1895.05 43.1632 1824.52 31.5557Z" fill="#ED5565"/>
<path d="M225.355 524.814C209.862 536.319 200.847 529.829 205.355 510.358L221.974 437.786C225.788 416.198 219.019 394.044 203.946 378.785L153.242 333.058C138.876 320.078 142.538 308.868 161.411 308.278L232.115 306.213C252.392 304.529 269.774 290.384 276.34 270.222L298.594 191.159C303.946 171.984 313.805 171.689 320.002 191.159L346.763 269.337C354.591 289.149 372.525 302.548 392.96 303.853H465.355C484.228 303.853 488.171 315.063 473.805 328.043L417.467 378.49C402.538 393.808 396.341 416.185 401.129 437.491L418.594 501.213C423.946 520.389 414.932 527.764 398.876 517.144L340.284 479.088C322.503 469.179 301.023 469.967 283.946 481.153L225.355 524.814Z" fill="#F6D660"/>
</svg>
