<svg width="2000" height="1417" viewBox="0 0 2000 1417" fill="none" xmlns="http://www.w3.org/2000/svg">
<path d="M1814.37 28.9072H200.848C101.904 28.9072 21.6934 112.91 21.6934 216.533V1227.82C21.6934 1331.44 101.904 1415.45 200.848 1415.45H1814.37C1913.31 1415.45 1993.52 1331.44 1993.52 1227.82V216.533C1993.52 112.91 1913.31 28.9072 1814.37 28.9072Z" fill="#4758A9"/>
<path d="M162.814 1411.02C175.304 1413.91 188.052 1415.39 200.843 1415.45H1814.08C1913.03 1415.45 1993.24 1331.45 1993.24 1227.82V260.785L162.814 1411.02Z" fill="#ED5565"/>
<path d="M200.848 29.5107C101.904 29.5107 21.6934 113.513 21.6934 217.136V1087.41L1705.07 29.5107H200.848Z" fill="#52C162"/>
<path d="M1987.61 169.935C1966.55 87.5504 1895.52 30.0649 1814.08 29.5107H1705.07L21.4082 1087.41V1228.13C21.5265 1316.29 80.0635 1392.56 162.253 1411.62L1993.24 261.092V217.136C1993.28 201.215 1991.39 185.354 1987.61 169.935Z" fill="#F2D660"/>
</svg>
