<svg width="2000" height="1417" viewBox="0 0 2000 1417" fill="none" xmlns="http://www.w3.org/2000/svg">
<path d="M1818.31 12.6816H175.497C92.4161 23.4121 26.2594 90.6483 13.5254 177.296V1231.07C27.4376 1326.71 105.937 1397.39 198.314 1397.45H1796.06C1899.36 1397.45 1983.1 1309.75 1983.1 1201.57V206.502C1982.78 107.589 1912.09 24.4494 1818.31 12.6816Z" fill="#4658A9"/>
<path d="M714.39 11.2393H197.207C94.6774 12.3713 12.131 99.7415 12.1367 207.125V718.374H716.362L714.39 11.2393Z" fill="#4658A9"/>
<path d="M307.608 524.823V718.348H417.468V520.398L606.482 718.348H714.087V629.846L516.904 423.34H714.087V305.336H516.904L714.087 98.8306V10.3281H606.2L417.468 207.984V10.3281H307.608V203.854L134.087 22.1285C90.0509 38.84 53.5763 72.1985 31.8338 115.646L212.397 304.746H10.707V422.75H212.397L10.707 633.976V717.463H123.383L307.608 524.823Z" fill="white"/>
<path d="M335.777 442.515V717.168H389.299V438.385L655.496 717.168H714.087V680.882L438.594 392.364H714.087V334.837H438.594L714.087 46.3192V10.0332H655.214L389.017 288.816V10.0332H335.496V284.391L100.848 38.354C81.873 50.4099 65.0878 65.8913 51.2704 84.0803L290.425 334.542H10.707V392.069H290.425L10.707 685.012V717.168H73.5239L335.777 442.515Z" fill="#EC5463"/>
<path d="M1606.48 1086.81L1559.44 1051.11L1512.11 1086.81L1530.14 1028.69L1483.1 992.998H1541.41L1559.44 934.881L1577.46 992.998H1635.77L1588.45 1028.69L1606.48 1086.81Z" fill="white" stroke="#4658A9" stroke-width="0.5"/>
<path d="M1000.01 897.711L970.992 844.904L1024.23 869.685L1063.1 824.253L1057.19 885.025L1110.43 910.101L1053.25 922.786L1047.33 983.263L1018.03 930.457L961.133 943.142L1000.01 897.711Z" fill="white" stroke="#4658A9" stroke-width="0.5"/>
<path d="M970.423 602.997L923.381 567.006H981.691L999.719 508.89L1017.75 567.006H1076.06L1028.73 602.997L1046.76 660.819L999.719 625.123L952.395 660.819L970.423 602.997Z" fill="white" stroke="#4658A9" stroke-width="0.5"/>
<path d="M1015.78 399.743L1068.74 424.524L1107.89 379.093L1101.69 439.864L1154.93 464.645L1098.03 477.331L1091.83 538.102L1062.82 485.001L1005.64 497.981L1044.79 452.55L1015.78 399.743Z" fill="white" stroke="#4658A9" stroke-width="0.5"/>
<path d="M1165.08 285.868L1203.95 331.299L1257.19 306.519L1228.17 359.325L1267.05 404.757L1210.15 392.071L1180.85 444.878L1174.94 384.106L1117.75 371.421L1170.99 346.64L1165.08 285.868Z" fill="white" stroke="#4658A9" stroke-width="0.5"/>
<path d="M1720.57 602.997L1738.59 660.819L1691.55 625.123L1644.23 660.819L1662.26 602.997L1615.21 567.006H1673.52L1691.55 508.89L1709.58 567.006H1767.89L1720.57 602.997Z" fill="white" stroke="#4658A9" stroke-width="0.5"/>
<path d="M1646.48 452.55L1685.35 497.981L1628.45 485.001L1599.16 538.102L1593.24 477.331L1536.06 464.645L1589.3 439.864L1583.1 379.093L1622.25 424.524L1675.49 399.743L1646.48 452.55Z" fill="white" stroke="#4658A9" stroke-width="0.5"/>
<path d="M1520 346.64L1573.24 371.421L1516.34 384.106L1510.14 444.878L1481.13 392.071L1423.95 404.757L1463.1 359.325L1433.81 306.519L1487.05 331.299L1526.2 285.868L1520 346.64Z" fill="white" stroke="#4658A9" stroke-width="0.5"/>
<path d="M1363.67 303.867H1421.98L1374.65 339.563L1392.68 397.679L1345.64 361.983L1298.31 397.679L1316.34 339.563L1269.3 303.867H1327.61L1345.64 245.75L1363.67 303.867Z" fill="white" stroke="#4658A9" stroke-width="0.5"/>
<path d="M1102.54 1028.69L1055.5 992.998H1113.81L1131.83 934.881L1149.86 992.998H1208.17L1160.85 1028.69L1178.88 1086.81L1131.83 1051.11L1084.51 1086.81L1102.54 1028.69Z" fill="white" stroke="#4658A9" stroke-width="0.5"/>
<path d="M1247.04 1104.81L1190.14 1092.12L1243.38 1067.34L1237.18 1006.57L1276.34 1052L1329.58 1027.22L1300.57 1080.03L1339.44 1125.46L1282.26 1112.48L1253.24 1165.58L1247.04 1104.81Z" fill="white" stroke="#4658A9" stroke-width="0.5"/>
<path d="M1408.74 1112.48L1351.83 1125.46L1390.71 1080.03L1361.69 1027.22L1414.93 1052L1453.81 1006.57L1447.61 1067.34L1501.13 1092.12L1443.95 1104.81L1438.03 1165.58L1408.74 1112.48Z" fill="white" stroke="#4658A9" stroke-width="0.5"/>
<path d="M1672.96 930.457L1643.94 983.263L1637.75 922.786L1580.85 910.101L1634.09 885.025L1627.89 824.253L1667.04 869.685L1720.28 844.904L1690.99 897.711L1730.14 943.142L1672.96 930.457Z" fill="white" stroke="#4658A9" stroke-width="0.5"/>
<path d="M1730.14 772.04L1723.95 832.811L1694.93 779.71L1637.75 792.69L1676.9 747.259L1647.61 694.452L1700.85 719.233L1740 673.802L1733.81 734.573L1787.05 759.354L1730.14 772.04Z" fill="white" stroke="#4658A9" stroke-width="0.5"/>
<path d="M957.187 734.573L951.271 673.802L990.144 719.233L1043.38 694.452L1014.37 747.259L1053.24 792.69L996.342 779.71L967.046 832.811L961.13 772.04L903.947 759.354L957.187 734.573Z" fill="white" stroke="#4658A9" stroke-width="0.5"/>
</svg>
