<svg width="2000" height="1417" viewBox="0 0 2000 1417" fill="none" xmlns="http://www.w3.org/2000/svg">
<path d="M14.6508 1223.82C14.6508 1329.65 94.8612 1415.44 193.806 1415.44H1807.05C1905.99 1415.44 1986.2 1329.65 1986.2 1223.82V1061.43H14.3691L14.6508 1223.82Z" fill="#4758A9"/>
<path d="M1986.49 707.417H14.6543V1061.43H1986.49V707.417Z" fill="#ED5565"/>
<path d="M1986.49 353.407H14.6543V707.417H1986.49V353.407Z" fill="white"/>
<path d="M1807.34 0.0002372H194.096C95.1518 0.0002372 14.9414 85.7902 14.9414 191.618V354.01H1986.77V191.618C1986.77 140.745 1967.86 91.9609 1934.2 56.017C1900.54 20.0731 1854.9 -0.0797507 1807.34 0.0002372Z" fill="#F2D660"/>
<path d="M1169.58 707.42L74.6509 48.208C70.1234 52.4939 65.7988 57.0188 61.6932 61.7658C57.7495 66.2851 54.0875 71.1057 50.7072 76.2275C47.6087 81.0481 44.5101 85.8686 41.6932 90.6892V93.0995C39.158 97.6188 36.9044 102.439 34.6509 107.561L32.9608 110.875C30.9889 115.395 29.2988 120.215 27.6087 125.036L25.9185 129.555C25.9185 134.074 23.3833 138.895 22.2565 143.414C21.1298 147.933 22.2565 147.03 22.2565 148.837C22.2565 150.645 20.5664 158.478 20.003 163.299C19.4396 168.119 20.003 166.914 20.003 168.722C19.6631 175.546 19.6631 182.385 20.003 189.209V1221.71C19.6631 1228.54 19.6631 1235.38 20.003 1242.2C20.003 1244.01 20.003 1245.82 20.003 1247.62C20.003 1249.43 20.003 1257.27 22.2565 1262.09C24.5101 1266.91 22.2565 1265.7 22.2565 1267.51C22.2565 1269.32 24.5101 1276.85 25.9185 1281.37L27.6087 1285.89C29.2988 1290.71 30.9889 1295.53 32.9608 1300.05L34.3692 1303.36C36.6227 1308.18 38.8763 1313 41.4115 1317.82V1320.23C44.2284 1325.36 47.327 1330.18 50.4256 1334.7C53.8058 1339.82 57.4678 1344.34 61.4115 1349.16C65.5429 1353.98 69.8622 1358.5 74.3692 1362.71L1169.58 707.42Z" fill="#52C162"/>
<path d="M352.117 516.399C346.201 520.918 342.821 518.508 344.23 510.674L350.708 480.546C352.168 471.856 349.534 462.954 343.666 456.744L324.23 438.366C318.596 433.244 320.004 428.725 327.328 428.423H355.497C363.322 427.636 369.963 421.954 372.399 413.962L380.849 382.025C382.821 374.192 386.765 374.192 389.018 382.025L399.159 412.154C402.077 420.05 408.985 425.444 416.906 426.013H445.075C452.399 426.013 453.807 430.532 448.455 435.654L427.328 455.84C421.679 462.048 419.347 470.89 421.131 479.341L427.891 504.95C429.863 512.783 427.891 515.495 420.286 511.277L397.751 495.911C390.916 491.464 382.332 491.464 375.497 495.911L352.117 516.399Z" fill="white"/>
<path d="M352.117 682.414C346.201 686.933 342.821 684.523 344.23 676.69L350.708 646.561C352.168 637.871 349.534 628.97 343.666 622.76L324.23 604.381C318.596 599.26 320.004 594.74 327.328 594.439H355.497C363.322 593.652 369.963 587.97 372.399 579.977L380.849 548.041C382.821 540.208 386.765 540.208 389.018 548.041L399.159 578.17C402.077 586.066 408.985 591.46 416.906 592.029H445.075C452.399 592.029 453.807 596.548 448.455 601.67L427.328 621.856C421.679 628.064 419.347 636.906 421.131 645.356L427.891 670.965C429.863 678.799 427.891 681.51 420.286 677.292L397.751 661.927C390.916 657.479 382.332 657.479 375.497 661.927L352.117 682.414Z" fill="white"/>
<path d="M352.117 848.415C346.201 852.934 342.821 850.524 344.23 842.691L350.708 812.562C352.168 803.872 349.534 794.971 343.666 788.761L324.23 770.382C318.596 765.26 320.004 760.741 327.328 760.44H355.497C363.322 759.653 369.963 753.971 372.399 745.978L380.849 714.042C382.821 706.209 386.765 706.209 389.018 714.042L399.159 744.171C402.077 752.067 408.985 757.461 416.906 758.03H445.075C452.399 758.03 453.807 762.549 448.455 767.671L427.328 787.857C421.679 794.065 419.347 802.907 421.131 811.357L427.891 836.966C429.863 844.8 427.891 847.511 420.286 843.293L397.751 827.928C390.916 823.48 382.332 823.48 375.497 827.928L352.117 848.415Z" fill="white"/>
<path d="M352.117 1014.73C346.201 1019.24 342.821 1016.83 344.23 1009L350.708 978.872C352.168 970.182 349.534 961.281 343.666 955.071L324.23 936.692C318.596 931.571 320.004 927.051 327.328 926.75H355.497C363.322 925.963 369.963 920.281 372.399 912.288L380.849 880.352C382.821 872.519 386.765 872.519 389.018 880.352L399.159 910.481C402.077 918.377 408.985 923.771 416.906 924.34H445.075C452.399 924.34 453.807 928.859 448.455 933.981L427.328 954.167C421.679 960.375 419.347 969.217 421.131 977.667L427.891 1003.28C429.863 1011.11 427.891 1013.82 420.286 1009.6L397.751 994.238C390.916 989.791 382.332 989.791 375.497 994.238L352.117 1014.73Z" fill="white"/>
<path d="M316.907 1022.26C312.645 1030.84 307.546 1038.92 301.696 1046.36C250.147 1109.63 219.724 1010.51 201.978 825.219C198.597 789.366 196.907 753.212 196.626 717.359C196.344 681.506 196.626 645.051 200.006 608.595C214.09 419.69 242.541 308.817 295.217 360.939C301.28 367.124 306.581 374.109 310.992 381.728C312.682 383.535 314.654 379.619 315.217 373.292C315.68 368.816 315.199 364.286 313.809 360.035C304.837 330.374 289.829 303.209 269.865 280.496C203.668 215.117 135.499 354.311 117.752 591.422C114.372 635.41 112.964 679.699 113.527 723.084C114.09 766.469 116.062 810.456 120.288 853.54C142.823 1086.13 213.527 1210.56 278.316 1131.02C297.535 1104.53 311.873 1074.37 320.569 1042.14C321.5 1037.58 321.5 1032.85 320.569 1028.29C320.569 1024.37 318.597 1020.15 316.907 1022.26Z" fill="white"/>
</svg>
