<svg width="2000" height="1417" viewBox="0 0 2000 1417" fill="none" xmlns="http://www.w3.org/2000/svg">
<path d="M1818.02 20.6543H204.503C105.558 20.6543 25.3477 104.657 25.3477 208.28V1219.57C25.3477 1323.19 105.558 1407.19 204.503 1407.19H1818.02C1916.97 1407.19 1997.18 1323.19 1997.18 1219.57V208.28C1997.18 104.657 1916.97 20.6543 1818.02 20.6543Z" fill="#4758A9"/>
<path d="M1997.18 640.172H25.3477V1053.18H1997.18V640.172Z" fill="white"/>
<path d="M1997.18 728.674H25.3477V964.681H1997.18V728.674Z" fill="#ED5565"/>
<path d="M601.122 637.219C593.235 643.119 588.728 639.579 590.981 630.139L599.432 593.853C601.339 583.059 597.954 571.982 590.418 564.352L565.066 541.341C557.742 534.851 559.714 529.246 569.291 528.951H604.784C614.962 528.128 623.703 521.059 627.038 510.956L638.305 471.425C641.122 461.689 645.911 461.689 649.01 471.425L662.531 510.366C666.661 520.113 675.492 526.768 685.629 527.771H721.967C731.545 527.771 733.517 533.376 726.193 539.866L698.024 565.237C690.509 572.865 687.403 584.083 689.855 594.738L698.587 626.599C701.122 636.334 696.897 639.874 688.728 634.564L660.559 615.684C651.843 610.414 641.105 610.414 632.39 615.684L601.122 637.219Z" fill="#F6D660"/>
<path d="M601.122 1227.24C593.235 1233.14 588.728 1229.6 590.981 1220.16L599.432 1183.87C601.339 1173.08 597.954 1162 590.418 1154.37L565.066 1131.36C557.742 1124.87 559.714 1119.27 569.291 1118.97H604.784C614.962 1118.15 623.703 1111.08 627.038 1100.98L638.305 1061.45C641.122 1051.71 645.911 1051.71 649.01 1061.45L662.531 1100.39C666.661 1110.13 675.492 1116.79 685.629 1117.79H721.967C731.545 1117.79 733.517 1123.4 726.193 1129.89L698.024 1155.26C690.509 1162.89 687.403 1174.1 689.855 1184.76L698.587 1216.62C701.122 1226.36 696.897 1229.9 688.728 1224.59L660.559 1205.71C651.843 1200.44 641.105 1200.44 632.39 1205.71L601.122 1227.24Z" fill="#F6D660"/>
<path d="M882.814 932.223C874.926 938.123 870.419 934.583 872.673 925.143L881.124 888.857C883.03 878.063 879.646 866.986 872.11 859.356L846.757 836.345C839.433 829.855 841.405 824.25 850.983 823.955H886.476C896.653 823.132 905.394 816.063 908.729 805.96L919.997 766.428C922.814 756.693 927.603 756.693 930.701 766.428L944.222 805.37C948.352 815.117 957.183 821.772 967.321 822.775H1003.66C1013.24 822.775 1015.21 828.38 1007.88 834.87L979.715 860.241C972.201 867.869 969.094 879.087 971.546 889.742L980.279 921.603C982.814 931.338 978.588 934.878 970.419 929.568L942.25 910.688C933.535 905.418 922.797 905.418 914.081 910.688L882.814 932.223Z" fill="#F6D660"/>
<path d="M347.599 932.223C339.712 938.123 335.205 934.583 337.458 925.143L345.909 888.857C347.816 878.063 344.431 866.986 336.895 859.356L311.543 836.345C304.219 829.855 306.19 824.25 315.768 823.955H351.261C361.438 823.132 370.179 816.063 373.514 805.96L384.782 766.428C387.599 756.693 392.388 756.693 395.486 766.428L409.007 805.37C413.137 815.117 421.968 821.772 432.106 822.775H468.444C478.021 822.775 479.993 828.38 472.669 834.87L444.5 860.241C436.986 867.869 433.879 879.087 436.331 889.742L445.064 921.603C447.599 931.338 443.374 934.878 435.204 929.568L407.035 910.688C398.32 905.418 387.582 905.418 378.866 910.688L347.599 932.223Z" fill="#F6D660"/>
<path d="M403.943 725.722C396.055 731.622 391.548 728.082 393.802 718.642L402.253 682.356C404.159 671.562 400.775 660.485 393.238 652.855L367.886 629.844C360.562 623.354 362.534 617.749 372.112 617.454H407.605C417.782 616.631 426.523 609.562 429.858 599.459L441.126 559.927C443.943 550.192 448.731 550.192 451.83 559.927L465.351 598.869C469.481 608.616 478.312 615.271 488.45 616.274H524.788C534.365 616.274 536.337 621.879 529.013 628.369L500.844 653.74C493.33 661.368 490.223 672.586 492.675 683.241L501.407 715.102C503.943 724.837 499.717 728.377 491.548 723.067L463.379 704.187C454.664 698.917 443.926 698.917 435.21 704.187L403.943 725.722Z" fill="#F6D660"/>
<path d="M798.306 725.722C790.419 731.622 785.912 728.082 788.165 718.642L796.616 682.356C798.523 671.562 795.138 660.485 787.602 652.855L762.25 629.844C754.926 623.354 756.897 617.749 766.475 617.454H801.968C812.145 616.631 820.887 609.562 824.221 599.459L835.489 559.927C838.306 550.192 843.095 550.192 846.193 559.927L859.714 598.869C863.844 608.616 872.676 615.271 882.813 616.274H919.151C928.729 616.274 930.7 621.879 923.376 628.369L895.207 653.74C887.693 661.368 884.586 672.586 887.038 683.241L895.771 715.102C898.306 724.837 894.081 728.377 885.912 723.067L857.743 704.187C849.027 698.917 838.289 698.917 829.574 704.187L798.306 725.722Z" fill="#F6D660"/>
<path d="M403.943 1138.74C396.055 1144.64 391.548 1141.1 393.802 1131.66L402.253 1095.37C404.159 1084.58 400.775 1073.5 393.238 1065.87L367.886 1042.86C360.562 1036.37 362.534 1030.76 372.112 1030.47H407.605C417.782 1029.65 426.523 1022.58 429.858 1012.47L441.126 972.943C443.943 963.208 448.731 963.208 451.83 972.943L465.351 1011.88C469.481 1021.63 478.312 1028.29 488.45 1029.29H524.788C534.365 1029.29 536.337 1034.89 529.013 1041.39L500.844 1066.76C493.33 1074.38 490.223 1085.6 492.675 1096.26L501.407 1128.12C503.943 1137.85 499.717 1141.39 491.548 1136.08L463.379 1117.2C454.664 1111.93 443.926 1111.93 435.21 1117.2L403.943 1138.74Z" fill="#F6D660"/>
<path d="M798.306 1138.74C790.419 1144.64 785.912 1141.1 788.165 1131.66L796.616 1095.37C798.523 1084.58 795.138 1073.5 787.602 1065.87L762.25 1042.86C754.926 1036.37 756.897 1030.76 766.475 1030.47H801.968C812.145 1029.65 820.887 1022.58 824.221 1012.47L835.489 972.943C838.306 963.208 843.095 963.208 846.193 972.943L859.714 1011.88C863.844 1021.63 872.676 1028.29 882.813 1029.29H919.151C928.729 1029.29 930.7 1034.89 923.376 1041.39L895.207 1066.76C887.693 1074.38 884.586 1085.6 887.038 1096.26L895.771 1128.12C898.306 1137.85 894.081 1141.39 885.912 1136.08L857.743 1117.2C849.027 1111.93 838.289 1111.93 829.574 1117.2L798.306 1138.74Z" fill="#F6D660"/>
</svg>
