<svg width="2000" height="1417" viewBox="0 0 2000 1417" fill="none" xmlns="http://www.w3.org/2000/svg">
<mask id="mask0" mask-type="alpha" maskUnits="userSpaceOnUse" x="21" y="7" width="1973" height="1388">
<path d="M1814.08 7.95898H200.842C101.898 7.95898 21.6875 91.9617 21.6875 195.584V1206.58C21.6875 1256.34 40.5627 1304.06 74.1608 1339.25C107.759 1374.44 153.328 1394.2 200.842 1394.2H1814.08C1861.6 1394.2 1907.17 1374.44 1940.76 1339.25C1974.36 1304.06 1993.24 1256.34 1993.24 1206.58V195.584C1993.24 91.9617 1913.03 7.95898 1814.08 7.95898Z" fill="white"/>
</mask>
<g mask="url(#mask0)">
<path d="M1814.08 7.95898H200.842C101.898 7.95898 21.6875 91.9617 21.6875 195.584V1206.58C21.6875 1256.34 40.5627 1304.06 74.1608 1339.25C107.759 1374.44 153.328 1394.2 200.842 1394.2H1814.08C1861.6 1394.2 1907.17 1374.44 1940.76 1339.25C1974.36 1304.06 1993.24 1256.34 1993.24 1206.58V195.584C1993.24 91.9617 1913.03 7.95898 1814.08 7.95898Z" fill="white"/>
<path d="M-225.355 5.89941H1987.88V1396.57H-225.355V5.89941Z" fill="#4758A9"/>
<path d="M-225.355 237.482H1987.88V1164.69H-225.355V237.482Z" fill="white"/>
<path d="M-225.355 469.346H1987.88V932.804H-225.355V469.346Z" fill="#ED5565"/>
</g>
</svg>
