<svg width="2000" height="1417" viewBox="0 0 2000 1417" fill="none" xmlns="http://www.w3.org/2000/svg">
<path d="M1976.06 243.97H4.22656V583.23H1976.06V243.97Z" fill="white"/>
<path d="M1976.06 819.237H4.22656V1158.5H1976.06V819.237Z" fill="white"/>
<path d="M1796.62 7.95922H183.382C84.437 7.95922 4.22656 91.9618 4.22656 195.584V243.966H1976.06V195.584C1976.06 145.772 1957.14 98.004 1923.48 62.8089C1889.83 27.6139 1844.18 7.8809 1796.62 7.95922Z" fill="#4758A9"/>
<path d="M4.2231 1206.58C4.2231 1256.34 23.0983 1304.06 56.6964 1339.25C90.2944 1374.44 135.863 1394.2 183.378 1394.2H1796.62C1844.13 1394.2 1889.7 1374.44 1923.3 1339.25C1956.9 1304.06 1975.77 1256.34 1975.77 1206.58V1158.2H3.94141L4.2231 1206.58Z" fill="#4758A9"/>
<path d="M1976.06 583.225H4.22656V819.232H1976.06V583.225Z" fill="#4758A9"/>
<path d="M63.9414 55.7554C25.7821 91.2472 3.94472 142.141 3.94141 195.589V1206.58C3.94472 1260.03 25.7821 1310.92 63.9414 1346.42L792.674 700.939L63.9414 55.7554Z" fill="#ED5565"/>
<path d="M335.774 823.071C333.52 836.051 326.196 837.526 319.436 826.316L294.365 784.425C286.131 772.388 272.724 765.423 258.591 765.839L213.238 769.379C200.281 769.379 197.182 763.479 205.915 753.744L239.154 718.048C248.082 707.489 249.978 692.305 243.943 679.697L218.591 632.201C212.393 620.695 216.9 615.68 228.731 621.285L277.182 644.296C290.031 649.648 304.649 647.153 315.21 637.806L350.422 602.7C359.717 593.554 366.478 596.8 365.633 609.78L362.253 660.226C362.028 674.717 369.229 688.224 381.126 695.627L418.591 716.573C429.858 722.768 429.013 730.733 416.337 733.683L370.703 744.894C356.786 748.439 345.92 759.819 342.534 774.395L335.774 823.071Z" fill="white"/>
</svg>
