<svg width="2000" height="1417" viewBox="0 0 2000 1417" fill="none" xmlns="http://www.w3.org/2000/svg">
<path d="M1982.82 223.91C1982.82 115.726 1899.07 28.0249 1795.77 28.0249H197.183C93.8823 28.0249 10.1406 115.726 10.1406 223.91V894.464H1981.97L1982.82 223.91Z" fill="#4658A9"/>
<path d="M1982.83 1218.38V1067.64H11V1218.38C11 1326.57 94.7417 1414.27 198.042 1414.27H1795.79C1899.09 1414.27 1982.83 1326.57 1982.83 1218.38Z" fill="#4658A9"/>
<path d="M1982.83 894.47H11V1067.93H1982.83V894.47Z" fill="#F2D660"/>
<path d="M385.349 613.021C372.673 622.166 365.067 616.561 368.729 600.925L382.251 541.924C385.165 524.063 379.473 505.847 367.039 493.247L325.067 454.601C313.236 443.686 316.053 434.541 331.828 434.541H390.42C407.228 433.623 421.719 421.858 426.758 405.04L444.786 340.728C449.293 325.093 457.18 325.093 462.532 340.728L484.786 405.335C491.32 421.867 506.079 433.232 523.096 434.836L582.814 436.901C598.589 436.901 601.687 446.636 589.856 456.961L544.786 497.082C532.554 509.403 527.51 527.611 531.546 544.874L546.194 597.385C550.701 613.316 543.377 618.921 529.856 610.071L481.124 577.62C466.426 568.59 448.216 568.59 433.518 577.62L385.349 613.021Z" fill="white"/>
<path d="M181.125 352.539C171.547 359.324 165.632 355.194 168.449 343.394L178.59 298.552C180.885 284.921 176.556 270.987 167.04 261.381L135.209 231.88C126.195 223.62 128.449 216.835 140.28 216.54H184.787C197.609 216.14 208.842 207.434 212.956 194.709L226.759 145.738C230.139 133.938 236.054 133.938 240.28 145.738L257.181 194.709C261.995 206.979 272.773 215.558 285.35 217.13L330.702 218.605C342.533 218.605 345.068 225.98 336.054 233.945L301.688 263.446C292.353 272.771 288.486 286.608 291.547 299.732L302.815 339.558C306.195 351.654 300.561 356.079 290.421 349.294L253.519 324.513C242.379 317.706 228.603 317.706 217.463 324.513L181.125 352.539Z" fill="white"/>
</svg>
