<svg width="2000" height="1417" viewBox="0 0 2000 1417" fill="none" xmlns="http://www.w3.org/2000/svg">
<g clip-path="url(#clip0)">
<path d="M2000 0H0V1416.04H2000V0Z" fill="#0021AD"/>
<path d="M0 0H2000V1416.04L0 0Z" fill="#1C8A42"/>
<path d="M999.999 963.813C1099.76 963.813 1180.64 849.29 1180.64 708.019C1180.64 566.748 1099.76 452.226 999.999 452.226C900.235 452.226 819.359 566.748 819.359 708.019C819.359 849.29 900.235 963.813 999.999 963.813Z" fill="#FFC639"/>
<path d="M889.68 593.122C902.038 617.129 920.764 657.379 935.824 646.872C947.577 646.929 953.645 648.099 955.237 659.175C982.955 665.855 1029.54 649.298 1058.53 595.833C1058.53 595.833 1060.97 596.29 1060.12 575.965C1060.28 567.116 1068.67 568.886 1068.87 571.769C1070.04 576.165 1069.84 579.448 1071.41 579.562C1074.98 577.878 1079.86 566.545 1083.95 559.352C1085.06 556.183 1084.46 552.843 1084.72 548.847C1086.87 541.339 1092.26 542.967 1093.39 546.906C1094.41 549.446 1094.43 551.388 1095.44 553.928C1100.9 559.095 1110.76 554.27 1111.53 554.27C1112.5 547.962 1115.36 548.561 1115.36 548.561C1119.01 547.419 1117.58 547.876 1119.98 549.646C1117.86 583.645 1124.69 585.158 1124.13 602.597C1124.37 622.065 1119.98 627.603 1119.98 635.025C1121.37 644.102 1141.64 644.416 1134.51 652.095C1128.24 656.834 1134.53 665.711 1125.1 669.165C1097.64 688.89 1092.38 705.818 1092.38 705.818C1092.38 705.818 1085.48 724.259 1084.72 724.259C1080.12 736.562 1074.29 729.854 1071.05 735.848C1069.44 743.384 1067.62 760.083 1070.85 768.763C1072.46 780.695 1070.65 787.203 1068.63 799.134C1066.82 824.026 1059.84 827.795 1059.03 836.529C1055.81 845.863 1059.72 889.709 1056.66 889.709C1036.22 890.28 1020.55 884.172 1012.47 881.888C1020.35 833.788 1017.29 791.542 1017.29 787.203C1015.27 752.805 980.9 761.17 975.638 756.603C971.283 755.289 968.542 750.265 967.01 748.096C962.152 747.354 960.337 745.784 955.479 745.07C953.06 746.783 954.511 748.553 949.109 750.922C935.401 753.263 929.353 733.995 929.353 733.995C930.019 727.515 898.531 735.308 881.415 729.684C874.4 735.222 871.336 751.607 865.591 753.548C865.429 758.629 856.136 749.38 854.261 744.385C853.878 729.855 863.212 723.433 863.212 723.433C870.63 716.039 875.025 714.84 878.593 709.731C880.387 697.085 879.48 687.722 883.29 678.215C886.515 670.965 891.273 674.362 894.498 671.107C897.965 667.853 899.437 646.558 896.232 640.736C896.232 640.736 882.363 623.009 881.597 621.925C877.081 603.599 886.878 591.78 889.68 593.122L889.68 593.122Z" fill="#1C8A42"/>
<path d="M1755.86 276.284C1747.68 230.421 1674.42 131.647 1619.37 68.7916C1606.22 56.1115 1597.66 63.6647 1599.37 81.7427C1606.22 97.9309 1611.36 115.728 1618.22 131.916C1620.13 142.706 1623.74 150.259 1625.66 161.047C1625.66 161.047 1626.22 179.661 1627.37 181.28C1644.51 207.995 1646.8 230.648 1646.8 230.648C1656.7 257.627 1665.47 277.315 1682.81 299.44C1702.24 316.71 1687.95 370.375 1688.51 398.979C1688.51 417.048 1679.38 414.907 1671.38 412.738C1608.32 330.726 1545.83 330.468 1490.78 306.719C1469.25 303.493 1468.86 318.051 1475.92 326.13C1514.4 384.42 1550.59 424.069 1598.22 457.238C1606.22 464.26 1614.23 471.282 1622.23 478.305C1631.36 489.095 1640.51 499.885 1649.65 510.675C1670.79 530.086 1672.53 547.897 1672.53 549.498C1673.09 585.921 1659.36 614.239 1655.37 625.57C1648.15 664.191 1633.66 670.9 1633.66 670.9C1515.91 783.399 1454.19 812.516 1263.3 777.718C1260.44 775.577 1242.16 779.887 1263.3 790.678C1311.88 813.6 1431.22 850.366 1546.68 772.951C1574.4 745.433 1592.95 754.453 1613.02 737.983C1646 709.181 1693.09 673.327 1701.66 669.302C1727.38 649.863 1799.39 628.025 1815.98 608.585C1835.01 606.416 1854.77 602.876 1856.1 579.698C1862.35 573.96 1871.5 578.157 1878.29 559.259C1893.39 555.549 1890.85 547.898 1890.85 547.898C1887.04 532.798 1872.93 526.575 1862.85 515.528C1847.97 508.505 1837.69 506.336 1826.83 513.901C1823.4 516.07 1819.97 518.211 1816.55 520.38C1816.55 520.38 1800.54 517.126 1800.54 515.528C1764.98 512.759 1768.45 345.88 1755.87 276.279L1755.86 276.284Z" fill="#FFC639"/>
<path d="M1839.26 549.452C1838.77 551.399 1837.41 552.874 1835.49 553.55C1833.56 554.227 1831.23 554.051 1829 553.061C1826.78 552.071 1824.84 550.347 1823.61 548.27C1822.39 546.193 1821.98 543.932 1822.47 541.984C1822.96 540.037 1824.32 538.563 1826.25 537.886C1827.2 537.551 1828.26 537.421 1829.37 537.505C1830.49 537.589 1831.63 537.885 1832.73 538.375C1833.83 538.866 1834.87 539.541 1835.8 540.363C1836.72 541.185 1837.51 542.138 1838.12 543.166C1838.73 544.195 1839.14 545.279 1839.34 546.358C1839.53 547.436 1839.51 548.488 1839.26 549.452V549.452Z" fill="#1C8A42"/>
<path d="M376.319 540.757L350.817 506.953L325.009 540.286L327.775 490.994L293.277 483.197L322.227 455.516L305.016 412.477L338.352 427.259L351.388 381.368L364.007 427.494L397.475 413.313L379.874 456.038L408.57 484.243L374.004 491.412L376.321 540.758L376.319 540.757Z" fill="white"/>
<path d="M466.781 950.246L439.277 924.285L412.495 951.654L421.918 907.564L394.754 880.899L428.088 879.637L438.065 835.751L449.254 879.08L482.588 878.64L456.168 906.684L466.782 950.247L466.781 950.246Z" fill="white"/>
</g>
<defs>
<clipPath id="clip0">
<rect width="2000" height="1416.04" rx="186" fill="white"/>
</clipPath>
</defs>
</svg>
