<svg width="2000" height="1417" viewBox="0 0 2000 1417" fill="none" xmlns="http://www.w3.org/2000/svg">
<path d="M1802.82 1398.35H204.794C155.188 1398.35 107.613 1377.71 72.5354 1340.98C37.4581 1304.24 17.752 1254.42 17.752 1202.47V705.968L696.907 11.8135H1802.82C1906.12 11.8135 1989.86 99.5144 1989.86 207.699V1202.47C1989.86 1310.65 1906.12 1398.35 1802.82 1398.35Z" fill="#4658A9"/>
<path d="M1521.13 540.156V725.126C1521.13 885.316 1448.74 940.482 1352.12 983.849C1255.22 940.187 1183.1 885.316 1183.1 725.126V540.156H1521.13ZM1521.13 510.655H1181.41C1165.86 510.655 1153.24 523.863 1153.24 540.156V725.126C1153.24 911.277 1249.86 970.278 1340.57 1010.99C1347.67 1014.19 1355.72 1014.19 1362.82 1010.99C1452.96 970.278 1549.3 911.572 1549.3 725.126V540.156C1549.3 523.863 1536.69 510.655 1521.13 510.655Z" fill="white"/>
<path d="M1295.78 548.718C1285.24 553.263 1273.11 550.701 1265.08 542.228C1261.76 538.732 1260.05 533.91 1260.37 528.994C1260.69 524.079 1263.03 519.549 1266.77 516.563C1273.69 510.182 1283.16 507.758 1292.12 510.072C1301.98 513.022 1328.46 539.573 1321.98 539.573C1313.03 542.023 1304.27 545.178 1295.78 549.013V548.718Z" fill="white" stroke="white" stroke-linecap="round" stroke-linejoin="round"/>
<path d="M1323.95 503.287C1329.91 499.328 1336.89 497.372 1343.95 497.682C1354.93 497.682 1362.82 497.682 1365.64 505.352C1367.54 516.277 1372.21 526.467 1379.16 534.853C1367.71 538.692 1355.4 538.692 1343.95 534.853C1332.96 529.248 1330.43 507.418 1323.95 503.582V503.287Z" fill="white" stroke="white" stroke-linecap="round" stroke-linejoin="round"/>
<path d="M1402.83 504.173C1406.49 501.223 1411 501.223 1422.83 502.403C1434.66 503.583 1439.16 504.173 1441.7 512.729C1444.23 521.284 1441.7 534.559 1447.05 542.229C1436.89 544.834 1426.16 543.138 1417.19 537.509C1407.33 529.839 1408.18 508.008 1402.83 503.288V504.173Z" fill="white" stroke="white" stroke-linecap="round" stroke-linejoin="round"/>
<path d="M1456.91 509.774C1448.74 508.004 1443.39 506.824 1439.73 509.774C1444.23 515.38 1439.73 539.275 1449.59 545.765C1459.44 552.256 1472.12 551.371 1475.78 541.045C1479.44 530.72 1480.29 517.445 1456.91 509.774Z" fill="white" stroke="white"/>
<path d="M1363.67 501.515C1366.49 498.565 1371.84 497.68 1382.54 497.68C1393.25 497.68 1401.41 499.45 1405.08 507.12C1408.74 514.79 1407.89 528.951 1414.09 536.621C1402.85 540.687 1390.54 540.053 1379.72 534.851C1369.87 528.361 1368.74 505.35 1363.39 501.81L1363.67 501.515Z" fill="white" stroke="white"/>
<path d="M1286.76 508.896C1286.76 504.176 1292.96 503.291 1309.3 502.406C1325.64 501.521 1326.48 502.406 1331.83 513.911C1334.65 520.401 1338.03 531.907 1345.36 535.742C1325.36 540.462 1319.16 543.412 1308.17 535.742C1300.33 530.5 1293.84 523.304 1289.3 514.796C1289.3 511.846 1289.3 509.191 1286.48 508.306L1286.76 508.896Z" fill="white" stroke="white"/>
<path d="M1478.03 383.512C1461.38 381.73 1444.57 384.579 1429.3 391.772C1445.07 374.956 1463.66 355.486 1475.5 343.685C1450.44 353.863 1427.77 369.557 1409.02 389.707C1426.07 365.029 1444.91 341.754 1465.35 320.085C1439.22 331.408 1416.6 350.095 1400 374.071C1407.19 352.137 1417.96 331.675 1431.83 313.595C1417.93 320.062 1405.89 330.234 1396.9 343.095C1400.47 329.815 1404.89 316.804 1410.14 304.154C1391.22 321.719 1376.13 343.353 1365.92 367.581L1385.35 379.971V382.627L1386.76 379.971L1388.45 373.776L1390.71 369.646L1396.06 378.201L1394.09 380.856L1397.47 390.887L1396.06 393.247L1397.75 391.182L1401.69 402.687L1403.38 399.737V420.683L1404.79 418.913L1403.38 427.173C1426.11 408.899 1451.25 394.191 1478.03 383.512ZM1388.17 372.596V369.941V372.596Z" fill="#F6D660"/>
<path d="M1306.76 308.876C1318.15 326.173 1327.6 344.782 1334.93 364.338C1324.98 349.535 1312.47 336.825 1298.03 326.871L1315.49 362.568C1301.98 349.282 1285.21 340.192 1267.04 336.312C1283.93 347.828 1298.72 362.414 1310.71 379.383C1295.97 369.118 1279.22 362.463 1261.69 359.912C1279.63 370.76 1296.11 384.054 1310.71 399.444C1296.34 388.672 1279.9 381.322 1262.54 377.908C1284.2 393.092 1304.81 409.85 1324.23 428.059V419.504L1326.48 421.274L1324.23 419.209V413.309L1327.04 408.589L1328.73 412.719L1332.96 399.149L1336.06 404.459L1341.97 393.838C1341.97 397.969 1344.23 401.804 1345.07 406.229L1351.27 396.493L1356.62 388.233C1350.91 355.818 1332.93 327.198 1306.76 308.876Z" fill="#F2D660"/>
<path d="M1400.85 391.185C1400.88 390.596 1400.88 390.005 1400.85 389.415C1400.68 383.527 1398.36 377.931 1394.37 373.78C1393.98 367.929 1391.34 362.496 1387.04 358.734V356.374C1388.73 356.624 1390.43 356.624 1392.11 356.374C1387.61 353.424 1384.79 343.984 1379.44 343.984C1384.5 342.467 1389.87 342.467 1394.93 343.984C1392.25 339.738 1387.92 336.935 1383.1 336.314C1387.22 331.152 1392.06 326.675 1397.47 323.038C1391.08 323.373 1384.87 325.403 1379.44 328.938L1377.75 330.708C1385.64 323.038 1384.51 310.058 1394.09 308.288C1386.43 308.258 1379.14 311.701 1374.09 317.728C1376.9 312.123 1376.9 304.453 1380.28 302.683C1372.79 305.97 1366.48 311.648 1362.25 318.908C1361.84 313.604 1360.3 308.463 1357.75 303.863C1356.06 311.533 1349.58 318.023 1354.09 328.643C1346.88 324.509 1337.91 326.096 1332.4 332.478C1339.56 331.2 1346.81 334.147 1351.27 340.149C1345.8 338.955 1340.34 342.257 1338.59 347.819C1343.51 345.739 1348.78 344.735 1354.09 344.869C1350.58 348.025 1347.79 351.954 1345.92 356.374L1348.73 354.604C1346.7 357.668 1345.44 361.219 1345.07 364.929C1342.94 367.479 1341.4 370.507 1340.56 373.78C1336.34 373.78 1332.4 382.63 1332.4 391.48C1330.57 397.024 1330.57 403.047 1332.4 408.591C1334.09 416.261 1339.72 420.981 1343.38 420.096C1344.9 419.211 1346.02 417.722 1346.48 415.966C1347.59 416.294 1348.76 416.294 1349.86 415.966C1352.24 415.784 1354.42 414.483 1355.78 412.426C1357.27 416.546 1360.88 419.41 1365.07 419.801C1369.45 419.279 1373.17 416.188 1374.65 411.836C1375.85 414.152 1378.06 415.698 1380.56 415.966C1383.94 415.966 1387.04 413.901 1389.02 409.181C1389.02 414.196 1390.71 418.326 1393.24 418.916C1395.78 419.506 1402.25 415.081 1403.1 406.526C1403.88 401.291 1403.09 395.932 1400.85 391.185Z" fill="#F6D660"/>
<path d="M1283.39 422.741C1277.37 422.835 1271.64 420.003 1267.89 415.071C1260.15 405.824 1247.14 403.825 1237.19 410.351C1234.33 411.764 1231.29 412.757 1228.17 413.301C1223.67 413.301 1218.31 418.021 1220 427.461C1223.67 424.511 1224.51 427.461 1227.33 427.461C1230.15 427.461 1227.33 427.461 1227.33 430.411C1230.31 438.572 1237.86 443.888 1246.2 443.687C1252.15 443.118 1258.06 445.146 1262.54 449.292C1265.36 452.242 1262.54 451.062 1265.36 455.782C1268.17 460.502 1269.02 459.617 1265.36 463.452C1261.17 467.095 1258.75 472.501 1258.75 478.203C1258.75 483.904 1261.17 489.31 1265.36 492.953C1288.07 510.708 1319.61 509.1 1340.57 489.118C1366.44 469.729 1401.04 469.026 1427.61 487.348C1430.89 493.559 1433.36 500.208 1434.93 507.114C1436.77 512.075 1441.83 514.849 1446.77 513.604C1452.88 513.735 1458.84 515.678 1463.95 519.209C1468.46 522.159 1474.93 520.979 1472.96 512.719C1469.3 486.168 1454.09 483.218 1452.12 469.942C1461.13 469.942 1467.61 469.942 1470.99 466.992C1474.37 464.042 1477.19 456.667 1480.85 454.602C1484.51 452.537 1483.67 450.767 1480.85 451.652C1475.87 453.437 1470.58 454.041 1465.36 453.422C1423.67 448.702 1307.05 415.366 1284.23 422.151L1283.39 422.741Z" fill="#51C161"/>
<path d="M1295.78 418.912C1303.29 409.568 1315.02 405.174 1326.48 407.407H1329.3C1337 402.632 1346.41 401.975 1354.65 405.637H1358.32C1371.72 402.247 1385.88 405.039 1397.19 413.307L1400.01 415.077C1421.95 413.956 1443.02 424.216 1456.34 442.513C1458.63 445.602 1461.78 447.87 1465.36 449.003C1470.71 449.003 1471.56 452.838 1467.05 455.493C1459.78 460.259 1453.39 466.354 1448.18 473.489C1429.59 490.067 1405.47 498.237 1381.13 496.204C1358.22 498.304 1335.31 492.278 1316.06 479.094C1310.06 474.23 1303.76 469.795 1297.19 465.819C1291.84 464.049 1284.51 456.378 1287.33 448.708C1287.67 439.426 1285.52 430.23 1281.13 422.157C1285.07 419.302 1289.95 418.238 1294.65 419.207H1296.34L1295.78 418.912Z" fill="#51C161"/>
<path d="M1249.02 427.464C1247.33 427.464 1246.2 421.858 1242.82 421.858C1239.44 421.858 1239.16 421.858 1238.32 421.858C1238.33 423.591 1238.93 425.262 1240.01 426.579C1240.01 429.529 1245.36 426.579 1249.02 426.579V427.464Z" fill="#434A54"/>
<path d="M1521.13 540.166V725.136C1521.13 885.326 1448.73 940.492 1352.11 983.858C1255.21 940.197 1183.1 885.326 1183.1 725.136V540.166H1521.13Z" fill="white"/>
<path d="M1352.11 696.52C1364.33 694.049 1375.43 687.41 1383.66 677.64C1390.47 670.098 1399.95 665.824 1409.86 665.824C1419.77 665.824 1429.25 670.098 1436.06 677.64C1441.4 684.729 1449.55 688.865 1458.17 688.865C1466.79 688.865 1474.94 684.729 1480.28 677.64C1491.22 666.804 1506.18 661.616 1521.13 663.479V540.166H1181.41V663.479C1196.36 661.616 1211.32 666.804 1222.26 677.64C1227.6 684.729 1235.75 688.865 1244.37 688.865C1252.99 688.865 1261.14 684.729 1266.48 677.64C1273.49 670.032 1283.15 665.735 1293.24 665.735C1303.33 665.735 1312.99 670.032 1320 677.64C1327.91 687.821 1339.16 694.552 1351.55 696.52H1352.11Z" fill="#EC5565"/>
<path d="M1352.11 791.214C1365.5 788.43 1378.35 783.346 1390.14 776.168C1405.1 768.181 1423.13 770.023 1436.34 780.888C1452.14 789.913 1471.24 789.913 1487.04 780.888C1495.8 772.227 1507.74 768.022 1519.72 769.383C1521.22 754.59 1521.79 739.708 1521.41 724.837V713.331C1508.73 710.381 1502.54 713.331 1488.73 726.607C1474.93 739.882 1460.56 736.047 1439.72 728.377C1418.87 720.707 1401.69 704.776 1383.38 728.377C1375.56 737.772 1364.54 743.594 1352.68 744.602C1340.75 743.821 1329.66 737.957 1321.97 728.377C1301.97 704.776 1283.95 719.822 1265.64 728.377C1247.33 736.932 1229.3 738.702 1215.78 726.607C1202.25 714.511 1196.9 710.381 1183.1 713.331V724.837C1183.08 739.735 1184.02 754.618 1185.92 769.383C1197.54 768.133 1209.1 772.347 1217.47 780.888C1233.27 789.913 1252.37 789.913 1268.17 780.888C1280.85 775.283 1296.34 763.778 1315.21 776.168C1326.94 783.504 1339.81 788.599 1353.24 791.214H1352.11Z" fill="#4658A9"/>
<path d="M1352.11 832.22C1367.73 831.319 1382.91 826.459 1396.34 818.06C1412.01 809.301 1431.1 810.795 1445.35 821.895C1459.44 830.143 1476.61 830.143 1490.7 821.895C1496.06 818.06 1500.56 810.389 1512.4 813.339C1507.61 835.053 1499.63 855.854 1488.73 874.996C1473.19 880.33 1456.26 878.949 1441.69 871.161C1424.83 860.138 1404.1 857.75 1385.35 864.671C1364.71 879.775 1337.26 879.775 1316.62 864.671C1297.88 857.75 1277.14 860.138 1260.28 871.161C1245.72 878.949 1228.78 880.33 1213.24 874.996C1202.35 855.854 1194.36 835.053 1189.58 813.339C1201.41 810.389 1205.92 818.06 1211.27 821.895C1224.98 830.048 1241.78 830.048 1255.49 821.895C1270.08 810.845 1289.38 809.36 1305.35 818.06C1318.78 826.459 1333.96 831.319 1349.58 832.22H1352.11Z" fill="#4658A9"/>
<path d="M1352.11 983.855C1387.14 969.568 1419.83 949.663 1449.01 924.853C1441.69 921.903 1437.18 924.853 1430.99 919.248C1417.44 913.169 1401.93 914.266 1389.3 922.198C1366.3 936.172 1337.92 936.172 1314.93 922.198C1302.29 914.266 1286.78 913.169 1273.24 919.248C1267.04 923.968 1262.25 922.198 1255.21 924.853C1284.27 949.86 1316.99 969.784 1352.11 983.855Z" fill="#4658A9"/>
<path d="M1329.58 588.252C1329.58 590.022 1329.58 594.447 1329.58 596.217C1329.58 597.987 1331.27 601.527 1333.8 603.298H1339.72C1358.03 603.298 1380 595.332 1398.31 595.332C1416.62 595.332 1426.48 601.527 1436.9 601.527C1442.18 601.924 1446.9 598.119 1447.89 592.677C1447.89 588.252 1441.13 585.597 1427.04 585.597C1407.04 585.597 1396.06 590.907 1379.44 590.907C1354.37 590.907 1351.27 581.172 1351.27 576.747C1351.27 572.322 1355.49 566.126 1368.73 566.126C1372.04 566.467 1375.35 565.522 1378.03 563.471C1379.98 559.957 1382.94 557.172 1386.48 555.506C1392.39 551.966 1403.94 555.506 1409.86 551.081C1409.86 554.621 1404.79 559.931 1400.56 561.701C1409.01 559.046 1418.03 559.046 1419.72 566.126C1415.38 564.32 1410.54 564.32 1406.2 566.126L1397.75 568.782C1401.13 568.782 1402.82 574.977 1407.89 574.977C1401.16 578.975 1392.92 578.975 1386.2 574.977C1381.86 573.168 1377.31 571.977 1372.68 571.437C1364.22 571.437 1359.15 573.207 1359.15 576.747C1359.15 580.287 1364.22 583.827 1379.15 583.827C1394.08 583.827 1402.53 579.402 1425.07 579.402C1423.38 576.747 1425.07 574.092 1422.53 571.437C1430.44 570.676 1438.21 573.974 1443.38 580.287C1443.38 574.092 1447.6 568.782 1445.91 563.766C1450.96 564.983 1454.89 569.106 1456.06 574.387C1456.06 571.732 1459.44 571.732 1459.44 569.077C1464.36 571.788 1467.08 577.487 1466.2 583.237C1468.73 578.812 1471.27 580.582 1472.96 575.272C1474.82 581.614 1472.82 588.507 1467.89 592.677C1473.5 588.777 1481.02 589.92 1485.35 595.332C1481.78 595.008 1478.21 595.943 1475.21 597.987C1463.04 604.532 1449.43 607.586 1435.77 606.838C1422.25 606.838 1420.56 603.298 1412.39 603.298C1417.46 603.298 1427.6 614.803 1436.62 614.803C1440.83 615.388 1445.09 615.388 1449.29 614.803C1452.77 614.142 1456.35 614.768 1459.44 616.573C1462.28 619.691 1466.31 621.314 1470.42 620.998C1470.01 623.911 1468.04 626.319 1465.35 627.193C1469.58 629.848 1467.04 631.618 1471.27 635.158C1469.58 635.158 1467.89 636.928 1465.35 635.158C1467.89 637.814 1467.89 641.354 1470.42 643.124C1472.96 644.894 1467.04 643.124 1465.35 643.124C1463.66 643.124 1465.35 651.089 1467.89 652.859C1470.42 654.629 1465.35 660.824 1461.13 657.284C1461.49 658.538 1461.17 659.902 1460.29 660.829C1459.4 661.756 1458.1 662.095 1456.9 661.709C1454.37 661.709 1452.68 658.169 1453.52 657.284C1454.37 656.399 1453.52 657.284 1453.52 655.514C1451.99 657.77 1449.12 658.522 1446.76 657.284C1446.76 657.284 1445.07 655.514 1445.07 654.629C1443.23 655.581 1441.03 655.348 1439.41 654.029C1437.79 652.709 1437.04 650.536 1437.46 648.434C1437.46 645.779 1443.38 644.894 1445.07 645.779C1446.76 646.664 1448.45 647.549 1450.14 645.779C1451.75 644.961 1452.74 643.225 1452.68 641.354C1452.68 638.699 1450.14 630.733 1439.15 631.618C1424.66 631.911 1410.21 629.821 1396.34 625.423L1393.8 623.653C1393.8 627.193 1390.42 628.963 1390.42 632.503C1390.03 637.063 1392.92 641.223 1397.18 642.239C1396.35 643.873 1394.73 644.894 1392.96 644.894C1391.19 644.894 1389.56 643.873 1388.73 642.239C1388.73 644.894 1385.35 646.664 1385.35 650.204L1382.82 645.779C1380.28 651.974 1373.52 655.514 1370.14 653.744C1368.8 655.489 1366.78 656.504 1364.65 656.504C1362.51 656.504 1360.49 655.489 1359.15 653.744C1356.92 655.565 1353.79 655.565 1351.55 653.744C1351.55 656.399 1349.86 655.514 1349.01 659.054C1348.17 662.594 1345.63 661.709 1343.94 660.824C1343.09 660.04 1342.61 658.912 1342.61 657.727C1342.61 656.541 1343.09 655.413 1343.94 654.629C1342.02 656.432 1339.11 656.432 1337.18 654.629C1337.18 652.859 1337.18 650.204 1338.87 649.319H1340.56C1338.87 649.319 1336.34 649.319 1334.65 649.319C1333.42 647.783 1333.42 645.544 1334.65 644.009C1334.65 644.009 1338.03 641.354 1339.72 644.009C1339.72 642.239 1339.72 640.469 1341.41 640.469C1343.78 639.353 1346.58 640.085 1348.17 642.239C1349.86 644.894 1351.55 644.894 1356.62 644.009C1362.56 642.653 1368.02 639.588 1372.39 635.158C1358.03 632.503 1366.48 622.768 1370.7 619.228C1366.86 617.9 1362.71 617.9 1358.87 619.228C1341.41 628.963 1322.82 640.174 1311.27 636.633C1311.44 638.515 1312.01 640.332 1312.96 641.944C1310.42 641.944 1305.35 641.944 1303.66 639.289C1302.29 642.374 1302.29 645.939 1303.66 649.024C1300.82 647.021 1297.68 645.525 1294.37 644.599C1296.06 646.369 1294.37 649.909 1294.37 652.564C1291.83 649.909 1287.6 648.139 1285.91 649.909C1283.83 651.809 1280.97 652.475 1278.31 651.679C1276.69 654.19 1274.31 656.06 1271.55 656.989C1271.55 655.219 1271.55 652.564 1271.55 651.679C1270.3 655.109 1267.89 657.942 1264.79 659.644C1265.2 657.601 1265.2 655.492 1264.79 653.449C1264.79 656.989 1258.03 658.759 1257.18 661.414C1257.55 659.07 1257.55 656.678 1257.18 654.334C1255.31 657.535 1252.25 659.778 1248.73 660.529C1249.53 658.859 1249.53 656.889 1248.73 655.219C1248.73 658.759 1242.82 660.529 1238.59 659.644C1234.37 658.759 1235.21 664.069 1230.98 661.414C1226.76 658.759 1226.76 657.874 1228.45 656.104C1225.07 656.104 1221.69 652.564 1223.38 649.909C1225.07 647.254 1223.38 648.139 1223.38 647.254C1222.2 646.305 1221.5 644.833 1221.5 643.271C1221.5 641.71 1222.2 640.237 1223.38 639.289C1223.38 639.289 1226.76 639.289 1228.45 639.289C1228.45 632.208 1234.37 632.208 1236.9 637.518C1239.31 641.416 1243.45 643.753 1247.89 643.714C1249.58 643.714 1250.42 643.714 1252.11 643.714C1259.62 641.106 1266.66 637.219 1272.96 632.208C1273.32 630.16 1273.32 628.061 1272.96 626.013C1269.7 627.326 1266.8 629.453 1264.51 632.208V629.553H1256.06C1256.06 629.553 1257.75 624.243 1259.44 623.358C1255.54 624.235 1251.5 624.235 1247.6 623.358C1249.29 621.588 1249.29 618.933 1250.14 616.278C1250.98 613.623 1244.22 616.278 1240.84 616.278C1237.46 616.278 1242.53 610.083 1245.07 609.198C1241.05 609.884 1236.92 609.267 1233.24 607.428C1236.62 607.428 1238.31 603.003 1240.84 603.003C1234.08 603.003 1232.39 599.462 1229.01 597.692C1231.55 597.692 1233.24 595.922 1235.77 595.922C1233.24 595.922 1229.01 590.612 1230.7 587.957C1232.39 585.302 1229.01 590.612 1227.32 591.497C1224.51 592.197 1221.57 591.168 1219.72 588.842C1218.74 587.365 1218.45 585.5 1218.95 583.776C1219.44 582.052 1220.66 580.659 1222.25 579.992C1220.69 579.901 1219.33 578.852 1218.78 577.318C1218.23 575.784 1218.6 574.056 1219.72 572.912C1219.72 571.142 1223.94 568.487 1225.63 571.142L1228.17 574.682C1227.7 572.049 1227.7 569.349 1228.17 566.716C1228.17 564.061 1230.7 564.061 1233.24 563.176C1235.77 563.485 1237.63 565.82 1237.46 568.487C1237.7 571.206 1238.27 573.882 1239.15 576.452C1239.15 576.452 1239.15 573.797 1239.15 572.912C1239.15 572.027 1243.38 570.257 1245.91 571.142C1248.45 572.027 1249.29 577.337 1245.91 579.992C1244.3 581.713 1244.3 584.466 1245.91 586.187C1251.25 595.512 1260.01 602.128 1270.14 604.478C1270.28 600.779 1271.8 597.284 1274.37 594.742C1274.53 592.58 1275.1 590.473 1276.06 588.547C1276.06 583.237 1279.44 580.582 1282.82 582.352C1286.2 584.122 1281.13 580.582 1281.13 579.697C1281.13 578.812 1276.06 572.617 1277.75 569.077C1279.44 565.536 1284.51 566.421 1286.2 569.077C1286.2 563.766 1291.27 559.341 1291.27 556.686C1291.27 559.341 1293.8 562.881 1292.96 565.536C1292.96 561.996 1299.72 557.571 1303.94 555.801C1302.25 558.456 1307.32 562.881 1306.48 565.536C1309.47 560.832 1314.61 558.138 1320 558.456C1318.65 560.533 1318.06 563.041 1318.31 565.536C1321.49 565.732 1324.59 564.434 1326.76 561.996C1326.72 565.283 1325.51 568.437 1323.38 570.847C1325.6 570.283 1327.92 570.283 1330.14 570.847C1327.6 573.502 1328.45 576.157 1325.91 577.927C1329.29 576.157 1333.52 576.157 1334.37 579.697C1335.21 583.237 1334.37 586.777 1331.83 589.432C1329.29 592.087 1328.45 592.087 1327.6 592.087L1329.58 588.252Z" fill="#F2D660" stroke="#F2D660" stroke-width="0.09" stroke-linecap="round" stroke-linejoin="round"/>
<path d="M1277.75 598.878C1273.17 601.321 1270.02 605.944 1269.29 611.268" stroke="#F2D660" stroke-width="0.09" stroke-linecap="round" stroke-linejoin="round"/>
<path d="M1276.9 604.776C1268.45 610.086 1265.07 614.512 1266.76 623.952" stroke="#F2D660" stroke-width="0.09" stroke-linecap="round" stroke-linejoin="round"/>
<path d="M1281.12 631.317C1286.81 629.726 1291.49 625.483 1293.8 619.812" stroke="#F2D660" stroke-width="0.09" stroke-linecap="round" stroke-linejoin="round"/>
<path d="M1290.98 623.357C1289.29 626.898 1290.98 633.093 1288.45 635.748C1293.02 633.304 1296.18 628.682 1296.9 623.357" stroke="#F2D660" stroke-width="0.09" stroke-linecap="round" stroke-linejoin="round"/>
<path d="M1292.68 633.087C1297.54 629.932 1301.37 625.302 1303.66 619.811C1303.66 622.466 1303.66 626.891 1301.97 629.546C1305.41 626.629 1307.79 622.57 1308.73 618.041C1308.73 618.041 1308.73 620.696 1308.73 621.581C1310.83 619.881 1312.07 617.276 1312.11 614.501" stroke="#F2D660" stroke-width="0.09" stroke-linecap="round" stroke-linejoin="round"/>
<path d="M1312.95 617.166V621.591C1316.03 619.058 1317.63 615.039 1317.18 610.971" stroke="#F2D660" stroke-width="0.09" stroke-linecap="round" stroke-linejoin="round"/>
<path d="M1316.34 616.28C1321.41 612.74 1322.25 607.43 1322.25 599.76" stroke="#F2D660" stroke-width="0.09" stroke-linecap="round" stroke-linejoin="round"/>
<path d="M1321.97 608.311C1325.35 605.656 1326.2 603.886 1326.2 595.921" stroke="#F2D660" stroke-width="0.09" stroke-linecap="round" stroke-linejoin="round"/>
<path d="M1315.49 572.328C1314.57 572.236 1313.66 572.579 1313.01 573.264C1312.35 573.949 1312.03 574.904 1312.11 575.868C1312.11 577.638 1309.58 580.293 1309.58 582.949C1309.58 585.604 1307.04 587.374 1304.51 586.489C1301.97 585.604 1301.97 584.719 1301.97 582.064C1301.97 579.408 1306.2 577.638 1306.2 574.098C1306.2 570.558 1307.89 569.673 1308.73 569.673C1306.81 571.121 1304.31 571.455 1302.1 570.564C1299.89 569.672 1298.25 567.675 1297.75 565.248" stroke="#F2D660" stroke-width="0.09" stroke-linecap="round" stroke-linejoin="round"/>
<path d="M1323.95 574.979C1322.26 574.979 1320.57 573.209 1318.03 574.979C1315.49 576.749 1314.65 574.979 1313.8 574.979" stroke="#F2D660" stroke-width="0.09" stroke-linecap="round" stroke-linejoin="round"/>
<path d="M1311.27 579.402C1314.18 580.977 1317.65 580.977 1320.56 579.402C1318.93 580.135 1317.04 579.343 1316.34 577.632C1315.64 575.921 1316.39 573.94 1318.03 573.207" stroke="#F2D660" stroke-width="0.09" stroke-linecap="round" stroke-linejoin="round"/>
<path d="M1303.66 570.853C1300.28 570.853 1297.74 573.508 1298.59 576.163C1299.43 578.818 1302.81 578.818 1305.35 576.163" stroke="#F2D660" stroke-width="0.09" stroke-linecap="round" stroke-linejoin="round"/>
<path d="M1297.75 614.504C1298.17 611.432 1300.7 609.162 1303.66 609.194C1306.76 609.101 1309.47 606.974 1310.42 603.883C1312.11 603.883 1312.96 599.458 1313.8 597.688C1314.65 595.918 1316.34 597.688 1317.18 594.148C1318.19 594.619 1319.34 594.594 1320.32 594.079C1321.3 593.565 1322.01 592.615 1322.25 591.493" stroke="#F2D660" stroke-width="0.09" stroke-linecap="round" stroke-linejoin="round"/>
<path d="M1287.6 585.594C1287.6 585.594 1285.91 588.249 1284.22 589.134C1285.02 591.637 1284.36 594.399 1282.53 596.214C1283.36 598.187 1283.36 600.436 1282.53 602.409C1282.53 602.409 1282.53 605.949 1282.53 606.834" stroke="#F2D660" stroke-width="0.09" stroke-linecap="round" stroke-linejoin="round"/>
<path d="M1290.99 568.19C1289.29 572.616 1290.99 577.926 1293.52 578.811" stroke="#F2D660" stroke-width="0.09" stroke-linecap="round" stroke-linejoin="round"/>
<path d="M1292.67 582.062C1292.67 586.488 1292.67 592.683 1290.98 595.338C1289.93 597.169 1289.81 599.424 1290.65 601.369C1291.5 603.314 1293.2 604.699 1295.21 605.073C1302.81 606.843 1307.04 605.073 1310.98 592.683" stroke="#F2D660" stroke-width="0.09" stroke-linecap="round" stroke-linejoin="round"/>
<path d="M1323.94 626.902C1323.94 628.369 1322.81 629.557 1321.41 629.557" stroke="#F2D660" stroke-width="0.09" stroke-linecap="round" stroke-linejoin="round"/>
<path d="M1329.58 625.123C1329.27 627.12 1328.38 628.972 1327.04 630.433" stroke="#F2D660" stroke-width="0.09" stroke-linecap="round" stroke-linejoin="round"/>
<path d="M1335.52 623.357C1335.52 625.127 1335.52 627.783 1333.8 628.668" stroke="#F2D660" stroke-width="0.09" stroke-linecap="round" stroke-linejoin="round"/>
<path d="M1284.51 569.073C1284.51 569.073 1286.2 570.843 1287.04 572.613C1287.89 574.383 1281.97 575.268 1283.66 577.923" stroke="#F2D660" stroke-width="0.09" stroke-linecap="round" stroke-linejoin="round"/>
<path d="M1281.97 583.828L1278.59 586.483" stroke="#F2D660" stroke-width="0.09" stroke-linecap="round" stroke-linejoin="round"/>
<path d="M1279.43 591.787H1276.9" stroke="#F2D660" stroke-width="0.09" stroke-linecap="round" stroke-linejoin="round"/>
<path d="M1239.43 575.86C1239.43 575.86 1239.43 575.86 1239.43 574.09" stroke="#F2D660" stroke-width="0.09" stroke-linecap="round" stroke-linejoin="round"/>
<path d="M1231.57 573.207C1231.57 573.207 1231.57 573.207 1229.86 573.207" stroke="#F2D660" stroke-width="0.09" stroke-linecap="round" stroke-linejoin="round"/>
<path d="M1232.39 585.594H1234.11" stroke="#F2D660" stroke-width="0.09" stroke-linecap="round" stroke-linejoin="round"/>
<path d="M1229.01 580.29C1227.63 578.873 1225.85 577.945 1223.94 577.635" stroke="#F2D660" stroke-width="0.09" stroke-linecap="round" stroke-linejoin="round"/>
<path d="M1275.21 612.735C1270.17 616.506 1266.82 622.255 1265.91 628.666" stroke="#F2D660" stroke-width="0.09" stroke-linecap="round" stroke-linejoin="round"/>
<path d="M1281.13 617.164C1279.58 620.393 1277.25 623.139 1274.37 625.129" stroke="#F2D660" stroke-width="0.09" stroke-linecap="round" stroke-linejoin="round"/>
<path d="M1248.45 643.42C1242.82 645.265 1236.69 644.285 1231.83 640.765L1229.3 638.995" stroke="#F2D660" stroke-width="0.09" stroke-linecap="round" stroke-linejoin="round"/>
<path d="M1273.52 631.322C1273.52 634.862 1271.83 639.287 1270.14 640.172C1277.07 637.478 1282.18 631.233 1283.66 623.651" stroke="#F2D660" stroke-width="0.09" stroke-linecap="round" stroke-linejoin="round"/>
<path d="M1225.07 649.028C1227.61 649.028 1230.14 649.028 1231.83 649.028" stroke="#F2D660" stroke-width="0.09" stroke-linecap="round" stroke-linejoin="round"/>
<path d="M1370.7 619.524C1372.47 620.228 1374.17 621.118 1375.77 622.179C1377.45 619.726 1379.81 617.873 1382.53 616.869" stroke="#F2D660" stroke-width="0.09" stroke-linecap="round" stroke-linejoin="round"/>
<path d="M1311.27 637.227C1310.39 632.838 1313.01 628.517 1317.18 627.491" stroke="#F2D660" stroke-width="0.09" stroke-linecap="round" stroke-linejoin="round"/>
<path d="M1278.59 652.266C1278.59 650.496 1278.59 647.841 1280.31 646.071" stroke="#F2D660" stroke-width="0.09" stroke-linecap="round" stroke-linejoin="round"/>
<path d="M1241.69 654.927C1241.69 656.697 1239.15 658.467 1239.15 660.237" stroke="#F2D660" stroke-width="0.09" stroke-linecap="round" stroke-linejoin="round"/>
<path d="M1229.01 656.69C1231.05 655.722 1232.8 654.193 1234.08 652.265" stroke="#F2D660" stroke-width="0.09" stroke-linecap="round" stroke-linejoin="round"/>
<path d="M1343.1 644.306C1341.41 644.306 1340.56 644.306 1339.72 644.306" stroke="#F2D660" stroke-width="0.09" stroke-linecap="round" stroke-linejoin="round"/>
<path d="M1342.28 649.028C1341.72 649.213 1341.12 649.213 1340.56 649.028" stroke="#F2D660" stroke-width="0.09" stroke-linecap="round" stroke-linejoin="round"/>
<path d="M1346.48 653.147C1346.48 653.147 1344.79 654.918 1343.95 654.918" stroke="#F2D660" stroke-width="0.09" stroke-linecap="round" stroke-linejoin="round"/>
<path d="M1370.7 654.929C1372.39 654.929 1373.24 652.274 1374.08 648.733" stroke="#F2D660" stroke-width="0.09" stroke-linecap="round" stroke-linejoin="round"/>
<path d="M1359.72 654.044C1362.35 652.88 1364.67 651.056 1366.48 648.733" stroke="#F2D660" stroke-width="0.09" stroke-linecap="round" stroke-linejoin="round"/>
<path d="M1383.1 646.954C1382.69 645.209 1382.69 643.388 1383.1 641.644" stroke="#F2D660" stroke-width="0.09" stroke-linecap="round" stroke-linejoin="round"/>
<path d="M1445.07 654.922C1444.13 654.2 1443.57 653.049 1443.57 651.824C1443.57 650.599 1444.13 649.448 1445.07 648.726L1449.3 646.071" stroke="#F2D660" stroke-width="0.09" stroke-linecap="round" stroke-linejoin="round"/>
<path d="M1394.08 624.24C1380.56 618.044 1381.41 610.079 1370.7 610.964" stroke="#F2D660" stroke-width="0.09" stroke-linecap="round" stroke-linejoin="round"/>
<path d="M1453.52 651.382C1453.52 651.382 1453.52 654.922 1453.52 655.807" stroke="#F2D660" stroke-width="0.09" stroke-linecap="round" stroke-linejoin="round"/>
<path d="M1461.13 651.382C1460.72 653.425 1460.72 655.534 1461.13 657.577" stroke="#F2D660" stroke-width="0.09" stroke-linecap="round" stroke-linejoin="round"/>
<path d="M1396.62 569.073H1389.86" stroke="#F2D660" stroke-width="0.09" stroke-linecap="round" stroke-linejoin="round"/>
<path d="M1326.19 598.878C1326.19 600.648 1328.73 604.188 1335.49 604.188C1334.94 604.369 1334.35 604.369 1333.8 604.188" stroke="#F2D660" stroke-width="0.09" stroke-linecap="round" stroke-linejoin="round"/>
<path d="M1329.58 588.25C1327.89 586.48 1329.58 582.94 1332.96 581.17C1331 581.547 1329 581.547 1327.04 581.17C1325.35 586.48 1320.28 589.135 1316.9 585.595C1316.9 589.135 1311.83 593.56 1308.45 592.675C1305.65 591.694 1304.14 588.527 1305.07 585.595C1303.73 587.34 1301.71 588.355 1299.58 588.355C1297.44 588.355 1295.42 587.34 1294.08 585.595C1293.58 581.67 1294.17 577.676 1295.77 574.09" stroke="#F2D660" stroke-width="0.09" stroke-linecap="round" stroke-linejoin="round"/>
<path d="M1383.1 621.592C1380.56 623.362 1378.03 621.592 1375.49 624.247C1372.96 626.902 1375.49 626.902 1378.03 626.902C1380.56 626.902 1378.03 630.442 1381.41 630.442C1379.72 633.097 1384.79 633.982 1383.94 637.522C1386.13 635.184 1386.8 631.712 1385.63 628.672C1385.63 626.017 1380.56 624.247 1383.1 621.592Z" fill="#F2D660"/>
<path d="M1224.22 572.32C1225.3 571.697 1225.97 570.511 1225.97 569.223C1225.97 567.935 1225.3 566.749 1224.22 566.125C1220.28 565.127 1216.18 566.918 1214.08 570.55C1216.62 570.55 1219.15 570.55 1220 570.55C1220.84 570.55 1222.53 574.09 1225.07 570.55L1224.22 572.32Z" fill="#F2D660"/>
<path d="M1228.17 556.686C1234.08 556.686 1235.77 556.686 1236.62 560.226C1236.98 561.166 1236.89 562.227 1236.4 563.095C1235.9 563.963 1235.04 564.538 1234.08 564.651C1231.55 564.651 1229.01 562.881 1229.86 561.996C1230.44 561.086 1230.59 559.945 1230.26 558.907C1229.93 557.868 1229.15 557.048 1228.17 556.686Z" fill="#F2D660"/>
<path d="M1245.07 570.842C1249.29 570.842 1250.98 569.072 1248.45 565.532C1245.91 561.992 1245.07 561.107 1240.84 561.992C1245.07 564.647 1240.84 569.072 1245.07 570.842Z" fill="#F2D660"/>
<path d="M1214.08 585.594C1215.61 588.881 1219.27 590.414 1222.53 589.134C1223.61 588.881 1224.51 588.137 1225 587.108C1225.5 586.08 1225.52 584.874 1225.07 583.824C1223.38 581.169 1220.84 580.284 1220 583.824C1219.64 585.07 1218.7 586.038 1217.5 586.396C1216.31 586.754 1215.02 586.452 1214.08 585.594Z" fill="#F2D660"/>
<path d="M1226.5 638.988C1224.81 635.448 1219.74 635.448 1215.51 638.988C1217.64 638.115 1220.06 638.84 1221.43 640.758C1222.11 642.014 1223.44 642.715 1224.81 642.528C1224.81 642.528 1227.34 640.758 1226.5 638.988Z" fill="#F2D660"/>
<path d="M1233.24 633.975C1233.24 629.55 1227.32 628.665 1223.94 630.435C1225.63 630.435 1228.17 632.205 1228.17 633.975C1228.8 635.392 1230.07 636.387 1231.55 636.63C1233.24 635.45 1234.08 634.86 1233.24 633.975Z" fill="#F2D660"/>
<path d="M1225.07 649.028C1220 649.028 1217.47 654.338 1217.47 658.764C1217.8 657.468 1218.61 656.365 1219.72 655.699C1220.83 655.034 1222.15 654.863 1223.38 655.224C1225.92 655.224 1226.76 655.224 1226.76 652.568C1226.76 649.913 1226.76 649.913 1225.07 649.028Z" fill="#F2D660"/>
<path d="M1225.63 664.66C1227.32 664.66 1229.02 664.66 1229.86 661.12C1230.71 657.58 1233.24 659.35 1234.09 661.12C1234.93 662.89 1235.78 665.545 1234.09 667.315C1232.4 669.085 1228.17 669.085 1226.48 665.545L1225.63 664.66Z" fill="#F2D660"/>
<path d="M1342.25 638.111C1339.4 636.308 1335.82 636.308 1332.96 638.111C1333.97 637.739 1335.08 637.812 1336.03 638.312C1336.99 638.813 1337.71 639.698 1338.03 640.766C1338.03 641.743 1338.79 642.536 1339.72 642.536C1340.65 642.536 1341.41 641.743 1341.41 640.766C1341.41 640.766 1343.1 638.996 1342.25 638.111Z" fill="#F2D660"/>
<path d="M1334.64 644.298C1331.26 642.527 1327.04 646.953 1326.19 650.493C1327.91 649.078 1329.95 648.162 1332.11 647.838C1333.8 647.838 1335.49 647.838 1335.49 646.068C1335.49 644.298 1336.33 644.298 1334.64 644.298Z" fill="#F2D660"/>
<path d="M1338.87 651.389C1335.59 652.056 1333.16 654.971 1332.96 658.469C1333.27 657.624 1333.9 656.952 1334.7 656.616C1335.5 656.28 1336.4 656.31 1337.18 656.699C1338.87 656.699 1341.41 656.699 1341.41 654.044C1341.5 653.314 1341.27 652.579 1340.77 652.058C1340.27 651.538 1339.57 651.29 1338.87 651.389Z" fill="#F2D660"/>
<path d="M1346.48 658.458C1345.59 657.921 1344.5 657.93 1343.62 658.482C1342.74 659.034 1342.22 660.041 1342.25 661.113C1342.25 663.768 1342.25 666.423 1342.25 667.308C1343.73 665.826 1345.45 664.628 1347.32 663.768C1348.68 662.284 1348.68 659.942 1347.32 658.458H1346.48Z" fill="#F2D660"/>
<path d="M1440.84 650.496C1440.26 649.631 1439.32 649.116 1438.31 649.116C1437.3 649.116 1436.35 649.631 1435.77 650.496C1434.47 653.597 1434.47 657.129 1435.77 660.231C1435.77 658.461 1437.46 655.806 1439.15 655.806C1440.34 655.427 1441.27 654.442 1441.61 653.19C1441.95 651.938 1441.66 650.59 1440.84 649.61V650.496Z" fill="#F2D660"/>
<path d="M1445.92 654.045C1442.54 655.815 1442.54 662.01 1445.92 665.55C1445.84 663.444 1446.8 661.443 1448.45 660.24C1450.99 660.24 1451.83 656.7 1450.99 654.93C1449.68 654.139 1448.07 654.139 1446.76 654.93L1445.92 654.045Z" fill="#F2D660"/>
<path d="M1456.05 657.575C1454.36 657.575 1452.67 657.575 1452.67 660.23C1452.11 663.363 1453.46 666.534 1456.05 668.195C1456.09 666.555 1456.69 664.983 1457.74 663.77C1460.28 662 1459.43 658.46 1456.05 657.575Z" fill="#F2D660"/>
<path d="M1464.79 656.692C1463.71 656.931 1462.84 657.749 1462.49 658.841C1462.15 659.933 1462.38 661.136 1463.1 662.003C1463.1 663.773 1465.63 664.658 1469.02 663.773C1472.4 662.888 1466.48 661.118 1467.32 660.232C1468.17 659.347 1464.79 656.692 1464.79 656.692Z" fill="#F2D660"/>
<path d="M1233.8 818.646L1318.31 753.744H1214.08L1298.59 818.646L1266.76 714.508L1233.8 818.646Z" fill="#51C161" stroke="#51C161" stroke-width="0.41" stroke-linecap="round" stroke-linejoin="round"/>
<path d="M1403.95 818.646L1488.45 753.744H1384.23L1468.74 818.646L1436.9 714.508L1403.95 818.646Z" fill="#51C161" stroke="#51C161" stroke-width="0.41" stroke-linecap="round" stroke-linejoin="round"/>
<path d="M1318.87 922.198L1403.38 857.296H1299.16L1383.66 922.198L1351.83 818.06L1318.87 922.198Z" fill="#51C161" stroke="#51C161" stroke-width="0.41" stroke-linecap="round" stroke-linejoin="round"/>
<path d="M1571.55 914.524C1568.4 912.728 1564.68 912.409 1561.3 913.646C1557.92 914.882 1555.2 917.559 1553.8 921.014C1517.81 1004.5 1438.45 1058.16 1350.99 1058.16C1263.52 1058.16 1184.16 1004.5 1148.17 921.014C1146.78 917.559 1144.05 914.882 1140.67 913.646C1137.29 912.409 1133.57 912.728 1130.42 914.524L1110.7 926.029C1104.83 929.3 1102.37 936.772 1105.07 943.14C1149.32 1043.53 1245.27 1107.81 1350.84 1107.81C1456.42 1107.81 1552.37 1043.53 1596.62 943.14C1599.32 936.772 1596.86 929.3 1590.99 926.029L1571.55 914.524Z" fill="#F6D660"/>
<path d="M721.132 12.1221H202.822C181.771 12.3859 160.914 16.3756 141.132 23.9224L38.8787 117.735C24.9919 145.603 17.7437 176.573 17.752 208.008L17.752 719.257H721.977L721.132 12.1221Z" fill="#4658A9"/>
<path d="M314.368 525.411V718.936H424.227V520.985L613.241 718.936H720.847V630.434L523.664 423.928H720.847V305.924H523.664L720.847 99.4185V10.916H612.96L424.227 208.572V10.916H314.368V206.507L140.847 24.7814C96.8107 41.493 60.336 74.8515 38.5936 118.299L219.157 307.399H17.4668V425.403H219.157L17.4668 636.629V720.116H130.143L314.368 525.411Z" fill="white"/>
<path d="M342.537 444.604V719.257H396.058V440.474L662.256 719.257H720.847V682.971L445.354 394.453H720.847V336.926H445.354L720.847 48.4081V12.1221H661.974L395.777 290.905V12.1221H342.256V286.48L107.608 40.4429C88.6328 52.4988 71.8476 67.9801 58.0302 86.1692L297.185 336.631H17.4668V394.158H297.185L17.4668 687.101V719.257H80.2837L342.537 444.604Z" fill="#EC5463"/>
</svg>
