<svg width="2000" height="1417" viewBox="0 0 2000 1417" fill="none" xmlns="http://www.w3.org/2000/svg">
<path d="M1814.08 7.95898H200.842C101.898 7.95898 21.6875 91.9617 21.6875 195.584V1206.58C21.6875 1256.34 40.5627 1304.06 74.1608 1339.25C107.759 1374.44 153.328 1394.2 200.842 1394.2H1814.08C1861.6 1394.2 1907.17 1374.44 1940.76 1339.25C1974.36 1304.06 1993.24 1256.34 1993.24 1206.58V195.584C1993.24 91.9617 1913.03 7.95898 1814.08 7.95898Z" fill="white"/>
<path d="M535.208 573.787C555.565 540.127 592.68 521.842 630.419 526.881C647.019 532.716 663.954 537.445 681.124 541.041C707.852 543.033 732.889 527.207 743.659 501.51C756.053 468.764 742.25 428.348 759.152 398.257C763.015 389.991 770.689 384.41 779.433 383.507C785.168 384.057 790.684 386.084 795.49 389.407C871.076 429.27 956.429 444.185 1040.28 432.183C1123.57 420.104 1205.19 397.622 1283.38 365.216C1367.48 337.5 1446.94 296.193 1518.87 242.788C1532.67 231.577 1555.21 220.662 1564.5 236.297C1567.53 242.501 1568.14 249.695 1566.19 256.358C1553.88 292.78 1527.95 322.388 1494.36 338.37C1455.91 362.102 1415.34 381.862 1373.24 397.372C1347.09 404.076 1322.85 417.225 1302.53 435.723C1293.15 449.832 1282.18 462.708 1269.86 474.074C1252.67 485.579 1228.45 484.399 1215.21 500.33C1204.41 519.539 1204.41 543.368 1215.21 562.577C1225.8 581.636 1229.21 604.15 1224.79 625.708C1213.52 655.209 1174.93 659.634 1143.94 658.454C1112.95 657.274 1074.08 662.585 1064.5 693.56C1062.49 705.372 1061.08 717.288 1060.28 729.256C1053.24 764.067 1013.8 780.293 979.715 780.588C945.937 776.396 911.804 776.396 878.025 780.588C849.263 788.271 825.228 808.905 812.391 836.934C804.504 854.635 797.462 878.236 778.87 880.301C754.926 883.251 745.912 849.03 729.856 830.149C713.805 814.008 692.076 805.568 669.856 806.844C647.902 808.159 625.894 808.159 603.941 806.844C561.927 798.579 525.201 772.115 502.814 733.976C479.897 695.696 462.347 654.168 450.701 610.663C446.29 600.237 446.29 588.344 450.701 577.917C450.701 577.917 464.504 572.312 481.124 590.307C497.743 608.303 523.659 591.783 535.208 573.787Z" fill="#FFAD54"/>
<path d="M1328.73 877.354C1329.17 871.364 1329.17 865.348 1328.73 859.359C1328.36 855.261 1325.71 851.784 1321.97 850.508C1319.92 850.161 1317.82 850.161 1315.77 850.508C1308.89 851.023 1302.31 853.695 1296.9 858.179C1291.37 862.331 1286.18 866.969 1281.41 872.044C1275.73 877.922 1270.37 884.127 1265.35 890.63L1263.94 892.695L1262.25 895.94V892.99V882.664V879.124C1262.44 875.668 1260.95 872.345 1258.31 870.274C1255.71 868.268 1252.35 867.717 1249.29 868.799C1234.93 873.593 1224.92 887.245 1224.22 903.02C1224.22 911.28 1224.22 920.72 1224.22 928.096L1221.69 926.325C1218.69 924.804 1215.44 923.902 1212.11 923.67H1211.26C1200.21 924.778 1190.05 930.524 1183.1 939.601C1172.89 952.149 1164.97 966.547 1159.72 982.082C1157.66 981.735 1155.57 981.735 1153.52 982.082C1145.62 982.321 1138.44 986.924 1134.65 994.177C1131.09 993.822 1127.5 993.822 1123.94 994.177H1121.41C1096.23 995.35 1074.11 1012.03 1065.07 1036.66C1064.3 1033.44 1062.1 1030.81 1059.15 1029.58C1056.82 1028.61 1054.34 1028.11 1051.83 1028.1C1044.09 1028.38 1037.05 1032.85 1033.24 1039.9L1030.14 1038.43C1027.33 1038.06 1024.49 1038.06 1021.69 1038.43C1009.86 1038.43 979.434 1044.33 952.11 1097.43C952.17 1100.09 950.52 1102.47 948.083 1103.23C945.646 1103.98 943.026 1102.94 941.687 1100.68L921.687 1109.82L901.124 1100.68C898.22 1099.05 894.732 1099.05 891.828 1100.68C892.086 1099.31 892.086 1097.91 891.828 1096.55C863.659 1042.26 833.8 1037.54 821.969 1037.54C817.952 1037.19 813.926 1038.11 810.42 1040.2C806.459 1033.01 799.187 1028.53 791.265 1028.4C788.945 1028.46 786.656 1028.96 784.504 1029.87C781.561 1031.1 779.36 1033.74 778.589 1036.95C769.542 1012.32 747.424 995.645 722.251 994.472H719.716C716.917 993.993 714.063 993.993 711.265 994.472H708.448C704.582 986.968 697.152 982.232 689.011 982.082C689.011 982.082 685.068 982.082 683.378 982.082C678.135 966.541 670.21 952.142 659.997 939.601C653.047 930.524 642.887 924.778 631.828 923.67H628.73C625.106 923.941 621.567 924.943 618.307 926.621L615.772 928.686C615.772 921.9 615.772 912.755 615.772 903.61C615.138 888.407 605.787 875.117 592.11 869.979C588.8 868.274 584.858 868.646 581.893 870.944C578.928 873.242 577.436 877.081 578.025 880.894C578.025 880.894 578.025 887.089 579.716 893.875V897.12L577.18 892.4C571.907 885.576 566.264 879.075 560.279 872.929C555.506 867.848 550.322 863.209 544.786 859.064C539.295 854.525 532.613 851.849 525.631 851.393C523.671 851.073 521.676 851.073 519.716 851.393C515.936 852.777 513.287 856.36 512.955 860.539C512.518 866.528 512.518 872.544 512.955 878.534C513.076 890.508 516.935 902.112 523.941 911.575C528.956 917.306 534.633 922.361 540.842 926.621H528.448C525.296 926.214 522.151 927.422 519.997 929.866C518.035 932.207 517.394 935.456 518.307 938.421C519.124 944.203 520.638 949.854 522.814 955.236C526.814 966.814 536.147 975.478 547.603 978.247C555.418 979.691 563.33 980.48 571.265 980.607C571.164 981.39 571.164 982.184 571.265 982.967C570.777 987.689 571.456 992.464 573.237 996.832C573.975 998.619 574.921 1000.3 576.054 1001.85C572.968 1003.19 570.742 1006.08 570.138 1009.52C569.978 1011.38 569.978 1013.26 570.138 1015.12C570.653 1018.7 571.902 1022.13 573.8 1025.15C580.778 1034.61 590.781 1041.1 601.969 1043.44C618.256 1047.18 635.055 1047.78 651.547 1045.21C651.27 1048.06 651.27 1050.92 651.547 1053.77C652.246 1057.45 653.793 1060.89 656.054 1063.8C657.087 1065.18 658.324 1066.37 659.716 1067.34C659.16 1070.69 660.214 1074.11 662.533 1076.48C679.776 1092.39 702.098 1100.92 725.068 1100.38H726.476C733.716 1100.56 740.911 1099.15 747.603 1096.25C747.125 1100.07 747.125 1103.94 747.603 1107.76C748.464 1111.9 750.304 1115.76 752.955 1118.97C756.643 1123.17 761.869 1125.53 767.321 1125.46C771.666 1125.52 775.845 1123.71 778.871 1120.44C779.607 1122.93 781.217 1125.04 783.378 1126.34C798.056 1135.45 814.769 1140.33 831.828 1140.5C848.094 1140.57 864.068 1135.98 878.025 1127.23C879.439 1126.26 880.601 1124.94 881.406 1123.39C882.254 1124.49 883.309 1125.39 884.504 1126.05L867.04 1139.32C864.635 1141.21 863.183 1144.14 863.096 1147.29C863.028 1150.49 864.381 1153.54 866.758 1155.55L875.49 1163.51L877.18 1164.99C876.864 1167.73 877.609 1170.49 879.25 1172.65C880.891 1174.81 883.291 1176.2 885.913 1176.49H891.265C892.658 1176.8 894.097 1176.8 895.49 1176.49L899.152 1173.84L903.378 1169.41L913.8 1156.14L919.997 1147.88L926.195 1156.14L936.899 1169.71L941.124 1174.13L944.786 1176.79C946.181 1177.08 947.617 1177.08 949.011 1176.79H954.364C956.985 1176.49 959.385 1175.11 961.026 1172.95C962.667 1170.78 963.412 1168.02 963.096 1165.28L964.786 1163.81L974.082 1155.25C976.253 1153.29 977.5 1150.44 977.5 1147.43C977.5 1144.43 976.253 1141.58 974.082 1139.62L956.899 1126.34C957.624 1124.68 957.915 1122.85 957.744 1121.03C958.548 1122.58 959.71 1123.9 961.124 1124.87C975.087 1133.6 991.057 1138.19 1007.32 1138.14C1024.19 1137.87 1040.7 1132.99 1055.21 1123.98C1057.31 1122.75 1058.92 1120.76 1059.72 1118.38C1062.65 1121.6 1066.73 1123.41 1070.98 1123.39C1076.37 1123.15 1081.48 1120.84 1085.35 1116.9C1088.01 1113.7 1089.85 1109.84 1090.7 1105.69C1091.18 1101.87 1091.18 1098 1090.7 1094.19C1097.48 1097.12 1104.78 1098.52 1112.11 1098.32C1135.08 1098.85 1157.4 1090.32 1174.65 1074.42C1176.47 1072.01 1177.09 1068.84 1176.34 1065.86C1178.84 1065.16 1181.16 1063.84 1183.1 1062.03C1185.34 1059.11 1186.88 1055.67 1187.6 1052C1187.87 1049.15 1187.87 1046.29 1187.6 1043.44C1204.09 1046.01 1220.89 1045.41 1237.18 1041.67C1248.37 1039.33 1258.37 1032.84 1265.35 1023.38C1267.25 1020.36 1268.5 1016.93 1269.01 1013.35C1269.01 1013.35 1269.01 1009.81 1269.01 1009.22C1268.93 1005.15 1266.63 1001.48 1263.1 999.783C1264.21 998.331 1265.15 996.747 1265.91 995.062C1267.56 991.07 1268.24 986.711 1267.88 982.377C1268.08 981.206 1268.08 980.008 1267.88 978.837C1275.91 978.71 1283.92 977.92 1291.83 976.477C1303.28 973.708 1312.62 965.044 1316.62 953.466C1319.63 946.633 1321.07 939.158 1320.84 931.636C1319.48 927.328 1315.6 924.456 1311.26 924.555H1298.87C1305.07 920.279 1310.74 915.226 1315.77 909.51C1323.28 900.531 1327.83 889.254 1328.73 877.354Z" fill="#52C162"/>
</svg>
