<svg width="2000" height="1417" viewBox="0 0 2000 1417" fill="none" xmlns="http://www.w3.org/2000/svg">
<path d="M1800.57 16.2268H187.329C88.3842 16.2268 8.17383 100.229 8.17383 203.852V724.247H1980V203.852C1980 154.04 1961.09 106.272 1927.43 71.0766C1893.77 35.8815 1848.13 16.1485 1800.57 16.2268Z" fill="white"/>
<path d="M7.88867 1214.85C7.88867 1318.47 88.0991 1402.47 187.044 1402.47H1800.56C1899.51 1402.47 1979.72 1318.47 1979.72 1214.85V724.247H7.88867V1214.85Z" fill="#ED5565"/>
<path d="M61.6954 70.2163C27.362 105.492 8.06595 153.779 8.17428 204.15V1215.14C8.20665 1266.04 28.0417 1314.72 63.1039 1349.96L712.4 724.25L61.6954 70.2163Z" fill="#4758A9"/>
</svg>
