<svg width="2000" height="1417" viewBox="0 0 2000 1417" fill="none" xmlns="http://www.w3.org/2000/svg">
<path d="M1807.34 16.2266H194.096C95.1518 16.2266 14.9414 100.229 14.9414 203.852V724.246H1986.77V203.852C1986.77 154.039 1967.86 106.271 1934.2 71.0764C1900.54 35.8813 1854.9 16.1483 1807.34 16.2266Z" fill="#8CBAE2"/>
<path d="M14.6528 1214.85C14.6528 1318.47 94.8632 1402.47 193.808 1402.47H1807.05C1905.99 1402.47 1986.2 1318.47 1986.2 1214.85V724.246H14.3711L14.6528 1214.85Z" fill="#52C162"/>
<path d="M68.463 70.2163C34.1296 105.492 14.8335 153.779 14.9419 204.15V1215.14C14.9742 1266.04 34.8093 1314.72 69.8714 1349.96L719.167 724.25L68.463 70.2163Z" fill="white"/>
<path d="M218.88 837.826C207.331 846.381 200.57 841.661 203.95 826.911L216.626 772.629C219.461 756.439 214.388 739.837 203.105 728.378L165.077 694.157C154.373 684.421 157.19 676.161 171.274 675.571L224.514 674.096C239.733 672.942 252.82 662.373 257.753 647.25L274.373 588.249C278.316 573.793 285.64 573.498 290.429 588.249L310.429 647.25C316.307 662.115 329.746 672.185 345.077 673.211H399.162C413.246 673.211 416.345 681.471 405.64 691.502L364.514 729.263C353.266 740.721 348.564 757.508 352.119 773.514L365.359 821.305C369.302 835.761 362.542 841.071 350.429 833.106L306.485 803.605C293.183 795.418 276.69 795.418 263.387 803.605L218.88 837.826Z" fill="#ED5565"/>
</svg>
