<svg width="2000" height="1417" viewBox="0 0 2000 1417" fill="none" xmlns="http://www.w3.org/2000/svg">
<path d="M1794.93 16.2264H181.409C82.4643 16.2264 2.25391 100.229 2.25391 203.852V1215.14C2.25391 1318.76 82.4643 1402.77 181.409 1402.77H1794.93C1893.87 1402.77 1974.08 1318.76 1974.08 1215.14V203.852C1974.08 100.229 1893.87 16.2264 1794.93 16.2264Z" fill="#039188"/>
<path d="M1977.75 771.146H2.25391V894.459H1977.75V771.146Z" fill="white"/>
<path d="M1977.75 647.837H2.25391V771.15H1977.75V647.837Z" fill="#434A54"/>
<path d="M1977.75 524.822H2.25391V648.135H1977.75V524.822Z" fill="#F6BB42"/>
<path d="M1171.83 16.2264H1054.08V1402.77H1171.83V16.2264Z" fill="white"/>
<path d="M1054.08 16.2264H936.336V1402.77H1054.08V16.2264Z" fill="#434A54"/>
<path d="M936.622 16.2264H818.875V1402.77H936.622V16.2264Z" fill="#F6BB42"/>
<path d="M990.143 1090.64C1191.14 1090.64 1354.09 919.994 1354.09 709.49C1354.09 498.986 1191.14 328.339 990.143 328.339C789.142 328.339 626.199 498.986 626.199 709.49C626.199 919.994 789.142 1090.64 990.143 1090.64Z" fill="#ED5565"/>
<path d="M1261.97 605.069H1283.95C1285.42 605.216 1286.67 606.283 1287.1 607.77C1287.53 609.257 1287.07 610.869 1285.92 611.854L1269.02 624.834C1268.25 626.093 1268.25 627.705 1269.02 628.964L1275.49 651.385C1275.89 652.94 1275.31 654.588 1274.06 655.511C1272.8 656.434 1271.12 656.436 1269.86 655.515L1251.55 642.24C1250.28 641.303 1248.59 641.303 1247.33 642.24L1227.89 657.58C1226.63 658.501 1224.95 658.499 1223.69 657.576C1222.44 656.653 1221.86 655.005 1222.26 653.45L1229.58 629.849C1230.35 628.59 1230.35 626.978 1229.58 625.719L1210.71 611.264C1209.53 610.242 1209.08 608.564 1209.59 607.053C1210.09 605.542 1211.43 604.516 1212.96 604.479H1236.62C1238.17 604.432 1239.53 603.369 1240 601.824L1247.04 580.583C1247.61 579.154 1248.95 578.223 1250.42 578.223C1251.9 578.223 1253.24 579.154 1253.8 580.583L1260.85 601.824C1260.71 603.031 1261.13 604.235 1261.97 605.069Z" fill="#039188"/>
<path d="M718.024 813.931H696.052C694.575 813.783 693.329 812.716 692.897 811.23C692.465 809.743 692.932 808.13 694.081 807.146L710.982 794.165C711.75 792.906 711.75 791.294 710.982 790.035L704.503 767.614C704.109 766.059 704.684 764.411 705.942 763.488C707.201 762.565 708.876 762.564 710.137 763.484L728.447 776.76C729.713 777.697 731.406 777.697 732.672 776.76L752.109 761.419C753.369 760.499 755.044 760.5 756.303 761.423C757.562 762.346 758.137 763.994 757.743 765.549L750.419 789.15C749.65 790.409 749.65 792.021 750.419 793.28L769.292 807.736C770.467 808.757 770.914 810.436 770.412 811.947C769.91 813.458 768.565 814.484 767.038 814.521H743.376C741.827 814.567 740.473 815.631 739.996 817.176L732.954 838.417C732.385 839.846 731.052 840.777 729.574 840.777C728.095 840.777 726.762 839.846 726.193 838.417L719.151 817.176C719.288 815.968 718.87 814.764 718.024 813.931Z" fill="#039188"/>
<path d="M1267.61 792.397L1285.07 806.263C1286.25 807.285 1286.69 808.963 1286.19 810.474C1285.69 811.985 1284.34 813.011 1282.82 813.048H1261.69C1260.14 813.094 1258.79 814.158 1258.31 815.703L1250.99 837.829C1250.42 839.258 1249.08 840.189 1247.61 840.189C1246.13 840.189 1244.79 839.258 1244.23 837.829L1236.9 815.998C1236.42 814.453 1235.07 813.389 1233.52 813.343H1209.3C1207.77 813.306 1206.42 812.28 1205.92 810.769C1205.42 809.258 1205.87 807.58 1207.04 806.558L1226.48 792.102C1227.25 790.843 1227.25 789.231 1226.48 787.972L1219.44 764.667C1219.04 763.111 1219.62 761.463 1220.88 760.541C1222.13 759.618 1223.81 759.616 1225.07 760.537L1244.23 775.287C1245.49 776.224 1247.18 776.224 1248.45 775.287L1266.2 762.307C1267.46 761.386 1269.13 761.388 1270.39 762.311C1271.65 763.233 1272.23 764.881 1271.83 766.437L1265.63 787.972C1265.19 789.752 1266.02 791.608 1267.61 792.397Z" fill="#039188"/>
<path d="M711.269 626.603L693.804 612.737C692.629 611.716 692.182 610.037 692.684 608.526C693.186 607.015 694.53 605.989 696.057 605.952H717.184C718.734 605.906 720.088 604.842 720.565 603.297L727.888 581.172C728.457 579.742 729.79 578.812 731.269 578.812C732.747 578.812 734.08 579.742 734.649 581.172L741.973 603.002C742.449 604.547 743.803 605.611 745.353 605.657H769.579C771.106 605.694 772.45 606.72 772.952 608.231C773.454 609.742 773.008 611.421 771.832 612.442L752.395 626.898C751.627 628.157 751.627 629.769 752.395 631.028L759.438 654.334C759.832 655.889 759.257 657.537 757.998 658.46C756.74 659.382 755.064 659.384 753.804 658.464L734.649 643.713C733.383 642.776 731.69 642.776 730.424 643.713L712.677 656.694C711.417 657.614 709.742 657.612 708.483 656.69C707.224 655.767 706.649 654.119 707.043 652.564L713.241 631.028C713.681 629.249 712.854 627.392 711.269 626.603Z" fill="#039188"/>
<path d="M1169.01 948.156L1175.21 970.282C1175.61 971.837 1175.03 973.485 1173.77 974.408C1172.51 975.331 1170.84 975.332 1169.58 974.412L1152.68 961.431C1151.41 960.495 1149.72 960.495 1148.45 961.431L1130.14 975.002C1128.88 975.922 1127.21 975.921 1125.95 974.998C1124.69 974.075 1124.11 972.427 1124.51 970.872L1130.99 948.451C1131.39 946.901 1130.83 945.253 1129.58 944.321L1109.58 929.866C1108.19 928.953 1107.56 927.191 1108.01 925.547C1108.47 923.903 1109.91 922.776 1111.55 922.785H1135.21C1136.76 922.739 1138.12 921.676 1138.59 920.13L1145.92 896.825C1146.36 895.178 1147.8 894.043 1149.44 894.043C1151.07 894.043 1152.51 895.178 1152.96 896.825L1160.28 920.425C1160.76 921.971 1162.11 923.034 1163.66 923.08H1185.07C1186.55 923.228 1187.79 924.295 1188.23 925.782C1188.66 927.268 1188.19 928.881 1187.04 929.866L1169.86 943.436C1168.56 944.607 1168.2 946.57 1169.01 948.156Z" fill="#039188"/>
<path d="M810.983 472.019L804.786 449.893C804.392 448.338 804.967 446.69 806.225 445.767C807.484 444.844 809.159 444.842 810.42 445.763L827.321 458.743C828.588 459.68 830.28 459.68 831.547 458.743L849.857 445.173C851.117 444.252 852.792 444.254 854.051 445.177C855.31 446.1 855.885 447.748 855.49 449.303L849.011 471.724C848.609 473.273 849.171 474.922 850.42 475.854L870.42 490.309C871.803 491.222 872.442 492.984 871.984 494.628C871.526 496.272 870.083 497.399 868.448 497.389H845.068C843.518 497.436 842.164 498.499 841.688 500.044L834.364 523.35C833.915 524.997 832.478 526.132 830.843 526.132C829.207 526.132 827.77 524.997 827.321 523.35L819.997 499.749C819.521 498.204 818.167 497.141 816.617 497.094H795.209C793.732 496.947 792.485 495.88 792.053 494.393C791.621 492.907 792.089 491.294 793.237 490.309L810.42 476.739C811.629 475.492 811.863 473.539 810.983 472.019Z" fill="#039188"/>
<path d="M1151.55 457.553L1169.58 444.572C1170.88 443.537 1172.68 443.532 1173.99 444.56C1175.3 445.587 1175.8 447.398 1175.22 448.998L1168.74 469.943C1167.97 471.202 1167.97 472.814 1168.74 474.073L1186.76 488.234C1187.91 489.218 1188.38 490.831 1187.95 492.318C1187.52 493.804 1186.27 494.871 1184.79 495.019H1162.54C1160.99 495.065 1159.64 496.129 1159.16 497.674L1152.12 522.16C1151.67 523.806 1150.23 524.941 1148.6 524.941C1146.96 524.941 1145.52 523.806 1145.07 522.16L1137.75 498.559C1137.27 497.014 1135.92 495.95 1134.37 495.904H1110.99C1109.51 495.756 1108.27 494.69 1107.83 493.203C1107.4 491.716 1107.87 490.103 1109.02 489.119L1128.17 474.663C1128.94 473.404 1128.94 471.792 1128.17 470.533L1121.98 448.998C1121.58 447.442 1122.16 445.794 1123.42 444.871C1124.67 443.949 1126.35 443.947 1127.61 444.867L1145.07 457.848C1145.76 459.08 1147.04 459.813 1148.4 459.751C1149.76 459.689 1150.97 458.843 1151.55 457.553Z" fill="#039188"/>
<path d="M828.448 961.432L810.42 974.412C809.117 975.447 807.317 975.452 806.009 974.425C804.701 973.397 804.202 971.586 804.786 969.987L811.265 949.041C812.033 947.782 812.033 946.17 811.265 944.911L793.237 930.751C792.089 929.766 791.621 928.153 792.053 926.667C792.485 925.18 793.732 924.113 795.209 923.966H817.462C819.012 923.919 820.366 922.856 820.842 921.31L827.885 896.825C828.334 895.178 829.771 894.043 831.406 894.043C833.041 894.043 834.478 895.178 834.927 896.825L842.251 920.425C842.727 921.971 844.081 923.034 845.631 923.081H869.012C870.489 923.228 871.735 924.295 872.167 925.782C872.599 927.268 872.132 928.881 870.983 929.866L851.828 944.321C851.06 945.58 851.06 947.192 851.828 948.451L858.026 969.987C858.42 971.542 857.845 973.19 856.586 974.113C855.327 975.036 853.652 975.037 852.392 974.117L834.927 961.137C834.243 959.904 832.962 959.171 831.602 959.233C830.243 959.295 829.028 960.142 828.448 961.432Z" fill="#039188"/>
<path d="M979.152 406.228L985.913 383.512C986.481 382.083 987.815 381.152 989.293 381.152C990.771 381.152 992.105 382.083 992.673 383.512L999.152 404.458C999.629 406.003 1000.98 407.066 1002.53 407.113H1025.07C1026.59 407.15 1027.94 408.176 1028.44 409.687C1028.94 411.198 1028.5 412.876 1027.32 413.898L1009.57 428.058C1008.68 429.385 1008.68 431.157 1009.57 432.484L1017.46 456.674C1018.05 458.274 1017.55 460.085 1016.24 461.112C1014.93 462.14 1013.13 462.134 1011.83 461.099L992.673 446.349C991.407 445.412 989.714 445.412 988.448 446.349L969.293 460.509C967.99 461.544 966.19 461.55 964.882 460.522C963.574 459.495 963.075 457.684 963.659 456.084L970.983 432.484C971.751 431.224 971.751 429.613 970.983 428.353L953.8 414.783C952.625 413.761 952.178 412.083 952.68 410.572C953.182 409.061 954.526 408.035 956.053 407.998H977.462C978.199 407.622 978.794 406.999 979.152 406.228Z" fill="#039188"/>
<path d="M1000.84 1012.76L993.521 1034.3C992.952 1035.73 991.619 1036.66 990.141 1036.66C988.662 1036.66 987.329 1035.73 986.76 1034.3L980.282 1013.35C979.805 1011.81 978.451 1010.75 976.901 1010.7H954.366C952.839 1010.66 951.494 1009.64 950.992 1008.13C950.491 1006.61 950.937 1004.94 952.113 1003.91L969.859 989.754C970.754 988.427 970.754 986.655 969.859 985.329L961.972 961.138C961.388 959.539 961.887 957.727 963.195 956.7C964.503 955.673 966.303 955.678 967.605 956.713L986.76 971.463C988.027 972.4 989.719 972.4 990.986 971.463L1010.14 957.303C1011.44 956.268 1013.24 956.263 1014.55 957.29C1015.86 958.317 1016.36 960.128 1015.77 961.728L1008.45 985.329C1007.68 986.588 1007.68 988.2 1008.45 989.459L1025.63 1003.03C1026.81 1004.05 1027.26 1005.73 1026.75 1007.24C1026.25 1008.75 1024.91 1009.78 1023.38 1009.81H1001.97C1001.21 1010.58 1000.8 1011.66 1000.84 1012.76Z" fill="#039188"/>
<path d="M1096.62 865.256C1098.2 854.35 1097.72 843.224 1095.21 832.51C1096.19 822.598 1095.33 812.58 1092.68 803.01C1096.98 766.802 1090.7 730.077 1074.65 697.692C1066.52 676.839 1056.13 657.04 1043.66 638.69C1043.3 637.965 1043.38 637.085 1043.87 636.446C1044.36 635.808 1045.16 635.531 1045.91 635.74C1057.02 640.757 1069.94 637.788 1078.03 628.365C1078.5 627.973 1078.78 627.375 1078.78 626.742C1078.78 626.109 1078.5 625.511 1078.03 625.12C1073.94 623.978 1070.05 622.187 1066.48 619.809C1065.88 619.436 1065.52 618.764 1065.52 618.039C1065.52 617.315 1065.88 616.643 1066.48 616.269C1069.52 614.587 1072.28 612.395 1074.65 609.779C1075.12 609.388 1075.4 608.79 1075.4 608.157C1075.4 607.524 1075.12 606.926 1074.65 606.534C1070.66 605.368 1066.86 603.578 1063.38 601.224C1062.79 600.851 1062.42 600.179 1062.42 599.454C1062.42 598.729 1062.79 598.057 1063.38 597.684C1065.88 596.045 1068.15 594.061 1070.14 591.784C1070.61 591.392 1070.89 590.794 1070.89 590.161C1070.89 589.528 1070.61 588.93 1070.14 588.539C1064.16 586.607 1058.54 583.614 1053.52 579.688C1053.05 579.297 1052.77 578.699 1052.77 578.066C1052.77 577.433 1053.05 576.835 1053.52 576.443C1055.57 574.996 1057.46 573.314 1059.15 571.428C1059.63 571.037 1059.91 570.439 1059.91 569.806C1059.91 569.173 1059.63 568.575 1059.15 568.183C1054.64 566.831 1050.37 564.74 1046.48 561.988C1045.73 561.674 1045.24 560.915 1045.24 560.07C1045.24 559.226 1045.73 558.466 1046.48 558.153H1052.39C1053.14 557.839 1053.63 557.08 1053.63 556.235C1053.63 555.391 1053.14 554.631 1052.39 554.318C1034.93 543.992 1013.8 518.327 1000.56 511.541C983.728 502.765 963.731 503.885 947.886 514.491C942.342 519.21 938.717 525.959 937.746 533.372C937.565 534.094 937.027 534.658 936.337 534.847H931.83C919.999 537.502 912.675 548.417 921.689 573.198C921.989 573.982 922.714 574.497 923.52 574.497C924.327 574.497 925.052 573.982 925.351 573.198C926.073 571.271 926.92 569.398 927.886 567.593C928.619 566.949 929.688 566.949 930.422 567.593C934.972 569.83 940.237 569.83 944.788 567.593C946.787 566.887 948.683 565.894 950.422 564.643C951.032 564.274 951.783 564.274 952.393 564.643C952.772 565.031 952.985 565.563 952.985 566.118C952.985 566.673 952.772 567.205 952.393 567.593C951.509 569.213 951.025 571.038 950.985 572.903C947.934 575.004 946.045 578.522 945.915 582.343C943.441 584.559 942.003 587.786 941.971 591.194C927.118 622.308 920.874 657.154 923.943 691.791C925.982 727.885 940.152 762.058 963.943 788.259C964.552 790.895 965.401 793.463 966.478 795.929C965.896 800.334 965.896 804.801 966.478 809.205C966.478 822.48 973.52 832.215 979.154 831.92C979.655 838.072 981.485 844.024 984.506 849.326C985.121 850.094 985.121 851.213 984.506 851.981C980.428 854.438 976.879 857.753 974.084 861.716C973.63 861.898 973.129 861.898 972.675 861.716H936.9C931.83 861.716 934.929 854.931 930.985 847.851C924.296 839.806 913.162 837.719 904.224 842.836C895.21 848.146 902.253 857.881 886.76 859.356C886.173 859.418 885.643 859.751 885.316 860.265C884.988 860.78 884.898 861.42 885.07 862.011C888.435 870.401 893.205 878.094 899.154 884.727C923.376 887.523 947.763 888.411 972.112 887.382C972.565 887.2 973.067 887.2 973.52 887.382C979.697 897.061 990.732 902.03 1001.69 900.067H1003.38C1007.04 901.876 1011.27 901.876 1014.93 900.067C1015.46 899.802 1016.08 899.802 1016.62 900.067C1019.98 901.379 1023.68 901.379 1027.04 900.067H1028.45C1031.23 900.736 1034.12 900.736 1036.9 900.067C1037.51 899.699 1038.26 899.699 1038.87 900.067C1042.25 907.148 1045.91 911.278 1049.29 910.688C1052.96 922.193 1056.62 928.978 1060.28 928.388C1063.94 927.798 1066.48 921.603 1068.45 910.393H1069.86C1075.49 910.393 1080 899.477 1082.82 882.662C1082.93 881.741 1083.63 881.016 1084.51 880.892H1087.6C1092.69 874.7 1092.69 865.548 1087.6 859.356C1087.6 855.521 1087.6 851.391 1087.6 847.261C1087.9 846.477 1088.63 845.962 1089.44 845.962C1090.24 845.962 1090.97 846.477 1091.27 847.261L1095.21 856.701C1092.95 857.108 1091.44 859.354 1091.83 861.716C1092.22 864.079 1094.36 865.664 1096.62 865.256Z" fill="#039188"/>
</svg>
