<svg width="2000" height="1417" viewBox="0 0 2000 1417" fill="none" xmlns="http://www.w3.org/2000/svg">
<path d="M1814.36 16.2264H200.842C101.898 16.2264 21.6875 100.229 21.6875 203.852V1215.14C21.6875 1318.76 101.898 1402.77 200.842 1402.77H1814.36C1913.31 1402.77 1993.52 1318.76 1993.52 1215.14V203.852C1993.52 100.229 1913.31 16.2264 1814.36 16.2264Z" fill="#ED5565"/>
<path d="M894.927 16.2264H200.842C101.898 16.2264 21.6875 100.229 21.6875 203.852V606.243H894.927V16.2264Z" fill="#4758A9"/>
<path d="M1120.28 1402.76H1814.08C1913.03 1402.76 1993.24 1318.76 1993.24 1215.14V842.245H1120L1120.28 1402.76Z" fill="#4758A9"/>
<path d="M1120.28 16.2264H894.93V1402.77H1120.28V16.2264Z" fill="white"/>
<path d="M21.6875 842.255V606.248H1993.52V842.255H21.6875Z" fill="white"/>
<path d="M1007.61 842.255C1069.84 842.255 1120.28 789.423 1120.28 724.251C1120.28 659.08 1069.84 606.248 1007.61 606.248C945.376 606.248 894.93 659.08 894.93 724.251C894.93 789.423 945.376 842.255 1007.61 842.255Z" fill="#52C162"/>
<path d="M1007.6 812.749C1054.27 812.749 1092.11 773.125 1092.11 724.246C1092.11 675.368 1054.27 635.744 1007.6 635.744C960.931 635.744 923.096 675.368 923.096 724.246C923.096 773.125 960.931 812.749 1007.6 812.749Z" fill="white"/>
</svg>
