<svg width="2000" height="1417" viewBox="0 0 2000 1417" fill="none" xmlns="http://www.w3.org/2000/svg">
<g clip-path="url(#clip0)">
<path d="M1796.62 0.0002372L990.143 0V1416.04H1796.9C1895.85 1416.04 1976.06 1330.25 1976.06 1224.42V191.618C1976.06 140.745 1957.14 91.9609 1923.49 56.017C1889.83 20.0731 1844.18 -0.0797507 1796.62 0.0002372Z" fill="white"/>
<path d="M183.381 0C84.437 0 4.22656 85.79 4.22656 191.617V1224.42C4.22656 1330.25 84.437 1416.04 183.381 1416.04H990.142V0H183.381Z" fill="#57A863"/>
<path d="M1087.04 868.308C1072.68 878.853 1064.22 872.828 1068.73 854.75L1084.79 787.564C1088.55 767.461 1082.51 746.688 1068.73 732.429L1022.25 689.345C1009.01 676.992 1012.68 666.748 1030.14 666.447H1095.77C1114.67 665.137 1130.99 651.839 1137.18 632.703L1158.59 559.491C1163.66 541.715 1172.68 541.414 1178.59 559.491L1202.53 632.402C1209.73 650.922 1226.08 663.514 1244.79 664.941L1311.55 666.447C1329.01 666.447 1332.39 676.992 1319.15 689.044L1267.6 734.839C1253.64 748.716 1247.64 769.487 1251.83 789.372L1267.32 849.629C1272.11 867.706 1263.66 874.033 1249.01 864.09L1195.21 828.237C1178.74 818.065 1158.44 818.065 1141.97 828.237L1087.04 868.308ZM1183.1 978.579C1096.91 1030.44 991.605 1030.15 905.659 977.837C819.712 925.519 765.71 828.83 763.38 723.089C762.105 692.628 765.241 662.139 772.675 632.703C813.827 472.956 967.866 378.734 1117.46 421.804C1132.82 426.279 1147.81 432.125 1162.25 439.278C1166.71 440.353 1171.26 437.904 1173.11 433.431C1174.97 428.958 1173.6 423.71 1169.86 420.9C1076.98 343.144 953.992 320 841.882 359.183C729.773 398.366 643.291 494.724 611.267 616.133C592.63 688.929 595.185 766.072 618.591 837.276C683.392 1034.29 884.46 1138.73 1069.29 1071.37C1113.71 1055.3 1154.62 1029.78 1189.58 996.354C1192.9 993.718 1194.26 989.102 1192.96 984.906C1191.35 980.687 1187.33 978.108 1183.1 978.579Z" fill="#ED5565"/>
</g>
<defs>
<clipPath id="clip0">
<rect width="2000" height="1416.04" fill="white"/>
</clipPath>
</defs>
</svg>
