<svg width="2000" height="1417" viewBox="0 0 2000 1417" fill="none" xmlns="http://www.w3.org/2000/svg">
<path d="M1799.72 5.60498H186.198C87.2534 5.60498 7.04297 89.6077 7.04297 193.23V802.127H1978.87L1978.87 193.525C1978.95 143.713 1960.11 95.9138 1926.5 60.6634C1892.89 25.413 1847.28 5.60492 1799.72 5.60498Z" fill="#F2D660"/>
<path d="M1978.87 802.127H7.04297V1097.14H1978.87V802.127Z" fill="#4758A9"/>
<path d="M7.0395 1204.51C7.0395 1308.14 87.2499 1392.14 186.194 1392.14H1799.43C1846.95 1392.14 1892.52 1372.37 1926.12 1337.18C1959.71 1302 1978.59 1254.28 1978.59 1204.51V1097.13H6.75781L7.0395 1204.51Z" fill="#ED5565"/>
<path d="M993.236 1076.78C979.75 1076.78 966.481 1073.23 954.645 1066.46L898.307 1033.71C874.217 1020.71 862.383 991.582 870.138 964.385L823.095 969.99C789.143 973.938 755.194 962.543 729.758 938.664C704.321 914.784 689.808 880.682 689.856 844.907V501.517C689.789 489.532 696.653 478.696 707.223 474.1C717.792 469.504 729.966 472.062 738.025 480.572L743.095 485.882V397.379C743.029 385.394 749.893 374.558 760.462 369.962C771.032 365.366 783.206 367.924 791.264 376.434L983.095 576.449L1102.53 477.032L1196.62 379.679C1204.7 371.379 1216.74 368.955 1227.19 373.524C1237.64 378.094 1244.46 388.768 1244.5 400.624V490.897L1249.57 485.587C1257.66 477.287 1269.7 474.863 1280.15 479.432C1290.6 484.002 1297.41 494.676 1297.46 506.532V845.792C1297.51 881.568 1283 915.669 1257.56 939.549C1232.12 963.428 1198.17 974.823 1164.22 970.875L1116.62 965.27C1124.53 992.557 1112.67 1021.86 1088.45 1034.89L1032.11 1067.34C1020.11 1073.85 1006.74 1077.1 993.236 1076.78ZM908.729 899.778C917.993 899.296 926.891 903.621 932.519 911.343C938.147 919.064 939.785 929.193 936.898 938.425L923.94 980.611L981.687 1013.95C988.978 1018.09 997.776 1018.09 1005.07 1013.95L1061.41 981.496L1048.73 938.13C1045.81 928.618 1047.69 918.207 1053.72 910.464C1059.74 902.722 1069.11 898.7 1078.59 899.778L1169.29 910.399C1187.31 912.499 1205.33 906.455 1218.83 893.781C1232.33 881.108 1240.03 863.008 1240 844.022V575.269L1234.93 580.58C1226.84 588.879 1214.8 591.303 1204.35 586.734C1193.91 582.165 1187.09 571.49 1187.04 559.634V469.361L1140 518.038L1137.74 520.103L996.898 638.106C985.655 647.416 969.53 646.4 959.433 635.746L798.025 467.296V555.799C798.092 567.784 791.228 578.62 780.658 583.216C770.089 587.812 757.915 585.254 749.856 576.744L744.786 571.434V844.022C744.754 863.008 752.454 881.108 765.954 893.781C779.453 906.455 797.472 912.499 815.49 910.399L905.912 899.778H908.729ZM961.687 785.905C954.2 785.951 947.003 782.872 941.687 777.35L925.067 759.945C917.422 751.91 914.852 739.998 918.457 729.302C922.061 718.606 931.202 711.022 941.969 709.793L988.729 704.483H994.926C999.316 704.998 1003.54 706.508 1007.32 708.908C1011.21 707.496 1015.34 706.993 1019.43 707.433C1030.81 708.732 1040.31 717.112 1043.46 728.635C1046.61 740.157 1042.79 752.532 1033.8 759.945C1026.41 766.31 1016.44 768.31 1007.32 765.255L1001.41 762.6L984.504 771.745C980.651 778.534 974.36 783.422 967.039 785.315C965.662 785.823 964.249 786.217 962.814 786.495L961.687 785.905Z" fill="white"/>
<path d="M732.391 307.395C732.391 318.605 750.7 311.82 799.996 313C849.292 314.18 858.306 334.241 905.63 353.121L953.236 372.002C939.151 389.834 928.959 410.677 923.377 433.068C923.377 454.309 1031.55 420.973 1031.55 420.973L1020 394.422C1028.06 386.36 1033.9 376.168 1036.9 364.922C1056.71 359.273 1076.19 352.377 1095.21 344.271C1118.71 328.587 1145.93 320.105 1173.8 319.785C1218.31 319.785 1251.26 312.115 1251.26 302.085C1222.99 285.634 1193.04 272.571 1161.97 263.144C1129.01 251.933 1061.12 241.018 1049.29 251.048C1037.46 261.079 1042.81 286.744 987.32 285.564C940.841 285.564 947.039 251.048 930.982 247.213C899.083 241.67 866.419 243.38 835.208 252.228C810.982 262.849 734.081 295.005 732.391 307.395Z" fill="#434A54"/>
<path d="M852.957 750.802L993.803 734.577L1134.65 750.802C1155.66 753.33 1176.71 746.326 1192.48 731.558C1208.25 716.79 1217.24 695.666 1217.18 673.51V399.742L1169.01 449.599V620.999C1168.86 678.119 1124.68 724.384 1070.14 724.546H919.718C865.176 724.384 821 678.119 820.845 620.999V446.354L772.676 395.907V673.51C772.682 695.212 781.366 715.919 796.622 730.606C811.877 745.293 832.308 752.618 852.957 750.802Z" fill="#F2D660"/>
<path d="M917.747 724.543H1068.17C1122.71 724.381 1166.89 678.116 1167.04 620.995V449.596L1138.87 479.096V578.219C1138.87 612.799 1125.7 645.95 1102.27 670.318C1078.85 694.687 1047.1 708.259 1014.09 708.023H971.55C903.317 707.861 848.043 649.973 847.888 578.514V476.441L819.719 446.94V621.585C820.175 678.133 863.753 723.903 917.747 724.543Z" fill="#4758A9"/>
<path d="M971.546 708.014H1014.08C1082.31 707.852 1137.59 649.964 1137.74 578.506V479.383L1120 497.673L979.152 615.677L847.039 477.908V579.981C847.966 651.207 903.529 708.345 971.546 708.014Z" fill="#ED5565"/>
<path d="M1014.08 724.541L1089.01 972.348C1093.37 986.023 1087.65 1000.99 1075.49 1007.75L1019.15 1040.2C1003.44 1049.17 984.445 1049.17 968.729 1040.2L912.391 1007.45C900.094 1000.68 894.353 985.52 898.87 971.758L966.757 750.796L1014.08 724.541Z" fill="#F2D660"/>
<path d="M819.437 940.491L992.958 920.431L1166.48 940.491C1192.44 943.512 1218.4 934.812 1237.86 916.568C1257.33 898.325 1268.45 872.264 1268.45 844.909V505.649L1208.73 567.601V780.007C1208.58 850.814 1153.81 908.173 1086.2 908.335H899.718C832.108 908.173 777.338 850.814 777.183 780.007V563.471L717.465 501.519V845.204C717.545 872.508 728.704 898.489 748.157 916.667C767.61 934.845 793.525 943.507 819.437 940.491Z" fill="#F2D660"/>
<path d="M1018.59 1040.49L1056.9 1018.36L1014.08 875.875L965.067 902.426L929.574 1018.36L968.447 1040.49C984.089 1049.35 1002.95 1049.35 1018.59 1040.49Z" fill="#4758A9"/>
<path d="M899.715 908.332H1086.19C1153.8 908.17 1208.57 850.81 1208.73 780.003V567.597L1172.67 605.063V728.082C1172.52 816.648 1104 888.404 1019.43 888.566H966.757C882.189 888.404 813.672 816.648 813.517 728.082V601.523L777.461 563.762V780.298C777.769 850.875 832.324 908.009 899.715 908.332Z" fill="#4758A9"/>
<path d="M966.474 888.275H1019.15C1103.72 888.112 1172.23 816.356 1172.39 727.79V604.772L1150.42 627.487L976.615 772.041L812.953 601.231V727.79C813.108 816.471 881.797 888.275 966.474 888.275Z" fill="#ED5565"/>
<path d="M992.957 834.585C908.45 834.585 838.027 739.887 838.027 623.654C838.027 507.42 907.605 412.428 992.957 412.428C1078.31 412.428 1147.89 507.125 1147.89 623.654C1147.89 740.182 1078.31 834.585 992.957 834.585ZM992.957 471.429C939.436 471.429 894.365 541.051 894.365 623.654C894.365 706.256 939.436 775.583 992.957 775.583C1046.48 775.583 1091.55 705.961 1091.55 623.654C1091.55 541.346 1046.48 472.019 992.957 472.019V471.429Z" fill="white"/>
<path d="M992.956 805.079C1062.96 805.079 1119.72 723.849 1119.72 623.648C1119.72 523.447 1062.96 442.218 992.956 442.218C922.948 442.218 866.195 523.447 866.195 623.648C866.195 723.849 922.948 805.079 992.956 805.079Z" fill="#3BAFDA"/>
</svg>
