<svg width="2000" height="1417" viewBox="0 0 2000 1417" fill="none" xmlns="http://www.w3.org/2000/svg">
<path d="M7.89063 220.365V485.873H1979.72V220.365C1979.72 112.181 1895.98 24.4797 1792.68 24.4797H195.215C145.559 24.4014 97.9118 45.0047 62.7736 81.7489C27.6354 118.493 7.89057 168.362 7.89063 220.365Z" fill="#ED5565"/>
<path d="M7.89062 949.336H1979.72V487.058H7.89062V949.336Z" fill="white"/>
<path d="M7.89062 1215.13C7.89062 1323.31 91.6323 1411.02 194.933 1411.02H1792.68C1895.98 1411.02 1979.72 1323.31 1979.72 1215.13V949.622H7.89062V1215.13Z" fill="#434A54"/>
<path d="M1066.77 584.105L1042.26 548.704C1038.57 543.979 1033.15 541.091 1027.33 540.739H968.174L948.456 652.842H1039.44L1027.33 584.105H1066.77ZM1058.32 894.749L1149.02 652.842H839.16L929.583 894.454H1058.32V894.749Z" fill="#FFCE54"/>
</svg>
