<svg width="2000" height="1417" viewBox="0 0 2000 1417" fill="none" xmlns="http://www.w3.org/2000/svg">
<path d="M1796.62 24.481H183.382C149.043 24.3375 115.395 34.5815 86.4805 53.9818L1947.89 732.501H1976.06L1976.06 212.401C1976.13 162.538 1957.25 114.694 1923.59 79.4349C1889.92 44.176 1844.23 24.4025 1796.62 24.481Z" fill="#52C162"/>
<path d="M87.6035 1381.81C116.195 1401 149.422 1411.23 183.378 1411.31H1796.62C1895.56 1411.31 1975.77 1327.31 1975.77 1223.69V732.5H1947.6L87.6035 1381.81Z" fill="#8CBAE2"/>
<path d="M86.4802 54.5781C35.1699 89.0686 4.16839 148.555 4.22664 212.408V1223.4C4.36709 1288.03 36.3081 1348.02 88.7337 1382.12L1947.89 733.097L86.4802 54.5781Z" fill="#ED5565"/>
<path d="M553.526 973.527C534.512 977.119 520.246 993.76 518.878 1013.94H628.455C627.253 993.257 612.503 976.215 592.962 972.937C700.005 970.577 793.244 929.866 810.146 903.61C793.526 896.235 774.089 908.035 760.286 905.38C792.962 890.04 891.272 825.138 875.216 755.811C862.124 789.026 838.961 816.808 809.3 834.873C845.92 778.232 896.061 719.23 852.681 673.209C854.383 695.984 845.076 718.138 827.892 732.21C849.3 673.209 869.582 597.097 823.385 547.535C829.3 565.531 827.047 615.977 818.596 618.337C816.061 577.626 809.3 491.779 767.047 492.959C782.236 515.971 789.125 543.887 786.484 571.726C777.789 548.379 762.447 528.398 742.54 514.494C721.379 477.865 691.731 447.423 656.343 425.992C657.777 457.352 674.189 485.849 700.005 501.809C680.85 501.809 661.695 463.458 641.131 462.573C620.568 461.688 612.962 477.618 584.793 468.473C590.334 475.421 596.36 481.929 602.822 487.943C592.26 490.158 581.292 487.818 572.399 481.453C585.718 502.068 608.746 513.39 632.399 510.954C657.955 505.573 684.506 509.858 707.329 523.049C691.862 525.918 676.035 525.918 660.568 523.049C672.183 539.008 690.431 548.124 709.582 547.535C731.836 547.535 743.667 535.44 749.3 542.815C762.463 559.64 774.242 577.601 784.512 596.506C758.596 599.457 766.484 567.006 737.469 549.895C721.131 584.116 756.061 624.532 779.723 641.348C778.96 664.53 784.01 687.518 794.371 708.02C805.665 725.261 810.295 746.345 807.329 767.021C788.717 747.537 780.131 719.903 784.23 692.679C766.278 702.962 759.11 726.131 767.892 745.486C775.526 759.543 776.666 776.467 770.991 791.507C763.777 799.315 760.904 810.459 763.385 821.008C762.746 835.55 756.307 849.143 745.638 858.474C748.845 847.695 749.617 836.283 747.892 825.138C734.508 840.251 721.907 856.106 710.146 872.634C703.385 889.155 701.695 917.476 668.455 923.966C639.331 929.501 610.955 938.713 583.948 951.402C580.85 930.161 589.864 885.91 607.329 888.565C624.793 891.22 675.779 870.569 657.469 826.318C654.66 841.224 643.533 852.876 629.3 855.819C643.385 836.938 668.737 817.763 657.469 786.197C650.039 802.177 638.284 815.515 623.667 824.548C641.131 790.327 625.638 780.297 604.793 808.322C595.5 826.673 589.576 846.686 587.329 867.324C579.16 844.903 579.723 815.108 570.146 791.212C567.109 783.557 568.474 774.761 573.669 768.507C578.864 762.253 586.993 759.62 594.653 761.711C622.822 769.086 667.047 769.086 663.667 723.36C649.879 739.024 628.616 744.793 609.3 738.111C634.089 719.525 653.807 684.714 626.202 666.423C623.505 688.595 610.244 707.817 590.991 717.46C586.72 700.242 586.72 682.167 590.991 664.948C577.92 683.834 569.239 705.653 565.638 728.67C565.464 707.692 568.313 686.806 574.089 666.718C579.723 645.183 594.089 659.343 615.779 660.818C637.469 662.293 665.638 650.198 660.005 621.287C651.111 632.766 637.038 638.391 623.103 636.038C641.131 624.827 672.681 606.537 655.498 574.676C650.649 588.469 638.749 598.188 624.793 599.752C626.957 584.194 635.229 570.291 647.61 561.401C619.441 555.5 601.976 574.971 593.526 605.357C589.941 590.779 587.12 576.006 585.075 561.106C593.874 552.094 597.198 538.729 593.716 526.368C590.234 514.006 580.515 504.671 568.455 502.104C566.233 514.418 567.107 527.126 570.991 538.98C554.914 527.23 533.546 527.23 517.469 538.98C529.832 554.44 551.092 558.193 567.61 547.83C561.976 567.006 547.047 563.761 526.484 556.385C533.831 575.29 553.049 585.974 572.117 581.756C581.131 606.242 581.695 624.827 554.934 660.523C558.458 639.777 551.914 618.552 537.469 603.882C522.822 589.131 509.3 603.882 533.808 637.218C517.006 623.98 504.83 605.32 499.16 584.116C493.592 610.017 498.595 637.175 512.962 659.048C506.202 666.423 498.596 659.048 487.047 640.168C491.272 699.169 515.216 709.2 548.174 696.219C548.174 728.08 548.174 757.286 550.991 795.637C536.743 773.133 517.385 754.684 494.653 741.946C494.971 759.921 502.299 776.976 514.934 789.147C499.716 782.765 485.404 774.228 472.399 763.776C469.582 789.442 502.258 813.338 523.385 822.778C503.325 822.16 484.469 812.609 471.554 796.522C471.554 867.914 547.61 855.524 561.695 844.608C563.667 879.714 566.202 920.426 568.174 955.532C546.765 951.697 548.455 945.206 530.146 943.436C479.441 941.371 439.16 881.189 425.638 837.233C421.695 844.608 425.638 851.984 421.413 861.129C414.563 838.08 403.354 816.711 388.455 798.292C392.188 814.408 393.142 831.092 391.272 847.559C385.69 835.668 382.434 822.73 381.695 809.503C387.027 795.454 391.174 780.943 394.089 766.136C394.089 751.976 380.85 721.295 378.878 697.399C375.19 720.033 368.654 742.056 359.441 762.891C360.755 741.859 364.443 721.063 370.427 700.939C381.151 685.464 385.046 665.925 381.131 647.248C376.021 658.339 369.788 668.822 362.54 678.519C365.182 652.011 380.445 628.701 403.103 616.567C418.315 608.307 437.469 579.396 424.793 559.335C409.588 574.018 395.898 590.333 383.948 608.012C391.051 560.02 432.733 526.212 478.878 531.015C492.725 532.048 506.115 525.593 514.371 513.904C501.258 518.72 487.146 519.74 473.526 516.854C487.039 504.766 505.206 500.065 522.54 504.169C541.39 506.844 559.965 497.581 569.864 480.568C549.347 488.718 526.953 490.158 505.638 484.698C533.808 469.653 578.315 468.178 601.131 448.707C575.216 428.942 510.427 453.132 469.582 482.043C484.171 468.563 497.387 453.535 509.019 437.202C486.484 426.287 429.864 490.304 410.427 528.065C396.129 537.585 384.625 551.062 377.188 567.006C387.047 533.08 388.174 508.004 396.343 480.273C332.681 502.694 359.16 622.172 345.357 650.788C349.064 619.21 344.79 587.166 332.962 557.86C313.244 573.201 311.836 662.588 330.145 736.93C320.628 716.768 312.896 695.735 307.047 674.094C278.878 727.785 323.948 792.097 363.385 841.363C332.837 822.021 306.765 795.825 287.047 764.661C292.117 860.834 390.991 880.895 406.202 904.495C385.357 894.76 345.638 874.994 328.737 895.645C352.327 900.1 375.007 908.782 395.779 921.311C420.286 954.647 469.019 968.807 553.526 973.527Z" fill="#F6D660"/>
</svg>
