<svg width="2000" height="1417" viewBox="0 0 2000 1417" fill="none" xmlns="http://www.w3.org/2000/svg">
<g clip-path="url(#clip0)">
<path d="M2000 0H0V708.02H2000V0Z" fill="black"/>
<path d="M2000 708.02H0V1416.04H2000V708.02Z" fill="#007A3D"/>
<path d="M2000 472.014H0V944.027H2000V472.014Z" fill="white"/>
<path d="M0 0L666.667 708.02L0 1416.04V0Z" fill="#C4111B"/>
<path d="M1000 896.825C1073.64 896.825 1133.33 812.294 1133.33 708.02C1133.33 603.746 1073.64 519.215 1000 519.215C926.363 519.215 866.668 603.746 866.668 708.02C866.668 812.294 926.363 896.825 1000 896.825Z" fill="#C4111B"/>
<path d="M1050 896.825C1123.64 896.825 1183.33 812.294 1183.33 708.02C1183.33 603.746 1123.64 519.215 1050 519.215C976.363 519.215 916.668 603.746 916.668 708.02C916.668 812.294 976.363 896.825 1050 896.825Z" fill="white"/>
<path d="M964.209 822.342L1021.06 764.79L1077.47 823.212L1056.39 728.86L1113.06 670.944L1043.17 670.182L1021.79 575.967L999.68 669.848L929.793 669.536L986.015 728.32L964.209 822.342V822.342Z" fill="#C4111B"/>
</g>
<defs>
<clipPath id="clip0">
<rect width="2000" height="1416.04" rx="186" fill="white"/>
</clipPath>
</defs>
</svg>
