<svg width="2000" height="1417" viewBox="0 0 2000 1417" fill="none" xmlns="http://www.w3.org/2000/svg">
<path d="M1989.58 310.053H17.75V1106.58H1989.58V310.053Z" fill="#FFCE54"/>
<path d="M1810.43 16.5207H197.19C149.675 16.5207 104.106 36.2883 70.5084 71.4749C36.9104 106.661 18.0352 154.385 18.0352 204.146V311.529H1989.87V204.146C1989.87 154.333 1970.95 106.566 1937.29 71.3705C1903.63 36.1754 1857.99 16.4424 1810.43 16.5207Z" fill="#ED5565"/>
<path d="M17.7465 1215.43C17.7465 1265.19 36.6217 1312.91 70.2198 1348.1C103.818 1383.29 149.387 1403.06 196.901 1403.06H1810.14C1857.66 1403.06 1903.22 1383.29 1936.82 1348.1C1970.42 1312.91 1989.3 1265.19 1989.3 1215.43V1108.05H17.4648L17.7465 1215.43Z" fill="#ED5565"/>
<path d="M329.859 800.362V885.029C329.859 933.908 367.694 973.532 414.366 973.532H462.254V801.542L329.859 800.362Z" fill="#F6D660"/>
<path d="M372.109 800.362V960.256C376.596 962.965 381.31 965.237 386.194 967.042V800.362H372.109Z" fill="#ED5565"/>
<path d="M341.691 800.362V928.69C345.526 935.727 350.265 942.179 355.776 947.866V800.362H341.691Z" fill="#ED5565"/>
<path d="M402.816 800.365V971.175C406.568 971.437 410.332 971.437 414.084 971.175H416.901V799.185L402.816 800.365Z" fill="#ED5565"/>
<path d="M461.407 800.362H433.238V972.352H461.407V800.362Z" fill="#ED5565"/>
<path d="M461.972 643.997H329.859V800.057H461.972V643.997Z" fill="#ED5565"/>
<path d="M594.089 885.027V801.245H461.977V973.529H509.864C556.426 973.367 594.09 933.791 594.089 885.027Z" fill="#ED5565"/>
<path d="M594.089 643.997H461.977V800.057H594.089V643.997Z" fill="white"/>
<path d="M461.969 845.204C485.616 845.204 504.786 825.128 504.786 800.363C504.786 775.598 485.616 755.522 461.969 755.522C438.322 755.522 419.152 775.598 419.152 800.363C419.152 825.128 438.322 845.204 461.969 845.204Z" fill="#4A89DC" stroke="#ED5565" stroke-width="0.5"/>
<path d="M286.477 664.943C286.477 653.375 277.522 643.997 266.477 643.997C255.431 643.997 246.477 653.375 246.477 664.943V909.505C246.477 921.072 255.431 930.45 266.477 930.45C277.522 930.45 286.477 921.072 286.477 909.505V664.943Z" fill="white"/>
<path d="M677.465 664.943C677.465 653.375 668.511 643.997 657.465 643.997C646.419 643.997 637.465 653.375 637.465 664.943V909.505C637.465 921.072 646.419 930.45 657.465 930.45C668.511 930.45 677.465 921.072 677.465 909.505V664.943Z" fill="white"/>
<path d="M589.577 542.522C589.577 542.522 589.577 541.046 589.577 540.161C589.577 516.561 533.239 497.385 460.845 497.385C388.45 497.385 332.112 516.561 332.112 540.161C332.02 541.142 332.02 542.131 332.112 543.112L360.281 577.037L370.422 574.087C374.553 573.758 378.625 572.866 382.535 571.432C388.031 568.894 393.676 566.726 399.436 564.942L418.028 568.187L430.985 559.042L446.197 565.237L460.563 555.797L474.084 565.532L490.422 557.862C495.201 561.698 500.186 565.243 505.352 568.482L519.436 561.402L529.295 572.317L543.662 566.712L554.929 579.693L589.577 542.522Z" fill="#ED5565"/>
<path d="M535.211 572.323L525.07 561.408C525.07 561.408 511.549 568.488 510.422 568.488C505.074 565.252 499.901 561.706 494.929 557.868L477.746 565.538L463.38 555.803L448.169 565.243L432.112 559.048L418.591 568.193L398.873 564.948C392.837 566.732 386.91 568.899 381.126 571.438C377.022 572.868 372.764 573.76 368.45 574.093L357.746 577.043L365.915 584.714L377.183 605.364H546.197L557.464 584.714L563.098 579.698L551.267 566.718L535.211 572.323Z" fill="white"/>
<path d="M461.69 634.562C503.85 634.562 538.028 621.354 538.028 605.061C538.028 588.769 503.85 575.561 461.69 575.561C419.529 575.561 385.352 588.769 385.352 605.061C385.352 621.354 419.529 634.562 461.69 634.562Z" stroke="white" stroke-linecap="round" stroke-linejoin="round"/>
<path d="M368.168 584.408C380.281 575.557 406.759 571.132 461.971 571.132" stroke="white" stroke-width="0.51" stroke-linecap="round" stroke-linejoin="round"/>
<path d="M461.688 571.132C518.025 571.132 543.378 575.557 555.49 584.408" stroke="white" stroke-width="0.51" stroke-linecap="round" stroke-linejoin="round"/>
<path d="M461.69 634.562C503.85 634.562 538.028 621.354 538.028 605.061C538.028 588.769 503.85 575.561 461.69 575.561C419.529 575.561 385.352 588.769 385.352 605.061C385.352 621.354 419.529 634.562 461.69 634.562Z" stroke="white" stroke-width="0.5" stroke-linecap="round" stroke-linejoin="round"/>
<path d="M461.69 634.562C503.85 634.562 538.028 621.354 538.028 605.061C538.028 588.769 503.85 575.561 461.69 575.561C419.529 575.561 385.352 588.769 385.352 605.061C385.352 621.354 419.529 634.562 461.69 634.562Z" fill="#ED5565"/>
<path d="M400.283 518.625C394.615 512.745 391.849 504.459 392.784 496.162C393.72 487.864 398.252 480.48 405.071 476.144C420.262 467.779 438.586 468.682 452.959 478.504L461.691 484.404L470.424 478.504" stroke="white" stroke-width="0.5" stroke-linecap="round" stroke-linejoin="round"/>
<path d="M338.03 540.167C332.276 533.854 329.332 525.292 329.922 516.586C330.512 507.88 334.581 499.839 341.129 494.441C356.35 484.424 375.046 482.044 392.115 487.95" stroke="white" stroke-width="0.5" stroke-linecap="round" stroke-linejoin="round"/>
<path d="M523.379 518.625C529.047 512.745 531.813 504.459 530.877 496.162C529.942 487.864 525.41 480.48 518.59 476.144C503.4 467.779 485.076 468.682 470.703 478.504" stroke="white" stroke-width="0.5" stroke-linecap="round" stroke-linejoin="round"/>
<path d="M585.354 540.167C591.108 533.854 594.052 525.292 593.462 516.586C592.872 507.88 588.803 499.839 582.255 494.441C567.034 484.424 548.339 482.044 531.27 487.95" stroke="white" stroke-width="0.5" stroke-linecap="round" stroke-linejoin="round"/>
<path d="M461.688 512.435V484.704" stroke="white" stroke-width="0.5" stroke-linecap="round" stroke-linejoin="round"/>
<path d="M569.014 568.774C561.127 582.639 540.845 578.214 550.704 560.219C550.704 560.219 544.507 574.674 532.113 572.314C524.507 572.314 520.563 563.464 522.535 552.844C521.787 562.064 514.175 568.991 505.352 568.479C491.268 568.479 492.676 548.713 492.676 548.713C492.676 548.713 492.676 566.119 477.183 565.529C472.999 565.375 469.044 563.485 466.191 560.276C463.338 557.066 461.82 552.801 461.972 548.418C462.281 552.9 460.833 557.32 457.963 560.659C455.093 563.999 451.048 565.97 446.761 566.119C431.549 566.119 431.268 549.304 431.268 549.304C431.268 549.304 431.268 567.889 418.592 569.069C409.769 569.581 402.157 562.654 401.409 553.434C403.099 564.054 399.437 571.429 391.831 572.904C379.437 575.264 373.24 560.809 373.24 560.809C382.254 579.099 362.817 583.229 354.93 569.364" stroke="white" stroke-width="0.3" stroke-linecap="round" stroke-linejoin="round"/>
<path d="M461.692 493.261C477.25 493.261 489.862 480.053 489.862 463.76C489.862 447.467 477.25 434.259 461.692 434.259C446.135 434.259 433.523 447.467 433.523 463.76C433.523 480.053 446.135 493.261 461.692 493.261Z" fill="#4A89DC"/>
</svg>
