<svg width="2000" height="1417" viewBox="0 0 2000 1417" fill="none" xmlns="http://www.w3.org/2000/svg">
<path d="M7.88867 199.431V464.939H1979.72V199.431C1979.72 91.2466 1895.98 3.54563 1792.68 3.54563H195.213C145.557 3.46731 97.9098 24.0706 62.7716 60.8148C27.6335 97.5589 7.88862 147.428 7.88867 199.431Z" fill="#52C162"/>
<path d="M7.88867 928.108H1979.72V465.83H7.88867V928.108Z" fill="#FFCE54"/>
<path d="M7.88867 1193.9C7.88867 1302.09 91.6303 1389.79 194.931 1389.79H1792.68C1895.98 1389.79 1979.72 1302.09 1979.72 1193.9V928.394H7.88867V1193.9Z" fill="#ED5565"/>
<path d="M993.802 1124.28C1219.38 1124.28 1402.25 932.767 1402.25 696.521C1402.25 460.274 1219.38 268.759 993.802 268.759C768.221 268.759 585.352 460.274 585.352 696.521C585.352 932.767 768.221 1124.28 993.802 1124.28Z" fill="#8CBAE2"/>
<path d="M858.589 947.279C850.874 947.339 843.319 944.975 836.899 940.494C820.375 927.243 814.276 904.104 821.969 883.852L844.223 787.384C847.134 768.681 841.016 749.681 827.885 736.643L761.406 677.641C743.5 666.563 735.541 643.795 742.384 623.227C749.227 602.659 768.972 590.001 789.575 592.974L883.941 590.024C899.335 588.381 912.362 577.398 917.18 561.998L945.349 457.86C955.209 423.344 973.518 417.444 985.349 417.149C997.18 416.854 1015.77 421.279 1027.6 455.205L1063.1 559.343C1069.7 574.715 1083.93 584.953 1100 585.894H1194.93C1215.74 581.787 1236.34 594.02 1243.66 614.834C1250.99 635.647 1242.89 658.954 1224.5 669.971L1153.24 737.528C1141.16 750.671 1136.28 769.336 1140.28 787.089L1163.38 870.577C1172.81 890.214 1167.56 914.1 1150.89 927.449C1134.21 940.799 1110.83 939.835 1095.21 925.153L1016.9 874.412C1001.93 866.391 984.024 867.289 969.856 876.772L892.392 934.299C882.704 942.233 870.878 946.775 858.589 947.279ZM818.307 649.025L865.913 692.097C893.405 719.473 905.897 759.499 899.152 798.595L883.378 867.332L938.307 826.62C970.411 804.702 1011.41 803.003 1045.07 822.195L1101.41 858.776L1085.35 799.775C1076.14 761.193 1086.82 720.376 1113.52 692.097L1167.32 642.83H1098.59C1060.12 640.678 1026.21 615.702 1011.26 578.518L988.73 512.732L970.42 577.928C958.2 616.739 924.832 643.997 885.913 646.96L818.307 649.025Z" fill="#FFCE54"/>
<path d="M876.056 910.099C855.493 925.44 843.38 916.885 849.296 890.924L871.549 794.456C876.486 765.67 867.524 736.188 847.606 715.689L780 654.622C760.845 637.217 765.916 622.466 790.986 621.581L885.634 618.631C912.702 616.518 935.966 597.723 944.789 570.84L974.366 465.227C981.69 439.561 994.366 439.266 1002.54 465.227L1038.03 569.365C1048.46 595.826 1072.43 613.706 1099.72 615.386H1196.06C1221.41 615.386 1226.48 630.136 1207.32 647.837L1134.08 715.099C1114.14 735.421 1105.81 765.189 1112.11 793.571L1135.49 878.533C1142.54 904.199 1130.7 913.639 1109.01 899.774L1030.7 849.033C1006.53 835.144 977.05 836.162 953.803 851.688L876.056 910.099Z" fill="#8CBAE2"/>
</svg>
