<svg width="2000" height="1417" viewBox="0 0 2000 1417" fill="none" xmlns="http://www.w3.org/2000/svg">
<path d="M1810.14 3.25195H212.39C109.089 3.25195 25.3477 90.9529 25.3477 199.137V1193.91C25.3477 1302.09 109.089 1389.79 212.39 1389.79H1810.14C1913.44 1389.79 1997.18 1302.09 1997.18 1193.91V199.137C1997.18 90.9529 1913.44 3.25195 1810.14 3.25195Z" fill="white"/>
<path d="M1832.95 5.00293H189.854C106.882 15.8558 40.8679 83.0642 28.1641 169.618V1223.39C42.0763 1319.03 120.575 1389.71 212.953 1389.77H1810.7C1914 1389.77 1997.74 1302.07 1997.74 1193.89V199.413C1997.7 100.275 1926.94 16.798 1832.95 5.00293Z" fill="#4658A9"/>
<path d="M728.728 3.56055H210.418C107.888 4.6926 25.342 92.0629 25.3477 199.446V710.696H729.573L728.728 3.56055Z" fill="#4658A9"/>
<path d="M322.249 516.849V710.375H432.108V512.424L621.122 710.375H728.728V621.872L531.545 415.366H728.728V297.363H531.545L728.728 90.857V2.35449H619.714L430.981 200.01V2.35449H321.122V195.88L147.601 14.1548C103.565 30.8664 67.0901 64.2249 45.3477 107.672L225.911 296.773H25.3477V414.776H227.038L25.3477 626.002V709.49H138.024L322.249 516.849Z" fill="white"/>
<path d="M350.418 436.043V710.696H403.939V431.913L670.136 710.696H728.728V674.409L453.235 385.891H728.728V328.365H453.235L728.728 39.8466V3.56055H669.855L403.658 282.343V3.56055H350.136V277.918L115.488 31.8813C96.5136 43.9373 79.7284 59.4186 65.911 77.6076L305.066 328.07H25.3477V385.596H305.066L25.3477 678.54V710.696H88.1646L350.418 436.043Z" fill="#EC5463"/>
<path fill-rule="evenodd" clip-rule="evenodd" d="M1469.01 450.771C1427.3 449.832 1388.34 428.83 1363.37 393.834C1338.38 428.795 1299.43 449.788 1257.74 450.771C1218.13 449.41 1180.45 432.572 1152.11 403.569V712.148C1154.08 915.409 1363.37 999.486 1363.37 999.486C1363.37 999.486 1574.64 915.409 1574.64 712.148V403.569C1546.39 432.719 1508.65 449.583 1469.01 450.771Z" stroke="white" stroke-width="2" stroke-linecap="round" stroke-linejoin="round"/>
<path d="M1469.01 450.771C1427.3 449.832 1388.34 428.83 1363.37 393.834C1338.38 428.795 1299.43 449.788 1257.74 450.771C1218.13 449.41 1180.45 432.572 1152.11 403.569V712.148C1154.08 915.409 1363.37 999.486 1363.37 999.486C1363.37 999.486 1574.64 915.409 1574.64 712.148V403.569C1546.39 432.719 1508.65 449.583 1469.01 450.771Z" fill="white"/>
<path d="M1574.36 510.362V403.569C1546.18 432.65 1508.55 449.509 1469.01 450.771C1427.38 449.529 1388.53 428.591 1363.37 393.834C1338.19 428.557 1299.36 449.487 1257.74 450.771C1218.13 449.411 1180.45 432.572 1152.11 403.569V510.362H1307.6V649.016H1152.11V710.968C1152.38 729.237 1154.46 747.427 1158.3 765.25H1307.6V967.92C1325.58 979.352 1344.42 989.219 1363.94 997.421C1383.45 989.214 1402.3 979.347 1420.27 967.92V767.02H1570.13C1573.91 749.192 1575.89 730.999 1576.05 712.738V649.016H1420.56V510.362H1574.36Z" fill="#ED5565"/>
</svg>
