<svg width="2000" height="1417" viewBox="0 0 2000 1417" fill="none" xmlns="http://www.w3.org/2000/svg">
<path d="M183.381 3.23739C84.437 3.23739 4.22656 87.2401 4.22656 190.863V1201.86C4.22656 1305.48 84.437 1389.48 183.381 1389.48H662.255C662.255 927.302 662.255 465.122 662.255 2.94238L183.381 3.23739Z" fill="#4758A9"/>
<path d="M661.689 3.2373C661.689 465.417 661.689 927.597 661.689 1389.78H1319.44C1319.44 927.597 1319.44 465.417 1319.44 3.2373H661.689Z" fill="white"/>
<path d="M1796.62 3.2373H1319.15C1319.15 465.417 1319.15 927.597 1319.15 1389.78H1796.62C1895.56 1389.78 1975.77 1305.77 1975.77 1202.15V191.158C1975.85 141.345 1957.01 93.5461 1923.4 58.2957C1889.79 23.0453 1844.18 3.23724 1796.62 3.2373Z" fill="#ED5565"/>
</svg>
