<svg width="2000" height="1417" viewBox="0 0 2000 1417" fill="none" xmlns="http://www.w3.org/2000/svg">
<path d="M7.04688 895.927V1204.51C7.04688 1312.69 90.7885 1400.39 194.089 1400.39H544.512V895.927H7.04688Z" fill="white"/>
<path d="M544.512 13.8584H194.089C90.7885 13.8584 7.04688 101.559 7.04688 209.744V518.323H544.512V13.8584Z" fill="white"/>
<path d="M905.359 1400.39H1791.84C1895.14 1400.39 1978.88 1312.69 1978.88 1204.51V895.927H905.359V1400.39Z" fill="white"/>
<path d="M1978.88 518.323V209.744C1978.88 101.559 1895.14 13.8584 1791.84 13.8584H905.359V518.323H1978.88Z" fill="white"/>
<path d="M814.938 612.725H1978.88V518.323H905.078V13.8584H814.938V612.725Z" fill="#4658A9"/>
<path d="M814.938 801.525V1400.39H905.078V895.928H1978.88V801.525H814.938Z" fill="#4658A9"/>
<path d="M634.653 612.725V13.8584H544.793V518.323H7.04688V612.725H634.653Z" fill="#4658A9"/>
<path d="M634.653 801.525H7.04688V895.928H544.793V1400.39H634.653V801.525Z" fill="#4658A9"/>
<path d="M814.934 13.8584H634.653V612.725H7.04688V801.531H634.653V1400.4H814.934V801.531H1978.88V612.725H814.934V13.8584Z" fill="#EC5565"/>
</svg>
