<svg width="2000" height="1417" viewBox="0 0 2000 1417" fill="none" xmlns="http://www.w3.org/2000/svg">
<path d="M1814.36 28.0248H200.841C101.897 28.0248 21.6865 112.027 21.6865 215.65V1226.94C21.6865 1330.56 101.897 1414.56 200.841 1414.56H1814.36C1913.31 1414.56 1993.52 1330.56 1993.52 1226.94V215.65C1993.52 112.027 1913.31 28.0248 1814.36 28.0248Z" fill="#3BAFDA"/>
<path d="M780.842 823.361C783.659 836.046 777.462 840.471 767.04 833.096L728.448 803.595C716.397 795.973 701.526 795.09 688.73 801.235L648.448 823.066C636.899 829.261 631.265 823.066 635.772 811.855L652.955 765.539C657.204 752.202 653.304 737.499 643.096 728.368L601.688 695.032C591.828 687.067 594.082 680.577 606.758 680.872H659.997C673.834 680.476 686.315 672.065 692.392 659.041L711.547 612.43C716.617 600.039 723.941 600.334 728.166 612.43L743.941 660.221C749.264 673.541 760.969 682.875 774.645 684.707L816.899 688.542C829.575 688.542 831.547 697.097 821.406 705.062L783.659 734.563C772.896 743.625 767.622 758.052 769.857 772.324L780.842 823.361Z" fill="white"/>
<path d="M1372.39 823.361C1375.21 836.046 1369.01 840.471 1358.59 833.096L1319.99 803.595C1307.94 795.973 1293.07 795.09 1280.28 801.235L1239.99 823.066C1228.44 829.261 1222.81 823.066 1227.32 811.855L1244.5 765.539C1248.75 752.202 1244.85 737.499 1234.64 728.368L1193.23 695.032C1183.37 687.067 1185.63 680.577 1198.3 680.872H1251.54C1265.38 680.476 1277.86 672.065 1283.94 659.041L1303.09 612.43C1308.16 600.039 1315.49 600.334 1319.71 612.43L1335.49 660.221C1340.81 673.541 1352.51 682.875 1366.19 684.707L1408.44 688.542C1421.12 688.542 1423.09 697.097 1412.95 705.062L1375.21 734.563C1364.44 743.625 1359.17 758.052 1361.4 772.324L1372.39 823.361Z" fill="white"/>
<path d="M1076.62 513.603C1079.43 526.288 1073.23 530.713 1062.81 523.043L1024.22 493.542C1012.17 485.92 997.299 485.037 984.502 491.182L944.221 513.013C932.671 519.208 927.037 513.013 931.545 501.802L948.728 455.486C952.977 442.149 949.077 427.446 938.869 418.315L897.46 384.979C887.601 377.014 889.854 370.524 902.53 370.819H955.77C969.606 370.423 982.088 362.012 988.164 348.988L1007.32 302.377C1012.39 289.986 1019.71 290.281 1023.94 302.377L1039.71 350.168C1045.04 363.488 1056.74 372.822 1070.42 374.654L1112.67 378.489C1125.35 378.489 1127.32 387.044 1117.18 395.009L1079.43 424.51C1068.67 433.572 1063.39 447.999 1065.63 462.271L1076.62 513.603Z" fill="white"/>
<path d="M1076.62 1133.12C1079.43 1145.81 1073.23 1150.23 1062.81 1142.56L1024.22 1113.06C1012.17 1105.44 997.299 1104.55 984.502 1110.7L944.221 1132.53C932.671 1138.73 927.037 1132.53 931.545 1121.32L948.728 1075C952.977 1061.67 949.077 1046.96 938.869 1037.83L897.46 1004.5C887.601 996.531 889.854 990.041 902.53 990.336H955.77C969.606 989.941 982.088 981.53 988.164 968.506L1007.32 921.894C1012.39 909.504 1019.71 909.799 1023.94 921.894L1039.71 969.685C1045.04 983.006 1056.74 992.34 1070.42 994.171L1112.67 998.006C1125.35 998.006 1127.32 1006.56 1117.18 1014.53L1079.43 1044.03C1068.67 1053.09 1063.39 1067.52 1065.63 1081.79L1076.62 1133.12Z" fill="white"/>
</svg>
