<svg width="2000" height="1417" viewBox="0 0 2000 1417" fill="none" xmlns="http://www.w3.org/2000/svg">
<path d="M861.132 20.0664H772.963V442.518L68.7378 73.7579C36.0185 106.86 15.9818 151.346 12.3998 198.841L553.245 482.049H356.062L11.5547 301.799V354.016L257.47 482.64H11.5547V574.977H861.977L861.132 20.0664Z" fill="white"/>
<path d="M1921.97 1353.79C1955.63 1321.62 1976.87 1277.65 1981.69 1230.19L1434.65 944.028H1631.83L1982.81 1127.82V1076.19L1729.29 944.028H1982.81V851.69H1126.76V1406.01H1214.93V983.559L1921.97 1353.79Z" fill="white"/>
<path d="M1214.08 20.0664H1126.76V574.387H1983.66V482.049H1730.14L1983.66 349.886V215.067C1983.66 208.282 1983.66 201.792 1983.66 195.301L1436.34 481.754H1239.15L1953.8 107.389C1945.82 94.1655 1936.36 81.9844 1925.63 71.1029L1214.08 442.518V20.0664Z" fill="white"/>
<path d="M10.9844 851.396V944.028H256.9L10.9844 1072.65V1209.54C10.9844 1215.44 10.9844 1221.04 10.9844 1226.94L551.829 943.733H749.013L39.7168 1315.15C47.6752 1328.48 57.1325 1340.76 67.8858 1351.73L772.111 983.264V1405.72H860.28V851.396H10.9844Z" fill="white"/>
<path d="M1982.82 851.4V574.387H1125.91V20.0664H861.125V574.387H10.9844V851.4H861.125V1405.72H1125.91V851.4H1982.82Z" fill="#EC5565"/>
<path d="M552.4 482.045L11.5547 198.837C11.5547 204.147 11.5547 209.752 11.5547 215.062V301.5L356.062 481.75L552.4 482.045Z" fill="#EC5565"/>
<path d="M1434.65 482.053L1981.97 195.6C1979.06 163.991 1968.81 133.607 1952.11 107.098L1237.46 481.463L1434.65 482.053Z" fill="#EC5565"/>
<path d="M1434.64 944.046L1981.69 1230.5C1982.03 1223.62 1982.03 1216.73 1981.69 1209.85V1127.84L1631.83 944.046H1434.64Z" fill="#EC5565"/>
<path d="M552.4 944.046L11.5547 1227.25C13.9576 1258.71 23.6247 1289.08 39.7237 1315.76L749.865 944.046H552.4Z" fill="#EC5565"/>
<path d="M1214.08 442.518L1922.81 71.3979C1893.07 42.3813 1855.09 24.3535 1814.65 20.0664H1214.08V442.518Z" fill="#4658A9"/>
<path d="M1982.81 1075.92V943.752H1730.42L1982.81 1075.92Z" fill="#4658A9"/>
<path d="M1982.81 482.054V349.891L1730.42 482.054H1982.81Z" fill="#4658A9"/>
<path d="M69.293 1351.73C103.966 1386.41 150.078 1405.75 198.025 1405.72H772.955V983.267L69.293 1351.73Z" fill="#4658A9"/>
<path d="M1214.08 983.267V1405.72H1795.77C1842.54 1405.72 1887.59 1387.29 1921.97 1354.09L1214.08 983.267Z" fill="#4658A9"/>
<path d="M772.96 20.0664H179.157C137.645 24.4999 98.7574 43.4083 68.7344 73.7579L772.96 442.518V20.0664Z" fill="#4658A9"/>
<path d="M10.9844 943.752V1072.38L256.618 943.752H10.9844Z" fill="#4658A9"/>
<path d="M10.9844 353.128V482.047H256.618L10.9844 353.128Z" fill="#4658A9"/>
</svg>
