<svg width="2000" height="1417" viewBox="0 0 2000 1417" fill="none" xmlns="http://www.w3.org/2000/svg">
<path d="M1818.03 11.7988H204.51C105.566 11.7988 25.3555 95.8015 25.3555 199.424V1210.71C25.3555 1314.34 105.566 1398.34 204.51 1398.34H1818.03C1916.98 1398.34 1997.19 1314.34 1997.19 1210.71V199.424C1997.19 95.8015 1916.98 11.7988 1818.03 11.7988Z" fill="white"/>
<path d="M1997.19 587.065H1123.95V11.7988H898.595V587.065H25.3555V823.072H898.595V1398.34H1123.95V823.072H1997.19V587.065Z" fill="#ED5565"/>
<path d="M898.59 11.7988H204.788C105.843 11.7988 25.6328 95.8015 25.6328 199.424V587.065H898.872L898.59 11.7988Z" fill="white"/>
<path d="M588.73 225.675H532.392V166.674C532.392 134.088 507.169 107.672 476.054 107.672H447.885C416.771 107.672 391.547 134.088 391.547 166.674V225.675H335.209C304.094 225.675 278.871 252.091 278.871 284.677V314.178C278.871 346.763 304.094 373.179 335.209 373.179H391.547V432.181C391.547 464.767 416.771 491.183 447.885 491.183H476.054C507.169 491.183 532.392 464.767 532.392 432.181V373.179H588.73C619.845 373.179 645.068 346.763 645.068 314.178V284.677C645.068 252.091 619.845 225.675 588.73 225.675Z" fill="#ED5565"/>
<path d="M1818.03 11.7988H1123.95V587.065H1997.18V199.424C1997.18 95.8015 1916.97 11.7988 1818.03 11.7988Z" fill="white"/>
<path d="M1687.32 225.675H1630.98V166.674C1630.98 134.088 1605.76 107.672 1574.64 107.672H1546.47C1515.36 107.672 1490.14 134.088 1490.14 166.674V225.675H1433.8C1402.68 225.675 1377.46 252.091 1377.46 284.677V314.178C1377.46 346.763 1402.68 373.179 1433.8 373.179H1490.14V432.181C1490.14 464.767 1515.36 491.183 1546.47 491.183H1574.64C1605.76 491.183 1630.98 464.767 1630.98 432.181V373.179H1687.32C1718.43 373.179 1743.66 346.763 1743.66 314.178V284.677C1743.66 252.091 1718.43 225.675 1687.32 225.675Z" fill="#ED5565"/>
<path d="M898.591 1398.34L204.788 1398.34C157.028 1398.42 111.215 1378.53 77.5237 1343.08C43.832 1307.63 25.0508 1259.55 25.3512 1209.54L25.3477 823.076H898.591V1398.34Z" fill="white"/>
<path d="M588.73 1184.46H532.392V1243.46C532.392 1276.04 507.169 1302.46 476.054 1302.46H447.885C416.771 1302.46 391.547 1276.04 391.547 1243.46V1184.46H335.209C304.094 1184.46 278.871 1158.04 278.871 1125.46V1095.95C278.871 1063.37 304.094 1036.95 335.209 1036.95H391.547V977.951C391.547 945.365 416.771 918.949 447.885 918.949H476.054C507.169 918.949 532.392 945.365 532.392 977.951V1036.95H588.73C619.845 1036.95 645.068 1063.37 645.068 1095.95V1125.46C645.068 1158.04 619.845 1184.46 588.73 1184.46Z" fill="#ED5565"/>
<path d="M1818.03 1398.34H1123.95V823.076H1997.19L1997.18 1209.54C1997.48 1259.5 1978.74 1307.53 1945.11 1342.97C1911.48 1378.41 1865.74 1398.34 1818.03 1398.34Z" fill="white"/>
<path d="M1687.32 1184.46H1630.98V1243.46C1630.98 1276.04 1605.76 1302.46 1574.64 1302.46H1546.47C1515.36 1302.46 1490.14 1276.04 1490.14 1243.46V1184.46H1433.8C1402.68 1184.46 1377.46 1158.04 1377.46 1125.46V1095.95C1377.46 1063.37 1402.68 1036.95 1433.8 1036.95H1490.14V977.951C1490.14 945.365 1515.36 918.949 1546.47 918.949H1574.64C1605.76 918.949 1630.98 945.365 1630.98 977.951V1036.95H1687.32C1718.43 1036.95 1743.66 1063.37 1743.66 1095.95V1125.46C1743.66 1158.04 1718.43 1184.46 1687.32 1184.46Z" fill="#ED5565"/>
</svg>
