<svg width="2000" height="1417" viewBox="0 0 2000 1417" fill="none" xmlns="http://www.w3.org/2000/svg">
<path d="M4.22656 206.507V472.014H1976.06V206.507C1976.06 98.322 1892.32 10.6211 1789.02 10.6211H191.269C141.662 10.6211 94.0872 31.259 59.01 67.9946C23.9327 104.73 4.22656 154.555 4.22656 206.507Z" fill="#ED5565"/>
<path d="M4.22656 936.36H1976.06V474.082H4.22656V936.36Z" fill="#F6D660"/>
<path d="M4.2231 1202.45C4.2231 1310.63 87.9648 1398.33 191.265 1398.33H1788.73C1892.03 1398.33 1975.77 1310.63 1975.77 1202.45V936.941H3.94141L4.2231 1202.45Z" fill="#52C162"/>
<path d="M909.011 862.021C894.927 872.641 886.476 866.741 890.701 848.745L906.194 782.369C909.921 762.486 903.646 741.992 889.574 728.087L843.096 686.196C829.856 674.396 833.236 664.07 850.701 663.48L915.49 661.415C934.096 659.867 950.04 646.879 956.053 628.374L976.335 555.802C981.124 538.102 990.138 537.807 996.053 555.802L1020.56 627.194C1027.65 645.419 1044.06 657.795 1062.81 659.055H1129.01C1146.48 659.055 1149.86 669.38 1136.62 681.181L1086.19 727.497C1072.54 741.518 1066.88 761.992 1071.26 781.484L1087.32 840.485C1092.11 858.186 1083.94 864.676 1069.29 855.236L1015.49 820.425C998.934 810.924 978.754 811.602 962.814 822.195L909.011 862.021Z" fill="#434A54"/>
</svg>
