<svg width="2000" height="1417" viewBox="0 0 2000 1417" fill="none" xmlns="http://www.w3.org/2000/svg">
<path d="M24.5039 1204.51C24.5039 1312.69 108.246 1400.39 211.546 1400.39H1809.29C1912.59 1400.39 1996.34 1312.69 1996.34 1204.51V855.514H24.5039V1204.51Z" fill="#EC5565"/>
<path d="M1966.76 104.13C1932.42 47.8615 1873.05 13.8249 1809.29 13.8574H211.546C108.374 14.1814 24.8133 101.693 24.5039 209.743V855.516H1996.34V209.743C1996.38 172.292 1986.11 135.623 1966.76 104.13Z" fill="white"/>
<path d="M1029.58 613.602H761.971V806.242H1029.58V613.602Z" fill="#434A54"/>
<path d="M901.414 777.926H738.033L701.695 803.001V829.552H901.414" fill="#EC5565"/>
<path d="M901.414 777.926H738.033L701.695 803.001V829.552H901.414" stroke="white" stroke-width="0.14" stroke-linecap="round" stroke-linejoin="round"/>
<path d="M832.673 667.303C856.521 667.627 875.646 688.052 875.49 713.029V777.636H906.194V532.484H737.18V777.636H788.729V713.029C788.729 700.851 793.367 689.175 801.617 680.591C809.866 672.007 821.044 667.225 832.673 667.303Z" fill="#EC5565" stroke="white" stroke-width="0.14" stroke-linecap="round" stroke-linejoin="round"/>
<path d="M872.672 366.984H795.207V515.669H872.672V366.984Z" fill="#434A54"/>
<path d="M873.236 492.361H805.348V467.285H754.926V492.361H721.123V467.285H701.123V513.011H873.236V492.361ZM721.968 513.011H868.165V532.777H721.968V513.011Z" fill="#EC5565" stroke="white" stroke-width="0.14" stroke-linecap="round" stroke-linejoin="round"/>
<path d="M779.436 312.699V467.284H804.788V424.802C804.728 409.492 815.862 396.679 830.421 395.302H831.83C847.387 395.302 859.999 408.51 859.999 424.802V467.284H884.224V312.699H779.436Z" fill="#EC5565" stroke="white" stroke-width="0.14" stroke-linecap="round" stroke-linejoin="round"/>
<path d="M770.139 291.752V312.698H892.392V291.752H770.139Z" fill="#EC5565" stroke="white" stroke-width="0.14" stroke-linecap="round" stroke-linejoin="round"/>
<path d="M754.359 251.928V292.049H901.401V251.928H878.866V272.283H850.697V251.928H809.007V272.283H780.838V251.928H754.359Z" fill="#EC5565" stroke="white" stroke-width="0.14" stroke-linecap="round" stroke-linejoin="round"/>
<path d="M701.408 803.008H901.408Z" fill="#EC5565"/>
<path d="M701.408 803.008H901.408" stroke="white" stroke-width="0.14" stroke-linecap="round" stroke-linejoin="round"/>
<path d="M1031.26 790.902H895.769L854.924 811.553V841.054H1031.54" fill="#EC5565"/>
<path d="M1031.26 790.902H895.769L854.924 811.553V841.054H1031.54" stroke="white" stroke-width="0.14" stroke-linecap="round" stroke-linejoin="round"/>
<path d="M854.924 811.557H1035.77Z" fill="#EC5565"/>
<path d="M854.924 811.557H1035.77" stroke="white" stroke-width="0.14" stroke-linecap="round" stroke-linejoin="round"/>
<path d="M1258.87 613.602H991.266V806.242H1258.87V613.602Z" fill="#434A54"/>
<path d="M1120 777.926H1283.38L1319.72 803.001V829.552H1120.28" fill="#EC5565"/>
<path d="M1120 777.926H1283.38L1319.72 803.001V829.552H1120.28" stroke="white" stroke-width="0.14" stroke-linecap="round" stroke-linejoin="round"/>
<path d="M1188.17 667.303C1164.32 667.627 1145.2 688.052 1145.35 713.029V777.636H1114.65V532.484H1283.66V777.636H1230.99V713.029C1230.99 688.117 1211.95 667.785 1188.17 667.303Z" fill="#EC5565" stroke="white" stroke-width="0.14" stroke-linecap="round" stroke-linejoin="round"/>
<path d="M1225.64 366.984H1148.17V515.669H1225.64V366.984Z" fill="#434A54"/>
<path d="M1148.45 492.361H1216.34V467.285H1265.92V492.361H1299.72V467.285H1319.72V513.011H1148.45V492.361ZM1299.72 513.011H1153.52V532.777H1299.72V513.011Z" fill="#EC5565" stroke="white" stroke-width="0.14" stroke-linecap="round" stroke-linejoin="round"/>
<path d="M1241.69 312.699V467.284H1216.34V424.802C1216.4 409.492 1205.26 396.679 1190.7 395.302H1189.29C1173.74 395.302 1161.13 408.51 1161.13 424.802V467.284H1136.9V312.699H1241.69Z" fill="#EC5565" stroke="white" stroke-width="0.14" stroke-linecap="round" stroke-linejoin="round"/>
<path d="M1250.71 291.752V312.698H1128.45V291.752H1250.71Z" fill="#EC5565" stroke="white" stroke-width="0.14" stroke-linecap="round" stroke-linejoin="round"/>
<path d="M1267.6 251.928V292.049H1120.84V251.928H1143.38V272.283H1171.55V251.928H1211.26V272.283H1239.43V251.928H1267.6Z" fill="#EC5565" stroke="white" stroke-width="0.14" stroke-linecap="round" stroke-linejoin="round"/>
<path d="M1319.44 803.008H1119.15Z" fill="#EC5565"/>
<path d="M1319.44 803.008H1119.15" stroke="white" stroke-width="0.14" stroke-linecap="round" stroke-linejoin="round"/>
<path d="M989.581 790.902H1125.07L1165.92 811.553V841.054H989.299" fill="#EC5565"/>
<path d="M989.581 790.902H1125.07L1165.92 811.553V841.054H989.299" stroke="white" stroke-width="0.14" stroke-linecap="round" stroke-linejoin="round"/>
<path d="M1166.2 811.557H985.916Z" fill="#EC5565"/>
<path d="M1166.2 811.557H985.916" stroke="white" stroke-width="0.14" stroke-linecap="round" stroke-linejoin="round"/>
<path d="M1082.81 761.111C1071.89 765.516 1061.42 771.05 1051.55 777.632C1038.53 785.604 1026.1 794.577 1014.36 804.478C1010.15 807.219 1006.36 810.6 1003.09 814.508C998.159 817.897 995.192 823.668 995.207 829.848C995.207 832.798 998.869 826.603 1001.12 826.308C1005.13 823.895 1009.86 823.157 1014.36 824.243C1020.08 818.853 1026.1 813.829 1032.39 809.198C1045.03 799.576 1058.3 790.9 1072.11 783.237C1076.82 780.513 1081.72 778.147 1086.76 776.157L1082.53 761.406L1082.81 761.111Z" fill="#F8D80E" stroke="white" stroke-width="0.11" stroke-linecap="round" stroke-linejoin="round"/>
<path d="M1028.73 793.564V810.675Z" fill="#F8D80E"/>
<path d="M1028.73 793.564V810.675" stroke="white" stroke-width="0.14" stroke-linecap="round" stroke-linejoin="round"/>
<path d="M1038.87 785.9V803.011Z" fill="#F8D80E"/>
<path d="M1038.87 785.9V803.011" stroke="white" stroke-width="0.14" stroke-linecap="round" stroke-linejoin="round"/>
<path d="M1049.01 779.398V796.214Z" fill="#F8D80E"/>
<path d="M1049.01 779.398V796.214" stroke="white" stroke-width="0.14" stroke-linecap="round" stroke-linejoin="round"/>
<path d="M1059.15 772.91V790.316Z" fill="#F8D80E"/>
<path d="M1059.15 772.91V790.316" stroke="white" stroke-width="0.14" stroke-linecap="round" stroke-linejoin="round"/>
<path d="M938.873 761.701L933.803 776.157C956.871 785.569 978.958 797.431 999.718 811.558C1007.08 816.183 1013.81 821.841 1019.72 828.373C1020.15 829.995 1019.67 831.735 1018.48 832.863C1017.28 833.99 1015.58 834.308 1014.08 833.683C1011.19 832.003 1007.68 832.003 1004.79 833.683C1000.28 835.748 996.056 843.123 1003.1 845.483C1008.02 848.964 1014.12 850.084 1019.87 848.563C1025.62 847.042 1030.49 843.025 1033.24 837.518C1036.06 831.301 1035.18 823.937 1030.99 818.638C1021.84 808.866 1011.41 800.52 1000 793.857C980.507 781.286 959.951 770.62 938.591 761.996L938.873 761.701Z" fill="#F8D80E" stroke="white" stroke-width="0.11" stroke-linecap="round" stroke-linejoin="round"/>
<path d="M1002.25 796.521V811.272Z" fill="#F8D80E"/>
<path d="M1002.25 796.521V811.272" stroke="white" stroke-width="0.14" stroke-linecap="round" stroke-linejoin="round"/>
<path d="M1014.08 803.893L1010.42 818.348Z" fill="#F8D80E"/>
<path d="M1014.08 803.893L1010.42 818.348" stroke="white" stroke-width="0.14" stroke-linecap="round" stroke-linejoin="round"/>
<path d="M1026.47 813.631L1018.87 824.841Z" fill="#F8D80E"/>
<path d="M1026.47 813.631L1018.87 824.841" stroke="white" stroke-width="0.14" stroke-linecap="round" stroke-linejoin="round"/>
<path d="M1030.14 840.76L1019.15 834.564Z" fill="#F8D80E"/>
<path d="M1030.14 840.76L1019.15 834.564" stroke="white" stroke-width="0.14" stroke-linecap="round" stroke-linejoin="round"/>
<path d="M1033.52 828.666H1021.12Z" fill="#F8D80E"/>
<path d="M1033.52 828.666H1021.12" stroke="white" stroke-width="0.14" stroke-linecap="round" stroke-linejoin="round"/>
<path d="M1017.46 847.556V836.051Z" fill="#F8D80E"/>
<path d="M1017.46 847.556V836.051" stroke="white" stroke-width="0.14" stroke-linecap="round" stroke-linejoin="round"/>
<path d="M1014.08 834.564L1003.66 842.53Z" fill="#F8D80E"/>
<path d="M1014.08 834.564L1003.66 842.53" stroke="white" stroke-width="0.14" stroke-linecap="round" stroke-linejoin="round"/>
<path d="M963.092 774.088V787.658Z" fill="#F8D80E"/>
<path d="M963.092 774.088V787.658" stroke="white" stroke-width="0.14" stroke-linecap="round" stroke-linejoin="round"/>
<path d="M989.291 788.549V803.889Z" fill="#F8D80E"/>
<path d="M989.291 788.549V803.889" stroke="white" stroke-width="0.14" stroke-linecap="round" stroke-linejoin="round"/>
<path d="M976.338 781.178V795.633Z" fill="#F8D80E"/>
<path d="M976.338 781.178V795.633" stroke="white" stroke-width="0.14" stroke-linecap="round" stroke-linejoin="round"/>
<path d="M925.912 1100.66V1135.77H947.039V1118.07H975.208V1135.77H997.743V1100.66H925.912ZM925.912 1149.04V1184.44H998.306V1150.52H975.771V1168.22H947.602V1150.52L925.912 1149.04Z" fill="#F8D80E" stroke="white" stroke-width="0.14" stroke-linecap="round" stroke-linejoin="round"/>
<path d="M1026.19 952.283H998.025V1206.88H1026.19V952.283Z" fill="#F8D80E" stroke="white" stroke-width="0.14" stroke-linecap="round" stroke-linejoin="round"/>
<path d="M1026.19 974.41H998.025V1193.6H1026.19V974.41Z" fill="#F8D80E" stroke="white" stroke-width="0.14" stroke-linecap="round" stroke-linejoin="round"/>
<path d="M1008.45 890.031L1052.96 917.172L1008.45 944.017L963.944 917.172L1008.45 890.031ZM949.014 907.436H937.465V926.907H949.014L1008.45 962.898L1067.89 926.907H1079.44V907.436H1067.89L1008.45 871.445L949.014 907.436Z" fill="#F8D80E" stroke="white" stroke-width="0.14" stroke-linecap="round" stroke-linejoin="round"/>
<path d="M1007.6 823.654C997.321 825.565 989.976 835.149 990.419 846.075C990.419 862.3 990.419 878.821 990.419 895.046C990.958 905.043 997.921 913.375 1007.31 915.258C1016.7 917.141 1026.11 912.093 1030.14 903.011L1022.81 898.586C1020.33 904.366 1014.28 907.498 1008.39 906.061C1002.49 904.625 998.385 899.023 998.588 892.686C998.588 876.46 998.588 860.235 998.588 844.01C998.805 840.72 1000.26 837.657 1002.64 835.498C1005.02 833.338 1008.12 832.261 1011.26 832.504C1013.8 832.504 1017.46 835.454 1019.15 832.504C1020.84 829.554 1017.46 826.014 1015.21 823.949C1012.95 821.884 1009.86 823.949 1007.32 823.949L1007.6 823.654ZM1031.83 840.765C1029.82 843.722 1027.1 846.064 1023.94 847.55V880.591L1032.39 885.606C1032.39 871.445 1032.39 856.105 1032.39 843.42C1032.39 843.42 1032.39 841.355 1032.39 840.765H1031.83Z" fill="#F8D80E" stroke="white" stroke-width="0.14" stroke-linecap="round" stroke-linejoin="round"/>
<path d="M1069.58 272.289H947.041V505.346H1069.58V272.289Z" fill="#434A54"/>
<path d="M938.309 272.289V467.29H977.182V408.288C977.182 389.062 992.064 373.477 1010.42 373.477C1028.78 373.477 1043.66 389.062 1043.66 408.288V467.29H1082.53V272.289H938.309ZM1004.51 294.12H1016.62V360.792H1004.51V294.12ZM970.139 307.395H982.252V356.366H970.139V307.395ZM1038.87 307.395H1050.98V356.366H1038.87V307.395Z" fill="#EC5565" stroke="white" stroke-width="0.14" stroke-linecap="round" stroke-linejoin="round"/>
<path d="M925.068 244.264V271.994H1095.77V244.264H925.068Z" fill="#EC5565" stroke="white" stroke-width="0.14" stroke-linecap="round" stroke-linejoin="round"/>
<path d="M909.012 212.105V244.261H1111.83V212.105H1086.48V229.806H1058.31V212.105H1025.63V229.806H997.462V212.105H963.378V229.806H935.209V212.105H909.012Z" fill="#EC5565" stroke="white" stroke-width="0.14" stroke-linecap="round" stroke-linejoin="round"/>
<path d="M871.547 532.779V552.84H1149.58V532.779H871.547Z" fill="#EC5565" stroke="white" stroke-width="0.14" stroke-linecap="round" stroke-linejoin="round"/>
<path d="M859.994 467.285V532.777H1160.84V467.285H1132.67V492.361H1094.64V467.285H1042.25V492.361H975.769V467.285H925.065V492.361H887.036V467.285H859.994Z" fill="#EC5565" stroke="white" stroke-width="0.14" stroke-linecap="round" stroke-linejoin="round"/>
<path d="M896.338 552.832V790.904H950.141V702.401C949.367 685.499 955.559 669.063 967.145 657.268C978.73 645.474 994.594 639.456 1010.7 640.745C1026.81 639.456 1042.68 645.474 1054.26 657.268C1065.85 669.063 1072.04 685.499 1071.27 702.401V790.904H1125.07V552.832H896.338Z" fill="#EC5565" stroke="white" stroke-width="0.14" stroke-linecap="round" stroke-linejoin="round"/>
</svg>
