<svg width="2000" height="1417" viewBox="0 0 2000 1417" fill="none" xmlns="http://www.w3.org/2000/svg">
<path d="M183.381 20.0665C84.437 20.0665 4.22656 104.069 4.22656 207.692V1218.69C4.22656 1322.31 84.437 1406.31 183.381 1406.31H662.255C662.255 944.131 662.255 481.951 662.255 19.7715L183.381 20.0665Z" fill="#ED5565"/>
<path d="M661.689 20.0664C661.689 482.246 661.689 944.426 661.689 1406.61H1319.44C1319.44 944.426 1319.44 482.246 1319.44 20.0664H661.689Z" fill="#F6D660"/>
<path d="M1796.62 20.0664H1319.15C1319.15 482.246 1319.15 944.426 1319.15 1406.61H1796.62C1895.56 1406.61 1975.77 1322.6 1975.77 1218.98V206.512C1975.15 103.35 1895.13 20.0644 1796.62 20.0664Z" fill="#52C162"/>
</svg>
