<svg width="2000" height="1417" viewBox="0 0 2000 1417" fill="none" xmlns="http://www.w3.org/2000/svg">
<path d="M7.89062 1209.54C7.89062 1313.16 88.101 1397.16 187.046 1397.16H1800.57C1899.51 1397.16 1979.72 1313.16 1979.72 1209.54V955.83H7.89062V1209.54Z" fill="#52C162"/>
<path d="M1979.72 896.824H7.89062V955.826H1979.72V896.824Z" fill="white"/>
<path d="M1979.72 513.318H7.89062V896.829H1979.72V513.318Z" fill="#4758A9"/>
<path d="M1800.57 11.7991H187.331C88.3862 11.7991 8.17578 95.8017 8.17578 199.424V454.311H1980.01V199.424C1980.01 149.612 1961.09 101.844 1927.43 66.6488C1893.78 31.4538 1848.13 11.7207 1800.57 11.7991Z" fill="#ED5565"/>
<path d="M1979.72 454.311H7.89062V511.837H1979.72V454.311Z" fill="white"/>
<path d="M1979.72 511.537H7.89062V541.038H1979.72V511.537Z" fill="white"/>
</svg>
