<svg width="2000" height="1417" viewBox="0 0 2000 1417" fill="none" xmlns="http://www.w3.org/2000/svg">
<path d="M1807.34 20.0666H194.096C95.1518 20.0666 14.9414 104.069 14.9414 207.692V728.086H1986.77V206.512C1986.15 103.235 1905.95 19.9022 1807.34 20.0666Z" fill="#F6D660"/>
<path d="M14.6508 1218.98C14.6508 1322.6 94.8612 1406.61 193.806 1406.61H1807.05C1905.99 1406.61 1986.2 1322.6 1986.2 1218.98V728.086H14.3691L14.6508 1218.98Z" fill="#52C162"/>
<path d="M194.096 20.0665C95.1518 20.0665 14.9414 104.069 14.9414 207.692V1218.69C14.9414 1322.31 95.1518 1406.31 194.096 1406.31H662.829V19.7715L194.096 20.0665Z" fill="#ED5565"/>
<path d="M257.75 870.281C243.665 880.901 235.215 875.001 239.44 857.006L254.651 790.629C258.378 770.747 252.104 750.252 238.031 736.347L191.553 694.456C178.313 682.656 181.693 672.331 199.158 671.741L264.229 669.675C282.835 668.127 298.779 655.139 304.792 636.635L325.074 564.062C329.862 546.362 338.877 546.362 344.792 564.062L369.299 635.455C376.388 653.679 392.801 666.055 411.553 667.315H477.75C495.215 667.315 498.595 677.641 485.355 689.441L435.215 737.527C421.562 751.548 415.9 772.022 420.285 791.514L436.341 850.516C441.13 868.216 432.961 874.706 418.313 865.266L364.51 830.455C347.867 820.901 327.58 821.58 311.553 832.225L257.75 870.281Z" fill="#434A54"/>
</svg>
