<svg width="2000" height="1417" viewBox="0 0 2000 1417" fill="none" xmlns="http://www.w3.org/2000/svg">
<path d="M14.6484 220.365V485.873H1986.48V220.365C1986.48 112.181 1902.74 24.4797 1799.44 24.4797H201.972C152.317 24.4014 104.67 45.0047 69.5314 81.7489C34.3932 118.493 14.6484 168.362 14.6484 220.365Z" fill="#52C162"/>
<path d="M14.6484 949.336H1986.48V487.058H14.6484V949.336Z" fill="white"/>
<path d="M14.6484 1215.13C14.6484 1323.31 98.3901 1411.02 201.691 1411.02H1799.44C1902.74 1411.02 1986.48 1323.31 1986.48 1215.13V949.622H14.6484V1215.13Z" fill="#ED5565"/>
<path d="M74.6484 72.5703C36.4892 108.062 14.6517 158.956 14.6484 212.404V1223.4C14.6517 1276.85 36.4892 1327.74 74.6484 1363.23L803.381 717.754L74.6484 72.5703Z" fill="#4A89DC"/>
</svg>
