<svg width="2000" height="1417" viewBox="0 0 2000 1417" fill="none" xmlns="http://www.w3.org/2000/svg">
<path d="M1993.52 1090.05H21.6875V1244.05H1993.52V1090.05Z" fill="white"/>
<path d="M1993.52 936.059H21.6875V1090.05H1993.52V936.059Z" fill="#4A89DC"/>
<path d="M1993.52 782.062H21.6875V936.057H1993.52V782.062Z" fill="white"/>
<path d="M1993.52 628.064H21.6875V782.059H1993.52V628.064Z" fill="#4A89DC"/>
<path d="M1993.52 473.789H21.6875V627.783H1993.52V473.789Z" fill="white"/>
<path d="M1993.52 319.793H21.6875V473.787H1993.52V319.793Z" fill="#4A89DC"/>
<path d="M1993.52 165.795H38.5898V319.789H1993.52V165.795Z" fill="white"/>
<path d="M200.844 1398.34H1814.08C1900.67 1398.38 1974.9 1333.56 1990.42 1244.35H24.5059C40.0268 1333.56 114.254 1398.38 200.844 1398.34Z" fill="#4A89DC"/>
<path d="M1814.08 11.7988H200.844C114.254 11.756 40.0268 76.5776 24.5059 165.793H1990.14C1974.64 76.687 1900.57 11.8985 1814.08 11.7988Z" fill="#4A89DC"/>
<path d="M200.842 11.7988H757.18V782.066H21.6875V199.424C21.6875 95.8015 101.898 11.7988 200.842 11.7988Z" fill="#4A89DC"/>
<path d="M757.18 319.793H21.6875V473.787H757.18V319.793Z" fill="white"/>
<path d="M462.814 11.7988H315.771V782.066H462.814V11.7988Z" fill="white"/>
</svg>
