<svg width="2000" height="1417" viewBox="0 0 2000 1417" fill="none" xmlns="http://www.w3.org/2000/svg">
<path d="M1800.57 20.0664H187.045C88.1 20.0664 7.88965 104.069 7.88965 207.692V1218.98C7.88965 1322.6 88.1 1406.61 187.045 1406.61H1800.57C1899.51 1406.61 1979.72 1322.6 1979.72 1218.98V207.692C1979.72 104.069 1899.51 20.0664 1800.57 20.0664Z" fill="#ED5565"/>
<path d="M1752.96 167.576H234.653C187.203 167.576 148.737 207.86 148.737 257.554V1169.13C148.737 1218.82 187.203 1259.11 234.653 1259.11H1752.96C1800.41 1259.11 1838.88 1218.82 1838.88 1169.13V257.554C1838.88 207.86 1800.41 167.576 1752.96 167.576Z" fill="#F6D660"/>
<path d="M661.971 136.596C658.027 139.546 655.774 136.596 656.9 133.056L661.126 115.06C662.106 109.661 660.409 104.11 656.619 100.31L643.943 88.8043C640.281 85.5592 641.126 82.9042 645.915 82.6092H663.661C668.675 82.2026 672.986 78.7301 674.647 73.7589L680.281 53.9934C680.281 49.2732 683.943 48.9782 685.633 53.9934L692.393 73.4639C694.398 78.3655 698.862 81.6722 703.943 82.0191H721.971C726.76 82.0191 727.605 84.6742 724.224 87.9193L710.422 100.605C706.74 104.464 705.245 110.054 706.478 115.355L710.985 131.286C710.985 136.006 710.985 137.776 705.915 135.416L691.267 125.975C686.838 123.225 681.329 123.225 676.9 125.975L661.971 136.596Z" fill="#F6D660"/>
<path d="M971.834 136.596C967.89 139.546 965.637 136.596 966.764 133.056L970.989 115.06C971.969 109.661 970.273 104.11 966.482 100.31L953.806 88.8043C950.144 85.5592 950.989 82.9042 955.778 82.6092H973.524C978.538 82.2026 982.849 78.7301 984.51 73.7589L990.144 53.9934C990.144 49.2732 993.806 48.9782 995.496 53.9934L1002.26 73.4639C1004.26 78.3655 1008.73 81.6722 1013.81 82.0191H1031.83C1036.62 82.0191 1037.47 84.6742 1034.09 87.9193L1020.28 100.605C1016.6 104.464 1015.11 110.054 1016.34 115.355L1020.85 131.286C1020.85 136.006 1020.85 137.776 1015.78 135.416L1001.13 125.975C996.701 123.225 991.192 123.225 986.764 125.975L971.834 136.596Z" fill="#F6D660"/>
<path d="M1281.69 136.596C1277.75 139.546 1275.49 136.596 1276.62 133.056L1280.85 115.06C1281.83 109.661 1280.13 104.11 1276.34 100.31L1263.66 88.8043C1260 85.5592 1260.85 82.9042 1265.63 82.6092H1283.38C1288.39 82.2026 1292.71 78.7301 1294.37 73.7589L1300 53.9934C1300 49.2732 1303.66 48.9782 1305.35 53.9934L1312.11 73.4639C1314.12 78.3655 1318.58 81.6722 1323.66 82.0191H1341.69C1346.48 82.0191 1347.32 84.6742 1343.94 87.9193L1330.14 100.605C1326.46 104.464 1324.97 110.054 1326.2 115.355L1330.7 131.286C1330.7 136.006 1330.7 137.776 1325.63 135.416L1310.99 125.975C1306.56 123.225 1301.05 123.225 1296.62 125.975L1281.69 136.596Z" fill="#F6D660"/>
<path d="M661.971 1375.63C658.027 1378.58 655.774 1375.63 656.9 1372.09L661.126 1354.1C662.106 1348.7 660.409 1343.14 656.619 1339.34L643.943 1327.84C640.281 1324.59 641.126 1321.94 645.915 1321.64H663.661C668.675 1321.24 672.986 1317.77 674.647 1312.79L680.281 1293.03C680.281 1288.31 683.943 1288.01 685.633 1293.03L692.393 1312.5C694.398 1317.4 698.862 1320.71 703.943 1321.05H721.971C726.76 1321.05 727.605 1323.71 724.224 1326.95L710.422 1339.64C706.74 1343.5 705.245 1349.09 706.478 1354.39L710.985 1370.32C710.985 1375.04 710.985 1376.81 705.915 1374.45L691.267 1365.01C686.838 1362.26 681.329 1362.26 676.9 1365.01L661.971 1375.63Z" fill="#F6D660"/>
<path d="M971.834 1375.63C967.89 1378.58 965.637 1375.63 966.764 1372.09L970.989 1354.1C971.969 1348.7 970.273 1343.14 966.482 1339.34L953.806 1327.84C950.144 1324.59 950.989 1321.94 955.778 1321.64H973.524C978.538 1321.24 982.849 1317.77 984.51 1312.79L990.144 1293.03C990.144 1288.31 993.806 1288.01 995.496 1293.03L1002.26 1312.5C1004.26 1317.4 1008.73 1320.71 1013.81 1321.05H1031.83C1036.62 1321.05 1037.47 1323.71 1034.09 1326.95L1020.28 1339.64C1016.6 1343.5 1015.11 1349.09 1016.34 1354.39L1020.85 1370.32C1020.85 1375.04 1020.85 1376.81 1015.78 1374.45L1001.13 1365.01C996.701 1362.26 991.192 1362.26 986.764 1365.01L971.834 1375.63Z" fill="#F6D660"/>
<path d="M1281.69 1375.63C1277.75 1378.58 1275.49 1375.63 1276.62 1372.09L1280.85 1354.1C1281.83 1348.7 1280.13 1343.14 1276.34 1339.34L1263.66 1327.84C1260 1324.59 1260.85 1321.94 1265.63 1321.64H1283.38C1288.39 1321.24 1292.71 1317.77 1294.37 1312.79L1300 1293.03C1300 1288.31 1303.66 1288.01 1305.35 1293.03L1312.11 1312.5C1314.12 1317.4 1318.58 1320.71 1323.66 1321.05H1341.69C1346.48 1321.05 1347.32 1323.71 1343.94 1326.95L1330.14 1339.64C1326.46 1343.5 1324.97 1349.09 1326.2 1354.39L1330.7 1370.32C1330.7 1375.04 1330.7 1376.81 1325.63 1374.45L1310.99 1365.01C1306.56 1362.26 1301.05 1362.26 1296.62 1365.01L1281.69 1375.63Z" fill="#F6D660"/>
<path d="M43.1009 96.4766C20.5026 128.309 8.16971 166.85 7.88965 206.515V1217.51C7.9294 1257.58 20.2744 1296.57 43.1009 1328.73L993.805 711.864L43.1009 96.4766Z" fill="#52C162"/>
<path d="M1979.72 206.515C1979.2 166.75 1966.57 128.199 1943.67 96.4766L993.807 713.339L1943.67 1330.2C1966.49 1298.05 1978.84 1259.05 1978.88 1218.98L1979.72 206.515Z" fill="#52C162"/>
<path d="M993.807 905.097C1094.93 905.097 1176.91 819.245 1176.91 713.341C1176.91 607.438 1094.93 521.586 993.807 521.586C892.684 521.586 810.708 607.438 810.708 713.341C810.708 819.245 892.684 905.097 993.807 905.097Z" fill="#ED5565"/>
<path d="M942.257 813.339C933.243 820.124 927.891 816.289 930.426 804.784L940.285 762.598C942.541 749.991 938.629 737.038 929.863 728.082L901.694 701.236C893.243 693.566 895.497 687.076 906.482 686.781H947.891C959.768 685.898 969.981 677.643 973.806 665.835L985.919 619.519C989.018 608.308 994.651 608.013 998.595 619.519L1014.09 663.77C1018.87 675.697 1029.91 683.558 1042.26 683.831H1084.51C1095.5 683.831 1097.75 690.321 1089.3 697.991L1057.19 727.492C1048.49 736.356 1044.86 749.336 1047.61 761.713L1057.75 798.884C1060.85 810.094 1055.78 814.224 1046.2 808.324L1011.83 786.198C1001.48 779.866 988.669 779.866 978.313 786.198L942.257 813.339Z" fill="#F6D660"/>
</svg>
