<svg width="2000" height="1417" viewBox="0 0 2000 1417" fill="none" xmlns="http://www.w3.org/2000/svg">
<g clip-path="url(#clip0)">
<path d="M2000 0H0V1416.04H2000V0Z" fill="white"/>
<path d="M0 708.019H2000V1416.04H0V708.019ZM333.333 708.019C333.333 833.205 380.159 953.263 463.508 1041.78C546.858 1130.3 659.904 1180.03 777.778 1180.03C895.652 1180.03 1008.7 1130.3 1092.05 1041.78C1175.4 953.263 1222.22 833.205 1222.22 708.019C1222.22 582.833 1175.4 462.775 1092.05 374.255C1008.7 285.736 895.652 236.006 777.778 236.006C659.904 236.006 546.858 285.736 463.508 374.255C380.159 462.775 333.333 582.833 333.333 708.019" fill="#D00C33"/>
</g>
<defs>
<clipPath id="clip0">
<rect width="2000" height="1416.04" rx="186" fill="white"/>
</clipPath>
</defs>
</svg>
