<svg width="2000" height="1417" viewBox="0 0 2000 1417" fill="none" xmlns="http://www.w3.org/2000/svg">
<path d="M204.784 20.0551C106.168 19.8907 25.9678 103.224 25.3477 206.5V1217.49C25.3477 1321.12 105.558 1405.12 204.503 1405.12H683.376C683.376 942.94 683.376 480.76 683.376 18.5801L204.784 20.0551Z" fill="#8CBAE2"/>
<path d="M683.098 20.0508C683.098 482.231 683.098 944.41 683.098 1406.59H1340.84C1340.84 944.41 1340.84 482.231 1340.84 20.0508H683.098Z" fill="white"/>
<path d="M1818.03 20.0508H1340.56C1340.56 482.231 1340.56 944.41 1340.56 1406.59H1818.03C1916.97 1406.59 1997.18 1322.59 1997.18 1218.96V206.496C1996.56 103.335 1916.53 20.0487 1818.03 20.0508Z" fill="#8CBAE2"/>
<path d="M1011.26 860.831C1089.05 860.831 1152.11 794.791 1152.11 713.326C1152.11 631.862 1089.05 565.822 1011.26 565.822C933.476 565.822 870.418 631.862 870.418 713.326C870.418 794.791 933.476 860.831 1011.26 860.831Z" fill="#52C162"/>
<path d="M1011.27 831.325C1073.5 831.325 1123.94 778.493 1123.94 713.322C1123.94 648.15 1073.5 595.318 1011.27 595.318C949.037 595.318 898.59 648.15 898.59 713.322C898.59 778.493 949.037 831.325 1011.27 831.325Z" fill="#FFCE54"/>
</svg>
