<svg width="2000" height="1417" viewBox="0 0 2000 1417" fill="none" xmlns="http://www.w3.org/2000/svg">
<g clip-path="url(#clip0)">
<path d="M1823.94 0H181.128C98.047 10.9588 31.8903 79.6255 19.1562 168.117V1244.31C33.0685 1341.98 111.568 1414.17 203.945 1414.23H1801.69C1851.3 1414.23 1898.87 1393.16 1933.95 1355.64C1969.03 1318.12 1988.73 1267.24 1988.73 1214.18V198.246C1988.55 97.1129 1917.83 12.0322 1823.94 0Z" fill="#4658A9"/>
<path d="M1822.25 30.1349C1901.24 41.3156 1960.27 113.338 1960.28 198.553V1214.49C1960.13 1308.26 1889.09 1384.25 1801.41 1384.41H203.663C126.098 1383.97 60.0387 1323.99 47.0436 1242.2V170.534C58.5614 96.92 113.643 39.9627 182.818 30.1349H1822.25ZM1823.94 0.00636293H181.128C98.047 10.9651 31.8903 79.6318 19.1562 168.123V1244.31C33.0685 1341.99 111.568 1414.18 203.945 1414.24H1801.69C1851.3 1414.24 1898.87 1393.16 1933.95 1355.64C1969.03 1318.13 1988.73 1267.24 1988.73 1214.19V198.252C1988.71 97.1062 1918.11 11.8913 1824.23 -0.294922L1823.94 0.00636293Z" fill="#EC5565"/>
<path d="M1011.83 227.171C1007.03 223.149 1000.29 223.149 995.492 227.171C949.577 266.037 725.352 468.199 725.352 702.9C725.352 926.454 929.295 1124.7 987.887 1178.33C997.085 1186.29 1010.24 1186.29 1019.44 1178.33C1078.31 1128.62 1279.72 941.518 1279.72 702.599C1279.72 451.93 1057.75 263.627 1011.83 227.171ZM1003.38 274.473C1003.38 274.473 756.056 471.513 756.056 703.804C756.056 936.095 1003.38 1138.86 1003.38 1138.86C1003.38 1138.86 1249.3 952.967 1249.3 703.804C1249.3 454.641 1003.38 274.172 1003.38 274.172V274.473Z" fill="#EC5565"/>
<path d="M1003.38 274.172C1003.38 274.172 756.055 471.212 756.055 703.503C756.055 935.794 1003.38 1138.56 1003.38 1138.56C1003.38 1138.56 1249.29 952.666 1249.29 703.503C1249.29 454.34 1003.38 274.172 1003.38 274.172Z" fill="#92DBFC"/>
<path d="M1223.1 845.717H784.223C849.293 1012.93 1003.1 1139.17 1003.1 1139.17C1003.1 1139.17 1159.72 1020.16 1223.1 845.717Z" fill="#3CAFDA"/>
<path d="M1239.44 794.492C1198.87 824.621 970.985 810.46 970.985 810.46L958.309 845.108H1229.86C1229.86 840.288 1233.8 834.563 1234.65 829.743L1239.44 794.492Z" fill="#E77329"/>
<path d="M830.988 938.211C842.571 938.445 853.947 941.539 864.228 947.249C879.304 955.653 896.3 959.309 913.242 957.794C934.087 957.794 950.425 974.666 972.96 975.269C1014.37 975.269 1031.83 998.468 999.721 998.468C978.655 994.381 957.406 991.465 936.059 989.73C915.753 989.283 895.901 996.184 879.721 1009.31C862.235 986.615 845.965 962.876 830.988 938.211ZM912.96 1048.78C920.808 1041.2 930.637 1036.36 941.129 1034.92C960.566 1034.92 967.045 1021.37 989.58 1021.37C1016.58 1023.84 1043.78 1021.08 1069.86 1013.23C1105.64 1004.49 1088.73 977.679 1067.04 967.737C1045.35 957.794 1016.62 967.737 996.34 959.301C980.847 952.974 993.523 942.429 1001.97 940.32C1011.45 939.673 1020.97 940.691 1030.14 943.333C1049.61 944.713 1069.17 943.803 1088.45 940.621C1122.26 935.198 1120.85 924.352 1137.19 924.352C1147.34 923.867 1157.13 920.2 1165.35 913.807C1174.93 906.877 1184.79 893.018 1196.34 893.621H1203.1C1153.52 989.235 1085.55 1072.52 1003.66 1137.96C971.397 1110.69 941.077 1080.88 912.96 1048.78Z" fill="#F2D660"/>
<path d="M1076.9 940.624C1077.86 956.818 1089.93 969.723 1105.07 970.752C1122.81 975.573 1149.86 956.893 1133.24 939.117C1116.62 921.341 1100.28 918.329 1086.2 903.264C1056.44 869.119 1033.53 828.825 1018.87 784.859C1003.1 734.545 1005.91 592.639 1006.48 520.934C1006.48 520.934 1008.45 520.934 1008.73 519.126C1009.01 517.318 1010.7 519.126 1008.73 509.183C1008.73 506.472 1006.2 503.76 1006.2 501.049C1006.2 498.337 990.421 506.472 986.195 514.908C986.195 517.017 989.294 522.44 989.294 523.645C989.294 592.639 982.815 728.519 999.998 790.282C1010.84 824.462 1026.82 856.519 1047.32 885.187C1059.79 901.925 1069.77 920.625 1076.9 940.624Z" fill="#8C4200"/>
<path d="M873.241 739.054H871.551C865.953 738.251 860.629 735.974 856.058 732.425C849.584 726.938 845.426 718.912 844.509 710.13C844.132 706.123 844.132 702.086 844.509 698.079C845.364 691.269 847.891 684.824 851.833 679.399L856.34 674.88C859.618 672.289 863.356 670.444 867.326 669.457C873.973 667.58 880.961 667.58 887.608 669.457C892.094 670.944 896.033 673.894 898.875 677.893C900.986 681.182 902.514 684.859 903.382 688.739C903.586 690.051 902.87 691.327 901.692 691.752H897.467C893.523 691.752 892.96 691.752 892.115 691.752C891.27 691.752 892.115 691.752 892.115 689.04V685.726C891.65 684.592 890.98 683.568 890.143 682.713C889.354 681.805 888.394 681.086 887.326 680.604C883.818 678.829 879.899 678.2 876.058 678.797C872.913 679.211 869.912 680.453 867.326 682.412C862.141 687.582 859.532 695.059 860.284 702.598C859.117 712.892 865.89 722.282 875.495 723.688C878.203 724.113 880.955 724.113 883.664 723.688C887.145 722.872 890.476 721.447 893.523 719.47V711.637H873.241C873.241 711.637 873.241 711.637 873.241 706.515C873.241 701.393 873.241 701.996 873.241 701.393H901.41V713.746C901.41 726.4 901.41 727.002 901.41 727.906L899.439 729.714C893.605 734.455 886.707 737.469 879.439 738.451L873.241 739.054Z" fill="#EC5565"/>
<path d="M942.534 739.662C936.583 739.465 930.891 737.009 926.478 732.733C922.368 728.089 920.053 721.954 919.999 715.559C919.999 713.149 919.999 710.739 919.999 692.36C919.469 685.241 919.469 678.088 919.999 670.969H925.07C929.577 670.969 929.577 670.969 930.422 670.969V692.963C930.422 711.944 930.422 714.656 930.422 716.162C930.458 718.87 931.467 721.459 933.239 723.393C935.503 725.705 938.564 726.906 941.689 726.707C944.672 726.988 947.673 726.471 950.422 725.201C952.957 725.201 954.366 721.585 955.211 716.765C955.684 709.04 955.684 701.29 955.211 693.566C955.211 669.764 955.211 671.572 955.211 670.668H960.563C965.915 670.668 965.633 670.668 966.478 670.668V689.95C966.975 698.88 966.975 707.834 966.478 716.765C966.089 723.281 963.117 729.31 958.309 733.335L954.647 735.746C952.081 737.122 949.322 738.038 946.478 738.457L942.534 739.662Z" fill="#EC5565"/>
<path d="M1022.26 738.46C1021.85 737.714 1021.85 736.796 1022.26 736.05C1022.26 736.05 1045.07 672.177 1045.64 671.876C1046.2 671.575 1045.64 671.876 1051.83 671.876C1058.03 671.876 1057.47 671.876 1058.03 671.876L1070.42 704.415C1081.13 732.434 1082.54 736.351 1082.54 737.255C1082.84 737.921 1082.84 738.698 1082.54 739.364C1082.54 739.364 1082.54 739.364 1076.62 739.364H1071.27C1071.27 739.364 1071.27 739.364 1067.04 729.12L1063.95 720.986H1042.54L1039.44 729.723L1036.34 738.761C1036.34 738.761 1036.34 738.761 1030.99 738.761L1022.26 738.46ZM1056.34 706.524L1050.42 689.351L1044.23 706.825H1056.9L1056.34 706.524Z" fill="#EC5565"/>
<path d="M1098.6 738.451C1097.81 738.146 1097.19 737.484 1096.91 736.643C1096.91 736.643 1096.91 725.496 1096.91 703.803V670.963C1096.91 670.963 1096.91 670.963 1104.79 670.963H1111.84L1119.44 694.463L1126.77 717.662L1134.37 694.764C1138.88 680.303 1141.98 671.565 1142.26 671.264C1142.54 670.963 1142.26 671.264 1149.58 671.264H1156.06V704.406C1156.06 734.534 1156.06 736.944 1156.06 737.246H1151.55C1147.05 737.246 1147.05 737.246 1146.48 737.246V699.585V701.995L1140.29 720.675C1138.87 726.505 1136.89 732.16 1134.37 737.547H1125.64L1119.44 718.265L1113.24 699.284C1113.24 699.284 1113.24 707.72 1113.24 717.963C1113.24 739.053 1113.24 737.246 1113.24 738.15H1098.6V738.451Z" fill="#EC5565"/>
<path d="M840.002 499.536C840.47 502.427 840.47 505.382 840.002 508.273C840.002 508.273 855.776 494.715 855.776 495.318C855.776 495.92 855.776 504.356 855.776 504.356C855.776 504.356 870.988 488.69 871.833 490.497C872.196 494.102 872.196 497.738 871.833 501.343L883.945 487.183C883.945 485.677 883.945 488.991 883.945 494.715C883.945 494.715 900.565 481.459 901.692 481.157C902.819 480.856 904.509 488.388 904.509 490.497C904.509 492.606 920.002 481.157 919.157 482.363V490.799C925.923 488.603 932.933 487.387 940.002 487.183C941.973 487.183 941.973 487.183 940.002 489.292C911.845 500.148 888.325 521.557 873.805 549.549C870.207 555.208 868.518 562.009 869.016 568.831C869.016 568.831 874.368 556.479 880.565 554.671C880.565 554.671 880.565 562.504 882.819 562.203C884.946 556.327 887.587 550.678 890.706 545.331C890.706 545.331 892.959 551.959 894.086 550.754C895.62 545.62 898.005 540.824 901.128 536.594C901.128 536.594 903.1 544.427 903.664 543.825C904.227 543.222 912.959 527.254 914.931 526.35C916.903 525.446 916.34 536.293 917.748 535.389C920.529 528.982 924.236 523.085 928.734 517.914C931.269 516.106 931.269 526.049 931.269 526.049C936.288 520.189 940.901 513.946 945.072 507.369C945.072 505.561 945.072 519.421 947.044 520.023C949.016 520.626 960.002 509.478 961.41 509.177C962.819 508.876 963.1 512.491 961.41 515.203L947.326 532.376C950.143 532.376 950.988 532.376 952.959 532.376C954.931 532.376 942.255 544.126 942.537 545.934C942.819 547.741 950.424 545.934 947.889 545.934C945.354 545.934 935.495 561.601 935.495 560.998C935.495 560.395 940.847 560.998 940.847 562.806C938.556 569.247 935.629 575.408 932.114 581.184C932.114 581.184 936.903 581.184 937.466 581.184C938.03 581.184 928.452 596.55 930.424 598.659C932.396 600.768 936.34 598.659 938.593 598.659C940.689 605.689 941.92 612.981 942.255 620.351C943.654 611.082 945.63 601.922 948.171 592.934C948.171 589.017 954.086 598.659 954.368 597.755C953.893 591.136 953.893 584.488 954.368 577.87C954.368 576.062 957.748 579.678 957.748 577.87C957.328 574.067 957.328 570.224 957.748 566.421C957.748 563.709 961.128 571.543 961.974 569.434C960.395 563.771 959.728 557.862 960.002 551.959C960.002 549.549 963.1 557.985 964.509 558.286C963.804 553.9 963.804 549.417 964.509 545.03L969.016 550.453C969.016 548.645 969.016 532.376 970.706 530.869C972.396 529.363 976.34 536.895 976.903 535.991C977.466 535.087 974.931 522.735 975.495 521.831C976.058 520.927 981.692 525.145 981.692 525.145C981.692 525.145 983.664 517.01 984.79 514.901C985.917 512.792 1001.13 508.273 1002.54 512.491C1003.08 514.968 1003.08 517.546 1002.54 520.023C1004.87 520.37 1007.24 520.37 1009.58 520.023C1009.2 524.734 1009.2 529.472 1009.58 534.184C1009.58 534.184 1016.34 534.184 1016.62 534.184C1016.62 541.113 1016.62 541.716 1016.62 541.716C1016.62 541.716 1021.13 541.716 1021.41 541.716C1021.76 545.822 1020.87 549.94 1018.87 553.466H1025.35C1026.21 559.053 1026.21 564.751 1025.35 570.338C1025.35 570.338 1032.11 565.216 1032.11 565.819C1032.11 572.146 1032.11 578.774 1032.11 585.402C1032.11 585.402 1036.62 580.883 1036.9 582.69C1037.18 584.498 1036.9 596.851 1036.9 597.453C1039.52 597.135 1042.17 597.135 1044.79 597.453C1048.27 601.777 1049.9 607.455 1049.3 613.12C1050.9 605.076 1050.9 596.76 1049.3 588.716C1049.3 588.716 1054.93 588.716 1054.65 586.908C1050.01 583.218 1046.96 577.675 1046.2 571.543C1046.2 569.133 1052.11 569.735 1052.11 569.735C1052.11 569.735 1047.04 564.613 1044.51 560.094C1041.97 555.575 1051.27 557.985 1051.27 557.684C1051.27 557.383 1044.79 551.357 1041.41 547.139C1038.03 542.921 1048.45 545.03 1048.45 545.03C1048.45 545.03 1038.03 539.908 1033.8 535.087C1029.58 530.267 1041.97 529.966 1041.97 529.363C1041.97 528.76 1030.99 524.241 1026.2 520.023C1021.41 515.805 1032.4 516.106 1032.4 516.106C1032.4 516.106 1016.06 503.452 1023.95 504.356C1027.33 504.356 1034.09 509.779 1034.65 509.177C1034.32 506.779 1034.32 504.344 1034.65 501.946C1037.18 498.933 1046.2 514.299 1049.3 513.696C1052.4 513.094 1049.3 502.85 1051.83 502.549C1054.37 502.247 1059.16 518.517 1062.54 518.517C1065.92 518.517 1062.54 508.876 1064.79 508.273C1067.04 507.671 1068.73 519.119 1071.27 521.53C1073.8 523.94 1073.52 512.792 1074.93 514.901C1076.34 517.01 1077.75 525.446 1080.85 528.76C1083.95 532.075 1083.1 518.818 1085.35 520.626C1087.61 522.433 1087.33 528.76 1090.14 531.773C1092.96 534.786 1092.4 523.94 1094.09 525.145C1095.78 526.35 1096.34 537.799 1097.75 539.607C1099.16 541.414 1101.69 533.581 1103.66 534.786C1105.64 535.991 1103.66 545.632 1105.92 547.741C1108.17 549.85 1109.86 542.318 1111.83 543.825C1113.8 545.331 1115.78 556.177 1116.9 557.081C1118.03 557.985 1120.85 551.959 1122.54 552.863C1124.23 553.767 1126.76 568.229 1127.89 567.928C1129.91 551.584 1126.63 534.994 1118.59 520.927C1096.52 498.053 1067.07 485.112 1036.34 484.773C1036.34 484.773 1050.42 481.76 1050.99 479.35C1051.55 476.939 1058.87 474.83 1063.66 476.036C1068.45 477.241 1063.66 467.298 1063.66 466.997C1068.19 467.539 1072.48 469.417 1076.06 472.42C1076.06 472.42 1073.52 463.382 1076.06 464.285C1078.59 465.189 1087.33 468.503 1090.99 472.721C1094.65 476.939 1090.99 465.189 1090.99 465.189C1090.99 465.189 1098.87 468.503 1101.13 472.42C1103.38 476.337 1101.13 462.176 1101.13 464.285C1101.13 466.394 1110.42 467.6 1111.55 471.818C1112.68 476.036 1111.55 464.285 1113.52 464.587C1115.49 464.888 1120.56 472.42 1123.66 473.324C1126.76 474.228 1123.66 466.394 1123.66 466.696C1128.76 468.318 1133.67 470.541 1138.31 473.324C1134.37 462.779 1119.16 451.33 1092.68 448.619C1078.82 447.476 1064.89 448.389 1051.27 451.33C1037.47 454.644 1026.48 456.753 1028.73 454.343C1037.12 447.864 1046.74 443.441 1056.9 441.388C1059.72 439.881 1047.04 434.458 1049.58 433.856C1052.11 433.253 1063.38 432.349 1063.38 432.349C1063.38 432.349 1055.21 426.323 1056.62 423.311C1058.03 420.298 1078.59 423.311 1080.28 420.599C1081.97 417.888 1072.11 414.272 1072.68 413.67C1073.24 413.067 1090.71 415.778 1091.27 413.67L1082.54 406.137L1097.47 401.317C1095.57 399.802 1093.49 398.584 1091.27 397.701C1088.17 397.701 1104.79 391.676 1104.79 391.676C1083.66 381.432 1028.45 410.958 1017.47 441.388C1014.65 448.619 1014.65 441.388 1015.21 434.458C1015.82 428.248 1015.82 421.988 1015.21 415.779C1015.21 413.971 1010.71 420.599 1010.42 418.791C1010.42 412.163 1012.68 405.234 1010.42 398.003C1010.42 395.592 1004.23 405.234 1003.38 402.823C1002.54 400.413 1005.07 386.855 1003.38 377.515C1003.38 373.9 997.466 385.349 995.495 382.035C993.523 378.72 995.495 364.56 993.241 362.451C990.987 360.342 987.607 369.079 987.326 367.573C980.847 342.265 989.579 338.951 976.903 353.412C976.903 353.412 973.804 338.348 973.241 338.951C968.171 350.701 959.72 330.515 956.903 332.323C954.086 334.13 962.819 341.662 962.819 344.977C962.819 348.291 955.495 346.784 955.495 346.784C955.495 346.784 969.579 357.932 970.142 360.945C970.706 363.957 960.283 363.054 960.283 363.054C960.283 363.054 972.114 369.983 972.959 373.9C973.804 377.817 967.607 376.31 967.607 378.419C967.607 380.528 978.875 388.06 979.157 391.374C979.438 394.689 972.114 394.689 972.114 396.798C972.114 398.907 986.48 407.945 986.762 410.657C987.044 413.368 980.847 412.464 978.311 413.971C975.776 415.477 990.424 426.323 990.988 429.035C991.551 431.747 984.79 429.035 984.509 431.445C984.227 433.856 992.114 438.977 994.086 443.798C996.058 448.619 994.086 450.125 991.269 448.016C988.452 445.907 964.509 419.695 958.875 413.368C947.649 401.354 932.744 394.079 916.903 392.881C915.213 392.881 925.917 401.618 925.917 404.631C925.917 407.644 921.128 406.439 921.41 406.74C925.219 409.658 929.391 411.99 933.805 413.67L931.269 418.791C931.269 418.791 936.34 420.599 943.382 423.311C943.382 423.311 938.03 426.926 938.593 427.227C941.985 429.604 945.687 431.432 949.579 432.65L942.537 435.061L958.593 443.497C956.883 445.078 955.283 446.79 953.804 448.619C958.09 450.447 962.521 451.858 967.044 452.837L958.593 456.151C961.692 459.465 970.424 460.67 972.678 466.394C972.678 466.394 972.678 469.709 970.424 469.106C946.636 457.885 920.461 453.722 894.65 457.055C865.193 462.21 838.853 479.655 821.41 505.562C821.41 505.562 838.312 497.125 840.002 499.536Z" fill="#51C161"/>
<path d="M1008.45 524.853C1021.53 515.842 1025.3 497.197 1016.87 483.209C1008.45 469.22 991.017 465.186 977.938 474.197C964.86 483.209 961.088 501.853 969.513 515.842C977.938 529.83 995.37 533.864 1008.45 524.853Z" fill="#8C4200"/>
<path d="M1029.61 531.303C1038.03 517.315 1034.26 498.67 1021.18 489.659C1008.1 480.647 990.673 484.682 982.247 498.67C973.822 512.658 977.594 531.303 990.673 540.314C1003.75 549.326 1021.18 545.291 1029.61 531.303Z" fill="#8C4200"/>
<path d="M1017.24 540.305C1025.67 526.317 1021.89 507.672 1008.82 498.661C995.738 489.649 978.306 493.684 969.88 507.672C961.455 521.66 965.227 540.305 978.306 549.316C991.384 558.328 1008.82 554.293 1017.24 540.305Z" fill="#8C4200"/>
<path d="M939.724 884.877H911.555V915.005H939.724V884.877Z" fill="#434A54"/>
<path d="M845.068 891.514C892.049 895.417 939.289 893.699 985.913 886.393C985.913 886.393 990.42 889.707 983.942 897.841C977.463 905.976 961.125 907.784 952.11 909.29C951.044 911.763 950.377 914.412 950.139 917.124C950.139 919.835 955.772 919.534 958.589 918.931H961.406C961.406 918.931 961.406 929.175 927.04 930.38C916.054 930.38 880.279 930.38 872.674 920.136C875.39 920.423 878.126 920.423 880.843 920.136C882.533 920.136 880.843 912.303 880.843 911.098C868.324 910.686 856.149 906.623 845.632 899.348C843.513 897.134 842.044 894.307 841.406 891.213L845.068 891.514ZM890.702 911.098C907.837 913.05 925.117 913.05 942.251 911.098C942.848 913.67 942.848 916.359 942.251 918.931C926.018 921.728 909.471 921.728 893.237 918.931C889.575 918.931 889.575 915.617 890.42 911.399L890.702 911.098Z" fill="#8C4200"/>
<path d="M856.902 886.987C879.364 854.252 887.574 812.763 879.438 773.102C908.166 785.213 932.268 807.278 947.888 835.769C958.229 850.501 965.7 867.303 969.86 885.18L856.902 886.987Z" fill="#FDF9FF"/>
</g>
<defs>
<clipPath id="clip0">
<rect width="2000" height="1416.04" fill="white"/>
</clipPath>
</defs>
</svg>
