<svg width="2000" height="1417" viewBox="0 0 2000 1417" fill="none" xmlns="http://www.w3.org/2000/svg">
<path d="M1814.37 20.0664H200.848C101.904 20.0664 21.6934 104.069 21.6934 207.692V1218.98C21.6934 1322.6 101.904 1406.61 200.848 1406.61H1814.37C1913.31 1406.61 1993.52 1322.6 1993.52 1218.98V207.692C1993.52 104.069 1913.31 20.0664 1814.37 20.0664Z" fill="#52C162"/>
<path d="M97.7497 54.5781C50.0404 89.6757 21.6581 146.922 21.6934 207.982V1218.98C21.6966 1282.89 52.8108 1342.38 104.229 1376.81L1665.92 731.032L97.7497 54.5781Z" fill="white"/>
<path d="M40.0035 125.385C27.9326 151.084 21.6678 179.347 21.6936 207.987V1218.98C21.6412 1249.86 28.9001 1280.27 42.8204 1307.48L1440.29 729.857L40.0035 125.385Z" fill="#FFCE54"/>
<path d="M67.3238 82.8984C37.7688 117.208 21.4093 161.774 21.4083 207.982V1218.98C21.37 1267.51 39.3499 1314.16 71.5491 1349.07L916.62 731.032L67.3238 82.8984Z" fill="#434A54"/>
<path d="M28.1868 161.676C24.4747 176.809 22.5822 192.368 22.553 207.992V1218.99C22.5256 1237.06 24.9924 1255.05 29.8769 1272.38L771.285 729.567L28.1868 161.676Z" fill="#ED5565"/>
</svg>
