<svg width="2000" height="1417" viewBox="0 0 2000 1417" fill="none" xmlns="http://www.w3.org/2000/svg">
<path d="M1791.83 22.125H194.087C90.7866 22.125 7.04492 109.826 7.04492 218.011V1212.78C7.04492 1320.96 90.7866 1408.66 194.087 1408.66H1791.83C1895.13 1408.66 1978.88 1320.96 1978.88 1212.78V218.011C1978.88 109.826 1895.13 22.125 1791.83 22.125Z" fill="#EC5565"/>
<path d="M1014.09 324.51C1031.04 321.779 1048.23 320.988 1065.35 322.15C1049.96 329.864 1037.47 342.738 1029.86 358.731C1021.81 377.495 1021.81 398.969 1029.86 417.732C1034.09 428.648 1041.69 437.793 1045.07 449.003C1051.67 471.601 1050.57 495.894 1041.97 517.74C1035.44 536.819 1024.16 553.724 1009.3 566.712C1001.41 573.497 991.268 576.742 982.818 582.937C958.839 598.312 943.024 624.464 940.001 653.739C938.077 676.875 945.541 699.79 960.564 716.871C932.195 693.897 913.5 660.241 908.452 623.058C902.657 584.78 910.26 545.599 929.86 512.725L925.071 509.48C890.052 568.007 893.421 643.156 933.522 697.99C939.26 705.509 945.779 712.336 952.959 718.346C925.456 703.961 901.021 683.89 881.128 659.344C856.709 628.336 842.31 590.016 840.001 549.896C834.234 439.124 909.444 341.75 1014.09 324.51ZM938.311 449.593C938.311 458.05 938.78 466.507 939.719 474.964L918.311 487.649L941.973 493.845L946.761 518.92L959.719 497.385L983.945 500.335L968.452 480.569L978.592 457.559L956.057 466.999L938.311 449.593Z" fill="white"/>
<path d="M624.227 649.017C612.876 602.672 616.137 553.725 633.523 509.479C635.782 527.176 643.613 543.578 655.776 556.09C670.087 568.965 688.853 575.053 707.607 572.905C719.72 572.905 731.269 567.005 743.663 567.3C767.956 568.604 790.973 579.085 808.452 596.801C820.669 608.075 830.298 622.092 836.621 637.807C841.692 649.902 840.846 663.768 845.072 676.158C853.259 706.326 875.382 730.16 903.945 739.585C921.83 744.908 940.916 743.659 958.03 736.045C927.991 757.069 891.311 765.006 855.776 758.17C819.812 751.759 787.178 732.214 763.663 703.004L759.438 706.839C782.201 735.184 813.317 754.798 847.889 762.596C881.858 770.689 917.463 765.989 948.452 749.32C950.987 747.55 955.494 747.255 955.776 743.125V745.485C948.734 750.5 943.1 756.99 936.339 762.301C911.161 784.133 881.287 799.219 849.297 806.257C813.593 813.555 776.622 809.55 743.1 794.752C683.717 768.547 639.221 715.087 622.537 649.902L624.227 649.017ZM728.17 638.397C728.17 646.952 728.17 655.213 729.579 663.768L708.452 676.453L731.551 682.353C733.804 690.614 734.931 699.169 736.621 707.724L749.579 686.188L773.804 689.139L758.311 669.373L768.452 646.362L745.917 655.508L728.17 638.397Z" fill="white"/>
<path d="M1111.55 533.372C1178.6 514.277 1250.32 531.424 1302.82 579.099C1335.35 609.211 1358.26 649.066 1368.45 693.267C1356.33 679.807 1340.08 671.243 1322.54 669.076C1303.81 668.084 1285.51 675.113 1271.83 688.547C1262.82 696.512 1256.62 707.427 1246.76 714.507C1225.11 729.232 1198.98 734.917 1173.52 730.438C1152.23 728.37 1132.29 718.559 1117.18 702.707C1104.47 688.425 1088.16 678.199 1070.14 673.206C1047.08 666.645 1022.43 670.84 1002.54 684.712C992.849 691.808 984.692 700.953 978.592 711.557C989.657 679.444 1011.34 652.547 1039.72 635.74C1074.22 614.559 1115.25 608.314 1154.08 618.335L1155.77 612.73C1082.39 592.679 1005.92 631.101 974.93 703.592C980.104 667.12 993.635 632.502 1014.37 602.699C1038.6 569.09 1072.77 544.819 1111.55 533.667V533.372ZM1172.96 598.274C1172.96 606.829 1172.96 615.385 1174.37 623.645L1153.24 636.035L1176.9 642.525C1178.59 650.786 1180 659.046 1181.69 667.601L1194.93 646.065L1219.16 649.016L1203.66 629.25L1213.8 606.239L1191.27 615.68L1172.96 598.274Z" fill="white"/>
<path d="M992.958 721.596C1030 714.921 1068.06 718.48 1103.38 731.921C1141.7 747.338 1173.94 775.81 1194.93 812.753C1231.94 878.084 1233.86 958.866 1200 1026.04C1182.13 1060.4 1156.02 1089.28 1124.23 1109.83C1133.74 1091.82 1135.97 1070.57 1130.42 1050.83C1122.03 1028.82 1104.83 1011.78 1083.38 1004.21C1062.13 994.683 1045.54 976.452 1037.47 953.767C1028.01 930.813 1025.64 905.333 1030.7 880.9C1034.55 869.794 1039.07 858.955 1044.23 848.449C1053.63 823.881 1052.91 796.335 1042.25 772.337C1031.62 748.627 1010.58 731.875 985.916 727.496C1014.89 727.718 1042.96 738.105 1065.63 756.997C1101.33 785.198 1123.54 828.273 1126.48 875H1132.11C1127.69 809.138 1086.44 752.271 1027.04 730.151C1015.95 726.204 1004.38 723.919 992.677 723.366L992.958 721.596ZM1109.58 879.72C1109.58 888.276 1109.58 896.831 1109.58 905.681C1102.54 909.516 1095.49 913.646 1088.73 917.776L1112.11 923.972C1113.8 932.232 1115.21 940.787 1116.9 949.047L1129.86 927.512L1154.08 930.462L1138.59 910.696L1148.73 887.686L1126.2 897.126L1109.58 879.72Z" fill="white"/>
<path d="M975.215 739.885C990.314 797.099 972.411 858.294 929.299 896.829C916.442 909.176 901.679 919.151 885.637 926.33L887.609 931.935C942.579 908.573 980.58 855.131 986.201 793.281C987.414 777.639 986.177 761.894 982.539 746.67C999.896 781.587 1008.34 820.611 1007.05 859.953C1004.51 906.92 985.677 951.298 954.088 984.742C905.895 1036.04 836.684 1059.2 769.018 1046.69C732.543 1039.51 698.474 1022.54 670.145 997.427C687.514 1000.75 705.448 997.624 720.849 988.577C736.6 977.783 747.481 960.743 750.99 941.375C753.806 929.575 752.68 916.89 756.623 905.384C764.772 882.473 780.318 863.27 800.567 851.103C815.635 841.017 832.871 835.034 850.708 833.697C861.412 833.697 871.835 836.942 882.539 837.237C910.331 839.189 937.438 827.66 956.06 805.967C970.725 788.166 977.483 764.682 974.652 741.36L975.215 739.885ZM835.497 903.319C835.497 911.875 835.497 920.135 836.905 928.69L815.778 941.08C823.666 943.145 831.835 945.21 839.44 947.866C839.44 956.126 842.539 964.386 843.947 972.646L856.905 951.111L881.13 954.061C876.06 947.571 870.99 941.08 865.637 934.59C868.736 926.625 872.398 918.955 875.778 911.285L853.243 920.725L835.497 903.319Z" fill="white"/>
</svg>
