<svg width="2000" height="1417" viewBox="0 0 2000 1417" fill="none" xmlns="http://www.w3.org/2000/svg">
<g clip-path="url(#clip0)">
<path d="M25.3486 224.499V490.006H1997.18V224.499C1997.18 116.314 1913.44 28.6135 1810.14 28.6135H212.673C163.017 28.5352 115.37 49.1385 80.2316 85.8826C45.0934 122.627 25.3486 172.496 25.3486 224.499Z" fill="#3BAFDA"/>
<path d="M25.3486 953.175H1997.18V490.896H25.3486V953.175Z" fill="white"/>
<path d="M25.352 1218.97C25.0517 1271.17 44.6639 1321.35 79.8347 1358.35C115.006 1395.35 162.825 1416.11 212.676 1416.03H1810.42C1913.72 1416.03 1997.46 1328.33 1997.46 1220.15V954.639H25.6337L25.352 1218.97Z" fill="#3BAFDA"/>
<path d="M974.649 792.977C968.17 797.697 964.508 795.042 966.198 787.077L973.24 757.576C974.747 748.598 971.897 739.422 965.635 733.09L944.79 713.915C938.874 708.605 940.283 703.885 948.17 703.59H976.339C984.767 702.864 991.971 696.945 994.649 688.544L1003.94 655.503C1006.2 647.538 1010.14 647.538 1012.96 655.503L1023.94 687.954C1027.16 696.215 1034.6 701.828 1043.1 702.41H1072.96C1080.85 702.41 1082.54 707.13 1076.62 712.44L1053.8 733.385C1047.66 739.778 1045.11 749.034 1047.04 757.871L1054.37 784.422C1056.62 792.387 1052.96 795.337 1046.2 790.912L1021.97 774.982C1014.6 770.377 1005.4 770.377 998.029 774.982L974.649 792.977Z" fill="#3BAFDA"/>
<path d="M664.792 689.733C658.313 694.453 654.651 691.798 656.342 683.833L663.384 654.332C664.89 645.354 662.04 636.178 655.778 629.846L634.933 610.671C629.018 605.361 630.426 600.64 638.313 600.345H666.482C674.911 599.62 682.114 593.701 684.792 585.3L694.088 552.259C696.341 544.294 700.285 544.294 703.102 552.259L714.088 584.71C717.305 592.971 724.742 598.584 733.243 599.165H763.102C770.989 599.165 772.679 603.886 766.764 609.196L743.947 630.141C737.808 636.533 735.252 645.79 737.187 654.627L744.511 681.178C746.764 689.143 743.102 692.093 736.341 687.668L712.116 671.737C704.741 667.133 695.548 667.133 688.173 671.737L664.792 689.733Z" fill="#3BAFDA"/>
<path d="M664.792 896.227C658.313 900.947 654.651 898.292 656.342 890.327L663.384 860.826C664.89 851.848 662.04 842.672 655.778 836.34L634.933 817.165C629.018 811.855 630.426 807.134 638.313 806.839H666.482C674.911 806.114 682.114 800.195 684.792 791.794L694.088 758.753C696.341 750.788 700.285 750.493 703.102 758.753L714.088 791.204C717.305 799.465 724.742 805.078 733.243 805.659H763.102C770.989 805.659 772.679 810.379 766.764 815.69L743.947 836.635C737.808 843.027 735.252 852.284 737.187 861.121L744.511 887.672C746.764 895.637 743.102 898.587 736.341 894.162L712.116 878.231C704.741 873.627 695.548 873.627 688.173 878.231L664.792 896.227Z" fill="#3BAFDA"/>
<path d="M1284.51 689.733C1278.03 694.453 1274.36 691.798 1276.05 683.833L1283.1 654.332C1284.6 645.354 1281.75 636.178 1275.49 629.846L1254.65 610.671C1248.73 605.361 1250.14 600.64 1258.03 600.345H1286.2C1294.62 599.62 1301.83 593.701 1304.51 585.3L1313.8 552.259C1316.05 544.294 1320 544.294 1322.81 552.259L1333.8 584.71C1337.02 592.971 1344.46 598.584 1352.96 599.165H1382.81C1390.7 599.165 1392.39 603.886 1386.48 609.196L1363.66 630.141C1357.52 636.533 1354.97 645.79 1356.9 654.627L1364.22 681.178C1366.48 689.143 1362.81 692.093 1356.05 687.668L1331.83 671.737C1324.45 667.133 1315.26 667.133 1307.89 671.737L1284.51 689.733Z" fill="#3BAFDA"/>
<path d="M1284.51 896.227C1278.03 900.947 1274.36 898.292 1276.05 890.327L1283.1 860.826C1284.6 851.848 1281.75 842.672 1275.49 836.34L1254.65 817.165C1248.73 811.855 1250.14 807.134 1258.03 806.839H1286.2C1294.62 806.114 1301.83 800.195 1304.51 791.794L1313.8 758.753C1316.05 750.788 1320 750.493 1322.81 758.753L1333.8 791.204C1337.02 799.465 1344.46 805.078 1352.96 805.659H1382.81C1390.7 805.659 1392.39 810.379 1386.48 815.69L1363.66 836.635C1357.52 843.027 1354.97 852.284 1356.9 861.121L1364.22 887.672C1366.48 895.637 1362.81 898.587 1356.05 894.162L1331.83 878.231C1324.45 873.627 1315.26 873.627 1307.89 878.231L1284.51 896.227Z" fill="#3BAFDA"/>
</g>
<defs>
<clipPath id="clip0">
<rect width="2000" height="1416.04" fill="white"/>
</clipPath>
</defs>
</svg>
