<svg width="2000" height="1417" viewBox="0 0 2000 1417" fill="none" xmlns="http://www.w3.org/2000/svg">
<path d="M14.6484 203.845V469.352H1986.48V203.845C1986.48 95.6602 1902.74 7.95921 1799.44 7.95921H201.972C152.317 7.88089 104.67 28.4842 69.5314 65.2284C34.3932 101.973 14.6484 151.842 14.6484 203.845Z" fill="#ED5565"/>
<path d="M14.6484 932.521H1986.48V470.243H14.6484V932.521Z" fill="white"/>
<path d="M14.6484 1198.31C14.6484 1306.5 98.3901 1394.2 201.691 1394.2H1799.44C1902.74 1394.2 1986.48 1306.5 1986.48 1198.31V932.807H14.6484V1198.31Z" fill="#4758A9"/>
<path d="M1022.25 1094.18H983.098C855.125 1094.34 751.169 986.002 750.703 851.979V527.47H1254.65V851.979C1254.18 986.002 1150.23 1094.34 1022.25 1094.18ZM807.041 587.651V853.159C807.507 954.596 886.239 1036.52 983.098 1036.36H1022.25C1119.11 1036.52 1197.84 954.596 1198.31 853.159V587.651H807.041Z" fill="white"/>
<path d="M1136.9 1027.81C1160.58 1010.89 1180.64 988.99 1195.77 963.495H1136.9V1027.81Z" fill="#ED5565"/>
<path d="M1136.9 963.485H1195.77C1213.92 933.014 1224.3 898.172 1225.91 862.297H1136.9V963.485Z" fill="white"/>
<path d="M1136.91 862.301H1225.92C1225.92 859.056 1225.92 855.81 1225.92 852.27V761.113H1136.34L1136.91 862.301Z" fill="#ED5565"/>
<path d="M1226.48 659.635H1136.9V760.823H1226.48V659.635Z" fill="white"/>
<path d="M1226.48 558.143H1136.9V659.331H1226.48V558.143Z" fill="#ED5565"/>
<path d="M1047.32 963.497V1062.03C1079.42 1057.94 1110.12 1045.91 1136.9 1026.92V962.612L1047.32 963.497Z" fill="white"/>
<path d="M1136.9 862.297H1047.32V963.485H1136.9V862.297Z" fill="#ED5565"/>
<path d="M1136.9 760.819H1047.32V862.007H1136.9V760.819Z" fill="white"/>
<path d="M1136.9 659.635H1047.32V760.823H1136.9V659.635Z" fill="#ED5565"/>
<path d="M1136.9 558.143H1047.32V659.331H1136.9V558.143Z" fill="white"/>
<path d="M957.75 963.497V1062.03C966.158 1063.17 974.625 1063.76 983.102 1063.8H1022.26C1030.73 1063.76 1039.2 1063.17 1047.61 1062.03V962.612L957.75 963.497Z" fill="#ED5565"/>
<path d="M1047.33 862.297H957.75V963.485H1047.33V862.297Z" fill="white"/>
<path d="M1047.33 760.819H957.75V862.007H1047.33V760.819Z" fill="#ED5565"/>
<path d="M1047.33 659.635H957.75V760.823H1047.33V659.635Z" fill="white"/>
<path d="M1047.33 558.143H957.75V659.331H1047.33V558.143Z" fill="#ED5565"/>
<path d="M868.449 963.497V1027.81C895.219 1046.43 925.818 1058.16 957.745 1062.03V962.612L868.449 963.497Z" fill="white"/>
<path d="M958.027 862.297H868.449V963.485H958.027V862.297Z" fill="#ED5565"/>
<path d="M958.027 760.819H868.449V862.007H958.027V760.819Z" fill="white"/>
<path d="M958.027 659.635H868.449V760.823H958.027V659.635Z" fill="#ED5565"/>
<path d="M958.027 558.143H868.449V659.331H958.027V558.143Z" fill="white"/>
<path d="M809.578 963.495C824.714 988.99 844.766 1010.89 868.451 1027.81V963.495H809.578Z" fill="#ED5565"/>
<path d="M868.452 862.297H779.438C781.047 898.172 791.425 933.014 809.578 963.485H868.452V862.297Z" fill="white"/>
<path d="M868.449 760.819H778.871V851.976C778.871 855.222 778.871 858.762 778.871 862.007H867.885L868.449 760.819Z" fill="#ED5565"/>
<path d="M868.449 659.635H778.871V760.823H868.449V659.635Z" fill="white"/>
<path d="M868.449 558.143H778.871V659.331H868.449V558.143Z" fill="#ED5565"/>
<path d="M1001.69 472C1073.74 472.027 1145.52 481.139 1215.49 499.141C1223.98 501.326 1232.77 497.029 1236.62 488.816L1296.62 360.782C1299.09 355.515 1299.19 349.371 1296.91 344.014C1294.62 338.658 1290.18 334.641 1284.79 333.051C1098.17 278.869 900.986 278.869 714.365 333.051C709.023 334.708 704.653 338.753 702.426 344.101C700.198 349.449 700.341 355.555 702.815 360.782L762.815 488.816C766.666 497.029 775.458 501.326 783.942 499.141C855.191 480.801 928.32 471.686 1001.69 472Z" fill="#4758A9"/>
</svg>
