<svg width="2000" height="1417" viewBox="0 0 2000 1417" fill="none" xmlns="http://www.w3.org/2000/svg">
<g clip-path="url(#clip0)">
<path d="M1800.56 0.000245416H187.323C88.3788 0.000245416 8.16842 85.7902 8.16842 191.618V723.084H1980V190.714C1979.53 85.1219 1899.29 -0.166955 1800.56 0.000245416V0.000245416Z" fill="#4758A9"/>
<path d="M7.88586 1223.22C7.58543 1274.3 26.3666 1323.39 60.0583 1359.6C93.75 1395.8 139.563 1416.12 187.322 1416.04H1800.56C1899.51 1416.04 1979.72 1330.25 1979.72 1224.42V723.084H7.88231L7.88586 1223.22Z" fill="#ED5565"/>
<path d="M1388.17 356.717H599.435V1057.2H1388.17V356.717Z" fill="white"/>
<path d="M989.294 796.904L599.435 970.143V1057.21H1388.17V970.143L989.294 796.904Z" fill="#57A863"/>
<path d="M1269.01 729.41L1021.69 875.533H1250.98L1269.01 729.41Z" fill="#4758A9"/>
<path d="M994.085 829.143L1182.54 728.514L1157.75 602.275L994.085 796.002" fill="#4758A9"/>
<path d="M1185.92 567.617L994.085 796.293" stroke="#F6D660" stroke-width="0.6" stroke-linecap="round" stroke-linejoin="round"/>
<path d="M1166.37 631.02C1181.03 625.443 1188.68 608.214 1183.47 592.537C1178.25 576.859 1162.15 568.671 1147.49 574.247C1132.83 579.823 1125.17 597.053 1130.39 612.73C1135.6 628.407 1151.71 636.596 1166.37 631.02Z" fill="#F6D660"/>
<path d="M994.085 863.484L1223.38 792.983L1220.28 664.033L995.493 848.118" fill="#4758A9"/>
<path d="M1253.24 635.406L994.364 846.306" stroke="#F6D660" stroke-width="0.6" stroke-linecap="round" stroke-linejoin="round"/>
<path d="M1224.13 693.717C1239.5 691.185 1250.05 675.801 1247.68 659.356C1245.32 642.91 1230.93 631.63 1215.56 634.161C1200.18 636.692 1189.63 652.076 1192 668.522C1194.37 684.968 1208.75 696.248 1224.13 693.717Z" fill="#F6D660"/>
<path d="M993.799 889.092L1307.04 706.814" stroke="#F6D660" stroke-width="0.6" stroke-linecap="round" stroke-linejoin="round"/>
<path d="M1269.01 759.538C1284.57 759.538 1297.18 746.049 1297.18 729.41C1297.18 712.77 1284.57 699.281 1269.01 699.281C1253.45 699.281 1240.84 712.77 1240.84 729.41C1240.84 746.049 1253.45 759.538 1269.01 759.538Z" fill="#F6D660"/>
<path d="M718.869 729.41L736.897 875.533H966.193L718.869 729.41Z" fill="#4758A9"/>
<path d="M993.522 829.143L805.071 728.514L829.86 602.275L993.522 796.002" fill="#4758A9"/>
<path d="M993.523 863.484L764.509 792.983L767.607 664.033L992.396 848.118" fill="#4758A9"/>
<path d="M801.967 567.617L993.517 796.293" stroke="#F6D660" stroke-width="0.6" stroke-linecap="round" stroke-linejoin="round"/>
<path d="M857.31 612.192C862.523 596.515 854.867 579.285 840.21 573.709C825.552 568.133 809.443 576.321 804.23 591.998C799.016 607.676 806.672 624.905 821.33 630.482C835.987 636.058 852.096 627.869 857.31 612.192Z" fill="#F6D660"/>
<path d="M734.647 635.406L993.52 846.306" stroke="#F6D660" stroke-width="0.6" stroke-linecap="round" stroke-linejoin="round"/>
<path d="M796.826 669.49C799.193 653.044 788.646 637.66 773.27 635.129C757.894 632.598 743.51 643.878 741.144 660.324C738.777 676.77 749.323 692.154 764.7 694.685C780.076 697.216 794.459 685.936 796.826 669.49Z" fill="#F6D660"/>
<path d="M994.081 889.092L680.56 706.814" stroke="#F6D660" stroke-width="0.6" stroke-linecap="round" stroke-linejoin="round"/>
<path d="M718.592 759.538C734.149 759.538 746.761 746.049 746.761 729.41C746.761 712.77 734.149 699.281 718.592 699.281C703.034 699.281 690.423 712.77 690.423 729.41C690.423 746.049 703.034 759.538 718.592 759.538Z" fill="#F6D660"/>
<path d="M912.954 822.508L1021.69 797.803L1072.39 817.386L1116.9 913.496L989.01 948.747L870.982 912.894L912.954 822.508Z" fill="#ED5565"/>
<path d="M1116.9 829.435C1117.58 776.291 1088.33 727.92 1042.73 706.801C997.126 685.682 944.126 695.958 908.359 732.853C872.591 769.749 861.071 826.026 879.153 875.531H1108.73C1114.04 860.82 1116.8 845.202 1116.9 829.435Z" fill="#ED5565"/>
<path d="M821.973 976.759C850.443 976.759 873.523 952.074 873.523 921.623C873.523 891.173 850.443 866.488 821.973 866.488C793.503 866.488 770.424 891.173 770.424 921.623C770.424 952.074 793.503 976.759 821.973 976.759Z" fill="#F6D660"/>
<path d="M907.655 863.857L741.829 844.997C734.249 844.134 727.451 850.008 726.644 858.116L725.185 872.796C724.379 880.904 729.87 888.175 737.451 889.037L903.276 907.898C910.857 908.76 917.655 902.886 918.461 894.779L919.921 880.098C920.727 871.991 915.235 864.719 907.655 863.857Z" fill="#F6D660"/>
<path d="M1165.63 976.759C1194.1 976.759 1217.18 952.074 1217.18 921.623C1217.18 891.173 1194.1 866.488 1165.63 866.488C1137.16 866.488 1114.08 891.173 1114.08 921.623C1114.08 952.074 1137.16 976.759 1165.63 976.759Z" fill="#F6D660"/>
<path d="M1085.5 907.8L1251.33 888.94C1258.91 888.078 1264.4 880.806 1263.59 872.699L1262.13 858.019C1261.33 849.911 1254.53 844.037 1246.95 844.899L1081.12 863.76C1073.54 864.622 1068.05 871.894 1068.86 880.001L1070.32 894.681C1071.12 902.789 1077.92 908.663 1085.5 907.8Z" fill="#F6D660"/>
<path d="M1085.63 687.237C1033.29 637.666 954.595 637.666 902.253 687.237L993.802 796.302L1085.63 687.237Z" fill="#F6D660" stroke="#F6D660" stroke-width="0.6" stroke-linecap="round" stroke-linejoin="round"/>
<path d="M1029.86 936.089H957.743L982.25 461.564H1005.35L1029.86 936.089Z" fill="#F6D660"/>
<path fill-rule="evenodd" clip-rule="evenodd" d="M989.014 460.368C989.895 467.49 989.121 474.733 986.76 481.458C986.76 481.458 994.648 476.336 994.366 472.118L990.986 490.196L999.155 482.362L991.831 498.029L1003.1 485.978C1000.74 492.484 997.82 498.738 994.366 504.657L1003.94 499.234L995.774 515.202C995.774 515.202 1008.17 507.068 1008.73 503.151C1009.3 499.234 998.873 523.94 997.183 524.241C995.493 524.542 1006.48 517.613 1007.89 513.093C1005.24 519.68 1001.93 525.942 998.028 531.773C998.028 531.773 1010.14 522.734 1010.99 517.613C1008.53 527.396 1004.94 536.81 1000.28 545.632C1000.28 545.632 1008.45 541.414 1009.01 539.606C1005.08 547.256 1000.25 554.342 994.648 560.696C1000.41 558.526 1005.42 554.533 1009.01 549.247C1008.26 558.087 1005.24 566.532 1000.28 573.652C1006.46 567.715 1010.87 559.96 1012.96 551.356C1015.31 559.98 1016.64 568.889 1016.9 577.87C1018.61 565.686 1018.61 553.297 1016.9 541.113C1016.9 541.113 1025.92 556.177 1025.07 560.696C1025.07 560.696 1025.07 530.568 1017.46 524.542C1021.92 529.912 1025.36 536.153 1027.61 542.92C1024.57 530.967 1020.02 519.513 1014.08 508.875L1028.17 526.651C1023.96 515.394 1018.57 504.68 1012.11 494.715L1022.25 507.369C1022.25 507.369 1016.62 490.497 1012.11 488.388C1009.51 487.247 1007.13 485.614 1005.07 483.567L1017.18 488.99C1017.18 488.99 1003.66 467.901 999.155 467.298L1015.21 482.663C1015.21 482.663 1015.21 470.01 1011.27 467.298C1016.27 472.054 1020.63 477.53 1024.23 483.567C1025.54 477.396 1023.84 470.932 1019.72 466.394C1025.5 472.584 1030.6 479.458 1034.93 486.881C1034.59 480.757 1033.25 474.742 1030.99 469.106C1036.63 476.26 1041.54 484.037 1045.63 492.305C1045.41 484.29 1042.96 476.528 1038.59 470.01C1045.65 478.437 1051.28 488.124 1055.21 498.632C1055.21 498.632 1053.24 474.83 1050.14 472.118C1047.04 469.407 1063.66 499.535 1065.63 505.561C1065.63 505.561 1065.63 487.785 1063.1 485.074C1067.69 492.218 1071.29 500.031 1073.8 508.273C1073.8 508.273 1073.8 487.785 1069.86 485.074C1074.41 492.549 1078.19 500.53 1081.13 508.875C1080.81 503.127 1079.77 497.451 1078.03 492.003C1081.57 497.13 1084.33 502.825 1086.2 508.875L1083.66 493.811C1086.71 498.519 1089.26 503.571 1091.27 508.875L1088.73 498.029C1091.76 500.591 1094.51 503.523 1096.9 506.766C1091.17 497.711 1084.56 489.329 1077.18 481.76C1063.27 473.087 1048.54 466.018 1033.24 460.67C1029.86 460.67 997.746 458.561 995.493 460.67H1007.04L1002.54 455.849L1007.04 460.67H1014.08L1008.45 451.932L1013.52 457.356H1023.1C1020.52 453.975 1017.48 451.03 1014.08 448.618C1017.44 451.09 1020.47 454.028 1023.1 457.356H1031.27L1022.25 447.714L1031.27 457.356C1034.1 457.423 1036.89 458.142 1039.44 459.465C1036.62 454.843 1033.41 450.506 1029.86 446.509C1033.59 450.337 1036.82 454.696 1039.44 459.465C1041.87 460.221 1044.23 461.23 1046.48 462.477C1046.48 462.477 1041.41 448.618 1038.87 447.112C1042.97 451.676 1046.56 456.731 1049.58 462.176C1049.58 462.176 1049.58 447.714 1046.2 446.509C1050.13 452.583 1053.53 459.039 1056.34 465.792C1056.21 459.576 1055.36 453.403 1053.8 447.413C1057.77 454.31 1061.17 461.569 1063.94 469.106C1063.58 462.914 1062.73 456.767 1061.41 450.727C1061.41 450.727 1070.99 465.791 1069.58 469.106C1068.17 472.42 1073.52 451.932 1069.58 448.618C1073.48 454.669 1075.72 461.765 1076.06 469.106V459.465C1077.43 463.645 1078.28 468.001 1078.59 472.42C1078.42 469.51 1078.42 466.592 1078.59 463.683C1078.59 463.683 1084.23 469.708 1083.1 474.529C1081.84 466.079 1079.47 457.862 1076.06 450.125C1081.2 457.833 1085.73 465.998 1089.58 474.529C1089.58 479.952 1089.58 469.106 1089.58 469.106C1091.53 472.801 1092.69 476.92 1092.96 481.157C1092.96 481.157 1096.06 462.176 1086.48 454.041C1091.86 459.99 1095.4 467.562 1096.62 475.734L1098.59 469.407C1100.64 474.702 1101.96 480.282 1102.54 485.978C1104.61 477.444 1102.73 468.363 1097.46 461.574C1105.29 469.489 1110.11 480.219 1110.99 491.702V473.926C1114 479.733 1116.37 485.902 1118.03 492.305C1118.03 492.305 1118.03 466.394 1102.82 456.753C1087.11 448.613 1069.85 444.487 1052.39 444.702C1032.69 443.639 1012.95 443.639 993.239 444.702L1006.76 437.772H1000.28C1002.44 437.943 1004.6 437.943 1006.76 437.772C1009.37 436.861 1011.91 435.753 1014.37 434.458C1011.3 433.114 1008.08 432.203 1004.79 431.746L1014.37 434.458L1023.38 430.842L1013.24 428.432C1016.51 429.707 1019.92 430.517 1023.38 430.842C1026.38 429.527 1029.5 428.519 1032.68 427.83C1035.21 427.83 1023.94 421.804 1019.72 421.804C1027.87 419.718 1036.36 419.718 1044.51 421.804C1038.86 418.167 1032.67 415.618 1026.2 414.272C1035.71 414.935 1045.14 416.549 1054.37 419.092C1051.36 415.605 1047.43 413.186 1043.1 412.163C1050.31 412.526 1057.38 414.367 1063.94 417.586C1058.89 413.187 1053.3 409.538 1047.32 406.74C1055.2 408.479 1062.86 411.21 1070.14 414.874C1070.14 414.874 1061.13 404.631 1058.03 404.631C1054.93 404.631 1070.14 410.054 1070.14 410.054C1067.42 407.348 1064.39 405.02 1061.13 403.124C1069.1 405.221 1076.78 408.465 1083.94 412.765C1083.94 412.765 1071.83 395.592 1069.3 395.592C1073.85 397.853 1078.19 400.577 1082.25 403.727C1079.83 400.695 1077.09 397.966 1074.08 395.592C1080.48 397.995 1086.62 401.126 1092.39 404.932C1085.8 395.335 1075.36 389.637 1064.23 389.566C1047.77 393.08 1032.02 399.712 1017.75 409.15C1006.35 416.109 997.214 426.62 991.549 439.278C987.842 431.232 983.307 423.652 978.028 416.682C965.411 402.099 948.101 393.165 929.577 391.675C935.917 394.454 942.122 397.571 948.169 401.015C943.02 401.481 938.024 403.125 933.521 405.836C940.828 406.252 948.087 407.361 955.211 409.15C949.523 410.658 943.964 412.674 938.591 415.176C946.886 415.354 955.163 416.058 963.38 417.285C957.74 418.467 952.186 420.078 946.76 422.105C955.076 422.699 963.353 423.805 971.549 425.419C974.084 425.419 952.958 429.035 952.958 429.035C961.053 430.283 968.991 432.506 976.62 435.663L962.535 437.772C962.535 437.772 981.127 441.99 982.253 447.112C966.98 440.263 951.257 434.624 935.211 430.24C916.765 424.889 897.319 424.889 878.873 430.24C866.197 436.868 853.239 452.535 854.648 462.176C859.55 452.96 866.52 445.195 874.929 439.58L862.253 457.958L876.901 444.4C873.321 448.944 870.552 454.152 868.732 459.766C868.732 465.189 868.732 457.657 868.732 457.657C874.713 448.996 881.305 440.837 888.451 433.253C884.707 439.141 881.319 445.279 878.31 451.631C878.31 451.631 896.62 431.746 900 431.746C894.581 438.055 890.028 445.156 886.479 452.836C886.479 452.836 904.225 434.458 914.648 432.951C909.281 437.405 904.371 442.454 900 448.016L915.211 435.06C912.108 439.624 909.375 444.462 907.042 449.522C907.042 449.522 917.183 435.964 925.634 435.06C921.858 439.006 918.461 443.346 915.493 448.016C921.393 443.177 927.826 439.129 934.648 435.964C930.768 439.21 927.183 442.842 923.943 446.811C929.108 443.52 934.472 440.602 940 438.073L934.366 447.714L944.507 440.182L936.901 447.714H944.507L950.422 442.291L944.789 447.413H952.958L955.211 443.798L952.676 447.714H961.408L963.662 442.593L961.408 447.714H978.31C957.539 445.414 936.64 444.709 915.774 445.605C890.175 449.939 867.851 466.598 855.211 490.798C850.141 505.862 855.211 509.779 855.211 509.779C855.211 509.779 855.211 489.894 861.69 487.183C861.69 487.183 859.155 502.247 861.69 506.164L864.789 493.208L868.169 500.741C868.273 494.94 869.03 489.174 870.422 483.567C870.431 489.595 871.286 495.587 872.958 501.343C872.958 501.343 872.958 477.542 876.901 471.215C876.901 471.215 872.958 484.772 876.901 489.593C876.901 489.593 876.901 467.599 885.634 462.176C885.634 462.176 877.465 481.157 882.535 486.58C882.535 486.58 887.042 463.381 897.183 456.452C897.183 456.452 887.042 470.913 891.549 477.542C891.549 477.542 902.253 453.138 911.267 450.125C911.267 450.125 902.535 460.971 903.662 467.9C903.662 467.9 913.803 450.125 919.436 449.522L913.803 463.984C913.803 463.984 923.943 450.125 927.887 449.522C931.831 448.92 922.817 456.15 923.38 458.862L934.929 448.618L931.549 454.644L938.028 451.029L941.972 446.208L938.028 451.029H947.324L950.141 447.413L947.324 451.029H954.648V447.413V451.029H959.718V446.811V451.029H966.197C956.843 449.796 947.382 449.796 938.028 451.029C924.486 459.429 912.151 469.881 901.408 482.061C882.598 495.959 872.516 519.844 875.211 544.126C875.703 538.025 877.031 532.036 879.155 526.35C879.155 526.35 879.155 536.593 881.127 537.799C880.293 531.301 880.293 524.713 881.127 518.215C881.127 518.215 881.127 531.773 885.07 533.279C884.455 524.856 884.455 516.395 885.07 507.971C885.218 512.902 886.073 517.78 887.605 522.433C888.651 512.027 891.218 501.86 895.211 492.305C892.651 502.097 891.792 512.309 892.676 522.433C893.83 516.611 895.336 510.874 897.183 505.26C897.183 505.26 897.183 513.997 901.127 516.709C900.478 509.494 900.478 502.23 901.127 495.016C901.127 495.016 903.098 501.042 905.07 505.26C904.683 500.046 904.683 494.807 905.07 489.593C905.07 489.593 907.042 499.837 912.113 501.946C910.849 497.758 910.184 493.39 910.141 488.99C910.141 488.99 913.239 496.523 915.774 496.523C914.487 492.317 913.637 487.972 913.239 483.567L919.718 493.208C918.429 488.489 917.579 483.645 917.183 478.747L922.817 486.881C922.817 486.881 918.31 475.433 924.789 471.817L926.76 481.458C927.218 477.147 929.001 473.12 931.831 470.01C931.252 472.176 931.252 474.472 931.831 476.638C931.831 476.638 934.366 465.189 936.901 464.586V473.324C938.166 470.335 939.879 467.587 941.972 465.189V470.612C945.906 467.738 950.165 465.41 954.648 463.683H974.366C971.167 465.688 968.149 468.008 965.352 470.612H973.521C973.521 470.612 959.155 470.612 955.211 476.638C960.729 475.888 966.313 475.888 971.831 476.638C971.831 476.638 955.211 479.349 952.113 484.772C958.027 483.299 964.069 482.491 970.141 482.362C970.141 482.362 954.648 487.183 952.958 490.497C957.831 490.043 962.732 490.043 967.605 490.497C967.605 490.497 950.986 493.811 949.014 498.632C949.014 498.632 965.07 496.523 966.197 498.632C959.565 500.78 953.29 504.034 947.605 508.273H960.563C960.563 508.273 947.042 511.587 945.915 515.805C949.262 516.527 952.71 516.527 956.056 515.805C951.72 520.145 948.101 525.238 945.352 530.869C948.69 527.826 952.272 525.104 956.056 522.734C951.608 528.389 948.773 535.291 947.887 542.619L954.929 535.087C951.614 540.16 949.048 545.749 947.324 551.658L954.929 543.523C954.929 543.523 951.831 566.119 954.929 569.434L956.901 545.029C956.901 545.029 961.972 545.029 967.042 564.01L961.408 539.606C961.408 539.606 969.577 545.632 969.577 552.562C970.16 543.854 967.416 535.265 961.972 528.76C967.514 534.312 972.26 540.707 976.056 547.741C972.669 537.413 968.622 527.347 963.944 517.613L976.62 534.786C976.375 525.277 972.748 516.225 966.479 509.478L981.127 522.433C979.457 515.748 976.896 509.355 973.521 503.452L981.69 513.696C979.081 506.744 975.675 500.165 971.549 494.112L981.69 505.561C980.688 498.005 978.795 490.615 976.056 483.567L981.69 493.208L979.155 478.144L985.915 482.061C985.965 478.587 985.489 475.128 984.507 471.817C984.507 470.009 987.042 471.817 987.042 471.817L989.014 458.561V460.368Z" fill="#57A863" stroke="#57A863" stroke-width="0.5" stroke-linecap="round" stroke-linejoin="round"/>
<path d="M993.802 880.05C1018.32 880.214 1038.16 901.431 1038.31 927.653H949.295C949.449 901.431 969.286 880.214 993.802 880.05ZM993.802 861.973C959.952 862.138 932.548 891.447 932.394 927.653C932.394 937.637 939.961 945.73 949.295 945.73H1038.59C1047.93 945.73 1055.49 937.637 1055.49 927.653C1055.34 891.447 1027.94 862.138 994.084 861.973H993.802Z" fill="#ED5565"/>
<path d="M994.084 880.053H993.802C969.222 880.053 949.295 901.365 949.295 927.656V973.15C949.295 999.44 969.222 1020.75 993.802 1020.75H994.084C1018.66 1020.75 1038.59 999.44 1038.59 973.15V927.656C1038.59 901.365 1018.66 880.053 994.084 880.053Z" fill="#F6D660"/>
<path d="M803.376 892.705L869.292 912.891L992.672 950.552L1184.22 892.705" stroke="#F6D660" stroke-linecap="round" stroke-linejoin="round"/>
</g>
<defs>
<clipPath id="clip0">
<rect width="2000" height="1416.04" fill="white"/>
</clipPath>
</defs>
</svg>
