<svg width="2000" height="1417" viewBox="0 0 2000 1417" fill="none" xmlns="http://www.w3.org/2000/svg">
<g clip-path="url(#clip0)">
<path d="M2000 0H0V1416.04H2000V0Z" fill="#CF142B"/>
<path d="M753.234 596.37C753.965 597.432 762.758 604.954 762.91 604.538C763.063 604.121 785.921 596.655 785.768 597.072C785.616 597.488 772.961 618.788 773.55 619.22C774.135 619.651 786.774 641.078 787.068 641.294C787.359 641.508 763.136 638.474 763.136 638.474L747.112 656.768L743.523 633.022C743.523 633.022 723.366 622.953 723.072 622.737C722.78 622.523 740.323 614.313 740.323 614.313L745.559 594.945C745.559 594.945 752.344 596.769 753.234 596.37V596.37Z" fill="#F9DD16" stroke="black"/>
<path d="M1048.22 642.901C1048.27 622.886 1020.44 532.335 1015.85 518.413C1007.33 503.304 998.31 479.38 994.433 458.717C991.923 437.858 984.043 421.498 972.938 415.951C960.12 406.316 947.603 410.094 935.555 411.577C929.648 413.354 924.594 417.873 921.74 424.53C915.234 437.707 911.697 436.702 907.197 442.382C870.152 450.557 835.121 477.626 808.469 496.075C794.356 509.949 782.376 518.005 776.826 519.702C761.779 519.778 750.836 509.683 745.608 504.314C728.568 482.372 711.528 460.427 694.488 438.486C679.716 422.876 676.064 445.411 678.9 448.853C683.832 463.86 673.155 472.995 713.692 527.068C718.811 541.957 723.928 556.849 729.047 571.738C729.047 571.738 728.195 583.953 728.909 584.478C736.31 609.444 748.068 603.222 753.616 596.219C757.63 591.04 761.647 585.862 765.661 580.682C765.661 580.682 789.529 569.985 789.9 568.975C815.495 574.37 881.448 556.577 892.324 549.269C902.125 541.496 902.75 548.08 911.241 538.286C918.339 531.633 914.435 536.929 927.55 519.959C931.586 515.043 934.78 523.004 935.533 528.572C936.263 581.291 940.824 614.978 944.218 667.544L999.995 708.014L1048.22 642.901Z" fill="white" stroke="black" stroke-width="1.3"/>
<path d="M726.13 482.786C726.639 483.425 716.915 528.245 716.915 528.245C716.915 528.245 707.953 515.589 708.03 515.381L714.305 468.289L726.13 482.786V482.786Z" fill="#F9DD16"/>
<path d="M711.249 460.568C711.447 461.147 712.165 465.216 712.272 467.839C711.932 470.584 711.393 480.428 710.65 483.757C710.059 487.457 709.546 491.193 709.196 494.91C708.454 498.954 708.163 501.609 707.326 505.762C707.135 509.353 706.678 512.705 706.107 516.273M726.406 481.12C725.963 484.149 724.079 497.66 723.202 501.354C722.468 505.443 721.812 509.568 721.325 513.661C720.425 518.135 720.034 521.064 719.033 525.663C718.714 529.606 718.128 533.306 717.419 537.253L726.406 481.12Z" stroke="black" stroke-width="1.13"/>
<path d="M874.09 456.133C886.017 474.926 889.716 505.474 887.555 522.579" stroke="black"/>
<path d="M827.945 567.463C828.018 567.265 828.089 567.071 828.161 566.876C827.486 568.716 828.009 567.666 826.732 563.585C825.377 561.471 824.426 551.193 826.508 545.512C827.306 542.619 828.643 538.254 829.65 535.509C829.936 534.727 830.746 533.953 831.034 533.168" stroke="black"/>
<path d="M742.651 504.012C742.58 504.206 742.509 504.401 742.436 504.599C742.724 503.814 741.861 506.166 741.575 506.948C740.457 509.996 738.952 512.773 737.927 515.461C736.849 518.4 735.183 520.907 734.106 523.846C732.722 526.595 731.507 530.24 730.074 533.082C728.73 536.463 727.238 538.872 725.925 542.453C724.789 545.285 723.878 546.592 722.705 549.79L725.925 542.453C724.789 545.285 723.878 546.592 722.705 549.79" stroke="black"/>
<path d="M699.342 446.799C699.55 447.35 700.354 451.184 700.524 453.635C700.257 456.183 699.966 465.348 699.317 468.421C698.827 471.844 698.415 475.307 698.161 478.761C697.531 482.501 697.31 484.965 696.589 488.8C696.489 492.146 696.121 495.252 695.648 498.554" stroke="black"/>
<path d="M751.308 554.879C748.509 550.71 746.863 552.235 745.066 552.045C743.073 552.547 739.45 554.907 735.774 560.14C734.432 562.214 733.304 563.738 731.527 565.972C730.729 567.73 730.071 568.399 729.189 569.476" stroke="black"/>
<path d="M961.584 414.243C961.513 414.437 961.44 414.635 961.369 414.83C962.045 412.986 961.555 414.03 962.168 418.403C962.975 421.419 963.073 423.515 963.963 426.437" stroke="black"/>
<path d="M918.062 430.561C917.918 430.953 917.555 473.598 918.802 479.096C919.174 482.615 919.846 485.566 920.193 489.77C920.196 492.304 920.615 494.428 920.743 496.892C921.762 499.614 921.978 502.347 923.022 504.535C923.531 507.545 925.235 507.666 926.148 510.475C927.424 512.422 929.518 515.851 930.775 517.391" stroke="black"/>
<path d="M897.139 547.314C896.213 546.867 893.834 544.199 891.802 542.77C889.511 540.938 883.861 531.389 883.592 524.668" stroke="black"/>
<path d="M919.672 486.787C919.6 486.985 916.532 491.261 911.511 498.487C905.088 506.906 887.614 521.39 885.512 522.558C883.5 523.848 880.986 526.954 878.999 527.391C876.714 528.68 874.439 529.183 872.277 529.913C869.641 530.7 867.406 531.38 865.358 531.539C859.217 535.324 826.846 533.85 825.176 533.337C823.445 533.318 821.09 533.137 819.532 532.919C817.993 533.444 816.169 533.225 814.088 533.394C811.573 533.105 810.129 533.79 808.012 534.154C806.344 535.398 803.57 536.687 801.692 538.461C799.119 539.934 797.557 541.94 795.784 543.072C793.935 545.233 768.749 566.043 767.53 566.972C764.887 568.621 755.396 572.613 753.02 563.165C752.409 559.447 751.2 555.616 751.126 552.77C750.363 549.366 750.797 545.728 750.921 542.552C753.126 526.455 756.776 520.115 757.782 517.37C758.141 516.39 758.5 515.411 758.86 514.431" stroke="black"/>
<path d="M992.939 455.201C992.868 455.395 992.795 455.593 992.724 455.788C993.306 454.201 993.034 455.033 991.447 457.835C989.824 459.689 987.827 462.624 986.354 464.537C984.87 466.622 983.444 469.57 982.107 470.368C980.769 472.851 979.079 473.637 977.246 475.003C974.771 476.313 973.066 477.447 970.926 479.311C968.192 481.366 966.49 483.33 963.956 485.382C962.395 488.204 960.806 489.957 959.48 493.282C958.167 496.364 956.855 499.006 955.617 502.382C954.611 505.127 953.606 507.868 952.6 510.613L955.617 502.382C954.611 505.127 953.606 507.868 952.6 510.613" stroke="black"/>
<path d="M971.896 680.758C972.04 680.365 972.184 679.973 972.328 679.58C971.53 681.755 971.81 681.185 972.559 677.514C972.566 673.111 973.304 667.785 973.335 663.903C973.802 659.791 974.276 655.351 974.306 651.186C974.13 646.315 974.136 641.951 973.621 637.252C973.582 632.927 973.224 628.443 973.133 624.207C973.078 620.01 972.857 616.415 972.214 612.34C972.154 609.289 972.021 605.104 971.497 601.364C971.778 598.42 971.186 595.709 970.744 593.351C969.939 588.811 969.627 586.164 968.781 581.459C968.272 578.94 967.77 575.718 967.003 571.943C966.725 568.367 965.373 563.724 964.823 560.641C964.072 558.373 963.315 555.302 963.025 552.605C962.239 550.116 961.119 547.078 960.814 544.262C959.985 542.114 959.104 538.775 958.188 535.614C957.398 533.018 956.817 529.817 955.977 527.275C955.13 524.06 954.095 521.315 953.567 518.04C952.756 516.928 952.572 515.709 952.137 514.752" stroke="black"/>
<path d="M966.299 433.008C963.482 442.127 956.227 455.447 956.119 455.74C956.118 455.744 949.214 475.29 949.214 475.29C946.172 485.991 948.113 490.274 949.44 493.364C952.189 500.235 952.673 503.949 954.707 509.177C955.474 515.709 947.292 517.906 947.184 518.2C930.151 526.567 921.511 503.425 921.419 502.24C919.108 490.095 919.41 488.077 924.631 485.574C930.615 483.629 933.019 483.533 935.981 480.488C941.588 474.537 945.546 456.553 945.655 456.256C945.763 455.962 946.496 446.057 946.496 446.057C946.933 441.276 945.374 436.897 947.097 429.335C949.335 422.027 950.682 420.031 955.987 419.454C962.899 418.567 968.265 425.494 966.299 433.008V433.008Z" fill="#F9DD16" stroke="black"/>
<path d="M1015.39 799.446C1009.48 795.184 1004.97 794.334 1002.82 796.397C999.39 769.276 996.376 742.12 991.976 715.083C955.657 693.668 947.981 688.779 936.064 681.442C941.627 676.323 944.403 671.215 944.219 667.541C962.518 676.901 980.633 686.782 999.369 694.906C1030.63 661.074 1037.45 654.106 1047.9 643.16C1048.25 652.542 1049.98 658.5 1052.32 660.111C1037.45 677.872 1022.35 695.146 1008.01 714.06C1013.08 769.307 1013.92 781.165 1015.39 799.446L1015.39 799.446Z" fill="#F9DD16" stroke="black" stroke-width="1.3"/>
</g>
<defs>
<clipPath id="clip0">
<rect width="2000" height="1416.04" rx="186" fill="white"/>
</clipPath>
</defs>
</svg>
