<svg width="2000" height="1417" viewBox="0 0 2000 1417" fill="none" xmlns="http://www.w3.org/2000/svg">
<path d="M21.6868 224.499V490.006H1993.52V224.499C1993.52 116.314 1909.78 28.6133 1806.48 28.6133H208.729C159.122 28.6133 111.547 49.2512 76.4702 85.9868C41.393 122.722 21.6868 172.547 21.6868 224.499Z" fill="#FC6E51"/>
<path d="M21.6868 953.175H1993.52V490.896H21.6868V953.175Z" fill="white"/>
<path d="M21.6868 1218.97C21.6868 1327.15 105.428 1414.85 208.729 1414.85H1806.48C1909.78 1414.85 1993.52 1327.15 1993.52 1218.97V953.461H21.6868V1218.97Z" fill="#57A863"/>
<path d="M1173.8 710.678L1162.82 690.912C1159.12 683.406 1157.01 675.157 1156.62 666.721V643.711C1156.23 635.802 1152.25 628.566 1145.92 624.24L1127.61 613.325C1120.78 608.819 1115.01 602.771 1110.7 595.624L1100 576.449C1095.87 569.816 1088.96 565.65 1081.41 565.239H1059.44C1051.38 564.831 1043.51 562.618 1036.34 558.748L1017.46 547.538C1010.74 543.964 1002.78 543.964 996.056 547.538L977.746 558.748C970.602 562.681 962.712 564.898 954.648 565.239H933.521C925.969 565.65 919.06 569.816 914.929 576.449L903.943 596.214C899.633 603.355 893.86 609.401 887.042 613.915L868.169 625.42C861.835 629.746 857.857 636.982 857.464 644.891V667.016C857.139 675.462 855.022 683.725 851.267 691.207L840.563 710.383C837.195 717.44 837.195 725.746 840.563 732.803L851.549 752.569C855.244 760.075 857.357 768.324 857.746 776.76V799.77C858.139 807.679 862.117 814.915 868.45 819.241L886.76 830.156C893.59 834.654 899.366 840.704 903.662 847.857L914.366 867.032C918.497 873.665 925.406 877.831 932.957 878.242H954.929C962.984 878.65 970.861 880.863 978.028 884.733L996.901 895.943C1003.63 899.517 1011.58 899.517 1018.31 895.943L1036.62 884.733C1043.76 880.782 1051.65 878.564 1059.72 878.242H1080.84C1088.4 877.831 1095.31 873.665 1099.44 867.032L1110.42 847.267C1114.78 840.168 1120.55 834.132 1127.32 829.566L1146.2 818.061C1152.53 813.735 1156.51 806.499 1156.9 798.59V776.465C1157.23 768.019 1159.34 759.756 1163.1 752.274L1173.8 733.098C1177.22 726.052 1177.22 717.724 1173.8 710.678ZM1107.89 728.673L1101.41 740.179C1099.15 744.748 1097.9 749.788 1097.75 754.929V767.024C1097.51 771.814 1095.1 776.198 1091.27 778.825L1079.72 785.905C1075.63 788.622 1072.17 792.248 1069.58 796.525L1063.1 808.62C1060.59 812.634 1056.4 815.154 1051.83 815.406H1038.87C1034.06 815.612 1029.35 816.921 1025.07 819.241L1014.08 826.026C1010.02 828.23 1005.19 828.23 1001.13 826.026L989.577 819.241C985.211 816.889 980.4 815.579 975.493 815.406H962.253C957.679 815.154 953.494 812.634 950.986 808.62L944.507 797.115C941.912 792.838 938.45 789.212 934.366 786.495L923.662 779.71C919.829 777.083 917.423 772.699 917.183 767.909V754.044C916.968 749.006 915.719 744.076 913.521 739.588L907.042 727.493C904.983 723.227 904.983 718.189 907.042 713.923L913.521 702.417C915.785 697.851 917.036 692.81 917.183 687.667V674.392C917.423 669.602 919.829 665.218 923.662 662.591L935.211 655.511C939.295 652.793 942.757 649.168 945.352 644.891L951.831 632.796C954.339 628.782 958.524 626.262 963.098 626.01H976.056C980.869 625.804 985.581 624.495 989.859 622.175L1000.84 615.39C1004.92 613.234 1009.73 613.234 1013.8 615.39L1025.35 622.175C1029.72 624.537 1034.53 625.847 1039.44 626.01H1052.68C1057.25 626.262 1061.44 628.782 1063.94 632.796L1070.42 644.301C1073.02 648.578 1076.48 652.204 1080.56 654.921L1091.83 661.706C1095.66 664.333 1098.07 668.716 1098.31 673.507V687.372C1098.52 692.411 1099.77 697.344 1101.97 701.827L1108.45 713.923C1110.51 718.189 1110.51 723.227 1108.45 727.493L1107.89 728.673Z" fill="#4758A9"/>
</svg>
