<svg width="2000" height="1417" viewBox="0 0 2000 1417" fill="none" xmlns="http://www.w3.org/2000/svg">
<g clip-path="url(#clip0)">
<path d="M0 0H2000V1416.04H0V0Z" fill="white"/>
<path d="M2000 1231.39C1977.59 1250.48 1958.34 1295.1 1898.8 1295.1C1779.76 1295.1 1750 1201.16 1660.71 1201.16C1601.19 1201.16 1571.43 1295.1 1511.91 1295.1C1392.86 1295.1 1363.1 1201.16 1273.81 1201.16C1214.29 1201.16 1184.52 1295.1 1125 1295.1C1005.95 1295.1 976.19 1201.16 886.907 1201.16C827.38 1201.16 797.62 1295.1 738.097 1295.1C619.05 1295.1 589.287 1201.16 500 1201.16C440.473 1201.16 410.713 1295.1 351.19 1295.1C232.143 1295.1 202.38 1201.16 113.097 1201.16C53.57 1201.16 35.7133 1268.1 0 1268.1V1389.04C35.7133 1389.04 53.57 1322.1 113.097 1322.1C202.38 1322.1 232.143 1416.04 351.19 1416.04C410.713 1416.04 440.473 1322.1 500 1322.1C589.283 1322.1 619.05 1416.04 738.097 1416.04C797.62 1416.04 827.38 1322.1 886.907 1322.1C976.19 1322.1 1005.95 1416.04 1125 1416.04C1184.52 1416.04 1214.29 1322.1 1273.81 1322.1C1363.1 1322.1 1392.86 1416.04 1511.91 1416.04C1571.43 1416.04 1601.19 1322.1 1660.71 1322.1C1750 1322.1 1779.76 1416.04 1898.8 1416.04C1958.34 1416.04 1977.59 1389.42 2000 1370.33V1231.39Z" fill="#012169"/>
<path d="M0 0H966.667V717.46H0V0Z" fill="white"/>
<path d="M0 0H1000V708.02H0V0Z" fill="#012169"/>
<path d="M0 0L1000 708.02L0 0ZM1000 0L0 708.02Z" fill="black"/>
<path d="M1000 0L0 708.02M0 0L1000 708.02L0 0Z" stroke="white" stroke-width="30"/>
<path d="M0 0L1000 708.02L0 0ZM1000 0L0 708.02Z" fill="black"/>
<path d="M1000 0L0 708.02M0 0L1000 708.02L0 0Z" stroke="#C8102E" stroke-width="20"/>
<path d="M500 0V944.027V0ZM0 354.01H1166.67Z" fill="black"/>
<path d="M0 354.01H1166.67M500 0V944.027V0Z" stroke="white" stroke-width="50"/>
<path d="M500 0V944.027V0ZM0 354.01H1166.67Z" fill="black"/>
<path d="M0 354.01H1166.67M500 0V944.027V0Z" stroke="#C8102E" stroke-width="30"/>
<path d="M1488.41 373.941L1481.51 1337.61C1480.58 1392.29 1516 1392.51 1516 1337.61L1509.1 373.941H1488.41Z" fill="#A24300" stroke="black" stroke-width="0.75"/>
<path d="M1557.92 724.935L1535.59 694.052L1527.2 731.479L1519.85 681.205L1508.17 709.614L1509.96 654.153L1498.27 682.562L1500.07 627.1L1488.38 655.509L1486.87 591.03L1475.19 619.44L1473.68 554.96L1462 583.37L1460.49 518.891L1459.74 486.65L1465.58 472.444L1478.02 476.276L1497.05 498.142L1535.12 541.872L1510.24 534.211L1548.31 577.941L1523.43 570.281L1561.5 614.011L1536.62 606.351L1571.39 641.064L1546.52 633.403L1581.29 668.116L1556.41 660.455L1582.04 700.355L1553.87 683.677L1557.92 724.935Z" fill="#006D00" stroke="black" stroke-width="0.606637"/>
<path d="M1561.89 732.465L1461.61 464.908" stroke="black" stroke-width="0.136242"/>
<path d="M1530.01 534.854L1476.35 509.331L1464 573.682" stroke="black" stroke-width="0.136242"/>
<path d="M1544.33 573.076L1490.68 547.553L1478.32 611.904" stroke="black" stroke-width="0.136242"/>
<path d="M1558.66 611.299L1505.01 585.776L1492.65 650.127" stroke="black" stroke-width="0.136242"/>
<path d="M1569.41 640.982L1519.27 623.488L1503.53 678.793" stroke="black" stroke-width="0.136242"/>
<path d="M1580.15 669.648L1530.01 652.154L1514.28 707.459" stroke="black" stroke-width="0.136242"/>
<path d="M1582.75 702.674L1537.29 670.737L1532.93 732.821" stroke="black" stroke-width="0.136242"/>
<path d="M1666.16 190.643L1628.84 222.327L1618.52 183.207L1599.52 233.898L1592.79 207.878L1578.32 260.384L1573.19 235.003L1563.25 289.325L1551.99 261.49L1543.15 327.914L1531.89 300.078L1523.06 366.503L1511.79 338.667L1502.96 405.091L1498.54 438.304L1504.17 452.224L1519.85 446.846L1545.58 422.174L1597.04 372.833L1565.68 383.586L1617.13 334.244L1585.78 344.997L1637.23 295.656L1605.87 306.409L1658.43 269.169L1620.94 277.467L1678.03 242.044L1642.14 250.981L1682.45 208.831L1646.07 229.232L1666.16 190.643Z" fill="#006D00" stroke="black" stroke-width="0.523668"/>
<path d="M1655.64 204.406L1599.18 267.208L1499.07 456.191" stroke="black" stroke-width="0.156987"/>
<path d="M1579.66 384.76L1522.14 414.684L1513.21 357.055" stroke="black" stroke-width="0.156987"/>
<path d="M1602.3 345.07L1543.86 374.563L1534.94 317.008" stroke="black" stroke-width="0.156987"/>
<path d="M1623.58 304.812L1565.59 334.542L1557.13 277.108" stroke="black" stroke-width="0.156987"/>
<path d="M1641.23 274.566L1587.02 294.593L1577.42 248.251" stroke="black" stroke-width="0.156987"/>
<path d="M1661.58 245.879L1603.18 264.18L1597.82 219.585" stroke="black" stroke-width="0.156987"/>
<path d="M1669.7 217.799L1615.74 249.603L1622.56 192.533" stroke="black" stroke-width="0.156987"/>
<path d="M1249.84 465.545L1300.93 447.055L1279.02 428.454L1319.19 447.083L1307.49 424.784L1345.47 450.837L1333.78 428.538L1371.76 454.591L1360.06 432.292L1406.08 462.071L1394.38 439.771L1438.22 476.975L1426.52 454.675L1472.54 484.455L1494.45 503.057L1500.3 514.207L1490.08 517.905L1463.79 514.15L1419.92 519.115L1429.47 506.67L1376.9 499.162L1397.34 491.766L1342.58 491.683L1363.02 484.287L1316.29 487.929L1338.92 473.109L1290.01 484.174L1312.63 469.355L1271.75 484.147L1296.56 461.903L1249.84 465.545Z" fill="#006D00" stroke="black" stroke-width="0.500066"/>
<path d="M1264.1 466.521L1316.13 459.143L1342.92 461.887L1364.95 466.599L1402.56 477.339L1436.55 486.479L1503.27 508.679" stroke="black" stroke-width="0.141956"/>
<path d="M1429.92 496.826L1466.73 481.312L1435.35 430.95" stroke="black" stroke-width="0.141956"/>
<path d="M1388.18 489.209L1432.93 474.296L1401.68 423.562" stroke="black" stroke-width="0.141956"/>
<path d="M1357.24 489.504L1398.71 472.467L1366.84 424.55" stroke="black" stroke-width="0.141956"/>
<path d="M1300.7 500.539L1339.4 469.923L1313.09 436.843" stroke="black" stroke-width="0.141956"/>
<path d="M1283.04 506.51L1313.51 474.136L1292.95 454.19" stroke="black" stroke-width="0.141956"/>
<path d="M1327.23 495.172L1365.09 468.684L1339.67 431.07" stroke="black" stroke-width="0.141956"/>
<path opacity="0.995" d="M1505.83 918.153H1600.65C1600.65 918.153 1606.89 898.095 1607.59 889.209C1608.43 878.536 1608.41 875.112 1606.67 865.279C1604.86 855.094 1602.24 848.094 1597.74 841.289C1593.49 834.87 1587.5 830.894 1581.37 828.726C1575.9 826.793 1569.72 825.965 1564.92 827.474C1555.81 830.339 1549.89 834.877 1539.98 839.645C1532.84 843.085 1527.37 844.264 1520.15 844.889C1515.73 845.272 1510.62 843.59 1505.83 842.032V918.153Z" fill="white"/>
<path opacity="0.995" d="M1491.7 918.153H1396.88C1396.88 918.153 1390.64 898.095 1389.94 889.209C1389.1 878.536 1389.12 875.112 1390.86 865.279C1392.67 855.094 1395.29 848.094 1399.79 841.289C1404.04 834.87 1410.03 830.894 1416.16 828.726C1421.63 826.793 1427.81 825.965 1432.61 827.474C1441.72 830.339 1447.64 834.877 1457.55 839.645C1464.69 843.085 1470.16 844.264 1477.38 844.889C1481.8 845.272 1486.91 843.59 1491.7 842.032V918.153Z" fill="white"/>
<path d="M1485.87 1039.94C1472.43 1040.18 1458.99 1040.58 1445.66 1041.87C1435.82 1043 1424.61 1044.29 1415.04 1046.39L1412.6 1047.04C1406.57 1048.81 1405.73 1059.79 1408.9 1065.76C1415.35 1078.1 1453.6 1087.7 1498.77 1087.7C1543.9 1087.7 1582.14 1078.1 1588.6 1065.76C1591.77 1059.79 1590.92 1048.81 1584.89 1047.04L1582.46 1046.39C1572.94 1044.29 1561.67 1043 1551.83 1041.87C1538.5 1040.58 1525.07 1040.18 1511.63 1039.94H1498.77H1485.87Z" fill="white"/>
<path d="M1507.71 1051.72C1504.38 1050.91 1501.31 1049.86 1498.4 1048.73C1495.86 1047.68 1493.48 1046.55 1491.16 1045.34C1491.84 1047.04 1492.85 1048.73 1495.28 1050.02C1493.33 1049.94 1490.73 1051.07 1489.78 1051.72C1490.73 1052.28 1493.43 1053.41 1495.39 1053.33C1493.01 1054.62 1492.11 1056.32 1491.58 1058.01C1493.64 1056.88 1495.86 1055.83 1498.19 1054.86C1501.15 1053.65 1504.28 1052.61 1507.71 1051.72V1051.72Z" fill="black"/>
<path d="M1472.59 1051.96C1469.26 1051.32 1466.19 1050.43 1463.28 1049.38C1460.69 1048.49 1458.25 1047.44 1455.98 1046.31C1456.62 1048.01 1457.67 1049.62 1460.16 1050.83C1458.15 1050.83 1455.61 1052.12 1454.71 1052.77C1455.66 1053.33 1458.36 1054.3 1460.32 1054.14C1457.99 1055.51 1457.09 1057.29 1456.56 1058.98C1458.63 1057.77 1460.79 1056.56 1463.12 1055.51C1466.08 1054.14 1469.21 1053.01 1472.59 1051.96Z" fill="black"/>
<path d="M1437.73 1054.54C1434.4 1054.22 1431.22 1053.65 1428.26 1052.93C1425.67 1052.28 1423.18 1051.56 1420.85 1050.67C1421.6 1052.28 1422.71 1053.81 1425.24 1054.7C1423.29 1054.94 1420.8 1056.48 1419.9 1057.2C1420.91 1057.61 1423.61 1058.33 1425.56 1058.01C1423.29 1059.62 1422.49 1061.48 1422.07 1063.26C1424.08 1061.8 1426.2 1060.35 1428.47 1059.06C1431.33 1057.36 1434.4 1055.83 1437.73 1054.54V1054.54Z" fill="black"/>
<path d="M1542.84 1052.77C1539.51 1053.49 1536.39 1054.3 1533.48 1055.35C1530.88 1056.24 1528.45 1057.29 1526.18 1058.5C1526.86 1056.8 1527.87 1055.11 1530.35 1053.98C1528.4 1053.9 1525.81 1052.69 1524.91 1052.04C1525.86 1051.48 1528.56 1050.51 1530.51 1050.59C1528.19 1049.22 1527.29 1047.52 1526.81 1045.75C1528.87 1047.04 1531.04 1048.17 1533.37 1049.3C1536.28 1050.59 1539.4 1051.8 1542.84 1052.77V1052.77Z" fill="black"/>
<path d="M1577.59 1057.21C1574.26 1057.53 1571.14 1058.01 1568.18 1058.74C1565.59 1059.38 1563.1 1060.19 1560.72 1061.08C1561.51 1059.47 1562.62 1057.93 1565.16 1057.04C1563.15 1056.8 1560.67 1055.27 1559.77 1054.54C1560.77 1054.06 1563.47 1053.33 1565.48 1053.74C1563.21 1052.12 1562.36 1050.27 1561.94 1048.49C1563.95 1049.94 1566.06 1051.32 1568.34 1052.69C1571.19 1054.3 1574.26 1055.83 1577.59 1057.21V1057.21Z" fill="black"/>
<path d="M1498.77 1063.34C1444.92 1063.34 1412.28 1068.1 1414.98 1071.73C1433.87 1083.75 1471.05 1087.62 1498.77 1087.7C1526.44 1087.62 1563.63 1083.75 1582.51 1071.73C1585.21 1068.1 1552.57 1063.34 1498.77 1063.34Z" fill="#CCCCCC"/>
<path d="M1582.41 1071.97C1582.88 1070.03 1580.77 1069.47 1578.54 1069.06C1569.92 1067.37 1560.35 1066.24 1551.83 1065.27C1538.5 1063.98 1525.06 1063.58 1511.63 1063.34H1498.77H1485.87C1472.43 1063.58 1458.99 1063.98 1445.66 1065.27C1437.15 1066.24 1427.57 1067.37 1418.95 1069.06C1416.73 1069.47 1414.61 1070.03 1415.09 1071.97" stroke="black" stroke-width="0.286272"/>
<path d="M1485.87 1039.94C1472.43 1040.18 1458.99 1040.58 1445.66 1041.87C1435.82 1043 1424.61 1044.29 1415.04 1046.39L1412.6 1047.04C1406.57 1048.81 1405.73 1059.79 1408.9 1065.76C1415.35 1078.1 1453.6 1087.7 1498.77 1087.7C1543.9 1087.7 1582.14 1078.1 1588.6 1065.76C1591.77 1059.79 1590.92 1048.81 1584.89 1047.04L1582.46 1046.39C1572.94 1044.29 1561.67 1043 1551.83 1041.87C1538.5 1040.58 1525.07 1040.18 1511.63 1039.94H1498.77H1485.87Z" stroke="black" stroke-width="0.286272"/>
<path fill-rule="evenodd" clip-rule="evenodd" d="M1571.35 1021.86L1577.86 992.873L1580.48 980.874L1587 974.7L1593.59 951.833L1596.7 945.853L1597.18 924.784C1597.18 924.784 1592.62 909.839 1585.57 904.472C1575.48 896.794 1561.79 897.85 1561.79 897.85C1561.79 897.85 1558.63 885.091 1552.82 880.125C1547.02 875.16 1540.58 873.963 1533.82 873.963C1527.06 873.963 1514.92 883.184 1508.36 885.895C1504.95 887.304 1497.25 892.057 1497.25 892.057C1497.25 892.057 1489.54 887.304 1486.13 885.895C1479.57 883.184 1467.44 873.963 1460.68 873.963C1453.91 873.963 1447.68 874.98 1441.67 880.125C1436.08 884.91 1428.4 897.85 1428.4 897.85C1428.4 897.85 1419.62 896.031 1413.44 901.697C1405.74 908.765 1400.32 923.63 1400.32 923.63L1400.85 946.65L1402.06 955.449L1407.04 964.174L1413.52 981.795L1418.17 999.174L1423.15 1021.86H1571.35Z" fill="#C8102E"/>
<path d="M1571.35 1021.86L1577.86 992.873L1580.48 980.874L1587 974.7L1593.59 951.833L1596.7 945.853L1597.18 924.784C1597.18 924.784 1592.62 909.839 1585.57 904.472C1575.48 896.794 1561.79 897.85 1561.79 897.85C1561.79 897.85 1558.63 885.091 1552.82 880.125C1547.02 875.16 1540.58 873.963 1533.82 873.963C1527.06 873.963 1514.92 883.184 1508.36 885.895C1504.95 887.304 1497.25 892.057 1497.25 892.057C1497.25 892.057 1489.54 887.304 1486.13 885.895C1479.57 883.184 1467.44 873.963 1460.68 873.963C1453.91 873.963 1447.68 874.98 1441.67 880.125C1436.08 884.91 1428.4 897.85 1428.4 897.85C1428.4 897.85 1419.62 896.031 1413.44 901.697C1405.74 908.765 1400.32 923.63 1400.32 923.63L1400.85 946.65L1402.06 955.449L1407.04 964.174L1413.52 981.795L1418.17 999.174L1423.15 1021.86H1571.35Z" stroke="black" stroke-width="0.286432"/>
<path d="M1579.71 820.414C1586.77 822.8 1594.25 827.54 1600.14 836.441C1605.61 844.692 1609.24 854.431 1611.33 866.259C1613.29 877.33 1613.35 883.914 1612.48 894.939C1611.36 909.124 1605.64 923.361 1605.64 923.361L1595.78 920.677C1595.78 920.677 1601.72 901.575 1602.39 893.112C1603.19 882.947 1603.17 879.686 1601.51 870.322C1599.79 860.621 1597.3 853.956 1593.01 847.474C1588.96 841.361 1583.26 837.574 1577.42 835.509C1572.21 833.668 1566.32 832.88 1561.75 834.317C1553.07 837.045 1547.44 841.367 1538 845.908C1531.2 849.184 1525.99 850.307 1519.11 850.903C1514.9 851.267 1510.04 849.666 1505.48 848.182C1500.92 846.698 1497.09 845.163 1497.09 845.163L1499.66 830.142C1499.66 830.142 1503.31 831.614 1507.6 833.012C1511.9 834.41 1517.27 835.544 1518.53 835.435C1525.01 834.873 1528.82 834.047 1534.92 831.111C1543.66 826.908 1549.84 822.247 1559.7 819.109C1566.35 816.995 1573.16 818.198 1579.71 820.414V820.414Z" fill="#FED100"/>
<path d="M1579.71 820.414C1586.77 822.8 1594.25 827.54 1600.14 836.441C1605.61 844.692 1609.24 854.431 1611.33 866.259C1613.29 877.33 1613.35 883.914 1612.48 894.939C1611.36 909.124 1605.64 923.361 1605.64 923.361L1595.78 920.677C1595.78 920.677 1601.72 901.575 1602.39 893.112C1603.19 882.947 1603.17 879.686 1601.51 870.322C1599.79 860.621 1597.3 853.956 1593.01 847.474C1588.96 841.361 1583.26 837.574 1577.42 835.509C1572.21 833.668 1566.32 832.88 1561.75 834.317C1553.07 837.045 1547.44 841.367 1538 845.908C1531.2 849.184 1525.99 850.307 1519.11 850.903C1514.9 851.267 1510.04 849.666 1505.48 848.182C1500.92 846.698 1497.09 845.163 1497.09 845.163L1499.66 830.142C1499.66 830.142 1503.31 831.614 1507.6 833.012C1511.9 834.41 1517.27 835.544 1518.53 835.435C1525.01 834.873 1528.82 834.047 1534.92 831.111C1543.66 826.908 1549.84 822.247 1559.7 819.109C1566.35 816.995 1573.16 818.198 1579.71 820.414V820.414Z" stroke="black" stroke-width="0.286432"/>
<path d="M1607.05 906.737C1607.05 907.849 1607.19 908.951 1607.46 909.979C1607.74 911.007 1608.14 911.941 1608.64 912.728C1609.15 913.515 1609.75 914.139 1610.42 914.565C1611.08 914.991 1611.79 915.211 1612.51 915.211C1613.22 915.211 1613.93 914.991 1614.6 914.565C1615.26 914.139 1615.86 913.515 1616.37 912.728C1616.88 911.941 1617.28 911.007 1617.55 909.979C1617.83 908.951 1617.97 907.849 1617.96 906.737C1617.97 905.625 1617.83 904.523 1617.55 903.495C1617.28 902.467 1616.88 901.533 1616.37 900.746C1615.86 899.959 1615.26 899.335 1614.6 898.909C1613.93 898.483 1613.22 898.264 1612.51 898.264C1611.79 898.264 1611.08 898.483 1610.42 898.909C1609.75 899.335 1609.15 899.959 1608.64 900.746C1608.14 901.533 1607.74 902.467 1607.46 903.495C1607.19 904.523 1607.05 905.625 1607.05 906.737Z" fill="white" stroke="black" stroke-width="0.286433"/>
<path d="M1609.68 886.737C1609.68 887.849 1609.82 888.951 1610.09 889.979C1610.36 891.007 1610.77 891.941 1611.27 892.728C1611.78 893.515 1612.38 894.139 1613.05 894.565C1613.71 894.991 1614.42 895.211 1615.14 895.211C1615.85 895.211 1616.56 894.991 1617.23 894.565C1617.89 894.139 1618.49 893.515 1619 892.728C1619.5 891.941 1619.91 891.007 1620.18 889.979C1620.45 888.951 1620.59 887.849 1620.59 886.737C1620.59 885.625 1620.45 884.523 1620.18 883.495C1619.91 882.467 1619.5 881.533 1619 880.746C1618.49 879.959 1617.89 879.335 1617.23 878.909C1616.56 878.483 1615.85 878.264 1615.14 878.264C1614.42 878.264 1613.71 878.483 1613.05 878.909C1612.38 879.335 1611.78 879.959 1611.27 880.746C1610.77 881.533 1610.36 882.467 1610.09 883.495C1609.82 884.523 1609.68 885.625 1609.68 886.737Z" fill="white" stroke="black" stroke-width="0.286433"/>
<path d="M1608.88 865.583C1608.88 866.695 1609.02 867.797 1609.3 868.825C1609.57 869.853 1609.97 870.787 1610.48 871.574C1610.99 872.361 1611.59 872.985 1612.25 873.411C1612.91 873.837 1613.63 874.056 1614.34 874.056C1615.06 874.056 1615.77 873.837 1616.43 873.411C1617.1 872.985 1617.7 872.361 1618.2 871.574C1618.71 870.787 1619.11 869.853 1619.39 868.825C1619.66 867.797 1619.8 866.695 1619.8 865.583C1619.8 864.471 1619.66 863.369 1619.39 862.341C1619.11 861.313 1618.71 860.379 1618.2 859.592C1617.7 858.805 1617.1 858.181 1616.43 857.755C1615.77 857.329 1615.06 857.109 1614.34 857.109C1613.63 857.109 1612.91 857.329 1612.25 857.755C1611.59 858.181 1610.99 858.805 1610.48 859.592C1609.97 860.379 1609.57 861.313 1609.3 862.341C1609.02 863.369 1608.88 864.471 1608.88 865.583Z" fill="white" stroke="black" stroke-width="0.286433"/>
<path d="M1603.55 845.515C1603.55 846.627 1603.69 847.728 1603.96 848.756C1604.24 849.784 1604.64 850.719 1605.15 851.506C1605.65 852.292 1606.26 852.917 1606.92 853.343C1607.58 853.769 1608.29 853.988 1609.01 853.988C1609.73 853.988 1610.44 853.769 1611.1 853.343C1611.76 852.917 1612.36 852.292 1612.87 851.506C1613.38 850.719 1613.78 849.784 1614.05 848.756C1614.33 847.728 1614.47 846.627 1614.47 845.515C1614.47 844.402 1614.33 843.301 1614.05 842.273C1613.78 841.245 1613.38 840.311 1612.87 839.524C1612.36 838.737 1611.76 838.112 1611.1 837.686C1610.44 837.26 1609.73 837.041 1609.01 837.041C1608.29 837.041 1607.58 837.26 1606.92 837.686C1606.26 838.112 1605.65 838.737 1605.15 839.524C1604.64 840.311 1604.24 841.245 1603.96 842.273C1603.69 843.301 1603.55 844.402 1603.55 845.515Z" fill="white" stroke="black" stroke-width="0.286433"/>
<path d="M1593.59 829.786C1593.59 830.898 1593.73 832 1594.01 833.028C1594.28 834.056 1594.68 834.99 1595.19 835.777C1595.7 836.564 1596.3 837.188 1596.96 837.614C1597.62 838.04 1598.33 838.259 1599.05 838.259C1599.77 838.259 1600.48 838.04 1601.14 837.614C1601.8 837.188 1602.41 836.564 1602.91 835.777C1603.42 834.99 1603.82 834.056 1604.1 833.028C1604.37 832 1604.51 830.898 1604.51 829.786C1604.51 828.674 1604.37 827.572 1604.1 826.544C1603.82 825.516 1603.42 824.582 1602.91 823.795C1602.41 823.008 1601.8 822.384 1601.14 821.958C1600.48 821.532 1599.77 821.312 1599.05 821.313C1598.33 821.312 1597.62 821.532 1596.96 821.958C1596.3 822.384 1595.7 823.008 1595.19 823.795C1594.68 824.582 1594.28 825.516 1594.01 826.544C1593.73 827.572 1593.59 828.674 1593.59 829.786Z" fill="white" stroke="black" stroke-width="0.286433"/>
<path d="M1581.15 819.479C1581.15 820.592 1581.29 821.693 1581.56 822.721C1581.83 823.749 1582.24 824.683 1582.74 825.47C1583.25 826.257 1583.85 826.882 1584.51 827.308C1585.18 827.734 1585.89 827.953 1586.6 827.953C1587.32 827.953 1588.03 827.734 1588.69 827.308C1589.36 826.882 1589.96 826.257 1590.47 825.47C1590.97 824.683 1591.38 823.749 1591.65 822.721C1591.92 821.693 1592.06 820.592 1592.06 819.479C1592.06 818.367 1591.92 817.266 1591.65 816.238C1591.38 815.21 1590.97 814.275 1590.47 813.488C1589.96 812.701 1589.36 812.077 1588.69 811.651C1588.03 811.225 1587.32 811.006 1586.6 811.006C1585.89 811.006 1585.18 811.225 1584.51 811.651C1583.85 812.077 1583.25 812.701 1582.74 813.488C1582.24 814.275 1581.83 815.21 1581.56 816.238C1581.29 817.266 1581.15 818.367 1581.15 819.479Z" fill="white" stroke="black" stroke-width="0.286433"/>
<path d="M1566.92 814.054C1566.92 815.166 1567.06 816.267 1567.34 817.295C1567.61 818.323 1568.01 819.258 1568.52 820.045C1569.02 820.832 1569.63 821.456 1570.29 821.882C1570.95 822.308 1571.66 822.527 1572.38 822.527C1573.1 822.527 1573.81 822.308 1574.47 821.882C1575.13 821.456 1575.73 820.832 1576.24 820.045C1576.75 819.258 1577.15 818.323 1577.42 817.295C1577.7 816.267 1577.84 815.166 1577.84 814.054C1577.84 812.941 1577.7 811.84 1577.42 810.812C1577.15 809.784 1576.75 808.85 1576.24 808.063C1575.73 807.276 1575.13 806.651 1574.47 806.225C1573.81 805.799 1573.1 805.58 1572.38 805.58C1571.66 805.58 1570.95 805.799 1570.29 806.225C1569.63 806.651 1569.02 807.276 1568.52 808.063C1568.01 808.85 1567.61 809.784 1567.34 810.812C1567.06 811.84 1566.92 812.941 1566.92 814.054Z" fill="white" stroke="black" stroke-width="0.286433"/>
<path d="M1552.34 815.138C1552.34 816.25 1552.48 817.351 1552.75 818.379C1553.03 819.407 1553.43 820.342 1553.94 821.129C1554.44 821.916 1555.05 822.54 1555.71 822.966C1556.37 823.392 1557.08 823.611 1557.8 823.611C1558.52 823.611 1559.23 823.392 1559.89 822.966C1560.55 822.54 1561.15 821.916 1561.66 821.129C1562.17 820.342 1562.57 819.407 1562.84 818.379C1563.12 817.351 1563.26 816.25 1563.26 815.138C1563.26 814.025 1563.12 812.924 1562.84 811.896C1562.57 810.868 1562.17 809.934 1561.66 809.147C1561.15 808.36 1560.55 807.735 1559.89 807.309C1559.23 806.883 1558.52 806.664 1557.8 806.664C1557.08 806.664 1556.37 806.883 1555.71 807.309C1555.05 807.735 1554.44 808.36 1553.94 809.147C1553.43 809.934 1553.03 810.868 1552.75 811.896C1552.48 812.924 1552.34 814.025 1552.34 815.138Z" fill="white" stroke="black" stroke-width="0.286433"/>
<path d="M1512.87 830.87C1512.87 831.982 1513.01 833.084 1513.28 834.112C1513.55 835.14 1513.96 836.074 1514.46 836.861C1514.97 837.648 1515.57 838.272 1516.23 838.698C1516.9 839.124 1517.61 839.343 1518.33 839.343C1519.04 839.343 1519.75 839.124 1520.42 838.698C1521.08 838.272 1521.68 837.648 1522.19 836.861C1522.69 836.074 1523.1 835.14 1523.37 834.112C1523.64 833.084 1523.78 831.982 1523.78 830.87C1523.78 829.758 1523.64 828.656 1523.37 827.628C1523.1 826.6 1522.69 825.666 1522.19 824.879C1521.68 824.092 1521.08 823.468 1520.42 823.042C1519.75 822.616 1519.04 822.396 1518.33 822.396C1517.61 822.396 1516.9 822.616 1516.23 823.042C1515.57 823.468 1514.97 824.092 1514.46 824.879C1513.96 825.666 1513.55 826.6 1513.28 827.628C1513.01 828.656 1512.87 829.758 1512.87 830.87Z" fill="white" stroke="black" stroke-width="0.286433"/>
<path d="M1538.47 821.106C1538.47 822.218 1538.61 823.32 1538.89 824.348C1539.16 825.376 1539.56 826.31 1540.07 827.097C1540.58 827.884 1541.18 828.509 1541.84 828.935C1542.5 829.361 1543.21 829.58 1543.93 829.58C1544.65 829.58 1545.36 829.361 1546.02 828.935C1546.68 828.509 1547.29 827.884 1547.79 827.097C1548.3 826.31 1548.7 825.376 1548.98 824.348C1549.25 823.32 1549.39 822.218 1549.39 821.106C1549.39 819.994 1549.25 818.892 1548.98 817.865C1548.7 816.837 1548.3 815.902 1547.79 815.115C1547.29 814.328 1546.68 813.704 1546.02 813.278C1545.36 812.852 1544.65 812.633 1543.93 812.633C1543.21 812.633 1542.5 812.852 1541.84 813.278C1541.18 813.704 1540.58 814.328 1540.07 815.115C1539.56 815.902 1539.16 816.837 1538.89 817.865C1538.61 818.892 1538.47 819.994 1538.47 821.106Z" fill="white" stroke="black" stroke-width="0.286433"/>
<path d="M1525.67 827.071C1525.67 828.183 1525.81 829.285 1526.08 830.313C1526.36 831.341 1526.76 832.275 1527.27 833.062C1527.77 833.849 1528.37 834.473 1529.04 834.899C1529.7 835.325 1530.41 835.545 1531.13 835.545C1531.85 835.545 1532.56 835.325 1533.22 834.899C1533.88 834.473 1534.48 833.849 1534.99 833.062C1535.5 832.275 1535.9 831.341 1536.17 830.313C1536.45 829.285 1536.59 828.183 1536.59 827.071C1536.59 825.959 1536.45 824.857 1536.17 823.829C1535.9 822.801 1535.5 821.867 1534.99 821.08C1534.48 820.293 1533.88 819.669 1533.22 819.243C1532.56 818.817 1531.85 818.598 1531.13 818.598C1530.41 818.598 1529.7 818.817 1529.04 819.243C1528.37 819.669 1527.77 820.293 1527.27 821.08C1526.76 821.867 1526.36 822.801 1526.08 823.829C1525.81 824.857 1525.67 825.959 1525.67 827.071Z" fill="white" stroke="black" stroke-width="0.286433"/>
<path d="M1417.78 820.414C1410.73 822.8 1403.24 827.54 1397.35 836.441C1391.89 844.692 1388.25 854.431 1386.16 866.259C1384.2 877.33 1384.14 883.914 1385.01 894.939C1386.13 909.124 1391.85 923.361 1391.85 923.361L1401.71 920.677C1401.71 920.677 1395.77 901.575 1395.1 893.112C1394.3 882.947 1394.32 879.686 1395.98 870.322C1397.7 860.621 1400.19 853.956 1404.49 847.474C1408.53 841.361 1414.24 837.574 1420.08 835.509C1425.28 833.668 1431.17 832.88 1435.74 834.317C1444.42 837.045 1450.06 841.367 1459.49 845.908C1466.3 849.184 1471.5 850.307 1478.38 850.903C1482.59 851.267 1487.45 849.666 1492.02 848.182C1496.58 846.698 1500.4 845.163 1500.4 845.163L1497.83 830.142C1497.83 830.142 1494.19 831.614 1489.89 833.012C1485.59 834.41 1480.23 835.544 1478.97 835.435C1472.48 834.873 1468.67 834.047 1462.57 831.111C1453.84 826.908 1447.65 822.247 1437.79 819.109C1431.15 816.995 1424.33 818.198 1417.78 820.414V820.414Z" fill="#FED100"/>
<path d="M1417.78 820.414C1410.73 822.8 1403.24 827.54 1397.35 836.441C1391.89 844.692 1388.25 854.431 1386.16 866.259C1384.2 877.33 1384.14 883.914 1385.01 894.939C1386.13 909.124 1391.85 923.361 1391.85 923.361L1401.71 920.677C1401.71 920.677 1395.77 901.575 1395.1 893.112C1394.3 882.947 1394.32 879.686 1395.98 870.322C1397.7 860.621 1400.19 853.956 1404.49 847.474C1408.53 841.361 1414.24 837.574 1420.08 835.509C1425.28 833.668 1431.17 832.88 1435.74 834.317C1444.42 837.045 1450.06 841.367 1459.49 845.908C1466.3 849.184 1471.5 850.307 1478.38 850.903C1482.59 851.267 1487.45 849.666 1492.02 848.182C1496.58 846.698 1500.4 845.163 1500.4 845.163L1497.83 830.142C1497.83 830.142 1494.19 831.614 1489.89 833.012C1485.59 834.41 1480.23 835.544 1478.97 835.435C1472.48 834.873 1468.67 834.047 1462.57 831.111C1453.84 826.908 1447.65 822.247 1437.79 819.109C1431.15 816.995 1424.33 818.198 1417.78 820.414V820.414Z" stroke="black" stroke-width="0.286432"/>
<path d="M1390.44 906.737C1390.44 907.849 1390.3 908.951 1390.03 909.979C1389.76 911.007 1389.35 911.941 1388.85 912.728C1388.34 913.515 1387.74 914.139 1387.08 914.565C1386.41 914.991 1385.7 915.211 1384.99 915.211C1384.27 915.211 1383.56 914.991 1382.9 914.565C1382.23 914.139 1381.63 913.515 1381.12 912.728C1380.62 911.941 1380.21 911.007 1379.94 909.979C1379.67 908.951 1379.53 907.849 1379.53 906.737C1379.53 905.625 1379.67 904.523 1379.94 903.495C1380.21 902.467 1380.62 901.533 1381.12 900.746C1381.63 899.959 1382.23 899.335 1382.9 898.909C1383.56 898.483 1384.27 898.264 1384.99 898.264C1385.7 898.264 1386.41 898.483 1387.08 898.909C1387.74 899.335 1388.34 899.959 1388.85 900.746C1389.35 901.533 1389.76 902.467 1390.03 903.495C1390.3 904.523 1390.44 905.625 1390.44 906.737Z" fill="white" stroke="black" stroke-width="0.286433"/>
<path d="M1387.81 886.737C1387.82 887.849 1387.68 888.951 1387.4 889.979C1387.13 891.007 1386.73 891.941 1386.22 892.728C1385.71 893.515 1385.11 894.139 1384.45 894.565C1383.78 894.991 1383.07 895.211 1382.36 895.211C1381.64 895.211 1380.93 894.991 1380.27 894.565C1379.6 894.139 1379 893.515 1378.49 892.728C1377.99 891.941 1377.59 891.007 1377.31 889.979C1377.04 888.951 1376.9 887.849 1376.9 886.737C1376.9 885.625 1377.04 884.523 1377.31 883.495C1377.59 882.467 1377.99 881.533 1378.49 880.746C1379 879.959 1379.6 879.335 1380.27 878.909C1380.93 878.483 1381.64 878.264 1382.36 878.264C1383.07 878.264 1383.78 878.483 1384.45 878.909C1385.11 879.335 1385.71 879.959 1386.22 880.746C1386.73 881.533 1387.13 882.467 1387.4 883.495C1387.68 884.523 1387.82 885.625 1387.81 886.737Z" fill="white" stroke="black" stroke-width="0.286433"/>
<path d="M1388.61 865.583C1388.61 866.695 1388.47 867.797 1388.19 868.825C1387.92 869.853 1387.52 870.787 1387.01 871.574C1386.5 872.361 1385.9 872.985 1385.24 873.411C1384.58 873.837 1383.87 874.056 1383.15 874.056C1382.43 874.056 1381.72 873.837 1381.06 873.411C1380.4 872.985 1379.79 872.361 1379.29 871.574C1378.78 870.787 1378.38 869.853 1378.1 868.825C1377.83 867.797 1377.69 866.695 1377.69 865.583C1377.69 864.471 1377.83 863.369 1378.1 862.341C1378.38 861.313 1378.78 860.379 1379.29 859.592C1379.79 858.805 1380.4 858.181 1381.06 857.755C1381.72 857.329 1382.43 857.109 1383.15 857.109C1383.87 857.109 1384.58 857.329 1385.24 857.755C1385.9 858.181 1386.5 858.805 1387.01 859.592C1387.52 860.379 1387.92 861.313 1388.19 862.341C1388.47 863.369 1388.61 864.471 1388.61 865.583Z" fill="white" stroke="black" stroke-width="0.286433"/>
<path d="M1393.94 845.515C1393.94 846.627 1393.8 847.728 1393.53 848.756C1393.25 849.784 1392.85 850.719 1392.35 851.506C1391.84 852.292 1391.24 852.917 1390.57 853.343C1389.91 853.769 1389.2 853.988 1388.48 853.988C1387.77 853.988 1387.06 853.769 1386.39 853.343C1385.73 852.917 1385.13 852.292 1384.62 851.506C1384.11 850.719 1383.71 849.784 1383.44 848.756C1383.16 847.728 1383.02 846.627 1383.03 845.515C1383.02 844.402 1383.16 843.301 1383.44 842.273C1383.71 841.245 1384.11 840.311 1384.62 839.524C1385.13 838.737 1385.73 838.112 1386.39 837.686C1387.06 837.26 1387.77 837.041 1388.48 837.041C1389.2 837.041 1389.91 837.26 1390.57 837.686C1391.24 838.112 1391.84 838.737 1392.35 839.524C1392.85 840.311 1393.25 841.245 1393.53 842.273C1393.8 843.301 1393.94 844.402 1393.94 845.515Z" fill="white" stroke="black" stroke-width="0.286433"/>
<path d="M1403.9 829.786C1403.9 830.898 1403.76 832 1403.49 833.028C1403.21 834.056 1402.81 834.99 1402.3 835.777C1401.8 836.564 1401.19 837.188 1400.53 837.614C1399.87 838.04 1399.16 838.259 1398.44 838.259C1397.72 838.259 1397.01 838.04 1396.35 837.614C1395.69 837.188 1395.09 836.564 1394.58 835.777C1394.07 834.99 1393.67 834.056 1393.4 833.028C1393.12 832 1392.98 830.898 1392.98 829.786C1392.98 828.674 1393.12 827.572 1393.4 826.544C1393.67 825.516 1394.07 824.582 1394.58 823.795C1395.09 823.008 1395.69 822.384 1396.35 821.958C1397.01 821.532 1397.72 821.312 1398.44 821.313C1399.16 821.312 1399.87 821.532 1400.53 821.958C1401.19 822.384 1401.8 823.008 1402.3 823.795C1402.81 824.582 1403.21 825.516 1403.49 826.544C1403.76 827.572 1403.9 828.674 1403.9 829.786Z" fill="white" stroke="black" stroke-width="0.286433"/>
<path d="M1416.35 819.479C1416.35 820.592 1416.21 821.693 1415.93 822.721C1415.66 823.749 1415.26 824.683 1414.75 825.47C1414.24 826.257 1413.64 826.882 1412.98 827.308C1412.32 827.734 1411.61 827.953 1410.89 827.953C1410.17 827.953 1409.46 827.734 1408.8 827.308C1408.13 826.882 1407.53 826.257 1407.03 825.47C1406.52 824.683 1406.12 823.749 1405.84 822.721C1405.57 821.693 1405.43 820.592 1405.43 819.479C1405.43 818.367 1405.57 817.266 1405.84 816.238C1406.12 815.21 1406.52 814.275 1407.03 813.488C1407.53 812.701 1408.13 812.077 1408.8 811.651C1409.46 811.225 1410.17 811.006 1410.89 811.006C1411.61 811.006 1412.32 811.225 1412.98 811.651C1413.64 812.077 1414.24 812.701 1414.75 813.488C1415.26 814.275 1415.66 815.21 1415.93 816.238C1416.21 817.266 1416.35 818.367 1416.35 819.479Z" fill="white" stroke="black" stroke-width="0.286433"/>
<path d="M1430.57 814.054C1430.57 815.166 1430.43 816.267 1430.16 817.295C1429.88 818.323 1429.48 819.258 1428.97 820.045C1428.47 820.832 1427.87 821.456 1427.2 821.882C1426.54 822.308 1425.83 822.527 1425.11 822.527C1424.4 822.527 1423.68 822.308 1423.02 821.882C1422.36 821.456 1421.76 820.832 1421.25 820.045C1420.74 819.258 1420.34 818.323 1420.07 817.295C1419.79 816.267 1419.65 815.166 1419.65 814.054C1419.65 812.941 1419.79 811.84 1420.07 810.812C1420.34 809.784 1420.74 808.85 1421.25 808.063C1421.76 807.276 1422.36 806.651 1423.02 806.225C1423.68 805.799 1424.4 805.58 1425.11 805.58C1425.83 805.58 1426.54 805.799 1427.2 806.225C1427.87 806.651 1428.47 807.276 1428.97 808.063C1429.48 808.85 1429.88 809.784 1430.16 810.812C1430.43 811.84 1430.57 812.941 1430.57 814.054Z" fill="white" stroke="black" stroke-width="0.286433"/>
<path d="M1445.15 815.138C1445.15 816.25 1445.01 817.351 1444.74 818.379C1444.46 819.407 1444.06 820.342 1443.55 821.129C1443.05 821.916 1442.45 822.54 1441.78 822.966C1441.12 823.392 1440.41 823.611 1439.69 823.611C1438.98 823.611 1438.26 823.392 1437.6 822.966C1436.94 822.54 1436.34 821.916 1435.83 821.129C1435.32 820.342 1434.92 819.407 1434.65 818.379C1434.37 817.351 1434.23 816.25 1434.23 815.138C1434.23 814.025 1434.37 812.924 1434.65 811.896C1434.92 810.868 1435.32 809.934 1435.83 809.147C1436.34 808.36 1436.94 807.735 1437.6 807.309C1438.26 806.883 1438.98 806.664 1439.69 806.664C1440.41 806.664 1441.12 806.883 1441.78 807.309C1442.45 807.735 1443.05 808.36 1443.55 809.147C1444.06 809.934 1444.46 810.868 1444.74 811.896C1445.01 812.924 1445.15 814.025 1445.15 815.138Z" fill="white" stroke="black" stroke-width="0.286433"/>
<path d="M1484.63 830.868C1484.63 831.98 1484.49 833.082 1484.21 834.11C1483.94 835.138 1483.54 836.072 1483.03 836.859C1482.52 837.646 1481.92 838.27 1481.26 838.696C1480.59 839.122 1479.88 839.341 1479.17 839.341C1478.45 839.341 1477.74 839.122 1477.08 838.696C1476.41 838.27 1475.81 837.646 1475.3 836.859C1474.8 836.072 1474.4 835.138 1474.12 834.11C1473.85 833.082 1473.71 831.98 1473.71 830.868C1473.71 829.756 1473.85 828.654 1474.12 827.626C1474.4 826.598 1474.8 825.664 1475.3 824.877C1475.81 824.09 1476.41 823.466 1477.08 823.04C1477.74 822.614 1478.45 822.395 1479.17 822.395C1479.88 822.395 1480.59 822.614 1481.26 823.04C1481.92 823.466 1482.52 824.09 1483.03 824.877C1483.54 825.664 1483.94 826.598 1484.21 827.626C1484.49 828.654 1484.63 829.756 1484.63 830.868Z" fill="white" stroke="black" stroke-width="0.286433"/>
<path d="M1459.02 821.106C1459.02 822.218 1458.88 823.32 1458.61 824.348C1458.33 825.376 1457.93 826.31 1457.42 827.097C1456.92 827.884 1456.31 828.509 1455.65 828.935C1454.99 829.361 1454.28 829.58 1453.56 829.58C1452.84 829.58 1452.13 829.361 1451.47 828.935C1450.81 828.509 1450.21 827.884 1449.7 827.097C1449.19 826.31 1448.79 825.376 1448.52 824.348C1448.24 823.32 1448.1 822.218 1448.1 821.106C1448.1 819.994 1448.24 818.892 1448.52 817.865C1448.79 816.837 1449.19 815.902 1449.7 815.115C1450.21 814.328 1450.81 813.704 1451.47 813.278C1452.13 812.852 1452.84 812.633 1453.56 812.633C1454.28 812.633 1454.99 812.852 1455.65 813.278C1456.31 813.704 1456.92 814.328 1457.42 815.115C1457.93 815.902 1458.33 816.837 1458.61 817.865C1458.88 818.892 1459.02 819.994 1459.02 821.106Z" fill="white" stroke="black" stroke-width="0.286433"/>
<path d="M1471.82 827.071C1471.82 828.183 1471.68 829.285 1471.41 830.313C1471.14 831.341 1470.73 832.275 1470.23 833.062C1469.72 833.849 1469.12 834.473 1468.45 834.899C1467.79 835.325 1467.08 835.545 1466.36 835.545C1465.65 835.545 1464.94 835.325 1464.27 834.899C1463.61 834.473 1463.01 833.849 1462.5 833.062C1462 832.275 1461.59 831.341 1461.32 830.313C1461.05 829.285 1460.91 828.183 1460.91 827.071C1460.91 825.959 1461.05 824.857 1461.32 823.829C1461.59 822.801 1462 821.867 1462.5 821.08C1463.01 820.293 1463.61 819.669 1464.27 819.243C1464.94 818.817 1465.65 818.598 1466.36 818.598C1467.08 818.598 1467.79 818.817 1468.45 819.243C1469.12 819.669 1469.72 820.293 1470.23 821.08C1470.73 821.867 1471.14 822.801 1471.41 823.829C1471.68 824.857 1471.82 825.959 1471.82 827.071Z" fill="white" stroke="black" stroke-width="0.286433"/>
<path d="M1485.43 792.339C1486.91 789.476 1488.68 787.349 1490.12 784.438C1491.63 781.379 1492.78 777.514 1493.37 773.609C1490.75 774.606 1488.21 776.362 1486.21 778.662C1484.3 780.852 1482.9 783.554 1481.03 785.815V749.143C1482.9 751.405 1484.3 754.106 1486.21 756.296C1488.21 758.597 1490.75 760.352 1493.37 761.349C1492.78 757.445 1491.63 753.579 1490.12 750.52C1488.68 747.609 1486.91 745.482 1485.43 742.619L1512.07 742.619C1510.58 745.482 1508.81 747.609 1507.38 750.52C1505.87 753.579 1504.72 757.445 1504.12 761.349C1506.75 760.352 1509.28 758.597 1511.29 756.296C1513.2 754.106 1514.59 751.405 1516.47 749.143V785.815C1514.59 783.554 1513.2 780.852 1511.29 778.662C1509.28 776.362 1506.75 774.606 1504.12 773.609C1504.72 777.514 1505.87 781.379 1507.38 784.438C1508.81 787.349 1510.58 789.476 1512.07 792.339H1485.43Z" fill="#FED100" stroke="black" stroke-width="0.286432"/>
<path d="M1505.35 767.479C1505.35 768.825 1505.18 770.158 1504.85 771.402C1504.52 772.646 1504.03 773.776 1503.42 774.729C1502.81 775.681 1502.08 776.436 1501.28 776.952C1500.47 777.467 1499.61 777.732 1498.75 777.732C1497.88 777.732 1497.02 777.467 1496.22 776.952C1495.42 776.436 1494.69 775.681 1494.07 774.729C1493.46 773.776 1492.97 772.646 1492.64 771.402C1492.31 770.158 1492.14 768.825 1492.14 767.479C1492.14 766.134 1492.31 764.801 1492.64 763.557C1492.97 762.313 1493.46 761.183 1494.07 760.23C1494.69 759.278 1495.42 758.523 1496.22 758.007C1497.02 757.492 1497.88 757.227 1498.75 757.227C1499.61 757.227 1500.47 757.492 1501.28 758.007C1502.08 758.523 1502.81 759.278 1503.42 760.23C1504.03 761.183 1504.52 762.313 1504.85 763.557C1505.18 764.801 1505.35 766.134 1505.35 767.479Z" fill="white" stroke="black" stroke-width="0.286432"/>
<path d="M1513.74 815.318C1513.74 818.323 1513.35 821.3 1512.6 824.077C1511.85 826.855 1510.75 829.379 1509.35 831.506C1507.96 833.632 1506.31 835.319 1504.49 836.47C1502.67 837.621 1500.72 838.214 1498.75 838.214C1496.78 838.214 1494.83 837.621 1493.01 836.47C1491.19 835.319 1489.53 833.632 1488.14 831.506C1486.75 829.379 1485.64 826.855 1484.89 824.077C1484.14 821.3 1483.76 818.323 1483.76 815.318C1483.76 812.313 1484.14 809.336 1484.89 806.558C1485.64 803.781 1486.75 801.256 1488.14 799.13C1489.53 797.003 1491.19 795.316 1493.01 794.165C1494.83 793.014 1496.78 792.422 1498.75 792.422C1500.72 792.422 1502.67 793.014 1504.49 794.165C1506.31 795.316 1507.96 797.003 1509.35 799.13C1510.75 801.256 1511.85 803.781 1512.6 806.558C1513.35 809.336 1513.74 812.313 1513.74 815.318Z" fill="#FED100"/>
<path d="M1513.74 815.318C1513.74 818.323 1513.35 821.3 1512.6 824.077C1511.85 826.855 1510.75 829.379 1509.35 831.506C1507.96 833.632 1506.31 835.319 1504.49 836.47C1502.67 837.621 1500.72 838.214 1498.75 838.214C1496.78 838.214 1494.83 837.621 1493.01 836.47C1491.19 835.319 1489.53 833.632 1488.14 831.506C1486.75 829.379 1485.64 826.855 1484.89 824.077C1484.14 821.3 1483.76 818.323 1483.76 815.318C1483.76 812.313 1484.14 809.336 1484.89 806.558C1485.64 803.781 1486.75 801.256 1488.14 799.13C1489.53 797.003 1491.19 795.316 1493.01 794.165C1494.83 793.014 1496.78 792.422 1498.75 792.422C1500.72 792.422 1502.67 793.014 1504.49 794.165C1506.31 795.316 1507.96 797.003 1509.35 799.13C1510.75 801.256 1511.85 803.781 1512.6 806.558C1513.35 809.336 1513.74 812.313 1513.74 815.318Z" stroke="black" stroke-width="0.286432"/>
<path d="M1495.54 790.697V809.89H1482.96V819.663H1514.53V809.89H1501.93V790.697H1495.54Z" fill="#FED100"/>
<path d="M1495.54 790.697V809.89H1482.96V819.663H1514.53V809.89H1501.93V790.697H1495.54Z" stroke="black" stroke-width="0.286431"/>
<path d="M1503.65 833.459H1493.84C1491.08 833.459 1488.85 836.869 1488.85 841.076V911.385C1488.85 915.591 1491.08 919.001 1493.84 919.001H1503.65C1506.41 919.001 1508.65 915.591 1508.65 911.385V841.076C1508.65 836.869 1506.41 833.459 1503.65 833.459Z" fill="#FED100"/>
<path d="M1503.65 833.459H1493.84C1491.08 833.459 1488.85 836.869 1488.85 841.076V911.385C1488.85 915.591 1491.08 919.001 1493.84 919.001H1503.65C1506.41 919.001 1508.65 915.591 1508.65 911.385V841.076C1508.65 836.869 1506.41 833.459 1503.65 833.459Z" stroke="black" stroke-width="0.286432"/>
<path d="M1491.26 837.481C1491.26 835.211 1489.84 833.371 1488.1 833.371C1486.36 833.371 1484.94 835.211 1484.94 837.481V914.975C1484.94 917.245 1486.36 919.085 1488.1 919.085C1489.84 919.085 1491.26 917.245 1491.26 914.975V837.481Z" fill="#FED100"/>
<path d="M1488.1 833.371C1489.85 833.371 1491.26 835.204 1491.26 837.481V914.975C1491.26 917.252 1489.85 919.085 1488.1 919.085C1486.35 919.085 1484.94 917.252 1484.94 914.975V837.481C1484.94 835.204 1486.35 833.371 1488.1 833.371Z" stroke="black" stroke-width="0.286431"/>
<path d="M1512.55 837.481C1512.55 835.211 1511.14 833.371 1509.39 833.371C1507.65 833.371 1506.24 835.211 1506.24 837.481V914.975C1506.24 917.245 1507.65 919.085 1509.39 919.085C1511.14 919.085 1512.55 917.245 1512.55 914.975V837.481Z" fill="#FED100"/>
<path d="M1512.55 837.481C1512.55 835.211 1511.14 833.371 1509.39 833.371C1507.65 833.371 1506.24 835.211 1506.24 837.481V914.975C1506.24 917.245 1507.65 919.085 1509.39 919.085C1511.14 919.085 1512.55 917.245 1512.55 914.975V837.481Z" stroke="black" stroke-width="0.286431"/>
<path d="M1504.21 835.28C1504.21 836.392 1504.07 837.494 1503.79 838.522C1503.52 839.55 1503.12 840.484 1502.61 841.271C1502.1 842.058 1501.5 842.682 1500.84 843.108C1500.18 843.534 1499.46 843.754 1498.75 843.754C1498.03 843.754 1497.32 843.534 1496.66 843.108C1495.99 842.682 1495.39 842.058 1494.89 841.271C1494.38 840.484 1493.98 839.55 1493.7 838.522C1493.43 837.494 1493.29 836.392 1493.29 835.28C1493.29 834.168 1493.43 833.066 1493.7 832.038C1493.98 831.01 1494.38 830.076 1494.89 829.289C1495.39 828.502 1495.99 827.878 1496.66 827.452C1497.32 827.026 1498.03 826.807 1498.75 826.807C1499.46 826.807 1500.18 827.026 1500.84 827.452C1501.5 827.878 1502.1 828.502 1502.61 829.289C1503.12 830.076 1503.52 831.01 1503.79 832.038C1504.07 833.066 1504.21 834.168 1504.21 835.28Z" fill="white" stroke="black" stroke-width="0.286433"/>
<path d="M1504.21 852.104C1504.21 853.217 1504.07 854.318 1503.79 855.346C1503.52 856.374 1503.12 857.308 1502.61 858.095C1502.1 858.882 1501.5 859.507 1500.84 859.933C1500.18 860.359 1499.46 860.578 1498.75 860.578C1498.03 860.578 1497.32 860.359 1496.66 859.933C1495.99 859.507 1495.39 858.882 1494.89 858.095C1494.38 857.308 1493.98 856.374 1493.7 855.346C1493.43 854.318 1493.29 853.217 1493.29 852.104C1493.29 850.992 1493.43 849.891 1493.7 848.863C1493.98 847.835 1494.38 846.9 1494.89 846.113C1495.39 845.326 1495.99 844.702 1496.66 844.276C1497.32 843.85 1498.03 843.631 1498.75 843.631C1499.46 843.631 1500.18 843.85 1500.84 844.276C1501.5 844.702 1502.1 845.326 1502.61 846.113C1503.12 846.9 1503.52 847.835 1503.79 848.863C1504.07 849.891 1504.21 850.992 1504.21 852.104Z" fill="white" stroke="black" stroke-width="0.286433"/>
<path d="M1504.21 868.958C1504.21 870.07 1504.07 871.172 1503.79 872.2C1503.52 873.228 1503.12 874.162 1502.61 874.949C1502.1 875.736 1501.5 876.36 1500.84 876.786C1500.18 877.212 1499.46 877.431 1498.75 877.431C1498.03 877.431 1497.32 877.212 1496.66 876.786C1495.99 876.36 1495.39 875.736 1494.89 874.949C1494.38 874.162 1493.98 873.228 1493.7 872.2C1493.43 871.172 1493.29 870.07 1493.29 868.958C1493.29 867.846 1493.43 866.744 1493.7 865.716C1493.98 864.688 1494.38 863.754 1494.89 862.967C1495.39 862.18 1495.99 861.556 1496.66 861.13C1497.32 860.704 1498.03 860.484 1498.75 860.484C1499.46 860.484 1500.18 860.704 1500.84 861.13C1501.5 861.556 1502.1 862.18 1502.61 862.967C1503.12 863.754 1503.52 864.688 1503.79 865.716C1504.07 866.744 1504.21 867.846 1504.21 868.958Z" fill="white" stroke="black" stroke-width="0.286433"/>
<path d="M1504.21 885.806C1504.21 886.918 1504.07 888.019 1503.79 889.047C1503.52 890.075 1503.12 891.01 1502.61 891.797C1502.1 892.584 1501.5 893.208 1500.84 893.634C1500.18 894.06 1499.46 894.279 1498.75 894.279C1498.03 894.279 1497.32 894.06 1496.66 893.634C1495.99 893.208 1495.39 892.584 1494.89 891.797C1494.38 891.01 1493.98 890.075 1493.7 889.047C1493.43 888.019 1493.29 886.918 1493.29 885.806C1493.29 884.693 1493.43 883.592 1493.7 882.564C1493.98 881.536 1494.38 880.602 1494.89 879.815C1495.39 879.028 1495.99 878.403 1496.66 877.977C1497.32 877.551 1498.03 877.332 1498.75 877.332C1499.46 877.332 1500.18 877.551 1500.84 877.977C1501.5 878.403 1502.1 879.028 1502.61 879.815C1503.12 880.602 1503.52 881.536 1503.79 882.564C1504.07 883.592 1504.21 884.693 1504.21 885.806Z" fill="white" stroke="black" stroke-width="0.286433"/>
<path d="M1504.21 902.657C1504.21 903.769 1504.07 904.871 1503.79 905.899C1503.52 906.927 1503.12 907.861 1502.61 908.648C1502.1 909.435 1501.5 910.059 1500.84 910.485C1500.18 910.911 1499.46 911.131 1498.75 911.131C1498.03 911.131 1497.32 910.911 1496.66 910.485C1495.99 910.059 1495.39 909.435 1494.89 908.648C1494.38 907.861 1493.98 906.927 1493.7 905.899C1493.43 904.871 1493.29 903.769 1493.29 902.657C1493.29 901.545 1493.43 900.443 1493.7 899.415C1493.98 898.387 1494.38 897.453 1494.89 896.666C1495.39 895.879 1495.99 895.255 1496.66 894.829C1497.32 894.403 1498.03 894.184 1498.75 894.184C1499.46 894.184 1500.18 894.403 1500.84 894.829C1501.5 895.255 1502.1 895.879 1502.61 896.666C1503.12 897.453 1503.52 898.387 1503.79 899.415C1504.07 900.443 1504.21 901.545 1504.21 902.657Z" fill="white" stroke="black" stroke-width="0.286433"/>
<path d="M1596.77 956.144C1591.51 974.062 1587.3 991.556 1583.18 1009.56H1498.48H1413.79C1409.8 992.156 1405.74 973.439 1400.72 956.144C1400.72 956.144 1411.27 978.645 1419.16 984.086C1423.55 987.108 1429.03 988.009 1433.57 985.551C1439.54 982.31 1447.49 965.777 1447.49 965.777C1447.49 965.777 1454.64 978.537 1459.49 981.889C1464.05 985.035 1469.38 985.163 1474.38 984.818C1478.8 984.513 1483.7 984.259 1487.34 980.424C1492.86 974.617 1498.39 954.791 1498.39 954.791C1498.39 954.791 1503.73 970.389 1507.99 976.03C1511.5 980.684 1515.91 984.159 1520.47 985.551C1525.04 986.942 1530.02 986.493 1534.4 984.086C1540.33 980.823 1549.76 967.241 1549.76 967.241C1549.76 967.241 1556.25 979.522 1560.81 982.621C1565.21 985.621 1570.51 986.504 1575.21 984.818C1580.18 983.034 1584.36 977.543 1588.17 972.368C1591.58 967.749 1596.77 956.144 1596.77 956.144V956.144Z" fill="#FED100"/>
<path d="M1596.77 956.144C1591.51 974.062 1587.3 991.556 1583.18 1009.56H1561.06H1498.48H1433.89H1413.79C1409.8 992.156 1405.74 973.439 1400.72 956.144C1400.72 956.144 1411.27 978.645 1419.16 984.086C1423.55 987.108 1429.03 988.009 1433.57 985.551C1439.54 982.31 1447.49 965.777 1447.49 965.777C1447.49 965.777 1454.64 978.537 1459.49 981.889C1464.05 985.035 1469.38 985.163 1474.38 984.818C1478.8 984.513 1483.7 984.259 1487.34 980.424C1492.86 974.617 1498.39 954.791 1498.39 954.791C1498.39 954.791 1503.73 970.389 1507.99 976.03C1511.5 980.684 1515.91 984.159 1520.47 985.551C1525.04 986.942 1530.02 986.493 1534.4 984.086C1540.33 980.823 1549.76 967.241 1549.76 967.241C1549.76 967.241 1556.25 979.522 1560.81 982.621C1565.21 985.621 1570.51 986.504 1575.21 984.818C1580.18 983.034 1584.36 977.543 1588.17 972.368C1591.58 967.749 1596.77 956.144 1596.77 956.144V956.144Z" stroke="black" stroke-width="0.286432"/>
<path d="M1498.75 966.294C1498.75 966.294 1494.88 975.363 1492.51 978.461C1489.21 982.764 1487.04 985.357 1482.8 987.394C1478.57 989.427 1472.68 990.571 1468.25 990.201C1463.96 989.843 1459.56 987.949 1455.7 985.097C1452.34 982.618 1447 975.399 1447 975.399C1444.4 980.542 1441.09 984.154 1437.94 986.823C1433.91 990.237 1429.93 990.545 1425.75 990.201C1417.26 989.503 1409.33 981.406 1402.97 964.99C1398.85 950.116 1394.1 935.053 1388.18 919.259C1395.01 915.574 1402.96 913.611 1411.79 912.972C1408.2 928.396 1404.47 943.42 1405.79 955.835C1413.2 947.366 1415.6 935.837 1418.16 924.402L1426.77 970.694C1421.54 969.295 1424.32 967.646 1410.59 963.675C1413.34 971.59 1419.64 981.365 1426.59 982.328C1431.26 982.975 1434.65 980.774 1437.62 976.845C1439.75 974.024 1441.7 970.292 1441.67 966.087C1441.66 963.68 1441.64 961.272 1441.63 958.864C1441.62 957.317 1440.37 955.128 1439.35 955.106C1438.39 955.086 1438.12 957.478 1437.86 958.898C1437.35 961.741 1438.38 964.906 1437.86 967.747C1437.29 970.879 1436.19 973.352 1434.38 975.078C1432.88 976.516 1429.24 976.848 1429.24 976.848L1430.4 970.022C1431.22 965.206 1428.16 961.469 1427.42 956.623C1426.94 953.504 1426.68 950.015 1427.42 947.016C1428.22 943.772 1429.83 940.614 1431.89 939.179C1432.65 938.656 1433.55 938.584 1434.38 938.674C1435.55 938.8 1437.86 939.938 1437.86 939.938C1437.86 939.938 1437.2 935.059 1437.36 932.101C1437.57 928.514 1439.56 921.87 1440.68 918.702C1442.54 913.442 1445.5 908.703 1445.84 908.194C1446.16 908.691 1449.37 913.248 1451.47 918.298C1452.73 921.339 1454.03 925.733 1454.4 929.29C1454.7 932.223 1454.59 938.425 1454.59 938.425C1454.59 938.425 1458 936.286 1459.16 936.036C1459.98 935.859 1460.89 935.834 1461.67 936.277C1463.79 937.489 1465.55 940.468 1466.49 943.62C1467.36 946.533 1467.26 950.041 1466.93 953.203C1466.41 958.116 1464.52 961.916 1465.56 966.633L1467.02 973.319C1467.02 973.319 1463.38 973.374 1461.82 972.099C1459.94 970.569 1458.73 968.218 1458.01 965.155C1457.36 962.376 1457.74 958.974 1456.61 956.581C1456.12 955.522 1455.42 954.35 1454.45 954.473C1453.44 954.602 1452.73 957.121 1452.69 958.667L1452.51 965.169C1452.46 967.166 1453.06 969.242 1453.76 970.859C1455.47 974.819 1458.03 977.221 1460.92 979.005C1464.04 980.937 1466.86 981.679 1470.23 981.739C1473.05 981.789 1477.93 981.087 1480.6 979.713C1483.88 978.021 1485.81 975.872 1488.36 972.275C1489.79 970.248 1490.74 967.304 1491.37 964.483C1492.1 961.235 1491.84 955.629 1491.84 955.629C1488.57 957.517 1485.73 960.057 1483.17 963.024C1480.28 966.377 1477.74 970.277 1475.35 974.4L1475.12 918.439C1478.52 924.166 1481 929.296 1484.4 933.609C1487.27 937.241 1488.74 938.626 1491.61 940.044C1490.79 935.542 1490.51 932.812 1488.4 928.31C1485.47 922.068 1482.61 915.366 1479.07 909.124C1485.6 907.465 1492.13 907.018 1498.75 907.018C1505.37 907.018 1511.89 907.465 1518.43 909.124C1514.88 915.366 1512.02 922.068 1509.09 928.31C1506.98 932.812 1506.7 935.542 1505.89 940.044C1508.75 938.626 1510.23 937.241 1513.09 933.609C1516.49 929.296 1518.97 924.166 1522.37 918.439L1522.14 974.4C1519.75 970.277 1517.22 966.377 1514.32 963.024C1511.76 960.057 1508.92 957.517 1505.65 955.629C1505.65 955.629 1505.39 961.235 1506.12 964.483C1506.75 967.304 1507.71 970.248 1509.14 972.275C1511.68 975.872 1513.61 978.021 1516.89 979.713C1519.56 981.087 1524.45 981.789 1527.26 981.739C1530.63 981.68 1533.45 980.937 1536.58 979.005C1539.46 977.221 1542.02 974.819 1543.74 970.859C1544.44 969.242 1545.03 967.166 1544.98 965.169L1544.8 958.667C1544.76 957.121 1544.05 954.602 1543.04 954.473C1542.07 954.35 1541.38 955.522 1540.88 956.581C1539.75 958.974 1540.13 962.376 1539.48 965.155C1538.77 968.218 1537.56 970.569 1535.67 972.099C1534.11 973.374 1530.47 973.319 1530.47 973.319L1531.94 966.633C1532.97 961.916 1531.08 958.116 1530.57 953.203C1530.24 950.041 1530.13 946.533 1531 943.62C1531.95 940.468 1533.7 937.489 1535.83 936.277C1536.6 935.834 1537.51 935.859 1538.33 936.036C1539.49 936.286 1542.9 938.425 1542.9 938.425C1542.9 938.425 1542.8 932.223 1543.1 929.29C1543.46 925.733 1544.76 921.339 1546.02 918.298C1548.12 913.248 1551.33 908.691 1551.65 908.194C1551.99 908.703 1554.95 913.442 1556.81 918.702C1557.93 921.87 1559.93 928.514 1560.13 932.101C1560.29 935.059 1559.63 939.938 1559.63 939.938C1559.63 939.938 1561.94 938.8 1563.11 938.674C1563.94 938.584 1564.84 938.656 1565.6 939.179C1567.66 940.614 1569.28 943.772 1570.07 947.016C1570.81 950.015 1570.55 953.504 1570.07 956.623C1569.34 961.469 1566.27 965.206 1567.09 970.022L1568.25 976.848C1568.25 976.848 1564.62 976.516 1563.11 975.078C1561.31 973.352 1560.2 970.879 1559.63 967.747C1559.11 964.906 1560.15 961.741 1559.63 958.898C1559.37 957.478 1559.11 955.086 1558.14 955.106C1557.13 955.128 1555.87 957.317 1555.86 958.864C1555.85 961.272 1555.84 963.68 1555.82 966.087C1555.79 970.292 1557.74 974.024 1559.87 976.845C1562.84 980.774 1566.23 982.975 1570.9 982.328C1577.85 981.365 1584.15 971.59 1586.9 963.675C1573.17 967.646 1575.95 969.295 1570.72 970.694L1579.34 924.402C1581.89 935.837 1584.29 947.366 1591.7 955.835C1593.02 943.42 1589.29 928.396 1585.71 912.972C1594.53 913.611 1602.48 915.574 1609.31 919.259C1603.39 935.053 1598.65 950.116 1594.52 964.99C1588.16 981.406 1580.24 989.503 1571.74 990.201C1567.56 990.545 1563.58 990.237 1559.55 986.823C1556.4 984.154 1553.09 980.542 1550.49 975.399C1550.49 975.399 1545.15 982.618 1541.79 985.097C1537.93 987.949 1533.53 989.843 1529.24 990.201C1524.82 990.571 1518.92 989.427 1514.69 987.394C1510.45 985.357 1508.28 982.764 1504.98 978.461C1502.61 975.363 1498.75 966.294 1498.75 966.294V966.294Z" fill="#FED100"/>
<path d="M1425.75 990.201C1417.26 989.503 1409.33 981.406 1402.97 964.99C1398.85 950.116 1394.1 935.053 1388.18 919.259C1395.01 915.574 1402.96 913.611 1411.79 912.973C1408.2 928.396 1404.47 943.42 1405.79 955.835C1413.2 947.366 1415.6 935.837 1418.16 924.403L1426.77 970.694C1421.54 969.295 1424.32 967.646 1410.59 963.675C1413.34 971.591 1419.64 981.366 1426.59 982.328L1425.75 990.201ZM1570.9 982.328C1577.85 981.366 1584.15 971.591 1586.9 963.675C1573.17 967.646 1575.95 969.295 1570.72 970.694L1579.34 924.403C1581.89 935.837 1584.29 947.366 1591.7 955.835C1593.02 943.42 1589.29 928.396 1585.71 912.973C1594.53 913.611 1602.48 915.574 1609.31 919.259C1603.39 935.053 1598.65 950.116 1594.52 964.99C1588.16 981.406 1580.24 989.503 1571.74 990.201L1571.58 990.659L1570.9 982.328Z" fill="#FED100"/>
<path d="M1468.25 990.201C1463.97 989.843 1459.56 987.949 1455.7 985.096C1452.34 982.617 1447 975.398 1447 975.398C1444.4 980.541 1441.09 984.153 1437.94 986.823C1433.91 990.237 1429.93 990.544 1425.75 990.201L1425.61 992.434L1426.59 982.327C1431.26 982.974 1434.65 980.773 1437.62 976.845C1439.75 974.023 1441.7 970.291 1441.67 966.087C1441.66 963.679 1441.64 961.271 1441.63 958.864C1441.62 957.317 1440.37 955.128 1439.35 955.106C1438.39 955.086 1438.12 957.477 1437.86 958.898C1437.35 961.74 1438.38 964.905 1437.86 967.746C1437.29 970.878 1436.19 973.351 1434.38 975.077C1432.88 976.515 1429.24 976.847 1429.24 976.847L1430.4 970.021C1431.22 965.206 1428.16 961.468 1427.42 956.623C1426.95 953.503 1426.68 950.015 1427.42 947.016C1428.22 943.772 1429.83 940.614 1431.9 939.179C1432.65 938.655 1433.55 938.584 1434.38 938.673C1435.55 938.8 1437.86 939.937 1437.86 939.937C1437.86 939.937 1437.2 935.058 1437.36 932.1C1437.57 928.513 1439.56 921.869 1440.68 918.701C1442.54 913.442 1445.5 908.703 1445.84 908.193C1446.16 908.691 1449.37 913.248 1451.47 918.297C1452.74 921.338 1454.03 925.733 1454.4 929.289C1454.7 932.222 1454.59 938.424 1454.59 938.424C1454.59 938.424 1458 936.286 1459.16 936.035C1459.98 935.858 1460.89 935.834 1461.67 936.276C1463.79 937.488 1465.55 940.467 1466.49 943.619C1467.36 946.533 1467.26 950.04 1466.93 953.203C1466.41 958.115 1464.52 961.916 1465.56 966.633L1467.02 973.319C1467.02 973.319 1463.38 973.374 1461.82 972.099C1459.94 970.568 1458.73 968.218 1458.01 965.154C1457.36 962.376 1457.74 958.973 1456.61 956.58C1456.12 955.522 1455.42 954.349 1454.46 954.473C1453.44 954.602 1452.74 957.12 1452.69 958.666L1452.51 965.168C1452.46 967.166 1453.06 969.242 1453.76 970.858C1455.48 974.818 1458.03 977.221 1460.92 979.004C1464.04 980.936 1466.86 981.679 1470.23 981.739L1468.25 990.201Z" fill="#FED100"/>
<path d="M1552.54 965.919L1552.45 965.668C1552.33 962.604 1553.01 957.356 1553.01 957.356C1553.39 954.744 1554.85 951.95 1556.67 950.946C1557.65 950.404 1558.84 950.196 1559.9 950.983C1560.54 951.462 1561.06 951.835 1561.49 952.511C1561.91 953.187 1562.18 954.076 1562.46 955.343C1562.88 957.197 1562.7 959.129 1562.49 960.785C1562.14 963.517 1562.18 965.906 1562.68 967.755C1563.04 969.061 1563.76 970.04 1564.69 970.886C1564.52 969.952 1564.39 969.499 1564.3 968.463C1564.16 966.928 1564.33 965.342 1564.71 963.953C1565.38 961.534 1566.31 959.628 1566.94 957.505C1567.53 955.481 1567.85 953.188 1567.74 951.02C1567.66 949.232 1567.31 947.385 1566.64 946.1C1565.92 944.707 1564.81 943.551 1563.71 943.23C1562.73 942.944 1561.12 943.453 1559.82 944.087C1558.53 944.721 1557.55 945.429 1557.55 945.429L1556.4 946.249L1556.6 944.348C1557.27 937.955 1557.86 934.709 1556.6 928.731C1556.08 926.273 1555.21 923.562 1553.74 920.419C1553.03 918.893 1552.23 917.071 1551.32 915.387C1548.95 919.499 1547.3 923.664 1546.36 927.874C1545.33 932.482 1545.29 938.608 1545.53 943.528L1545.63 945.504L1544.53 944.497C1544.53 944.497 1543.28 943.328 1541.77 942.224C1540.26 941.119 1538.41 940.144 1537.64 940.248C1536.17 940.444 1535.19 941.512 1534.24 943.379C1533.43 944.964 1533.26 946.337 1533.09 948.523C1532.99 949.903 1533.22 952.5 1533.36 954.188C1533.53 956.167 1534.29 958.247 1534.51 960.748C1534.58 961.574 1534.75 962.223 1534.88 963.022C1535 963.82 1535.07 964.757 1534.92 965.854C1534.83 966.613 1534.68 967.162 1534.48 968.091C1534.86 967.813 1535.12 967.674 1535.32 967.457C1536.04 966.662 1536.33 965.253 1536.81 963.543C1537.06 962.623 1537.12 961.797 1537.15 960.823C1537.18 959.848 1537.21 958.702 1537.54 957.431C1538.1 955.259 1538.75 952.679 1540.2 951.095C1541.39 949.798 1542.97 949.436 1544.36 950.088C1545.18 950.474 1545.77 951.248 1546.19 952.138C1546.61 953.028 1546.9 954.002 1547.19 954.971C1547.57 956.212 1547.8 958.069 1547.97 959.704C1548.15 961.34 1548.24 962.724 1548.24 962.724L1548.27 962.873L1548.24 963.059L1547.23 968.178L1545.95 967.735L1546.92 962.84C1546.92 962.745 1546.82 961.561 1546.65 960.045C1546.48 958.469 1546.22 956.589 1545.99 955.833C1545.69 954.84 1545.42 953.978 1545.11 953.336C1544.81 952.693 1544.5 952.281 1543.97 952.031C1543.01 951.582 1541.77 951.856 1540.96 952.739C1539.94 953.861 1539.31 956.031 1538.76 958.181C1538.52 959.115 1538.5 959.955 1538.47 960.939C1538.43 961.923 1538.4 963.068 1538.05 964.331C1537.62 965.896 1537.26 967.824 1536.1 969.102C1535.24 970.044 1533.68 970.965 1533.68 970.965L1532.31 971.823L1532.8 969.698C1532.8 969.698 1533.49 966.582 1533.63 965.486C1533.73 964.728 1533.69 964.181 1533.58 963.511C1533.47 962.841 1533.28 962.063 1533.19 961.014C1533.02 959.035 1532.26 956.955 1532.04 954.454C1531.9 952.824 1531.63 950.248 1531.77 948.304C1531.94 946.036 1532.19 944.068 1533.19 942.117C1534.28 939.979 1535.66 938.488 1537.51 938.24C1538.98 938.045 1540.78 939.249 1542.35 940.402C1543.37 941.144 1543.68 941.485 1544.19 941.93C1544.02 937.207 1544.07 931.761 1545.09 927.207C1546.17 922.38 1548.02 917.622 1550.83 913.007L1551.32 912.224L1551.81 913.007C1553.12 915.151 1554.01 917.506 1554.82 919.231C1556.35 922.519 1557.31 925.436 1557.87 928.102C1559.08 933.813 1558.64 937.711 1558.07 942.974C1558.51 942.688 1558.67 942.53 1559.43 942.154C1560.82 941.476 1562.5 940.835 1563.95 941.259C1565.44 941.692 1566.78 943.081 1567.69 944.837C1568.6 946.581 1568.99 948.809 1569.09 950.876C1569.21 953.44 1568.84 956.065 1568.16 958.367C1567.45 960.75 1566.53 962.648 1565.93 964.778C1565.64 965.851 1565.49 967.095 1565.59 968.207C1565.74 969.872 1566.32 972.568 1566.32 972.568L1566.74 974.469L1565.47 973.835C1563.44 972.786 1562.11 970.885 1561.46 968.506C1560.81 966.126 1560.81 963.348 1561.19 960.38C1561.39 958.822 1561.5 957.264 1561.22 956.019C1560.96 954.868 1560.77 954.304 1560.53 953.932C1560.3 953.559 1559.94 953.281 1559.31 952.814C1558.73 952.382 1557.84 952.448 1557.11 952.851C1555.9 953.518 1554.46 955.985 1554.33 957.733C1554.1 960.821 1553.52 963.962 1552.54 965.919V965.919ZM1590.66 962.28L1591.01 961.236L1590.27 960.863C1584.81 958.227 1579.78 960.222 1575.02 963.286C1576.94 955.284 1578.41 947.292 1579.45 939.282C1584.63 953.48 1589.02 958.123 1593.16 961.012L1593.91 961.534L1594.08 960.267C1595.32 950.574 1595.41 937.659 1590.2 918.447C1596.04 918.91 1601.85 919.978 1607.62 923.889L1608.16 922.025C1601.82 917.732 1595.5 916.665 1589.25 916.248L1588.17 916.174L1588.61 917.665C1593.97 936.625 1593.97 948.965 1592.89 958.478C1588.92 955.531 1584.9 951.079 1579.76 936.152L1578.86 933.543L1578.52 936.45C1577.4 945.86 1575.66 955.283 1573.31 964.703L1572.73 967.014L1574.19 965.97C1578.99 962.649 1583.84 960.486 1589.07 962.578L1589.2 962.702L1590.66 962.28ZM1408.42 962.578C1413.64 960.499 1418.48 962.652 1423.28 965.97L1424.74 967.013L1424.18 964.703C1421.83 955.283 1420.09 945.86 1418.98 936.45L1418.63 933.543L1417.73 936.152C1412.6 951.085 1408.55 955.531 1404.58 958.478C1403.5 948.965 1403.53 936.625 1408.88 917.665L1409.3 916.174L1408.25 916.248C1402 916.665 1395.67 917.732 1389.33 922.025L1389.87 923.889C1395.65 919.974 1401.44 918.909 1407.29 918.447C1402.08 937.66 1402.18 950.573 1403.41 960.267L1403.56 961.534L1404.34 961.012C1408.47 958.126 1412.87 953.493 1418.05 939.32C1419.09 947.315 1420.55 955.298 1422.47 963.286C1417.72 960.222 1412.68 958.227 1407.22 960.863L1406.49 961.236L1406.83 962.28L1406.69 962.388L1408.42 962.578V962.578ZM1451.33 967.084L1450.57 962.728C1450.58 962.544 1450.66 961.498 1450.82 960.044C1450.99 958.468 1451.27 956.588 1451.5 955.832C1451.8 954.84 1452.07 953.977 1452.38 953.335C1452.68 952.692 1452.99 952.281 1453.53 952.03C1454.48 951.581 1455.7 951.855 1456.51 952.738C1457.53 953.86 1458.18 956.03 1458.73 958.18C1458.97 959.114 1458.99 959.954 1459.03 960.938C1459.06 961.922 1459.09 963.067 1459.44 964.33C1459.87 965.895 1460.23 967.823 1461.4 969.101C1462.26 970.043 1463.82 970.965 1463.82 970.965L1465.16 971.822L1464.69 969.697C1464.69 969.697 1464.01 966.581 1463.86 965.486C1463.77 964.728 1463.81 964.18 1463.91 963.51C1464.02 962.84 1464.19 962.062 1464.28 961.013C1464.45 959.035 1465.21 956.954 1465.43 954.453C1465.57 952.823 1465.87 950.247 1465.72 948.303C1465.55 946.036 1465.3 944.067 1464.3 942.116C1463.21 939.978 1461.83 938.487 1459.98 938.239C1458.52 938.044 1456.72 939.248 1455.14 940.401C1454.13 941.143 1453.82 941.484 1453.31 941.929C1453.47 937.207 1453.42 931.76 1452.4 927.207C1451.32 922.38 1449.47 917.622 1446.66 913.006L1446.17 912.223L1445.68 913.006C1444.38 915.15 1443.46 917.505 1442.65 919.23C1441.12 922.519 1440.19 925.435 1439.62 928.101C1438.41 933.812 1438.86 937.711 1439.43 942.973C1438.98 942.687 1438.83 942.533 1438.06 942.153C1436.68 941.475 1434.99 940.835 1433.54 941.259C1432.05 941.692 1430.71 943.08 1429.8 944.837C1428.89 946.58 1428.51 948.808 1428.41 950.875C1428.29 953.44 1428.66 956.064 1429.34 958.367C1430.04 960.749 1430.97 962.647 1431.56 964.778C1431.86 965.85 1431.98 967.095 1431.88 968.207C1431.73 969.871 1431.17 972.567 1431.17 972.567L1430.75 974.468L1432.02 973.835C1434.05 972.785 1435.38 970.884 1436.03 968.505C1436.68 966.126 1436.68 963.348 1436.3 960.379C1436.1 958.821 1435.99 957.263 1436.28 956.018C1436.54 954.867 1436.73 954.304 1436.96 953.931C1437.19 953.559 1437.53 953.28 1438.16 952.813C1438.74 952.382 1439.65 952.448 1440.38 952.85C1441.59 953.517 1442.91 956.011 1443.17 957.733C1443.17 957.733 1443.17 957.77 1443.17 957.77C1443.17 957.82 1443.8 963.147 1443.7 965.56L1445.27 965.983C1445.14 962.607 1444.46 957.36 1444.46 957.36C1444.08 954.748 1442.64 951.954 1440.82 950.949C1439.84 950.408 1438.63 950.2 1437.57 950.986C1436.93 951.466 1436.43 951.838 1436.01 952.515C1435.58 953.191 1435.29 954.08 1435.01 955.347C1434.59 957.2 1434.77 959.133 1434.98 960.789C1435.33 963.521 1435.29 965.91 1434.79 967.759C1434.43 969.064 1433.73 970.044 1432.81 970.89C1432.98 969.956 1433.1 969.503 1433.2 968.467C1433.34 966.932 1433.17 965.346 1432.78 963.957C1432.11 961.538 1431.18 959.632 1430.56 957.509C1429.96 955.485 1429.62 953.191 1429.73 951.024C1429.81 949.236 1430.16 947.389 1430.83 946.104C1431.55 944.71 1432.68 943.555 1433.78 943.234C1434.76 942.948 1436.35 943.457 1437.64 944.091C1438.94 944.725 1439.94 945.433 1439.94 945.433L1441.09 946.253L1440.87 944.352C1440.2 937.959 1439.63 934.713 1440.89 928.735C1441.41 926.277 1442.26 923.565 1443.73 920.423C1444.44 918.896 1445.26 917.075 1446.17 915.391C1448.54 919.502 1450.19 923.669 1451.13 927.877C1452.16 932.485 1452.18 938.612 1451.94 943.532L1451.87 945.507L1452.97 944.501C1452.97 944.501 1454.19 943.332 1455.7 942.227C1457.21 941.123 1459.08 940.148 1459.86 940.252C1461.32 940.448 1462.3 941.516 1463.25 943.383C1464.06 944.967 1464.24 946.341 1464.4 948.526C1464.51 949.907 1464.25 952.504 1464.11 954.192C1463.94 956.17 1463.2 958.251 1462.98 960.752C1462.91 961.578 1462.75 962.227 1462.62 963.026C1462.49 963.824 1462.4 964.761 1462.54 965.858C1462.64 966.617 1462.79 967.165 1462.98 968.095C1462.61 967.817 1462.35 967.678 1462.15 967.461C1461.43 966.666 1461.13 965.257 1460.66 963.547C1460.41 962.627 1460.38 961.801 1460.35 960.826C1460.31 959.852 1460.28 958.706 1459.95 957.435C1459.4 955.262 1458.74 952.683 1457.29 951.098C1456.11 949.801 1454.52 949.44 1453.14 950.092C1452.31 950.478 1451.7 951.252 1451.28 952.142C1450.86 953.032 1450.6 954.005 1450.3 954.975C1449.92 956.216 1449.7 958.072 1449.52 959.708C1449.34 961.344 1449.23 962.727 1449.23 962.727V962.876L1449.25 963.063L1450.04 967.531L1450.43 967.595L1451.33 967.084V967.084ZM1501.91 950.576L1501.94 949.309L1502.74 949.607C1506.46 951.029 1509.3 952.951 1511.66 955.086C1514.65 957.796 1516.86 960.838 1519.19 963.771L1519.58 930.114C1517.6 933.449 1515.74 937.021 1513.01 939.879C1510.77 942.213 1506.59 945.28 1502.67 945.955L1501.74 946.104L1501.94 944.725C1502.49 940.931 1502.47 938.297 1503.72 933.804C1504.9 929.541 1507.4 923.359 1512.37 913.006C1508.07 912.281 1504.33 911.477 1498.73 911.477C1493.14 911.477 1489.42 912.282 1485.12 913.006C1490.09 923.359 1492.59 929.541 1493.77 933.804C1495.02 938.297 1495.01 940.931 1495.56 944.725L1495.75 946.104L1494.82 945.955C1490.91 945.28 1486.72 942.213 1484.49 939.879C1481.76 937.032 1479.89 933.475 1477.91 930.151L1478.31 963.734C1480.62 960.81 1482.85 957.785 1485.83 955.086C1488.19 952.951 1491.01 951.029 1494.73 949.607L1495.56 949.309V950.576L1494.22 952.005C1491.08 953.354 1488.57 954.98 1486.52 956.838C1483.23 959.814 1480.85 963.289 1478.06 966.678L1477.01 967.946L1476.99 965.896L1476.57 927.505L1476.52 924.97L1477.7 926.759C1480.27 930.726 1482.21 935.052 1485.22 938.202C1487.08 940.145 1490.72 942.742 1494.07 943.644C1493.69 940.587 1493.53 938.196 1492.53 934.587C1491.35 930.359 1488.93 924.162 1483.41 912.782L1482.73 911.366L1483.88 911.18C1488.64 910.427 1492.56 909.428 1498.73 909.428L1498.73 909.428C1504.91 909.428 1508.83 910.428 1513.59 911.18L1514.76 911.367L1514.08 912.783C1508.56 924.163 1506.12 930.36 1504.94 934.587C1503.93 938.21 1503.8 940.608 1503.43 943.682C1506.77 942.782 1510.39 940.146 1512.25 938.203C1515.26 935.053 1517.22 930.727 1519.8 926.76L1520.95 924.971L1520.92 927.506L1520.48 965.896V967.946L1519.41 966.679C1516.61 963.29 1514.26 959.815 1510.98 956.839C1508.92 954.981 1506.41 953.355 1503.28 952.031L1501.91 950.576Z" fill="black"/>
<path d="M1498.75 966.294C1498.75 966.294 1494.88 975.363 1492.51 978.461C1489.21 982.764 1487.04 985.357 1482.8 987.394C1478.57 989.427 1472.68 990.571 1468.25 990.201C1463.96 989.843 1459.56 987.949 1455.7 985.097C1452.34 982.618 1447 975.399 1447 975.399C1444.4 980.542 1441.09 984.154 1437.94 986.823C1433.91 990.237 1429.93 990.545 1425.75 990.201C1417.26 989.503 1409.33 981.406 1402.97 964.99C1398.85 950.116 1394.1 935.053 1388.18 919.259C1395.01 915.574 1402.96 913.611 1411.79 912.972C1408.2 928.396 1404.47 943.42 1405.79 955.835C1413.2 947.366 1415.6 935.837 1418.16 924.402L1426.77 970.694C1421.54 969.295 1424.32 967.646 1410.59 963.675C1413.34 971.59 1419.64 981.365 1426.59 982.328C1431.26 982.975 1434.65 980.774 1437.62 976.845C1439.75 974.024 1441.7 970.292 1441.67 966.087C1441.66 963.68 1441.64 961.272 1441.63 958.864C1441.62 957.317 1440.37 955.128 1439.35 955.106C1438.39 955.086 1438.12 957.478 1437.86 958.898C1437.35 961.741 1438.38 964.906 1437.86 967.747C1437.29 970.879 1436.19 973.352 1434.38 975.078C1432.88 976.516 1429.24 976.848 1429.24 976.848L1430.4 970.022C1431.22 965.206 1428.16 961.469 1427.42 956.623C1426.94 953.504 1426.68 950.015 1427.42 947.016C1428.22 943.772 1429.83 940.614 1431.89 939.179C1432.65 938.656 1433.55 938.584 1434.38 938.674C1435.55 938.8 1437.86 939.938 1437.86 939.938C1437.86 939.938 1437.2 935.059 1437.36 932.101C1437.57 928.514 1439.56 921.87 1440.68 918.702C1442.54 913.442 1445.5 908.703 1445.84 908.194C1446.16 908.691 1449.37 913.248 1451.47 918.298C1452.73 921.339 1454.03 925.733 1454.4 929.29C1454.7 932.223 1454.59 938.425 1454.59 938.425C1454.59 938.425 1458 936.286 1459.16 936.036C1459.98 935.859 1460.89 935.834 1461.67 936.277C1463.79 937.489 1465.55 940.468 1466.49 943.62C1467.36 946.533 1467.26 950.041 1466.93 953.203C1466.41 958.116 1464.52 961.916 1465.56 966.633L1467.02 973.319C1467.02 973.319 1463.38 973.374 1461.82 972.099C1459.94 970.569 1458.73 968.218 1458.01 965.155C1457.36 962.376 1457.74 958.974 1456.61 956.581C1456.12 955.522 1455.42 954.35 1454.45 954.473C1453.44 954.602 1452.73 957.121 1452.69 958.667L1452.51 965.169C1452.46 967.166 1453.06 969.242 1453.76 970.859C1455.47 974.819 1458.03 977.221 1460.92 979.005C1464.04 980.937 1466.86 981.679 1470.23 981.739C1473.05 981.789 1477.93 981.087 1480.6 979.713C1483.88 978.021 1485.81 975.872 1488.36 972.275C1489.79 970.248 1490.74 967.304 1491.37 964.483C1492.1 961.235 1491.84 955.629 1491.84 955.629C1488.57 957.517 1485.73 960.057 1483.17 963.024C1480.28 966.377 1477.74 970.277 1475.35 974.4L1475.12 918.439C1478.52 924.166 1481 929.296 1484.4 933.609C1487.27 937.241 1488.74 938.626 1491.61 940.044C1490.79 935.542 1490.51 932.812 1488.4 928.31C1485.47 922.068 1482.61 915.366 1479.07 909.124C1485.6 907.465 1492.13 907.018 1498.75 907.018C1505.37 907.018 1511.89 907.465 1518.43 909.124C1514.88 915.366 1512.02 922.068 1509.09 928.31C1506.98 932.812 1506.7 935.542 1505.89 940.044C1508.75 938.626 1510.23 937.241 1513.09 933.609C1516.49 929.296 1518.97 924.166 1522.37 918.439L1522.14 974.4C1519.75 970.277 1517.22 966.377 1514.32 963.024C1511.76 960.057 1508.92 957.517 1505.65 955.629C1505.65 955.629 1505.39 961.235 1506.12 964.483C1506.75 967.304 1507.71 970.248 1509.14 972.275C1511.68 975.872 1513.61 978.021 1516.89 979.713C1519.56 981.087 1524.45 981.789 1527.26 981.739C1530.63 981.68 1533.45 980.937 1536.58 979.005C1539.46 977.221 1542.02 974.819 1543.74 970.859C1544.44 969.242 1545.03 967.166 1544.98 965.169L1544.8 958.667C1544.76 957.121 1544.05 954.602 1543.04 954.473C1542.07 954.35 1541.38 955.522 1540.88 956.581C1539.75 958.974 1540.13 962.376 1539.48 965.155C1538.77 968.218 1537.56 970.569 1535.67 972.099C1534.11 973.374 1530.47 973.319 1530.47 973.319L1531.94 966.633C1532.97 961.916 1531.08 958.116 1530.57 953.203C1530.24 950.041 1530.13 946.533 1531 943.62C1531.95 940.468 1533.7 937.489 1535.83 936.277C1536.6 935.834 1537.51 935.859 1538.33 936.036C1539.49 936.286 1542.9 938.425 1542.9 938.425C1542.9 938.425 1542.8 932.223 1543.1 929.29C1543.46 925.733 1544.76 921.339 1546.02 918.298C1548.12 913.248 1551.33 908.691 1551.65 908.194C1551.99 908.703 1554.95 913.442 1556.81 918.702C1557.93 921.87 1559.93 928.514 1560.13 932.101C1560.29 935.059 1559.63 939.938 1559.63 939.938C1559.63 939.938 1561.94 938.8 1563.11 938.674C1563.94 938.584 1564.84 938.656 1565.6 939.179C1567.66 940.614 1569.28 943.772 1570.07 947.016C1570.81 950.015 1570.55 953.504 1570.07 956.623C1569.34 961.469 1566.27 965.206 1567.09 970.022L1568.25 976.848C1568.25 976.848 1564.62 976.516 1563.11 975.078C1561.31 973.352 1560.2 970.879 1559.63 967.747C1559.11 964.906 1560.15 961.741 1559.63 958.898C1559.37 957.478 1559.11 955.086 1558.14 955.106C1557.13 955.128 1555.87 957.317 1555.86 958.864C1555.85 961.272 1555.84 963.68 1555.82 966.087C1555.79 970.292 1557.74 974.024 1559.87 976.845C1562.84 980.774 1566.23 982.975 1570.9 982.328C1577.85 981.365 1584.15 971.59 1586.9 963.675C1573.17 967.646 1575.95 969.295 1570.72 970.694L1579.34 924.402C1581.89 935.837 1584.29 947.366 1591.7 955.835C1593.02 943.42 1589.29 928.396 1585.71 912.972C1594.53 913.611 1602.48 915.574 1609.31 919.259C1603.39 935.053 1598.65 950.116 1594.52 964.99C1588.16 981.406 1580.24 989.503 1571.74 990.201C1567.56 990.545 1563.58 990.237 1559.55 986.823C1556.4 984.154 1553.09 980.542 1550.49 975.399C1550.49 975.399 1545.15 982.618 1541.79 985.097C1537.93 987.949 1533.53 989.843 1529.24 990.201C1524.82 990.571 1518.92 989.427 1514.69 987.394C1510.45 985.357 1508.28 982.764 1504.98 978.461C1502.61 975.363 1498.75 966.294 1498.75 966.294V966.294Z" stroke="black" stroke-width="0.286432"/>
<path d="M1504.75 947.485C1504.75 948.708 1504.6 949.92 1504.3 951.051C1503.99 952.182 1503.55 953.209 1502.99 954.075C1502.44 954.941 1501.77 955.627 1501.05 956.096C1500.32 956.564 1499.54 956.806 1498.75 956.806C1497.96 956.806 1497.18 956.564 1496.45 956.096C1495.72 955.627 1495.06 954.941 1494.5 954.075C1493.94 953.209 1493.5 952.182 1493.2 951.051C1492.9 949.92 1492.74 948.708 1492.74 947.485C1492.74 946.261 1492.9 945.05 1493.2 943.919C1493.5 942.788 1493.94 941.761 1494.5 940.895C1495.06 940.029 1495.72 939.342 1496.45 938.874C1497.18 938.405 1497.96 938.164 1498.75 938.164C1499.54 938.164 1500.32 938.405 1501.05 938.874C1501.77 939.342 1502.44 940.029 1502.99 940.895C1503.55 941.761 1503.99 942.788 1504.3 943.919C1504.6 945.05 1504.75 946.261 1504.75 947.485Z" fill="white" stroke="black" stroke-width="0.286433"/>
<path d="M1409.76 960.29C1409.76 961.513 1409.6 962.725 1409.3 963.856C1409 964.986 1408.56 966.014 1408 966.88C1407.44 967.745 1406.78 968.432 1406.05 968.901C1405.32 969.369 1404.54 969.61 1403.75 969.61C1402.96 969.61 1402.18 969.369 1401.45 968.901C1400.72 968.432 1400.06 967.745 1399.5 966.88C1398.95 966.014 1398.5 964.986 1398.2 963.856C1397.9 962.725 1397.75 961.513 1397.75 960.29C1397.75 959.066 1397.9 957.854 1398.2 956.724C1398.5 955.593 1398.95 954.565 1399.5 953.7C1400.06 952.834 1400.72 952.147 1401.45 951.678C1402.18 951.21 1402.96 950.969 1403.75 950.969C1404.54 950.969 1405.32 951.21 1406.05 951.678C1406.78 952.147 1407.44 952.834 1408 953.7C1408.56 954.565 1409 955.593 1409.3 956.724C1409.6 957.854 1409.76 959.066 1409.76 960.29Z" fill="white" stroke="black" stroke-width="0.286433"/>
<path d="M1587.74 960.29C1587.74 961.513 1587.89 962.725 1588.19 963.856C1588.49 964.986 1588.94 966.014 1589.49 966.88C1590.05 967.745 1590.71 968.432 1591.44 968.901C1592.17 969.369 1592.95 969.61 1593.74 969.61C1594.53 969.61 1595.31 969.369 1596.04 968.901C1596.77 968.432 1597.43 967.745 1597.99 966.88C1598.55 966.014 1598.99 964.986 1599.29 963.856C1599.59 962.725 1599.75 961.513 1599.75 960.29C1599.75 959.066 1599.59 957.854 1599.29 956.724C1598.99 955.593 1598.55 954.565 1597.99 953.7C1597.43 952.834 1596.77 952.147 1596.04 951.678C1595.31 951.21 1594.53 950.969 1593.74 950.969C1592.95 950.969 1592.17 951.21 1591.44 951.678C1590.71 952.147 1590.05 952.834 1589.49 953.7C1588.94 954.565 1588.49 955.593 1588.19 956.724C1587.89 957.854 1587.74 959.066 1587.74 960.29Z" fill="white" stroke="black" stroke-width="0.286433"/>
<path d="M1440.87 963.26L1453.74 960.38L1455.79 963.385L1454.49 967.14L1441.62 970.02L1439.19 967.101L1440.87 963.26Z" fill="#FED100"/>
<path d="M1440.87 963.26L1453.74 960.38L1455.79 963.385L1454.49 967.14L1441.62 970.02L1439.19 967.101L1440.87 963.26Z" stroke="black" stroke-width="0.286437"/>
<path d="M1556.62 963.26L1543.75 960.38L1541.7 963.385L1543 967.14L1555.87 970.02L1558.31 967.101L1556.62 963.26Z" fill="#F6E078"/>
<path d="M1556.62 963.26L1543.75 960.38L1541.7 963.385L1543 967.14L1555.87 970.02L1558.31 967.101L1556.62 963.26Z" fill="#FED100" stroke="black" stroke-width="0.286437"/>
<path fill-rule="evenodd" clip-rule="evenodd" d="M1415.41 1039.4C1415.41 1039.4 1424.83 1038.35 1441.44 1036.91C1458.05 1035.48 1475.85 1034.73 1484.93 1034.73C1486.38 1034.73 1511.15 1034.73 1512.6 1034.73C1521.39 1034.73 1539.61 1035.48 1556.08 1036.91C1572.56 1038.35 1581.93 1039.54 1581.93 1039.54L1587.71 1000.18C1587.71 1000.18 1528.51 992.031 1498.76 992.031C1469.01 992.031 1409.82 1000.18 1409.82 1000.18L1415.41 1039.4Z" fill="#FED100"/>
<path d="M1499.11 992.461C1469.38 992.438 1439.66 994.895 1410.07 999.897L1415.49 1039.63C1444.92 1035.6 1469.02 1034.52 1498.77 1034.17M1498.38 992.461C1528.1 992.438 1557.82 994.895 1587.42 999.897L1582 1039.63C1552.57 1035.6 1528.47 1034.52 1498.71 1034.17L1498.38 992.461Z" stroke="black" stroke-width="0.286432"/>
<path d="M1441.17 993.417L1441.14 993.446H1441.12C1430.55 994.606 1418.31 995.871 1407.64 998.089C1406.13 1000.84 1406.01 1003.35 1408.75 1005.36C1419 1003.23 1431.08 1001.93 1441.66 1000.77C1456.01 999.503 1470.47 998.711 1484.9 998.493H1512.57C1521.2 998.493 1539.42 999.296 1555.81 1000.8C1572.11 1002.3 1588.76 1005.36 1588.76 1005.36C1591.61 1003.14 1591.3 1000.67 1589.75 998.089C1589.75 998.089 1572.95 994.945 1556.3 993.417C1539.73 991.895 1521.53 991.109 1512.57 991.109H1484.9C1470.3 991.176 1455.72 992.226 1441.17 993.417Z" fill="#FED100"/>
<path d="M1441.17 993.417L1441.14 993.446H1441.12C1430.55 994.606 1418.31 995.871 1407.64 998.089C1406.13 1000.84 1406.01 1003.35 1408.75 1005.36C1419 1003.23 1431.08 1001.93 1441.66 1000.77C1456.01 999.503 1470.47 998.711 1484.9 998.493H1512.57C1521.2 998.493 1539.42 999.296 1555.81 1000.8C1572.11 1002.3 1588.76 1005.36 1588.76 1005.36C1591.61 1003.14 1591.3 1000.67 1589.75 998.089C1589.75 998.089 1572.95 994.945 1556.3 993.417C1539.73 991.895 1521.53 991.109 1512.57 991.109H1484.9C1470.3 991.176 1455.72 992.226 1441.17 993.417Z" stroke="black" stroke-width="0.286433"/>
<path d="M1445.21 1034.43L1445.19 1034.46H1445.16C1435.33 1035.62 1423.96 1036.89 1414.03 1039.11C1412.63 1041.86 1412.51 1044.37 1415.07 1046.37C1424.6 1044.24 1435.83 1042.95 1445.67 1041.79C1459.01 1040.52 1472.46 1039.73 1485.87 1039.51H1511.6C1519.62 1039.51 1536.57 1040.31 1551.8 1041.82C1566.96 1043.31 1582.45 1046.37 1582.45 1046.37C1585.09 1044.16 1584.8 1041.68 1583.37 1039.1C1583.37 1039.1 1567.74 1035.96 1552.26 1034.43C1536.85 1032.91 1519.93 1032.12 1511.6 1032.12H1485.87C1472.3 1032.19 1458.74 1033.24 1445.21 1034.43Z" fill="#FED100"/>
<path d="M1445.21 1034.43L1445.19 1034.46H1445.16C1435.33 1035.62 1423.96 1036.89 1414.03 1039.1C1412.63 1041.86 1412.51 1044.37 1415.07 1046.37C1424.6 1044.24 1435.83 1042.95 1445.67 1041.79C1459.01 1040.52 1472.46 1040.15 1485.87 1039.93H1511.6C1519.62 1039.93 1536.57 1040.31 1551.8 1041.82C1566.96 1043.31 1582.45 1046.37 1582.45 1046.37C1585.09 1044.16 1584.8 1041.68 1583.37 1039.1C1583.37 1039.1 1567.74 1035.96 1552.26 1034.43C1536.85 1032.91 1519.93 1032.54 1511.6 1032.54H1485.87C1472.3 1032.61 1458.74 1033.24 1445.21 1034.43Z" stroke="black" stroke-width="0.286433"/>
<path d="M1515.25 1001.41H1482.24C1481.59 1001.41 1481.06 1002.03 1481.06 1002.79V1027.32C1481.06 1028.09 1481.59 1028.71 1482.24 1028.71H1515.25C1515.9 1028.71 1516.43 1028.09 1516.43 1027.32V1002.79C1516.43 1002.03 1515.9 1001.41 1515.25 1001.41Z" stroke="black" stroke-width="0.286432"/>
<path d="M1510.59 1004.99H1486.9C1485.77 1004.99 1484.86 1006.06 1484.86 1007.38V1022.74C1484.86 1024.06 1485.77 1025.13 1486.9 1025.13H1510.59C1511.72 1025.13 1512.63 1024.06 1512.63 1022.74V1007.38C1512.63 1006.06 1511.72 1004.99 1510.59 1004.99Z" fill="#012169" stroke="#A0892C" stroke-width="0.286432"/>
<path fill-rule="evenodd" clip-rule="evenodd" d="M1512.03 1024.43C1511.66 1024.86 1511.15 1025.13 1510.59 1025.13H1486.9C1486.34 1025.13 1485.83 1024.86 1485.46 1024.43C1485.09 1024 1484.86 1023.4 1484.86 1022.74V1007.38C1484.86 1006.72 1485.09 1006.12 1485.46 1005.69C1485.83 1005.26 1512.4 1024 1512.03 1024.43V1024.43Z" fill="#2B96F6" stroke="#A0892C" stroke-width="0.286432"/>
<path fill-rule="evenodd" clip-rule="evenodd" d="M1512.03 1024.43C1511.66 1024.86 1511.15 1025.13 1510.59 1025.13H1486.9C1486.34 1025.13 1485.83 1024.86 1485.46 1024.43C1485.09 1024 1484.86 1023.4 1484.86 1022.74V1007.38C1484.86 1006.72 1485.09 1006.12 1485.46 1005.69C1485.64 1005.47 1492.59 1010.19 1499.33 1014.95C1505.87 1019.57 1512.22 1024.22 1512.03 1024.43V1024.43Z" fill="#012169" stroke="black" stroke-width="0.286432"/>
<path fill-rule="evenodd" clip-rule="evenodd" d="M1512.03 1005.69C1512.4 1006.12 1512.63 1006.72 1512.63 1007.38V1022.74C1512.63 1023.4 1512.4 1024 1512.03 1024.43C1511.66 1024.86 1511.15 1025.13 1510.59 1025.13H1486.9C1486.34 1025.13 1485.82 1024.86 1485.45 1024.43C1485.09 1024 1511.66 1005.26 1512.03 1005.69V1005.69Z" fill="#012169" stroke="black" stroke-width="0.286432"/>
<path fill-rule="evenodd" clip-rule="evenodd" d="M1512.03 1024.43C1511.66 1024.86 1511.15 1025.13 1510.59 1025.13H1486.9C1486.34 1025.13 1485.82 1024.86 1485.45 1024.43C1485.27 1024.21 1492.02 1019.28 1498.76 1014.53C1498.76 1014.53 1512.4 1024 1512.03 1024.43V1024.43Z" fill="#012169" stroke="black" stroke-width="0.286432"/>
<path d="M1510.59 1004.99H1486.9C1485.77 1004.99 1484.86 1006.06 1484.86 1007.38V1022.74C1484.86 1024.06 1485.77 1025.13 1486.9 1025.13H1510.59C1511.72 1025.13 1512.63 1024.06 1512.63 1022.74V1007.38C1512.63 1006.06 1511.72 1004.99 1510.59 1004.99Z" stroke="black" stroke-width="0.286432"/>
<path d="M1506.53 1009.58H1490.96V1019.88H1506.53V1009.58Z" fill="#012169" stroke="black" stroke-width="0.286432"/>
<path d="M1456.12 1005.79L1446.6 1007.8C1442.63 1008.63 1440.01 1013.44 1440.74 1018.54L1440.88 1019.51C1441.61 1024.61 1445.42 1028.07 1449.38 1027.23L1458.91 1025.23C1462.87 1024.39 1465.49 1019.58 1464.76 1014.48L1464.62 1013.51C1463.89 1008.41 1460.08 1004.96 1456.12 1005.79Z" fill="#FED100" stroke="black" stroke-width="0.286654"/>
<path d="M1456.21 1008.54L1447.26 1010.41C1444.21 1011.05 1442.19 1014.71 1442.75 1018.6C1443.32 1022.48 1446.24 1025.11 1449.29 1024.48L1458.25 1022.61C1461.3 1021.97 1463.31 1018.31 1462.75 1014.43C1462.19 1010.54 1459.26 1007.91 1456.21 1008.54Z" fill="#306947"/>
<path d="M1456.21 1008.54L1447.26 1010.41C1444.21 1011.05 1442.19 1014.71 1442.75 1018.6C1443.32 1022.48 1446.24 1025.11 1449.29 1024.48L1458.25 1022.61C1461.3 1021.97 1463.31 1018.31 1462.75 1014.43C1462.19 1010.54 1459.26 1007.91 1456.21 1008.54Z" stroke="black" stroke-width="0.286654"/>
<path d="M1414.97 1034.25L1425.92 1014.73L1410.07 1013.24L1411.03 1025.41L1414.97 1034.25Z" fill="#FED100" stroke="black" stroke-width="0.286477"/>
<path d="M1413.96 1030.13L1421.99 1016.39L1410.33 1015.43L1408.8 1024.47L1413.96 1030.13Z" fill="#C8102E"/>
<path d="M1413.51 1030.41L1421.9 1018.43L1408.22 1025.45L1413.51 1030.41Z" fill="#C8102E"/>
<path d="M1422.76 1018.41L1408.07 1022.31" stroke="black" stroke-width="0.286477"/>
<path d="M1413.96 1030.1L1421.99 1016.38L1410.32 1015.43L1408.65 1024.37L1413.96 1030.1Z" stroke="black" stroke-width="0.286477"/>
<path d="M1475.51 1007.99C1475.51 1008.6 1475.43 1009.21 1475.28 1009.77C1475.13 1010.33 1474.91 1010.84 1474.64 1011.27C1474.36 1011.7 1474.03 1012.05 1473.67 1012.28C1473.3 1012.51 1472.91 1012.63 1472.52 1012.63C1472.13 1012.63 1471.74 1012.51 1471.38 1012.28C1471.01 1012.05 1470.68 1011.7 1470.41 1011.27C1470.13 1010.84 1469.91 1010.33 1469.76 1009.77C1469.61 1009.21 1469.53 1008.6 1469.53 1007.99C1469.53 1007.38 1469.61 1006.78 1469.76 1006.22C1469.91 1005.65 1470.13 1005.14 1470.41 1004.71C1470.68 1004.28 1471.01 1003.94 1471.38 1003.7C1471.74 1003.47 1472.13 1003.35 1472.52 1003.35C1472.91 1003.35 1473.3 1003.47 1473.67 1003.7C1474.03 1003.94 1474.36 1004.28 1474.64 1004.71C1474.91 1005.14 1475.13 1005.65 1475.28 1006.22C1475.43 1006.78 1475.51 1007.38 1475.51 1007.99Z" fill="white" stroke="black" stroke-width="0.286432"/>
<path d="M1476.12 1022.53C1476.12 1023.14 1476.05 1023.74 1475.9 1024.31C1475.75 1024.87 1475.53 1025.38 1475.25 1025.81C1474.97 1026.24 1474.64 1026.59 1474.28 1026.82C1473.91 1027.05 1473.53 1027.17 1473.13 1027.17C1472.74 1027.17 1472.35 1027.05 1471.99 1026.82C1471.62 1026.59 1471.29 1026.24 1471.02 1025.81C1470.74 1025.38 1470.52 1024.87 1470.37 1024.31C1470.22 1023.74 1470.14 1023.14 1470.14 1022.53C1470.14 1021.92 1470.22 1021.32 1470.37 1020.76C1470.52 1020.19 1470.74 1019.68 1471.02 1019.25C1471.29 1018.82 1471.62 1018.48 1471.99 1018.24C1472.35 1018.01 1472.74 1017.89 1473.13 1017.89C1473.53 1017.89 1473.91 1018.01 1474.28 1018.24C1474.64 1018.48 1474.97 1018.82 1475.25 1019.25C1475.53 1019.68 1475.75 1020.19 1475.9 1020.76C1476.05 1021.32 1476.12 1021.92 1476.12 1022.53Z" fill="white" stroke="black" stroke-width="0.286272"/>
<path d="M1435.29 1011.35C1435.29 1011.96 1435.21 1012.56 1435.06 1013.12C1434.91 1013.69 1434.69 1014.2 1434.42 1014.63C1434.14 1015.06 1433.81 1015.4 1433.44 1015.64C1433.08 1015.87 1432.69 1015.99 1432.3 1015.99C1431.91 1015.99 1431.52 1015.87 1431.16 1015.64C1430.79 1015.4 1430.46 1015.06 1430.18 1014.63C1429.91 1014.2 1429.69 1013.69 1429.54 1013.12C1429.39 1012.56 1429.31 1011.96 1429.31 1011.35C1429.31 1010.74 1429.39 1010.14 1429.54 1009.57C1429.69 1009.01 1429.91 1008.5 1430.18 1008.07C1430.46 1007.64 1430.79 1007.29 1431.16 1007.06C1431.52 1006.83 1431.91 1006.71 1432.3 1006.71C1432.69 1006.71 1433.08 1006.83 1433.44 1007.06C1433.81 1007.29 1434.14 1007.64 1434.42 1008.07C1434.69 1008.5 1434.91 1009.01 1435.06 1009.57C1435.21 1010.14 1435.29 1010.74 1435.29 1011.35Z" fill="white" stroke="black" stroke-width="0.286432"/>
<path d="M1435.9 1025.89C1435.9 1026.5 1435.82 1027.1 1435.67 1027.66C1435.52 1028.23 1435.3 1028.74 1435.03 1029.17C1434.75 1029.6 1434.42 1029.94 1434.06 1030.17C1433.69 1030.41 1433.3 1030.53 1432.91 1030.53C1432.52 1030.53 1432.13 1030.41 1431.77 1030.17C1431.4 1029.94 1431.07 1029.6 1430.8 1029.17C1430.52 1028.74 1430.3 1028.23 1430.15 1027.66C1430 1027.1 1429.92 1026.5 1429.92 1025.89C1429.92 1025.28 1430 1024.67 1430.15 1024.11C1430.3 1023.55 1430.52 1023.04 1430.8 1022.61C1431.07 1022.17 1431.4 1021.83 1431.77 1021.6C1432.13 1021.37 1432.52 1021.25 1432.91 1021.25C1433.3 1021.25 1433.69 1021.37 1434.06 1021.6C1434.42 1021.83 1434.75 1022.17 1435.03 1022.61C1435.3 1023.04 1435.52 1023.55 1435.67 1024.11C1435.82 1024.67 1435.9 1025.28 1435.9 1025.89Z" fill="white" stroke="black" stroke-width="0.286432"/>
<path d="M1541.37 1005.79L1550.89 1007.8C1554.86 1008.63 1557.48 1013.44 1556.75 1018.54L1556.61 1019.51C1555.88 1024.61 1552.07 1028.07 1548.11 1027.23L1538.58 1025.23C1534.62 1024.39 1532 1019.58 1532.73 1014.48L1532.87 1013.51C1533.6 1008.41 1537.41 1004.96 1541.37 1005.79Z" fill="#FED100" stroke="black" stroke-width="0.286654"/>
<path d="M1541.28 1008.54L1550.23 1010.41C1553.28 1011.05 1555.3 1014.71 1554.74 1018.6C1554.17 1022.48 1551.25 1025.11 1548.2 1024.48L1539.24 1022.61C1536.19 1021.97 1534.18 1018.31 1534.74 1014.43C1535.3 1010.54 1538.23 1007.91 1541.28 1008.54Z" fill="#306947"/>
<path d="M1541.28 1008.54L1550.23 1010.41C1553.28 1011.05 1555.3 1014.71 1554.74 1018.6C1554.17 1022.48 1551.25 1025.11 1548.2 1024.48L1539.24 1022.61C1536.19 1021.97 1534.18 1018.31 1534.74 1014.43C1535.3 1010.54 1538.23 1007.91 1541.28 1008.54Z" stroke="black" stroke-width="0.286654"/>
<path d="M1582.52 1034.25L1571.57 1014.73L1587.42 1013.24L1586.47 1025.41L1582.52 1034.25Z" fill="#FED100" stroke="black" stroke-width="0.286477"/>
<path d="M1583.53 1030.13L1575.5 1016.39L1587.16 1015.43L1588.69 1024.47L1583.53 1030.13Z" fill="#C8102E"/>
<path d="M1583.98 1030.41L1575.59 1018.43L1589.27 1025.45L1583.98 1030.41Z" fill="#C8102E"/>
<path d="M1574.73 1018.41L1589.42 1022.31" stroke="black" stroke-width="0.286477"/>
<path d="M1583.53 1030.1L1575.5 1016.38L1587.17 1015.43L1588.84 1024.37L1583.53 1030.1Z" stroke="black" stroke-width="0.286477"/>
<path d="M1521.98 1007.99C1521.98 1008.6 1522.06 1009.21 1522.21 1009.77C1522.36 1010.33 1522.58 1010.84 1522.85 1011.27C1523.13 1011.7 1523.46 1012.05 1523.82 1012.28C1524.19 1012.51 1524.58 1012.63 1524.97 1012.63C1525.36 1012.63 1525.75 1012.51 1526.11 1012.28C1526.48 1012.05 1526.81 1011.7 1527.08 1011.27C1527.36 1010.84 1527.58 1010.33 1527.73 1009.77C1527.88 1009.21 1527.96 1008.6 1527.96 1007.99C1527.96 1007.38 1527.88 1006.78 1527.73 1006.22C1527.58 1005.65 1527.36 1005.14 1527.08 1004.71C1526.81 1004.28 1526.48 1003.94 1526.11 1003.7C1525.75 1003.47 1525.36 1003.35 1524.97 1003.35C1524.58 1003.35 1524.19 1003.47 1523.82 1003.7C1523.46 1003.94 1523.13 1004.28 1522.85 1004.71C1522.58 1005.14 1522.36 1005.65 1522.21 1006.22C1522.06 1006.78 1521.98 1007.38 1521.98 1007.99Z" fill="white" stroke="black" stroke-width="0.286432"/>
<path d="M1521.37 1022.53C1521.37 1023.14 1521.45 1023.74 1521.6 1024.31C1521.75 1024.87 1521.97 1025.38 1522.24 1025.81C1522.52 1026.24 1522.85 1026.59 1523.21 1026.82C1523.58 1027.05 1523.97 1027.17 1524.36 1027.17C1524.75 1027.17 1525.14 1027.05 1525.5 1026.82C1525.87 1026.59 1526.2 1026.24 1526.47 1025.81C1526.75 1025.38 1526.97 1024.87 1527.12 1024.31C1527.27 1023.74 1527.35 1023.14 1527.35 1022.53C1527.35 1021.92 1527.27 1021.32 1527.12 1020.76C1526.97 1020.19 1526.75 1019.68 1526.47 1019.25C1526.2 1018.82 1525.87 1018.48 1525.5 1018.24C1525.14 1018.01 1524.75 1017.89 1524.36 1017.89C1523.97 1017.89 1523.58 1018.01 1523.21 1018.24C1522.85 1018.48 1522.52 1018.82 1522.24 1019.25C1521.97 1019.68 1521.75 1020.19 1521.6 1020.76C1521.45 1021.32 1521.37 1021.92 1521.37 1022.53Z" fill="white" stroke="black" stroke-width="0.286432"/>
<path d="M1562.2 1011.35C1562.2 1011.96 1562.28 1012.56 1562.43 1013.12C1562.58 1013.69 1562.8 1014.2 1563.07 1014.63C1563.35 1015.06 1563.68 1015.4 1564.05 1015.64C1564.41 1015.87 1564.8 1015.99 1565.19 1015.99C1565.58 1015.99 1565.97 1015.87 1566.34 1015.64C1566.7 1015.4 1567.03 1015.06 1567.31 1014.63C1567.58 1014.2 1567.8 1013.69 1567.95 1013.12C1568.1 1012.56 1568.18 1011.96 1568.18 1011.35C1568.18 1010.74 1568.1 1010.14 1567.95 1009.57C1567.8 1009.01 1567.58 1008.5 1567.31 1008.07C1567.03 1007.64 1566.7 1007.29 1566.34 1007.06C1565.97 1006.83 1565.58 1006.71 1565.19 1006.71C1564.8 1006.71 1564.41 1006.83 1564.05 1007.06C1563.68 1007.29 1563.35 1007.64 1563.07 1008.07C1562.8 1008.5 1562.58 1009.01 1562.43 1009.57C1562.28 1010.14 1562.2 1010.74 1562.2 1011.35Z" fill="white" stroke="black" stroke-width="0.286432"/>
<path d="M1561.59 1025.89C1561.59 1026.5 1561.67 1027.1 1561.82 1027.66C1561.97 1028.23 1562.19 1028.74 1562.46 1029.17C1562.74 1029.6 1563.07 1029.94 1563.43 1030.17C1563.8 1030.41 1564.19 1030.53 1564.58 1030.53C1564.97 1030.53 1565.36 1030.41 1565.72 1030.17C1566.09 1029.94 1566.42 1029.6 1566.69 1029.17C1566.97 1028.74 1567.19 1028.23 1567.34 1027.66C1567.49 1027.1 1567.57 1026.5 1567.57 1025.89C1567.57 1025.28 1567.49 1024.67 1567.34 1024.11C1567.19 1023.55 1566.97 1023.04 1566.69 1022.61C1566.42 1022.17 1566.09 1021.83 1565.72 1021.6C1565.36 1021.37 1564.97 1021.25 1564.58 1021.25C1564.19 1021.25 1563.8 1021.37 1563.43 1021.6C1563.07 1021.83 1562.74 1022.17 1562.46 1022.61C1562.19 1023.04 1561.97 1023.55 1561.82 1024.11C1561.67 1024.67 1561.59 1025.28 1561.59 1025.89Z" fill="white" stroke="black" stroke-width="0.286432"/>
</g>
<defs>
<clipPath id="clip0">
<rect width="2000" height="1416.04" rx="186" fill="white"/>
</clipPath>
</defs>
</svg>
