<svg width="2000" height="1417" viewBox="0 0 2000 1417" fill="none" xmlns="http://www.w3.org/2000/svg">
<path d="M183.382 7.37118C84.4379 7.37118 4.22754 91.3739 4.22754 194.997V1205.99C4.22754 1309.61 84.4379 1393.62 183.382 1393.62H662.256C662.256 931.436 662.256 469.256 662.256 7.07617L183.382 7.37118Z" fill="#57A863"/>
<path d="M661.691 7.37109C661.691 469.551 661.691 931.731 661.691 1393.91H1319.44C1319.44 931.731 1319.44 469.551 1319.44 7.37109H661.691Z" fill="white"/>
<path d="M1796.62 7.37109H1319.16C1319.16 469.551 1319.16 931.731 1319.16 1393.91H1796.62C1895.56 1393.91 1975.77 1309.91 1975.77 1206.28V194.996C1975.77 91.3738 1895.56 7.37109 1796.62 7.37109Z" fill="#FC6E51"/>
</svg>
