<svg width="2000" height="1417" viewBox="0 0 2000 1417" fill="none" xmlns="http://www.w3.org/2000/svg">
<path d="M25.3486 203.257V468.764H1997.18V203.257C1997.18 95.0723 1913.44 7.37132 1810.14 7.37132H212.673C163.017 7.293 115.37 27.8963 80.2316 64.6405C45.0934 101.385 25.3486 151.254 25.3486 203.257Z" fill="#57A863"/>
<path d="M25.3486 931.932H1997.18V469.654H25.3486V931.932Z" fill="white"/>
<path d="M25.3486 1198.02C25.3486 1306.21 109.09 1393.91 212.391 1393.91H1810.14C1913.44 1393.91 1997.18 1306.21 1997.18 1198.02V932.514H25.3486V1198.02Z" fill="#ED5565"/>
<path d="M1177.74 689.436L1166.76 669.67C1163.06 662.164 1160.95 653.914 1160.56 645.479V622.469C1160.17 614.56 1156.19 607.324 1149.86 602.998L1131.55 592.083C1124.72 587.576 1118.95 581.529 1114.65 574.382L1103.94 555.207C1099.81 548.573 1092.9 544.407 1085.35 543.996H1063.38C1055.32 543.589 1047.45 541.376 1040.28 537.506L1021.41 526.296C1014.68 522.722 1006.73 522.722 999.997 526.296L981.687 537.506C974.543 541.438 966.653 543.655 958.589 543.996H937.462C929.911 544.407 923.001 548.573 918.871 555.207L907.885 574.972C903.574 582.112 897.801 588.159 890.983 592.673L872.11 604.178C865.776 608.504 861.798 615.74 861.406 623.649V645.774C861.08 654.22 858.963 662.483 855.209 669.965L844.504 689.141C841.137 696.198 841.137 704.504 844.504 711.561L855.49 731.327C859.185 738.833 861.299 747.082 861.688 755.517V778.528C862.08 786.437 866.058 793.672 872.392 797.999L890.702 808.914C897.531 813.412 903.308 819.462 907.603 826.614L918.307 845.79C922.438 852.423 929.347 856.589 936.899 857H958.871C966.925 857.408 974.802 859.621 981.969 863.49L1000.84 874.701C1007.57 878.275 1015.52 878.275 1022.25 874.701L1040.56 863.49C1047.7 859.54 1055.59 857.321 1063.66 857H1084.79C1092.34 856.589 1099.25 852.423 1103.38 845.79L1114.36 826.024C1118.72 818.926 1124.49 812.89 1131.26 808.324L1150.14 796.819C1156.47 792.492 1160.45 785.257 1160.84 777.348V755.222C1161.17 746.777 1163.28 738.514 1167.04 731.032L1177.74 711.856C1181.16 704.81 1181.16 696.482 1177.74 689.436ZM1111.83 707.431L1105.35 718.936C1103.09 723.506 1101.84 728.546 1101.69 733.687V747.257C1101.45 752.047 1099.04 756.431 1095.21 759.057L1083.66 766.138C1079.58 768.855 1076.11 772.481 1073.52 776.758L1067.04 788.853C1064.53 792.867 1060.35 795.387 1055.77 795.639H1042.25C1037.44 795.845 1032.73 797.154 1028.45 799.474L1017.46 806.259C1013.4 808.463 1008.57 808.463 1004.5 806.259L992.955 799.474C988.588 797.121 983.778 795.812 978.871 795.639H965.631C961.057 795.387 956.872 792.867 954.364 788.853L947.885 777.348C945.29 773.071 941.828 769.445 937.744 766.728L927.04 759.943C923.207 757.316 920.801 752.932 920.561 748.142V734.277C920.346 729.239 919.097 724.308 916.899 719.821L910.42 707.726C908.361 703.459 908.361 698.422 910.42 694.156L916.899 682.65C919.163 678.084 920.414 673.042 920.561 667.9V654.625C920.801 649.834 923.207 645.451 927.04 642.824L938.589 635.744C942.673 633.026 946.135 629.4 948.73 625.124L955.209 613.028C957.717 609.015 961.902 606.494 966.476 606.243H979.434C984.247 606.037 988.959 604.727 993.237 602.408L1004.22 595.623C1008.3 593.467 1013.11 593.467 1017.18 595.623L1028.73 602.408C1033.09 604.77 1037.91 606.08 1042.81 606.243H1056.05C1060.63 606.494 1064.81 609.015 1067.32 613.028L1073.8 624.534C1076.4 628.81 1079.86 632.436 1083.94 635.154L1095.21 641.939C1099.04 644.566 1101.45 648.949 1101.69 653.739V667.605C1101.89 672.644 1103.14 677.577 1105.35 682.06L1111.83 694.156C1113.89 698.422 1113.89 703.459 1111.83 707.726V707.431Z" fill="#ED5565"/>
<path d="M138.027 351.643H81.6895V410.644H138.027V351.643Z" fill="white"/>
<path d="M250.701 351.643H194.363V410.644H250.701V351.643Z" fill="white"/>
<path d="M363.376 351.643H307.038V410.644H363.376V351.643Z" fill="white"/>
<path d="M476.051 351.643H419.713V410.644H476.051V351.643Z" fill="white"/>
<path d="M588.732 351.643H532.394V410.644H588.732V351.643Z" fill="white"/>
<path d="M701.406 351.643H645.068V410.644H701.406V351.643Z" fill="white"/>
<path d="M814.08 351.643H757.742V410.644H814.08V351.643Z" fill="white"/>
<path d="M926.755 351.643H870.417V410.644H926.755V351.643Z" fill="white"/>
<path d="M1039.44 351.643H983.099V410.644H1039.44V351.643Z" fill="white"/>
<path d="M1152.11 351.643H1095.77V410.644H1152.11V351.643Z" fill="white"/>
<path d="M1264.79 351.643H1208.45V410.644H1264.79V351.643Z" fill="white"/>
<path d="M1377.46 351.643H1321.12V410.644H1377.46V351.643Z" fill="white"/>
<path d="M1490.14 351.643H1433.8V410.644H1490.14V351.643Z" fill="white"/>
<path d="M1602.82 351.643H1546.48V410.644H1602.82V351.643Z" fill="white"/>
<path d="M1715.49 351.643H1659.15V410.644H1715.49V351.643Z" fill="white"/>
<path d="M1828.16 351.643H1771.83V410.644H1828.16V351.643Z" fill="white"/>
<path d="M1940.84 351.643H1884.5V410.644H1940.84V351.643Z" fill="white"/>
<path d="M138.027 990.344H81.6895V1049.35H138.027V990.344Z" fill="white"/>
<path d="M250.701 990.344H194.363V1049.35H250.701V990.344Z" fill="white"/>
<path d="M363.376 990.344H307.038V1049.35H363.376V990.344Z" fill="white"/>
<path d="M476.051 990.344H419.713V1049.35H476.051V990.344Z" fill="white"/>
<path d="M588.732 990.344H532.394V1049.35H588.732V990.344Z" fill="white"/>
<path d="M701.406 990.344H645.068V1049.35H701.406V990.344Z" fill="white"/>
<path d="M814.08 990.344H757.742V1049.35H814.08V990.344Z" fill="white"/>
<path d="M926.755 990.344H870.417V1049.35H926.755V990.344Z" fill="white"/>
<path d="M1039.44 990.344H983.099V1049.35H1039.44V990.344Z" fill="white"/>
<path d="M1152.11 990.344H1095.77V1049.35H1152.11V990.344Z" fill="white"/>
<path d="M1264.79 990.344H1208.45V1049.35H1264.79V990.344Z" fill="white"/>
<path d="M1377.46 990.344H1321.12V1049.35H1377.46V990.344Z" fill="white"/>
<path d="M1490.14 990.344H1433.8V1049.35H1490.14V990.344Z" fill="white"/>
<path d="M1602.82 990.344H1546.48V1049.35H1602.82V990.344Z" fill="white"/>
<path d="M1715.49 990.344H1659.15V1049.35H1715.49V990.344Z" fill="white"/>
<path d="M1828.16 990.344H1771.83V1049.35H1828.16V990.344Z" fill="white"/>
<path d="M1940.84 990.344H1884.5V1049.35H1940.84V990.344Z" fill="white"/>
</svg>
