<svg width="2000" height="1417" viewBox="0 0 2000 1417" fill="none" xmlns="http://www.w3.org/2000/svg">
<path d="M14.6484 203.257V468.764H1986.48V203.257C1986.48 95.0723 1902.74 7.37132 1799.44 7.37132H201.972C152.317 7.293 104.67 27.8963 69.5314 64.6405C34.3932 101.385 14.6484 151.254 14.6484 203.257Z" fill="#ED5565"/>
<path d="M14.6484 931.932H1986.48V469.654H14.6484V931.932Z" fill="white"/>
<path d="M14.6484 1198.02C14.6484 1306.21 98.3901 1393.91 201.691 1393.91H1799.44C1902.74 1393.91 1986.48 1306.21 1986.48 1198.02V932.514H14.6484V1198.02Z" fill="#434A54"/>
<path d="M667.326 800.349C658.312 807.134 652.96 803.299 655.495 791.794L665.355 749.607C667.61 737.001 663.699 724.048 654.932 715.091L626.763 688.246C618.312 680.575 620.566 674.085 631.552 673.79H672.96C684.837 672.908 695.05 664.653 698.876 652.845L711.833 606.823C714.932 595.613 720.566 595.318 724.509 606.823L740.002 652.255C744.784 664.181 755.823 672.042 768.171 672.315H810.425C821.411 672.315 823.664 678.805 815.214 686.476L783.101 715.977C774.407 724.84 770.774 737.821 773.523 750.197L783.664 787.369C786.763 798.579 781.693 802.709 772.115 796.809L737.749 774.683C727.393 768.351 714.583 768.351 704.228 774.683L667.326 800.349Z" fill="#57A863"/>
<path d="M1230.71 800.349C1221.69 807.134 1216.34 803.299 1218.87 791.794L1228.73 749.607C1230.99 737.001 1227.08 724.048 1218.31 715.091L1190.14 688.246C1181.69 680.575 1183.94 674.085 1194.93 673.79H1236.34C1248.22 672.908 1258.43 664.653 1262.25 652.845L1275.21 606.823C1278.31 595.613 1283.94 595.318 1287.89 606.823L1303.38 652.255C1308.16 664.181 1319.2 672.042 1331.55 672.315H1373.8C1384.79 672.315 1387.04 678.805 1378.59 686.476L1346.48 715.977C1337.79 724.84 1334.15 737.821 1336.9 750.197L1347.04 787.369C1350.14 798.579 1345.07 802.709 1335.49 796.809L1301.13 774.683C1290.77 768.351 1277.96 768.351 1267.61 774.683L1230.71 800.349Z" fill="#57A863"/>
<path d="M949.016 800.349C940.002 807.134 934.65 803.299 937.185 791.794L947.044 749.607C949.3 737.001 945.388 724.048 936.621 715.091L908.452 688.246C900.002 680.575 902.255 674.085 913.241 673.79H954.65C966.526 672.908 976.74 664.653 980.565 652.845L993.523 606.823C996.622 595.613 1002.26 595.318 1006.2 606.823L1021.69 652.255C1026.47 664.181 1037.51 672.042 1049.86 672.315H1092.11C1103.1 672.315 1105.35 678.805 1096.9 686.476L1064.79 715.977C1056.1 724.84 1052.46 737.821 1055.21 750.197L1065.35 787.369C1068.45 798.579 1063.38 802.709 1053.8 796.809L1019.44 774.683C1009.08 768.351 996.273 768.351 985.917 774.683L949.016 800.349Z" fill="#57A863"/>
</svg>
