<svg width="2000" height="1417" viewBox="0 0 2000 1417" fill="none" xmlns="http://www.w3.org/2000/svg">
<path d="M1814.38 7.37109H200.856C101.912 7.37109 21.7012 91.3738 21.7012 194.996V1206.28C21.7012 1309.91 101.912 1393.91 200.856 1393.91H1814.38C1913.32 1393.91 1993.53 1309.91 1993.53 1206.28V194.996C1993.53 91.3738 1913.32 7.37109 1814.38 7.37109Z" fill="white"/>
<path d="M1286.48 560.509C1290.14 556.224 1290.75 549.958 1288 544.987C1285.24 540.015 1279.74 537.469 1274.37 538.678H1139.16C1124.03 537.899 1110.1 529.841 1101.41 516.847L1033.24 398.844C1031.28 393.294 1026.22 389.611 1020.57 389.611C1014.91 389.611 1009.86 393.294 1007.89 398.844L941.694 515.077C933.218 528.206 919.343 536.401 904.229 537.203H769.018C763.601 535.81 757.952 538.29 755.101 543.311C752.25 548.332 752.869 554.714 756.624 559.034L825.075 677.037C832.036 690.782 832.036 707.248 825.075 720.993L756.624 838.996C752.869 843.316 752.25 849.698 755.101 854.719C757.952 859.74 763.601 862.22 769.018 860.827H903.948C918.998 861.607 932.845 869.675 941.413 882.658L1007.61 998.891C1009.68 1004.24 1014.63 1007.74 1020.15 1007.74C1025.66 1007.74 1030.61 1004.24 1032.68 998.891L1098.6 885.018C1107.16 872.035 1121.01 863.967 1136.06 863.187H1273.53C1278.89 864.396 1284.39 861.85 1287.15 856.879C1289.91 851.907 1289.3 845.641 1285.64 841.357L1217.19 723.353C1210.18 709.621 1210.18 693.129 1217.19 679.397L1286.48 560.509ZM1016.06 528.943C1018.6 523.633 1023.38 523.633 1026.48 528.943C1029.58 534.253 1026.48 538.678 1021.69 538.678C1019.26 539.337 1016.69 538.309 1015.29 536.116C1013.9 533.923 1013.98 531.045 1015.5 528.943H1016.06ZM878.032 792.09C871.553 792.09 869.018 787.665 872.117 782.65C873.222 780.374 875.454 778.941 877.892 778.941C880.329 778.941 882.561 780.374 883.666 782.65C886.765 787.96 883.666 792.09 877.751 792.09H878.032ZM883.948 619.805C882.905 622.249 880.588 623.823 878.032 623.823C875.476 623.823 873.159 622.249 872.117 619.805C869.018 614.495 872.117 610.365 878.032 610.365C883.948 610.365 886.765 614.79 883.666 619.805H883.948ZM1026.76 873.512C1023.67 878.823 1018.88 878.823 1016.34 873.512C1014.97 871.497 1014.87 868.819 1016.1 866.702C1017.32 864.584 1019.63 863.434 1021.98 863.777C1027.89 863.777 1029.86 867.907 1026.76 873.217V873.512ZM1084.79 770.26C1076.32 783.389 1062.44 791.583 1047.33 792.385H996.624C981.521 791.52 967.621 783.481 958.877 770.555L930.708 723.058C923.797 709.404 923.797 693.051 930.708 679.397L957.187 632.491C965.664 619.362 979.539 611.168 994.652 610.365H1047.61C1062.72 611.168 1076.6 619.362 1085.07 632.491L1111.55 679.397C1118.37 693.18 1118.37 709.57 1111.55 723.353L1084.79 770.26ZM1165.92 792.385C1159.44 792.385 1156.91 787.96 1160 782.945C1161.11 780.669 1163.34 779.236 1165.78 779.236C1168.22 779.236 1170.45 780.669 1171.55 782.945C1174.65 787.96 1171.55 792.385 1165.36 792.385H1165.92ZM1171.84 620.1C1170.73 622.376 1168.5 623.809 1166.06 623.809C1163.62 623.809 1161.39 622.376 1160.29 620.1C1157.19 614.79 1160.29 610.66 1166.2 610.66C1172.12 610.66 1175.22 614.79 1171.84 620.1Z" fill="#4758A9"/>
<path d="M1814.1 7.37325H200.86C105.852 7.37017 27.3641 85.0387 21.9863 184.378H1993.82C1988.42 84.6966 1909.43 6.89927 1814.1 7.37325Z" fill="#4758A9"/>
<path d="M200.847 1393.92H1814.09C1909.09 1393.92 1987.58 1316.25 1992.96 1216.91H21.1289C26.5241 1316.59 105.514 1394.39 200.847 1393.92Z" fill="#4758A9"/>
</svg>
