<svg width="2000" height="1417" viewBox="0 0 2000 1417" fill="none" xmlns="http://www.w3.org/2000/svg">
<path d="M187.323 15.6388C88.3784 15.6388 8.16797 99.6415 8.16797 203.264V1214.26C8.16797 1317.88 88.3784 1401.88 187.323 1401.88H666.196C666.196 939.703 666.196 477.524 666.196 15.3438L187.323 15.6388Z" fill="#57A863"/>
<path d="M665.631 15.6387C665.631 477.818 665.631 939.998 665.631 1402.18H1323.94C1323.94 939.998 1323.94 477.818 1323.94 15.6387H665.631Z" fill="white"/>
<path d="M1800.56 15.6387H1323.94C1323.94 477.818 1323.94 939.998 1323.94 1402.18H1800.56C1899.5 1402.18 1979.71 1318.18 1979.71 1214.55V203.264C1979.71 99.6414 1899.5 15.6387 1800.56 15.6387Z" fill="#ED5565"/>
</svg>
