<svg width="2000" height="1417" viewBox="0 0 2000 1417" fill="none" xmlns="http://www.w3.org/2000/svg">
<path d="M1818.05 15.6387H204.525C105.58 15.6387 25.3696 99.6414 25.3696 203.264V1214.55C25.3696 1318.18 105.58 1402.18 204.525 1402.18H1818.05C1916.99 1402.18 1997.2 1318.18 1997.2 1214.55V203.264C1997.2 99.6414 1916.99 15.6387 1818.05 15.6387Z" fill="#52C162"/>
<path d="M84.5077 63.1406C46.0967 98.7151 24.1393 149.864 24.226 203.565V1214.56C24.2507 1268.8 46.7598 1320.36 85.9161 1355.87L925.635 723.664L84.5077 63.1406Z" fill="#434A54"/>
<path d="M1997.19 203.266C1997.21 155.824 1979.98 110.153 1949.02 75.5273L1123.95 724.546L1947.61 1344.06C1979.4 1309.28 1997.16 1263 1997.19 1214.85V203.266Z" fill="#434A54"/>
<path d="M1984.79 1283.29L1144.23 716.577L1989.3 146.326C1974.09 97.0317 1940.16 56.4795 1895.5 34.223L1014.09 628.96L129.862 33.043C85.1535 54.5425 50.8343 94.3238 34.9329 143.081L884.792 715.987L39.7216 1287.12C59.3964 1335.84 97.7362 1373.64 145.355 1391.26L1014.09 803.605L1882.54 1388.9C1929.16 1370.11 1966.2 1331.85 1984.79 1283.29Z" fill="#FFCE54"/>
</svg>
