<svg width="2000" height="1417" viewBox="0 0 2000 1417" fill="none" xmlns="http://www.w3.org/2000/svg">
<g clip-path="url(#clip0)">
<path d="M2000 0H0V1416.04H2000V0Z" fill="white"/>
<path d="M0 0L2000 1416.04L0 0ZM0 1416.04L2000 0Z" fill="black"/>
<path d="M0 1416.04L2000 0M0 0L2000 1416.04L0 0Z" stroke="#DF112D" stroke-width="66.6667"/>
<path d="M1104.65 211.854C1130.35 334.661 1116.26 486.334 1000.17 570.488C884.067 486.334 869.974 334.661 895.68 211.854C923.045 182.497 1047.43 164.394 1104.65 211.854H1104.65Z" fill="#E8112D" stroke="black" stroke-width="0.51"/>
<path d="M1000 187.197C1042.56 187.197 1082.2 200.49 1105.57 217.724C1110.15 175.38 1126.42 133.038 1145.62 101.035C1125.59 100.541 1116.62 113.097 1116.42 126.144C1111.41 109.405 1091.79 110.389 1085.74 119.498C1107.65 136.976 1090.75 167.995 1070.94 161.595C1061.63 158.59 1056.71 150.93 1054.97 139.81C1057.61 139.611 1060.11 138.266 1061.97 136.032C1063.83 133.799 1064.92 130.833 1065.04 127.705C1065.16 124.576 1064.3 121.506 1062.62 119.082C1060.94 116.658 1058.56 115.051 1055.94 114.57C1053.32 114.089 1050.64 114.767 1048.41 116.475C1046.19 118.183 1044.58 120.799 1043.89 123.823C1043.2 126.847 1043.48 130.065 1044.67 132.859C1045.87 135.654 1047.9 137.829 1050.37 138.967C1044.11 151.03 1032.88 154.651 1024.83 151.993C1014.4 148.547 1010.02 137.469 1010.02 127.621C1010.02 102.019 1030.87 98.0802 1037.14 102.512C1036.73 85.2793 1013.78 71.4929 1006.68 85.7717C1014.61 69.0317 1014.2 45.398 1000 29.6426C985.824 45.398 985.404 69.0317 993.338 85.7717C986.244 71.4932 963.293 85.28 962.877 102.512C969.132 98.081 989.998 102.019 989.998 127.622C989.998 137.469 985.617 148.548 975.184 151.994C967.137 154.652 955.906 151.031 949.635 138.968C952.107 137.83 954.136 135.655 955.333 132.86C956.531 130.065 956.811 126.848 956.121 123.824C955.431 120.8 953.819 118.183 951.595 116.476C949.37 114.768 946.69 114.09 944.068 114.571C941.446 115.052 939.066 116.659 937.386 119.083C935.706 121.507 934.844 124.577 934.964 127.706C935.085 130.834 936.18 133.799 938.04 136.033C939.899 138.267 942.392 139.612 945.041 139.81C943.294 150.931 938.368 158.59 929.068 161.595C909.254 167.995 892.354 136.977 914.254 119.498C908.208 110.389 888.601 109.405 883.588 126.145C883.374 113.098 874.408 100.542 854.381 101.035C873.569 133.039 889.842 175.381 894.435 217.725C917.801 200.491 957.44 187.198 999.994 187.198L1000 187.197Z" fill="#F9DD16" stroke="black" stroke-width="0.51"/>
<path d="M1088.29 307.641C1085.72 308.362 1085.72 312.263 1084.38 312.263C1091.05 312.046 1094.29 309.88 1096.31 305.907C1094.84 307.496 1096.12 310.53 1095.63 311.252C1100.53 309.229 1102.86 304.318 1101.15 300.996C1102.25 302.873 1105.43 303.885 1106.41 304.029C1102.98 300.851 1105.43 293.628 1099.92 289.874C1101.76 289.729 1105.31 292.184 1106.28 295.074C1105.43 288.573 1104.57 284.384 1100.04 280.773C1100.52 281.423 1103.1 282.001 1104.2 280.773C1101.27 278.606 1100.4 274.995 1100.66 272.684C1101 269.45 1099.18 268.783 1095.75 269.795C1092.67 270.705 1085.6 271.24 1081.44 271.24C1072.87 271.24 1065.4 271.24 1058.3 265.462C1068.95 270.661 1082.54 259.684 1082.54 250.583C1082.54 240.471 1072.01 232.238 1050.71 237.727C1029.41 243.216 1003.46 240.905 1003.46 232.527C1003.46 224.148 1022.06 222.993 1031.62 224.727C1041.16 226.46 1048.01 227.616 1065.89 220.104C1061.48 222.126 1047.28 222.704 1036.02 218.949C1024.76 215.193 997.094 215.193 996.849 232.816C996.603 250.438 1026.31 248.833 1051.94 244.372C1066.87 241.771 1074.7 243.505 1074.7 249.283C1074.7 254.772 1060.99 257.083 1050.46 255.639C1039.94 254.195 1029.17 254.483 1016.68 258.817C1006.26 262.434 999.057 258.817 987.549 261.128C981.97 262.247 968.45 261.128 961.78 248.127C957.675 251.594 945.312 258.852 943.235 265.931C940.295 272.43 942.258 278.895 946.167 285.251C951.102 293.25 943.724 292.04 938.462 292.329C931.246 292.725 921.587 291.425 916.546 284.673C912.082 278.691 906.137 273.896 901.389 278.33C898.946 280.613 901.289 283.617 903.222 282.776C905.136 281.945 907.4 283.617 909.444 284.673C906.178 283.016 902.586 284.302 901.185 285.779C899.255 287.822 901.599 291.723 903.938 290.345C905.771 289.263 909.533 288.543 911.976 291.185C909.33 290.584 906.576 290.712 905.257 292.387C903.938 294.062 904.957 296.501 907.807 296.351C912.384 296.111 913.557 299.896 918.142 299.118C915.324 299.552 913.728 301.284 912.995 302.585C917.279 300.273 922.01 306.504 927.565 305.04C925.398 306.092 921.904 308.606 921.937 310.53C925.236 306.051 947.396 313.996 947.885 304.174C948.498 306.196 948.372 309.229 946.664 311.83C949.498 309.807 958.66 309.085 961.47 301.284C961.717 303.596 961.35 306.63 959.638 307.351C962.578 308.486 966.446 305.902 970.404 298.974C971.976 296.225 972.351 294.398 972.082 292.332C976.008 292.507 978.85 291.344 981.913 288.284C985.097 285.107 988.526 290.885 993.909 286.839C999.301 282.795 1003.95 286.262 1006.88 284.24C1009.82 282.218 1013.86 284.961 1017.05 282.651C1020.23 280.34 1025.17 283.782 1030.44 278.871C1038.73 282.455 1048.4 289.096 1072.14 283.95C1085.74 281.001 1090 286.406 1090 293.773C1090 298.829 1087.5 299.269 1085.6 299.407C1078.03 299.956 1074.78 296.065 1071.79 297.312C1069.79 298.154 1068.57 301.998 1071.47 303.32C1069.07 304.761 1069.38 307.465 1070.6 308.456C1071.83 309.447 1074.98 308.546 1077.12 307.374C1074.37 308.846 1071.52 311.489 1073.14 314.252C1074.13 315.929 1076.62 317.35 1078.95 313.772C1081.29 310.167 1085.56 307.164 1088.28 307.64L1088.29 307.641Z" fill="#F9DD16" stroke="black" stroke-width="0.51"/>
<path d="M937.546 231.372C930.688 228.051 928.375 227.959 929.955 234.55C930.631 237.367 932.276 241.339 933.93 243.145C933.995 240.401 934.85 232.818 937.546 231.372H937.546Z" fill="#F9DD16" stroke="black" stroke-width="0.51"/>
<path d="M958.966 231.372C965.823 228.051 968.136 227.959 966.556 234.55C965.88 237.367 964.227 241.339 962.574 243.145C962.517 240.401 961.662 232.818 958.966 231.372H958.966Z" fill="#F9DD16" stroke="black" stroke-width="0.51"/>
<path d="M948.286 226.932C961.26 226.932 962.881 234.118 962.816 243.073C962.759 252.751 958.353 249.428 955.844 261.851C954.867 266.708 951.585 266.979 948.286 266.979C944.98 266.979 941.706 266.708 940.72 261.851C938.227 249.428 933.814 252.75 933.754 243.072C933.694 234.117 935.314 226.932 948.294 226.932L948.286 226.932Z" fill="#F9DD16" stroke="black" stroke-width="0.51"/>
<path d="M914.839 262.427C911.532 260.116 909.399 261.715 908.055 262.15C912.339 263.449 912.51 269.939 922.308 272.972C920.1 272.251 918.879 273.695 916.794 272.395C920.833 276.151 925.361 280.499 934.915 280.628C940.241 280.7 936.56 283.951 933.074 282.073C936.69 286.478 943.849 282.867 948.377 290.885C949.233 284.673 939.932 274.85 944.216 267.773C931.005 267.109 929.922 258.469 922.307 251.594C916.109 246.005 915.555 240.323 912.819 229.685C911.573 224.868 906.792 221.865 904.145 223.006C901.832 224.003 900.985 226.37 902.972 228.142C904.96 229.914 907.5 230.154 908.046 234.644C905.464 230.995 901.596 229.673 899.739 231.956C898.607 233.346 899.063 236.588 901.498 236.882C905.465 237.363 902.614 241.928 907.126 246.394C903.128 241.087 899.666 240.607 897.524 243.49C896.246 245.217 897.524 248.295 900.277 247.965C904.26 247.487 908.877 259.409 914.839 262.427V262.427Z" fill="#F9DD16" stroke="black" stroke-width="0.51"/>
<path d="M1021.33 307.063C1019.25 307.496 1019.87 311.541 1017.05 311.831C1023.78 311.831 1027.2 309.952 1030.39 306.919C1028.92 307.93 1028.31 310.53 1028.19 311.974C1031.74 308.363 1040.19 308.075 1044.59 309.086C1049 310.097 1049.73 307.641 1051.32 304.319C1052.92 300.997 1050.71 299.119 1048.51 296.519C1046.3 293.918 1045.81 290.308 1046.3 284.24C1034.55 265.751 1013.5 274.707 1013.25 282.796C1020.84 293.196 1021.82 292.04 1028.19 293.485C1034.55 294.929 1038.45 294.926 1034.18 299.119C1032.72 300.563 1026.59 299.885 1021.82 300.13C1011.14 300.677 1006.26 291.426 1003.1 296.232C1000.51 300.184 1003.18 301.929 1008.48 301.718C1004.81 301.749 999.953 301.515 1000.78 305.543C1002.18 312.33 1007.68 304.282 1009.82 307.074C1007.99 306.564 1005.14 307.886 1005.03 309.928C1004.93 311.971 1009.11 314.613 1013.69 310.318C1016.2 307.963 1019.4 307.082 1021.33 307.063H1021.33Z" fill="#F9DD16" stroke="black" stroke-width="0.51"/>
<path d="M1030.44 278.871C1026.62 277.222 1023.12 276.213 1018.64 277.305Z" fill="#F9DD16"/>
<path d="M1030.44 278.871C1026.62 277.222 1023.12 276.213 1018.64 277.305" stroke="black" stroke-width="0.51"/>
<path d="M972.859 276.729C969.716 284.7 971.621 288.634 972.086 292.332Z" fill="#F9DD16"/>
<path d="M972.859 276.729C969.716 284.7 971.621 288.634 972.086 292.332" stroke="black" stroke-width="0.51"/>
<path d="M939.386 238.944C941.544 240.218 942.758 236.619 945.926 240.44C945.054 239.325 943.971 243.403 941.544 240.696" fill="#F9DD16"/>
<path d="M939.386 238.944C941.544 240.218 942.758 236.619 945.926 240.44C945.054 239.325 943.971 243.403 941.544 240.696" stroke="black" stroke-width="0.51"/>
<path d="M956.999 238.944C954.841 240.218 953.627 236.619 950.459 240.44C951.33 239.325 952.414 243.403 954.84 240.696" fill="#F9DD16"/>
<path d="M956.999 238.944C954.841 240.218 953.627 236.619 950.459 240.44C951.33 239.325 952.414 243.403 954.84 240.696" stroke="black" stroke-width="0.51"/>
<path d="M950.46 240.439C949.718 241.161 949.645 239.864 950.206 243.273C951.249 249.532 952.478 252.46 948.186 252.46C943.804 252.46 945.132 249.532 946.166 243.273C946.74 239.864 946.666 241.161 945.92 240.439" fill="#F9DD16"/>
<path d="M950.46 240.439C949.718 241.161 949.645 239.864 950.206 243.273C951.249 249.532 952.478 252.46 948.186 252.46C943.804 252.46 945.132 249.532 946.166 243.273C946.74 239.864 946.666 241.161 945.92 240.439" stroke="black" stroke-width="0.51"/>
<path d="M948.252 264.45C951.738 264.45 953.758 264.378 953.212 258.6C952.986 256.281 955.598 255.357 954.678 251.594C955.656 256.215 948.252 255.774 948.252 253.679C948.252 255.774 940.849 256.215 941.826 251.594C940.906 255.357 943.512 256.281 943.292 258.6C942.746 264.378 944.766 264.45 948.252 264.45V264.45Z" fill="#FF0016" stroke="black" stroke-width="0.255"/>
<path d="M945.119 252.762L936.746 250.006Z" fill="#FF0016"/>
<path d="M945.119 252.762L936.746 250.006" stroke="black" stroke-width="0.255"/>
<path d="M945.119 253.276L935.77 253.184Z" fill="#FF0016"/>
<path d="M945.119 253.276L935.77 253.184" stroke="black" stroke-width="0.255"/>
<path d="M945.206 253.842L937.232 256.363Z" fill="#FF0016"/>
<path d="M945.206 253.842L937.232 256.363" stroke="black" stroke-width="0.255"/>
<path d="M951.393 252.762L959.765 250.006Z" fill="#FF0016"/>
<path d="M951.393 252.762L959.765 250.006" stroke="black" stroke-width="0.255"/>
<path d="M951.393 253.276L960.742 253.184Z" fill="#FF0016"/>
<path d="M951.393 253.276L960.742 253.184" stroke="black" stroke-width="0.255"/>
<path d="M951.299 253.842L959.272 256.363Z" fill="#FF0016"/>
<path d="M951.299 253.842L959.272 256.363" stroke="black" stroke-width="0.255"/>
<path d="M904.886 223.202C902.451 219.624 896.351 222.646 896.229 227.085C898.289 224.208 901.653 228.353 903.485 227.481C904.756 226.877 905.872 224.658 904.886 223.202L904.886 223.202Z" fill="#0051BA" stroke="black" stroke-width="0.053"/>
<path d="M901.726 231.673C899.291 228.095 893.199 231.117 893.077 235.556C895.13 232.678 898.493 236.823 900.334 235.951C901.604 235.349 902.72 233.129 901.726 231.673L901.726 231.673Z" fill="#0051BA" stroke="black" stroke-width="0.053"/>
<path d="M900.139 243.051C897.379 239.819 891.612 243.631 891.914 248.057C893.689 244.925 897.419 248.599 899.162 247.488C900.367 246.72 901.263 244.367 900.139 243.052V243.051Z" fill="#0051BA" stroke="black" stroke-width="0.053"/>
<path d="M903.046 278.313C899.984 275.478 894.633 280.046 895.358 284.404C896.816 281.052 900.88 284.193 902.5 282.854C903.624 281.927 904.292 279.468 903.047 278.313H903.046Z" fill="#0051BA" stroke="black" stroke-width="0.053"/>
<path d="M902.893 286.031C899.245 284.443 895.335 290.734 897.168 294.616C897.675 290.899 902.364 292.411 903.561 290.547C904.392 289.257 904.376 286.678 902.893 286.031V286.031Z" fill="#0051BA" stroke="black" stroke-width="0.053"/>
<path d="M907.573 291.797C903.924 290.208 900.015 296.499 901.839 300.382C902.352 296.664 907.043 298.176 908.24 296.312C909.071 295.022 909.055 292.443 907.572 291.797L907.573 291.797Z" fill="#0051BA" stroke="black" stroke-width="0.053"/>
<path d="M1003.17 302.97C999.524 301.383 995.615 307.674 997.447 311.556C997.961 307.838 1002.64 309.351 1003.84 307.486C1004.67 306.197 1004.66 303.617 1003.17 302.97V302.97Z" fill="#0051BA" stroke="black" stroke-width="0.053"/>
<path d="M1008.1 308.205C1004.32 307.117 1001.05 313.892 1003.24 317.503C1003.38 313.74 1008.19 314.614 1009.2 312.601C1009.9 311.208 1009.64 308.647 1008.1 308.205H1008.1Z" fill="#0051BA" stroke="black" stroke-width="0.053"/>
<path d="M1004.63 295.561C1001.26 293.264 996.505 298.68 997.751 302.872C998.794 299.311 1003.19 301.742 1004.64 300.146C1005.64 299.041 1006 296.496 1004.63 295.561V295.561Z" fill="#0051BA" stroke="black" stroke-width="0.053"/>
<path d="M1072.65 304.599C1068.87 303.512 1065.59 310.287 1067.78 313.898C1067.94 310.136 1072.74 311.009 1073.75 308.996C1074.45 307.603 1074.19 305.042 1072.65 304.599H1072.65Z" fill="#0051BA" stroke="black" stroke-width="0.053"/>
<path d="M1072.76 297.516C1069.33 295.357 1064.74 300.963 1066.1 305.102C1067.03 301.501 1071.51 303.753 1072.91 302.098C1073.88 300.952 1074.16 298.395 1072.76 297.516V297.516Z" fill="#0051BA" stroke="black" stroke-width="0.053"/>
<path d="M1075.41 310.932C1071.6 310.04 1068.58 316.978 1070.9 320.472C1070.92 316.706 1075.75 317.33 1076.68 315.267C1077.33 313.839 1076.97 311.294 1075.41 310.932Z" fill="#0051BA" stroke="black" stroke-width="0.053"/>
<path d="M948.533 260.988C950.927 260.988 951.896 261.813 951.896 266.917C951.896 277.731 951.79 282.381 948.842 282.381C945.886 282.381 946.09 277.963 946.09 270.023C946.09 265.881 946.09 263.81 945.381 264.155C945.381 261.453 946.399 260.988 948.533 260.988V260.988Z" fill="#0051BA" stroke="black" stroke-width="0.053"/>
</g>
<defs>
<clipPath id="clip0">
<rect width="2000" height="1416.04" rx="186" fill="white"/>
</clipPath>
</defs>
</svg>
