<svg width="2000" height="1417" viewBox="0 0 2000 1417" fill="none" xmlns="http://www.w3.org/2000/svg">
<path d="M4.22754 211.524V477.032H1976.06V211.524C1976.06 103.34 1892.32 15.6387 1789.02 15.6387H191.27C141.663 15.6387 94.0882 36.2766 59.011 73.0122C23.9337 109.748 4.22754 159.572 4.22754 211.524Z" fill="#434A54"/>
<path d="M4.22754 940.495H1976.06V477.922H4.22754V940.495Z" fill="white"/>
<path d="M4.2231 1206.29C4.2231 1314.47 87.9648 1402.17 191.265 1402.17H1788.73C1892.03 1402.17 1975.77 1314.47 1975.77 1206.29V940.781H3.94141L4.2231 1206.29Z" fill="#57A863"/>
<path d="M63.9414 63.7285C25.7821 99.2204 3.94472 150.114 3.94141 203.562V1214.56C3.94472 1268 25.7821 1318.9 63.9414 1354.39L792.955 708.027L63.9414 63.7285Z" fill="#ED5565"/>
<path d="M300.846 826.911C363.075 826.911 413.522 774.079 413.522 708.908C413.522 643.736 363.075 590.904 300.846 590.904C238.617 590.904 188.17 643.736 188.17 708.908C188.17 774.079 238.617 826.911 300.846 826.911Z" fill="white"/>
</svg>
