<svg width="2000" height="1417" viewBox="0 0 2000 1417" fill="none" xmlns="http://www.w3.org/2000/svg">
<path d="M1814.36 15.6377H200.842C101.897 15.6377 21.6868 99.6404 21.6868 203.263V1214.55C21.6868 1318.17 101.897 1402.18 200.842 1402.18H1814.36C1913.31 1402.18 1993.52 1318.17 1993.52 1214.55V203.263C1993.52 99.6404 1913.31 15.6377 1814.36 15.6377Z" fill="#3BAFDA"/>
<path d="M1543.66 702.424C1492.4 690.977 1440.13 716.659 1415.77 765.261C1362.09 870.033 1257.75 935.409 1144.22 935.409C1030.69 935.409 926.348 870.033 872.67 765.261C848.399 716.545 796.109 690.732 744.783 702.129C784.782 899.809 951.412 1041.21 1144.36 1041.21C1337.31 1041.21 1503.94 899.809 1543.94 702.129L1543.66 702.424Z" fill="#F6D660"/>
<path d="M1343.38 685.307C1343.78 674.086 1346.58 663.101 1351.55 653.152L1365.63 627.486C1370.06 618.198 1370.06 607.273 1365.63 597.985L1350.98 571.729C1346.05 561.766 1343.26 550.789 1342.82 539.573V510.073C1342.18 499.616 1336.85 490.092 1328.45 484.407L1303.94 469.656C1294.84 463.648 1287.14 455.584 1281.41 446.056L1267.32 420.39C1261.89 411.589 1252.8 406.006 1242.82 405.345H1214.65C1203.94 404.88 1193.46 401.96 1183.94 396.789L1158.59 381.744C1149.72 377.11 1139.29 377.11 1130.42 381.744L1106.2 396.789C1096.7 401.996 1086.21 404.919 1075.49 405.345H1047.32C1037.34 406.006 1028.24 411.589 1022.82 420.39L1008.17 446.941C1002.4 456.445 994.707 464.502 985.632 470.541L960.562 485.882C952.188 491.694 946.958 501.334 946.477 511.843V541.343C946.08 552.566 943.289 563.554 938.308 573.499L924.224 599.165C919.799 608.453 919.799 619.378 924.224 628.666L938.872 654.922C943.8 664.889 946.588 675.863 947.041 687.078V716.578C947.673 727.035 953.003 736.558 961.407 742.244L985.914 756.994C995.012 763.003 1002.71 771.067 1008.45 780.595L1022.53 806.261C1027.96 815.062 1037.06 820.644 1047.04 821.306H1075.21C1085.92 821.771 1096.4 824.691 1105.91 829.862L1131.27 844.907C1140.13 849.541 1150.57 849.541 1159.43 844.907L1183.66 829.862C1193.16 824.645 1203.65 821.722 1214.36 821.306H1242.53C1252.52 820.644 1261.61 815.062 1267.04 806.261L1281.69 780.005C1287.45 770.501 1295.15 762.444 1304.22 756.404L1329.29 741.064C1337.67 735.252 1342.9 725.612 1343.38 715.103V685.307Z" fill="#F6D660"/>
<path d="M294.364 200.602H190.702V345.746H294.364V200.602Z" fill="#F6D660"/>
<path d="M294.364 418.621H190.702V563.765H294.364V418.621Z" fill="#F6D660"/>
<path d="M294.364 636.332H190.702V781.476H294.364V636.332Z" fill="#F6D660"/>
<path d="M294.364 854.058H190.702V999.201H294.364V854.058Z" fill="#F6D660"/>
<path d="M294.364 1072.06H190.702V1217.21H294.364V1072.06Z" fill="#F6D660"/>
</svg>
