<svg width="2000" height="1417" viewBox="0 0 2000 1417" fill="none" xmlns="http://www.w3.org/2000/svg">
<path d="M1800.57 23.8906H187.044C88.0995 23.8906 7.88916 107.893 7.88916 211.516V1222.8C7.88916 1326.43 88.0995 1410.43 187.044 1410.43H1800.57C1899.51 1410.43 1979.72 1326.43 1979.72 1222.8V211.516C1979.72 107.893 1899.51 23.8906 1800.57 23.8906Z" fill="#57A863"/>
<path d="M1800.57 23.8909H187.33C88.3855 23.8909 8.17505 107.894 8.17505 211.516V702.41H1980.01V211.516C1980.01 161.704 1961.09 113.936 1927.43 78.7406C1893.77 43.5456 1848.13 23.8125 1800.57 23.8909Z" fill="#434A54"/>
<path d="M1979.72 407.396H7.88916V1056.41H1979.72V407.396Z" fill="white"/>
<path d="M1979.72 466.403H7.88916V997.418H1979.72V466.403Z" fill="#ED5565"/>
<path d="M938.591 186.443C949.243 174.527 964.132 167.766 979.718 167.766C995.304 167.766 1010.19 174.527 1020.84 186.443C1095.77 273.175 1246.2 478.206 1246.2 717.458C1246.2 956.71 1094.65 1161.45 1020.84 1248.47C1010.19 1260.39 995.304 1267.15 979.718 1267.15C964.132 1267.15 949.243 1260.39 938.591 1248.47C863.662 1161.74 713.239 956.71 713.239 717.458C713.239 478.206 863.662 273.175 938.591 186.443Z" fill="#ED5565"/>
<path d="M1158.03 387.051C1110.99 449.003 1078.31 579.986 1078.31 732.21C1078.31 874.404 1106.48 997.718 1149.02 1064.39C1210.1 959.696 1243.99 840.1 1247.33 717.46C1244.51 601.22 1213.81 487.592 1158.03 387.051Z" fill="#434A54"/>
<path d="M801.412 387.051C745.638 487.592 714.929 601.22 712.116 717.46C715.456 840.1 749.346 959.696 810.426 1064.39C852.68 998.013 881.13 874.404 881.13 732.21C881.13 579.986 848.736 449.003 801.412 387.051Z" fill="#434A54"/>
<path d="M1021.97 643.413C1037.53 643.413 1050.14 557.561 1050.14 451.658C1050.14 345.754 1037.53 259.902 1021.97 259.902C1006.42 259.902 993.806 345.754 993.806 451.658C993.806 557.561 1006.42 643.413 1021.97 643.413Z" fill="white"/>
<path d="M937.467 643.413C953.024 643.413 965.636 557.561 965.636 451.658C965.636 345.754 953.024 259.902 937.467 259.902C921.91 259.902 909.298 345.754 909.298 451.658C909.298 557.561 921.91 643.413 937.467 643.413Z" fill="white"/>
<path d="M1021.97 1233.42C1037.53 1233.42 1050.14 1147.57 1050.14 1041.66C1050.14 935.761 1037.53 849.909 1021.97 849.909C1006.42 849.909 993.806 935.761 993.806 1041.66C993.806 1147.57 1006.42 1233.42 1021.97 1233.42Z" fill="white"/>
<path d="M937.467 1233.42C953.024 1233.42 965.636 1147.57 965.636 1041.66C965.636 935.761 953.024 849.909 937.467 849.909C921.91 849.909 909.298 935.761 909.298 1041.66C909.298 1147.57 921.91 1233.42 937.467 1233.42Z" fill="white"/>
<path d="M979.719 790.917C1003.05 790.917 1021.97 771.105 1021.97 746.665C1021.97 722.226 1003.05 702.414 979.719 702.414C956.383 702.414 937.465 722.226 937.465 746.665C937.465 771.105 956.383 790.917 979.719 790.917Z" fill="white"/>
</svg>
