<svg width="2000" height="1417" viewBox="0 0 2000 1417" fill="none" xmlns="http://www.w3.org/2000/svg">
<path d="M1814.08 24.4795H200.563C101.619 24.4795 21.4082 108.482 21.4082 212.105V1223.39C21.4082 1327.02 101.619 1411.02 200.563 1411.02H1814.08C1913.03 1411.02 1993.24 1327.02 1993.24 1223.39V212.105C1993.24 108.482 1913.03 24.4795 1814.08 24.4795Z" fill="#ED5565"/>
<path d="M1352.11 843.713C1352.83 824.361 1357.64 805.417 1366.2 788.251L1390.7 743.705C1398.54 727.474 1398.54 708.31 1390.7 692.079L1365.63 646.352C1357.22 628.843 1352.6 609.602 1352.11 590.006V537.199C1351.07 519.073 1341.87 502.542 1327.32 492.653L1284.79 467.282C1269.1 456.907 1255.82 442.999 1245.91 426.571L1221.41 382.025C1211.97 366.794 1196.18 357.161 1178.87 356.064H1126.76C1108.29 355.25 1090.22 350.216 1073.8 341.314L1030.14 315.058C1014.64 306.856 996.343 306.856 980.844 315.058L938.591 341.019C922.223 350.087 904.133 355.226 885.633 356.064H836.901C819.593 357.161 803.808 366.794 794.366 382.025L769.013 427.751C759.048 444.13 745.78 458.026 730.14 468.462L686.76 495.013C672.247 505.028 663.148 521.676 662.253 539.854V590.891C661.559 610.246 656.747 629.194 648.168 646.352L623.661 690.899C615.829 707.13 615.829 726.294 623.661 742.525L648.732 788.251C657.321 805.422 662.224 824.351 663.098 843.713V896.519C664.145 914.646 673.343 931.177 687.887 941.066L730.422 966.436C746.102 976.819 759.381 990.726 769.295 1007.15L793.802 1051.69C803.245 1066.92 819.029 1076.56 836.337 1077.65H886.76C905.228 1078.47 923.303 1083.5 939.718 1092.4L983.38 1118.66C998.878 1126.86 1017.18 1126.86 1032.68 1118.66L1074.93 1092.7C1091.29 1083.62 1109.39 1078.48 1127.89 1077.65H1176.62C1193.93 1076.56 1209.71 1066.92 1219.15 1051.69L1244.22 1005.97C1254.19 989.588 1267.46 975.693 1283.1 965.256L1326.48 938.706C1340.99 928.69 1350.09 912.042 1350.99 893.864L1352.11 843.713Z" fill="#F6D660"/>
<path d="M1007.32 472.004C1136.45 472.004 1241.13 581.63 1241.13 716.86C1241.13 852.091 1136.45 961.717 1007.32 961.717C878.197 961.717 773.52 852.091 773.52 716.86C773.52 581.63 878.197 472.004 1007.32 472.004ZM1007.32 413.002C847.082 413.002 717.182 549.044 717.182 716.86C717.182 884.677 847.082 1020.72 1007.32 1020.72C1167.56 1020.72 1297.46 884.677 1297.46 716.86C1297.31 549.111 1167.5 413.165 1007.32 413.002Z" fill="#ED5565"/>
<path d="M1007.32 962.606C1136.45 962.606 1241.13 852.979 1241.13 717.749C1241.13 582.518 1136.45 472.892 1007.32 472.892C878.199 472.892 773.521 582.518 773.521 717.749C773.521 852.979 878.199 962.606 1007.32 962.606Z" fill="#F6D660"/>
<path d="M1063.1 602.113C1103.77 584.618 1147.31 575.599 1191.27 575.562H1197.47C1182.73 553.992 1164.75 535.063 1144.23 519.511C1096.37 525.416 1049.96 540.518 1007.33 564.057C964.697 540.518 918.287 525.416 870.425 519.511C849.907 535.063 831.928 553.992 817.186 575.562H823.383C867.348 575.599 910.884 584.618 951.552 602.113C877.448 661.302 825.754 746.063 805.637 841.365C818.434 864.314 834.702 884.938 853.806 902.432C862.048 792.404 918.817 692.697 1007.33 632.794C1095.84 692.697 1152.61 792.404 1160.85 902.432C1179.95 884.938 1196.22 864.314 1209.02 841.365C1188.9 746.063 1137.21 661.302 1063.1 602.113Z" fill="#ED5565"/>
</svg>
