<svg width="2000" height="1417" viewBox="0 0 2000 1417" fill="none" xmlns="http://www.w3.org/2000/svg">
<path d="M4.227 200.008V1211C4.26628 1234.86 8.66461 1258.49 17.1847 1280.62H1963.1C1971.62 1258.49 1976.02 1234.86 1976.06 1211V200.008C1976.02 176.147 1971.62 152.515 1963.1 130.386H16.9031C8.47929 152.535 4.1767 176.166 4.227 200.008Z" fill="#4758A9"/>
<path d="M1796.62 12.3868H183.381C110.06 12.3376 44.1098 59.084 16.9023 130.39H1962.82C1935.65 59.1839 1869.84 12.4583 1796.62 12.3868Z" fill="#ED5565"/>
<path d="M183.381 1398.92H1796.62C1869.94 1398.97 1935.89 1352.22 1963.1 1280.92H16.9023C44.1098 1352.22 110.06 1398.97 183.381 1398.92Z" fill="#ED5565"/>
<path d="M1494.65 999.48V955.524H1469.02V919.533H1445.35V888.262H1427.89V866.432H1411.55C1408.63 864.691 1405.97 862.504 1403.66 859.941L1398.88 745.478C1401.78 740.582 1405.99 736.685 1410.99 734.268V654.616C1403.88 657.882 1398.38 664.072 1395.78 671.726V630.72H1384.23V671.726H1380.28V657.271H1368.17V651.666H1380.28V640.75H1368.17V608.299C1368.17 602.989 1368.17 601.219 1363.1 602.399C1357.63 605.384 1353.34 610.294 1350.99 616.265C1350.25 618.542 1348.21 620.075 1345.92 620.075C1343.62 620.075 1341.58 618.542 1340.85 616.265C1340.85 599.154 1350.42 604.169 1350.42 589.419C1350.42 584.404 1346.2 586.174 1341.69 589.419C1337.19 592.664 1336.9 586.764 1336.9 580.864C1339.38 575.432 1341.45 569.811 1343.1 564.048C1343.1 557.853 1337.75 561.098 1334.65 564.048C1331.55 566.998 1329.3 566.113 1329.3 558.443C1329.3 550.773 1337.19 549.888 1337.19 542.217C1337.19 534.547 1333.52 538.972 1330.99 542.217C1328.45 545.463 1322.54 544.873 1323.66 542.217C1325.85 530.781 1322.48 518.952 1314.65 510.652C1310.95 508.139 1308.81 503.758 1309.02 499.146C1309.02 495.311 1309.02 492.951 1305.92 492.951C1302.82 492.951 1302.82 495.311 1302.82 499.146C1303.03 503.758 1300.88 508.139 1297.19 510.652C1289.36 518.952 1285.98 530.781 1288.17 542.217C1288.17 546.053 1283.1 546.938 1280.85 542.217C1278.59 537.497 1274.65 537.497 1274.65 542.217C1274.65 546.938 1282.54 550.183 1282.54 558.443C1282.54 566.703 1280.28 567.588 1277.19 564.048C1274.09 560.508 1268.73 557.263 1268.73 564.048C1270.39 569.811 1272.46 575.432 1274.93 580.864C1274.93 586.764 1274.93 592.959 1270.14 589.419C1265.35 585.879 1261.41 584.109 1261.41 589.419C1261.41 604.169 1270.99 599.154 1270.99 616.265C1270.25 618.542 1268.21 620.075 1265.92 620.075C1263.62 620.075 1261.58 618.542 1260.85 616.265C1258.49 610.294 1254.21 605.384 1248.73 602.399C1244.79 602.399 1243.66 602.399 1243.66 608.299V671.431H1223.66V662.876H1216.34V671.431H1114.93V616.855C1109.83 620.828 1105.44 625.723 1101.97 631.31H1083.66V619.51C1087.38 619.257 1090.6 616.702 1091.83 613.019C1091.83 611.544 1091.83 610.954 1090.14 613.019C1087.41 615.182 1083.84 615.84 1080.57 614.79C1080.57 614.79 1080.57 614.789 1082.54 611.249L1093.24 603.284C1094.06 602.374 1094.06 600.949 1093.24 600.039C1092.61 598.584 1091.05 597.832 1089.58 598.269L1080.85 604.759C1078.88 604.759 1076.34 608.004 1075.21 604.759C1073.72 600.639 1070.11 597.775 1065.92 597.384V595.614C1064.96 589.975 1067.15 584.257 1071.55 580.864C1075.77 577.609 1077.76 572.058 1076.62 566.703C1076.62 561.688 1072.68 558.148 1069.3 566.703C1065.92 575.258 1062.26 571.128 1062.26 568.768V559.623C1063.42 553.159 1066.83 547.377 1071.83 543.397C1075.05 541.799 1076.97 538.259 1076.62 534.547V525.107C1076.62 516.257 1067.04 521.272 1064.23 527.762C1061.41 534.252 1060 527.762 1060 525.697V515.667C1060 510.062 1067.61 507.701 1067.61 501.801V489.706C1067.61 479.971 1058.88 486.166 1057.47 489.706C1053.81 497.966 1050.71 494.426 1050.71 489.706C1050.11 485.158 1051.57 480.578 1054.65 477.316C1057.62 473.187 1058.75 467.921 1057.75 462.86C1057.75 452.24 1049.02 459.025 1047.04 462.86C1045.07 466.695 1041.69 468.17 1041.69 462.86C1043.56 456.848 1045.72 450.94 1048.17 445.16C1048.17 438.375 1043.66 439.26 1042.82 441.03C1041.97 442.8 1035.5 445.75 1035.5 441.03C1035.5 436.309 1038.31 435.129 1038.31 428.049C1044.23 428.049 1043.95 413.594 1038.31 413.594H1030.14C1034.37 413.594 1034.37 411.824 1030.14 407.989C1028.85 404.567 1025.43 402.587 1021.97 403.269C1026.2 403.269 1026.2 401.498 1021.97 397.663C1020.68 394.242 1017.26 392.262 1013.81 392.943H1010.99C1010.99 387.338 1010.99 373.473 1003.1 373.473C995.214 373.473 995.214 387.338 995.214 392.943H992.397C988.945 392.262 985.518 394.242 984.228 397.663C981.129 401.498 981.129 403.269 984.228 403.269C980.776 402.587 977.349 404.567 976.059 407.989C972.96 411.824 972.96 413.594 976.059 413.594H968.453C962.819 413.594 962.538 428.049 968.453 428.049C968.453 435.129 971.27 435.424 971.27 441.03C971.27 446.635 965.355 445.75 963.946 441.03C962.538 436.309 958.594 438.375 958.594 445.16C961.042 450.94 963.204 456.848 965.073 462.86C965.073 469.055 961.693 467.875 959.721 462.86C957.749 457.845 949.017 451.945 949.017 462.86C948.02 467.921 949.148 473.187 952.115 477.316C955.199 480.578 956.657 485.158 956.059 489.706C956.059 494.131 952.96 497.671 949.298 489.706C949.298 486.756 939.157 480.561 939.157 489.706V501.801C939.157 507.701 946.763 510.062 946.763 515.667V525.402C946.763 528.352 943.946 531.007 942.538 527.467C941.129 523.927 930.143 516.257 930.143 524.812V531.007C929.8 534.719 931.715 538.259 934.932 539.857C939.934 543.837 943.346 549.619 944.51 556.083V565.523C944.51 567.883 941.129 570.538 937.467 563.458C933.805 556.378 930.143 559.623 930.143 563.458C929.01 568.813 930.998 574.364 935.214 577.618C939.619 581.012 941.803 586.73 940.848 592.369V594.139C936.656 594.53 933.046 597.394 931.552 601.514C931.552 604.464 927.89 601.514 925.918 601.514L917.186 595.024C915.715 594.587 914.16 595.339 913.524 596.794C912.701 597.704 912.701 599.129 913.524 600.039L924.228 608.004C927.045 610.069 927.045 610.364 926.2 611.544C922.921 612.595 919.36 611.937 916.622 609.774C916.622 609.774 914.65 609.774 914.932 609.774C916.167 613.457 919.382 616.012 923.101 616.265V630.13H903.946C900.765 624.508 896.665 619.515 891.833 615.38V669.956H790.425V661.401H783.101V669.956H763.101V606.824C763.101 601.514 763.101 599.744 758.031 600.924C752.44 603.832 748.038 608.755 745.636 614.79C744.901 617.067 742.861 618.6 740.566 618.6C738.27 618.6 736.23 617.067 735.495 614.79C735.495 597.679 744.791 602.694 744.791 587.944C744.791 582.929 740.566 584.699 736.059 587.944C731.552 591.189 731.27 585.289 731.27 579.388C733.742 573.957 735.814 568.335 737.467 562.573C737.467 556.378 732.115 559.623 729.017 562.573C725.918 565.523 723.665 564.638 723.665 556.968C723.665 549.298 731.552 548.413 731.552 540.742C731.552 533.072 727.89 537.497 725.355 540.742C722.819 543.987 716.904 543.397 718.031 540.742C720.22 529.306 716.842 517.477 709.017 509.177C705.319 506.664 703.173 502.283 703.383 497.671C703.383 493.836 703.383 491.476 700.284 491.476C697.186 491.476 697.186 493.836 697.186 497.671C697.395 502.283 695.25 506.664 691.552 509.177C683.77 517.504 680.399 529.308 682.538 540.742C682.538 544.578 677.467 545.463 675.214 540.742C672.96 536.022 669.017 536.022 669.017 540.742C669.017 545.463 676.904 548.708 676.904 556.968C676.904 565.228 674.65 566.113 671.552 562.573C668.453 559.033 663.101 555.788 663.101 562.573C664.754 568.335 666.826 573.957 669.298 579.388C669.298 585.289 669.298 591.484 664.51 587.944C659.721 584.404 655.777 582.634 655.777 587.944C655.777 602.694 665.355 597.679 665.355 614.79C664.62 617.067 662.58 618.6 660.284 618.6C657.989 618.6 655.949 617.067 655.214 614.79C652.861 608.818 648.571 603.908 643.101 600.924C639.157 600.924 638.031 600.924 638.031 606.824V639.275H625.918V650.191H638.031V655.796H625.918V670.251H622.538V629.245H610.143V670.251C607.539 662.597 602.036 656.407 594.932 653.141V732.793C599.967 735.289 604.182 739.293 607.045 744.298L602.256 858.761C599.95 861.324 597.291 863.511 594.369 865.252H578.031V887.082H563.383V918.353H539.721V954.344H513.805V998.3H483.383V1043.44H1525.64V998.3H1494.93L1494.65 999.48Z" fill="white"/>
</svg>
