<svg width="2000" height="1417" viewBox="0 0 2000 1417" fill="none" xmlns="http://www.w3.org/2000/svg">
<mask id="mask0" mask-type="alpha" maskUnits="userSpaceOnUse" x="14" y="15" width="1973" height="1388">
<path d="M1807.32 15.6377H193.803C94.8588 15.6377 14.6484 99.6404 14.6484 203.263V1214.55C14.6484 1318.17 94.8588 1402.18 193.803 1402.18H1807.32C1906.27 1402.18 1986.48 1318.17 1986.48 1214.55V203.263C1986.48 99.6404 1906.27 15.6377 1807.32 15.6377Z" fill="white"/>
</mask>
<g mask="url(#mask0)">
<path d="M1807.32 15.6377H193.803C94.8588 15.6377 14.6484 99.6404 14.6484 203.263V1214.55C14.6484 1318.17 94.8588 1402.18 193.803 1402.18H1807.32C1906.27 1402.18 1986.48 1318.17 1986.48 1214.55V203.263C1986.48 99.6404 1906.27 15.6377 1807.32 15.6377Z" fill="white"/>
<path d="M2199.16 23.3027H-119.155V1367.66H2199.16V23.3027Z" fill="#ED5565"/>
<path d="M1040 372.014C1030.15 372.027 1020.7 367.88 1013.8 360.509L947.606 290.297L814.085 274.072C777.356 269.308 751.186 234.39 755.493 195.895C755.705 193.855 756.688 191.988 758.223 190.713C759.758 189.438 761.717 188.861 763.662 189.109L969.014 214.185C977.341 215.2 985.091 219.153 990.986 225.395L1040 277.612L1089.01 225.395C1094.91 219.153 1102.66 215.2 1110.99 214.185L1316.34 189.109C1318.28 188.861 1320.24 189.438 1321.78 190.713C1323.31 191.988 1324.3 193.855 1324.51 195.895C1328.81 234.39 1302.64 269.308 1265.92 274.072L1132.11 290.297L1065.92 360.509C1059.09 367.807 1049.76 371.948 1040 372.014Z" fill="#FFCE54"/>
<path d="M1040 984.445C1168.19 984.445 1272.11 874.027 1272.11 737.818C1272.11 601.61 1168.19 491.191 1040 491.191C911.809 491.191 807.889 601.61 807.889 737.818C807.889 874.027 911.809 984.445 1040 984.445Z" fill="#FFCE54"/>
<path d="M2199.16 813.926H-119.155V1411.32H2199.16V813.926Z" fill="#4758A9"/>
<path d="M-119.155 1191.84C-41.9717 1191.84 35.4931 1244.65 112.676 1244.65C189.859 1244.65 267.324 1191.84 344.507 1191.84C421.69 1191.84 499.155 1244.65 576.338 1244.65C653.521 1244.65 730.986 1191.84 808.169 1191.84C885.352 1191.84 962.817 1244.65 1040 1244.65C1117.18 1244.65 1194.65 1191.84 1271.83 1191.84C1349.01 1191.84 1426.48 1244.65 1503.66 1244.65C1580.85 1244.65 1658.31 1191.84 1735.49 1191.84C1812.68 1191.84 1890.14 1244.65 1967.32 1244.65C2044.51 1244.65 2121.97 1191.84 2199.15 1191.84V1103.34C2121.97 1103.34 2044.51 1156.15 1967.32 1156.15C1890.14 1156.15 1812.68 1103.34 1735.49 1103.34C1658.31 1103.34 1580.85 1156.15 1503.66 1156.15C1426.48 1156.15 1349.01 1103.34 1271.83 1103.34C1194.65 1103.34 1117.18 1156.15 1040 1156.15C962.817 1156.15 885.352 1103.34 808.169 1103.34C730.986 1103.34 653.521 1156.15 576.338 1156.15C499.155 1156.15 421.69 1103.34 344.507 1103.34C267.324 1103.34 189.859 1156.15 112.676 1156.15C35.4931 1156.15 -41.9717 1103.34 -119.155 1103.34V1191.84Z" fill="white"/>
<path d="M-119.155 1016.01C-41.9717 1016.01 35.4931 1068.82 112.676 1068.82C189.859 1068.82 267.324 1016.01 344.507 1016.01C421.69 1016.01 499.155 1068.82 576.338 1068.82C653.521 1068.82 730.986 1016.01 808.169 1016.01C885.352 1016.01 962.817 1068.82 1040 1068.82C1117.18 1068.82 1194.65 1016.01 1271.83 1016.01C1349.01 1016.01 1426.48 1068.82 1503.66 1068.82C1580.85 1068.82 1658.31 1016.01 1735.49 1016.01C1812.68 1016.01 1890.14 1068.82 1967.32 1068.82C2044.51 1068.82 2121.97 1016.01 2199.15 1016.01V927.511C2121.97 927.511 2044.51 980.317 1967.32 980.317C1890.14 980.317 1812.68 927.511 1735.49 927.511C1658.31 927.511 1580.85 980.317 1503.66 980.317C1426.48 980.317 1349.01 927.511 1271.83 927.511C1194.65 927.511 1117.18 980.317 1040 980.317C962.817 980.317 885.352 927.511 808.169 927.511C730.986 927.511 653.521 980.317 576.338 980.317C499.155 980.317 421.69 927.511 344.507 927.511C267.324 927.511 189.859 980.317 112.676 980.317C35.4931 980.317 -41.9717 927.511 -119.155 927.511V1016.01Z" fill="white"/>
<path d="M-119.155 840.185C-41.9717 840.185 35.4931 892.992 112.676 892.992C189.859 892.992 267.324 840.185 344.507 840.185C421.69 840.185 499.155 892.992 576.338 892.992C653.521 892.992 730.986 840.185 808.169 840.185C885.352 840.185 962.817 892.992 1040 892.992C1117.18 892.992 1194.65 840.185 1271.83 840.185C1349.01 840.185 1426.48 892.992 1503.66 892.992C1580.85 892.992 1658.31 840.185 1735.49 840.185C1812.68 840.185 1890.14 892.992 1967.32 892.992C2044.51 892.992 2121.97 840.185 2199.15 840.185V751.683C2121.97 751.683 2044.51 804.489 1967.32 804.489C1890.14 804.489 1812.68 751.683 1735.49 751.683C1658.31 751.683 1580.85 804.489 1503.66 804.489C1426.48 804.489 1349.01 751.683 1271.83 751.683C1194.65 751.683 1117.18 804.489 1040 804.489C962.817 804.489 885.352 751.683 808.169 751.683C730.986 751.683 653.521 804.489 576.338 804.489C499.155 804.489 421.69 751.683 344.507 751.683C267.324 751.683 189.859 804.489 112.676 804.489C35.4931 804.489 -41.9717 751.683 -119.155 751.683V840.185Z" fill="white"/>
</g>
</svg>
