<svg width="2000" height="1417" viewBox="0 0 2000 1417" fill="none" xmlns="http://www.w3.org/2000/svg">
<path d="M1803.67 20.6543H190.147C91.2026 20.6543 10.9922 104.657 10.9922 208.28V1219.57C10.9922 1323.19 91.2026 1407.19 190.147 1407.19H1803.67C1902.61 1407.19 1982.82 1323.19 1982.82 1219.57V208.28C1982.82 104.657 1902.61 20.6543 1803.67 20.6543Z" fill="#ED5565"/>
<path d="M1823.39 21.8481C1816.82 21.4725 1810.24 21.4725 1803.67 21.8481H190.147C91.2026 21.8481 10.9922 105.851 10.9922 209.473V1220.47L799.725 877.077L1823.39 21.8481Z" fill="#57A863"/>
<path d="M1982.82 208.293C1982.68 108.908 1908.56 26.8833 1813.81 21.2578L10.9922 1222.53C12.5308 1325 92.2923 1407.22 190.147 1407.21H206.203L1982.82 224.224V208.293Z" fill="#434A54"/>
<path d="M1979.72 173.769L139.16 1399.23C155.7 1404.45 172.873 1407.13 190.146 1407.2H284.794L1982.82 276.726V208.58C1982.82 196.9 1981.79 185.246 1979.72 173.769Z" fill="#FFCE54"/>
<path d="M17.7493 1270.31L1872.68 35.1103C1850.73 25.5068 1827.17 20.5922 1803.38 20.6549H1736.9L10.707 1171.19V1220.45C10.9028 1237.33 13.2716 1254.1 17.7493 1270.31Z" fill="#FFCE54"/>
<path d="M867.89 902.736C864.228 910.701 859.439 910.406 857.185 902.736L848.735 870.875C845.72 861.654 838.551 854.588 829.58 851.994L801.411 845.799C793.242 844.029 792.397 839.014 799.439 834.294L826.2 817.183C833.702 811.833 837.463 802.334 835.777 792.993L827.89 757.297C825.918 748.741 829.58 746.381 836.059 751.987L862.256 776.177C869.343 781.984 878.982 783.017 887.045 778.832L915.214 762.607C922.538 758.182 926.199 762.607 923.383 769.982L912.96 802.138C910.355 811.462 912.599 821.535 918.876 828.689L938.594 849.339C944.791 855.535 942.537 860.55 934.368 859.96H904.228C895.154 860.219 886.942 865.651 882.819 874.12L867.89 902.736Z" fill="white"/>
<path d="M1126.77 727.202C1123.11 735.167 1118.32 734.872 1116.06 727.202L1107.33 695.341C1104.32 686.12 1097.15 679.053 1088.18 676.46L1060.01 670.265C1051.84 668.495 1051.27 663.48 1058.32 658.76L1084.8 641.649C1092.25 636.273 1095.91 626.746 1094.09 617.459L1086.49 581.763C1084.51 573.207 1087.89 570.847 1094.37 576.452L1120.85 600.643C1127.94 606.45 1137.58 607.482 1145.64 603.298L1173.81 587.073C1181.13 582.943 1185.08 587.073 1182.26 594.448L1171.56 626.604C1168.95 635.928 1171.19 646.001 1177.47 653.155L1197.19 673.805C1203.39 680 1201.13 685.015 1192.96 684.425H1162.82C1153.75 684.685 1145.54 690.117 1141.41 698.586L1126.77 727.202Z" fill="white"/>
</svg>
