<svg width="2000" height="1417" viewBox="0 0 2000 1417" fill="none" xmlns="http://www.w3.org/2000/svg">
<path d="M1785.07 2.94238H187.328C84.0278 2.94238 0.286133 90.6433 0.286133 198.828V1193.6C0.286133 1301.78 84.0278 1389.48 187.328 1389.48H1785.07C1888.38 1389.48 1972.12 1301.78 1972.12 1193.6V198.828C1972.12 90.6433 1888.38 2.94238 1785.07 2.94238Z" fill="white"/>
<path d="M292.676 423.624L476.056 135.696L521.971 167.557L338.591 455.485L292.676 423.624Z" fill="#434A54"/>
<path d="M1438.87 167.557L1484.79 135.696L1569.3 267.565L1523.38 299.426L1438.87 167.557Z" fill="#434A54"/>
<path d="M361.405 472.009C422.438 376.033 483.565 280.057 544.786 184.081L590.419 215.942L407.039 503.87L361.405 472.009Z" fill="#434A54"/>
<path d="M1369.86 216.238C1384.79 204.733 1400.56 194.702 1415.77 183.787C1476.81 279.763 1537.93 375.739 1599.16 471.715L1553.24 503.576C1492.96 407.698 1431.55 311.526 1369.86 216.238Z" fill="#434A54"/>
<path d="M613.521 231.569L659.436 263.43L476.056 551.358L430.141 519.498L613.521 231.569Z" fill="#434A54"/>
<path d="M1301.12 263.724L1347.04 231.863L1431.55 364.027L1385.91 395.888C1357.18 351.637 1329.29 307.68 1301.12 263.724Z" fill="#434A54"/>
<path d="M1538.03 324.496C1553.24 313.875 1568.17 303.255 1583.38 292.93L1667.89 424.208L1621.97 456.069L1538.03 324.496Z" fill="#434A54"/>
<path d="M1400.57 419.501L1446.48 387.64L1530.99 519.508L1485.07 551.664L1400.57 419.501Z" fill="#434A54"/>
<path d="M430.141 871.738L476.056 839.877L659.436 1127.81L613.521 1159.96L430.141 871.738Z" fill="#434A54"/>
<path d="M1484.51 839.583L1530.42 871.444L1445.92 1003.31L1400 971.452L1484.51 839.583Z" fill="#434A54"/>
<path d="M361.405 919.535L407.321 887.674L491.828 1019.54L445.912 1051.4L361.405 919.535Z" fill="#434A54"/>
<path d="M1553.24 887.674L1599.15 919.535L1514.65 1051.4L1468.73 1019.25L1553.24 887.674Z" fill="#434A54"/>
<path d="M292.676 967.625L338.591 935.764L521.971 1223.69L476.056 1255.85L292.676 967.625Z" fill="#434A54"/>
<path d="M1621.97 935.764C1637.46 946.089 1652.68 957.004 1667.89 967.625L1583.38 1099.49L1537.46 1067.34L1621.97 935.764Z" fill="#434A54"/>
<path d="M1385.35 995.639L1431.27 1027.5L1346.76 1159.37L1300.84 1127.51L1385.35 995.639Z" fill="#434A54"/>
<path d="M460.847 1075.89L506.48 1043.73C534.649 1087.39 562.818 1132.23 590.987 1175.6L545.072 1207.75L460.847 1075.89Z" fill="#434A54"/>
<path d="M1369.86 1175.6C1398.03 1131.64 1426.2 1087.1 1454.37 1043.73C1469.58 1054.64 1485.07 1064.97 1500 1075.89L1415.49 1207.75L1369.86 1175.6Z" fill="#434A54"/>
<path d="M1522.54 1091.53C1538.03 1101.85 1553.24 1112.77 1568.45 1123.39L1483.95 1255.26L1438.03 1223.1L1522.54 1091.53Z" fill="#434A54"/>
<path d="M812.961 397.078C913.559 335.13 1037.9 333.35 1140.07 392.395C1242.25 451.44 1307.11 562.553 1310.71 684.711C1312.9 752.586 1295.85 819.62 1261.69 877.352C1297.82 811.004 1288.17 727.708 1237.95 672.328C1187.73 616.948 1108.8 602.563 1043.67 636.92C1018.09 650.502 996.339 670.84 980.567 695.922C940.022 759.884 864.104 788.252 794.056 765.617C724.007 742.981 676.551 674.746 677.468 597.979C677.99 571.715 683.848 545.87 694.651 522.162C723.048 470.416 763.823 427.307 812.961 397.078Z" fill="#EC5565"/>
<path d="M649.859 684.416C651.445 626.916 666.954 570.78 694.93 521.276C684.126 544.984 678.269 570.83 677.747 597.093C676.83 673.861 724.286 742.096 794.334 764.731C864.383 787.367 940.3 758.998 980.845 695.036C1020.67 633.181 1093.85 604.995 1162.46 625.083C1231.07 645.172 1279.68 709.019 1283.1 783.539C1284.71 816.689 1277.29 849.635 1261.69 878.531C1226.65 938.552 1174.82 985.827 1113.24 1013.94C1009.25 1061.71 889.123 1050.27 795.071 983.625C701.019 916.981 646.194 804.46 649.859 685.596V684.416Z" fill="#4658A9"/>
</svg>
