<svg width="2000" height="1417" viewBox="0 0 2000 1417" fill="none" xmlns="http://www.w3.org/2000/svg">
<path d="M1807.32 23.8906H193.803C94.8588 23.8906 14.6484 107.893 14.6484 211.516V1222.8C14.6484 1326.43 94.8588 1410.43 193.803 1410.43H1807.32C1906.27 1410.43 1986.48 1326.43 1986.48 1222.8V211.516C1986.48 107.893 1906.27 23.8906 1807.32 23.8906Z" fill="#4A89DC"/>
<path d="M961.692 533.076C962.445 531.932 963.767 531.355 965.073 531.601C968.827 532.271 972.334 534.005 975.213 536.616C979.247 540.929 982.835 545.675 985.918 550.776C985.918 552.841 989.016 555.791 985.918 556.086C982.882 556.606 979.938 557.601 977.185 559.037C975.877 561.41 975.877 564.334 977.185 566.707C979.928 570.493 983.504 573.529 987.608 575.557C989.861 575.557 995.777 578.802 997.185 578.802C999.599 578.881 1001.77 580.359 1002.82 582.637C1002.81 585.728 1004.3 588.613 1006.76 590.307C1009.02 590.307 1014.37 585.882 1017.75 585.882C1022.68 585.842 1027.6 586.437 1032.4 587.652C1034.85 589.239 1036.97 591.35 1038.59 593.847C1038.59 595.323 1040.85 596.503 1042.54 593.847C1045.33 591.331 1049.13 590.445 1052.68 591.487C1054.47 593.819 1056.8 595.645 1059.44 596.798C1061.13 596.798 1065.07 600.633 1066.2 600.633C1068.54 602.106 1069.86 604.866 1069.58 607.713C1069.61 612.699 1070.27 617.66 1071.55 622.463C1072.97 624.415 1073.76 626.793 1073.8 629.249C1073.92 634.335 1075.49 639.269 1078.31 643.409C1081.47 643.57 1084.61 642.749 1087.33 641.049C1089.35 641.457 1091.21 642.483 1092.68 643.999C1095.2 646.961 1097.03 650.495 1098.03 654.324C1097.7 660.022 1097.7 665.736 1098.03 671.435C1099.14 676.73 1101.04 681.808 1103.66 686.48C1105.2 688.724 1107.23 690.546 1109.58 691.79C1111.16 689.85 1113.36 688.589 1115.78 688.25C1119.18 688.327 1122.54 689.13 1125.64 690.61L1130.42 696.51C1131.82 697.888 1133.44 698.988 1135.21 699.756C1137.6 700.89 1140.04 701.875 1142.54 702.706C1145.35 703.093 1148.1 703.887 1150.71 705.066C1152.99 705.72 1154.92 707.317 1156.06 709.491C1153.99 713.032 1153.01 717.149 1153.24 721.291C1153.25 727.642 1152.59 733.974 1151.27 740.172C1149.84 741.803 1148.95 743.871 1148.73 746.072C1147.93 748.761 1147.93 751.643 1148.73 754.332C1150.45 754.134 1152.18 754.665 1153.52 755.807C1153.66 757.008 1154.42 758.031 1155.5 758.462C1156.4 758.501 1157.21 757.894 1157.47 756.987C1157.65 755.712 1158.53 754.67 1159.72 754.332C1161.35 754.212 1162.96 754.739 1164.23 755.807C1165.32 757.372 1167.22 758.075 1169.02 757.577C1171.55 757.577 1180.28 761.412 1185.64 761.412C1192.36 761.227 1199.08 761.92 1205.64 763.477C1205.84 765.351 1206.42 767.16 1207.33 768.787C1209.03 770.617 1211.17 771.941 1213.52 772.623C1215.89 772.516 1218.21 773.36 1220 774.983C1220.3 777.453 1221.39 779.743 1223.1 781.473C1225.4 783.108 1228.41 783.108 1230.71 781.473C1230.66 779.532 1231.64 777.723 1233.24 776.753C1234.78 776.89 1236.31 776.356 1237.47 775.278C1238.82 773.407 1240.87 772.227 1243.1 772.033C1246.2 772.033 1250.42 777.048 1250.99 775.868C1252.19 774.264 1254.14 773.473 1256.06 773.803C1258.26 775.179 1260.1 777.105 1261.41 779.408C1261.67 781.836 1262.24 784.217 1263.1 786.488C1264.16 789.538 1264.16 792.878 1263.1 795.928C1260.72 798.522 1259.14 801.815 1258.59 805.368C1258.76 809.373 1257.88 813.35 1256.06 816.874C1253.43 817.985 1251.74 820.694 1251.83 823.659C1251.74 829.375 1250.49 835.006 1248.17 840.179C1245.07 843.216 1242.66 846.947 1241.13 851.095C1241.06 854.696 1240.19 858.23 1238.59 861.42C1236.56 863.148 1234.84 865.247 1233.52 867.615C1233.17 869.662 1232.18 871.529 1230.71 872.925C1229.02 872.925 1223.38 876.761 1222.54 877.941C1221.09 879.863 1219.38 881.552 1217.47 882.956C1217.47 882.956 1215.5 882.956 1217.47 885.021C1219.76 887.934 1221.05 891.571 1221.13 895.346C1221.21 901.696 1219.33 907.903 1215.78 913.047C1211.33 914.088 1206.99 915.57 1202.82 917.472C1200.63 920.044 1198.06 922.235 1195.21 923.962C1192.28 925.866 1190.09 928.791 1189.02 932.222C1189.76 937.213 1191.38 942.014 1193.81 946.383C1198.72 950.111 1203.17 954.472 1207.04 959.363C1205.98 963.992 1203.12 967.948 1199.16 970.278H1187.61C1183.54 971.39 1179.28 971.39 1175.21 970.278C1175.33 968.545 1174.59 966.871 1173.24 965.853C1171.21 965.968 1169.26 966.684 1167.61 967.918C1165.64 970.139 1163.36 972.029 1160.85 973.523C1157.77 974.935 1154.56 976.022 1151.27 976.768C1148.55 976.727 1145.85 977.332 1143.38 978.538C1142.94 979.989 1141.73 981.03 1140.28 981.193C1137.38 981.303 1134.56 982.219 1132.11 983.849C1132.11 985.324 1128.73 991.224 1127.61 992.404C1125.56 994.699 1124.19 997.569 1123.66 1000.66C1123.66 1003.32 1118.59 1010.4 1118.03 1014.23C1118.91 1018.11 1120.75 1021.68 1123.38 1024.56C1120.89 1027.26 1117.38 1028.66 1113.81 1028.39C1107.46 1028.71 1101.12 1027.6 1095.21 1025.15C1095.49 1021.12 1095.49 1017.08 1095.21 1013.05C1094.47 1009.22 1093.14 1005.53 1091.27 1002.14C1089.97 1001.91 1088.96 1000.84 1088.73 999.484C1088.68 997.545 1087.42 995.87 1085.64 995.354L1079.16 991.814C1077.53 991.804 1076.08 990.75 1075.5 989.159C1074.66 986.346 1072.36 984.282 1069.58 983.849C1065.63 983.682 1061.7 984.385 1058.03 985.914C1057.76 987.815 1057.08 989.628 1056.06 991.224C1054.43 993.01 1052.4 994.33 1050.14 995.059C1047.54 995.137 1045.01 995.952 1042.82 997.419C1040.92 999.769 1038.35 1001.42 1035.5 1002.14C1032.12 1002.2 1028.78 1002.9 1025.64 1004.2C1024.2 1005.73 1023.05 1007.53 1022.26 1009.51C1021.87 1011.27 1020.56 1012.65 1018.88 1013.05C1016.9 1013.05 1013.24 1017.18 1011.83 1017.18C1009.24 1017.28 1006.71 1018.09 1004.51 1019.54C1002.21 1021.97 999.262 1023.61 996.059 1024.26C991.043 1024.41 986.049 1025.01 981.129 1026.03C976.888 1027.24 972.816 1029.03 969.016 1031.34C966.76 1033.73 964.945 1036.53 963.664 1039.61C963.701 1042.08 963.118 1044.52 961.974 1046.69C960.499 1047.18 959.483 1048.6 959.439 1050.23C959.394 1053.23 958.618 1056.18 957.185 1058.78C954.518 1062.45 952.949 1066.86 952.678 1071.47C952.61 1078.13 953.367 1084.77 954.932 1091.23C957.549 1094.59 959.122 1098.71 959.439 1103.03C959.56 1108.87 959.088 1114.7 958.03 1120.44C956.482 1121.9 954.659 1123 952.678 1123.68C951.138 1123.71 949.735 1124.62 949.016 1126.04C948.926 1128.03 948.343 1129.96 947.326 1131.65C944.625 1133.45 941.514 1134.47 938.312 1134.6C932.938 1134.64 927.643 1135.95 922.819 1138.43C920.071 1141.73 916.587 1144.26 912.678 1145.81C909.356 1145.85 906.138 1144.59 903.664 1142.27C902.302 1137.45 901.359 1132.51 900.847 1127.52C900.785 1120.38 901.93 1113.29 904.227 1106.57C907.209 1103.54 909.6 1099.94 911.27 1095.95C911.765 1093.22 911.765 1090.42 911.27 1087.69C909.593 1083.6 908.822 1079.16 909.016 1074.71C909.167 1066.76 908.315 1058.83 906.481 1051.11C904.413 1050.85 902.783 1049.15 902.537 1046.98C900.551 1042.62 898.949 1038.08 897.749 1033.41C897.85 1026.86 897.188 1020.32 895.777 1013.94C893.726 1011.9 892.18 1009.37 891.27 1006.56C891.27 1004.5 887.044 1000.37 887.044 998.894C886.751 995.58 886.089 992.312 885.073 989.159C885.646 985.941 885.646 982.641 885.073 979.423C882.192 976.601 879.639 973.432 877.467 969.983C876.828 967.812 875.269 966.071 873.242 965.263L862.819 960.838C862.819 960.838 857.467 958.478 856.904 957.888C855.662 956.739 854.23 955.839 852.678 955.233C852.678 955.233 847.608 952.578 846.481 952.578C843.947 951.1 842.036 948.678 841.129 945.793C841.129 941.957 838.875 931.042 838.03 929.862C834.39 927.807 830.334 926.695 826.199 926.617H807.044C804.976 925.676 803.072 924.379 801.411 922.782C799.276 919.972 797.913 916.607 797.467 913.047C797.359 907.658 796.602 902.306 795.213 897.116C793.475 894.099 791.968 890.942 790.706 887.676C790.63 886.303 790.019 885.023 789.016 884.136C787.828 883.882 786.861 882.982 786.481 881.776C786.732 879.226 786.732 876.655 786.481 874.105C785.647 870.794 783.759 867.881 781.129 865.845C778.691 865.845 776.319 865.017 774.368 863.485C774.298 861.583 773.711 859.741 772.678 858.175C771.027 856.638 769.116 855.437 767.044 854.635C765.504 854.606 764.101 853.702 763.382 852.275C763.175 850.081 762.502 847.965 761.411 846.08C760.093 844.136 760.093 841.533 761.411 839.589C764.096 838.505 765.88 835.818 765.918 832.804C765.768 826.934 765.012 821.099 763.664 815.399C761.726 812.185 759.56 809.128 757.185 806.254C756.134 804.932 754.776 803.916 753.242 803.303C751.633 803.07 750.093 802.465 748.735 801.533C747.264 799.856 746.201 797.832 745.636 795.633C745.492 792.516 744.922 789.436 743.946 786.488C742.547 781.982 741.603 777.335 741.129 772.623C741.261 768.08 742.117 763.593 743.664 759.347L748.453 753.742C750.482 751.418 752.985 749.603 755.777 748.432C758.553 748.516 761.265 749.327 763.664 750.792C765.224 752.863 767.259 754.487 769.58 755.512C771.258 755.247 772.89 756.224 773.523 757.872C776.388 761.353 780.714 763.12 785.073 762.592C792.889 762.791 800.659 761.284 807.889 758.167C809.523 754.427 810.934 750.585 812.115 746.662C811.881 741.698 813.497 736.832 816.622 733.091C819.817 732.21 822.928 731.025 825.918 729.551C827.678 729.101 829.01 727.59 829.298 725.716C829.627 722.376 831.854 719.578 834.932 718.636C838.958 718.644 842.957 717.946 846.763 716.571C847.722 715.169 849.371 714.478 850.988 714.801C852.65 716.228 854.756 716.964 856.904 716.866C859.112 714.395 861.678 712.304 864.509 710.671C866.481 710.671 872.115 705.361 874.368 704.181C877.176 702.891 879.536 700.728 881.129 697.985C879.44 695.822 878.02 693.443 876.904 690.905C874.566 687.127 872.675 683.065 871.27 678.81C871.299 674.32 872.261 669.891 874.087 665.83C876.455 663.372 879.221 661.374 882.256 659.929C885.995 658.942 889.404 656.901 892.115 654.029C895.968 650.075 899.546 645.835 902.819 641.344C902.819 639.796 903.708 638.399 905.073 637.804C907.002 637.973 908.852 638.686 910.425 639.869C912.369 640.919 914.678 640.919 916.622 639.869C917.979 638.272 919.116 636.485 920.002 634.559C920.002 634.559 920.002 628.953 920.002 625.708C920.872 620.571 922.69 615.661 925.354 611.253C927.511 608.667 928.255 605.106 927.326 601.813C924.279 597.927 921.547 593.783 919.157 589.422C916.545 584.49 913.219 580.012 909.298 576.147C907.365 575.69 905.779 574.251 905.073 572.312C905.073 570.542 901.974 564.937 901.692 562.577C902.549 557.944 906.221 554.46 910.706 554.021C916.955 554.006 923.185 553.313 929.298 551.956C930.734 550.268 932.452 548.868 934.368 547.826C937.838 545.648 941.521 543.868 945.354 542.516C948.582 542.464 951.758 541.657 954.65 540.156C956.234 538.111 958.263 536.493 960.565 535.436C961.099 534.743 961.483 533.938 961.692 533.076Z" fill="#F6D660"/>
<path d="M1305.35 333.352C1299.72 315.061 1290.42 315.061 1284.79 333.352C1277.87 352.878 1260.43 366.14 1240.56 366.983C1221.97 366.983 1219.15 376.128 1234.36 387.633C1249.97 400.474 1256.65 421.906 1251.27 441.915C1245.35 460.205 1252.96 465.81 1268.17 454.305C1284.74 442.842 1306.24 442.842 1322.81 454.305C1337.74 465.81 1345.07 459.91 1339.43 441.325C1334.05 421.316 1340.73 399.884 1356.34 387.043C1371.55 375.833 1368.45 366.688 1349.58 366.688C1329.78 365.893 1312.35 352.762 1305.35 333.352ZM1111.55 303.851C1105.91 285.56 1096.62 285.56 1090.98 303.851C1084.07 323.377 1066.63 336.639 1046.76 337.482C1028.17 337.482 1025.35 346.627 1040.56 358.132C1056.17 370.973 1062.84 392.405 1057.46 412.414C1051.55 430.704 1059.15 436.31 1074.36 424.804C1090.94 413.341 1112.44 413.341 1129.01 424.804C1143.94 436.31 1151.27 430.409 1145.63 411.824C1140.25 391.815 1146.92 370.383 1162.53 357.542C1177.74 346.332 1174.65 337.187 1155.77 337.187C1135.83 336.297 1118.37 322.903 1111.55 303.261V303.851ZM497.744 396.188C503.378 377.898 512.674 377.898 518.307 396.188C525.223 415.714 542.663 428.977 562.533 429.819C581.124 429.819 583.66 438.965 568.448 450.47C552.839 463.311 546.166 484.743 551.547 504.752C557.462 523.042 549.857 528.647 534.645 517.142C518.096 505.6 496.547 505.6 479.998 517.142C465.068 528.647 457.744 522.747 463.378 504.161C468.758 484.153 462.085 462.721 446.476 449.88C431.265 438.67 434.364 429.524 453.237 429.524C473.106 428.682 490.547 415.419 497.462 395.893L497.744 396.188ZM694.927 334.237C700.561 315.946 709.857 315.946 715.491 334.237C722.406 353.763 739.846 367.025 759.716 367.868C778.307 367.868 781.124 377.013 765.913 388.518C750.304 401.359 743.631 422.791 749.012 442.8C754.927 461.09 747.322 466.695 732.11 455.19C715.539 443.727 694.034 443.727 677.462 455.19C662.533 466.695 655.209 460.795 660.843 442.21C666.223 422.201 659.55 400.769 643.941 387.928C628.73 376.718 631.829 367.573 650.702 367.573C670.571 366.73 688.012 353.468 694.927 333.942V334.237ZM888.73 304.736C894.364 286.445 903.66 286.445 909.293 304.736C916.209 324.262 933.649 337.524 953.519 338.367C972.11 338.367 974.646 347.512 959.434 359.017C943.825 371.858 937.152 393.29 942.533 413.299C948.448 431.589 940.843 437.195 925.631 425.689C909.06 414.226 887.555 414.226 870.983 425.689C856.054 437.195 848.73 431.294 854.364 412.709C859.744 392.7 853.071 371.268 837.462 358.427C822.251 347.217 825.35 338.072 844.223 338.072C864.092 337.229 881.533 323.967 888.448 304.441L888.73 304.736ZM1502.53 397.073C1496.9 378.783 1487.6 378.783 1481.97 397.073C1475.05 416.599 1457.61 429.862 1437.74 430.704C1419.15 430.704 1416.62 439.85 1431.83 451.355C1447.44 464.196 1454.11 485.628 1448.73 505.636C1442.81 523.927 1450.42 529.532 1465.63 518.027C1482.18 506.485 1503.73 506.485 1520.28 518.027C1535.21 529.532 1542.53 523.632 1536.9 505.047C1531.52 485.038 1538.19 463.606 1553.8 450.765C1569.01 439.555 1565.91 430.409 1547.04 430.409C1527.17 429.567 1509.73 416.304 1502.81 396.778L1502.53 397.073Z" fill="white"/>
</svg>
