<svg width="2000" height="1417" viewBox="0 0 2000 1417" fill="none" xmlns="http://www.w3.org/2000/svg">
<path d="M1976.06 486.175H4.22754V948.453H1976.06V486.175Z" fill="#ED5565"/>
<path d="M1796.62 23.8909H183.382C84.4379 23.8909 4.22754 107.894 4.22754 211.516V485.874H1976.06V211.516C1976.06 161.704 1957.14 113.936 1923.49 78.7406C1889.83 43.5456 1844.19 23.8125 1796.62 23.8909Z" fill="#57A863"/>
<path d="M4.2231 1222.8C4.2231 1326.42 84.4335 1410.43 183.378 1410.43H1796.62C1895.56 1410.43 1975.77 1326.42 1975.77 1222.8V948.444H3.94141L4.2231 1222.8Z" fill="white"/>
<path d="M821.129 486.167L73.805 63.4199C30.1345 98.7209 4.46025 153.15 4.22758 210.924V1221.92C4.19755 1271.17 22.7213 1318.45 55.7769 1353.49L821.129 947.56V486.167Z" fill="#434A54"/>
</svg>
