<svg width="2000" height="1417" viewBox="0 0 2000 1417" fill="none" xmlns="http://www.w3.org/2000/svg">
<path d="M7.88916 198.828V464.336H1979.72V198.828C1979.72 90.6435 1895.98 2.94261 1792.68 2.94261H195.213C145.558 2.86429 97.9103 23.4676 62.7721 60.2117C27.634 96.9559 7.88911 146.825 7.88916 198.828Z" fill="#ED5565"/>
<path d="M7.88916 927.505H1979.72V465.227H7.88916V927.505Z" fill="#4758A9"/>
<path d="M7.88916 1193.3C7.88916 1245.25 27.5953 1295.07 62.6726 1331.81C97.7498 1368.55 145.325 1389.18 194.931 1389.18H1792.68C1895.98 1389.18 1979.72 1301.48 1979.72 1193.3V927.791H7.88916V1193.3Z" fill="#ED5565"/>
<path d="M993.807 814.216C1056.04 814.216 1106.48 761.384 1106.48 696.212C1106.48 631.041 1056.04 578.209 993.807 578.209C931.578 578.209 881.131 631.041 881.131 696.212C881.131 761.384 931.578 814.216 993.807 814.216Z" fill="white"/>
</svg>
