<svg width="2000" height="1417" viewBox="0 0 2000 1417" fill="none" xmlns="http://www.w3.org/2000/svg">
<path d="M1986.49 238.954H14.6553V1153.48H1986.49V238.954Z" fill="white"/>
<path d="M1807.34 2.94262H194.096C95.1513 2.94262 14.9409 86.9452 14.9409 190.568V238.949H1986.77V190.568C1986.77 140.755 1967.86 92.9874 1934.2 57.7923C1900.54 22.5973 1854.9 2.86429 1807.34 2.94262Z" fill="#ED5565"/>
<path d="M14.6508 1201.56C14.6508 1305.18 94.8612 1389.19 193.806 1389.19H1807.05C1905.99 1389.19 1986.2 1305.18 1986.2 1201.56V1153.18H14.3691L14.6508 1201.56Z" fill="#ED5565"/>
<path d="M1213.81 923.952C1217.9 924.695 1222.01 922.751 1224.18 919.045C1226.35 915.34 1226.15 910.622 1223.66 907.137L1147.05 759.633C1144.56 756.148 1144.36 751.43 1146.53 747.724C1148.7 744.019 1152.81 742.075 1156.9 742.817H1174.93C1185.07 742.817 1189.02 735.737 1183.38 727.182L1085.07 576.433C1079.44 567.877 1083.1 560.797 1093.52 560.797H1111.55C1121.69 560.797 1125.36 554.012 1119.44 545.457L1013.52 393.823C1011.23 389.848 1007.11 387.42 1002.68 387.42C998.243 387.42 994.13 389.848 991.834 393.823L882.538 545.752C876.623 554.012 880.003 561.092 890.144 561.092H907.89C918.031 561.092 921.975 568.172 916.341 576.728L818.031 727.477C812.397 736.032 816.059 743.112 826.482 743.112H845.073C849.164 742.37 853.274 744.314 855.447 748.019C857.619 751.725 857.415 756.443 854.933 759.928L778.031 907.432C775.548 910.917 775.345 915.635 777.517 919.34C779.69 923.046 783.799 924.99 787.89 924.247H952.679C957.535 924.168 962.222 926.114 965.709 929.654C969.196 933.195 971.196 938.042 971.271 943.128V987.084C971.345 992.17 973.345 997.017 976.832 1000.56C980.319 1004.1 985.006 1006.04 989.862 1005.96H1014.09C1018.94 1006.04 1023.63 1004.1 1027.12 1000.56C1030.6 997.017 1032.6 992.17 1032.68 987.084V944.013C1032.75 938.927 1034.75 934.08 1038.24 930.539C1041.73 926.999 1046.41 925.054 1051.27 925.132H1213.24L1213.81 923.952Z" fill="#57A863"/>
</svg>
