<svg width="2000" height="1417" viewBox="0 0 2000 1417" fill="none" xmlns="http://www.w3.org/2000/svg">
<path d="M1814.09 2.9523H200.846C194.184 2.55833 187.507 2.55833 180.846 2.9523H1834.37C1827.61 2.54715 1820.84 2.54715 1814.09 2.9523Z" fill="white"/>
<path d="M200.841 1389.49H1814.08C1820.74 1389.88 1827.42 1389.88 1834.08 1389.49H180.56C187.315 1389.89 194.086 1389.89 200.841 1389.49Z" fill="white"/>
<path d="M1992.67 1215.13H20.8428C27.0793 1305.22 93.7274 1377.87 179.434 1388H1832.96C1919.1 1378.4 1986.35 1305.62 1992.67 1215.13Z" fill="white"/>
<path d="M21.7012 1201.57V1215.14C21.9869 1209.53 21.7012 1206.29 21.7012 1201.57Z" fill="#ED5565"/>
<path d="M21.7012 1201.56C21.7012 1205.99 21.7012 1210.71 21.7012 1215.13H1993.53C1993.53 1210.71 1993.53 1206.28 1993.53 1201.56V1041.96H21.7012V1201.56Z" fill="#ED5565"/>
<path d="M1993.53 869.093H21.7012V1041.97H1993.53V869.093Z" fill="white"/>
<path d="M1993.53 696.222H21.7012V869.097H1993.53V696.222Z" fill="#ED5565"/>
<path d="M1993.53 523.042H21.7012V695.917H1993.53V523.042Z" fill="white"/>
<path d="M1993.53 350.171H21.7012V523.046H1993.53V350.171Z" fill="#ED5565"/>
<path d="M1993.52 190.575V177.005C1992.95 181.725 1993.52 186.15 1993.52 190.575Z" fill="white"/>
<path d="M22.2725 177.005C22.2725 181.43 22.2725 185.855 22.2725 190.575V350.175H1994.1V190.575C1994.1 186.15 1994.1 181.43 1994.1 177.005H22.2725Z" fill="white"/>
<path d="M22.2725 176.995H1994.1C1987.87 86.9023 1921.22 14.2516 1835.51 4.12012H181.991C95.8424 13.7215 28.5969 86.5062 22.2725 176.995Z" fill="#ED5565"/>
<path d="M847.617 4.12012H180.856C90.2235 14.7829 21.7047 95.0506 21.7012 190.565V869.085H847.617V4.12012Z" fill="#4758A9"/>
<path d="M309.857 649.017C287.885 665.242 275.209 656.097 281.688 628.661L305.35 525.998C310.77 495.335 301.143 463.87 279.716 442.216L208.167 377.314C187.885 358.729 193.237 343.093 219.998 342.208L320.28 339.258C348.914 336.896 373.479 316.964 382.815 288.517L414.364 176.413C421.97 149.273 435.773 148.683 444.787 176.413L482.533 287.041C493.578 315.114 518.95 334.126 547.885 336.013H650.139C678.308 336.013 682.533 351.648 661.97 370.234L584.223 441.626C563.102 463.184 554.241 494.715 560.843 524.818L585.632 615.091C593.238 642.232 580.561 652.557 557.463 637.806L472.956 584.115C447.301 569.332 415.996 570.349 391.266 586.77L309.857 649.017Z" fill="white"/>
</svg>
