<svg width="2000" height="1417" viewBox="0 0 2000 1417" fill="none" xmlns="http://www.w3.org/2000/svg">
<path d="M7.88965 206.507V472.014H1979.72V206.507C1979.72 154.555 1960.01 104.731 1924.94 67.9949C1889.86 31.2592 1842.29 10.6213 1792.68 10.6213H195.214C145.558 10.543 97.9108 31.1463 62.7726 67.8905C27.6344 104.635 7.88959 154.504 7.88965 206.507Z" fill="#ED5565"/>
<path d="M7.88965 936.066H1979.72V473.788H7.88965V936.066Z" fill="#434A54"/>
<path d="M7.88965 1201.86C7.88965 1310.04 91.6313 1397.75 194.932 1397.75H1792.68C1895.98 1397.75 1979.72 1310.04 1979.72 1201.86V936.352H7.88965V1201.86Z" fill="#57A863"/>
<path d="M1053.81 782.368C1046.48 787.678 1042.26 784.728 1044.51 775.287L1052.68 741.066C1055.07 730.413 1051.98 719.225 1044.51 711.566L1021.13 689.44C1014.37 683.245 1016.34 677.935 1025.07 677.64H1058.03C1067.59 676.97 1075.82 670.331 1078.88 660.824L1089.58 623.358C1092.12 614.213 1096.62 614.213 1099.72 623.358L1111.83 660.529C1115.28 669.988 1123.61 676.53 1133.24 677.345H1167.05C1175.78 677.345 1177.75 682.655 1170.99 688.85L1145.07 712.451C1138 719.616 1135.01 730.129 1137.19 740.181L1145.07 769.682C1147.61 778.827 1143.38 782.073 1135.78 777.057L1107.61 758.767C1099.02 753.03 1088.03 753.03 1079.44 758.767L1053.81 782.368ZM1101.69 838.419C1064.7 859.967 1020.41 862.946 981.085 846.53C941.762 830.114 911.574 796.045 898.877 753.752C889.455 723.608 888.38 691.286 895.778 660.529C906.036 617.618 934.141 581.793 972.347 562.93C1010.55 544.068 1054.83 544.158 1092.96 563.176C1095.21 563.848 1097.59 562.726 1098.59 560.521C1099.23 558.315 1098.43 555.931 1096.62 554.621C1049.82 514.774 986.773 502.844 929.613 523.018C872.453 543.191 829.162 592.651 814.933 654.039C805.564 691.165 806.837 730.359 818.595 766.732C833.167 814.03 865.141 853.294 907.437 875.829C949.733 898.365 998.863 902.313 1043.95 886.8H1046.48C1068.96 878.495 1089.58 865.441 1107.05 848.449C1108.75 847.061 1109.43 844.692 1108.74 842.549C1107.82 840.086 1105.23 838.795 1102.82 839.599L1101.69 838.419ZM1105.64 792.988C1102.54 801.838 1097.47 801.838 1094.37 792.988L1082.26 759.947C1078.3 750.4 1070.06 743.544 1060.29 741.656L1029.02 737.821C1020 737.821 1018.88 731.331 1025.92 725.726L1054.09 705.37C1061.54 699.093 1064.66 688.732 1061.98 679.115L1050.43 641.944C1047.61 633.093 1050.43 630.143 1058.59 635.748L1088.74 659.054C1096.91 664.457 1107.32 664.457 1115.5 659.054L1143.67 639.584C1150.99 634.568 1155.21 637.519 1153.24 646.664L1144.79 681.475C1142.93 691.589 1146.24 701.989 1153.52 708.911L1176.62 728.971C1183.67 734.871 1181.98 740.181 1172.96 740.771H1140.57C1130.97 741.627 1122.61 747.991 1118.88 757.292L1105.64 792.988Z" fill="white"/>
</svg>
