<svg width="2000" height="1417" viewBox="0 0 2000 1417" fill="none" xmlns="http://www.w3.org/2000/svg">
<path d="M1818.04 11.2102H204.797C105.853 11.2102 25.6426 95.2129 25.6426 198.835V719.23H1997.47V198.835C1997.47 149.023 1978.56 101.255 1944.9 66.0599C1911.24 30.8649 1865.6 11.1319 1818.04 11.2102Z" fill="#4758A9"/>
<path d="M25.352 1209.54C25.352 1313.16 105.562 1397.16 204.507 1397.16H1817.75C1916.69 1397.16 1996.9 1313.16 1996.9 1209.54V718.642H25.0703L25.352 1209.54Z" fill="#ED5565"/>
<path d="M616.054 279.967C609.015 290.223 597.692 296.304 585.632 296.304C573.571 296.304 562.248 290.223 555.209 279.967L506.758 217.13C499.734 206.753 488.341 200.586 476.195 200.586C464.049 200.586 452.656 206.753 445.632 217.13L397.463 279.967C390.424 290.223 379.101 296.304 367.04 296.304C354.979 296.304 343.656 290.223 336.617 279.967L276.899 202.085C259.998 180.254 248.73 185.269 250.984 213.295L272.956 461.692C275.91 490.194 298.546 512.009 325.913 512.728H627.322C654.63 511.992 677.176 490.148 679.998 461.692L700.843 213C703.096 183.499 691.547 179.959 674.927 202.085L616.054 279.967Z" fill="#F6BB42"/>
</svg>
