<svg width="2000" height="1417" viewBox="0 0 2000 1417" fill="none" xmlns="http://www.w3.org/2000/svg">
<path d="M1799.72 15.3438H186.202C87.2573 15.3438 7.04688 99.3465 7.04688 202.969V1214.26C7.04688 1317.88 87.2573 1401.88 186.202 1401.88H1799.72C1898.67 1401.88 1978.88 1317.88 1978.88 1214.26V202.969C1978.88 99.3465 1898.67 15.3438 1799.72 15.3438Z" fill="#FFCE54"/>
<path d="M147.895 1254.38V162.853H376.345V1254.38H147.895Z" fill="#57A863"/>
<path d="M376.34 1254.38V162.853H604.791V1254.38H376.34Z" fill="#FF8416"/>
<path d="M745.637 1254.38V162.853H1838.31V1254.38H745.637Z" fill="#ED5565"/>
<path d="M1677.19 492.372C1674.11 486.005 1668.18 481.683 1661.41 480.867C1654.82 480.24 1648.36 483.121 1644.23 488.537C1640.25 492.826 1638.66 498.953 1640 504.762C1626.48 498.51 1614.16 489.71 1603.67 478.801C1573.11 451.257 1537.97 429.855 1500 415.67C1474.06 409.417 1447.28 407.92 1420.85 411.245C1398.74 415.464 1378.07 425.63 1360.85 440.745C1349.2 452.23 1342.59 468.241 1342.59 484.997C1342.59 501.752 1349.2 517.764 1360.85 529.248L1365.07 534.558L1362.54 538.688C1355.05 551.189 1355.61 567.208 1363.95 579.104C1371.27 589.43 1373.24 589.43 1374.93 589.43C1376.62 589.43 1381.13 581.169 1381.41 578.514C1381.05 572.86 1384.08 567.567 1389.02 565.239C1392.96 563.764 1396.06 565.239 1421.41 574.974C1461.7 587.229 1504.38 588.044 1545.07 577.334C1565.17 572.352 1586.1 572.352 1606.2 577.334C1614.79 580.652 1621.3 588.133 1623.67 597.395C1625.64 607.259 1622.66 617.493 1615.78 624.536C1609.58 631.616 1604.51 634.861 1580.85 641.646C1561.1 647.036 1540.58 648.635 1520.29 646.366C1499.75 645.092 1479.15 646.279 1458.88 649.906C1436.44 653.716 1413.62 654.509 1390.99 652.266H1342.82L1333.24 638.696C1330.46 634.16 1328.73 629.009 1328.17 623.651C1328.17 622.176 1328.17 620.701 1328.17 619.52L1333.81 623.061C1335.75 624.491 1338.34 624.491 1340.29 623.061C1343.38 620.111 1342.82 615.39 1336.9 600.64C1335.67 596.938 1335.01 593.055 1334.93 589.135C1334.93 589.135 1334.93 589.135 1334.93 587.66C1336.33 588.503 1338.05 588.503 1339.44 587.66C1341.13 586.185 1341.69 585.595 1342.82 548.423C1343.95 511.252 1342.82 501.222 1333.24 489.422L1331.27 486.767L1335.5 482.047C1343.89 473.439 1349.5 462.299 1351.55 450.186L1355.21 426.585L1337.19 444.286C1334 448.655 1328.89 450.997 1323.67 450.481C1319.17 451.115 1314.71 449.066 1312.12 445.171C1304.23 437.042 1294.56 431.065 1283.95 427.765C1281.29 426.347 1278.15 426.347 1275.5 427.765C1273.79 429.189 1272.85 431.385 1272.96 433.665C1272.06 437.171 1270.74 440.542 1269.02 443.696L1267.33 446.646L1262.26 441.335C1256.69 435.31 1249.84 430.76 1242.26 428.06C1234.65 425.995 1229.58 424.52 1225.92 428.06C1222.26 431.6 1222.54 435.435 1222.54 440.45C1222.54 445.466 1220.85 449.596 1220.85 449.596C1220.85 449.596 1218.6 449.596 1212.68 444.581C1202.77 435.63 1189.3 432.325 1176.62 435.73L1157.75 437.795L1162.26 449.891C1162.26 452.841 1162.26 453.431 1160.29 457.856C1154.38 465.767 1145.04 469.991 1135.5 469.066C1128.96 469.018 1122.47 470.217 1116.34 472.606C1111.08 474.616 1105.58 475.905 1100 476.441L1086.76 478.506C1087.81 472.2 1086.16 465.729 1082.26 460.806C1077.65 455.518 1071.06 452.608 1064.23 452.841C1056.83 452.502 1049.75 456.041 1045.36 462.281C1040.33 471.235 1039.5 482.105 1043.1 491.782C1043.1 495.322 1045.64 500.927 1046.48 504.172C1050.93 513.228 1056.84 521.412 1063.95 528.363C1069.77 534.291 1075.22 540.597 1080.29 547.243C1083.23 551.552 1087.08 555.087 1091.55 557.569L1106.76 566.419L1105.07 552.554C1107.1 554.404 1109.27 556.081 1111.55 557.569C1115.21 559.929 1118.6 561.994 1121.69 560.224C1123.63 558.845 1124.71 556.475 1124.51 554.029C1124.41 552.851 1124.41 551.666 1124.51 550.489C1129.3 558.479 1134.67 566.074 1140.57 573.204L1144.51 578.219C1120.15 575.732 1096.4 568.74 1074.37 557.569C1055.5 548.718 1049.58 546.948 1046.2 551.079C1043.84 553.427 1042.78 556.872 1043.38 560.224C1045.27 566.736 1049.25 572.364 1054.65 576.154C1051.32 578.995 1049.03 582.956 1048.17 587.365L1042.54 605.95L1037.19 623.356L1055.5 621.586C1061.08 621.065 1066.63 620.178 1072.12 618.93L1063.1 636.336L1080 632.796C1084.75 631.729 1089.37 630.147 1093.81 628.076H1095.78L1098.31 631.911C1099.72 634.566 1104.51 642.236 1110.71 640.761C1116.9 639.286 1116.34 636.926 1117.19 631.911L1118.6 635.156C1123.67 646.661 1128.74 651.971 1134.09 651.381C1139.44 650.791 1139.44 651.381 1140.29 643.711C1141.36 641.341 1143.01 639.306 1145.07 637.811C1146.36 636.511 1148.07 635.772 1149.86 635.746C1149.86 635.746 1151.83 637.516 1152.68 639.876C1153.52 642.236 1152.68 649.021 1131.27 662.887C1093.05 684.911 1066.73 724.242 1060 769.385C1057.89 781.379 1057.89 793.677 1060 805.671C1054.09 798.886 1045.92 790.33 1034.09 778.235L1001.41 744.899C1010.56 739.66 1016.19 729.559 1016.06 718.643C1015.27 708.439 1008.36 699.897 998.877 697.403C995.347 696.631 991.703 696.631 988.173 697.403C988.173 687.372 989.863 667.902 990.708 622.176C992.961 500.337 1001.41 407.704 1012.68 386.169C1015.5 380.859 1017.47 376.729 1014.09 373.484C1010.71 370.238 1007.05 373.484 997.75 379.089C981.213 391.154 967.844 407.387 958.877 426.29C939.159 465.231 930.708 518.333 930.708 628.666C930.057 651.785 930.527 674.924 932.116 697.993C928.315 697.083 924.368 697.083 920.567 697.993C910.979 699.967 903.699 708.187 902.539 718.348C901.721 731.258 909.031 743.22 920.567 747.849C924.707 749.847 929.056 751.332 933.525 752.274C931.461 754.555 930.616 757.763 931.271 760.83C931.086 761.903 931.086 763.002 931.271 764.075C929.432 764.541 927.765 765.567 926.482 767.025C924.511 769.385 922.82 773.81 926.482 781.48C927.837 784.279 930.007 786.552 932.68 787.97C929.923 790.683 928.837 794.777 929.863 798.591C930.757 801.558 932.662 804.078 935.215 805.671C934.523 807.975 934.523 810.446 935.215 812.751C934.966 818.157 938.021 823.133 942.82 825.141C942.317 827.372 942.317 829.696 942.82 831.927L939.158 830.156C935.166 827.67 930.194 827.67 926.201 830.156C923.192 832.183 921.221 835.526 920.838 839.251C920.455 842.975 921.702 846.681 924.229 849.332C929.228 853.247 935.539 854.846 941.694 853.757C940.748 856.055 939.412 858.154 937.75 859.952L929.863 869.097L936.342 878.538C941.518 886.665 941.518 897.256 936.342 905.384L934.933 907.154C932.066 902.519 926.928 900.001 921.694 900.663C917.414 901.724 914.114 905.294 913.243 909.809C911.271 917.184 913.243 921.314 920.285 926.919C924.6 930.992 930.011 933.568 935.778 934.294C934.814 935.634 933.677 936.825 932.398 937.834L917.75 949.635L938.032 952.88H943.947C945.637 959.37 950.989 972.055 956.623 972.055C962.257 972.055 964.792 966.745 965.919 965.27C968.407 961.636 969.871 957.343 970.144 952.88H976.06L996.623 949.93L981.412 937.244L978.313 934.294C987.981 932.881 996.495 926.901 1001.41 918.069C1002.83 913.762 1002.09 908.997 999.44 905.384C996.288 901.62 991.442 899.929 986.764 900.958C983.2 901.719 980.298 904.421 979.158 908.039L977.468 906.269C970.295 897.87 970.295 885.167 977.468 876.768C983.384 869.688 982.257 866.442 976.06 860.247C973.629 857.669 971.798 854.54 970.708 851.102H973.806C978.497 854.01 984.327 854.01 989.018 851.102C993.021 848.374 994.663 843.09 992.961 838.417C990.828 834.109 986.843 831.144 982.257 830.451C985.153 829.975 987.822 828.525 989.863 826.321C991.176 827.994 992.691 829.481 994.37 830.746C998.877 834.287 998.877 834.287 998.877 853.757C998.877 873.228 998.877 878.538 1004.23 883.258C1009.58 887.978 1009.3 888.273 1012.68 886.798C1015.1 885.547 1016.46 882.804 1016.06 880.013C1017.46 878.154 1019.47 876.895 1021.69 876.473C1028.16 881.631 1034.28 887.249 1040 893.288C1047.46 901.537 1056.11 908.506 1065.64 913.939H1072.68C1076.68 913.403 1080.58 912.209 1084.23 910.399C1095.45 904.337 1105.11 895.534 1112.4 884.733C1120.05 890.382 1128.05 895.507 1136.34 900.073C1142.03 904.19 1148.62 906.727 1155.5 907.449C1157.47 914.529 1160 922.494 1162.82 931.344C1177.75 977.661 1172.68 990.346 1156.9 1000.67C1151.55 1003.92 1148.74 1004.51 1131.27 1004.51C1113.81 1004.51 1108.45 1004.51 1101.13 1010.7C1092.79 1019.48 1087.45 1030.88 1085.92 1043.15C1085.85 1045.79 1087.14 1048.27 1089.3 1049.64C1092.96 1051.71 1097.75 1049.64 1105.92 1045.81L1109.58 1043.45C1112.23 1046.91 1116.08 1049.14 1120.29 1049.64C1127.17 1050.43 1134.09 1048.54 1139.72 1044.33L1142.54 1042.27L1144.51 1044.33C1148.92 1048.22 1154.52 1050.32 1160.29 1050.23C1166.16 1050.19 1171.87 1048.23 1176.62 1044.63L1179.44 1042.56C1184.37 1045.85 1189.97 1047.87 1195.78 1048.46C1207.61 1049.94 1209.3 1048.46 1216.34 1038.43C1221.22 1032.4 1223.1 1024.31 1221.41 1016.6C1221.41 1011.88 1219.72 1004.21 1219.72 999.491C1219.59 997.921 1219.59 996.342 1219.72 994.771C1222.42 993.306 1225.25 992.12 1228.17 991.231C1234.22 989.131 1240.14 986.669 1245.92 983.856C1250.43 981.201 1266.48 963.795 1266.48 957.305C1266.48 950.815 1262.54 950.815 1250.71 949.635C1238.88 948.455 1234.93 945.8 1232.96 941.375C1230.99 936.949 1232.96 926.624 1241.13 913.939C1245.92 906.269 1250.14 898.893 1254.09 891.518L1261.98 889.748C1266.2 889.748 1288.74 878.538 1307.33 869.688C1338.18 851.743 1372.63 841.638 1407.89 840.187V848.447C1410.08 870.112 1419.33 890.325 1434.09 905.679C1451.04 922.678 1459.29 947.083 1456.34 971.465V1000.97L1451.83 1005.39C1447.61 1009.52 1447.05 1010.11 1429.02 1011.29C1410.99 1012.47 1407.05 1013.06 1400.85 1018.96C1394.56 1023.96 1390.25 1031.2 1388.74 1039.32C1387.28 1042.28 1387.28 1045.8 1388.74 1048.76C1390.39 1050.65 1392.78 1051.63 1395.21 1051.41C1400.47 1050.51 1405.48 1048.39 1409.86 1045.22L1414.65 1041.97L1417.47 1044.63C1421.09 1048.75 1426.2 1051.09 1431.55 1051.09C1436.9 1051.09 1442.01 1048.75 1445.64 1044.63C1449.21 1049.6 1454.92 1052.37 1460.85 1052C1469.02 1052 1473.24 1052 1477.47 1045.22L1481.41 1047.87C1486.45 1051.63 1492.42 1053.78 1498.6 1054.07C1502.04 1054.11 1505.4 1052.97 1508.17 1050.82L1509.58 1052.3C1513.81 1055.54 1519.72 1052.3 1527.33 1047.58L1531.27 1044.92C1533.89 1048.86 1537.99 1051.43 1542.54 1052C1549.11 1052.63 1555.63 1050.38 1560.57 1045.81L1563.67 1043.15L1567.05 1045.81C1572.98 1051.02 1580.92 1052.99 1588.45 1051.12C1592.75 1049.9 1596.46 1047.06 1598.88 1043.15C1606.99 1049.36 1617.1 1052 1627.05 1050.53C1629.88 1050.11 1632.31 1048.22 1633.52 1045.51C1634.43 1040.09 1633.1 1034.51 1629.86 1030.17C1622.89 1021.84 1618.3 1011.61 1616.62 1000.67C1616.62 990.641 1618.6 985.921 1631.55 975.891C1644.51 965.86 1651.55 954.06 1649.02 946.39C1647.44 941.418 1642.71 938.322 1637.75 939.014C1632.12 939.014 1625.64 932.819 1621.41 923.084C1611.83 900.368 1613.81 874.998 1628.74 831.631C1640.62 804.954 1646.59 775.808 1646.2 746.374C1647.74 731.408 1645.6 716.28 1640 702.418C1635.96 692.042 1630.86 682.151 1624.79 672.917L1618.88 664.362L1626.76 657.577C1643.51 644.326 1652.3 622.77 1649.86 600.935C1646.3 578.807 1631.84 560.296 1611.83 552.259C1599.43 546.273 1585.67 544.026 1572.12 545.768C1556.83 546.026 1541.58 547.407 1526.48 549.898C1511.85 552.295 1497.07 553.577 1482.26 553.734C1460.85 553.734 1458.03 553.734 1450.99 549.309C1443.95 544.883 1443.1 544.293 1441.69 534.558C1441.17 530.459 1438.59 526.967 1434.93 525.413C1429.02 523.348 1417.75 534.263 1412.96 541.343C1411.23 538.469 1409.82 535.401 1408.74 532.198C1406.76 526.298 1406.76 519.513 1419.16 513.022L1436.34 504.467L1423.38 496.207C1416.04 491.795 1407.32 490.627 1399.16 492.962C1390.71 494.84 1383.32 500.143 1378.6 507.712L1377.19 510.072L1372.68 505.647C1367.07 500.523 1364.49 492.651 1365.92 484.997C1367.92 477.399 1373.59 471.462 1380.85 469.361C1385.1 467.573 1389.84 467.573 1394.09 469.361C1395.32 470.033 1396.24 471.206 1396.62 472.606C1398.88 481.162 1404.51 480.277 1405.64 479.982C1413.24 478.507 1417.75 464.346 1416.34 453.726V450.186C1427.38 452.562 1437.31 458.805 1444.51 467.886C1450.09 478.125 1450.09 490.688 1444.51 500.927L1433.52 519.808L1450.99 516.268C1462.34 513.805 1472.4 506.96 1479.16 497.092C1485.24 485.253 1485.96 471.194 1481.13 458.741C1488.25 461.93 1494.05 467.686 1497.47 474.966C1500.78 479.663 1501.42 485.859 1499.16 491.192C1497.8 496.309 1495.71 501.183 1492.96 505.647C1490.14 509.482 1487.89 512.727 1489.58 516.268C1490.87 518.512 1493.29 519.776 1495.78 519.513C1505.01 518.35 1513.66 514.228 1520.57 507.712C1523.64 503.816 1526.12 499.435 1527.89 494.732C1534.49 504.629 1543.69 512.314 1554.37 516.858C1567.05 522.463 1571.83 523.053 1574.09 518.923C1576.34 514.793 1571.83 510.662 1570.14 509.187C1566.8 503.635 1564.33 497.56 1562.82 491.192C1569.02 495.912 1579.16 504.467 1590.99 515.973C1603.51 530.805 1621.39 539.471 1640.29 539.868C1651.6 540.314 1662.3 534.485 1668.45 524.528C1677.44 516.737 1680.92 503.95 1677.19 492.372ZM969.018 826.026C971.569 825.872 974.062 825.169 976.342 823.961C976.938 824.742 977.713 825.351 978.595 825.731C976.164 825.398 973.702 825.398 971.271 825.731L969.018 826.026ZM1556.34 1003.03C1543.52 1005.27 1531.7 1011.66 1522.54 1021.32C1521.95 1016 1520.81 1010.76 1519.16 1005.69C1515.21 993.001 1516.34 986.216 1531.83 967.04C1534.09 964.385 1545.07 950.52 1545.07 944.325C1545.27 941.831 1544.45 939.366 1542.82 937.539C1540.29 934.884 1536.34 934.884 1530.14 934.884C1523.95 934.884 1521.69 934.884 1518.31 930.754C1514.93 926.624 1511.27 919.839 1519.72 908.629L1525.36 901.253L1530.71 904.794C1574.37 934.294 1574.37 934.294 1576.34 966.155C1578.31 998.016 1577.47 998.901 1556.34 1003.03Z" fill="#FFCE54"/>
</svg>
