<svg width="2000" height="1417" viewBox="0 0 2000 1417" fill="none" xmlns="http://www.w3.org/2000/svg">
<path d="M4.22754 198.828V464.335H1976.06V198.828C1976.06 90.6433 1892.32 2.94238 1789.02 2.94238H191.27C141.663 2.94238 94.0882 23.5803 59.011 60.3159C23.9337 97.0516 4.22754 146.876 4.22754 198.828Z" fill="#4758A9"/>
<path d="M4.22754 927.505H1976.06V465.227H4.22754V927.505Z" fill="white"/>
<path d="M4.2231 1193.3C4.2231 1245.25 23.9293 1295.07 59.0065 1331.81C94.0837 1368.55 141.659 1389.18 191.265 1389.18H1788.73C1838.34 1389.18 1885.91 1368.55 1920.99 1331.81C1956.07 1295.07 1975.77 1245.25 1975.77 1193.3V927.791H3.94141L4.2231 1193.3Z" fill="#57A863"/>
<path d="M807.039 814.216L994.081 578.209L1173.24 814.216H807.039Z" fill="#434A54"/>
</svg>
