<svg width="2000" height="1417" viewBox="0 0 2000 1417" fill="none" xmlns="http://www.w3.org/2000/svg">
<path d="M1158.88 1032.53H911.552C871.833 1032.53 832.115 1032.53 792.397 1032.53C804.815 1041.59 818.248 1049.02 832.397 1054.65C938.5 1056.42 1044.6 1056.42 1150.71 1054.65C1161.32 1055.91 1172.08 1054.81 1182.26 1051.41C1192.92 1046.07 1203.27 1040.06 1213.24 1033.41V1032.53C1195.15 1031.01 1176.97 1031.01 1158.88 1032.53Z" fill="white"/>
<path d="M764.504 996.841C758.307 996.841 751.546 995.366 745.912 998.906L766.476 1015.72C924.598 1017.49 1082.72 1017.49 1240.84 1015.72C1248.17 1009.53 1255.77 1003.92 1262.81 997.431C1096.62 999.496 929.574 993.596 764.504 996.841Z" fill="white"/>
<path d="M185.631 1401.89C192.012 1402.23 198.405 1402.23 204.786 1401.89H1802.81C1264.5 1402.49 725.067 1403.09 185.631 1401.89Z" fill="white"/>
<path d="M1074.65 1067.94C1002.82 1067.94 931.269 1066.46 859.438 1069.71C952.554 1108.24 1056.18 1108.24 1149.3 1069.71C1124.5 1067.1 1099.54 1066.51 1074.65 1067.94Z" fill="white"/>
<path d="M1284.79 914.527C1237.46 914.527 1189.86 914.527 1143.94 914.527C1091.5 910.877 1041.82 888.607 1003.1 851.396C964.381 890.292 913.332 912.875 859.715 914.822H676.053C680.63 922.39 685.615 929.679 690.983 936.653C737.744 939.603 784.504 939.603 831.828 938.423C864.853 940.385 897.963 936.698 929.856 927.508C957.037 917.554 982.523 903.113 1005.35 884.731C1041.26 915.408 1085.33 933.745 1131.55 937.243C1193.8 939.308 1256.34 940.193 1318.87 937.243C1324.34 930.661 1329.33 923.659 1333.8 916.297C1317.55 914.095 1301.14 913.502 1284.79 914.527Z" fill="white"/>
<path d="M711.83 963.798C716.619 969.699 722.253 976.189 730.422 975.009C774.084 973.239 818.028 975.009 861.689 975.009H1282.25C1289.3 975.009 1292.68 966.749 1297.75 962.913C1102.25 962.913 907.042 958.488 711.83 963.798Z" fill="white"/>
<path d="M1989.58 1206.88V212.112C1989.58 104.157 1906.18 16.5517 1803.1 16.2266H204.224C101.144 16.5517 17.7451 104.157 17.7456 212.112V1206.88C17.7323 1307.76 90.8806 1392.16 186.76 1401.88C726.196 1401.88 1265.63 1401.88 1805.07 1401.88C1907.05 1400.43 1989.12 1313.69 1989.58 1206.88ZM1274.08 528.361C1277.75 516.856 1278.87 505.055 1281.41 493.255C1289.01 502.4 1290.98 515.086 1297.46 524.821C1309.01 524.821 1320.56 521.576 1332.11 520.986C1323.38 529.541 1314.37 537.506 1306.48 546.652L1321.13 579.102C1310.55 574.103 1300.29 568.387 1290.42 561.992C1281.41 569.957 1273.8 579.397 1264.22 586.478C1266.2 574.677 1269.01 562.877 1270.42 551.077C1260.6 544.429 1250.34 538.515 1239.72 533.376C1250.94 530.965 1262.35 529.583 1273.8 529.246L1274.08 528.361ZM1154.93 372.302C1164.79 378.792 1174.08 386.167 1183.1 392.952C1193.52 386.462 1202.25 378.202 1211.27 371.122C1207.89 382.627 1205.07 394.132 1200.84 405.343C1209.78 413.418 1219.19 420.906 1229.01 427.763C1217.28 428.408 1205.53 428.408 1193.8 427.763C1189.86 439.269 1186.76 451.364 1182.82 462.869C1178.31 451.069 1174.93 439.269 1170.98 427.468C1159.19 428.729 1147.34 429.222 1135.49 428.943C1144.51 420.683 1154.65 414.193 1163.66 405.933C1161.69 395.312 1157.75 383.512 1154.93 372.302ZM987.605 331C994.083 314.471 999.541 297.522 1003.94 280.259C1010.74 296.593 1016.29 313.46 1020.56 330.705H1070.42C1056.62 341.621 1042.25 351.651 1028.73 362.861C1032.96 379.972 1039.72 396.492 1043.94 413.603C1029.29 404.753 1015.77 392.952 1003.1 384.102C988.168 392.952 974.929 405.343 960.844 413.603C964.788 396.787 971.267 380.562 975.774 363.746C962.484 352.099 948.564 341.264 934.084 331.295C952.393 330.115 969.576 330.41 985.914 330.705L987.605 331ZM796.9 371.712C807.041 377.907 815.492 386.462 825.07 392.952C834.929 386.462 844.224 379.087 853.239 372.302C850.422 383.807 845.915 395.017 842.816 406.523C851.63 414.758 861.049 422.254 870.985 428.943C859.487 430.557 847.835 430.557 836.337 428.943C831.589 440.432 827.635 452.262 824.506 464.344C819.733 453.083 816.144 441.312 813.802 429.238C801.689 429.238 789.577 429.238 777.464 429.238C787.323 422.158 797.182 415.078 805.633 407.703C802.534 394.722 799.436 383.512 795.774 371.712H796.9ZM712.393 526.001C717.746 515.676 722.534 504.76 727.041 493.845C730.782 505.325 733.332 517.194 734.647 529.246C746.196 529.246 758.027 531.606 769.295 533.671C759.673 539.899 749.702 545.514 739.436 550.487C740.729 562.79 742.704 575.004 745.351 587.068C735.905 580.007 727.216 571.896 719.436 562.877L688.168 580.578C692.675 569.662 697.464 558.747 702.816 548.127C694.94 538.687 686.369 529.908 677.182 521.871C688.231 522.624 699.233 524.002 710.14 526.001H712.393ZM861.689 1069.7C933.238 1066.46 1005.07 1067.93 1076.9 1067.93C1101.75 1065.92 1126.7 1065.92 1151.55 1067.93C1057.98 1107.66 953.433 1108.29 859.436 1069.7H861.689ZM1215.49 1035.19C1205.52 1041.83 1195.17 1047.84 1184.51 1053.18C1174.33 1056.58 1163.57 1057.69 1152.96 1056.43C1046.85 1057.8 940.75 1057.8 834.647 1056.43C820.499 1050.79 807.065 1043.36 794.647 1034.3C834.365 1032.83 874.084 1034.3 913.802 1034.3H1161.13C1179.22 1032.78 1197.4 1032.78 1215.49 1034.3V1035.19ZM1243.66 1015.71C1085.54 1017.48 927.417 1017.48 769.295 1015.71L748.731 998.899C754.365 995.359 761.126 997.129 767.323 996.834C933.52 993.589 1099.44 999.489 1265.63 996.834C1255.77 1003.03 1248.17 1009.52 1239.44 1015.71H1243.66ZM1285.07 974.119H861.689C818.027 974.119 774.084 974.119 730.422 974.119C722.253 974.119 716.619 968.808 711.83 962.908C907.041 957.598 1102.53 962.908 1297.75 960.843C1292.68 965.858 1289.29 973.529 1282.25 973.529L1285.07 974.119ZM1319.72 936.948C1257.46 940.193 1194.93 939.308 1132.39 936.948C1086.17 933.449 1042.11 915.113 1006.2 884.436C983.37 902.817 957.884 917.258 930.703 927.212C898.81 936.403 865.7 940.089 832.675 938.128C785.915 938.128 738.872 938.128 691.83 936.358C686.462 929.383 681.477 922.095 676.901 914.527H861.408C915.024 912.579 966.073 889.997 1004.79 851.1C1043.51 888.312 1093.19 910.581 1145.63 914.232C1192.96 914.232 1240.56 914.232 1286.48 914.232C1302.13 912.746 1317.87 912.746 1333.52 914.232C1328.58 922.266 1323.02 929.864 1316.9 936.948H1319.72ZM1291.55 804.194C1258.08 841.717 1213.14 865.82 1164.51 872.341C1151.04 874.001 1137.5 874.789 1123.94 874.701C1133.72 877.69 1143.9 878.986 1154.08 878.536C1176.79 877.51 1199.3 873.648 1221.13 867.031C1253.66 855.367 1283.63 837.012 1309.29 813.044C1317.75 815.109 1326.48 816.289 1334.93 818.354C1312.85 844.983 1285.18 865.886 1254.08 879.421C1202.69 901.046 1145.58 902.513 1093.24 883.551C1060.28 871.314 1030.56 851.098 1006.48 824.549C975.235 860.281 933.683 884.319 888.168 892.991C833.368 904.182 776.553 893.669 728.731 863.491C709.952 851.041 692.892 835.953 678.027 818.649C686.504 817.572 694.887 815.796 703.098 813.339C736.298 844.274 776.73 865.446 820.281 874.701C843.387 878.993 867.034 878.993 890.14 874.701C884.345 873.868 878.47 873.868 872.675 874.701C815.998 873.607 762.112 848.738 723.098 805.669C700.111 783.088 682.627 755.067 672.112 723.952C716.7 704.964 765.264 698.556 812.957 705.366C856.862 713.178 898.373 731.781 934.084 759.648C886.354 709.913 821.695 682.104 754.365 682.355C747.323 674.095 741.408 664.95 735.21 656.395C796.883 653.634 857.484 673.918 906.196 713.626C917.464 721.297 925.069 733.392 936.055 741.062C906.608 700.563 891.476 650.625 893.238 599.753C892.553 560.749 902.311 522.324 921.407 488.83C927.171 501.661 934.055 513.907 941.971 525.411C929.353 555.558 922.006 587.832 920.281 620.699C920.324 665.352 932.328 709.098 954.929 746.962C942.511 718.938 934.247 689.094 930.422 658.46C923.65 583.142 952.986 509.21 1008.73 461.099C1055.32 504.246 1083.18 565.362 1085.91 630.434C1086.62 674.038 1076.11 717.039 1055.49 754.927C1081.15 716.076 1095 670.005 1095.21 622.764C1093.94 589.324 1086.48 556.461 1073.24 526.001C1081.44 514.322 1088.25 501.641 1093.52 488.24C1113.24 522.758 1123.02 562.504 1121.69 602.703C1122.51 651.519 1108.28 699.312 1081.13 738.997C1133.14 682.881 1205.69 652.899 1280.28 656.69C1273.26 664.303 1267.2 672.83 1262.25 682.06C1210.68 681.867 1160.24 697.9 1117.46 728.082C1105.24 736.888 1093.74 746.757 1083.1 757.583C1117.2 732.091 1156.09 714.492 1197.18 705.956C1246.18 698.08 1296.3 704.195 1342.25 723.657C1330.78 754.727 1312.21 782.38 1288.17 804.194H1291.55Z" fill="#039188"/>
<path d="M1263.95 587.357C1273.52 580.277 1281.41 570.836 1290.14 562.871C1300.01 569.267 1310.27 574.982 1320.85 579.982L1306.2 547.531C1314.37 538.386 1323.38 530.42 1331.83 521.865C1320.28 521.865 1308.73 524.815 1297.19 525.7C1290.71 515.965 1288.73 503.28 1281.13 494.134C1278.59 505.935 1277.47 517.735 1273.81 529.24C1262.23 529.851 1250.73 531.529 1239.44 534.255C1250.06 539.394 1260.32 545.309 1270.14 551.956C1267.61 563.756 1265.92 575.557 1263.95 587.357Z" fill="#F2D660"/>
<path d="M701.124 548.416C695.772 559.036 690.983 569.951 686.476 580.867L717.744 563.166C725.523 572.185 734.212 580.296 743.659 587.357C741.012 575.294 739.037 563.079 737.744 550.776C748.01 545.804 757.981 540.188 767.603 533.96C756.053 531.895 744.504 530.42 732.955 529.535C731.64 517.483 729.09 505.615 725.349 494.134C720.56 505.05 716.053 515.965 710.701 526.29C699.231 524.325 687.663 523.045 676.053 522.455C685.035 530.421 693.416 539.1 701.124 548.416Z" fill="#F2D660"/>
<path d="M1172.39 428.643C1176.62 440.443 1180 452.539 1184.22 464.044C1188.17 452.244 1191.27 440.443 1195.21 428.938C1206.94 429.582 1218.69 429.582 1230.42 428.938C1220.6 422.081 1211.19 414.593 1202.25 406.517C1206.2 395.307 1209.29 383.802 1212.67 372.296C1202.82 379.377 1193.8 387.637 1184.51 394.127C1174.93 387.047 1165.63 379.967 1156.34 373.476C1160 384.982 1163.94 396.782 1167.32 408.582C1158.31 416.843 1148.17 423.333 1139.15 431.593C1150.28 431.287 1161.38 430.302 1172.39 428.643Z" fill="#F2D660"/>
<path d="M962.256 413.018C976.904 403.873 990.425 391.483 1004.51 383.517C1018.31 393.548 1030.99 405.348 1045.35 413.018C1041.13 395.908 1034.37 379.387 1030.14 362.277C1043.66 351.066 1058.31 341.036 1071.83 330.121H1019.72C1015.45 312.875 1009.89 296.008 1003.1 279.674C998.699 296.937 993.242 313.886 986.763 330.416C969.861 330.416 952.678 330.416 935.777 330.416C950.258 340.384 964.178 351.219 977.467 362.867C972.678 380.272 966.199 396.498 962.256 413.018Z" fill="#F2D660"/>
<path d="M813.24 428.94C815.583 441.014 819.172 452.785 823.945 464.046C827.074 451.964 831.027 440.134 835.775 428.645C847.273 430.259 858.925 430.259 870.423 428.645C860.487 421.956 851.068 414.46 842.254 406.225C845.635 394.719 849.86 383.509 852.677 372.004C843.099 378.789 833.804 386.164 824.508 392.654C814.649 386.164 806.198 377.609 796.339 371.414C800.001 382.919 803.099 394.719 806.761 405.93C797.184 413.6 787.325 420.385 778.592 427.465C788.733 428.94 801.128 428.94 813.24 428.94Z" fill="#F2D660"/>
<path d="M1192.96 705.656C1151.86 714.192 1112.97 731.79 1078.87 757.282C1089.52 746.456 1101.01 736.588 1113.24 727.781C1156.01 697.6 1206.45 681.567 1258.03 681.76C1262.97 672.53 1269.03 664.003 1276.05 656.389C1201.46 652.598 1128.92 682.581 1076.9 738.697C1104.05 699.011 1118.28 651.219 1117.46 602.403C1118.79 562.204 1109.01 522.457 1089.29 487.94C1084.02 501.341 1077.21 514.021 1069.01 525.701C1082.25 556.161 1089.71 589.023 1090.98 622.463C1090.77 669.705 1076.93 715.775 1051.27 754.627C1071.89 716.739 1082.39 673.738 1081.69 630.134C1078.95 565.062 1051.1 503.945 1004.5 460.799C948.759 508.91 919.424 582.842 926.195 658.159C930.02 688.793 938.284 718.637 950.702 746.662C928.101 708.797 916.097 665.052 916.054 620.398C917.78 587.532 925.126 555.257 937.744 525.111C929.828 513.607 922.945 501.361 917.181 488.53C898.085 522.023 888.326 560.449 889.012 599.453C887.25 650.324 902.381 700.262 931.829 740.762C920.843 733.091 913.237 720.996 901.97 713.326C853.258 673.618 792.656 653.334 730.984 656.094C737.181 664.945 743.096 674.09 750.139 682.055C817.468 681.804 882.128 709.612 929.857 759.347C894.146 731.48 852.635 712.878 808.73 705.066C761.038 698.255 712.474 704.664 667.885 723.651C678.401 754.766 695.884 782.788 718.871 805.368C757.885 848.437 811.772 873.307 868.449 874.4C874.243 873.568 880.119 873.568 885.913 874.4C862.807 878.693 839.16 878.693 816.054 874.4C772.503 865.146 732.071 843.974 698.871 813.039C690.66 815.496 682.278 817.271 673.801 818.349C688.665 835.653 705.726 850.741 724.505 863.19C772.326 893.369 829.141 903.881 883.941 892.691C929.456 884.019 971.009 859.981 1002.25 824.249C1026.33 850.798 1056.06 871.014 1089.01 883.251C1141.35 902.212 1198.47 900.745 1249.86 879.121C1280.95 865.585 1308.62 844.682 1330.7 818.054C1322.25 815.989 1313.52 814.809 1305.07 812.744C1279.41 836.712 1249.43 855.067 1216.9 866.73C1195.07 873.348 1172.56 877.21 1149.86 878.236C1139.68 878.685 1129.5 877.39 1119.72 874.4C1133.27 874.489 1146.82 873.701 1160.28 872.04C1208.91 865.52 1253.85 841.417 1287.32 803.893C1309.86 781.503 1326.96 753.786 1337.18 723.061C1291.46 703.859 1241.65 697.848 1192.96 705.656Z" fill="white"/>
</svg>
