<svg width="2000" height="1417" viewBox="0 0 2000 1417" fill="none" xmlns="http://www.w3.org/2000/svg">
<g clip-path="url(#clip0)">
<path d="M0 0H2000V1416.04H0V0Z" fill="#012A87"/>
<path d="M0 0H2000V708.02H0V0Z" fill="#DC171D"/>
<path d="M0 0V1416.04L888.889 708.02L0 0Z" fill="white"/>
<path d="M449.051 534.471L449.323 523.509C449.323 523.509 443.78 514.133 450.213 504.058C450.213 504.058 436.547 496.38 439.728 484.357C439.728 484.357 427.37 481.001 428.279 466.566C428.279 466.566 414.94 465.583 413.559 453.523C413.559 453.523 400.221 455.856 394.351 444.105C394.351 444.105 381.339 446.806 377.669 437.119C377.669 437.119 365.021 441.772 357.515 430.385C357.515 430.385 344.158 436.116 338.561 425.368C333.037 436.079 319.68 430.385 319.68 430.385C312.266 441.731 299.527 437.023 299.527 437.023C295.983 446.748 283.008 443.989 283.008 443.989C277.156 455.742 263.836 453.406 263.836 453.406C262.528 465.429 249.207 466.411 249.207 466.411C250.261 480.883 237.922 484.166 237.922 484.166C241.175 496.187 227.527 503.846 227.527 503.846C234.124 513.978 228.636 523.279 228.636 523.279L228.327 533.388L449.087 534.471H449.053H449.051Z" fill="#F9D90F" stroke="black" stroke-width="0.4"/>
<path d="M338.961 468.396C344.876 474.739 339.346 478.205 333.89 474.95C320.402 464.109 304.639 458.099 282.958 464.652C251.807 464.773 218.715 462.782 203.584 480.332C202.506 483.719 194.059 496.476 226.735 477.758C224.698 490.702 239.898 480.121 251.649 474.247C243.553 483.236 264.045 484.71 277.005 475.886C270.634 484.962 281.824 484.718 292.439 484.779C307.964 485.295 299.388 499.634 272.816 500.225C270.878 500.083 263.428 503.793 273.477 506.544C278.131 506.79 274.345 513.682 290.455 504.906C289.454 510.042 296.357 509.047 306.109 505.842C311.64 510.458 316.129 505.673 320.881 503.268C341.235 511.717 368.111 520.177 375.341 490.864C392.328 488.786 406.388 486.138 398.776 479.273C420.905 488.854 422.186 485.158 421.85 480.432C432.462 484.69 444.806 490.456 439.779 481.094C449.982 483.862 461.156 484.825 469.869 490.361C478.697 495.216 475.84 486.733 473.767 482.914C469.245 475.232 463.528 472.965 450.636 472.684C439.704 472.446 388.474 457.279 361.826 473.647C361.826 473.647 362.45 473.647 361.982 473.647C361.514 473.647 350.913 463.056 350.913 463.056C353.352 462.986 355.113 461.683 356.525 459.746C366.919 460.302 377.313 459.244 387.707 456.27C392.442 454.701 395.142 457.694 395.034 459.911C399.366 451.819 393.369 450.144 388.954 450.478C371.372 451.536 360.817 450.56 352.316 448.989C335.463 440.06 315.179 453.758 333.919 465.041L338.961 468.396Z" fill="#BC715F" stroke="black" stroke-width="0.4"/>
<path d="M342.923 452.547C339.396 453.105 335.756 453.554 334.348 456.147C334.451 451.88 340.434 451.586 342.923 452.547Z" fill="black"/>
<path d="M341.051 455.775C341.891 455.775 342.571 455.034 342.571 454.12C342.571 453.206 341.891 452.465 341.051 452.465C340.212 452.465 339.531 453.206 339.531 454.12C339.531 455.034 340.212 455.775 341.051 455.775Z" fill="black"/>
<path d="M149.895 505.909C156.855 547.859 164.58 590.854 168.378 634.772C176.647 699.818 139.392 754.429 154.675 818.686C163.797 849.519 195.725 867.442 224.947 870.994C263.712 878.775 310.574 871.018 338.87 901.81C367.166 871.013 414.029 878.775 452.794 870.994C482.015 867.442 513.943 849.519 523.066 818.686C538.349 754.429 501.094 699.818 509.362 634.772C513.16 590.854 520.886 547.859 527.846 505.909C459.61 545.252 392.188 494.07 338.87 526.793C285.553 494.07 218.13 545.252 149.895 505.909V505.909Z" fill="#DC171D" stroke="black" stroke-width="0.4"/>
<path d="M175.332 539.792C181.344 574.404 188.016 609.878 191.297 646.114C198.438 699.781 166.261 744.84 179.461 797.856C187.34 823.296 214.916 838.084 240.155 841.015C273.637 847.434 314.112 841.026 338.552 866.44C362.991 841.03 403.467 847.434 436.948 841.015C462.187 838.084 489.763 823.296 497.643 797.856C510.843 744.84 478.665 699.781 485.807 646.114C489.087 609.878 495.76 574.404 501.771 539.792C442.836 572.253 384.602 530.024 338.552 557.023C292.501 530.024 234.268 572.253 175.332 539.792Z" fill="#62AFE1" stroke="black" stroke-width="0.40063"/>
<path d="M306.566 636.832L237.605 687.025V747.455H439.503V687.025L370.542 636.832H306.566Z" fill="white" stroke="black" stroke-width="0.9" stroke-linecap="round"/>
<path d="M221.227 737.448V749.001H227.867V808.348H449.242V749.001H455.883V737.448H221.227Z" fill="white" stroke="black" stroke-width="0.9" stroke-linecap="round"/>
<path d="M338.551 571.383L306.566 604.446V636.832H370.543V604.446L338.551 571.383Z" fill="white" stroke="black" stroke-width="0.9" stroke-linecap="round"/>
<path d="M247.574 695.226H267.803V729.248H247.574V695.226Z" fill="white" stroke="black" stroke-width="0.9" stroke-linecap="round"/>
<path d="M305 695.226H325.229V729.248H305V695.226Z" fill="white" stroke="black" stroke-width="0.9" stroke-linecap="round"/>
<path d="M429.534 695.226H409.305V729.248H429.534V695.226Z" fill="white" stroke="black" stroke-width="0.9" stroke-linecap="round"/>
<path d="M372.112 695.226H351.883V729.248H372.112V695.226Z" fill="white" stroke="black" stroke-width="0.9" stroke-linecap="round"/>
<path d="M247.574 754.389H267.803V788.411H247.574V754.389Z" fill="white" stroke="black" stroke-width="0.9" stroke-linecap="round"/>
<path d="M429.534 754.389H409.305V788.411H429.534V754.389Z" fill="white" stroke="black" stroke-width="0.9" stroke-linecap="round"/>
<path d="M354.411 752.463H322.699V808.35H354.411V752.463Z" fill="white" stroke="black" stroke-width="0.9" stroke-linecap="round"/>
<path d="M304.26 737.448H290.039V808.348H304.26V737.448Z" fill="white" stroke="black" stroke-width="0.9" stroke-linecap="round"/>
<path d="M372.848 737.448H387.076V808.348H372.848V737.448Z" fill="white" stroke="black" stroke-width="0.9" stroke-linecap="round"/>
<path d="M392.357 739.88V722.368H284.754V739.88H392.357Z" fill="white" stroke="black" stroke-width="0.9" stroke-linecap="round"/>
<path d="M306.566 604.445H370.543Z" fill="white"/>
<path d="M306.566 604.445H370.543" stroke="black" stroke-width="0.9"/>
<path d="M237.605 687.023H439.503Z" fill="white"/>
<path d="M237.605 687.023H439.503" stroke="black" stroke-width="0.9"/>
<path d="M216.156 800.942H460.954V819.315H216.156V800.942Z" fill="white" stroke="black" stroke-width="0.9" stroke-linecap="round"/>
<path d="M350.761 611.455H326.348V629.818H350.761V611.455Z" fill="white" stroke="black" stroke-width="0.9" stroke-linecap="round"/>
<path d="M292.441 722.368V739.88" stroke="black"/>
<path d="M384.672 722.368V739.88" stroke="black"/>
<path d="M376.984 722.368V739.88" stroke="black"/>
<path d="M369.297 722.368V739.88" stroke="black"/>
<path d="M361.613 722.368V739.88" stroke="black"/>
<path d="M353.926 722.368V739.88" stroke="black"/>
<path d="M346.242 722.368V739.88" stroke="black"/>
<path d="M338.555 722.368V739.88" stroke="black"/>
<path d="M330.871 722.368V739.88" stroke="black"/>
<path d="M323.184 722.368V739.88" stroke="black"/>
<path d="M315.496 722.368V739.88" stroke="black"/>
<path d="M307.812 722.368V739.88" stroke="black"/>
<path d="M300.125 722.368V739.88" stroke="black"/>
<path d="M392.355 723.562V739.879" stroke="black" stroke-width="0.9"/>
<path d="M234.841 568.011C250.037 578.309 257.224 587.831 257.259 596.662C238.347 595.594 221.246 586.141 234.841 568.011Z" fill="#008830" stroke="black" stroke-width="0.45"/>
<path d="M247.077 577.378C261.711 586.22 269.957 595.846 272.499 606.173C257.633 608.92 241.773 601.469 247.077 577.378Z" fill="#008830" stroke="black" stroke-width="0.45"/>
<path d="M228.16 592.573C230.13 610.328 227.718 623.086 221.393 631.383C210.497 620.3 206.744 602.321 228.16 592.573Z" fill="#008830" stroke="black" stroke-width="0.45"/>
<path d="M228.179 592.626C241.926 602.949 249.243 613.388 250.819 623.93C235.771 625.115 220.675 616.048 228.179 592.626Z" fill="#008830" stroke="black" stroke-width="0.45"/>
<path d="M237.31 578.414L243.644 582.615L250.442 581.903L253.294 586.891C253.294 586.891 252.529 597.141 252.524 598.076C252.519 599.012 254.625 604.745 254.625 604.745L249.998 608.316L237.605 613.708L226.014 603.71L218.708 604.513L215.504 594.874L219.104 586.655L228.15 580.419L237.31 578.414Z" fill="#008830" stroke="black" stroke-width="0.45"/>
<path d="M225.414 583.518C219.458 600.24 211.781 610.383 202.568 614.652C197.706 599.484 202.178 581.691 225.414 583.518Z" fill="#008830" stroke="black" stroke-width="0.45"/>
<path d="M225.382 584.735C208.862 581.281 198.166 574.931 192.668 565.994C205.945 558.38 223.212 560.102 225.382 584.735V584.735Z" fill="#008830" stroke="black" stroke-width="0.45"/>
<path d="M256.973 585.333C273.744 586.913 285.685 583.986 293.314 577.034C282.566 565.788 265.533 562.323 256.973 585.333Z" fill="#008830" stroke="black" stroke-width="0.45"/>
<path d="M257.023 585.352C267.137 599.645 277.175 607.11 287.145 608.48C287.827 592.474 278.857 576.713 257.023 585.352Z" fill="#008830" stroke="black" stroke-width="0.45"/>
<path d="M251.755 594.089C264.36 605.942 270.561 617.166 271.046 627.828C255.966 627.263 241.891 616.503 251.755 594.089Z" fill="#008830" stroke="black" stroke-width="0.45"/>
<path d="M246.56 613.731C255.185 629.085 257.888 641.778 255.305 652.093C241.096 646.699 230.758 631.913 246.56 613.731Z" fill="#008830" stroke="black" stroke-width="0.45"/>
<path d="M240.493 612.738C242.403 630.501 239.948 643.25 233.595 651.522C222.736 640.397 219.045 622.404 240.493 612.738Z" fill="#008830" stroke="black" stroke-width="0.45"/>
<path d="M229.537 592.811C228.326 591.898 227.413 590.31 227.2 588.742C227.018 587.403 227.121 586.543 227.689 584.656C227.977 583.7 228.205 582.896 228.196 582.869C228.188 582.842 227.963 582.772 227.696 582.714C227.232 582.612 227.176 582.644 226.341 583.462C223.489 586.26 220.886 587.601 219.104 587.191C217.038 586.715 216.247 583.673 217.396 580.623C218.372 578.031 220.204 576.445 222.543 576.164C223.408 576.06 223.773 576.097 224.783 576.39C225.446 576.583 225.964 576.683 225.934 576.614C225.904 576.544 225.4 576.164 224.814 575.769C221.929 573.827 220.224 571.58 220.109 569.572C220.026 568.114 220.925 566.715 222.464 565.907C225.051 564.55 228.289 565.517 229.794 568.096C230.517 569.335 230.705 570.32 230.702 572.868C230.701 574.346 230.759 575.193 230.864 575.24C230.954 575.28 231.191 575.51 231.392 575.751L231.756 576.189L233.185 574.946C234.641 573.679 235.694 572.906 236.876 572.237C238.512 571.313 240.439 571.051 241.404 571.623C243.518 572.875 243.51 576.957 241.386 579.752C239.664 582.019 237.046 582.819 234.655 581.807C234.119 581.58 233.359 581.303 232.968 581.191L232.256 580.987L233.357 582.474C234.843 584.48 235.678 585.916 236.253 587.455C237.339 590.359 236.787 592.599 234.748 593.559C233.178 594.299 231.121 594.004 229.537 592.811V592.811Z" fill="#F9D90F" stroke="black" stroke-width="0.45"/>
<path d="M232.372 580.201C232.007 581.174 231.333 581.97 230.498 582.414C229.664 582.858 228.737 582.914 227.922 582.569C227.107 582.224 226.47 581.507 226.152 580.575C225.833 579.643 225.86 578.573 226.225 577.6C226.59 576.627 227.264 575.831 228.099 575.387C228.933 574.943 229.86 574.887 230.675 575.232C231.49 575.577 232.127 576.295 232.445 577.226C232.764 578.158 232.737 579.228 232.372 580.201V580.201Z" fill="#F9D90F" stroke="black" stroke-width="0.45"/>
<path d="M244.691 573.95C244.702 575.325 244.92 576.191 245.727 578.06C246.136 579.008 246.466 579.806 246.462 579.835C246.457 579.863 246.251 579.953 246.004 580.034C245.574 580.176 245.515 580.149 244.601 579.387C241.479 576.783 238.797 575.639 237.147 576.205C235.233 576.863 234.898 580.02 236.423 583.024C237.718 585.576 239.694 587.034 241.975 587.123C242.819 587.156 243.164 587.088 244.09 586.705C244.699 586.454 245.182 586.308 245.163 586.381C245.144 586.455 244.714 586.883 244.206 587.334C241.712 589.55 240.39 591.976 240.559 594.026C240.682 595.515 241.738 596.862 243.325 597.553C245.993 598.716 248.962 597.461 250.046 594.713C250.567 593.394 250.61 592.377 250.253 589.788C250.047 588.286 249.984 587.42 250.078 587.363C250.159 587.316 250.355 587.062 250.513 586.8L250.802 586.324L252.344 587.468C253.915 588.633 255.032 589.33 256.258 589.91C257.954 590.713 259.837 590.817 260.683 590.155C262.535 588.705 261.96 584.557 259.536 581.895C257.57 579.735 254.95 579.142 252.799 580.371C252.317 580.647 251.628 580.993 251.268 581.139L250.614 581.406L251.463 579.802C252.608 577.638 253.209 576.109 253.546 574.497C254.183 571.454 253.342 569.225 251.255 568.419C249.647 567.8 247.717 568.273 246.524 569.46C245.331 570.647 244.677 572.338 244.691 573.95V573.95Z" fill="#F9D90F" stroke="black" stroke-width="0.449764"/>
<path d="M244.873 582.033C245.309 581.064 246.049 580.282 246.93 579.858C247.812 579.434 248.763 579.404 249.575 579.774C250.386 580.144 250.992 580.883 251.258 581.83C251.524 582.777 251.429 583.853 250.994 584.823C250.558 585.792 249.818 586.574 248.937 586.998C248.055 587.422 247.104 587.452 246.292 587.082C245.481 586.713 244.875 585.973 244.609 585.026C244.343 584.079 244.438 583.003 244.873 582.033V582.033Z" fill="#F9D90F" stroke="black" stroke-width="0.45"/>
<path d="M225.072 612.029C224.908 610.499 225.038 609.508 225.689 607.321C226.019 606.213 226.282 605.281 226.273 605.251C226.264 605.22 226.026 605.148 225.742 605.091C225.248 604.992 225.186 605.03 224.275 606.001C221.159 609.318 218.343 610.954 216.446 610.549C214.247 610.079 213.471 606.618 214.77 603.073C215.874 600.062 217.869 598.174 220.378 597.764C221.307 597.613 221.697 597.641 222.77 597.94C223.475 598.137 224.027 598.233 223.997 598.155C223.966 598.076 223.436 597.658 222.817 597.227C219.776 595.104 218.003 592.589 217.927 590.288C217.871 588.617 218.865 586.978 220.531 585.994C223.329 584.34 226.771 585.33 228.323 588.235C229.067 589.629 229.245 590.753 229.184 593.678C229.149 595.375 229.191 596.345 229.303 596.395C229.398 596.437 229.647 596.693 229.856 596.962L230.236 597.451L231.793 595.971C233.379 594.463 234.524 593.536 235.805 592.725C237.575 591.603 239.643 591.231 240.662 591.851C242.896 593.21 242.793 597.896 240.457 601.183C238.562 603.85 235.743 604.865 233.208 603.792C232.639 603.552 231.833 603.261 231.417 603.147L230.66 602.94L231.804 604.606C233.348 606.854 234.208 608.471 234.788 610.216C235.883 613.51 235.24 616.101 233.037 617.279C231.34 618.186 229.146 617.924 227.675 616.767C226.204 615.61 225.264 613.821 225.072 612.029V612.029Z" fill="#F9D90F" stroke="black" stroke-width="0.45"/>
<path d="M230.714 601.948C230.308 603.093 229.578 604.045 228.684 604.595C227.791 605.146 226.808 605.249 225.951 604.882C225.094 604.516 224.434 603.709 224.115 602.64C223.797 601.572 223.846 600.328 224.253 599.183C224.659 598.038 225.389 597.086 226.283 596.535C227.176 595.985 228.159 595.882 229.016 596.248C229.873 596.615 230.533 597.422 230.852 598.49C231.17 599.559 231.121 600.803 230.714 601.948V601.948Z" fill="#F9D90F" stroke="black" stroke-width="0.45"/>
<path d="M246.382 596.836C246.244 598.342 246.386 599.313 247.06 601.449C247.401 602.531 247.674 603.441 247.666 603.471C247.658 603.501 247.424 603.577 247.145 603.639C246.66 603.746 246.599 603.71 245.687 602.774C242.57 599.577 239.773 598.026 237.912 598.462C235.754 598.967 235.042 602.384 236.374 605.84C237.506 608.777 239.498 610.592 241.974 610.944C242.891 611.075 243.274 611.039 244.326 610.723C245.017 610.516 245.559 610.41 245.531 610.488C245.502 610.567 244.986 610.987 244.384 611.424C241.421 613.57 239.713 616.076 239.673 618.338C239.643 619.981 240.646 621.572 242.3 622.505C245.08 624.074 248.453 623.033 249.937 620.148C250.65 618.763 250.808 617.656 250.704 614.783C250.644 613.116 250.671 612.162 250.78 612.111C250.874 612.068 251.115 611.812 251.316 611.543L251.683 611.054L253.238 612.478C254.822 613.928 255.963 614.816 257.236 615.587C258.996 616.654 261.037 616.978 262.031 616.348C264.21 614.968 264.038 610.367 261.689 607.184C259.784 604.602 256.994 603.661 254.514 604.765C253.958 605.013 253.169 605.315 252.761 605.435L252.019 605.654L253.12 603.994C254.606 601.755 255.429 600.149 255.974 598.423C257.003 595.165 256.331 592.632 254.144 591.519C252.46 590.661 250.304 590.963 248.874 592.129C247.443 593.295 246.544 595.071 246.382 596.836V596.836Z" fill="#F9D90F" stroke="black" stroke-width="0.45"/>
<path d="M248.378 603.979C247.314 604.169 246.351 604.738 245.701 605.559C245.051 606.38 244.768 607.386 244.912 608.356C245.057 609.326 245.618 610.18 246.473 610.731C247.328 611.282 248.405 611.484 249.469 611.293C250.533 611.102 251.496 610.534 252.146 609.713C252.796 608.892 253.08 607.886 252.935 606.916C252.79 605.946 252.229 605.092 251.374 604.541C250.52 603.99 249.442 603.788 248.378 603.979V603.979Z" fill="#F9D90F" stroke="black" stroke-width="0.45"/>
<path d="M472.802 640.504H464.329V634.109H457.111V626.801H448.847L448.841 580.425L439.429 562.936L430.017 580.425V626.801H421.754V634.109H414.536V640.504H406.062V649.944L472.802 650.146V640.504Z" fill="white" stroke="black" stroke-width="0.8"/>
<path d="M339.296 931.621C373.206 931.737 414.912 924.385 434.447 913.658L477.353 909.624L478.207 965.218C441.862 986.5 357.941 991.073 339.478 990.919C320.996 991.073 236.04 986.425 199.531 965.064L200.004 909.431L243 913.541C262.535 924.214 305.513 931.621 339.387 931.621H339.296" fill="#F9D90F"/>
<path d="M199.531 965.065L243.777 954.317L199.679 947.615L199.531 965.065Z" fill="#F9B60F"/>
<path d="M89.0778 694.491L126.877 707.265L115.446 772.256L79.6644 778.159C79.6644 778.159 73.6311 743.986 89.0778 694.452" fill="#F9D90F"/>
<path d="M79.6641 778.161L102.907 744.103L115.446 772.258L79.6641 778.161Z" fill="#F9B60F"/>
<path d="M89.0778 694.491L126.877 707.265L115.446 772.256L79.6644 778.159C79.6644 778.159 73.6311 743.986 89.0778 694.452V694.491V694.491Z" stroke="black" stroke-width="0.40063"/>
<path d="M199.531 965.065L244.059 954.317" stroke="black" stroke-width="0.40063"/>
<path d="M102.941 743.896L115.445 772.257" stroke="black" stroke-width="0.40063"/>
<path d="M478.207 965.218L433.961 954.47L478.059 947.769L478.207 965.218Z" fill="#F9B60F"/>
<path d="M588.658 694.644L550.859 707.418L562.29 772.41L598.072 778.313C598.072 778.313 604.105 744.139 588.658 694.605" fill="#F9D90F"/>
<path d="M598.071 778.314L574.828 744.256L562.289 772.411L598.071 778.314Z" fill="#F9B60F"/>
<path d="M588.658 694.644L550.859 707.418L562.29 772.41L598.072 778.313C598.072 778.313 604.105 744.139 588.658 694.605V694.645V694.644Z" stroke="black" stroke-width="0.40063"/>
<path d="M478.204 965.219L433.676 954.471" stroke="black" stroke-width="0.40063"/>
<path d="M574.793 744.05L562.289 772.411" stroke="black" stroke-width="0.40063"/>
<path d="M339.296 931.621C373.206 931.737 414.912 924.385 434.447 913.658L477.353 909.624L478.207 965.218C441.862 986.5 357.941 991.073 339.478 990.919C320.996 991.073 236.04 986.425 199.531 965.064L200.004 909.431L243 913.541C262.535 924.214 305.513 931.621 339.387 931.621H339.296" stroke="black" stroke-width="0.40063"/>
<path d="M611.263 741.46L574.827 744.256C574.01 777.042 570.266 902.159 429.574 908.951L433.954 954.471C605.212 956.36 618.223 801.008 611.263 741.46Z" fill="#F9D90F"/>
<path d="M611.263 741.46L574.827 744.256C574.01 777.042 570.266 902.159 429.574 908.951L433.954 954.471C605.212 956.36 618.223 801.008 611.263 741.46Z" stroke="black" stroke-width="0.40063"/>
<path d="M66.471 741.306L102.907 744.102C103.724 776.888 107.468 902.005 248.16 908.797L243.78 954.317C72.5224 956.206 59.5108 800.854 66.471 741.306Z" fill="#F9D90F"/>
<path d="M66.471 741.306L102.907 744.102C103.724 776.888 107.468 902.005 248.16 908.797L243.78 954.317C72.5224 956.206 59.5108 800.854 66.471 741.306Z" stroke="black" stroke-width="0.40063"/>
<path d="M315.408 959.023C314.445 959.68 313.137 959.855 311.628 959.776L304.832 959.409L305.413 950.4L312.155 950.784C313.482 950.88 314.536 951.153 315.19 951.575C316.553 952.328 317.153 953.719 317.026 955.647C316.935 957.306 316.389 958.389 315.39 959.023H315.408ZM303.978 973.208L304.65 962.227L312.573 962.808C315.136 963.02 317.044 962.306 318.334 960.915C319.679 959.564 320.369 957.791 320.46 955.784C320.624 953.447 320.06 951.537 318.752 950.128C317.498 948.777 315.717 948.063 313.482 947.834L302.16 947.081L300.598 972.936L303.96 973.17" fill="#012A87"/>
<path d="M329.737 951.575L338.024 951.672C339.223 951.787 340.168 951.942 340.859 952.289C342.131 952.926 342.731 954.2 342.731 956.052C342.731 957.791 342.258 958.948 341.331 959.643C340.441 960.278 339.151 960.567 337.606 960.567L329.646 960.471L329.719 951.575H329.737ZM329.592 974.48L329.665 963.442L337.443 963.56C338.824 963.56 339.841 963.674 340.55 964.041C341.695 964.6 342.258 965.779 342.313 967.398L342.513 971.74C342.568 972.782 342.586 973.421 342.64 973.843C342.749 974.152 342.804 974.48 342.949 974.713H347.129L347.056 974.152C346.583 973.882 346.202 973.363 346.038 972.57C345.893 972.068 345.82 971.315 345.784 970.37L345.711 966.916C345.656 965.353 345.402 964.274 344.839 963.674C344.348 962.979 343.676 962.381 342.64 962.015C343.803 961.361 344.675 960.608 345.311 959.68C345.911 958.657 346.22 957.364 346.22 955.784C346.22 952.812 345.075 950.784 342.749 949.686C341.495 949.088 339.896 948.777 338.006 948.741L326.321 948.623L326.23 974.557H329.592" fill="#012A87"/>
<path d="M357.273 969.058C355.783 967.131 354.983 964.719 354.802 961.863C354.638 958.272 355.292 955.534 356.837 953.679C358.4 951.672 360.417 950.71 363.052 950.555C365.705 950.401 367.886 951.308 369.503 953.081C371.157 954.82 372.102 957.232 372.265 960.242C372.356 963.134 371.884 965.701 370.63 967.958C369.394 970.257 367.341 971.55 364.306 971.625C361.144 971.8 358.781 971.009 357.273 969.058ZM353.275 952.734C351.712 955.3 351.076 958.272 351.24 961.863C351.476 965.739 352.603 968.944 354.729 971.357C357.091 973.769 360.217 974.982 364.07 974.751C368.195 974.558 371.302 972.898 373.41 969.851C375.119 967.092 375.936 963.887 375.755 959.931C375.518 956.4 374.555 953.525 372.756 951.383C370.485 948.508 367.159 947.236 362.652 947.429C358.4 947.717 355.274 949.376 353.257 952.734" fill="#012A87"/>
<path d="M83.1522 789.456L83.7155 792.696C82.3527 792.985 81.2623 793.566 80.4627 794.319C79.0271 795.745 78.5364 797.888 79.027 800.802C79.2454 802.035 79.6631 803.251 80.1901 804.218C81.2808 806.186 82.6979 806.975 84.497 806.666C85.8237 806.416 86.6959 805.877 87.1139 804.874C87.5136 803.888 87.8048 802.383 87.8955 800.455L88.0591 796.806C88.171 794.548 88.404 792.775 88.8765 791.789C89.6212 790.014 91.0209 788.914 93.1107 788.549C95.3459 788.123 97.3086 788.663 98.9986 790.014C100.707 791.268 101.834 793.448 102.252 796.343C102.779 798.988 102.543 801.362 101.56 803.502C100.615 805.588 98.7983 806.859 96.0179 807.4L95.4725 804.121C96.7627 803.62 97.7259 803.135 98.362 802.462C99.4528 801.167 99.7794 799.297 99.3609 796.731C99.0339 794.645 98.362 793.294 97.3437 792.621C96.3448 791.828 95.3448 791.519 94.2545 791.714C93.0368 791.907 92.2373 792.621 91.8556 793.778C91.6193 794.548 91.4379 796.15 91.2744 798.602L91.1109 802.383C91.0213 804.158 90.766 805.626 90.2027 806.63C89.3124 808.48 87.8039 809.619 85.605 809.985C82.8246 810.487 80.6802 809.812 79.1538 807.921C77.5909 806.068 76.6277 803.849 76.1371 801.09C75.5918 797.809 75.9915 795.262 77.2278 793.219C78.4818 791.116 80.4626 789.9 83.1522 789.495" fill="#012A87"/>
<path d="M81.6055 823.669L105.629 815.989L111.227 833.952L108.301 834.936L103.721 820.175L96.416 822.511L100.65 836.152L97.8516 837.097L93.6538 823.418L85.5125 826.002L90.1646 841.092L87.2935 841.962L81.6055 823.669" fill="#012A87"/>
<path d="M92.2578 854.809L114.356 842.365L116.718 846.744L101.526 863.801L123.714 859.769L126.004 864.112L103.961 876.481L102.398 873.604L115.41 866.331C115.882 866.04 116.609 865.615 117.663 865.019C118.699 864.517 119.862 863.84 121.025 863.203L98.9271 867.198L97.3097 864.149L112.393 847.149L111.666 847.537C111.194 847.824 110.376 848.251 109.267 848.924C108.177 849.64 107.359 850.082 106.832 850.313L93.8571 857.704L92.2579 854.773" fill="#012A87"/>
<path d="M133.434 889.371C132.326 889.103 131.236 888.425 130.163 887.248L125.493 882.135L131.781 876.018L136.488 881.114C137.396 882.059 137.978 882.984 138.287 883.777C138.722 885.299 138.287 886.691 136.96 888.001C135.761 889.178 134.561 889.66 133.434 889.371ZM115.68 891.744L123.385 884.238L128.855 890.123C130.618 892.034 132.417 892.902 134.307 892.865C136.233 892.748 137.887 891.995 139.341 890.529C140.976 888.985 141.757 887.171 141.757 885.224C141.735 883.331 140.922 881.558 139.413 879.898L131.563 871.387L113.281 889.216L115.644 891.744" fill="#012A87"/>
<path d="M137.723 912.584L150.97 890.528L166.635 900.64L165 903.266L152.133 895.084L148.154 901.761L159.984 909.381L158.457 911.91L146.609 904.327L142.102 911.793L155.132 920.111L153.569 922.716L137.723 912.584" fill="#012A87"/>
<path d="M176.939 908.319L184.899 911.003C186.026 911.367 186.843 911.831 187.388 912.353C188.406 913.376 188.679 914.841 188.079 916.616C187.589 918.16 186.844 919.163 185.681 919.59C184.645 919.781 183.336 919.781 181.81 919.279L174.305 916.734L176.94 908.319L176.939 908.319ZM170.07 929.988L173.378 919.472L180.792 922.038C182.119 922.407 183.082 922.909 183.554 923.428C184.463 924.296 184.736 925.589 184.281 927.192L183.173 931.378C182.918 932.4 182.791 933.076 182.682 933.385C182.682 933.714 182.682 934.062 182.738 934.291L186.645 935.642L186.881 935.044C186.464 934.697 186.227 934.062 186.245 933.271C186.335 932.786 186.464 932.016 186.718 931.127L187.663 927.769C188.045 926.303 188.191 925.203 187.844 924.414C187.553 923.582 187.063 922.829 186.245 922.117C187.481 921.884 188.553 921.479 189.462 920.765C190.316 919.974 191.043 918.874 191.479 917.332C192.369 914.532 191.879 912.197 189.916 910.422C188.935 909.498 187.536 908.704 185.7 907.971L174.579 904.326L166.801 928.927L170.054 929.988" fill="#012A87"/>
<path d="M466.757 913.855C469.064 913.546 471.049 913.753 472.835 914.494C475.465 915.503 477.178 917.679 478.173 920.931L474.869 921.269C474.225 919.505 473.259 918.272 471.916 917.547C470.608 916.866 468.945 916.636 467.015 916.851C464.763 917.105 462.924 918.208 461.589 920.054C460.268 922.029 459.79 924.727 460.206 928.217C460.558 931.104 461.458 933.579 463.03 935.274C464.475 937.002 466.673 937.689 469.584 937.389C471.766 937.112 473.542 936.271 474.828 934.743C476.165 933.297 476.626 931.033 476.314 928.074L468.611 928.966L468.328 926.16L479.051 924.917L480.612 938.408L478.485 938.649L477.29 935.499C476.348 936.854 475.419 937.887 474.613 938.471C473.257 939.504 471.454 940.12 469.221 940.356C466.325 940.692 463.718 940.024 461.401 938.294C458.869 936.12 457.3 932.99 456.824 928.723C456.292 924.528 457.052 920.994 458.972 918.27C460.799 915.639 463.364 914.172 466.759 913.817" fill="#012A87"/>
<path d="M491.492 912.023L499.252 909.44C500.317 909.077 501.23 908.985 502.008 909.117C503.409 909.293 504.406 910.225 504.924 912.02C505.417 913.55 505.366 914.867 504.708 915.762C504.013 916.689 502.954 917.34 501.438 917.852L494.148 920.249L491.492 912.022L491.492 912.023ZM498.329 933.278L494.987 922.966L502.205 920.583C503.556 920.193 504.491 919.991 505.181 920.1C506.437 920.326 507.366 921.181 507.947 922.751L509.415 926.684C509.734 927.658 509.996 928.254 510.217 928.53C510.31 928.874 510.534 929.091 510.703 929.323L514.62 927.998L514.427 927.443C513.858 927.417 513.32 927.052 512.937 926.373C512.653 925.891 512.394 925.201 512.016 924.392L510.876 921.171C510.36 919.772 509.806 918.9 509.15 918.359C508.49 917.933 507.646 917.63 506.635 917.51C507.455 916.584 508.061 915.651 508.318 914.532C508.594 913.397 508.537 912.113 508.077 910.66C507.203 907.924 505.464 906.374 502.946 906.07C501.616 905.896 500.075 906.126 498.289 906.701L487.392 910.252L495.148 934.43L498.343 933.352" fill="#012A87"/>
<path d="M527.049 920.972L514.238 899.265L529.587 889.842L531.141 892.463L518.562 900.201L522.506 906.836L534.121 899.636L535.571 902.175L523.956 909.377L528.3 916.69L541.099 908.808L542.655 911.372L527.032 920.972" fill="#012A87"/>
<path d="M540.482 883.286L544.572 878.916C546.465 876.968 548.422 876.136 550.511 876.496C552.602 876.781 554.692 878.045 556.887 880.256C557.49 880.792 558.016 881.476 558.557 882.235C559.5 883.654 560.04 884.887 560.367 886.106C560.629 887.627 560.504 888.996 559.955 890.289C559.627 890.932 559.064 891.678 558.228 892.565L554.121 896.897L540.483 883.25L540.482 883.286ZM560.769 894.112C563.67 891.007 564.41 887.556 562.943 883.551C562.083 881.381 560.722 879.246 558.8 877.349C556.383 874.882 553.814 873.558 551.066 873.207C548.016 872.82 545.373 873.868 543.013 876.376L536.049 883.628L553.785 901.44L560.75 894.15" fill="#012A87"/>
<path d="M575.727 874.1L554.938 860.132L556.787 857.349L577.616 871.244L575.744 874.138" fill="#012A87"/>
<path d="M584.363 858.465L561.827 847.776L569.246 831.142L571.984 832.395L565.929 846.106L572.718 849.274L578.373 836.65L580.967 837.917L575.367 850.522L582.958 854.174L589.162 840.302L591.9 841.534L584.345 858.464" fill="#012A87"/>
<path d="M595.59 828.297L571.698 821.587L572.654 817.708L595.236 810.822L575.85 805.39L576.684 802.349L600.581 808.907L599.666 812.676L577.041 819.73L596.431 825.069L595.608 828.298" fill="#012A87"/>
<path d="M594.395 794.994L594.823 791.835C596.216 791.937 597.404 791.765 598.317 791.304C600.108 790.393 601.201 788.556 601.578 785.786C601.736 784.486 601.728 783.343 601.484 782.248C601.048 780.135 599.968 778.925 598.17 778.656C596.835 778.445 595.857 778.737 595.13 779.472C594.47 780.321 593.759 781.558 593.188 783.329L591.95 786.582C591.15 788.712 590.43 790.175 589.682 790.983C588.477 792.5 586.847 792.968 584.797 792.725C582.608 792.382 580.857 791.385 579.657 789.573C578.416 787.908 577.969 785.588 578.403 782.764C578.719 780.181 579.627 778.035 581.162 776.347C582.583 774.804 584.722 774.133 587.409 774.555L587.034 777.717C585.712 777.656 584.648 777.851 583.857 778.376C582.432 779.115 581.596 780.778 581.266 783.25C580.989 785.296 581.203 786.687 581.913 787.769C582.629 788.68 583.554 789.282 584.658 789.426C585.834 789.591 586.778 789.242 587.459 788.321C587.95 787.687 588.559 786.294 589.4 784.033L590.627 780.611C591.226 779.03 591.918 777.828 592.703 776.985C594.101 775.59 595.877 775.054 598.068 775.325C600.738 775.744 602.604 776.99 603.504 779.163C604.385 781.354 604.667 783.741 604.329 786.418C603.905 789.445 602.864 791.792 601.05 793.318C599.234 794.878 597.031 795.338 594.395 794.994" fill="#012A87"/>
</g>
<defs>
<clipPath id="clip0">
<rect width="2000" height="1416.04" rx="186" fill="white"/>
</clipPath>
</defs>
</svg>
