<svg width="2000" height="1417" viewBox="0 0 2000 1417" fill="none" xmlns="http://www.w3.org/2000/svg">
<g clip-path="url(#clip0)">
<path d="M1817.18 0H203.66C104.715 0 24.5049 85.79 24.5049 191.617V1224.42C24.5049 1330.25 104.715 1416.04 203.66 1416.04H1817.18C1916.13 1416.04 1996.34 1330.25 1996.34 1224.42V191.617C1996.34 85.79 1916.13 0 1817.18 0Z" fill="#ED5565"/>
<path d="M863.096 999.663C837.181 1019.25 822.251 1008.1 829.575 974.958L857.744 851.732C864.143 814.903 852.82 777.099 827.603 751.103L743.096 673.07C719.153 650.775 725.35 632.095 756.899 630.89L874.927 627.274C908.565 624.737 937.573 601.054 948.73 567.017L985.913 431.439C994.927 398.9 1010.98 398.298 1021.69 431.439L1066.19 564.306C1078.82 598.57 1108.74 622.016 1143.1 624.563H1263.66C1295.21 624.563 1301.69 643.544 1277.74 665.839L1185.91 751.705C1160.81 777.478 1150.12 815.415 1157.74 851.732L1185.91 960.195C1194.65 993.035 1180 1005.09 1152.96 987.31L1055.21 922.534C1025.02 904.811 988.208 906.081 959.153 925.848L863.096 999.663Z" fill="#57A863"/>
</g>
<defs>
<clipPath id="clip0">
<rect width="2000" height="1416.04" fill="white"/>
</clipPath>
</defs>
</svg>
