<svg width="2000" height="1417" viewBox="0 0 2000 1417" fill="none" xmlns="http://www.w3.org/2000/svg">
<g clip-path="url(#clip0)">
<path d="M1818.29 0.000229327H182C133.757 -0.0797586 87.4637 20.0731 53.3239 56.017C19.184 91.9609 -5.96336e-05 140.745 1.39028e-10 191.618V723.084H2000V191.618C2000 140.797 1980.86 92.0588 1946.78 56.1236C1912.7 20.1884 1866.48 0.000229327 1818.29 0.000229327Z" fill="#ED5565"/>
<path d="M1.39028e-10 1224.42C-5.96336e-05 1275.29 19.184 1324.08 53.3239 1360.02C87.4637 1395.97 133.757 1416.12 182 1416.04H1818.29C1918.64 1416.04 2000 1330.25 2000 1224.42V723.084H1.39028e-10V1224.42Z" fill="white"/>
</g>
<defs>
<clipPath id="clip0">
<rect width="2000" height="1416.04" fill="white"/>
</clipPath>
</defs>
</svg>
