<svg width="2000" height="1417" viewBox="0 0 2000 1417" fill="none" xmlns="http://www.w3.org/2000/svg">
<g clip-path="url(#clip0)">
<path d="M190.141 0C91.1967 0 10.9863 85.79 10.9863 191.617V1224.42C10.9863 1330.25 91.1967 1416.04 190.141 1416.04H669.015C669.015 944.027 669.015 472.013 669.015 0H190.141Z" fill="#4758A9"/>
<path d="M668.449 0C668.449 472.013 668.449 944.027 668.449 1416.04H1326.2C1326.2 944.027 1326.2 472.013 1326.2 0H668.449Z" fill="#F6D660"/>
<path d="M1802.82 0H1326.2C1326.2 472.013 1326.2 944.027 1326.2 1416.04H1802.82C1901.76 1416.04 1981.97 1330.25 1981.97 1224.42V191.617C1981.97 85.79 1901.76 0 1802.82 0Z" fill="#ED5565"/>
<path d="M1185.64 868.302V817.084C1185.64 723.083 1183.38 580.274 1183.38 540.504C1183.66 524.725 1180.06 509.144 1172.96 495.311C1169.61 488.991 1165.43 483.209 1160.57 478.138C1157.44 474.903 1154.05 471.979 1150.42 469.401C1146.69 467.458 1142.33 467.458 1138.59 469.401C1136.72 470.01 1134.99 471.037 1133.52 472.414L1049.02 555.267C1047.69 556.373 1045.83 556.373 1044.51 555.267L1042.26 551.35L1038.88 548.036L1036.06 544.421L1033.8 542.312C1027.14 529.3 1023.75 514.664 1023.95 499.831C1023.95 493.504 1028.45 487.177 1031.83 473.92C1034.25 464.101 1035.11 453.916 1034.37 443.792C1034.29 442.05 1033.14 440.576 1031.55 440.176C1024.23 437.822 1017.07 434.902 1010.14 431.439C1001.39 426.808 991.741 424.435 981.974 424.509C977.44 424.055 972.873 424.886 968.735 426.92C965.636 429.029 965.918 432.042 964.791 432.945C962.119 434.795 958.948 435.642 955.777 435.356C941.974 435.356 941.692 451.023 941.692 451.023C947.765 453.218 953.542 456.257 958.875 460.061C967.493 467.958 971.831 479.953 970.425 491.997C971.382 509.25 967.873 526.451 960.284 541.709L958.312 544.12L955.495 547.735L952.115 551.049L950.143 552.857C948.819 553.963 946.96 553.963 945.636 552.857L861.129 470.004C859.657 468.626 857.929 467.599 856.059 466.991C852.324 465.047 847.962 465.047 844.228 466.991C840.607 469.569 837.213 472.493 834.087 475.728C830.729 479.319 827.71 483.255 825.073 487.478C815.752 502.547 811.028 520.336 811.551 538.395C811.551 578.165 811.551 720.974 809.298 814.975V887.283C809.182 889.838 810.516 892.216 812.678 893.309C814.646 894.686 817.189 894.686 819.157 893.309L823.101 889.392L832.397 879.751L837.467 874.027C866.076 843.835 885.681 805.254 893.805 763.154L900.284 767.071L906.763 771.289C918.594 778.821 934.932 789.667 930.425 792.077C925.918 794.488 902.256 827.328 885.918 849.623H883.664C873.708 849.623 865.636 858.256 865.636 868.905C865.636 879.554 873.708 888.187 883.664 888.187C889.793 888.241 895.528 884.96 898.888 879.477C902.248 873.995 902.774 867.062 900.284 861.072L954.932 789.064L978.03 795.693V799.007L909.298 915.604C908.559 916.999 908.08 918.534 907.889 920.124C907.26 924.851 909.234 929.544 912.96 932.175L985.918 988.214C987.39 989.273 989.005 990.086 990.706 990.624H995.777H1000.85C1002.55 990.086 1004.16 989.273 1005.64 988.214L1083.38 933.983C1087.11 931.351 1089.08 926.659 1088.45 921.931C1088.26 920.341 1087.78 918.806 1087.04 917.412L1018.31 800.815V797.5L1041.41 790.872L1096.06 862.879C1093.57 868.869 1094.09 875.802 1097.45 881.285C1100.81 886.767 1106.55 890.048 1112.68 889.995C1122.63 889.995 1130.71 881.362 1130.71 870.713C1130.71 860.063 1122.63 851.431 1112.68 851.431H1110.42C1093.52 829.135 1069.02 796.898 1065.92 793.885C1062.82 790.872 1077.75 780.628 1089.58 773.096L1096.06 768.878L1102.54 764.962C1110.66 807.061 1130.27 845.643 1158.88 875.835L1163.95 881.559L1173.24 891.2L1177.19 895.117C1179.15 896.494 1181.7 896.494 1183.66 895.117C1185.83 894.024 1187.16 891.646 1187.04 889.091L1185.64 868.302Z" fill="#866F57"/>
<path fill-rule="evenodd" clip-rule="evenodd" d="M903.098 578.473H1090.42V745.988C1090.42 777.27 1066.71 802.629 1037.46 802.629H956.055C926.808 802.629 903.098 777.27 903.098 745.988V578.473Z" stroke="#F6D660" stroke-linecap="round" stroke-linejoin="round"/>
<path d="M1090.42 578.473H903.098V683.019H1090.42V578.473Z" fill="#ED5565"/>
<path d="M956.055 802.628H1037.46C1066.71 802.628 1090.42 777.269 1090.42 745.986V682.717H903.098V745.986C903.098 777.269 926.808 802.628 956.055 802.628Z" fill="#0046AE"/>
<path d="M1020.85 680.597C1034.71 676.408 1044.26 662.861 1044.23 647.455C1044.23 626.366 1020.85 617.327 1020 611C1017.75 619.737 1027.89 631.487 1027.89 645.648C1027.89 659.808 1015.21 664.93 1015.21 664.93C1015.21 664.93 1010.99 667.039 1009.86 667.039C1008.73 667.039 1006.2 663.424 1003.66 663.424C1001.13 663.424 999.72 667.34 996.621 667.34C993.523 667.34 991.833 663.424 989.579 663.424C987.326 663.424 985.917 666.738 983.382 667.039C980.847 667.34 981.128 664.93 978.03 664.93C974.931 664.93 965.354 664.93 965.354 645.648C965.354 626.366 975.495 619.436 973.241 611C973.241 616.122 949.016 626.366 949.016 647.455C948.978 662.861 958.536 676.408 972.396 680.597L965.635 693.552C970.965 693.714 976.142 695.49 980.565 698.674C986.762 704.398 986.199 716.45 986.199 725.187C986.885 731.278 985.374 737.42 981.974 742.36C977.466 746.277 974.65 746.578 974.65 751.399C974.65 756.219 977.466 756.219 981.974 758.63C986.481 761.04 987.607 766.463 996.34 766.463C1005.07 766.463 1004.79 761.944 1010.71 758.63C1016.62 755.316 1018.03 755.316 1018.03 751.399C1018.03 747.482 1014.93 746.277 1010.71 742.36C1007.31 737.42 1005.79 731.278 1006.48 725.187C1006.48 716.45 1006.48 704.398 1012.11 698.674C1016.54 695.49 1021.71 693.714 1027.04 693.552L1020.85 680.597Z" fill="#F6D660" stroke="#F6D660" stroke-width="0.08" stroke-linecap="round" stroke-linejoin="round"/>
<path d="M996.901 608.602L992.957 620.352L982.535 614.929L987.605 626.076L976.619 630.294L987.605 634.512L982.535 645.66L992.957 640.237L996.901 651.987L1000.84 640.237L1011.27 645.66L1006.2 634.512L1017.18 630.294L1006.2 626.076L1011.27 614.929L1000.84 620.352L996.901 608.602Z" fill="#F6D660" stroke="#F6D660" stroke-width="0.08" stroke-linecap="round" stroke-linejoin="round"/>
<path d="M969.293 681.807C961.042 679.768 953.454 675.398 947.321 669.153C940.706 675.361 932.927 679.984 924.504 682.711C932.507 686.657 940.146 691.398 947.321 696.871C953.739 690.478 961.182 685.375 969.293 681.807Z" fill="#F6D660" stroke="#F6D660" stroke-width="0.08" stroke-linecap="round" stroke-linejoin="round"/>
<path d="M1024.5 681.807C1032.61 685.375 1040.06 690.478 1046.48 696.871C1053.65 691.398 1061.29 686.657 1069.29 682.711C1060.87 679.984 1053.09 675.361 1046.48 669.153C1040.34 675.398 1032.75 679.768 1024.5 681.807Z" fill="#F6D660" stroke="#F6D660" stroke-width="0.08" stroke-linecap="round" stroke-linejoin="round"/>
<path d="M976.341 733.933C976.643 737.843 976.643 741.773 976.341 745.683C981.142 744.024 984.778 739.793 985.918 734.536C985.918 730.619 987.608 715.555 983.665 713.145L973.242 711.036C975.712 718.483 976.951 726.333 976.904 734.235L976.341 733.933Z" fill="#F6D660" stroke="#F6D660" stroke-width="0.08" stroke-linecap="round" stroke-linejoin="round"/>
<path d="M1010.71 713.137C1006.76 715.548 1007.61 730.612 1008.45 734.529C1009.59 739.785 1013.23 744.017 1018.03 745.676C1017.73 741.766 1017.73 737.836 1018.03 733.926C1017.98 726.024 1019.22 718.173 1021.69 710.727L1010.71 713.137Z" fill="#F6D660" stroke="#F6D660" stroke-width="0.08" stroke-linecap="round" stroke-linejoin="round"/>
<path d="M947.608 717.961C944.053 718.991 941.923 722.876 942.819 726.698V728.204H940.565C937.428 728.9 935.178 731.857 935.178 735.284C935.178 738.712 937.428 741.669 940.565 742.365H942.256V743.871C940.928 746.312 941.05 749.356 942.568 751.666C944.086 753.976 946.723 755.129 949.319 754.62C951.916 754.11 953.998 752.03 954.65 749.294C954.724 748.694 954.724 748.086 954.65 747.486C956.344 749.831 959.204 750.833 961.866 750.015C964.529 749.197 966.455 746.725 966.728 743.776C967 740.827 965.562 737.999 963.101 736.64H964.509C967.601 734.462 968.479 730.03 966.481 726.698C965.187 724.405 962.775 723.115 960.284 723.384C959.265 723.127 958.204 723.127 957.185 723.384C957.274 721.385 956.55 719.442 955.2 718.057C953.851 716.671 952.007 715.977 950.143 716.153L947.608 717.961Z" fill="#F6D660" stroke="#F6D660" stroke-width="0.08" stroke-linecap="round" stroke-linejoin="round"/>
<path d="M1026.2 739.059C1027.29 746.914 1032.77 753.252 1040 755.027C1038.75 752.828 1037.98 750.356 1037.75 747.796C1037.33 743.44 1038.71 739.107 1041.53 735.925C1044.34 732.743 1048.31 731.028 1052.4 731.225H1056.62C1053.25 726.3 1047.96 723.301 1042.26 723.091C1038.04 722.442 1033.78 723.868 1030.66 726.969C1027.54 730.071 1025.9 734.515 1026.2 739.059Z" fill="#F6D660" stroke="#F6D660" stroke-width="0.08" stroke-linecap="round" stroke-linejoin="round"/>
</g>
<defs>
<clipPath id="clip0">
<rect width="2000" height="1416.04" fill="white"/>
</clipPath>
</defs>
</svg>
