<svg width="2000" height="1417" viewBox="0 0 2000 1417" fill="none" xmlns="http://www.w3.org/2000/svg">
<path d="M1807.32 19.4778H193.803C94.8588 19.4778 14.6484 103.48 14.6484 207.103V1218.39C14.6484 1322.01 94.8588 1406.02 193.803 1406.02H1807.32C1906.27 1406.02 1986.48 1322.01 1986.48 1218.39V207.103C1986.48 103.48 1906.27 19.4778 1807.32 19.4778Z" fill="#57A863"/>
<path d="M1761.13 255.471V1170H240.005V255.471H1761.13ZM1807.33 19.4648H194.09C95.145 19.4648 14.9346 103.467 14.9346 207.09V1218.08C14.9346 1321.71 95.145 1405.71 194.09 1405.71H1807.33C1906.27 1405.71 1986.48 1321.71 1986.48 1218.08V206.5C1986.48 102.877 1906.27 18.8748 1807.33 18.8748V19.4648Z" fill="#ED5565"/>
<path d="M1185.64 894.758C1175.84 899.762 1165.67 903.906 1155.21 907.148C1106.8 922.26 1054.64 916.606 1010.21 891.432C965.782 866.257 932.723 823.626 918.313 772.92C907.844 732.794 908.824 690.336 921.13 650.786C955.136 545.68 1063.26 488.468 1164.23 522.163C1174.51 525.603 1184.5 529.945 1194.09 535.143C1197.5 536.134 1201.06 534.204 1202.26 530.718C1203.13 527.855 1202.09 524.735 1199.72 523.048C1175.55 501.114 1147.37 484.553 1116.9 474.371C990.061 432.109 854.263 504.006 811.553 636.036C783.076 724.46 804.203 822.136 866.283 889.078C928.363 956.02 1020.97 980.988 1106.2 953.76C1137.02 944.331 1165.74 928.588 1190.71 907.443C1193.19 905.841 1194.34 902.702 1193.52 899.773C1192.57 896.21 1189.06 894.109 1185.64 895.053V894.758Z" fill="white"/>
</svg>
