<svg width="2000" height="1417" viewBox="0 0 2000 1417" fill="none" xmlns="http://www.w3.org/2000/svg">
<path d="M183.382 28.0255C84.4379 28.0255 4.22754 112.028 4.22754 215.651V1226.64C4.22754 1330.27 84.4379 1414.27 183.382 1414.27H662.256C662.256 952.09 662.256 489.91 662.256 27.7305L183.382 28.0255Z" fill="#57A863"/>
<path d="M661.691 28.025C661.691 490.205 661.691 952.384 661.691 1414.56H1319.44C1319.44 952.384 1319.44 490.205 1319.44 28.025H661.691Z" fill="white"/>
<path d="M1796.62 28.025H1319.16C1319.16 490.205 1319.16 952.384 1319.16 1414.56H1796.62C1895.56 1414.56 1975.77 1330.56 1975.77 1226.94V215.945C1975.85 166.133 1957.01 118.334 1923.4 83.0834C1889.8 47.833 1844.18 28.0249 1796.62 28.025Z" fill="#ED5565"/>
<path d="M1247.89 777.943C1255.05 772.121 1259.63 763.489 1260.56 754.047C1261.45 745.183 1259.03 736.303 1253.8 729.266C1253.71 725.038 1251.3 721.245 1247.61 719.531H1244.51C1243.37 716.634 1241.96 713.867 1240.28 711.271C1238.25 708.858 1235.33 707.475 1232.25 707.475C1229.18 707.475 1226.26 708.858 1224.23 711.271C1221.28 714.571 1218.72 718.237 1216.62 722.186C1213.92 720.077 1210.69 718.846 1207.32 718.646C1204.64 718.411 1201.98 719.375 1200 721.301C1196.31 725.572 1196.31 732.076 1200 736.347C1200.36 737.697 1200.36 739.126 1200 740.477V744.607C1198.07 752.044 1198.07 759.885 1200 767.322C1194.01 769.539 1189.97 775.421 1189.86 782.073C1190.07 784.733 1190.74 787.332 1191.83 789.743C1192.88 791.977 1194.55 793.827 1196.62 795.053C1191.99 797.356 1187.64 800.228 1183.66 803.608C1173.87 810.971 1168.1 822.847 1168.17 835.469C1168.07 837.14 1168.07 838.814 1168.17 840.484C1163.54 840.001 1158.98 841.998 1156.06 845.795C1154.21 848.012 1152.87 850.633 1152.11 853.465C1151.51 855.178 1151.51 857.061 1152.11 858.775H1149.86C1144.44 859.237 1140.26 863.991 1140.28 869.69C1140.21 870.377 1140.21 871.069 1140.28 871.755C1138.33 873.753 1136.26 875.625 1134.09 877.361C1126.06 883.014 1119.56 890.735 1115.21 899.781C1111.39 897.514 1106.84 896.988 1102.64 898.326C1098.43 899.664 1094.93 902.749 1092.96 906.861C1092.96 908.336 1092.96 906.861 1092.96 910.106C1092.96 913.352 1092.96 914.237 1092.96 914.827C1092.77 915.999 1092.77 917.195 1092.96 918.367C1088.47 916.162 1083.54 915.149 1078.59 915.417C1070.32 915.224 1062.15 917.364 1054.93 921.612C1051.19 924.073 1047.86 927.163 1045.07 930.757C1043.45 932.889 1041.55 934.775 1039.44 936.362C1036.95 937.852 1034.3 939.04 1031.55 939.902H1027.61C1024.43 938.61 1021.12 937.719 1017.75 937.247C1012.88 936.687 1007.97 936.687 1003.1 937.247C998.874 937.247 995.494 943.442 994.085 948.458C993.941 944.404 991.663 940.769 988.17 939.017C983.194 936.65 977.849 935.251 972.395 934.887C966.198 935.07 960.048 936.061 954.085 937.837C951.825 933.518 947.755 930.567 943.099 929.872H940.001C936.359 925.037 930.937 922.037 925.071 921.612C920.625 921.084 916.128 921.903 912.113 923.972C909.709 922.519 907 921.708 904.226 921.612C899.826 921.238 895.441 922.49 891.832 925.152V923.382C892.074 922.515 892.074 921.594 891.832 920.727C891.937 919.254 891.937 917.775 891.832 916.302C892.305 914.767 892.305 913.116 891.832 911.581C891.409 910.426 890.841 909.334 890.141 908.336C889.136 906.933 887.895 905.734 886.479 904.796C883.044 899.04 876.3 896.483 870.141 898.601C869.065 897.592 867.825 896.793 866.479 896.241C866.355 893.188 865.686 890.186 864.508 887.391C861.577 880.631 856.05 875.486 849.296 873.23C847.933 868.023 844.567 863.643 840.001 861.135C836.984 860.078 833.721 860.078 830.705 861.135V859.66C830.956 858.296 830.956 856.894 830.705 855.53C830.215 853.272 829.253 851.156 827.888 849.335C827.264 842.885 822.692 837.618 816.62 836.354C817.007 832.589 815.645 828.858 812.958 826.324C812.043 825.459 810.996 824.76 809.86 824.259C809.744 820.603 808.98 817.002 807.606 813.639C805.723 805.925 798.854 800.716 791.268 801.248C789.431 798.879 786.823 797.303 783.944 796.823V794.758H787.888C790.878 792.773 793.232 789.896 794.648 786.498C795.464 784.013 795.464 781.313 794.648 778.828C797.001 772.65 795.025 765.588 789.86 761.717H787.606C788.922 758.516 788.922 754.888 787.606 751.687C789.977 748.456 791.353 744.546 791.55 740.477C791.621 736.242 789.985 732.172 787.043 729.266C787.101 728.382 787.101 727.495 787.043 726.611C788.079 722.34 787.024 717.808 784.226 714.516C780.586 709.728 774.248 708.253 769.015 710.976H766.198H764.508C761.194 710.512 757.842 711.469 755.212 713.631C751.893 716.474 749.283 720.118 747.606 724.251H745.634C741.549 725.449 738.097 728.321 736.057 732.216C734.187 735.822 733.402 739.935 733.803 744.017C731.81 745.467 730.17 747.387 729.015 749.622C723.381 760.537 730.987 769.092 737.747 774.108C736.627 775.001 735.672 776.1 734.93 777.353C731.977 782.75 732.906 789.558 737.184 793.873C738.244 797.228 740.321 800.128 743.099 802.133C746.224 804.109 749.923 804.842 753.522 804.198L751.832 806.264C751.654 807.535 751.654 808.827 751.832 810.099C748.325 811.635 745.859 815.003 745.353 818.949C744.242 825.562 746.74 832.273 751.832 836.354C752.341 844.856 757.186 852.41 764.508 856.12C764.819 858.654 765.686 861.077 767.043 863.2C769.377 866.115 772.532 868.181 776.057 869.1C774.554 871.234 773.763 873.825 773.803 876.476C774.12 879.809 775.511 882.93 777.747 885.326C779.063 887.008 780.828 888.241 782.817 888.866V890.636C784.977 893.046 787.861 894.607 790.986 895.061C792.319 895.747 793.88 895.747 795.212 895.061C797.263 894.492 799.18 893.488 800.846 892.111V894.471C798.688 902.701 801.74 911.46 808.451 916.302C808.734 922.579 811.488 928.453 816.057 932.527C820.632 937.211 826.592 940.124 832.958 940.787H836.62L839.719 942.852C839.657 945.825 840.549 948.734 842.254 951.113C843.36 952.692 844.69 954.085 846.198 955.243C847.087 956.015 848.156 956.524 849.296 956.718H854.085C855.704 957.864 857.523 958.666 859.437 959.078C859.982 962.206 861.708 964.971 864.226 966.748C867.242 968.443 870.702 969.064 874.085 968.518C875.456 969.425 876.99 970.028 878.592 970.288C879.895 974.214 882.779 977.342 886.479 978.843C890.267 979.868 894.241 979.868 898.029 978.843C900.135 982.435 903.453 985.067 907.325 986.219C912.156 987.995 917.422 987.995 922.254 986.219C923.862 987.45 925.678 988.35 927.606 988.874H929.578C934.765 988.356 939.678 986.195 943.663 982.679C946.457 984.742 949.824 985.779 953.24 985.629C958.117 985.737 962.816 983.705 966.198 980.023H968.17L974.648 975.598C977.762 973.877 981.076 972.588 984.508 971.763C987.806 970.727 990.427 968.092 991.55 964.683C992.429 968.796 995.16 972.206 998.874 973.828C1002.61 975.105 1006.27 976.582 1009.86 978.253C1011.27 978.253 1013.52 980.908 1013.52 980.318C1016.26 985.798 1021.7 989.213 1027.61 989.169C1032.01 989.039 1036.13 986.88 1038.87 983.269C1044.43 987.733 1051.06 990.491 1058.03 991.234C1070.45 989.497 1082.42 985.184 1093.24 978.548L1098.03 976.188C1100.64 975.771 1103.3 975.771 1105.92 976.188C1111.72 976.19 1116.47 971.349 1116.62 965.273C1116.73 964.391 1116.73 963.499 1116.62 962.618L1119.72 964.093C1121.44 964.772 1123.35 964.772 1125.07 964.093C1128.33 964.051 1131.49 962.913 1134.09 960.848C1136.27 959.111 1137.93 956.756 1138.87 954.063C1139.16 952.603 1139.16 951.097 1138.87 949.638C1139.39 947.309 1139.39 944.886 1138.87 942.557C1148.7 942.053 1158.31 939.337 1167.04 934.592C1176.61 927.944 1182.73 917.072 1183.66 905.091C1185.1 903.15 1185.9 900.766 1185.92 898.306H1189.01C1190.11 898.689 1191.3 898.689 1192.39 898.306H1195.21C1197.35 897.82 1199.31 896.693 1200.85 895.061L1202.82 892.996C1203.94 892.132 1204.74 890.878 1205.07 889.456C1205.07 889.456 1205.07 885.916 1205.07 885.031C1205.38 883.474 1205.38 881.867 1205.07 880.311C1204.74 878.103 1203.98 875.992 1202.82 874.115L1206.76 872.05C1217.8 863.291 1225.57 850.77 1228.73 836.649C1230.46 832.61 1232.84 828.916 1235.78 825.734C1239.22 822.114 1239.81 816.475 1237.18 812.164C1236.18 810.397 1234.71 808.966 1232.96 808.034H1235.78C1237.41 807.43 1238.94 806.531 1240.28 805.379C1240.28 805.379 1241.69 805.378 1242.54 803.018C1243.41 801.613 1244.16 800.133 1244.79 798.593V796.528C1244.89 795.449 1244.89 794.362 1244.79 793.283C1244.57 790.401 1243.8 787.593 1242.54 785.023L1247.89 777.943Z" fill="#57A863"/>
<path d="M1130.7 820.424V816.589C1130.59 812.933 1129.82 809.332 1128.45 805.969C1126.48 802.134 1115.21 792.989 1110.7 793.579C1103.42 796.361 1096.93 801.029 1091.83 807.149C1084.79 814.229 1085.63 820.129 1075.78 819.539H1070.42V817.179C1070.8 815.034 1070.8 812.835 1070.42 810.689C1070.31 807.979 1069.83 805.299 1069.01 802.724L1063.38 795.939C1063.38 795.939 1052.68 789.744 1052.11 790.039H1042.25L1025.92 799.479H1024.23L1014.08 802.134H1011.55L1020.56 788.563L1002.82 790.629H997.465H991.268C989.115 789.955 987.107 788.854 985.353 787.383C982.8 785.425 980.062 783.744 977.184 782.368C972.806 780.337 968.285 778.66 963.662 777.353C959.992 776.224 956.213 775.532 952.395 775.288C948.97 775.379 945.644 776.506 942.817 778.533C938.442 781.69 934.787 785.82 932.113 790.629C928.387 785.971 924.13 781.81 919.437 778.238L917.747 776.763C910.723 771.765 902.557 768.812 894.085 768.208C886.919 767.584 879.87 770.406 874.93 775.878C875.033 774.11 875.033 772.336 874.93 770.568C873.722 760.969 869.215 752.159 862.254 745.787C856.457 739.224 848.254 735.573 839.719 735.757C836.542 736.311 833.597 737.853 831.268 740.182C828.863 742.877 827.292 746.271 826.761 749.917V751.687C826.761 751.687 826.761 751.687 826.761 753.457C826.654 754.832 826.654 756.213 826.761 757.588V760.538L828.451 765.553L830.141 768.208V769.683L832.958 773.813L840 780.008L842.817 781.483L846.761 783.548H848.733H851.55H853.803H855.775H859.719H863.381H868.451C868.33 784.528 868.33 785.519 868.451 786.498C869.098 789.675 870.673 792.562 872.958 794.759C881.228 800.8 891.045 804.09 901.127 804.199H909.296C915.326 804.061 921.191 802.116 926.198 798.594C926.68 803.653 928.879 808.363 932.395 811.869C935.979 815.596 940.455 818.246 945.353 819.539C953.475 821.58 961.789 822.668 970.141 822.784C975.213 822.943 980.27 822.143 985.071 820.424C989 818.856 992.626 816.557 995.775 813.639C994.621 818.161 994.052 822.824 994.085 827.505C994.085 831.34 994.085 835.765 994.085 839.6C944.508 839.6 904.226 852.285 904.226 869.101C904.226 885.916 944.508 898.602 994.085 898.602C1043.66 898.602 1083.94 885.916 1083.94 869.101C1083.94 852.285 1058.31 846.385 1023.1 842.55C1023.74 839.996 1025 837.659 1026.76 835.765C1033.48 830.785 1041.37 827.826 1049.58 827.21C1053.22 827.04 1056.78 826.033 1060 824.259H1062.25L1073.52 829.275L1083.38 832.225H1086.2H1095.21C1105.23 831.281 1114.89 827.842 1123.38 822.194H1125.07H1126.76L1130.7 818.949V820.424Z" fill="#039188"/>
<path d="M896.618 732.504L889.857 721.884H886.759H888.73C887.436 722.221 886.082 722.221 884.787 721.884C882.642 721.838 880.608 720.879 879.153 719.229C877.173 717.154 875.888 714.463 875.491 711.559C874.871 707.71 873.831 703.949 872.392 700.348C869.599 695.363 865.743 691.123 861.125 687.958C856.618 684.123 852.392 680.583 851.829 676.453C851.748 675.668 851.748 674.877 851.829 674.092C852.123 670.398 853.078 666.796 854.646 663.472V660.817C855.85 658.147 856.43 655.214 856.336 652.262C856.336 652.262 856.336 652.262 856.336 650.197C856.379 649.312 856.379 648.426 856.336 647.542C855.204 641.222 851.502 635.73 846.195 632.496C843.709 630.757 841.068 629.275 838.308 628.071C838.308 628.071 836.618 623.941 834.364 623.351C832.111 622.761 830.984 627.186 829.857 628.071V625.416C829.379 623.77 828.084 622.527 826.477 622.171C825.245 621.88 823.979 622.483 823.378 623.646C823.378 623.646 823.378 620.106 819.153 620.106C814.928 620.106 816.054 625.121 815.209 625.121C814.364 625.121 810.421 625.121 809.857 628.366C809.294 631.611 812.674 631.906 812.956 632.496C812.562 634.143 812.562 635.865 812.956 637.511C812.956 639.577 817.744 637.511 819.153 637.511C819.074 638 819.074 638.498 819.153 638.986C820.561 641.347 825.35 638.986 825.35 638.986V636.921C825.35 638.691 825.35 641.937 827.885 642.527C829.655 642.92 831.467 642.089 832.392 640.462L835.209 642.527C836.92 643.862 838.198 645.716 838.871 647.837C838.288 651.77 837.048 655.564 835.209 659.047C832.977 663.941 831.731 669.263 831.547 674.683C831.547 674.683 831.547 676.453 831.547 677.338C831.411 679.006 831.411 680.684 831.547 682.353C831.964 685.484 833.349 688.385 835.491 690.613C836.888 692.569 838.494 694.351 840.28 695.923C844.692 698.963 848.675 702.637 852.111 706.838C854.344 712.077 855.77 717.653 856.336 723.359C856.837 726.405 857.689 729.377 858.871 732.209C859.972 734.9 861.842 737.167 864.223 738.699C867.724 740.85 871.714 741.972 875.773 741.944H880.28L885.632 740.469C887.72 739.637 889.705 738.548 891.547 737.224C893.671 736.251 895.445 734.598 896.618 732.504ZM871.547 707.428V704.478V707.133V707.428Z" fill="#57A863"/>
<path d="M879.151 547.24C884.503 547.24 881.404 531.015 881.404 531.015L877.742 534.26C879.065 536.156 879.847 538.407 879.996 540.75C880.256 542.806 880.256 544.889 879.996 546.945L879.151 547.24Z" fill="#57A863"/>
<path d="M938.592 716.869L934.93 708.313V702.413V696.513V690.908L933.24 685.598L930.423 680.878L927.887 678.518L925.352 676.158L920.563 674.683H916.056H907.324H898.028H894.366L887.324 671.142L882.817 663.177V653.737L884.789 648.427L887.606 644.297L889.296 642.527L895.493 636.036H896.901L901.69 631.906L905.352 628.956L910.423 624.531C912.039 623.177 913.462 621.587 914.648 619.811L920.282 613.026L924.225 605.651C922.099 603.522 919.616 601.822 916.902 600.635C919.619 601.816 922.103 603.517 924.225 605.651V599.75V592.375L921.409 587.36L918.028 582.345L914.366 577.92L912.394 575.855H903.38L898.592 581.755L892.394 589.13L902.254 596.8C902.434 597.476 902.434 598.19 902.254 598.865C897.465 610.076 887.042 615.386 877.747 622.466C872.83 625.883 868.615 630.297 865.352 635.446C861.613 642.038 859.756 649.614 860 657.277C859.145 669.28 864.122 680.925 873.24 688.253C878.263 691.701 884.135 693.546 890.141 693.563H894.648H904.225H909.859C910.87 693.243 911.948 693.243 912.958 693.563C913.151 694.136 913.151 694.76 912.958 695.333C912.742 696.811 912.046 698.166 910.986 699.168L908.169 701.528L915.775 708.903V717.164L924.225 718.934H926.197H928.733L938.592 716.869Z" fill="#57A863"/>
<path d="M855.491 573.799C855.491 578.814 857.463 583.534 860.843 585.009C867.398 585.719 874.006 585.719 880.561 585.009H883.378V582.944L887.885 567.014C886.168 567.739 884.369 568.235 882.533 568.489H873.237H869.857C869.23 566.984 869.23 565.273 869.857 563.768C872.392 563.768 875.491 561.703 880.561 559.638C885.632 557.573 888.73 551.968 887.885 551.673C887.04 551.378 885.35 554.328 881.125 556.393C877.751 558.244 873.916 558.965 870.139 558.458C868.73 558.458 870.139 555.803 870.139 553.738C871.483 550.858 873.188 548.18 875.209 545.773C876.237 543.364 876.719 540.739 876.618 538.103C876.618 535.448 882.533 532.203 882.815 531.318C883.096 530.433 882.815 528.072 880.28 528.072C877.744 528.072 875.209 532.203 875.209 532.203H873.519C872.595 531.953 871.626 531.953 870.702 532.203L867.322 534.563L864.505 536.923C859.824 540.503 855.972 545.141 853.237 550.493C853.237 555.508 857.463 561.113 857.744 561.703C856.77 565.686 856.018 569.725 855.491 573.799Z" fill="#57A863"/>
<path d="M1183.1 627.192C1183.1 627.192 1179.44 624.832 1174.93 620.702L1168.73 610.671C1162.49 594 1154.56 578.077 1145.07 563.175C1134.14 546.579 1120.16 532.437 1103.94 521.579C1104.21 520.503 1104.69 519.498 1105.35 518.629C1105.35 518.629 1110.42 512.728 1108.73 511.843C1107.04 510.958 1102.25 511.843 1098.87 511.843C1095.49 511.843 1093.52 511.843 1084.23 504.173C1061.36 489.423 1035.28 480.998 1008.45 479.687C994.085 479.687 987.607 484.113 986.761 487.063V489.423C981.691 489.423 965.635 489.423 966.198 504.763C966.198 510.958 967.607 513.023 972.395 514.498C980.586 515.443 988.377 518.706 994.93 523.939C1000.43 527.989 1003.69 534.599 1003.66 541.639C1003.61 544.702 1002.93 547.717 1001.69 550.49L1006.76 576.45L1010.42 590.316V593.266L1013.8 618.341L1036.62 659.348H1041.97H1046.76C1049.48 656.613 1051.59 653.291 1052.96 649.612H1055.49C1055.49 651.087 1061.41 659.053 1065.07 660.823C1068.73 662.593 1070.71 660.823 1074.09 664.658C1079.83 671.818 1085.19 679.303 1090.14 687.078C1091.18 688.716 1092.31 690.291 1093.52 691.799C1094.42 692.192 1095.44 692.192 1096.34 691.799C1098.31 691.799 1098.87 691.799 1098.03 690.324C1094.95 686.927 1092.55 682.913 1090.99 678.523C1089.1 671.401 1086.36 664.561 1082.82 658.168H1087.04C1092.78 661.199 1097.65 665.782 1101.13 671.443C1101.86 676.489 1103.38 681.373 1105.63 685.898C1107.3 690.293 1109.47 694.455 1112.11 698.289C1112.11 701.239 1114.93 703.599 1116.62 703.894C1118.31 704.189 1116.62 700.649 1114.93 698.289C1113.24 695.929 1113.24 689.439 1110.42 681.178C1108.96 674.434 1106.99 667.824 1104.51 661.413L1102.25 659.348H1103.94L1106.76 661.413C1110.38 665.719 1113.16 670.732 1114.93 676.163C1116.62 681.178 1118.59 689.439 1120.85 697.109C1123.1 704.779 1126.76 713.334 1127.61 711.269C1128.26 702.219 1126.91 693.133 1123.66 684.718C1121 676.138 1119.58 667.189 1119.44 658.168C1122.06 659.611 1124.07 662.032 1125.07 664.953C1127.89 671.443 1125.07 675.573 1129.3 694.454C1131.18 703.114 1134.22 711.455 1138.31 719.234C1140.28 725.43 1138.31 740.475 1141.13 743.72C1141.99 732.134 1141.99 720.495 1141.13 708.909C1141.13 700.944 1141.13 700.649 1138.87 681.178C1136.62 661.708 1136.62 659.053 1136.34 658.463C1138.93 661.444 1140.69 665.12 1141.41 669.083C1144.79 681.473 1144.79 702.419 1147.04 707.729C1148.66 710.973 1150.07 714.323 1151.27 717.759C1153.52 724.545 1149.3 752.865 1153.8 752.865C1158.31 752.865 1157.47 714.514 1156.62 703.009C1155.78 691.504 1154.93 659.643 1154.65 656.398C1157.05 659.391 1159.13 662.656 1160.85 666.133V668.198C1160.85 676.458 1160.85 705.074 1163.1 714.809C1164.61 721.704 1165.65 728.704 1166.2 735.755C1165.73 742.7 1164.79 749.602 1163.38 756.405C1163.38 759.061 1163.38 763.781 1166.48 763.486C1169.58 763.191 1166.48 757.29 1168.45 754.045C1169.18 751.975 1170.12 749.995 1171.27 748.145C1172.96 743.13 1173.24 709.794 1176.06 693.274C1179.71 682.46 1181.7 671.109 1181.97 659.643C1181.99 648.406 1179.88 637.278 1175.78 626.897H1180.85C1181.54 627.264 1182.34 627.369 1183.1 627.192ZM1107.32 523.644L1104.23 521.579L1107.32 523.644Z" fill="#866F57"/>
<path d="M951.269 723.364C948.101 723.095 945.211 721.365 943.382 718.644C943.382 717.169 945.635 715.399 945.353 714.219C945.072 713.039 943.663 711.268 942.818 711.268C941.336 706.777 938.706 702.797 935.213 699.763C931.832 697.993 935.213 703.008 935.213 705.073C934.851 706.724 934.851 708.438 935.213 710.088C936.398 711.704 937.086 713.659 937.184 715.694C937.184 715.694 937.184 717.464 934.649 718.349H931.551C928.662 717.078 925.634 716.186 922.537 715.694C922.912 714.75 922.912 713.688 922.537 712.744C922.564 710.264 921.399 707.937 919.438 706.548C918.335 706.204 917.16 706.204 916.058 706.548C915.648 705.205 915.648 703.761 916.058 702.418C916.058 697.993 918.593 697.403 918.593 697.403C917.474 697.199 916.331 697.199 915.213 697.403H913.241H911.269C909.691 697.044 908.058 697.044 906.48 697.403C902.255 697.403 899.156 703.303 898.311 706.548H896.058C893.373 707.633 891.588 710.32 891.551 713.334C890.853 712.912 889.994 712.912 889.297 713.334C888.036 716.033 888.036 719.19 889.297 721.889C889.496 723.776 890.289 725.54 891.551 726.904C891.551 728.969 894.086 732.804 895.776 732.804C896.868 734.491 898.626 735.574 900.565 735.754C903.104 735.505 905.487 734.361 907.325 732.509C909.333 732.119 911.248 731.317 912.959 730.149C914.466 730.048 915.921 729.54 917.184 728.674C918.803 730.471 920.842 731.793 923.1 732.509C925.353 732.509 930.142 727.494 932.677 723.954C932.677 723.954 934.649 727.789 936.621 727.789L940.565 734.279H955.494L961.692 727.789C961.692 727.789 957.748 723.659 951.269 723.364ZM939.438 723.364H940.846V725.724L939.438 723.364Z" fill="#F6D660"/>
<path d="M1081.41 810.69C1081.52 809.809 1081.52 808.917 1081.41 808.035C1082.4 805.686 1082.4 803.009 1081.41 800.66V798.89C1079.44 796.235 1077.47 796.235 1077.47 796.235C1077.47 795.257 1076.71 794.465 1075.78 794.465C1075.78 794.465 1075.78 789.154 1072.68 788.269C1070.2 787.435 1067.54 787.435 1065.07 788.269C1064.57 787.271 1063.9 786.373 1063.1 785.614C1062.13 784.571 1060.82 783.941 1059.44 783.844L1056.9 781.189C1056.14 780.035 1054.86 779.369 1053.52 779.419C1052.75 778.105 1051.8 776.913 1050.71 775.879L1044.79 770.569V760.539L1033.24 772.634C1033.24 772.634 1033.24 772.634 1033.24 774.699L1027.32 778.534L1022.25 780.894C1022.25 780.894 1022.25 780.894 1018.03 780.894H1014.09C1012.78 780.104 1011.17 780.104 1009.86 780.894C1006.81 781.144 1004.18 783.213 1003.1 786.204C1001.62 785.817 1000.07 785.817 998.592 786.204C995.212 786.204 991.55 788.564 991.832 792.99C991.543 794.548 991.543 796.151 991.832 797.71C992.454 798.801 993.325 799.713 994.367 800.365C994.367 800.365 991.832 795.645 994.367 794.17C996.902 792.695 999.156 794.17 1001.13 794.17C1003.02 795.006 1005.15 795.006 1007.04 794.17C1006.9 794.949 1006.9 795.75 1007.04 796.53C1004.4 798.123 1002.7 801.009 1002.54 804.2C1002.54 808.864 1005.37 813.013 1009.58 814.525H1011.27C1011.27 814.525 1007.89 809.51 1009.86 806.56C1011.83 803.61 1012.96 806.56 1014.09 806.56C1015.21 806.56 1014.09 806.56 1014.09 806.56C1015.97 807.431 1018.12 807.431 1020 806.56C1022.5 805.588 1023.86 802.75 1023.1 800.07L1025.63 798.3C1028.17 796.53 1030.99 793.875 1033.24 792.695C1035.49 791.515 1033.24 794.17 1036.62 794.465C1037.51 794.937 1038.55 794.937 1039.44 794.465C1039.96 796.068 1041.5 797.057 1043.1 796.825C1044.85 797.052 1046.51 795.935 1047.04 794.17H1050.71C1050.49 794.737 1050.49 795.372 1050.71 795.94C1050.83 798.704 1052.26 801.22 1054.53 802.644C1056.79 804.067 1059.59 804.209 1061.97 803.02C1061.97 803.02 1063.38 803.02 1063.66 803.02C1063.66 803.02 1067.89 803.02 1069.3 805.675C1070.71 808.33 1065.07 812.165 1065.07 812.165C1066.65 812.516 1068.28 812.516 1069.86 812.165H1072.68C1073.89 813.511 1075.67 814.14 1077.42 813.845C1079.16 813.55 1080.66 812.369 1081.41 810.69Z" fill="#F6D660"/>
<path d="M1145.91 763.195L1140.28 758.77C1140.28 758.77 1123.38 744.904 1101.69 729.269L1056.62 693.868C1056.92 687.194 1056.15 680.515 1054.37 674.102C1052.99 669.503 1051 665.133 1048.45 661.122C1052.68 657.582 1052.39 650.797 1052.39 646.372C1052.39 641.946 1047.04 635.751 1049.3 638.701C1050.9 641.006 1051.7 643.819 1051.55 646.667C1051.24 650.74 1049.17 654.44 1045.91 656.697C1043.71 657.904 1041.08 657.904 1038.87 656.697C1037.17 650.913 1034.8 645.367 1031.83 640.176C1028.45 633.391 1021.41 622.476 1021.41 622.181V619.231C1021.41 619.231 1018.59 612.741 1016.9 609.791C1015.19 606.453 1013.68 603.005 1012.39 599.465C1012.9 593.873 1012.9 588.242 1012.39 582.65C1011.95 578.126 1011 573.671 1009.58 569.374C1011.62 568.687 1012.91 566.59 1012.68 564.359C1010.16 562.161 1007.97 559.574 1006.2 556.689C1003.51 552.01 1001.07 547.185 998.873 542.234C996.352 537.994 992.989 534.372 989.014 531.613C989.615 529.798 989.615 527.824 989.014 526.008C989.014 526.008 989.014 528.073 983.38 528.073C979.057 527.43 974.868 526.034 970.985 523.943C967.451 522.683 963.732 522.084 959.999 522.173C959.257 522.341 958.489 522.341 957.746 522.173H955.492C955.02 517.286 953.155 512.66 950.14 508.898C949.854 510.94 949.284 512.928 948.45 514.798C946.929 517.621 945.032 520.204 942.816 522.468C942.607 519.188 942.136 515.931 941.408 512.733C941.408 506.538 938.028 508.013 938.028 508.013V510.373C938.106 516.899 936.757 523.357 934.084 529.253L929.295 531.613C929.295 531.613 931.267 528.958 930.985 523.353C930.704 517.748 926.76 515.388 926.76 515.388C927.307 518.905 927.307 522.491 926.76 526.008C925.947 530.173 924.101 534.039 921.408 537.219C921.675 535.163 921.675 533.079 921.408 531.023C921.408 523.058 918.028 523.353 918.028 523.353C917.853 525.797 917.281 528.191 916.338 530.433C914.793 535.73 912.093 540.578 908.45 544.594C901.126 552.854 898.028 553.149 898.873 556.689C899.009 557.557 899.476 558.329 900.166 558.83C900.857 559.33 901.711 559.516 902.535 559.344H904.788H906.197C910.253 561.756 914.781 563.169 919.436 563.474C922.253 563.474 924.507 561.114 929.577 561.114C934.647 561.114 935.774 562.884 935.774 562.884C936.852 564.59 938.3 566.006 940 567.014C940 567.014 943.661 567.014 945.352 567.014C946.407 568.679 946.993 570.622 947.042 572.62H948.45C947.887 574.754 947.133 576.829 946.197 578.815C944.507 582.65 941.408 585.895 941.69 586.485H943.38H945.352L939.154 596.81C936.338 601.53 932.112 608.316 933.239 608.316H937.183C937.101 609.1 937.101 609.891 937.183 610.676C932.387 617.499 929.114 625.362 927.605 633.686C927.605 641.947 929.014 640.176 931.549 647.847C933.249 654.328 934.473 660.936 935.211 667.612C936.892 667.03 938.5 666.238 940 665.252L944.225 672.332C943.374 677.704 943.959 683.218 945.915 688.263C949.386 694.459 953.547 700.203 958.309 705.373L954.929 702.423C953.967 701.2 952.699 700.281 951.267 699.768C949.585 698.875 947.597 698.875 945.915 699.768C946.755 702.69 947.988 705.471 949.577 708.028C952.16 710.178 955.001 711.963 958.028 713.339C955.196 713.413 952.411 714.117 949.859 715.404C947.925 717.345 946.222 719.524 944.788 721.894C944.788 723.664 947.887 726.024 954.084 728.974C952.225 729.371 950.309 729.371 948.45 728.974C943.943 728.974 943.38 725.729 942.816 726.024L944.507 728.679C942.264 728.356 939.989 728.356 937.746 728.679C935.364 728.86 933.189 730.162 931.831 732.219C935.107 734.697 938.853 736.407 942.816 737.234L954.929 740.479C953.923 742.305 953.923 744.554 954.929 746.379C954.929 746.379 958.591 749.33 969.295 746.379C973.198 745.353 976.978 743.868 980.563 741.954H982.535C982.535 741.954 986.197 750.51 988.732 750.215C991.267 749.92 992.676 736.644 992.676 731.039L1006.48 747.559C1006.48 747.559 1009.01 750.805 1010.7 750.51C1010.7 750.51 1013.8 757 1016.62 762.31C1019.44 767.62 1021.97 772.93 1024.51 771.75C1027.04 770.57 1027.61 766.735 1027.89 766.145V767.03C1031.83 770.865 1038.31 778.83 1039.44 778.535V774.995C1040 771.183 1040 767.302 1039.44 763.49C1041.97 767.325 1046.48 773.815 1048.17 772.93C1048.65 769.804 1048.65 766.616 1048.17 763.49C1049.86 765.26 1052.68 767.915 1053.8 767.325C1054.93 766.735 1053.8 760.54 1053.8 759.36C1053.93 757.888 1053.93 756.407 1053.8 754.935V752.87L1070.99 774.11C1072.74 775.875 1075.04 776.922 1077.46 777.06C1080.05 777.442 1082.57 776.003 1083.66 773.52C1086.04 776.326 1089.19 778.286 1092.68 779.125C1096.45 779.493 1100.12 777.686 1102.25 774.405L1105.07 776.47C1112.15 777.085 1119.2 774.872 1124.79 770.275H1126.48C1137.46 774.995 1147.04 764.375 1145.91 763.195ZM1040.28 661.122C1040.35 661.71 1040.35 662.305 1040.28 662.892C1040.32 662.303 1040.32 661.711 1040.28 661.122ZM960.281 582.355C960.119 581.082 960.119 579.792 960.281 578.52C959.999 580.472 959.905 582.448 959.999 584.42L960.281 582.355ZM952.112 587.075C950.926 588.005 949.59 588.704 948.169 589.14L952.112 587.075Z" fill="#866F57"/>
<path d="M940.564 568.777C940.564 564.352 934.648 561.697 929.014 561.697C923.381 561.697 922.254 564.057 918.31 564.057C914.367 564.057 908.169 558.157 899.719 558.157H898.029L896.057 559.927H894.648V561.402C894.481 562.079 894.481 562.79 894.648 563.467C894.648 563.467 892.113 563.467 888.451 568.187C886.877 569.887 885.634 571.891 884.789 574.087C884.644 575.361 884.644 576.649 884.789 577.923C884.553 579.09 884.553 580.296 884.789 581.463L886.761 585.888L890.423 590.018L893.24 591.788H895.212H899.155C900.835 591.934 902.488 591.284 903.662 590.018L900.282 586.773L896.62 580.283C896.405 579.412 896.405 578.498 896.62 577.628C898.295 571.654 903.638 567.64 909.578 567.892H912.958H914.648L917.183 570.842L919.437 574.087C919.437 574.087 942.536 573.792 940.564 568.777Z" fill="#F6D660"/>
<path d="M931.265 720.421C931.914 720.651 932.616 720.651 933.265 720.421H931.265Z" fill="#977C2E"/>
</svg>
