<svg width="2000" height="1417" viewBox="0 0 2000 1417" fill="none" xmlns="http://www.w3.org/2000/svg">
<path d="M1800.56 28.0249H187.044C88.0991 28.0249 7.88867 112.028 7.88867 215.65V1226.94C7.88867 1330.56 88.0991 1414.56 187.044 1414.56H1800.56C1899.51 1414.56 1979.72 1330.56 1979.72 1226.94V215.65C1979.72 112.028 1899.51 28.0249 1800.56 28.0249Z" fill="#4758A9"/>
<path d="M1979.72 317.129L99.1562 1390.07C114.718 1399.35 131.527 1406.11 149.015 1410.14L1980 588.832L1979.72 317.129Z" fill="white"/>
<path d="M1943.66 104.14L67.3262 1366.19C77.6184 1375.98 88.9619 1384.5 101.129 1391.56L1979.72 329.527V216.834C1979.74 176.159 1967.08 136.59 1943.66 104.14Z" fill="#F6D660"/>
<path d="M475.209 192.937L463.659 388.233L413.519 263.739L432.674 396.198L355.209 289.11L405.913 411.243L304.223 330.411L383.378 432.189L268.448 379.973L369.012 458.15L243.941 441.039L362.251 489.126L176.617 506.531L362.533 519.216L244.786 569.073L368.73 551.962L268.448 628.075L384.786 575.563L305.631 678.521L406.476 600.049L356.335 719.527L437.181 615.684L415.209 745.193L465.913 624.239L477.462 815.405L495.49 624.829L539.434 746.668L522.814 615.389L603.096 719.527L550.42 597.984L651.265 681.471L570.983 577.038L690.983 628.37L584.786 548.717L714.082 571.138L591.547 521.577L783.941 509.186L591.547 490.896L718.307 447.529L587.04 464.345L695.49 386.463L573.237 436.909L657.744 331.886L554.927 414.489L604.504 288.225L524.505 395.313L541.688 261.379L494.364 387.643L475.209 192.937Z" fill="white"/>
</svg>
