<svg width="2000" height="1417" viewBox="0 0 2000 1417" fill="none" xmlns="http://www.w3.org/2000/svg">
<path d="M1814.38 11.21H200.856C101.911 11.21 21.7007 95.2127 21.7007 198.835V1210.12C21.7007 1313.75 101.911 1397.75 200.856 1397.75H1814.38C1913.32 1397.75 1993.53 1313.75 1993.53 1210.12V198.835C1993.53 95.2127 1913.32 11.21 1814.38 11.21Z" fill="#ED5565"/>
<path d="M1137.18 11.21H877.748L1007.61 593.851L1137.18 11.21Z" fill="#FFCE54"/>
<path d="M877.748 1397.74H1137.18L1007.61 815.103L877.748 1397.74Z" fill="#FFCE54"/>
<path d="M1993.53 807.737V601.231L1007.61 704.484L1993.53 807.737Z" fill="#FFCE54"/>
<path d="M21.7007 601.231V807.737L1007.62 704.484L21.7007 601.231Z" fill="#FFCE54"/>
<path d="M1899.16 1375.32C1954.03 1344.31 1989.56 1285.65 1992.96 1220.44L1007.04 704.475L21.1287 1220.44C24.5303 1285.65 60.0589 1344.31 114.931 1375.32L1006.48 732.206L1899.16 1375.32Z" fill="#FFCE54"/>
<path d="M1992.98 188.509C1989.58 123.305 1954.05 64.6432 1899.17 33.6299L1007.62 676.748L116.076 33.6299C61.2029 64.6432 25.6743 123.305 22.2727 188.509L1008.19 704.479L1992.98 188.509Z" fill="#FFCE54"/>
<path d="M1007.61 1057.02C821.699 1057.02 670.989 899.185 670.989 704.485C670.989 509.785 821.699 351.95 1007.61 351.95C1193.52 351.95 1344.23 509.785 1344.23 704.485C1343.46 898.849 1193.2 1056.21 1007.61 1057.02ZM1007.61 558.751C951.212 558.751 900.368 594.33 878.786 648.897C857.204 703.465 869.134 766.274 909.012 808.038C948.891 849.802 1008.86 862.296 1060.97 839.693C1113.07 817.091 1147.05 763.843 1147.05 704.78C1146.43 624.349 1084.41 559.258 1007.61 558.456V558.751Z" fill="#ED5565"/>
<path d="M1007.61 953.758C1139.07 953.758 1245.64 842.151 1245.64 704.476C1245.64 566.801 1139.07 455.194 1007.61 455.194C876.149 455.194 769.58 566.801 769.58 704.476C769.58 842.151 876.149 953.758 1007.61 953.758Z" fill="#FFCE54"/>
</svg>
