<svg width="2000" height="1417" viewBox="0 0 2000 1417" fill="none" xmlns="http://www.w3.org/2000/svg">
<path d="M183.381 19.4781C84.437 19.4781 4.22656 103.481 4.22656 207.103V1218.1C4.22656 1321.72 84.437 1405.72 183.381 1405.72H662.255C662.255 943.543 662.255 481.363 662.255 19.1831L183.381 19.4781Z" fill="#57A863"/>
<path d="M661.689 19.4775C661.689 481.657 661.689 943.837 661.689 1406.02H1319.44C1319.44 943.837 1319.44 481.657 1319.44 19.4775H661.689Z" fill="#F6D660"/>
<path d="M1796.62 19.4775H1319.15C1319.15 481.657 1319.15 943.837 1319.15 1406.02H1796.62C1895.56 1406.02 1975.77 1322.01 1975.77 1218.39V206.513C1975.46 103.121 1895.34 19.477 1796.62 19.4775Z" fill="#ED5565"/>
</svg>
