<svg width="2000" height="1417" viewBox="0 0 2000 1417" fill="none" xmlns="http://www.w3.org/2000/svg">
<path d="M29.5755 1274.15C31.2656 1280.05 33.2375 1285.75 35.491 1291.26C40.0329 1302.41 45.5989 1313.09 52.1107 1323.12C55.3032 1328.03 58.7774 1332.85 62.5333 1337.57C75.0247 1353.25 89.866 1366.7 106.477 1377.4C134.658 1396.33 167.365 1406.55 200.843 1406.9H1009.58C1009.58 944.72 1009.58 482.54 1009.58 20.3601H200.843C101.899 20.3601 21.6882 104.363 21.6882 207.985V1218.98C21.38 1225.37 21.38 1231.77 21.6882 1238.15C23.1754 1250.4 25.8175 1262.45 29.5755 1274.15Z" fill="white"/>
<path d="M1336.62 1406.01H1814.08C1830.28 1405.93 1846.39 1403.55 1861.97 1398.93H1867.32L1873.24 1396.57L1883.66 1392.44L1890.14 1389.19L1899.43 1384.47H1900.84C1905.35 1381.82 1909.86 1379.16 1914.08 1375.92L1920.84 1370.61L1927.89 1365L1930.7 1362.35C1938.44 1355.42 1945.6 1347.82 1952.11 1339.63L1958.03 1331.08L1962.25 1325.18L1966.2 1318.39C1967.89 1315.44 1969.58 1312.79 1971.27 1309.54C1976.65 1299.19 1981.08 1288.32 1984.51 1277.09C1984.51 1272.37 1987.04 1267.65 1987.89 1262.93V1259.09C1990.32 1246.67 1991.54 1234.02 1991.55 1221.33V206.504C1991.54 193.82 1990.32 181.169 1987.89 168.743C1987.89 163.138 1985.35 157.533 1983.94 152.223C1980.52 140.992 1976.08 130.127 1970.7 119.772C1969.01 116.822 1967.32 113.872 1965.63 110.922L1961.69 104.136L1957.46 98.2362L1951.55 89.681L1947.6 85.2559L1940 76.4056L1932.96 69.9154L1927.32 64.3103L1923.66 61.6552C1915.78 55.1288 1907.4 49.3065 1898.59 44.2497L1889.29 39.5296L1882.82 36.2845L1872.39 32.1544L1866.48 29.7943H1861.13C1845.54 25.1748 1829.43 22.793 1813.24 22.7141H1009.86C1009.86 484.894 1009.86 947.074 1009.86 1409.25L1336.62 1406.01Z" fill="#ED5565"/>
<path d="M727.039 433.965H614.363V315.962C614.363 283.376 589.14 256.96 558.025 256.96H473.518C442.403 256.96 417.18 283.376 417.18 315.962V433.965H304.504C273.389 433.965 248.166 460.381 248.166 492.967V581.469C248.166 614.055 273.389 640.471 304.504 640.471H417.18V758.474C417.18 791.06 442.403 817.476 473.518 817.476H558.025C589.14 817.476 614.363 791.06 614.363 758.474V640.471H727.039C758.154 640.471 783.377 614.055 783.377 581.469V492.967C783.377 460.381 758.154 433.965 727.039 433.965Z" fill="#CCD1D9"/>
</svg>
