<svg width="2000" height="1417" viewBox="0 0 2000 1417" fill="none" xmlns="http://www.w3.org/2000/svg">
<path d="M1.22172e-10 204.448V469.955H2000V204.448C2000 96.2629 1915.06 8.56199 1810.29 8.56199H190C139.635 8.48367 91.3072 29.087 55.667 65.8311C20.0269 102.575 -5.71164e-05 152.444 1.22172e-10 204.448Z" fill="#F6D660"/>
<path d="M0 933.121H2000V472.023H0V933.121Z" fill="#57A863"/>
<path d="M0 1198.92C0 1307.1 84.938 1394.8 189.714 1394.8H1810.29C1915.06 1394.8 2000 1307.1 2000 1198.92V933.41H0V1198.92Z" fill="#ED5565"/>
<path d="M793.43 1069.11C757.715 1095.66 736.287 1080.03 748.287 1034.89L788.572 866.443C798.094 816.352 783.381 764.613 749.144 727.789L634.858 619.226C602.287 589.725 611.144 562.584 654.572 561.699L816.287 559.044C863.243 555.336 903.455 522.887 918.287 476.736L971.43 292.651C984.287 248.105 1006.29 247.515 1020.57 292.651L1079.14 475.556C1095.55 521.519 1136.17 553.578 1183.43 557.864L1348.29 561.994C1391.43 561.994 1400 588.545 1366.86 618.931L1240 734.869C1205.37 770.255 1190.34 821.268 1200 870.573L1238 1019.85C1249.43 1064.98 1229.14 1081.21 1192.29 1056.43L1059.43 966.155C1018.64 941.367 967.817 942.394 928.001 968.81L793.43 1069.11Z" fill="white"/>
</svg>
