<svg width="2000" height="1417" viewBox="0 0 2000 1417" fill="none" xmlns="http://www.w3.org/2000/svg">
<g clip-path="url(#clip0)">
<path d="M1799.72 0H186.2C87.2555 0 7.0451 85.79 7.0451 191.617V1224.42C7.0451 1330.25 87.2555 1416.04 186.2 1416.04H1799.72C1898.67 1416.04 1978.88 1330.25 1978.88 1224.42V191.617C1978.88 85.79 1898.67 0 1799.72 0Z" fill="#FFCE54"/>
<path d="M1799.72 120.514C1836.37 120.679 1866.04 152.417 1866.2 191.617V1224.42C1866.04 1263.62 1836.37 1295.36 1799.72 1295.53H186.198C149.547 1295.36 119.874 1263.62 119.72 1224.42V191.617C119.874 152.417 149.547 120.679 186.198 120.514H1799.44" fill="#ED5565"/>
<path d="M1192.39 575.749L1171.55 439.87H1246.2L1199.44 363.946L1170.99 346.772H1058.87L1023.38 575.749H962.535L927.042 346.772H814.929L786.479 363.946L739.718 439.87H814.366L793.521 575.749H683.099L863.944 1069.25H1121.41L1302.82 575.749H1192.39Z" fill="#FFCE54"/>
</g>
<defs>
<clipPath id="clip0">
<rect width="2000" height="1416.04" fill="white"/>
</clipPath>
</defs>
</svg>
