<svg width="2000" height="1417" viewBox="0 0 2000 1417" fill="none" xmlns="http://www.w3.org/2000/svg">
<g clip-path="url(#clip0)">
<path d="M197.186 0C98.2416 0 18.0312 85.79 18.0312 191.617V1224.42C18.0312 1330.25 98.2416 1416.04 197.186 1416.04H676.059C676.059 944.027 676.059 472.013 676.059 0H197.186Z" fill="#ED5565"/>
<path d="M676.061 0C676.061 472.013 676.061 944.027 676.061 1416.04H1333.81C1333.81 944.027 1333.81 472.013 1333.81 0H676.061Z" fill="#4A89DC"/>
<path d="M1810.42 0H1332.96C1332.96 472.013 1332.96 944.027 1332.96 1416.04H1810.42C1909.37 1416.04 1989.58 1330.25 1989.58 1224.42V191.617C1989.58 85.79 1909.37 0 1810.42 0Z" fill="#ED5565"/>
<path d="M233.81 582.681H149.303V1045.15H233.81V582.681Z" fill="#F6BB42"/>
<path d="M543.665 582.681H459.158V1045.15H543.665V582.681Z" fill="#F6BB42"/>
<path d="M346.484 903.855C393.156 903.855 430.991 863.388 430.991 813.47C430.991 763.551 393.156 723.084 346.484 723.084C299.812 723.084 261.977 763.551 261.977 813.47C261.977 863.388 299.812 903.855 346.484 903.855Z" fill="#F6BB42"/>
<path d="M346.484 551.346C393.156 551.346 430.991 510.879 430.991 460.961C430.991 411.042 393.156 370.575 346.484 370.575C299.812 370.575 261.977 411.042 261.977 460.961C261.977 510.879 299.812 551.346 346.484 551.346Z" fill="#F6BB42"/>
<path d="M430.991 934.278H261.977V964.407H430.991V934.278Z" fill="#F6BB42"/>
<path d="M430.991 672.169H261.977V702.297H430.991V672.169Z" fill="#F6BB42"/>
<path d="M346.484 985.208H430.991L346.484 1045.46L261.977 985.208H346.484Z" fill="#F6BB42"/>
<path d="M346.484 581.783H430.991L346.484 642.04L261.977 581.783H346.484Z" fill="#F6BB42"/>
</g>
<defs>
<clipPath id="clip0">
<rect width="2000" height="1416.04" fill="white"/>
</clipPath>
</defs>
</svg>
