<svg width="2000" height="1417" viewBox="0 0 2000 1417" fill="none" xmlns="http://www.w3.org/2000/svg">
<path d="M10.9932 204.447V469.955H1982.82V204.447C1982.82 96.2627 1899.08 8.56177 1795.78 8.56177H197.19C94.2199 9.049 10.9921 96.6074 10.9932 204.447Z" fill="#57A863"/>
<path d="M10.9932 933.121H1982.82V472.023H10.9932V933.121Z" fill="#434A54"/>
<path d="M10.9932 1198.92C10.9932 1307.1 94.7348 1394.8 198.035 1394.8H1795.78C1899.08 1394.8 1982.82 1307.1 1982.82 1198.92V933.41H10.9932V1198.92Z" fill="#F6D660"/>
<path d="M1982.82 918.361H10.9932V947.861H1982.82V918.361Z" fill="white"/>
<path d="M1982.82 485.592H10.9932V456.091H1982.82V485.592Z" fill="white"/>
<path d="M70.707 56.3582C32.5478 91.85 10.7103 142.744 10.707 196.192V1207.19C10.7103 1260.63 32.5478 1311.53 70.707 1347.02L799.439 701.541L70.707 56.3582Z" fill="#ED5565"/>
</svg>
