<svg width="2000" height="1417" viewBox="0 0 2000 1417" fill="none" xmlns="http://www.w3.org/2000/svg">
<path d="M1818.02 28.0248H204.504C105.559 28.0248 25.3489 112.027 25.3489 215.65V1226.94C25.3489 1330.56 105.559 1414.56 204.504 1414.56H1818.02C1916.97 1414.56 1997.18 1330.56 1997.18 1226.94V215.65C1997.18 112.027 1916.97 28.0248 1818.02 28.0248Z" fill="#ED5565"/>
<path d="M1997.18 236.6H25.3489V1205.7H1997.18V236.6Z" fill="#57A863"/>
<path d="M1111.54 617.153C1116.05 633.378 1108.73 638.984 1095.2 630.133L1044.5 596.502C1028.93 587.743 1010.21 587.743 994.642 596.502L946.191 626.003C932.388 634.558 924.782 628.363 929.571 612.433L947.036 553.431C951.28 535.958 945.189 517.516 931.543 506.525L877.177 466.404C863.937 456.668 866.473 448.408 882.247 448.113H949.008C966.304 446.926 981.418 435.456 987.881 418.612L1007.88 359.611C1013.23 343.68 1022.53 343.385 1028.73 359.611L1052.39 418.612C1059.98 435.137 1075.25 446.319 1092.67 448.113L1145.91 450.768C1161.97 450.768 1165.06 460.799 1152.67 471.714L1107.88 510.655C1095.1 522.999 1089.7 541.631 1093.8 559.331L1111.54 617.153Z" fill="#F6D660"/>
<path d="M1246.76 555.504C1253.16 569.27 1258.44 583.58 1262.53 598.28C1281.86 666.232 1274.61 739.442 1242.38 801.796C1210.16 864.15 1155.59 910.54 1090.7 930.754H1087.61C994.794 959.015 894.661 931.643 826.877 859.484C759.094 787.324 734.599 682.023 763.098 585.3C767.562 570.754 773.217 556.64 779.999 543.113C781.476 538.307 778.954 533.157 774.366 531.608C770.755 530.318 766.763 531.632 764.506 534.853C736.25 568.73 714.877 608.278 701.69 651.086C670.672 753.906 687.614 866.015 747.433 953.778C807.251 1041.54 902.986 1094.75 1005.91 1097.43C1131.38 1099.95 1246.8 1025.9 1301.66 907.709C1356.51 789.516 1340.8 648.714 1261.41 546.949C1259.31 543.508 1255.28 541.943 1251.55 543.113C1249.31 543.736 1247.39 545.268 1246.23 547.371C1245.07 549.475 1244.75 551.976 1245.35 554.324L1246.76 555.504Z" fill="#F6D660"/>
</svg>
