<svg width="2000" height="1417" viewBox="0 0 2000 1417" fill="none" xmlns="http://www.w3.org/2000/svg">
<path d="M1807.61 12.6812H164.79C81.7088 23.4116 15.5521 90.6478 2.81812 177.296V1231.07C16.7304 1326.71 95.2294 1397.39 187.607 1397.45H1785.35C1888.65 1397.45 1972.4 1309.75 1972.4 1201.56V206.502C1972.07 107.588 1901.38 24.4489 1807.61 12.6812Z" fill="#4658A9"/>
<path d="M704.225 11.2393H185.915C83.2745 11.8863 0.307305 99.0395 0 206.535V717.784H704.225V11.2393Z" fill="#4658A9"/>
<path d="M296.901 524.822V718.347H406.761V520.397L595.775 718.347H704.225V629.845L507.042 423.339H704.225V305.336H507.042L704.225 98.8299V10.3274H596.338L407.606 207.983V10.3274H297.746V203.853L124.225 22.1277C80.1889 38.8393 43.7143 72.1978 21.9718 115.645L202.535 304.746H0V422.749H201.69L0 633.975V717.462H112.676L296.901 524.822Z" fill="white"/>
<path d="M325.07 442.515V717.168H378.592V438.385L644.789 717.168H704.225V680.882L428.732 392.364H704.225V334.837H428.732L704.225 46.319V10.033H645.352L379.155 288.816V10.033H325.634V284.391L90.9859 38.3538C72.0111 50.4097 55.2258 65.891 41.4085 84.0801L280.563 334.542H0V392.069H279.718L0 685.012V717.168H62.8169L325.07 442.515Z" fill="#EC5463"/>
<path d="M1107.6 397.673H1569.58V742.833C1573.52 881.487 1490.98 967.629 1339.43 1006.57C1231.83 977.069 1107.6 920.428 1107.6 746.963V397.968V397.673Z" fill="#92DBFC"/>
<path d="M1338.87 1036.07H1332.11C1269.58 1019.85 1078.59 969.992 1078.59 747.85V398.56C1078.59 382.268 1091.2 369.06 1106.76 369.06H1568.73C1584.29 369.06 1596.9 382.268 1596.9 398.56V743.72C1599.72 846.383 1558.31 981.497 1345.35 1036.07H1338.87ZM1135.78 427.176V746.965C1135.78 867.034 1198.87 937.836 1339.44 976.187C1478.59 938.721 1544.51 862.609 1541.41 743.72V427.176H1135.78Z" fill="white"/>
<path d="M1107.6 397.673H1569.58V742.833C1573.52 881.487 1490.98 967.629 1339.43 1006.57C1231.83 977.069 1107.6 920.428 1107.6 746.963V397.968V397.673Z" fill="#92DBFC"/>
<path d="M1109.3 784.137C1126.2 928.691 1239.44 980.318 1338.88 1006.28C1474.93 971.467 1554.93 898.305 1567.04 783.547L1109.3 784.137Z" fill="#E77329"/>
<path d="M1320.56 461.988V418.621H1352.11V461.693H1441.97V495.324H1352.11V892.995H1320V494.734H1230.42V460.218L1320.56 461.988Z" fill="#434A54"/>
<path d="M1307.89 716.876V878.246" stroke="#434A54" stroke-width="0.1" stroke-linecap="round" stroke-linejoin="round"/>
<path d="M1298.59 719.819V867.323" stroke="#434A54" stroke-width="0.1" stroke-linecap="round" stroke-linejoin="round"/>
<path d="M1288.73 740.473V858.476" stroke="#434A54" stroke-width="0.1" stroke-linecap="round" stroke-linejoin="round"/>
<path d="M1280.57 749.623V845.501" stroke="#434A54" stroke-width="0.1" stroke-linecap="round" stroke-linejoin="round"/>
<path d="M1271.55 755.228V835.175" stroke="#434A54" stroke-width="0.1" stroke-linecap="round" stroke-linejoin="round"/>
<path d="M1262.26 760.244V824.556" stroke="#434A54" stroke-width="0.1" stroke-linecap="round" stroke-linejoin="round"/>
<path d="M1254.09 765.261V814.527" stroke="#434A54" stroke-width="0.1" stroke-linecap="round" stroke-linejoin="round"/>
<path d="M1247.89 800.06L1330.14 888.562C1358.31 855.816 1338.88 733.388 1301.97 711.557C1298.56 725.732 1291.55 738.676 1281.69 749.023C1263.95 761.709 1220.28 776.754 1234.65 786.194C1236.23 782.901 1239.44 780.822 1242.96 780.822C1246.48 780.822 1249.69 782.901 1251.27 786.194C1256.34 801.83 1240 806.55 1233.81 806.255C1228.95 806.101 1224.35 803.931 1221.02 800.224C1217.69 796.517 1215.91 791.576 1216.06 786.489C1216.45 775.872 1222.26 766.294 1231.27 761.414C1236.06 758.2 1241.16 755.53 1246.48 753.449C1262.4 747.712 1274.47 733.956 1278.59 716.867C1285.36 687.367 1292.12 692.087 1293.52 691.792C1334.93 696.217 1362.26 773.804 1363.66 828.676C1366.17 862.02 1357.17 895.199 1338.31 922.193C1334.09 924.553 1239.44 804.19 1239.44 804.19L1248.45 798.88L1247.89 800.06Z" fill="#F5BB43"/>
<path d="M1352.12 545.472C1357.75 540.457 1360.85 537.212 1364.23 537.802C1368.13 538.679 1372.16 538.679 1376.06 537.802C1385.36 535.893 1394.93 535.893 1404.23 537.802C1408.3 538.733 1412.02 540.886 1414.93 543.997C1424.13 552.155 1427.98 565.158 1424.79 577.333C1422.26 598.573 1423.1 606.834 1421.97 619.814C1420 640.759 1415.5 658.165 1407.61 656.69C1418.59 676.455 1419.44 693.566 1426.48 707.136C1435.29 729.832 1438.3 754.539 1435.21 778.823C1432.4 808.324 1424.79 876.471 1447.61 921.902C1443.95 924.852 1434.65 921.902 1426.48 912.757C1418.31 903.612 1414.65 903.907 1408.17 909.217C1387.61 925.737 1368.17 945.503 1339.72 925.737C1333.24 921.312 1331.27 915.707 1336.06 901.842C1347.35 868.014 1352.78 832.35 1352.12 796.524V546.062V545.472Z" fill="#55A963"/>
<path d="M1372.96 524.233C1374.93 529.648 1374.93 535.634 1372.96 541.049C1369.8 547.535 1369.8 555.214 1372.96 561.699C1379.44 551.964 1388.73 554.029 1394.08 548.424C1399.44 542.819 1400.56 537.214 1404.79 536.329C1398.44 532.647 1394.87 525.286 1395.77 517.743C1395.77 506.828 1411.55 498.273 1398.59 481.752C1392.18 473.625 1380.86 472.079 1372.68 478.212C1370.46 479.939 1368.63 482.155 1367.32 484.702C1367.32 486.472 1367.32 490.897 1365.63 493.257C1364.22 495.021 1362.61 496.605 1360.84 497.978C1360.84 497.978 1358.87 500.338 1360.84 501.813C1362.82 503.288 1362.25 501.813 1363.38 501.813L1361.41 505.353C1361.41 505.353 1361.41 507.123 1361.41 507.713C1361.41 508.303 1361.41 511.548 1361.41 513.908C1361.41 516.268 1358.59 518.628 1363.1 521.283C1366.33 522.592 1369.78 523.195 1373.24 523.053L1372.96 524.233Z" fill="#FFE1CF"/>
<path d="M1320 580.576C1312.4 582.641 1300.28 580.576 1291.83 580.576C1287.89 580.576 1284.51 578.806 1285.07 574.676C1285.77 569.094 1285.77 563.441 1285.07 557.86C1285.18 545.172 1288.27 532.707 1294.09 521.574C1298.87 512.435 1301.93 502.42 1303.1 492.073C1302.52 487.646 1304.11 483.211 1307.33 480.273C1309.16 478.925 1310.61 477.092 1311.55 474.963C1313.8 471.423 1316.06 470.538 1316.34 472.603C1316.81 473.934 1316.81 475.401 1316.34 476.733C1318.87 474.668 1322.82 472.013 1323.94 471.423C1325.07 470.833 1329.86 467.293 1329.86 471.423C1329.86 475.553 1332.96 471.423 1333.52 471.423C1334.09 471.423 1333.52 473.193 1333.52 473.783C1333.52 474.373 1336.34 475.848 1333.52 478.208C1330.71 480.568 1336.34 480.273 1333.52 482.338C1330.71 484.403 1327.89 486.173 1327.04 488.238C1324.26 491.596 1320.92 494.395 1317.18 496.498C1314.65 496.498 1314.37 499.153 1314.37 503.284C1314.81 520.357 1313.11 537.418 1309.3 554.025C1309.3 556.975 1309.3 559.335 1311.55 558.45C1315 557.224 1318.61 556.528 1322.25 556.385V581.166L1320 580.576Z" fill="#FFE1CF"/>
<path d="M1321.69 674.988C1332.44 670.046 1343.68 666.385 1355.21 664.073C1363.79 661.142 1372.08 657.389 1380 652.863C1385.64 649.618 1390.42 645.488 1393.52 644.308C1397.38 643.1 1400.62 640.342 1402.54 636.637C1411.89 620.204 1417.48 601.726 1418.87 582.651C1418.87 572.621 1416.34 561.705 1407.33 569.671C1397.79 578.333 1390.68 589.551 1386.76 602.121C1384.94 609.879 1382.29 617.399 1378.87 624.542C1378.87 627.787 1374.93 627.787 1371.27 628.377C1359.45 630.31 1348.41 635.734 1339.44 644.013C1328.73 652.309 1317.53 659.895 1305.92 666.728C1297.18 671.743 1295.49 672.333 1293.8 676.464C1292.43 679.754 1290.63 682.831 1288.45 685.609C1286.97 687.27 1286.34 689.575 1286.76 691.804C1286.76 693.574 1286.76 702.129 1286.76 705.079C1286.76 708.029 1286.76 708.619 1288.45 708.914C1290.14 709.209 1290.99 708.914 1291.55 705.079C1291.55 708.619 1295.49 707.439 1295.78 705.079C1295.78 708.914 1300.28 706.554 1300.56 703.309C1300.56 705.669 1304.23 703.309 1304.51 703.309C1305.15 700.491 1305.99 697.729 1307.04 695.049C1308.43 691.223 1310.65 687.788 1313.52 685.019C1317.18 682.364 1315.49 679.414 1322.82 675.579L1321.69 674.988Z" fill="#FFE1CF"/>
<path d="M1408.45 907.744C1408.45 910.99 1410.7 914.53 1411.27 916.595C1411.83 918.66 1411.27 919.25 1411.27 920.43C1408.16 927.256 1405.98 934.505 1404.79 941.966C1404.19 944.834 1403.04 947.545 1401.41 949.931C1401.41 951.996 1401.41 953.471 1403.1 955.536C1405.2 956.361 1407.55 955.325 1408.45 953.176C1409.04 953.926 1409.92 954.361 1410.85 954.361C1411.77 954.361 1412.65 953.926 1413.24 953.176C1413.24 953.176 1416.62 953.176 1417.75 951.406C1418.87 949.636 1420.85 951.406 1421.41 949.341C1421.97 947.276 1425.35 949.341 1425.35 945.211C1425.16 944.237 1425.16 943.234 1425.35 942.261C1425.66 940.903 1425.66 939.488 1425.35 938.13C1425.58 935.714 1426.35 933.388 1427.61 931.345C1429.61 928.562 1430.52 925.076 1430.14 921.61C1430.14 918.07 1427.89 918.365 1426.48 913.645C1425.07 908.925 1419.44 905.974 1415.21 905.679C1412.12 905.818 1409.2 907.191 1407.04 909.515L1408.45 907.744Z" fill="#FFE1CF"/>
<path d="M1332.39 932.224C1338.17 936.686 1346.3 935.508 1350.7 929.569C1347.54 928.227 1344.52 926.546 1341.69 924.554C1339.1 927.718 1335.94 930.323 1332.39 932.224Z" fill="#FFE1CF"/>
<path d="M1368.73 478.801C1370.14 468.771 1379.15 470.246 1383.38 471.426C1386.72 472.193 1390.18 472.193 1393.52 471.426C1401.69 469.066 1407.6 471.426 1406.76 480.276C1409.37 482.504 1410.84 485.893 1410.7 489.421C1410.7 492.961 1410.7 494.141 1414.08 494.731C1417.46 495.321 1423.38 498.862 1419.15 504.467C1423.71 507.15 1425.83 512.826 1424.22 518.037C1422.89 519.894 1420.81 520.987 1418.59 520.987C1416.37 520.987 1414.28 519.894 1412.95 518.037C1409.35 519.95 1405 519.365 1401.97 516.562C1400 519.217 1394.64 518.922 1393.8 516.562C1392.99 514.526 1391.33 512.999 1389.29 512.432C1387.04 512.432 1387.04 505.352 1389.29 504.762C1388.62 503.165 1388.62 501.344 1389.29 499.747C1389.29 499.747 1389.29 496.797 1387.6 495.322C1385.07 492.332 1384.41 488.081 1385.91 484.406C1381.54 484.785 1377.23 483.172 1374.08 479.981C1374.36 478.506 1370.14 477.031 1368.73 478.801Z" fill="#E77329" stroke="#E77329" stroke-width="0.1" stroke-linecap="round" stroke-linejoin="round"/>
<path d="M1368.73 489.426C1370.7 492.081 1372.68 491.786 1372.96 493.556C1372.74 494.326 1372.74 495.147 1372.96 495.917C1372.96 495.917 1372.96 495.917 1371.27 495.917H1368.17C1368.17 495.917 1365.91 495.917 1368.17 495.917C1370.42 495.917 1368.17 495.917 1368.17 495.917C1367.96 495.448 1367.96 494.91 1368.17 494.441C1368.17 494.441 1368.17 492.081 1368.17 492.671L1368.73 489.426Z" fill="#434A54"/>
<path d="M1369.86 486.764C1372.91 487.078 1375.78 488.425 1378.03 490.6C1379.72 492.37 1378.03 490.6 1378.03 490.6C1376.76 490.631 1375.53 490.095 1374.65 489.125C1373.37 487.877 1371.83 486.966 1370.14 486.469C1370.14 486.469 1368.73 486.469 1370.14 486.469L1369.86 486.764Z" fill="#434A54"/>
</svg>
