<svg width="2000" height="1417" viewBox="0 0 2000 1417" fill="none" xmlns="http://www.w3.org/2000/svg">
<g clip-path="url(#clip0)">
<path d="M0 0H2000V1416.04H0V0Z" fill="#21428E"/>
<path d="M903.333 0V605.357H0V810.683H903.333V1416.04H1096.67V810.683H2000V605.357H1096.67V0H903.333Z" fill="white"/>
<path d="M382.107 77.5149C367.387 84.68 355.733 95.1021 355.733 100.313C355.733 106.176 364.32 106.176 353.28 110.084C342.853 113.992 314.64 119.203 295.013 118.552C288.267 118.552 272.32 113.992 268.027 113.992C263.12 114.643 288.88 125.717 279.067 123.111C265.573 119.203 257.6 117.9 268.027 125.065C276 130.277 293.787 130.277 318.933 127.02C328.747 125.717 354.507 119.854 363.707 118.552C369.84 117.9 369.84 123.763 373.52 123.763C406.64 125.717 465.52 124.414 491.28 120.506C512.747 117.249 520.72 118.552 526.853 126.368C539.12 141.35 526.24 154.378 491.28 162.194C448.347 171.965 430.56 180.433 414 199.323C374.133 244.919 420.747 296.378 507.84 303.543C558.747 308.103 591.867 318.525 583.893 326.993C580.827 330.25 547.093 335.461 508.453 338.718C424.427 345.883 387.013 358.259 355.12 390.828C337.333 409.067 331.2 420.14 331.2 435.122C331.2 455.966 331.2 455.966 298.693 455.966C281.52 455.966 257.6 453.36 246.56 449.452C229.387 444.892 226.933 444.892 233.067 452.709C245.333 468.342 280.293 482.021 309.12 482.021C331.2 482.021 343.467 486.581 363.093 501.562C402.347 532.177 447.12 543.902 521.333 543.25C618.853 542.599 674.667 515.241 674.667 468.993C674.667 434.47 637.867 414.278 561.2 407.112C522.56 403.204 446.507 409.718 413.387 420.14C407.253 422.094 414 417.534 428.72 409.718C446.507 400.599 475.947 394.085 515.813 390.177C604.133 382.36 644 361.516 644 322.433C644 284.653 604.747 263.158 520.72 254.69C437.92 246.873 431.787 231.24 501.707 208.442C551.387 192.809 576.533 169.359 576.533 137.442C576.533 88.5883 551.387 72.3038 467.36 67.7442C416.453 65.1387 404.187 66.4414 382.107 77.5149V77.5149ZM426.267 91.1938C424.427 94.4507 419.52 97.7076 416.453 97.7076C412.773 97.7076 412.16 94.4507 414 91.1938C415.84 87.2855 420.747 84.68 423.813 84.68C427.493 84.68 428.107 87.2855 426.267 91.1938ZM603.52 455.966C615.173 460.525 619.467 465.085 615.787 468.993C605.36 480.067 537.893 489.837 496.8 486.581C451.413 482.021 402.347 466.388 417.067 459.874C458.16 442.938 566.107 440.984 603.52 455.966V455.966Z" fill="white"/>
</g>
<defs>
<clipPath id="clip0">
<rect width="2000" height="1416.04" rx="186" fill="white"/>
</clipPath>
</defs>
</svg>
