<svg width="2000" height="1417" viewBox="0 0 2000 1417" fill="none" xmlns="http://www.w3.org/2000/svg">
<g clip-path="url(#clip0)">
<path d="M0 0H2000V1416.04H0V0Z" fill="black"/>
<path d="M1000.03 842.6C1158.35 842.6 1286.69 706.291 1286.69 538.151C1286.69 370.008 1158.35 233.702 1000.03 233.702C841.705 233.702 713.358 370.008 713.358 538.151C713.358 706.291 841.705 842.6 1000.03 842.6Z" fill="#CE1126"/>
<path d="M1000.02 56.697C990.388 56.697 986.684 72.0375 986.684 87.3779C986.684 124.352 990.951 143.682 1000.02 198.301C1009.09 143.682 1013.35 124.352 1013.35 87.3779C1013.35 72.0375 1009.65 56.697 1000.02 56.697Z" fill="#CE1126"/>
<path d="M0 436.643H2000V1416.07H0V436.643Z" fill="black"/>
<path d="M0 472.009H2000V1416.04H0V472.009Z" fill="#CE1126"/>
<path d="M0 944.031H2000V1416.04H0V944.031Z" fill="#339E35"/>
</g>
<defs>
<clipPath id="clip0">
<rect width="2000" height="1416.04" fill="white"/>
</clipPath>
</defs>
</svg>
