<svg width="2000" height="1417" viewBox="0 0 2000 1417" fill="none" xmlns="http://www.w3.org/2000/svg">
<path d="M1818.03 19.4726H204.794C198.132 19.0786 191.456 19.0786 184.794 19.4726H1838.32C1831.56 19.0674 1824.79 19.0674 1818.03 19.4726Z" fill="white"/>
<path d="M204.794 1406.01H1818.03C1824.69 1406.4 1831.37 1406.4 1838.03 1406.01H184.794C191.455 1406.4 198.132 1406.4 204.794 1406.01Z" fill="white"/>
<path d="M1996.62 1231.94H24.791C31.0275 1322.04 97.6756 1394.69 183.383 1404.82H1836.9C1923.05 1395.22 1990.3 1322.43 1996.62 1231.94Z" fill="white"/>
<path d="M25.3633 1218.38V1231.95C25.9347 1227.53 25.3633 1222.81 25.3633 1218.38Z" fill="#ED5565"/>
<path d="M25.3633 1218.38C25.3633 1222.8 25.3633 1227.52 25.3633 1231.95H1997.19C1997.19 1227.52 1997.19 1223.1 1997.19 1218.38V1058.78H25.3633V1218.38Z" fill="#ED5565"/>
<path d="M1997.19 885.908H25.3633V1058.78H1997.19V885.908Z" fill="white"/>
<path d="M1997.19 712.742H25.3633V885.617H1997.19V712.742Z" fill="#ED5565"/>
<path d="M1997.19 539.857H25.3633V712.732H1997.19V539.857Z" fill="white"/>
<path d="M1997.19 366.691H25.3633V539.566H1997.19V366.691Z" fill="#ED5565"/>
<path d="M1997.18 206.507V192.937C1996.9 198.247 1997.18 202.672 1997.18 206.507Z" fill="white"/>
<path d="M26.2207 193.822C26.2207 198.247 26.2207 202.672 26.2207 207.392V366.992H1998.05V206.507C1998.05 202.082 1998.05 197.362 1998.05 192.937L26.2207 193.822Z" fill="white"/>
<path d="M26.2207 193.809H1998.05C1991.82 103.717 1925.17 31.0659 1839.46 20.9343H184.812C99.1053 31.0659 32.4572 103.717 26.2207 193.809Z" fill="#ED5565"/>
<path d="M851.56 20.9343H184.8C94.3754 31.4198 25.812 111.217 25.3633 206.495V885.014H851.279L851.56 20.9343Z" fill="#4758A9"/>
<path d="M537.188 552.842C527.047 559.628 521.695 555.497 524.794 543.402L536.906 498.856C539.843 485.516 536.132 471.527 527.047 461.685L496.343 432.184C487.61 423.629 490.146 416.843 502.258 416.843H546.765C559.315 416.146 570.322 407.846 574.934 395.603L590.709 346.927C594.653 335.126 600.568 335.126 604.23 346.927L619.16 396.193C623.626 408.785 634.563 417.604 647.329 418.909L692.681 420.974C704.512 420.974 706.765 428.349 697.47 436.314L661.695 465.815C651.999 474.927 647.61 488.719 650.146 502.101L659.723 542.222C662.54 554.317 656.906 558.448 646.765 551.662L610.709 526.587C599.482 519.727 585.598 519.727 574.371 526.587L537.188 552.842ZM554.653 635.15C544.856 640.153 534.681 644.298 524.23 647.54C475.819 662.651 423.658 656.998 379.228 631.823C334.797 606.649 301.739 564.017 287.329 513.311C276.86 473.185 277.839 430.727 290.146 391.178C324.151 286.071 432.28 228.86 533.244 262.554C543.528 265.995 553.516 270.337 563.103 275.534C566.513 276.525 570.075 274.596 571.272 271.109C572.142 268.247 571.11 265.126 568.737 263.439C544.565 241.506 516.39 224.945 485.92 214.763C359.077 172.501 223.279 244.398 180.568 376.427C152.092 464.851 173.218 562.528 235.298 629.47C297.378 696.412 389.989 721.379 475.216 694.151C506.035 684.723 534.759 668.98 559.723 647.835C562.202 646.232 563.354 643.094 562.54 640.165C561.581 636.601 558.071 634.501 554.653 635.445V635.15ZM610.991 569.658C607.047 581.458 600.286 581.753 595.779 569.658L579.16 526.587C573.586 514.278 562.467 505.739 549.582 503.871L507.892 500.331C496.061 500.331 494.089 492.366 503.385 484.695L538.596 455.195C548.42 446.571 552.406 432.656 548.737 419.794L532.399 371.117C528.456 359.317 532.399 355.482 543.103 362.562L583.948 392.063C594.809 399.161 608.581 399.161 619.441 392.063L656.625 364.332C666.202 356.957 672.118 361.087 669.301 373.182L658.878 420.089C656.584 433.482 661.184 447.153 670.991 456.08L701.977 481.45C711.272 489.121 709.301 496.201 697.47 497.086L654.371 500.626C641.694 502.599 630.969 511.472 626.202 523.932L610.991 569.658Z" fill="#FFCE54"/>
</svg>
