<svg width="2000" height="1417" viewBox="0 0 2000 1417" fill="none" xmlns="http://www.w3.org/2000/svg">
<g clip-path="url(#clip0)">
<path d="M2000 0H0V1416.04H2000V0Z" fill="white"/>
<path d="M490.701 297.493V143.319H538.039L568.998 260.65L599.534 143.319H647.083V297.493H617.074V173.149L585.481 297.493H552.725L520.709 173.149V297.493H490.701H490.701ZM737.53 174.196L715.975 239.822H759.191L737.53 174.196H737.53ZM718.933 143.319H755.916L812.023 297.493H778.422L767.856 265.779H707.522L697.273 297.493H663.566L718.934 143.319H718.933ZM897.61 297.493H865.594V240.031L809.064 143.319H848.266L881.549 209.782L912.297 143.319H948.857L897.61 240.031V297.493V297.493ZM988.692 220.563C988.692 237.519 992.496 250.707 1000.1 260.127C1007.71 269.477 1018.35 274.152 1032.01 274.152C1045.82 274.153 1056.56 269.477 1064.24 260.127C1071.92 250.707 1075.76 237.519 1075.76 220.563C1075.76 203.607 1071.92 190.454 1064.24 181.104C1056.56 171.684 1045.82 166.974 1032.01 166.974C1018.35 166.974 1007.71 171.649 1000.1 180.999C992.496 190.349 988.692 203.537 988.692 220.563V220.563ZM956.042 220.563C956.042 195.652 962.875 175.905 976.54 161.322C990.277 146.668 1008.77 139.342 1032.01 139.342C1055.26 139.342 1073.75 146.668 1087.49 161.322C1101.29 175.975 1108.2 195.722 1108.2 220.563C1108.2 245.404 1101.29 265.151 1087.49 279.805C1073.75 294.458 1055.26 301.785 1032.01 301.785C1008.77 301.785 990.276 294.458 976.54 279.805C962.875 265.151 956.042 245.404 956.042 220.563V220.563ZM1165.78 297.493V170.846H1119.61V143.319H1243.66V170.846H1197.8V297.493H1165.78ZM1294.27 297.493V170.846H1248.09V143.319H1372.14V170.846H1326.28V297.493H1294.27H1294.27ZM1390.53 297.493V143.319H1503.48V170.114H1422.12V202.979H1496.51V229.355H1422.12V269.024H1507.29V297.494H1390.53" fill="#D42E12"/>
<path d="M588.18 410.124C574.647 412.148 564.45 416.095 550.822 424.8C546.438 427.634 542.34 429.658 541.577 429.355C540.815 429.051 539.957 426.622 539.576 423.687C539.195 420.954 538.337 417.816 537.67 416.905C535.764 414.071 533.953 416.399 530.427 425.913C528.807 430.468 526.996 434.82 526.52 435.427C524.804 437.654 522.517 436.844 519.753 433.201C516.989 429.456 512.796 428.342 511.843 431.075C511.557 431.885 511.748 435.124 512.32 438.363C514.035 447.877 511.271 449.294 503.456 442.917C496.69 437.35 494.117 436.237 491.544 437.654C488.875 439.172 488.97 441.298 492.401 449.699C495.356 456.986 495.546 462.249 492.687 457.998C491.925 456.885 488.399 454.354 484.777 452.533C481.156 450.609 475.533 447.472 472.197 445.448C468.862 443.524 464.287 441.197 462 440.286C457.807 438.767 435.125 435.225 433.219 435.933C432.647 436.136 435.792 438.869 440.08 442.107C449.515 448.99 467.623 466.601 467.623 468.828C467.623 470.144 466.574 470.346 459.999 469.739C451.326 468.929 451.517 468.626 453.423 478.241C454.09 481.581 454.185 483.808 453.613 484.415C453.041 485.022 450.087 484.82 445.608 483.808C441.7 482.998 438.27 482.289 437.888 482.289C436.459 482.289 437.126 490.285 439.127 497.067C441.033 503.443 441.033 504.05 439.509 505.164C437.602 506.682 435.411 505.974 420.925 498.889C412.347 494.638 410.155 493.929 405.486 494.131C402.531 494.233 399.005 494.941 397.575 495.751L394.907 497.168L401.102 504.253C408.44 512.755 415.874 524.091 417.017 528.645C419.114 536.237 412.061 537.552 388.331 534.313C375.37 532.492 366.602 532.795 362.314 535.224C358.978 537.046 347.542 548.382 347.542 549.9C347.542 550.406 353.069 551.115 359.836 551.419C374.036 552.026 384.328 554.657 392.81 559.617C400.816 564.273 400.625 565.285 391.953 565.285C384.71 565.285 380.516 566.499 376.704 569.738C374.894 571.257 374.894 571.358 376.704 573.483C379.468 576.722 384.805 579.252 391.381 580.366C394.716 580.973 397.575 581.58 397.766 581.884C397.957 582.086 395.002 582.795 391.19 583.402C381.279 585.123 367.365 589.475 360.598 593.119C354.499 596.358 354.213 596.762 352.974 606.175L352.402 610.022L355.452 609.313C360.217 608.2 384.805 607.592 388.808 608.503C394.907 609.92 393.192 611.337 383.757 612.552C371.939 614.07 365.268 615.487 362.123 617.208L359.645 618.625L364.791 621.256C367.651 622.774 374.226 624.9 379.468 626.013C401.769 630.872 404.533 633.604 385.853 632.592C370.51 631.783 364.41 632.39 364.887 634.92C365.363 637.754 374.798 642.612 384.614 645.244C390.618 646.863 388.331 648.078 378.515 648.483C369.652 648.786 362.981 651.216 360.217 655.163C358.025 658.098 359.359 671.458 361.932 673.179C362.504 673.483 363.648 673.078 364.506 672.268C365.363 671.357 369.271 669.13 373.178 667.106C380.516 663.361 380.612 663.361 391.095 665.082C395.574 665.79 399.482 669.738 402.817 677.025C404.437 680.466 407.773 685.932 410.251 689.171C412.729 692.41 415.588 696.155 416.541 697.47C418.351 699.798 418.351 699.9 416.35 704.151C415.302 706.58 414.158 709.312 413.872 710.223C412.157 716.499 382.994 714.373 360.026 706.276C350.877 703.037 337.344 695.952 331.245 691.195L326.575 687.551V691.499C326.575 701.215 333.723 717.713 340.871 724.495L345.445 728.847L340.775 738.361C334.962 750.203 334.581 754.758 339.06 759.515C340.68 761.336 341.824 763.361 341.442 764.17C341.156 764.98 338.679 767.004 335.915 768.624C327.338 773.786 327.719 773.28 331.245 775.203C332.96 776.215 337.63 777.227 341.442 777.531C345.636 777.936 348.971 778.644 349.543 779.454C351.926 782.49 346.97 789.17 338.393 794.636C336.963 795.547 338.011 795.952 344.206 796.964C348.399 797.571 354.499 798.178 357.739 798.28L363.648 798.482L361.646 802.328C359.264 806.883 354.785 811.842 351.068 814.271L348.399 816.093L351.354 816.498C352.974 816.802 356.31 816.599 358.787 816.194C365.935 814.98 374.608 815.182 376.514 816.599C379.468 818.927 376.99 824.19 369.557 831.781L363.076 838.462L367.269 839.17C375.179 840.385 385.186 839.069 390.523 836.134C393.287 834.717 395.669 833.603 395.86 833.806C397.194 835.324 392.048 850 388.712 854.048C387.95 854.959 387.569 856.073 387.95 856.579C388.331 856.984 393.477 857.287 399.291 857.287C407.582 857.287 410.727 856.882 413.205 855.465C415.016 854.555 416.636 853.745 416.827 853.745C416.922 853.745 417.112 855.87 417.112 858.502C417.112 861.943 416.445 864.069 414.635 866.599L412.252 869.939H414.921C421.115 869.838 435.792 864.777 441.033 860.729C444.464 858.198 444.75 858.299 444.75 862.044C444.655 866.295 442.558 872.469 440.366 875.101C438.365 877.53 438.841 877.53 448.181 875C456.568 872.773 464.001 869.635 467.813 866.801C471.34 864.069 471.721 864.372 470.958 868.623C470.101 873.684 468.29 876.619 464.668 878.643C463.048 879.453 461.905 880.465 462.191 880.668C462.953 881.579 483.062 878.239 487.636 876.518C489.924 875.708 492.592 874.19 493.545 873.279C495.165 871.761 495.26 871.761 495.26 874.19C495.26 875.607 494.212 878.846 492.878 881.477C491.544 884.109 490.495 886.437 490.495 886.741C490.495 887.55 495.737 885.83 501.836 882.996C505.172 881.376 509.079 880.06 510.509 880.06C513.749 880.06 517.561 883.198 520.516 888.158C522.136 890.89 524.614 892.915 529.379 895.445L536.05 898.988L536.431 894.838C536.908 891.093 552.632 847.166 554.157 845.445C554.824 844.737 573.98 858.704 592.469 873.279C603.619 882.085 629.256 909.109 636.785 920.04C657.465 949.999 664.232 970.647 664.327 1004.05C664.327 1022.47 663.183 1032.29 659.181 1050C650.413 1087.85 630.018 1123.89 606.86 1142.1C591.611 1154.15 573.599 1158.2 540.053 1157.08C499.454 1155.77 474.103 1146.76 455.329 1127.23C441.415 1112.65 432.266 1093.62 428.453 1071.35C427.882 1067.71 427.405 1058.8 427.405 1051.62C427.405 1026.92 432.647 1009.82 444.083 996.76C453.995 985.525 464.573 979.351 478.106 977.125C490.972 974.999 505.648 979.554 514.702 988.359C520.992 994.534 521.278 997.469 516.322 1007.99C511.938 1017.41 511.557 1019.84 514.321 1022.77C516.894 1025.51 522.231 1025.4 528.33 1022.27C537.194 1017.91 541.577 1007.29 540.815 992.509C540.053 979.25 534.239 970.647 521.087 963.562C508.317 956.781 501.836 955.465 481.918 955.566C465.431 955.566 463.715 955.769 455.71 958.4C439.699 963.562 429.978 970.445 422.449 981.578C405.295 1007.29 395.86 1051.42 401.388 1079.96C405.676 1101.72 417.112 1125.3 433.028 1144.74C459.903 1177.73 495.546 1192.81 546.724 1192.81C584.654 1192.81 611.529 1185.12 638.214 1166.7C667.948 1146.25 687.199 1119.74 703.496 1076.92C707.88 1065.18 709.596 1057.89 710.358 1047.77C710.644 1042.81 711.406 1038.76 712.264 1037.75C716.076 1033.1 717.41 1019.84 715.028 1011.23L713.598 1006.38L716.553 1003.64C721.794 998.683 721.222 987.955 715.314 980.768L712.55 977.428L715.695 974.088C719.793 969.635 721.604 961.234 720.841 950.101C720.365 942.408 717.124 931.68 715.314 931.68C713.408 931.68 714.647 928.947 717.41 927.226C721.699 924.493 723.986 919.939 723.986 913.866C723.986 901.619 719.221 882.793 715.695 881.376C714.265 880.769 713.979 878.036 715.314 878.036C717.506 878.036 720.46 868.522 720.937 859.919C721.508 849.089 719.507 840.789 715.314 836.336L712.55 833.3L715.504 826.822C718.077 821.255 718.459 819.636 717.982 814.98C716.934 804.251 705.783 784.413 697.397 778.543C694.347 776.417 693.489 775.203 693.489 772.875C693.489 766.094 688.248 756.073 679.48 746.053C670.331 735.729 667.377 731.073 665.471 723.786C664.136 719.13 662.707 716.701 658.704 712.45C654.034 707.491 644.123 701.215 638.214 699.596C636.975 699.292 636.308 698.28 636.308 696.661C636.213 690.183 628.684 679.353 622.013 676.114C618.677 674.495 618.201 673.888 618.201 670.952C618.201 666.803 614.96 662.653 607.336 657.086C600.093 651.924 588.657 648.786 571.026 647.167C533.953 643.928 517.466 637.349 500.026 618.928C489.447 607.795 485.349 600.305 481.537 585.528C478.392 573.281 478.201 561.844 481.06 552.937C483.062 546.662 489.447 533.909 490.591 533.909C490.972 533.909 490.4 537.249 489.352 541.196C486.874 550.811 486.588 566.601 488.875 574.293C492.02 585.022 498.215 593.018 506.887 597.775C512.796 601.013 515.655 601.722 525.757 602.734C536.24 603.746 543.293 605.973 546.724 609.313C551.87 614.374 563.402 614.981 574.457 610.932C577.316 609.819 582.653 608.605 586.37 608.301L593.231 607.592L602.094 614.171C611.243 620.851 650.794 644.535 657.751 647.471C670.426 652.835 684.722 649.09 690.726 638.868C695.586 630.669 691.202 622.977 670.522 603.139C653.748 587.147 649.746 581.682 647.554 572.37C646.601 568.423 643.551 559.819 640.597 553.342C633.64 537.451 633.544 534.718 640.12 527.431C642.693 524.496 645.552 520.447 646.315 518.322C647.84 514.577 648.507 506.075 647.458 504.86C646.887 504.354 640.501 505.771 637.166 507.087C636.117 507.492 635.927 505.974 636.213 498.99C636.403 493.524 636.022 489.172 635.355 487.249L634.116 484.213L630.685 487.755C627.159 491.399 624.586 492.31 623.442 490.387C623.156 489.88 622.489 486.945 622.013 483.909C621.06 477.532 617.248 467.613 616.295 468.828C615.913 469.233 615.056 471.358 614.388 473.383C613.817 475.508 612.959 477.229 612.482 477.229C612.101 477.229 611.434 474.8 611.053 471.864C610.005 463.16 608.861 459.516 606.288 456.986C604.191 454.86 603.619 454.759 602.952 455.974C602.476 456.784 601.999 458.605 601.999 460.022C601.999 464.476 599.331 473.484 595.804 481.075C588.943 495.65 582.462 494.233 569.12 475.508C561.496 464.779 560.352 461.439 562.449 456.581C567.5 445.245 588.657 429.962 608.575 423.383C612.292 422.168 615.341 420.853 615.341 420.448C615.341 418.525 610.576 413.97 606.383 411.844C601.618 409.517 596.09 409.011 588.18 410.124Z" fill="#DFDFDF"/>
<path d="M391.294 611.277C397.345 607.704 367.984 608.267 361.777 608.336C357.574 609.682 353.714 611.627 352.422 610.992C351.13 610.357 352.169 605.37 353.479 596.9C358.1 592.872 362.885 590.711 367.979 589.135C372.835 587.305 377.12 586.105 382.662 584.228C387.974 583.554 389.694 583.812 397.255 582.061C388.386 580.563 382.09 581.712 373.273 571.85C376.837 569.574 378.241 566.693 382.526 565.601C386.812 564.626 388.317 564.78 391.837 564.78C398.584 564.78 400.556 566.09 396.042 562.633C391.527 559.177 382.906 555.254 373.226 553.385C364.719 551.827 351.812 551.779 345.591 551.512C348.446 545.52 353.759 542.016 356.985 538.277C362.265 531.424 374.399 531.578 392.585 534.693C421.332 538.431 423.092 534.693 404.905 510.394L393.346 496.882L400.679 493.79L408.686 493.56C416.312 495.429 426.025 501.671 431.892 504.163C441.279 508.525 440.768 504.418 437.835 496.318C435.488 489.464 437.191 489.501 436.28 481.915C440.974 481.915 453.349 486.902 453.349 483.787C453.349 480.048 451.726 477.546 450.816 468.948C454.922 468.948 464.13 470.119 466.155 469.655C468.18 469.191 463.337 464.234 458.403 459.538L445.704 447.451L427.766 434.605L454.382 438.145C462.595 438.145 475.589 447.621 482.483 451.437C485.929 453.345 489.199 453.936 491.271 456.243C496.011 458.112 490.315 463.101 493.75 458.507C495.501 455.164 487.389 445.283 488.491 440.12C494.308 428.341 507.342 449.906 510.179 446.422C515.605 445.799 507.522 432.379 511.826 429.658C517.968 425.775 521.465 439.113 524.771 436.754C528.077 434.396 530.219 417.301 535.445 415.153C540.671 413.006 538.542 432.6 542.062 429.952C549.689 424.344 566.196 413.341 579.773 411.345C586.561 410.347 594.47 408.274 601.167 409.556C607.864 410.837 614.182 415.726 616.004 421.698C606.985 424.492 605.56 424.75 596.174 429.111C586.787 432.85 574.467 442.195 568.6 448.426C558.627 460.264 558.627 461.51 569.774 476.464C583.854 497.025 590.894 495.778 598.52 472.102C601.747 462.756 600.741 456.819 602.273 453.638C603.158 454.323 606.369 455.736 608.301 458.944C609.992 461.75 611.499 474.154 611.483 477.392C612.895 476.479 614.214 472.406 615.534 465.872C619.062 473.091 620.072 475.468 621.245 478.895C622.419 482.322 621.4 491.417 624.92 491.417C626.974 491.417 629.467 487.207 633.838 483.104C637.613 490.633 637.076 500.04 635.567 507.171C638.523 506.148 644.585 503.955 647.527 503.662C648.446 507.415 648.387 511.93 647.673 515.346C645.53 520.231 644.867 524.439 640.174 528.177C633.134 534.408 633.134 538.146 640.174 552.477C644.867 561.822 648.387 572.414 648.387 576.776C648.387 580.514 658.947 592.975 672.44 604.813C688.867 619.767 694.734 629.113 692.387 635.966C686.52 650.92 668.334 655.281 651.907 645.935C644.28 641.574 627.267 631.605 613.774 623.505C604.68 618.209 598.694 612.435 593.148 608.732C584.234 608.605 577.444 609.475 569.774 613.536C558.04 615.405 548.654 614.159 546.307 610.421C543.96 606.683 534.574 603.567 525.774 603.567C502.307 603.567 486.943 587.085 486.025 562.951C485.672 552.464 487.005 545.837 490.283 534.029C477.332 555.751 476.57 565.767 481.221 584.933C486.825 611.684 512.867 645.936 570.36 646.559C581.214 646.87 590.305 650.139 600.57 652.323C607.131 656.449 621.128 664.35 618.285 674.256C628.93 677.271 636.237 688.991 636.391 698.608C662.528 706.914 665.987 723.195 665.987 726.31C665.987 729.425 672.441 738.771 680.654 746.871C688.867 754.971 694.31 768.066 693.3 775.288C702.392 780.272 705.651 787.554 711.181 795.469C715.869 805.576 723.675 818.154 712.16 833.272C724.216 838.019 723.687 874.273 714.063 879.523C721.144 884.692 722.665 897.304 724.175 914.473C724.241 920.25 722.482 925.421 713.845 929.992C716.147 931.224 717.977 934.609 719.23 939.035C720.482 943.461 721.158 948.928 721.151 954.323C721.143 959.719 720.455 965.044 718.978 969.187C717.5 973.329 715.235 976.289 712.077 976.954C722.842 984.42 722.582 1004.17 713.303 1006.2C718.501 1016.29 716.868 1036.1 710.238 1039.99C711.689 1060.33 704.102 1074.75 700.087 1085.5C692.057 1107 681.479 1125.22 668.215 1140.53C654.951 1155.83 639.001 1168.21 620.227 1178.03C579.161 1199.21 509.347 1198.59 469.454 1176.78C434.254 1157.47 405.507 1115.72 399.641 1075.22C394.361 1039.08 410.787 986.125 431.907 969.302C465.347 943.134 530.467 951.857 539.854 983.633C544.547 999.832 538.681 1019.15 527.534 1023.51C512.867 1029.12 507.001 1021.64 515.214 1007.93C521.081 997.34 520.494 994.225 511.107 986.125C482.947 964.318 440.707 983.633 430.734 1022.26C418.414 1072.11 437.774 1122.57 477.081 1143.14C509.934 1160.58 576.227 1161.83 599.694 1146.25C645.454 1115.72 674.201 1032.85 660.121 970.549C652.494 936.28 620.814 893.912 579.747 864.629L553.934 845.314L544.547 870.859C539.561 884.255 535.161 891.693 536.347 900.157C528.724 895.219 525.974 896.111 520.715 890.852C518.368 885.244 514.041 878.959 507.587 880.828C506.121 881.295 497.228 886.855 488.374 888.136C491.425 880.566 494.514 880.348 494.153 872.801C489.407 879.229 475.807 880.028 458.174 882.009C471.97 873.623 469.351 871.982 470.376 864.932C465.096 871.275 451.917 875.229 436.679 878.141C444.536 869.421 443.191 866.74 443.963 858.801C436.235 866.876 417.412 871.387 410.432 870.912C416.546 863.356 416.646 863.457 416.527 854.112C409.664 859.834 396.983 859.028 385.642 856.896C392.634 848.948 394.774 840.18 395.173 833.517C385.978 842.595 370.919 840.639 361.081 838.905C368.787 831.645 373.458 827.557 375.851 823.001C378.64 817.276 376.761 815.407 367.374 815.407C360.921 815.407 356.455 819.801 346.931 815.928C360.741 810.13 364.492 791.388 367.592 791.009C379.946 789.503 350.405 814.889 376.851 809.543C383.457 808.536 386.461 808.658 391.361 808.956C387.927 814.311 387.341 814.531 384.387 818.522C381.067 823.719 380.406 830.492 372.551 834.873C379.219 834.914 384.669 835.56 389.084 831.839C393.5 828.117 393.546 826.602 402.855 819.485C404.123 826.938 403.497 828.429 402.809 833.367C401.618 841.916 400.064 844.165 397.642 850.923C407.747 853.412 413.96 850.027 415.725 845.395C418.364 842.469 422.135 835.014 427.315 833.506C429.419 840.223 427.179 840.483 426.406 846.172C424.204 852.569 423.656 857.125 421.769 863.128C432.024 860.028 438.322 856.1 444.814 847.806C455.96 837.837 455.96 837.837 452.44 850.921C450.991 859.644 451.341 861.594 448.36 869.123C458.237 867.295 467.4 862.448 472.387 854.037C478.254 844.691 478.84 845.314 476.494 857.152C476.162 865.116 477.465 866.405 475.619 874.108C484.585 872.094 491.16 868.367 495.854 860.267C501.72 850.921 502.307 851.544 499.96 863.383C498.494 870.859 501.187 872.401 497.032 880.202C507.162 875.613 507.587 876.778 511.107 870.859C513.454 865.875 517.322 872.53 522.016 881.876C525.829 889.041 528.926 889.589 531.767 889.938C532.465 884.471 534.574 880.828 539.267 868.99C544.547 855.283 548.067 844.068 547.48 842.822C546.307 842.199 531.64 834.099 515.214 824.753C498.2 816.03 484.12 806.061 484.12 802.323C484.12 799.208 481.187 796.715 477.08 796.715C467.694 796.715 443.054 771.793 443.054 762.447C443.054 758.086 437.774 747.494 431.32 739.394C422.52 726.933 412.547 722.572 386.147 719.456C367.484 715.953 351.823 710.734 342.147 705.126C337.305 702.436 336.642 700.16 332.924 698.626C332.778 701.897 334.814 711.98 341.56 718.833C345.374 723.195 349.279 724.141 352.749 726.417C349.486 729.945 347.134 736.59 344.494 741.263C338.627 751.232 338.627 754.347 346.84 757.463C354.467 760.578 354.467 762.447 348.014 766.809C345.374 768.989 341.399 770.488 338.616 772.395C342.976 773.543 346.385 773.834 354.705 771.577C365.265 764.786 366.073 766.79 361.507 773.662C357.766 779.658 355.237 786.354 349.798 791.006C356.025 791.359 358.867 790.173 364.44 787.993C370.307 785.5 375.273 783.829 371.242 793.501C367.412 800.261 369.527 789.865 365.892 798.785C359.628 800.069 345.403 798.484 335.001 795.812C344.361 790.36 347.783 786.097 348.957 783.293C350.717 777.686 345.667 778.024 340.974 778.024C338.92 778.024 332.133 778.895 327.061 772.919C331.275 770.483 337.681 768.279 341.536 763.141C329.509 755.776 336.497 744.615 339.3 739.313C341.621 735.076 341.811 732.832 344.507 728.434C340.805 728.148 335.4 720.702 332.76 715.718C327.187 705.126 324.768 695.062 325.576 686.403C333.526 692.916 336.608 695.017 341.56 697.631C349.965 702.967 368.005 709.683 383.944 712.243C399.883 714.803 413.72 714.472 413.72 708.241C413.72 702.011 420.099 702.528 415.486 697.546C406.848 688.219 402.199 679.843 399.509 671.591C394.481 665.126 388.132 664.65 379.715 664.555C375.25 667.092 366.54 669.3 362.52 675.469C358.739 673.548 356.79 661.175 358.705 655.285C359.528 652.756 369.244 647.91 374.723 647.706C380.201 647.502 383.109 649.157 387.934 646.987C382.255 645.25 379.15 645.351 373.233 642.219C367.97 639.434 362.87 637.779 363.559 634.232C364.411 629.843 393.514 632.836 397.621 632.991C400.994 633.147 391.259 628.857 384.085 627.894C379.378 626.102 368.886 626.802 358.272 618.436C366.104 613.091 370.23 615.34 376.652 612.824L391.294 611.277ZM400.825 613.847C398.463 619.131 370.176 617.693 378.042 619.876C378.042 619.876 399.89 624.152 407.121 630.744C408.4 636.578 400.776 639.165 400.776 639.165L373.069 636.029C372.772 640.057 400.002 641.576 399.065 647.628C398.761 649.589 400.572 653.286 391.511 652.189C383.259 652.59 373.135 651.699 367.008 655.065C362.556 657.421 362.02 662.663 363.418 667.15C367.449 663.662 373.861 660.79 377.381 659.544C384.897 658.51 390.335 660.149 395.414 662.457C400.493 664.765 404.023 667.237 408.44 676.465C411.374 684.565 420.76 693.911 429.56 697.649C438.947 700.764 453.944 709.298 460.654 718.833C468.092 729.403 473.642 737.969 491.558 748.962C509.158 765.785 493.958 759.804 501.496 761.033C521.698 764.327 532.813 769.301 536.333 774.285C540.44 779.27 549.827 784.877 557.453 786.746C565.667 789.239 572.12 793.6 572.12 796.715C572.12 800.454 576.227 802.946 581.507 802.946C594.413 802.946 651.907 867.121 662.467 892.666C682.413 940.642 685.933 958.087 685.933 1004.82C685.347 1035.97 681.827 1064.01 676.547 1077.09C664.813 1106.37 614.778 1165.21 601.285 1165.21C598.9 1165.93 599.863 1165.67 597.036 1166.15C595.738 1168.21 594.997 1168.41 590.413 1170.68C583.752 1174.22 575.212 1175.95 564.797 1176.26C554.383 1176.58 542.093 1175.48 527.932 1173.37C513.771 1171.27 499.884 1168.15 489.538 1164.5C479.193 1160.86 475.387 1158.88 472.387 1155.52C471.491 1154.52 469.109 1153.21 469.506 1148.83C467.378 1150.89 462.431 1150.4 456.521 1144.72C451.72 1140.11 447.101 1137.96 449.507 1133.32C443.158 1132.62 442.076 1129.75 437.074 1122.29C433.785 1117.38 430.045 1113.03 431.647 1106.09C427.274 1107.01 425.106 1100.51 422.602 1094.36C420.406 1088.96 416.49 1081.61 421.362 1078.95C415.761 1079.1 416.813 1071.83 416.132 1066.77C415.451 1061.71 414.047 1053.86 419.694 1052.48C413.909 1050.54 416.384 1044.2 417.256 1038.5C418.478 1030.52 419.169 1026.2 423.969 1025.14C419.679 1023.11 422.294 1015.61 425.122 1005.39C427.389 997.193 432.585 994.203 438.565 995.563C432.846 990.931 443.289 983.373 445.534 981.384C451.769 975.857 458.859 973.804 460.251 977.397C459.651 970.67 481.765 970.077 490.225 971.091C498.686 972.105 506.12 976.156 514.04 983.01C526.36 993.602 526.947 996.717 520.493 1007.93C512.867 1022.26 518.733 1025.38 529.88 1013.54C541.613 1001.08 538.094 985.502 521.08 971.171C508.174 959.956 499.374 958.087 477.08 959.956C437.774 964.318 421.934 977.402 410.787 1016.03C393.187 1080.21 417.24 1143.76 470.04 1171.17C493.507 1183.01 507.587 1186.13 545.72 1186.13C601.453 1185.5 636.067 1171.17 668.333 1133.17C688.28 1110.11 710.573 1049.89 703.533 1038.67C692.081 1033.5 703.533 1033.48 707.053 1033.48C711.747 1033.48 713.507 1007.66 704.768 1002.97C722.204 1003.04 712.972 979.898 702.473 975.343C711.873 975.105 716.523 965.345 716.802 955.02C717.081 944.694 712.989 933.804 704.906 931.307C698.813 929.424 704.424 927.704 710.145 926.322C716.965 924.675 719.588 923.592 718.746 910.686C717.736 902.229 714.932 888.09 709.161 885.485C703.218 882.803 693.965 882.023 688.805 881.532C695.07 879.387 701.044 878.141 705.88 877.713C716.44 873.04 720.001 850.358 710.506 844.008C701.011 837.657 677.113 850.139 675.857 844.989C680.515 839.574 694.95 838.241 701.36 833.291C709.206 825.1 716.44 817.276 703.534 797.962C697.08 787.37 698.106 784.744 690.635 781.817C680.73 781.392 659.489 795.553 643.238 795.002C650.681 788.424 675.995 783.143 684.072 776.923C692.149 770.702 686.02 761.039 677.72 749.986C667.747 740.64 663.64 740.017 650.734 746.248C641.934 749.986 628.006 753.878 612.913 756.561C618.772 750.14 645.454 743.133 651.32 738.148C662.467 729.425 662.467 725.768 651.907 713.307L636.109 706.408L618.467 716.341C605.56 722.572 585.587 729.967 585.587 728.098C585.587 726.852 603.8 718.21 613.187 712.603C623.16 706.995 629.236 698.895 629.236 694.534C629.236 678.958 615.702 676.888 594.959 692.242C584.399 698.784 558.037 707.322 556.463 704.172C554.51 700.267 574.139 696.444 583.854 691.419C593.496 685.577 611.606 675.996 611.606 671.012C609.225 662.56 598.52 656.527 552.174 650.92C517.56 646.559 499.374 634.72 484.12 607.929C465.347 575.53 468.867 547.492 494.094 521.947L515.214 500.763L502.894 520.701C480.014 555.592 491.16 597.337 523.427 597.337C531.054 597.337 542.2 600.452 548.067 604.814C556.28 609.798 563.431 608.722 570.326 606.566L581.539 603.059L585.425 602.169L569.187 590.483C551 581.137 543.374 563.069 553.347 552.477C556.867 548.739 558.04 552.477 556.28 562.446C553.934 574.284 556.28 579.891 564.494 583.007C570.36 586.122 582.094 592.976 589.72 599.206C614.947 618.521 648.974 640.951 652.494 640.951C654.254 640.951 651.32 634.72 644.867 626.621C638.414 619.144 641.934 620.39 652.494 630.982C668.334 645.936 673.027 647.805 680.654 640.951C693.56 629.736 691.8 624.752 669.507 609.798C656.014 601.698 646.627 588.614 641.934 573.661C638.414 561.2 632.547 547.492 630.2 543.754C626.68 539.393 628.44 533.785 633.72 528.801C638.707 524.439 643.692 514.309 643.161 510.6C640.845 511.064 639.085 511.753 636.654 513.224C633.72 515.093 630.787 512.601 630.787 506.994C630.787 504.19 632.819 493.568 632.269 490.96C630.885 493.663 626.68 499.828 624.92 500.763C621.987 502.632 618.467 500.763 618.467 496.402C617.587 487.367 616.494 484.724 615.767 480.473C614.562 482.797 608.485 492.11 605.73 494.345C608.073 487.468 606.221 465.395 605.215 463.343C605.042 469.257 601.904 479.769 600.96 483.57C594.732 492.898 593.217 494.936 586.205 497.193C580.265 497.426 577.4 494.844 569.187 484.564C560.974 473.972 555.949 466.035 555.473 460.635C555.473 455.027 572.877 432.85 593.487 424.506C602.22 421.138 603.403 420.183 608.76 418.665C607.302 418.316 605.16 416.152 598.792 414.889C595.456 414.228 581.951 414.277 573.233 418.673C565.437 421.328 547.418 429.502 539.205 438.225C534.751 439.021 539.806 423.105 534.607 425.403C529.407 427.7 531.464 444.277 527.075 446.763C520.495 450.491 519.432 438.251 516.499 438.251C513.565 438.563 518.863 452.772 513.415 456.083C509.849 458.25 497.498 442.152 496.031 444.644C494.95 446.589 505.567 459.901 502.705 461.879C499.169 464.838 499.511 468.799 491.69 465.51C485.281 462.077 456.971 443.201 449.679 443.741C456.446 448.456 461.705 454.183 469.043 461.302C480.776 474.387 484.093 476.017 474.706 477.534C465.986 476.017 463.831 473.217 459.528 476.308C457.377 477.853 461.496 489.649 458.581 491.536C455.667 493.423 445.66 489.274 444.542 490.501C440.068 495.408 448.026 501.983 445.386 509.148C441.866 519.74 440.106 519.74 428.372 511.017C418.986 503.852 406.989 498.725 406.629 501.438C406.156 504.999 409.012 506.656 414.292 514.755C431.306 540.301 426.612 545.285 393.172 541.547C393.172 541.547 365.942 533.111 357.786 546.331C365.842 544.726 385.144 548.804 390.291 551.175C393.079 552.459 399.117 556.3 404.33 560.7C406.937 562.901 405.429 564.63 403.85 569.494C397.748 571.831 391.099 573.257 383.899 572.83C405.673 582.14 403.723 574.444 411.617 579.119C405.947 589.053 401.434 588.318 382.041 591.201C377.238 593.639 372.596 594.792 367.316 596.35C361.889 597.907 358.532 602.377 359.872 602.886C361.212 603.396 366.534 601.969 372.514 601.341C379.526 601.438 375.895 601.374 391.611 603.091C398.957 604.995 402.247 610.723 400.825 613.847L400.825 613.847Z" fill="black"/>
<path d="M600.446 551.418C600.446 555.059 598.454 558.01 595.998 558.01C593.542 558.01 591.551 555.059 591.551 551.418C591.551 547.778 593.542 544.827 595.998 544.827C598.393 544.827 600.358 547.638 600.443 551.186" fill="black"/>
<path d="M609.384 556.28C606.569 563.847 598.3 567.642 590.915 564.757C583.53 561.873 579.825 553.401 582.641 545.834C585.456 538.268 593.725 534.473 601.11 537.357C608.486 540.238 612.192 548.693 609.394 556.255" stroke="black" stroke-width="1.7"/>
<path d="M557.627 531.749C576.146 521.378 601.737 537.471 601.737 537.471" stroke="black" stroke-width="1.7"/>
<path d="M418.792 710.371C418.131 707.027 419.564 705.368 424.66 701.897C430.946 702.725 441.868 707.477 448.79 713.986C460.583 725.078 462.373 729.211 469.02 738.703C466.308 744.405 464.546 745.636 459.403 750.951C454.182 754.582 451.09 756.788 447.543 758.589C444.711 749.264 441.267 744.654 433.446 733.939C429.788 728.014 418.976 723.502 413.493 719.115C414.676 714.476 416.844 714.112 418.792 710.371V710.371Z" fill="#DFDFDF"/>
<path d="M462.901 754.355C468.301 750.654 469.735 745.418 473.483 743.021C478.423 745.279 477.138 745.926 485.155 750.104C493.775 755.889 490.657 754.6 497.304 764.092C494.592 769.794 493.166 772.456 489.034 778.486C484.486 782.832 484.424 786.11 480.204 791.488C472.321 789.315 467.194 786.135 461.056 778.639C456.725 773.071 451.638 772.85 449.521 763.457C455.082 759.533 459.607 757.739 462.901 754.355V754.355Z" fill="#DFDFDF"/>
<path d="M493.544 780.818C497.597 774.972 498.357 770.809 501.769 766.623C507.718 767.451 512.495 768.456 519.502 770.845C529.131 773.055 530.391 776.414 535.354 781.973C532.643 787.674 532.227 794.985 530.114 805.306C528.597 812.514 527.189 816.507 524.315 822.957C516.432 819.354 510.632 816.174 503.821 811.539C496.796 807.044 490.025 802.532 486.898 793.139C490.439 786.354 490.25 784.202 493.544 780.818V780.818Z" fill="#DFDFDF"/>
<path d="M535.632 808.711C537.327 800.719 537.077 792.265 540.826 785.933C546.775 786.761 545.828 788.839 552.835 791.228C560.107 794.511 565.071 795.367 569.024 803.786C562.608 810.203 561.182 809.289 559.07 819.61C557.553 826.818 560.521 836.89 557.648 843.34C549.765 839.737 549.016 837.63 542.204 832.995C535.179 828.5 534.469 830.425 529.996 825.681C532.526 817.465 534.021 813.526 535.632 808.711V808.711Z" fill="#DFDFDF"/>
<path d="M564.589 820.154C567.969 812.877 569.402 811.217 573.151 807.746C580.111 810.72 583.203 808.864 589.874 815.187C596.136 819.9 609.181 831.484 614.144 837.042C609.412 839.526 604.995 841.241 599.476 848.933C593.957 856.624 595.54 858.703 592.33 867.299C586.467 863.338 583.698 861.231 578.233 857.668C572.555 852.101 570.161 850.45 563.668 845.706C566.198 837.848 563.652 826.398 564.589 820.154V820.154Z" fill="#DFDFDF"/>
<path d="M603.312 853.77C606.692 846.493 611.492 845.191 615.241 841.72C622.201 844.694 624.957 851.063 631.627 857.386C639.91 867.105 641.169 868.676 645.122 874.592C639.043 877.791 637.32 878.076 631.801 883.264C626.091 888.632 624.498 888.744 620.615 893.405C616.436 888.372 617.033 888.768 611.569 883.06C605.89 877.492 605.18 877.629 597.677 870.382C599.87 862.166 601.028 859.3 603.312 853.77V853.77Z" fill="#DFDFDF"/>
<path d="M635.637 888.457C639.69 885.114 643.481 882.738 646.893 880.341C650.149 884.387 653.241 887.537 655.198 892.072C658.429 896.428 658.679 897.284 661.285 903.2C655.206 906.398 655.84 905.611 651.331 907.938C646.947 910.202 645.038 912.702 639.808 916.291C635.629 911.258 638.583 913.084 633.119 907.376C630.471 903.954 629.088 901.23 624.951 896.844C630.849 891.489 631.67 890.768 635.637 888.457V888.457Z" fill="#DFDFDF"/>
<path d="M651.632 913.668C656.526 911.219 658.633 909.917 662.719 908.055C665.469 913.532 666.205 914.358 668.161 918.893C669.373 922.712 670.296 924.641 672.397 930.915C667.833 932.683 666.447 933.147 663.453 934.58C660.394 936.046 657.16 938.093 653.614 940.251C650.276 933.609 650.369 935.077 648.44 931.157C646.634 927.378 645.419 926.263 642.124 921.161C647.011 917.237 648.506 915.801 651.632 913.668V913.668Z" fill="#DFDFDF"/>
<path d="M663.776 939.46C668.67 937.01 668.634 937.605 672.72 935.743C675.47 941.22 677.397 950.896 678.877 956.822C679.969 963.549 680.892 971.041 681.208 979.211C676.882 980.094 678.668 979.551 674.883 980.348C671.119 981.141 670.916 981.295 666.893 983.074C665.698 974.155 664.664 969.238 662.488 963.144C661.04 958.858 658.039 949.147 654.744 944.045C658.917 941.638 660.65 941.592 663.776 939.46V939.46Z" fill="#DFDFDF"/>
<path d="M674.37 985.606C675.882 985.232 677.501 984.947 680.695 984.671C681.303 996.343 681.324 999.192 681.019 1010.81C680.206 1022.97 680.058 1032.86 678.231 1045.21C676.163 1044.57 675.691 1043.9 671.906 1043.69C668.126 1043.47 668.351 1043.41 664.447 1043.67C667.181 1032.1 667.274 1028.13 668.083 1014.35C668.42 1003.61 668.395 1000.14 667.58 988.056C670.562 987.04 671.839 986.346 674.37 985.605V985.606Z" fill="#DFDFDF"/>
<path d="M669.133 1049.33C670.645 1048.95 674.406 1049.43 677.601 1049.15C674.161 1069.67 671.325 1077.33 664.829 1089.95C657.112 1101.86 649.583 1113.02 639.66 1124.35C638.435 1123.45 637.598 1122.26 636.431 1121.07C635.306 1119.91 634.36 1119.56 633.02 1118.27C644.325 1102.39 646.322 1097.67 653.084 1083.13C658.659 1068.6 659.586 1064.62 663.295 1048.74C666.278 1050 666.602 1050.07 669.133 1049.33V1049.33Z" fill="#DFDFDF"/>
<path d="M633.656 1124.43C635.589 1125.75 634.644 1125.29 637.6 1127.29C632.97 1133.14 629.658 1136.5 621.019 1145.58C614.493 1150.67 612.54 1155.1 599.181 1160.83C597.59 1158.93 597.523 1158.68 596.75 1157.46C596.004 1156.29 595.689 1155.99 594.852 1153.71C601.633 1151.5 609.655 1146.47 614.75 1141.03C623.182 1133.33 625.3 1129.86 630.914 1122.33C632.212 1123.23 632.809 1123.56 633.656 1124.43V1124.43Z" fill="#DFDFDF"/>
<path d="M591.482 1159.56C592.545 1161.35 592.142 1161.87 593.139 1163.97C587.08 1167.8 585.727 1168.13 570.864 1171.21C552.598 1171.86 544.904 1171.4 536.326 1170.17C536.636 1167.75 536.664 1167.52 536.766 1165.23C536.862 1163.06 536.596 1163.77 536.758 1161.44C553.838 1162.65 559.025 1161.43 565.781 1160.97C577.937 1159.77 587.102 1156.73 589.989 1155.95C591.288 1158.46 591.141 1157.8 591.483 1159.56H591.482Z" fill="#DFDFDF"/>
<path d="M531.84 1165.63C531.474 1167.55 531.547 1166.92 530.997 1169.66C516.843 1167.05 516.561 1167.37 499.435 1163.62C486.527 1159.73 482.268 1156.77 474.286 1152.25C473.705 1149.26 473.865 1149.62 474.507 1148.37C475.353 1146.73 474.715 1147.26 476.629 1146.02C486.119 1152.07 496.286 1153.85 501.733 1155.79C514.722 1158.63 521.149 1159.39 532.131 1160.63C532.001 1163.27 531.974 1163.87 531.839 1165.63H531.84Z" fill="#DFDFDF"/>
<path d="M470.648 1144.52C468.499 1146.25 468.337 1147.05 465.638 1146.65C461.229 1146 460.661 1144.67 456.427 1141C454.351 1139.2 451.126 1135.71 451.768 1134.47C452.613 1132.82 454.04 1127.88 455.913 1131.1C457.552 1133.92 464.537 1138.27 468.677 1141.29C471.971 1143.69 471.483 1143.85 470.648 1144.52V1144.52Z" fill="#DFDFDF"/>
<path d="M449.458 1129.09C446.953 1129.93 447.581 1130.46 445.52 1128.57C443.849 1127.03 442.686 1124.44 439.642 1120.65C437.905 1118.48 434.431 1112.23 434.269 1110.82C433.805 1106.78 435.928 1104.11 437.581 1107.46C440.529 1113.43 444.3 1119.68 449.512 1124.72C452.465 1127.58 450.457 1128.76 449.458 1129.09H449.458Z" fill="#DFDFDF"/>
<path d="M434.221 1103.05C431.715 1103.89 431.986 1104.42 429.925 1102.52C428.254 1100.99 426.583 1096.99 424.643 1092.45C423.501 1089.78 420.963 1085.78 421.888 1083.13C422.916 1080.2 426.524 1078.19 427.463 1081.79C429.157 1088.29 429.714 1088.38 432.608 1096.02C433.723 1098.97 435.22 1102.71 434.221 1103.05V1103.05Z" fill="#DFDFDF"/>
<path d="M426.005 1075.36C425.024 1077.36 423.216 1077.12 420.281 1075.72C417.916 1074.59 418.804 1070.62 418.451 1065.65C418.261 1062.97 417.748 1060.49 418.435 1056.96C419.032 1053.9 424.478 1052.79 424.843 1056.51C425.108 1059.21 424.731 1060.79 425.226 1065.43C426.025 1072.91 426.771 1073.8 426.005 1075.36H426.005Z" fill="#DFDFDF"/>
<path d="M423.864 1049.19C423.294 1050.88 420.956 1050.32 419.569 1048.54C417.915 1046.42 419.877 1042.68 420 1038.47C420.079 1035.79 420.782 1033.09 422.127 1029.78C422.962 1027.73 425.979 1027.48 426.034 1031.22C426.062 1033.04 425.575 1035.41 425.108 1039.38C424.595 1043.74 424.775 1046.49 423.864 1049.19Z" fill="#DFDFDF"/>
<path d="M428.029 1022.77C427.458 1024.46 424.915 1022.85 424.447 1020.6C423.747 1017.21 425.959 1013.48 426.903 1009.39C427.696 1005.95 429.154 1001.86 431.768 999.563C433.674 997.888 437.122 996.965 436.389 1000.62C435.822 1003.46 432.002 1008.86 430.701 1013.46C429.512 1017.67 428.939 1020.06 428.029 1022.77Z" fill="#DFDFDF"/>
<path d="M443.624 992.547C441.933 992.616 439.97 993.12 440.519 990.884C441.008 988.889 442.831 987.906 446.308 984.984C448.084 983.49 451.208 980.759 452.958 979.839C454.975 978.778 458.937 977.448 457.58 980.898C457.012 982.342 455.216 982.944 452.01 985.267C448.597 987.74 444.773 992.5 443.624 992.547V992.547Z" fill="#DFDFDF"/>
<path d="M743.613 1167.98C709 1180.45 659.133 1205.99 639.186 1220.32C632.733 1225.31 633.32 1230.91 643.293 1252.1C650.333 1265.8 657.373 1277.64 658.546 1277.64C660.306 1277.64 679.666 1268.3 701.373 1256.46C723.08 1245.24 750.815 1230.45 763.56 1227.8C773.306 1225.77 782.207 1223.85 787.716 1221.43C789.935 1227.15 788.571 1223.96 792.613 1232.95C798.424 1245.86 794.807 1245.57 804.857 1249.1C815.453 1252.83 841.586 1237.77 841.586 1237.77C872.093 1226.55 889.106 1225.31 998.813 1225.31C1108.52 1225.31 1125.53 1226.55 1156.04 1238.39C1156.04 1238.39 1180.59 1247.26 1183.74 1248.33C1186.88 1249.4 1188.53 1250.24 1191.85 1249.4C1194.87 1248.63 1198.02 1243.72 1199.41 1240.75C1199.41 1240.75 1206.16 1223.54 1207.89 1217.5C1213.73 1220.48 1224.39 1224.37 1234.65 1227.8C1246.97 1232.16 1274.55 1245.24 1296.25 1256.46C1317.96 1268.3 1337.32 1277.64 1339.08 1277.64C1340.25 1277.64 1347.29 1265.8 1354.33 1252.1C1368.41 1222.81 1369.59 1225.31 1318.55 1197.27C1250.49 1159.88 1182.44 1143.06 1175.99 1161.13C1174.81 1164.56 1173.82 1166.56 1172.21 1171.01C1165.39 1169.34 1147.53 1164.87 1129.64 1161.75C1074.49 1151.16 923.133 1151.16 867.986 1161.75C850.093 1164.87 837.996 1170.07 827.886 1173.05C822.163 1160.88 823.361 1165.72 822.188 1162.3C817.494 1149.83 786.439 1151.78 743.613 1167.98H743.613Z" fill="black"/>
<path d="M799.333 1159.03C774.142 1159.87 726.892 1177 679.083 1202.84C638.016 1224.64 636.853 1225.89 647.999 1248.95C652.693 1259.54 657.996 1268.94 658.583 1270.19C658.596 1270.2 658.651 1270.27 658.666 1270.28C660.854 1270.89 679.138 1262.27 700.166 1250.81C722.459 1238.97 750.679 1225.96 762.999 1222.22C772.093 1218.79 778.701 1218.48 786.833 1216.64C785.348 1207.46 787.187 1215.38 781.416 1197.88C788.073 1180.16 800.927 1164.84 813.416 1161.51C810.205 1159.68 805.445 1158.82 799.333 1159.03L799.333 1159.03Z" fill="#DFDFDF"/>
<path d="M992.082 1159.47C943.449 1159.96 895.629 1162.49 873.749 1166.11C836.495 1172.65 816.407 1185.19 802.582 1192.84C797.524 1196.85 793.088 1197.82 787.582 1201.33C791.945 1211.83 791.776 1218.15 795.499 1227.35C799.415 1237.03 797.459 1243.15 808.165 1243.46C818.872 1243.77 842.165 1231.51 842.165 1231.51C872.085 1220.3 889.712 1219.03 998.832 1219.03C1108.54 1219.03 1130.64 1222.74 1156 1232.13C1174.38 1238.85 1181.96 1244.16 1189.33 1242.75C1193.12 1242.03 1195.09 1236.22 1197.75 1229.21C1201.37 1219.66 1205.73 1206.84 1207.92 1190.8C1202.15 1189.91 1204.7 1193.04 1196.83 1189.3C1179.85 1181.21 1176.62 1180.6 1165.42 1175.58C1152.11 1169.62 1139.67 1169.61 1120.17 1165.75C1097.29 1162.02 1046.43 1160.55 996.749 1159.47C995.179 1159.48 993.651 1159.45 992.082 1159.47H992.082Z" fill="#DFDFDF"/>
<path d="M1195.92 1159.56C1192.61 1159.59 1189.79 1159.97 1187.42 1160.71C1192.53 1164.13 1198.51 1169.84 1201.83 1171.69C1214.15 1178.54 1214.1 1184.87 1212.92 1196.64C1212.37 1202.08 1211.9 1204.16 1209.92 1211.6C1214.51 1213.81 1225.86 1218.79 1235.25 1222.22C1246.98 1225.96 1275.12 1238.97 1297.42 1250.81C1318.11 1262.09 1336.17 1270.59 1338.83 1270.28C1338.88 1270.27 1338.96 1270.21 1339 1270.19C1339.01 1270.19 1339.08 1270.19 1339.08 1270.19C1339.67 1268.94 1344.97 1259.54 1349.67 1248.95C1357.29 1233.37 1357.87 1227.83 1352 1222.84C1339.09 1211.63 1286.88 1186.01 1249.33 1172.31C1225.3 1163.8 1207.62 1159.46 1195.92 1159.56L1195.92 1159.56Z" fill="#DFDFDF"/>
<path d="M1181.17 1164.6C1180.76 1165.08 1180.41 1165.57 1180.08 1166.11C1178.31 1168.41 1178.05 1170.88 1177.5 1173.72C1181.39 1175.18 1194.5 1183.86 1201.25 1183.54C1202.69 1183.54 1203.84 1183.48 1204.5 1183.19C1204.54 1183.17 1204.63 1183.12 1204.67 1183.1C1204.68 1183.09 1204.74 1183.02 1204.75 1183.01C1204.81 1182.97 1204.88 1182.88 1204.92 1182.84C1204.94 1182.81 1204.99 1182.77 1205 1182.75C1205.01 1182.73 1205.08 1182.67 1205.08 1182.66C1205.09 1182.65 1205.08 1182.59 1205.08 1182.57C1205.09 1182.56 1205.08 1182.5 1205.08 1182.48C1205.08 1182.47 1205.08 1182.41 1205.08 1182.39C1205.08 1182.38 1205.09 1182.32 1205.08 1182.31C1205.07 1182.24 1205.03 1182.12 1205 1182.04C1204.98 1182 1204.94 1181.9 1204.92 1181.86C1204.88 1181.8 1204.8 1181.67 1204.75 1181.6C1203.81 1180.3 1200.95 1178.2 1195.33 1174.87C1191.37 1172.52 1184.95 1167.89 1181.17 1164.61L1181.17 1164.6Z" fill="#DFDFDF"/>
<path d="M816.917 1164.78C813.065 1167.9 806.531 1172.2 802.334 1175.22C794.793 1180.67 793.67 1184.89 790.417 1192.48C790.35 1192.64 790.271 1192.84 790.25 1192.93C790.25 1192.93 790.25 1193.01 790.25 1193.01C790.256 1193.02 790.328 1193.01 790.334 1193.01C790.342 1193.01 790.408 1193.02 790.417 1193.01C791.481 1192.5 797.185 1187.04 810.833 1182.13C822.54 1177.49 816.312 1179.76 823.583 1176.55C818.793 1168.69 818.17 1168.15 817.583 1166.29C817.414 1165.75 817.185 1165.26 816.917 1164.78L816.917 1164.78Z" fill="#DFDFDF"/>
<path d="M867.76 1183.28L869.103 1195.62L877.066 1194.64C879.937 1194.29 881.909 1193.54 882.981 1192.41C884.068 1191.27 884.486 1189.55 884.235 1187.24C884 1185.08 883.275 1183.63 882.061 1182.87C880.846 1182.12 878.733 1181.93 875.722 1182.3L867.76 1183.28ZM862.73 1179.56L876.025 1177.93C878.182 1177.66 879.776 1177.57 880.807 1177.64C881.853 1177.71 882.804 1177.93 883.662 1178.29C885.197 1178.96 886.418 1179.99 887.327 1181.4C888.251 1182.81 888.823 1184.52 889.044 1186.55C889.257 1188.51 889.045 1190.24 888.406 1191.74C887.765 1193.22 886.704 1194.46 885.222 1195.44C886.6 1195.67 887.62 1196.22 888.281 1197.09C888.957 1197.96 889.488 1199.51 889.872 1201.74L890.922 1207.7C891.139 1208.97 891.399 1209.92 891.702 1210.53C892.019 1211.13 892.432 1211.53 892.942 1211.73L893.052 1212.75L887.674 1213.41C887.157 1212.7 886.677 1211.11 886.236 1208.65C886.228 1208.58 886.222 1208.53 886.22 1208.5L885.423 1203.78C885.002 1201.36 884.341 1199.84 883.44 1199.22C882.538 1198.59 880.442 1198.48 877.151 1198.89L869.608 1199.81L871.307 1215.42L866.697 1215.98L862.731 1179.56L862.73 1179.56ZM903.456 1196.66L914.185 1195.82L907.74 1180.1L903.456 1196.66ZM894.548 1212.63L904.806 1175.06L909.972 1174.66L925.333 1210.22L920.26 1210.62L915.859 1199.98L902.302 1201.04L899.387 1212.25L894.548 1212.63V1212.63ZM941.987 1209.43L940.975 1172.79L945.661 1172.64L946.076 1187.69L963.975 1187.13L963.559 1172.08L968.268 1171.94L969.28 1208.58L964.571 1208.73L964.097 1191.56L946.199 1192.12L946.673 1209.29L941.987 1209.43ZM982.735 1193.23L993.493 1193.17L988.07 1177.02L982.735 1193.23V1193.23ZM972.824 1208.52L985.467 1171.78L990.647 1171.75L1003.69 1208.35L998.605 1208.38L994.896 1197.44L981.302 1197.52L977.676 1208.49L972.824 1208.52V1208.52ZM1031.61 1195.21L1036.16 1195.3C1035.88 1199.76 1034.39 1203.29 1031.67 1205.9C1028.97 1208.48 1025.52 1209.74 1021.3 1209.66C1016.44 1209.57 1012.66 1207.75 1009.95 1204.18C1007.26 1200.61 1005.96 1195.71 1006.06 1189.49C1006.15 1183.75 1007.67 1179.22 1010.62 1175.91C1013.56 1172.58 1017.49 1170.96 1022.4 1171.05C1026.3 1171.12 1029.48 1172.25 1031.93 1174.43C1034.39 1176.62 1035.79 1179.57 1036.12 1183.27L1031.53 1183.19C1031.13 1180.76 1030.12 1178.88 1028.5 1177.56C1026.88 1176.22 1024.76 1175.52 1022.14 1175.47C1018.64 1175.41 1015.9 1176.66 1013.92 1179.23C1011.95 1181.8 1010.93 1185.46 1010.86 1190.2C1010.78 1194.68 1011.72 1198.29 1013.68 1201.03C1015.65 1203.78 1018.29 1205.18 1021.6 1205.24C1024.43 1205.29 1026.76 1204.4 1028.59 1202.58C1030.43 1200.74 1031.44 1198.28 1031.61 1195.21V1195.21ZM1041.47 1209.09L1043.05 1172.47L1047.73 1172.69L1047.08 1187.74L1064.97 1188.61L1065.62 1173.56L1070.33 1173.79L1068.75 1210.42L1064.04 1210.19L1064.78 1193.03L1046.89 1192.16L1046.15 1209.32L1041.47 1209.09V1209.09ZM1076.19 1211L1078.58 1174.42L1083.25 1174.77L1080.87 1211.35L1076.19 1211ZM1095.98 1180.12L1094.85 1192.48L1102.82 1193.3C1105.7 1193.6 1107.77 1193.31 1109.05 1192.45C1110.34 1191.58 1111.09 1189.99 1111.3 1187.68C1111.5 1185.51 1111.08 1183.93 1110.04 1182.92C1109 1181.91 1106.97 1181.25 1103.96 1180.94L1095.98 1180.12V1180.12ZM1091.8 1175.36L1105.12 1176.73C1107.28 1176.96 1108.86 1177.22 1109.85 1177.52C1110.86 1177.83 1111.74 1178.25 1112.51 1178.8C1113.88 1179.79 1114.87 1181.08 1115.48 1182.66C1116.1 1184.24 1116.32 1186.04 1116.14 1188.08C1115.96 1190.04 1115.4 1191.69 1114.48 1193.01C1113.56 1194.31 1112.28 1195.28 1110.64 1195.91C1111.94 1196.45 1112.83 1197.21 1113.3 1198.21C1113.79 1199.21 1114 1200.84 1113.93 1203.1L1113.78 1209.17C1113.74 1210.46 1113.81 1211.44 1113.98 1212.11C1114.17 1212.77 1114.5 1213.25 1114.96 1213.56L1114.86 1214.58L1109.47 1214.02C1109.11 1213.22 1108.95 1211.56 1109.01 1209.05C1109.02 1208.98 1109.02 1208.93 1109.02 1208.9L1109.18 1204.11C1109.25 1201.65 1108.9 1200.02 1108.15 1199.2C1107.39 1198.39 1105.36 1197.82 1102.06 1197.48L1094.51 1196.7L1093.07 1212.33L1088.46 1211.85L1091.8 1175.36L1091.8 1175.36ZM1120.25 1215.42L1124.75 1179.07L1129.39 1179.72L1124.89 1216.07L1120.25 1215.42Z" fill="black"/>
<path d="M799.24 454.701C783.359 463.481 775.092 476.419 773.786 493.979C772.481 512.925 776.397 526.326 786.622 536.492C791.19 541.344 795.106 545.964 795.106 547.12C795.106 548.044 791.626 552.665 787.274 557.055C777.05 567.221 771.176 580.621 771.176 594.484C771.176 608.809 775.309 618.744 786.404 631.683L795.541 642.311L785.534 654.094C765.519 677.661 766.172 704.693 787.057 727.105L795.977 737.04H1000.91H1205.63L1215.63 725.719C1235 703.769 1235 679.971 1215.85 654.787L1206.06 642.08L1215.2 630.527C1235.21 605.112 1234.78 581.777 1214.11 557.286C1204.76 546.426 1204.54 544.347 1211.94 539.264C1223.9 530.715 1231.3 501.834 1225.86 484.275C1217.81 457.936 1183.22 440.376 1162.12 451.928C1158.2 454.008 1150.37 459.784 1144.49 464.636C1138.62 469.719 1133.18 473.647 1132.09 473.647C1131.22 473.647 1126 469.488 1120.56 464.405C1099.46 445.228 1074.66 446.614 1053.56 468.333L1045.51 476.65L1034.85 466.253C1013.31 444.766 986.335 445.69 964.362 468.333L956.313 476.65L947.611 468.333C934.775 455.856 926.291 452.159 911.497 451.928C897.356 451.697 884.086 457.936 873.643 469.95L868.422 475.726L857.109 465.56C836.224 446.614 819.473 443.38 799.24 454.701L799.24 454.701Z" fill="#171796" stroke="black" stroke-width="2"/>
<path d="M788.677 750.597C767.357 775.781 767.575 801.427 789.112 826.842L797.162 836.315L788.024 846.943C783.021 852.719 777.582 861.037 775.842 865.196C768.88 882.986 774.101 906.784 787.807 920.416C796.074 928.965 796.291 932.43 788.46 942.596C784.979 946.986 780.845 953.225 779.322 956.459C763.006 989.268 787.372 1030.39 823.485 1030.39C837.844 1030.39 848.721 1025.54 858.511 1014.45C866.343 1005.67 870.477 1005.44 877.438 1013.3C887.663 1025.31 901.151 1032.7 912.464 1032.7C925.735 1032.7 934.002 1028.31 947.49 1014.68L957.715 1004.05L967.07 1014.91C987.302 1038.02 1007.75 1038.71 1034.95 1016.76L1046.04 1007.98L1055.61 1017.22C1067.58 1028.31 1076.5 1032.7 1088.25 1032.7C1099.99 1032.7 1108.7 1027.85 1122.4 1013.53L1133.71 1001.98L1142.42 1010.29C1159.17 1026.24 1168.31 1031.32 1180.49 1031.32C1193.11 1031.32 1202.03 1026.93 1214.64 1014.91C1226.39 1003.59 1232.7 990.423 1231.18 979.564C1229.65 967.78 1219.65 946.293 1212.25 938.9L1205.94 932.43L1215.73 920.647C1237.05 894.077 1237.27 873.514 1216.17 847.174L1207.46 836.084L1216.6 824.301C1237.05 798.655 1236.83 774.857 1216.17 751.521L1205.07 739.276L1001.44 739.507L797.815 739.738L788.677 750.597L788.677 750.597Z" fill="#D42E12" stroke="black" stroke-width="2"/>
<path d="M743.613 720.628C743.613 720.628 743.746 936.81 744.162 1019.36C743.469 1031.57 750.208 1034.53 760.078 1042.67C776.041 1055.82 793.069 1069.59 884.413 1062.06C968.307 1062.69 985.907 1069.54 994.707 1105.06L999.4 1124.99L1003.51 1105.06C1009.96 1070.79 1029.87 1062.69 1110.83 1062.06C1215.05 1063.73 1223.71 1056.78 1238.64 1043.25C1238.64 1043.25 1249.56 1034.33 1252.37 1025.76C1255.53 1016.15 1254.01 1008.29 1254.01 1008.29V720.629V417.823H998.813H743.613V720.629V720.628ZM1248.15 723.12L1249.24 972.539C1249.24 1006.12 1251.52 1016.41 1248.15 1022.81C1244.77 1029.21 1237.94 1037.72 1237.94 1037.72C1222.1 1054.55 1208.69 1057.99 1136.45 1057C1089.78 1057.13 1064.57 1058.5 1027.81 1064.67C1022.04 1070.17 1006.18 1069.68 998.813 1101.71C989.248 1069.68 982.425 1071.07 982.425 1071.07C943.365 1053.67 925.897 1057.13 863.293 1056.46C822.813 1062.69 779.4 1054.59 762.973 1037.14C762.973 1037.14 760.529 1037.85 749.48 1023.98C749.588 963.217 749.48 723.121 749.48 723.121V424.053H998.813H1248.15V723.121L1248.15 723.12Z" fill="black"/>
<path d="M928.235 553.981C912.792 587.915 912.139 603.142 924.972 630.332C934.978 651.215 946.723 664.484 962.819 672.967C1004.8 695.372 1058.52 678.84 1079.62 637.076C1092.67 611.408 1091.15 568.555 1076.79 549.848L1072.88 544.845L1069.18 559.636C1063.96 580.737 1058.74 591.395 1048.3 602.706C1028.72 623.806 1001.75 628.592 973.912 615.54C952.378 605.317 943.678 591.178 935.63 551.805L933.672 542.017L928.235 553.981L928.235 553.981Z" fill="white"/>
<path d="M923.133 556.14C910.226 587.293 911.4 602.87 927.24 635.892C968.306 721.874 1090.33 689.475 1089.75 592.278C1089.16 576.701 1089.61 566.557 1081.53 549.287C1077.72 542.121 1076.09 539.995 1073.37 535.662C1072.29 540.354 1070.68 548.664 1067.45 562.371C1055.72 610.346 1017 632.776 976.52 614.708C953.64 604.739 943.08 588.539 937.213 554.894L933.106 533.087L923.133 556.14V556.14ZM963.026 617.823C991.187 637.138 1034.01 630.907 1055.72 605.362C1064.52 594.77 1069.92 578.245 1072.15 569.847C1074.34 561.561 1074.77 560.321 1076.09 552.041C1079.5 560.065 1081.37 564.282 1082.97 576.692C1085.35 595.025 1081.53 610.346 1077.43 621.561C1056.89 678.883 991.187 696.328 950.12 655.206C930.173 635.892 914.331 597.935 922.996 573.446C926.069 564.761 926.771 559.81 930.788 550.643C931.515 556.906 931.933 565.486 936.04 578.57C941.32 596.639 950.706 609.723 963.026 617.823L963.026 617.823Z" fill="black"/>
<path d="M899.78 842.761C899.388 856.239 900.001 862.405 902.006 872.395C895.617 865.847 889.183 861.275 880.334 855.819C869.062 848.87 854.826 842.238 849.992 850.716C845.339 858.877 858.685 870.05 869.134 876.312C880.558 883.159 887.143 884.094 894.577 887.192C888.282 890.724 879.698 893.099 870.183 899.581C860.847 905.941 846.89 919.103 852.184 927.505C857.573 936.057 873.143 926.447 881.923 920.206C889.234 915.009 898.908 906.806 902.672 902.607C901.929 908.636 899.68 920.647 899.847 932.134C900.05 946.084 901.867 961.693 911.649 961.667C921.636 961.642 923.758 943.258 923.601 930.828C923.436 917.839 922.041 908.658 920.836 902.249C925.164 906.937 931.691 913.654 940.296 920.859C947.4 926.806 964.793 935.612 970.004 927.175C975.308 918.587 967.051 910.05 951.881 899.825C941.248 892.659 933.719 890.206 926.792 887.159C933.797 884.111 941.455 883.329 952.651 876.101C969.261 865.378 976.299 858.207 971.208 848.975C966.259 840 956.257 844.904 941.065 855.166C932.927 860.665 925.311 867.953 920.152 873.195C921.332 864.946 922.599 852.788 922.504 843.779C922.356 830.388 919.596 813.079 911.01 813.026C902.424 812.973 900.209 828.02 899.78 842.761L899.78 842.761Z" fill="#E9D315" stroke="black" stroke-width="1.625"/>
<path d="M924.432 887.287C924.432 895.125 918.449 901.48 911.068 901.48C903.687 901.48 897.704 895.125 897.704 887.287C897.704 879.448 903.687 873.094 911.068 873.094C918.442 873.094 924.423 879.438 924.432 887.27" fill="white"/>
<path d="M924.432 887.287C924.432 895.125 918.449 901.48 911.068 901.48C903.687 901.48 897.704 895.125 897.704 887.287C897.704 879.448 903.687 873.094 911.068 873.094C918.442 873.094 924.423 879.438 924.432 887.27" stroke="black" stroke-width="1.86854"/>
</g>
<defs>
<clipPath id="clip0">
<rect width="2000" height="1416.04" rx="186" fill="white"/>
</clipPath>
</defs>
</svg>
