<svg width="2000" height="1417" viewBox="0 0 2000 1417" fill="none" xmlns="http://www.w3.org/2000/svg">
<path d="M1810.43 8.26758H196.907C97.9628 8.26758 17.7524 92.2703 17.7524 195.893V1207.18C17.7524 1310.8 97.9628 1394.81 196.907 1394.81H1810.43C1909.37 1394.81 1989.58 1310.8 1989.58 1207.18V195.893C1989.58 92.2703 1909.37 8.26758 1810.43 8.26758Z" fill="#57A863"/>
<path d="M1831 9.76994C1824.43 9.39439 1817.85 9.39439 1811.28 9.76994H197.193C98.2488 9.76994 18.0384 93.7727 18.0384 197.395V1208.39L806.771 864.999L1831 9.76994Z" fill="#4758A9"/>
<path d="M1989.58 196.2C1989.44 96.8152 1915.32 14.7905 1820.57 9.16504L17.7524 1210.44C19.291 1312.91 99.0525 1395.13 196.907 1395.11H212.964L1989.58 212.131V196.2Z" fill="#ED5565"/>
<path d="M1986.48 161.676L145.919 1386.55C162.459 1391.77 179.632 1394.45 196.905 1394.52H291.553L1989.58 265.519V196.192C1989.56 184.611 1988.53 173.057 1986.48 161.676Z" fill="white"/>
<path d="M24.5087 1258.22L1879.44 23.0185C1857.49 13.415 1833.93 8.50038 1810.14 8.56309H1743.66L17.4664 1159.1V1208.36C17.6622 1225.24 20.031 1242.01 24.5087 1258.22Z" fill="white"/>
<path d="M327.045 450.775C389.275 450.775 439.721 397.943 439.721 332.772C439.721 267.6 389.275 214.769 327.045 214.769C264.816 214.769 214.369 267.6 214.369 332.772C214.369 397.943 264.816 450.775 327.045 450.775Z" fill="#F6D660"/>
</svg>
