<svg width="2000" height="1417" viewBox="0 0 2000 1417" fill="none" xmlns="http://www.w3.org/2000/svg">
<g clip-path="url(#clip0)">
<path d="M0.000215782 223.911L0 489.419H308C340.025 432.252 383.462 382.776 435.429 344.275C570.551 244.542 748.005 230.124 896.572 306.809C974.894 347.461 1040.03 410.82 1084 489.124H2000V223.616C2000 115.432 1915.06 27.7307 1810.29 27.7307H190C139.586 27.6522 91.2144 48.296 55.566 85.104C19.9176 121.912 -0.0757668 171.857 0.000215782 223.911Z" fill="#4658A9"/>
<path d="M308.286 953.167H0V1218.67C0 1326.86 84.938 1414.56 189.714 1414.56H1810.29C1915.06 1414.56 2000 1326.86 2000 1218.67V953.167H308.286Z" fill="#51C161"/>
<path d="M1132.57 826.017C1122.59 870.237 1106.31 912.687 1084.28 951.985H2000V489.412H1085.71C1142.05 591.44 1158.79 711.737 1132.57 826.017Z" fill="#EC5565"/>
<path d="M248.286 721.595C248.198 640.387 268.897 560.598 308.286 490.309H0V952.882H308C268.724 882.558 248.125 802.774 248.286 721.595Z" fill="#EC5565"/>
<path d="M657.141 277.016C873.251 256.311 1070.8 404.056 1119.13 622.529C1167.45 841.001 1051.61 1062.65 848.221 1140.87C644.833 1219.09 416.786 1129.7 314.918 931.815C213.05 733.935 268.857 488.752 445.427 358.438C507.773 312.425 580.833 284.327 657.141 277.016Z" fill="white" stroke="white" stroke-width="2"/>
<path d="M657.141 277.016C873.251 256.311 1070.8 404.056 1119.13 622.529C1167.45 841.001 1051.61 1062.65 848.221 1140.87C644.833 1219.09 416.786 1129.7 314.918 931.815C213.05 733.935 268.857 488.752 445.427 358.438C507.773 312.425 580.833 284.327 657.141 277.016Z" fill="#434A54"/>
<path d="M705.144 274.657C910.383 279.197 1084.35 431.872 1121.76 640.286C1159.17 848.7 1049.75 1055.6 859.716 1135.79C831.144 1106.29 805.43 1076.78 775.716 1049.35C755.424 1033.49 730.589 1025.08 705.144 1025.45C705.144 1018.37 705.144 1011.39 705.144 1004.51C725.318 995.715 739.606 976.715 742.859 954.356C749.634 925.889 743.424 895.785 726.001 872.639C720.203 866.176 713.076 861.136 705.144 857.889V851.398C728.859 855.668 748.981 871.802 758.859 894.47C769.721 923.438 783.715 951.048 800.573 976.777C792.846 938.973 787.123 900.762 783.43 862.314C782.45 847.691 775.359 834.232 764.001 825.438C746.545 813.815 726.2 807.667 705.43 807.737V798.297H771.43V779.711H705.716V770.566C723.344 769.608 739.841 761.304 751.43 747.556C757.868 738.3 757.868 725.835 751.43 716.58C739.866 702.593 723.22 694.16 705.43 693.274C705.43 690.914 705.43 686.489 705.43 684.424H771.43C771.43 678.229 771.43 672.033 771.43 665.838H705.716V656.693C726.262 657.85 746.721 653.156 764.859 643.123C777.864 633.842 785.82 618.728 786.287 602.411C787.987 578.121 792.593 554.141 800.001 531.019C786.487 547.546 774.618 565.435 764.573 584.416C758.504 598.468 748.568 610.369 736.001 618.637C727.124 623.331 717.389 626.044 707.43 626.602C707.43 622.472 707.43 618.047 707.43 613.917C725.632 610.717 741.474 599.234 750.573 582.646C762.248 560.921 760.224 534.095 745.43 514.499C735.901 502.305 722.388 494.123 707.43 491.488C707.43 470.248 707.43 449.007 707.43 427.767C732.106 404.208 752.435 376.22 767.43 345.164C770.464 338.343 771.554 330.771 770.573 323.334C752.214 341.646 730.701 356.253 707.144 366.405C707.144 336.117 707.144 305.83 707.144 275.542L705.144 274.657ZM496.573 326.579C556.051 294.349 621.985 276.875 689.144 275.542C689.144 308.583 689.144 341.624 689.144 374.665C668.859 384.105 644.001 394.431 637.43 418.621C634.859 435.142 635.716 451.957 634.573 468.478C643.716 465.528 650.287 457.562 659.43 454.612C669.343 450.661 678.903 445.825 688.001 440.157C688.001 457.267 688.001 474.378 688.001 491.488C670.115 494.283 654.331 505.076 644.859 520.989C633.197 542.434 634.993 568.984 649.43 588.546C658.918 601.238 672.691 609.77 688.001 612.442V625.127C678.733 624.728 669.621 622.526 661.144 618.637C646.897 610.376 635.658 597.529 629.144 582.056C619.204 563.517 607.529 546.028 594.287 529.839C601.319 552.226 605.732 575.402 607.43 598.871C607.509 613.538 613.271 627.562 623.43 637.812C642.212 651.514 665.093 657.89 688.001 655.808C688.001 659.053 688.001 662.003 688.001 665.248H622.287V683.539H688.001V692.389C670.584 693.37 654.251 701.431 642.573 714.81C635.379 724.461 635.379 737.904 642.573 747.556C654.144 760.916 670.383 768.982 687.716 769.976V779.121H622.001C622.001 785.218 622.001 791.413 622.001 797.707H687.716V807.147C665.825 806.908 644.423 813.827 626.573 826.913C616.33 835.857 610.125 848.776 609.43 862.609C605.883 900.881 600.158 938.904 592.287 976.482C609.112 951.199 623.016 923.972 633.716 895.355C643.369 871.997 663.784 855.244 688.001 850.808V857.299C674.672 862.85 663.859 873.383 657.716 886.799C646.021 911.824 644.68 940.682 654.001 966.747C659.277 983.827 671.787 997.504 688.001 1003.92C688.001 1010.8 688.001 1017.78 688.001 1024.86C658.155 1023.28 628.782 1033.04 605.43 1052.3C576.859 1077.67 551.716 1104.81 525.43 1131.95C372.15 1063.77 270.443 910.732 263.977 738.535C257.511 566.339 347.437 405.625 495.144 325.399" fill="#F2D660"/>
</g>
<defs>
<clipPath id="clip0">
<rect width="2000" height="1416.04" fill="white"/>
</clipPath>
</defs>
</svg>
