<svg width="2000" height="1417" viewBox="0 0 2000 1417" fill="none" xmlns="http://www.w3.org/2000/svg">
<path d="M7.04492 212.406V477.914H1978.88V212.406C1978.88 104.221 1895.13 16.5205 1791.83 16.5205H194.087C90.7866 16.5205 7.04492 104.221 7.04492 212.406Z" fill="#FC6E51"/>
<path d="M7.04492 941.378H1978.88V478.805H7.04492V941.378Z" fill="white"/>
<path d="M7.04492 1207.17C7.04492 1315.36 90.7866 1403.06 194.087 1403.06H1791.83C1895.13 1403.06 1978.88 1315.36 1978.88 1207.17V941.663H7.04492V1207.17Z" fill="#57A863"/>
<path d="M992.963 827.794C1055.19 827.794 1105.64 774.962 1105.64 709.79C1105.64 644.619 1055.19 591.787 992.963 591.787C930.734 591.787 880.287 644.619 880.287 709.79C880.287 774.962 930.734 827.794 992.963 827.794Z" fill="#FC6E51"/>
</svg>
