<svg width="2000" height="1417" viewBox="0 0 2000 1417" fill="none" xmlns="http://www.w3.org/2000/svg">
<g clip-path="url(#clip0)">
<path d="M2000 0H0V1416.04H2000V0Z" fill="#007934"/>
<path d="M1391.3 0H608.696V1416.04H1391.3V0Z" fill="white"/>
<path d="M1007.22 94.1211C1005.47 120.914 1003.72 147.721 1001.97 174.515C995.561 175.882 989.155 177.244 982.747 178.611C982.747 178.611 996.097 189.226 998.428 199.889C998.801 201.596 998.652 203.01 998.112 204.073C997.935 204.405 997.663 204.775 997.417 205.052C993.549 209.261 982.115 207.278 982.115 207.278C982.115 207.278 997.263 225.377 998.428 231.939C998.454 232.093 998.489 232.236 998.491 232.384C998.49 232.507 998.509 232.71 998.491 232.829C998.474 232.924 998.392 233.093 998.365 233.186C998.261 233.508 998.075 233.871 997.859 234.165C994.297 238.823 977.499 240.13 977.499 240.13C977.499 240.13 996.124 258.936 997.29 269.598C998.346 279.262 997.46 284.921 997.29 285.89C995.988 284.316 965.953 248.575 946.579 259.004C945.614 259.714 945.043 260.39 944.808 261.051C944.705 261.381 944.684 261.793 944.745 262.12C946.103 268.065 973.5 274.155 992.611 297.555C992.136 303.41 938.143 278.929 936.148 294.261C937.836 298.584 994.254 310.099 998.428 320.524C977.65 321.618 934.726 314.049 936.148 323.729C931.805 334.906 976.689 328.593 995.519 337.707C1001.04 346.539 1000.51 353.958 990.903 354.889C972.754 342.67 932.134 333.591 932.036 349.192C932.037 349.21 932.034 349.265 932.036 349.28C932.04 349.299 932.095 349.354 932.099 349.369C932.116 349.419 932.134 349.503 932.163 349.548C932.227 349.635 932.372 349.733 932.479 349.815C937.066 353.055 974.892 351.474 989.133 364.772C968.942 371.239 900.476 351.652 900.042 361.211C901.992 365.675 912.826 385.268 931.468 384.447C950.109 383.626 993.237 395.119 996.152 403.321C996.243 403.577 996.242 403.84 996.216 404.033C994.953 409.753 939.42 386.584 918.063 400.828C895.929 415.594 981.537 406.643 995.52 424.688C1009.5 442.733 967.572 422.996 967.572 422.996C967.572 422.996 909.348 411.558 900.611 417.298C891.872 423.042 881.958 436.172 881.958 436.172C881.958 436.172 887.767 452.539 893.593 449.26C894.48 448.759 895.087 448.657 895.426 448.815C895.435 448.821 895.482 448.809 895.49 448.815C895.499 448.821 895.546 448.898 895.553 448.904C895.566 448.916 895.605 448.978 895.617 448.993C895.626 449.011 895.67 449.065 895.68 449.082C895.684 449.088 895.739 449.161 895.743 449.171C895.769 449.253 895.797 449.426 895.806 449.527C895.944 451.988 891.823 459.142 891.823 459.142C891.823 459.142 973.414 486.974 991.473 511.579C1009.53 536.188 887.777 473.029 887.777 473.029C887.777 473.029 838.842 498.452 890.686 500.093C884.907 511.997 893.079 519.323 893.594 519.769C893.594 519.769 979.829 545.22 988.566 564.906C997.305 584.592 929.733 546.01 914.588 535.349C899.975 525.06 859.301 540.79 856.986 545.587C856.968 545.624 856.934 545.729 856.922 545.765C856.918 545.784 856.927 545.837 856.922 545.854C856.918 545.891 856.921 546 856.922 546.033C856.924 546.051 856.92 546.106 856.922 546.122C856.927 546.14 856.918 546.195 856.922 546.211C856.927 546.229 856.98 546.283 856.986 546.3C856.99 546.318 856.981 546.372 856.986 546.388C857.012 546.454 857.076 546.59 857.112 546.656C857.121 546.674 857.165 546.728 857.175 546.745C859.781 550.787 877.937 556.355 878.484 563.304C878.486 563.335 878.482 563.366 878.484 563.393C878.492 563.764 878.411 564.203 878.294 564.55C876.007 570.794 854.346 573.45 853.444 579.329C853.431 579.43 853.381 579.583 853.381 579.686C853.38 586.25 962.348 618.239 991.474 652.689C1020.6 687.138 905.861 611.645 905.861 611.645C905.861 611.645 912.269 623.943 905.861 627.225C899.453 630.504 876.689 581.296 839.407 611.645C832.616 624.132 871.959 634.042 881.961 635.415C878.546 647.78 875.567 651.87 889.549 664.172C891.078 665.518 891.936 666.331 892.267 666.754C892.276 666.766 892.322 666.83 892.331 666.843L892.394 666.932C892.398 666.938 892.392 667.014 892.394 667.022C892.393 667.028 892.396 667.106 892.394 667.111C892.39 667.112 892.338 667.11 892.331 667.111C892.322 667.11 892.277 667.112 892.267 667.111C890.102 666.634 864.985 648.459 862.359 647.702C862.333 647.696 862.252 647.705 862.232 647.702C862.224 647.703 862.175 647.701 862.169 647.702C862.169 649.343 865.078 669.069 865.078 669.069C852.171 654.306 836.569 649.855 821.956 664.974C821.934 665.849 821.827 680.004 836.499 688.745C828.229 712.536 845.844 705.149 873.805 727.295C832.249 712.002 828.921 740.409 858.63 746.97C888.34 753.531 969.913 757.642 989.137 792.908C993.192 800.348 994.292 804.089 993.5 805.283C990.293 809.375 960.795 779.334 956.511 778.219C956.502 778.225 956.456 778.207 956.447 778.219C956.438 778.231 956.393 778.294 956.384 778.308C956.329 778.404 956.248 778.594 956.194 778.753C955.147 782.016 954.17 796.203 954.17 796.203C941.743 786.075 930.34 776.99 915.475 772.699C914.309 775.978 914.553 780.638 913.388 783.917C899.898 770.219 888.147 760.589 868.558 759.256C867.781 763.632 866.995 768.056 866.218 772.432C866.218 772.432 849.887 743.724 817.846 772.432C799.956 790.491 885.431 778.971 899.412 800.298C913.393 821.622 902.32 824.87 902.32 824.87C890.67 818.856 879.068 812.9 867.418 806.886C867.418 806.886 826.018 796.168 814.368 809.29C802.718 822.415 984.461 854.412 989.703 889.684C993.238 908.812 947.003 869.655 906.998 852.827C905.451 859.088 903.867 865.351 902.32 871.612C901.371 870.291 885.896 849.097 868.554 845.438C868.55 845.45 868.496 845.506 868.491 845.527C868.489 845.558 868.491 845.665 868.491 845.706C868.517 848.397 872.032 867.607 872.032 867.607C872.032 867.607 827.221 838.045 804.503 853.629C781.784 869.213 883.706 877.412 893.025 892.179C894.044 893.794 894.469 894.971 894.416 895.74C894.399 895.873 894.335 896.076 894.29 896.185C892.038 900.827 861.644 883.681 858.629 892.179C855.133 902.022 805.629 874.16 806.211 887.282C806.794 900.407 813.23 907.759 813.23 907.759C813.23 907.759 916.339 921.694 919.834 938.918C923.329 956.142 862.739 929.124 862.739 929.124C862.739 929.124 856.878 941.368 861.537 947.108C861.719 947.332 861.865 947.547 861.916 947.642C861.918 947.648 861.916 947.726 861.916 947.731C861.912 947.729 861.861 947.734 861.853 947.731C859.747 946.753 826.918 916.477 830.112 939.719C817.265 932.516 784.099 910.208 788.759 927.433C793.351 944.404 879.857 968.569 882.403 969.277C880.115 969.53 843.531 973.84 845.225 987.35C796.192 945.29 796.307 970.512 797.423 972.482C797.425 972.484 797.42 972.569 797.423 972.571C794.668 971.958 734.344 950.798 782.311 987.35C808.034 1006.95 814.304 1014.59 814.432 1017.53C814.433 1017.6 814.437 1017.74 814.432 1017.8C814.424 1017.88 814.388 1017.99 814.369 1018.07C814.365 1018.08 814.312 1018.14 814.306 1018.15C814.284 1018.2 814.267 1018.29 814.243 1018.33C814.234 1018.34 814.188 1018.41 814.179 1018.42C814.171 1018.43 814.126 1018.5 814.116 1018.51C814.107 1018.52 814.064 1018.59 814.053 1018.6C814.04 1018.61 814.001 1018.68 813.989 1018.69C812.992 1019.59 810.582 1019.21 809.879 1019.22C809.849 1019.22 809.774 1019.22 809.753 1019.22C809.74 1019.23 809.692 1019.3 809.69 1019.31L809.753 1019.4C810.437 1020.83 814.201 1035.3 813.989 1037.83C813.985 1037.87 813.933 1037.98 813.926 1038.01C813.921 1038.02 813.93 1038.08 813.926 1038.1C813.924 1038.1 813.866 1038.09 813.862 1038.1C813.858 1038.1 813.866 1038.18 813.862 1038.19C813.858 1038.19 813.803 1038.19 813.799 1038.19C813.794 1038.19 813.742 1038.19 813.735 1038.19C811.633 1037.44 779.863 1013.54 768.968 1011.92C757.898 1010.28 705.457 1032.41 761.38 1066.85C817.303 1101.3 851.654 1058.64 882.528 1063.56C913.402 1068.48 927.993 1075.88 925.082 1089.82C922.169 1103.77 893.5 1044.11 863.369 1095.7C829.095 1086.15 805.843 1080.62 823.534 1116.09C767.563 1086.63 733.382 1125.07 803.87 1140.66C873.135 1143.53 915.722 1116.89 915.722 1116.89C915.722 1116.89 927.407 1147.3 944.303 1125.97C960.404 1105.64 961.67 1131.51 962.26 1133.98C962.269 1134.02 962.314 1134.05 962.323 1134.07C962.328 1134.08 962.319 1134.16 962.323 1134.16C962.328 1134.16 962.38 1134.16 962.386 1134.16C963.63 1133.72 978.636 1124.28 978.636 1124.28C979.996 1124.28 981.387 1124.28 982.746 1124.28V1321.12C1001.58 1321.39 1020.37 1321.65 1039.21 1321.92C1039.21 1321.92 1021.15 1150.54 1031.05 1127.57C1040.65 1105.33 1049.72 1107.73 1050.27 1107.9C1050.27 1107.9 1086.98 1123.45 1091.06 1120.98C1091.1 1120.95 1091.2 1120.93 1091.25 1120.9C1091.28 1120.87 1091.35 1120.83 1091.37 1120.81C1091.44 1120.74 1091.56 1120.61 1091.63 1120.54C1091.64 1120.53 1091.68 1120.47 1091.69 1120.45C1094.67 1116.62 1091.63 1101.48 1110.28 1103.8C1116.04 1100.85 1113.84 1087.93 1117.55 1084.75C1117.62 1084.69 1117.74 1084.62 1117.8 1084.57C1117.94 1084.48 1118.15 1084.37 1118.31 1084.3C1118.53 1084.22 1118.82 1084.16 1119.07 1084.13C1124.89 1083.31 1237.31 1128.38 1261.78 1085.73C1255.37 1061.94 1233.21 1084.11 1227.38 1084.93C1222.14 1084.93 1199.98 1070.16 1187.17 1084.93C1175.52 1072.63 1122.54 1064.45 1122.54 1064.45C1115.55 1054.61 1248.96 1069.34 1256.53 1061.96C1272.26 1039.81 1227.41 1042.29 1220.42 1049.67C1208 1039.01 1192.38 1039.8 1182.86 1047.18C1178.3 1031.81 1134.99 1038.47 1110.91 1034.09C1103.2 1027.73 1104.49 1024.07 1109.71 1020.11C1160 1023.12 1210.04 1032.37 1260.57 1029.2C1274.23 1004.12 1243.38 994.665 1224.47 1016.02C1213.37 990.316 1190.68 1015.18 1175.53 1012.72C1160.39 1010.26 1167.37 984.053 1186.6 988.153C1205.82 992.255 1240.19 986.48 1246.6 974.175C1253.01 961.874 1242.77 949.41 1211.07 961.088C1200.33 946.319 1176.73 961.063 1165.67 965.985C1150.94 954.418 1116.68 964.375 1105.03 968.478C1093.62 958.495 1165.03 942.214 1165.03 942.214C1192.6 941.528 1208.14 934.813 1216.88 931.531C1258.55 900.086 1216.3 896.746 1194.43 919.601C1180.86 904.681 1167.97 920.891 1155.74 926.634C1144.27 932.016 1123.06 935.936 1120.46 934.38C1120.43 934.361 1120.35 934.313 1120.33 934.291C1120.33 934.284 1120.27 934.209 1120.27 934.201L1120.2 934.112C1120.2 934.106 1120.2 934.032 1120.2 934.023C1120.2 934.017 1120.2 933.944 1120.2 933.934C1120.21 933.897 1120.25 933.798 1120.27 933.756C1121.98 930.005 1153.4 902.861 1153.4 902.861C1153.4 902.861 1194.18 898.715 1202.34 897.075C1207.31 896.075 1224.73 884.464 1224.72 880.159C1224.57 877.487 1217.32 877.732 1195.32 885.59C1175.51 888.051 1163.88 886.461 1156.31 887.281C1144.13 885.508 1138.99 883.701 1137.97 882.118C1137.93 882.051 1137.87 881.917 1137.84 881.851C1137.76 881.565 1137.81 881.235 1137.97 880.96C1138.01 880.897 1138.11 880.756 1138.16 880.693C1141.14 877.335 1160.42 874.906 1160.42 874.906C1160.42 874.906 1219.25 867.309 1223.14 862.976C1223.15 862.958 1223.19 862.904 1223.2 862.887C1223.22 862.85 1223.25 862.743 1223.27 862.709C1223.27 862.691 1223.33 862.636 1223.33 862.62C1224.54 828.752 1173.42 844.391 1172.05 844.636C1172.2 820.821 1125.91 844.286 1123.74 844.636C1123.74 844.635 1123.68 844.638 1123.68 844.636C1121.69 842.984 1120.82 841.241 1120.65 839.65C1120.59 839.044 1120.64 838.362 1120.77 837.781C1121.93 832.87 1128.93 829.056 1128.93 829.056C1141.74 824.683 1160.91 823.318 1165.92 817.571C1165.92 817.571 1202.09 817.123 1206.39 803.594C1197.51 769.113 1129.84 809.698 1120.77 815.88C1118.96 815.88 1117.84 815.238 1117.29 814.188C1114.32 808.067 1129 787.908 1129.5 787.213C1129.5 787.207 1129.55 787.13 1129.56 787.124C1131.8 786.23 1185.83 782.337 1211.63 733.083C1213.45 702.628 1180.78 750.266 1180.78 750.266C1178.34 710.767 1145.24 752.771 1126.02 756.053C1106.8 759.332 1106.23 743.735 1119.63 741.274C1133.03 738.815 1148.16 740.425 1155.74 711.716C1163.31 683.008 1186.06 713.388 1190.14 702.724C1194.09 692.394 1182.69 683.589 1181.98 683.049C1181.98 683.049 1198.86 658.369 1171.48 659.19C1144.38 660.002 1109.34 654.407 1108.63 654.293C1110.33 653.38 1137.94 638.719 1163.9 639.514C1190.69 640.335 1176.12 612.449 1150.49 612.449C1124.86 612.449 1111.48 600.163 1111.48 600.163C1126.04 592.508 1140.61 584.849 1155.17 577.194C1154.2 571.454 1153.23 565.752 1152.26 560.012C1152.26 560.012 1177.88 531.283 1141.76 537.844C1105.65 544.407 1101.55 545.233 1101.55 545.233C1101.55 545.233 1030.45 560.573 1028.77 560.813C1028.77 560.813 1028.72 560.814 1028.71 560.813C1028.02 560.661 1020.98 557.58 1019.67 553.78C1019.63 553.655 1019.57 553.461 1019.54 553.335C1019.51 553.183 1019.49 552.954 1019.48 552.801C1019.47 552.621 1019.46 552.359 1019.48 552.177C1019.77 550.175 1021.96 548.009 1027.57 546.035C1046.21 539.473 1112.07 520.635 1121.97 525.558C1123.25 526.192 1124.18 526.049 1124.76 525.38C1128.47 520.649 1116.12 490.478 1085.81 486.208C1050.85 481.288 1029.34 498.494 1029.34 498.494C1029.34 498.494 1006.6 486.97 1027.57 477.127C1048.54 467.287 1081.76 480.421 1081.76 480.421C1081.76 480.421 1119.02 464.814 1088.15 458.253C1057.27 451.689 1047.54 464.155 1033.39 464.841C1027.74 454.916 1081.86 452.573 1085.24 444.365C1079.53 429.596 1046.05 444.365 1026.43 444.365C1018.09 439.382 1017.54 431.275 1027 426.292C1047 425.198 1065.8 426.852 1085.81 425.758C1085.22 410.722 1085.82 392.897 1085.24 377.862C1059.87 371.335 1030.12 382.642 1015.87 381.69C1019.68 365.283 1074.46 361.048 1080.56 356.584C1093.14 334.435 1028.02 356.242 1026.43 356.584C1014.88 354.18 1015.58 343.892 1022.89 337.71C1039.79 334.975 1077.67 341.196 1074.8 325.068C1072.61 309.956 1048.54 318.047 1038.64 321.329C1028.74 324.608 1014.17 322.13 1014.17 322.13C1007.83 310.109 1071.28 315.022 1070.7 305.749C1069.87 295.102 1030.48 302.436 1017.08 303.256C1006.77 293.245 1065.52 286.588 1068.29 285.272C1068.3 285.26 1068.35 285.193 1068.36 285.183C1070.55 257.917 1027.57 285.183 1019.42 285.183C1018.01 285.183 1016.95 284.691 1016.19 283.848C1016.02 283.653 1015.83 283.362 1015.69 283.136C1012.89 278.536 1015.37 268.001 1015.37 268.001C1015.37 268.001 1030.69 258.31 1031.62 255.982C1031.62 255.963 1031.68 255.911 1031.68 255.893C1031.68 255.887 1031.68 255.812 1031.68 255.804C1031.68 255.798 1031.68 255.722 1031.68 255.715C1031.68 255.702 1031.63 255.639 1031.62 255.626C1031.58 255.557 1031.5 255.439 1031.43 255.358C1029.63 253.409 1019.1 248.488 1017.71 248.325C1017.7 248.324 1017.65 248.325 1017.65 248.325C1017.64 248.32 1017.59 248.243 1017.58 248.236C1017.56 248.217 1017.53 248.173 1017.52 248.147C1017.51 248.134 1017.46 248.075 1017.46 248.058C1016.66 245.765 1017.65 229.451 1017.65 229.451C1017.65 229.451 1029.78 216.646 1030.54 211.556C1030.55 211.513 1030.54 211.419 1030.54 211.378C1030.55 211.335 1030.54 211.239 1030.54 211.199C1030.54 211.162 1030.55 211.059 1030.54 211.021C1030.54 210.984 1030.55 210.879 1030.54 210.843C1030.54 210.825 1030.55 210.771 1030.54 210.754C1030.54 210.705 1030.49 210.624 1030.48 210.576C1030.48 210.557 1030.49 210.503 1030.48 210.487C1030.48 210.474 1030.42 210.413 1030.42 210.398C1030.4 210.367 1030.37 210.336 1030.35 210.309C1030.33 210.265 1030.31 210.168 1030.29 210.13C1030.28 210.118 1030.24 210.054 1030.23 210.041C1030.18 209.986 1030.1 209.913 1030.04 209.863C1030.01 209.845 1029.94 209.792 1029.91 209.774C1026.85 207.702 1014.17 213.869 1014.17 213.869C1014.17 208.401 1014.17 202.956 1014.17 197.488C1014.17 197.488 1025.27 195.789 1026.43 188.407C1026.5 187.975 1026.47 187.549 1026.43 187.161C1026.42 187.007 1026.4 186.774 1026.37 186.627C1026.3 186.31 1026.19 185.934 1026.05 185.648C1026.03 185.604 1025.95 185.512 1025.93 185.469C1023.39 180.853 1013.03 180.217 1013.03 180.217C1011.09 151.509 1009.15 122.833 1007.21 94.1277L1007.22 94.1211ZM996.847 375.273V386.58C996.848 386.58 983.784 385.637 981.356 382.751C981.343 382.739 981.303 382.676 981.293 382.662C981.284 382.65 981.239 382.588 981.229 382.573C981.221 382.561 981.175 382.499 981.166 382.484C981.157 382.472 981.111 382.41 981.102 382.395C981.081 382.352 981.055 382.263 981.039 382.217C981.035 382.205 981.043 382.143 981.039 382.128C981.035 382.116 980.979 382.054 980.976 382.039C980.974 382.027 980.978 381.965 980.976 381.95C980.974 381.92 980.976 381.804 980.976 381.772C980.976 381.754 980.975 381.699 980.976 381.683C980.978 381.665 980.974 381.61 980.976 381.594C980.989 381.528 981.015 381.394 981.039 381.327C981.043 381.309 981.095 381.255 981.102 381.238C981.133 381.169 981.187 381.041 981.229 380.971C981.242 380.952 981.28 380.899 981.292 380.882C981.318 380.845 981.391 380.74 981.419 380.704C981.506 380.595 981.621 380.46 981.735 380.347C986.118 376.027 994.869 376.129 996.594 375.451C996.607 375.445 996.644 375.457 996.657 375.451C996.67 375.445 996.709 375.369 996.72 375.362C996.729 375.356 996.776 375.368 996.784 375.362C996.792 375.356 996.841 375.28 996.847 375.273L996.847 375.273ZM1015.37 390.319C1015.83 390.319 1041.4 390.628 1043.64 395.304C1043.65 395.341 1043.69 395.442 1043.7 395.482C1043.72 395.544 1043.75 395.687 1043.76 395.75C1043.77 395.793 1043.76 395.885 1043.76 395.928C1043.76 395.993 1043.77 396.13 1043.76 396.195C1043.75 396.262 1043.72 396.394 1043.7 396.462C1041.75 402.303 1015.88 405.81 1015.88 405.81L1015.37 390.319L1015.37 390.319ZM1013.92 412.665C1013.93 412.671 1013.97 412.658 1013.98 412.665C1013.99 412.671 1014.03 412.658 1014.05 412.665C1015.56 413.229 1026.15 413.713 1027.45 416.226C1027.46 416.25 1027.5 416.291 1027.51 416.315C1027.52 416.327 1027.51 416.391 1027.51 416.403C1027.52 416.428 1027.57 416.468 1027.58 416.492C1027.58 416.505 1027.58 416.569 1027.58 416.581C1027.58 416.594 1027.58 416.658 1027.58 416.67C1027.58 416.683 1027.58 416.746 1027.58 416.759C1027.58 416.772 1027.58 416.835 1027.58 416.848C1027.58 416.861 1027.58 416.924 1027.58 416.937C1027.57 416.95 1027.52 417.012 1027.51 417.026C1027.51 417.039 1027.52 417.101 1027.51 417.115C1027.5 417.158 1027.47 417.25 1027.45 417.293C1027.44 417.306 1027.4 417.368 1027.39 417.382C1027.38 417.395 1027.4 417.457 1027.39 417.471C1025.19 421.249 1015.42 422.279 1014.93 422.279C1014.93 422.278 1014.87 422.281 1014.87 422.279C1014.86 422.276 1014.87 422.194 1014.87 422.19C1014.86 422.172 1014.81 422.121 1014.8 422.101C1014.36 420.824 1013.92 412.664 1013.92 412.664L1013.92 412.665ZM935.957 442.4C944.305 441.789 960.874 444.558 991.978 456.645C991.978 457.577 992.608 468.933 992.357 470.8C992.355 470.813 992.297 470.876 992.294 470.889C992.292 470.902 992.296 470.97 992.294 470.978C992.29 470.984 992.238 471.066 992.23 471.067C991.743 470.723 935.641 448.023 930.517 448.365C930.377 448.371 930.208 448.384 930.075 448.365C929.962 448.347 929.802 448.31 929.696 448.276C929.556 448.227 929.376 448.088 929.253 448.009C929.208 447.978 929.106 447.953 929.063 447.92C929.05 447.908 929.013 447.843 929 447.831C928.829 447.668 928.66 447.421 928.557 447.208C928.548 447.189 928.501 447.136 928.493 447.119C928.48 447.082 928.442 446.976 928.43 446.941C928.426 446.922 928.435 446.87 928.43 446.852C928.422 446.815 928.373 446.71 928.367 446.673C928.365 446.655 928.369 446.603 928.367 446.584C928.365 446.547 928.368 446.445 928.367 446.406C928.368 446.369 928.365 446.267 928.367 446.228C928.376 446.129 928.406 445.973 928.43 445.872C928.5 445.628 928.641 445.315 928.81 445.07C929.667 443.889 931.816 442.702 935.955 442.399L935.957 442.4ZM965.041 475.963C973.984 475.512 995.409 482.77 996.593 482.373C996.593 484.779 997.541 496.149 996.467 498.488C996.458 498.506 996.414 498.558 996.403 498.577C996.395 498.595 996.351 498.651 996.34 498.666C996.327 498.678 996.288 498.743 996.276 498.755C996.255 498.773 996.175 498.83 996.15 498.844C996.137 498.85 996.1 498.841 996.086 498.844C996.06 498.846 995.989 498.846 995.96 498.844C995.947 498.841 995.912 498.85 995.896 498.844C994.075 498.203 962.457 484.062 961.246 478.278C961.229 478.183 961.245 478.013 961.246 477.922C961.26 477.72 961.329 477.474 961.436 477.298C961.45 477.28 961.485 477.228 961.5 477.209C961.513 477.191 961.548 477.139 961.563 477.12C962.17 476.443 963.423 476.045 965.041 475.963L965.041 475.963ZM1053.06 507.122C1061.6 506.887 1067.63 507.917 1065.39 511.574C1059.29 521.533 1017.14 529.736 1017.14 529.736L1016.38 511.574C1017.29 511.386 1038.7 507.517 1053.06 507.122H1053.06ZM932.415 563.746C939.582 563.208 956.272 568.75 993.433 590.899L993.686 603.987C993.686 603.987 930.755 577.113 928.56 572.649C927.479 570.452 925.47 564.267 932.416 563.746L932.415 563.746ZM1055.71 583.243C1057.63 583.106 1058.98 583.379 1059.44 584.044C1059.46 584.063 1059.5 584.114 1059.51 584.133C1059.53 584.195 1059.55 584.335 1059.57 584.4C1059.58 584.467 1059.63 584.595 1059.63 584.668C1059.61 585.043 1059.41 585.549 1059.06 586.092C1053.21 595.368 1021.76 604.61 1021.76 604.61C1021.76 604.61 1021.76 592.936 1021.76 592.591C1021.76 592.592 1021.81 592.591 1021.82 592.591C1023.25 592.522 1046.34 583.914 1055.71 583.243L1055.71 583.243ZM917.746 584.845C927.141 584.144 948.354 591.16 995.898 622.86C995.898 623.189 996.321 634.121 996.15 635.146C996.146 635.145 996.093 635.148 996.087 635.146C993.268 633.867 910.537 592.948 910.537 592.948C910.449 592.499 909.204 585.484 917.745 584.846L917.746 584.845ZM1075.25 636.038C1077.65 635.896 1079.23 636.189 1079.61 636.929C1079.65 637.014 1079.67 637.186 1079.68 637.285C1079.67 637.641 1079.46 638.094 1079.04 638.62C1071.54 648.16 1023.71 659.718 1022.01 659.898C1022 659.898 1021.96 659.9 1021.95 659.898C1021.94 659.895 1021.89 659.904 1021.88 659.898C1021.88 659.892 1021.83 659.818 1021.82 659.809C1021.8 659.778 1021.77 659.674 1021.76 659.631C1021.75 659.613 1021.76 659.558 1021.76 659.542C1021.75 659.505 1021.7 659.404 1021.69 659.364C1021.39 657.153 1022.38 649.409 1022.45 648.324C1022.45 648.306 1022.45 648.246 1022.45 648.235C1022.46 648.238 1022.51 648.232 1022.52 648.235C1022.53 648.237 1022.57 648.323 1022.58 648.324C1022.59 648.325 1022.63 648.324 1022.64 648.324C1025.7 648.252 1062.36 636.797 1075.25 636.038H1075.25ZM934.628 665.863C948.868 664.827 992.013 692.684 994.128 693.551C994.133 693.552 994.187 693.551 994.192 693.551C993.97 694.795 993.933 704.853 993.749 706.46C993.745 706.503 993.753 706.614 993.749 706.638C993.747 706.644 993.687 706.635 993.686 706.638C992.523 705.761 933.39 671.206 930.773 673.964C929.141 668.521 930.833 666.139 934.63 665.863L934.628 665.863ZM1061.85 673.163C1064.81 672.98 1066.98 673.165 1067.66 673.697C1067.75 673.771 1067.82 673.874 1067.85 673.964C1067.86 673.976 1067.85 674.037 1067.85 674.053C1067.85 674.072 1067.85 674.126 1067.85 674.143C1067.85 674.18 1067.87 674.285 1067.85 674.321C1067.84 674.339 1067.8 674.391 1067.79 674.41C1067.75 674.488 1067.67 674.591 1067.6 674.677C1063.21 680.173 1022.45 691.503 1022.45 691.503C1022.45 691.503 1022.26 680.872 1022.26 679.841C1023.42 679.492 1049.73 673.916 1061.85 673.163L1061.85 673.163ZM1058.56 709.931C1061.43 709.797 1063.46 710.027 1063.93 710.732L1064 710.821C1064.01 710.852 1063.99 710.967 1064 710.999C1064 711.018 1064.06 711.071 1064.06 711.089C1064.06 711.107 1064 711.16 1064 711.178C1063.99 711.215 1064.01 711.317 1064 711.356C1063.99 711.374 1063.94 711.425 1063.93 711.445C1063.9 711.526 1063.86 711.629 1063.81 711.712C1063.77 711.776 1063.67 711.915 1063.62 711.98C1059.22 717.325 1024.67 727.559 1024.67 727.559C1024.67 727.559 1023.72 715.885 1023.72 715.541C1024.68 715.571 1047.78 710.436 1058.56 709.932L1058.56 709.931ZM912.751 712.869C921.087 712.127 941.745 716.963 992.736 743.05L994.443 757.116C994.443 757.116 909.541 718.526 907.124 717.319C907.128 717.319 907.122 717.24 907.124 717.23C907.126 717.155 907.11 716.975 907.124 716.784C907.154 716.431 907.281 715.875 907.566 715.36C908.164 714.327 909.531 713.154 912.751 712.867L912.751 712.869ZM1024.6 743.406C1025.63 743.714 1039.86 744.379 1042.5 747.501C1042.51 747.514 1042.55 747.576 1042.56 747.59C1042.57 747.603 1042.61 747.664 1042.62 747.68C1042.63 747.692 1042.68 747.754 1042.69 747.769C1042.71 747.818 1042.73 747.9 1042.75 747.947C1042.76 747.965 1042.81 748.02 1042.81 748.036C1042.84 748.101 1042.87 748.237 1042.88 748.303C1042.88 748.322 1042.88 748.375 1042.88 748.393C1042.88 748.411 1042.88 748.465 1042.88 748.482C1042.88 748.519 1042.88 748.625 1042.88 748.66C1042.88 748.678 1042.88 748.731 1042.88 748.749C1042.87 748.786 1042.82 748.891 1042.81 748.927C1042.81 748.946 1042.82 748.998 1042.81 749.016C1042.8 749.053 1042.77 749.157 1042.75 749.194C1040.56 754.003 1025.68 755.783 1025.68 755.783C1025.68 755.783 1024.95 746.359 1024.6 743.408L1024.6 743.406ZM1059.06 770.826C1062.38 770.714 1064.76 771.249 1065.26 772.607C1065.54 773.528 1065 774.887 1063.43 776.702C1051.23 790.785 1024.67 793.529 1024.67 793.529V778.038C1024.67 778.039 1024.72 778.039 1024.73 778.038C1026.24 777.785 1048.06 771.198 1059.06 770.826H1059.06ZM1092.89 785.249C1097.1 785.024 1098.92 786.018 1099.47 787.386C1099.51 787.507 1099.57 787.704 1099.59 787.832C1099.63 788.063 1099.67 788.386 1099.66 788.633C1099.52 790.397 1098.17 792.512 1097.13 793.885C1092.98 799.381 1026.88 828.874 1026.88 828.874C1026.88 828.874 1026.38 809.311 1026.63 807.596C1065.27 791.105 1084.18 785.715 1092.89 785.25L1092.89 785.249ZM1050.15 840.626C1054.35 840.405 1057.64 840.755 1058.62 842.139C1058.68 842.231 1058.77 842.394 1058.81 842.495C1058.83 842.558 1058.86 842.697 1058.87 842.763C1058.89 842.829 1058.87 842.96 1058.87 843.03C1058.88 843.149 1058.9 843.346 1058.87 843.476C1058.83 843.738 1058.7 844.06 1058.56 844.366C1052.9 852.181 1025.43 853.358 1025.43 853.358V843.654C1030.59 843.409 1042.07 841.051 1050.15 840.627L1050.15 840.626ZM1077.65 856.562C1078.96 856.518 1079.76 856.817 1079.87 857.363C1079.87 857.406 1079.87 857.495 1079.87 857.541C1079.8 857.995 1079.42 858.684 1078.6 859.499C1067.62 870.488 1026.37 881.756 1026.37 881.756C1026.37 881.756 1026.88 874.077 1027.13 872.23C1028.28 872.206 1067.78 856.902 1077.65 856.561L1077.65 856.562ZM1100.79 868.759C1105.66 868.694 1109.37 869.704 1111.48 871.874C1111.48 871.874 1111.54 871.873 1111.54 871.874C1111.55 871.881 1111.54 871.954 1111.54 871.964C1111.54 871.976 1111.54 872.041 1111.54 872.053C1111.54 872.084 1111.55 872.196 1111.54 872.231C1111.34 874.36 1108.25 884.375 1097.38 888.701C1083.83 886.997 1026.31 910.94 1025.17 911.315C1025.17 911.308 1025.11 911.321 1025.11 911.315C1025.1 911.284 1025.11 911.181 1025.11 911.137C1025.08 909.603 1025.87 901.343 1025.87 901.343C1045.69 884.648 1081.73 869.012 1100.79 868.759L1100.79 868.759ZM953.534 915.765C953.661 915.762 953.778 915.764 953.913 915.765C978.793 919.543 988.087 932.657 990.713 937.933C985.752 950.191 946.43 922.7 950.563 916.833C951.036 916.239 952.009 915.81 953.534 915.765L953.534 915.765ZM1096.12 918.08C1097.1 918.024 1098.01 918.311 1098.65 918.881C1098.91 919.127 1099.16 919.479 1099.34 919.86C1099.58 920.407 1099.74 921.147 1099.78 921.997C1097.18 927.652 1083.74 925.183 1082.9 925.024C1083.58 924.684 1091.34 918.336 1096.12 918.08H1096.12ZM1042.81 956.183C1044.66 956.076 1046.19 956.339 1047.05 957.074C1047.15 957.168 1047.28 957.318 1047.37 957.43C1047.39 957.467 1047.47 957.567 1047.49 957.608C1047.53 957.67 1047.59 957.809 1047.62 957.875C1047.65 957.943 1047.66 958.07 1047.68 958.142C1047.84 958.808 1047.78 959.727 1047.37 960.813C1043.46 971.118 1026.37 967.312 1026.37 967.312V960.101C1026.38 960.103 1026.43 960.099 1026.44 960.101C1027.4 960.216 1036.82 956.531 1042.81 956.184L1042.81 956.183ZM942.153 983.337C947.411 982.964 952.006 987.82 956.823 991.706C967.555 988.615 989.575 994.11 989.575 994.11V1007.82C989.575 1007.83 989.525 1007.9 989.511 1007.91C989.503 1007.92 989.461 1007.9 989.448 1007.91C987.444 1008.4 961.637 1006.81 955.874 1001.68C951.173 1001.68 937.866 991.788 936.842 986.721C936.833 986.678 936.785 986.585 936.779 986.543C936.77 986.48 936.783 986.337 936.779 986.276C936.777 986.232 936.778 986.137 936.779 986.097C936.78 986.06 936.774 985.957 936.779 985.919C936.781 985.901 936.777 985.849 936.779 985.83C936.783 985.793 936.833 985.688 936.842 985.652C936.846 985.633 936.838 985.58 936.842 985.563C938.681 984.183 940.473 983.456 942.153 983.337L942.153 983.337ZM1055.02 990.104C1059.06 989.798 1060.77 991.554 1057.61 997.849C1048.83 1015.36 1026.12 1008.18 1026.12 1008.18L1025.17 997.315C1033.18 997.755 1047.82 990.649 1055.02 990.103L1055.02 990.104ZM970.164 1025.62C979.346 1025.02 989.323 1030.17 989.323 1030.17C989.558 1030.82 994.257 1043.87 990.081 1048.24C989.926 1048.4 989.756 1048.55 989.576 1048.68C984.452 1052.46 959.967 1045.73 958.53 1031.86C961.411 1027.57 965.68 1025.92 970.164 1025.62H970.164ZM875.51 1032.39C883.907 1031.68 893.287 1038.96 894.352 1039.69C894.365 1039.7 894.407 1039.69 894.415 1039.69C894.415 1040.1 894.099 1052.87 894.099 1052.87C894.099 1052.87 877.476 1046.34 872.221 1033.19C873.274 1032.79 874.4 1032.48 875.509 1032.39H875.51ZM1035.42 1034.17C1044.78 1034.09 1056.1 1037.19 1057.74 1041.65C1058.05 1042.56 1057.96 1043.57 1057.36 1044.59C1052.72 1052.49 1026.38 1045.3 1026.38 1045.3V1035.69C1028.72 1034.72 1031.95 1034.2 1035.42 1034.17L1035.42 1034.17Z" fill="#007934"/>
</g>
<defs>
<clipPath id="clip0">
<rect width="2000" height="1416.04" rx="186" fill="white"/>
</clipPath>
</defs>
</svg>
