<svg width="2000" height="1417" viewBox="0 0 2000 1417" fill="none" xmlns="http://www.w3.org/2000/svg">
<path d="M203.946 16.5205C105.001 16.5205 24.791 100.523 24.791 204.146V1215.43C24.791 1319.06 105.001 1403.06 203.946 1403.06H682.819C682.819 940.88 682.819 478.7 682.819 16.5205H203.946Z" fill="#57A863"/>
<path d="M681.977 16.5205C681.977 478.7 681.977 940.88 681.977 1403.06H1339.72C1339.72 940.88 1339.72 478.7 1339.72 16.5205H681.977Z" fill="white"/>
<path d="M1817.18 16.5205H1339.72C1339.72 478.7 1339.72 940.88 1339.72 1403.06H1817.18C1916.13 1403.06 1996.34 1319.06 1996.34 1215.43V204.146C1996.34 100.523 1916.13 16.5205 1817.18 16.5205Z" fill="#57A863"/>
</svg>
