<svg width="2000" height="1417" viewBox="0 0 2000 1417" fill="none" xmlns="http://www.w3.org/2000/svg">
<path d="M17.7461 212.7V478.208H1989.58V212.7C1989.58 104.515 1905.84 16.8145 1802.53 16.8145H204.788C101.488 16.8145 17.7461 104.515 17.7461 212.7Z" fill="#4A89DC"/>
<path d="M17.7461 941.672H1989.58V479.099H17.7461V941.672Z" fill="white"/>
<path d="M17.7461 1207.46C17.7461 1315.65 101.488 1403.35 204.788 1403.35H1802.82C1906.12 1403.35 1989.86 1315.65 1989.86 1207.46V941.957H18.0278L17.7461 1207.46Z" fill="#4A89DC"/>
<path d="M1003.66 857.593C1081.45 857.593 1144.5 791.554 1144.5 710.089C1144.5 628.625 1081.45 562.585 1003.66 562.585C925.873 562.585 862.814 628.625 862.814 710.089C862.814 791.554 925.873 857.593 1003.66 857.593Z" fill="white" stroke="#FFCE54" stroke-width="2" stroke-linejoin="round"/>
</svg>
