<svg width="2000" height="1417" viewBox="0 0 2000 1417" fill="none" xmlns="http://www.w3.org/2000/svg">
<path d="M1817.18 8.26758H203.66C104.715 8.26758 24.5049 92.2703 24.5049 195.893V1207.18C24.5049 1310.8 104.715 1394.81 203.66 1394.81H1817.18C1916.13 1394.81 1996.34 1310.8 1996.34 1207.18V195.893C1996.34 92.2703 1916.13 8.26758 1817.18 8.26758Z" fill="white"/>
<path d="M879.15 1376.53C883.49 1365.48 881.044 1352.79 872.953 1344.37L329.573 775.302H853.235C864.679 775.371 875.026 768.183 879.414 757.114C883.803 746.045 881.361 733.295 873.235 724.855L189.573 9.16504C148.315 12.6171 109.482 30.9701 79.7139 61.0865L647.883 657.298H125.629C114.185 657.229 103.838 664.417 99.4499 675.486C95.0615 686.555 97.5038 699.305 105.629 707.745L647.883 1276.82H73.5167C62.2805 1276.77 52.0957 1283.73 47.6012 1294.52C47.5444 1295.6 47.5444 1296.68 47.6012 1297.76C78.965 1357.36 138.682 1394.5 203.658 1394.82H853.798C864.964 1394.53 874.91 1387.35 879.15 1376.53Z" fill="#4758A9"/>
<path d="M193.519 716.282H785.068L126.758 26.8477C64.3415 57.9142 24.5513 123.808 24.5049 196.182V1207.18C24.5264 1255.04 42.0681 1301.07 73.519 1335.8H785.068L193.519 716.282Z" fill="#ED5565"/>
<path d="M190.421 1195.38C180.844 1202.16 175.21 1198.33 178.027 1187.12L188.45 1144.93C190.666 1132.25 186.393 1119.27 177.182 1110.71L145.914 1084.16C137.182 1076.49 139.435 1070 150.985 1069.7H194.647C207.226 1069.36 218.358 1061.08 222.816 1048.76L236.619 1002.74C239.999 991.527 245.914 991.527 249.858 1002.74L266.196 1048.17C271.302 1059.81 282.148 1067.54 294.365 1068.23H338.027C349.858 1068.23 352.111 1074.42 343.379 1082.39L309.576 1111.89C300.42 1120.46 296.52 1133.62 299.435 1146.11L310.14 1182.99C313.52 1194.2 307.886 1198.33 298.027 1192.13L261.971 1170.01C250.917 1163.66 237.532 1163.66 226.478 1170.01L190.421 1195.38ZM260.844 1205.7C257.745 1216.62 250.985 1216.91 245.633 1205.7L225.914 1166.76C219.072 1155.31 207.496 1147.88 194.647 1146.7L152.675 1144.64C140.844 1144.64 138.309 1137.56 147.323 1130.48L180.562 1103.63C189.266 1095.5 192.29 1082.6 188.168 1071.18L168.45 1027.22C163.661 1016.6 168.45 1012.77 178.59 1018.96L221.407 1044.63C232.404 1051.21 245.903 1051.21 256.9 1044.63L291.83 1018.37C300.844 1011.59 307.041 1015.13 305.069 1026.34L298.027 1069.41C296.879 1082.3 302.484 1094.83 312.675 1102.15L345.633 1124.58C355.492 1131.36 354.083 1137.85 342.252 1139.03L299.435 1143.46C286.781 1144.59 275.849 1153.18 271.266 1165.58L260.844 1205.7Z" fill="white"/>
<path d="M320.84 413.015C323.084 417.26 324.969 421.702 326.473 426.29C341.017 471.014 318.191 519.618 275.487 534.853C258.898 540.483 241.128 541.097 224.22 536.623C203.338 531.187 185.374 517.284 174.281 497.976C163.187 478.667 159.872 455.534 165.065 433.666V431.601C166.376 426.931 168.072 422.391 170.135 418.03C170.496 416.487 169.624 414.921 168.163 414.49C167.223 413.842 166.005 413.842 165.065 414.49C143.219 442.695 136.696 480.655 147.782 515.067C158.868 549.478 186.017 575.541 219.713 584.12C240.144 589.719 261.696 588.898 281.685 581.76C335.591 563.593 365.228 503.101 347.882 446.646V444.876C343.316 431.291 336.124 418.837 326.755 408.295C325.815 407.647 324.597 407.647 323.656 408.295C322.196 408.726 321.324 410.291 321.685 411.835L320.84 413.015Z" fill="white"/>
<path d="M208.168 571.434C201.408 576.155 197.464 573.499 199.436 565.534L206.76 536.033C208.425 527.075 205.422 517.864 198.873 511.843L176.901 493.257C170.704 487.947 172.394 483.522 180.563 483.227H211.267C219.86 482.665 227.348 476.899 230.422 468.477L239.999 436.321C242.253 428.355 246.478 428.355 249.295 436.321L260.845 468.181C264.438 476.465 272.166 481.936 280.845 482.342H312.112C320.281 482.342 321.971 486.767 315.774 492.372L291.83 513.023C285.483 519.037 282.782 528.204 284.788 536.918L292.394 562.879C294.647 570.844 290.704 573.794 283.943 569.369L258.591 553.734C250.79 549.219 241.321 549.219 233.521 553.734L208.168 571.434ZM257.464 578.515C255.211 586.185 250.422 586.48 246.76 578.515L232.957 551.079C228.249 542.917 220.064 537.642 210.985 536.918L182.816 535.443C174.366 535.443 172.675 530.428 178.873 525.413L202.253 506.533C208.584 500.998 210.751 491.8 207.605 483.817L193.802 454.316C190.422 446.941 193.802 444.286 200.845 448.416L230.704 466.411C238.389 470.989 247.807 470.989 255.492 466.411L279.999 448.121C286.478 443.401 290.704 445.761 289.295 453.726L284.225 483.227C283.383 492.253 287.261 501.052 294.366 506.238L317.464 521.873C324.507 526.593 323.38 531.313 315.211 531.903L285.352 534.853C276.786 536.014 269.529 542.026 266.478 550.489L257.464 578.515Z" fill="white"/>
</svg>
