<svg width="2000" height="1417" viewBox="0 0 2000 1417" fill="none" xmlns="http://www.w3.org/2000/svg">
<path d="M1799.72 8.26758H186.2C87.2556 8.26758 7.04517 92.2703 7.04517 195.893V1207.18C7.04517 1310.8 87.2556 1394.81 186.2 1394.81H1799.72C1898.67 1394.81 1978.88 1310.8 1978.88 1207.18V195.893C1978.88 92.2703 1898.67 8.26758 1799.72 8.26758Z" fill="#4758A9"/>
<path d="M1978.88 657.281H7.04517V745.784H1978.88V657.281Z" fill="#F6D660"/>
<path d="M340.287 1229.6C325.076 1241.11 316.062 1234.62 320.569 1215.15L337.188 1141.99C340.82 1120.46 334.196 1098.44 319.442 1082.98L269.583 1036.67C255.498 1023.39 259.16 1012.18 277.752 1011.59L347.611 1009.53C367.627 1007.66 384.671 993.514 390.991 973.536L412.963 893.884C418.315 874.413 427.893 874.118 434.09 893.884L460.569 972.651C468.582 992.302 486.662 1005.38 507.047 1006.28H578.315C596.907 1006.28 600.85 1017.49 586.766 1030.77L532.4 1081.51C517.663 1096.95 511.498 1119.21 516.062 1140.51L533.526 1204.82C538.597 1224.29 529.864 1231.37 514.09 1220.75L456.062 1182.4C438.28 1172.49 416.8 1173.28 399.724 1184.47L340.287 1229.6ZM452.963 1247.3C448.174 1266.18 437.188 1266.77 428.738 1247.3L397.188 1180.04C386.835 1160.63 368.154 1147.66 347.047 1145.23L280.005 1141.4C260.85 1141.4 256.907 1129.3 271.273 1116.61L324.512 1069.71C339.143 1055.27 343.935 1032.97 336.625 1013.36L305.357 936.955C297.752 918.369 305.357 911.879 321.414 922.795L389.864 967.046C407.565 977.452 429.352 976.54 446.202 964.686L502.54 919.254C517.188 907.454 526.766 913.354 523.949 932.825L512.4 1007.46C510.416 1029.29 519.238 1050.66 535.78 1064.1L588.456 1103.04C604.231 1114.84 601.695 1126.06 583.104 1128.12L514.653 1135.79C494.541 1139.06 477.886 1153.88 471.554 1174.14L452.963 1247.3Z" fill="white"/>
</svg>
