<svg width="2000" height="1417" viewBox="0 0 2000 1417" fill="none" xmlns="http://www.w3.org/2000/svg">
<path d="M1807.61 18.2861H164.79C81.7091 29.0166 15.5524 96.2527 2.81836 182.901V1236.67C16.7306 1332.31 95.2297 1402.99 187.607 1403.06H1785.35C1888.65 1403.06 1972.4 1315.35 1972.4 1207.17V212.697C1972.36 113.558 1901.6 30.0812 1807.61 18.2861Z" fill="#4658A9"/>
<path d="M704.239 16.8301H185.929C83.3991 17.9621 0.852701 105.332 0.858399 212.716V723.965H705.084L704.239 16.8301Z" fill="#4658A9"/>
<path d="M296.901 531.016V724.541H406.761V526.591L595.775 724.541H704.225V636.039L507.042 429.533H704.225V311.53H507.042L704.225 105.024V16.5215H596.338L407.606 214.177V16.5215H297.746V210.047L123.662 29.5019C79.6255 46.2134 43.1509 79.5719 21.4085 123.019L201.972 312.12H0V430.123H201.69L0 640.464V723.952H112.676L296.901 531.016Z" fill="white"/>
<path d="M325.07 449.299V723.952H378.592V445.169L644.789 723.952H704.225V687.371L428.732 398.852H704.225V341.326H428.732L704.225 52.8076V16.5216H645.352L378.592 295.009V16.2266H325.07V290.584L90.4225 44.5474C71.4477 56.6033 54.6625 72.0846 40.8451 90.2737L280 340.736H0V398.262H279.718L0 691.796V723.952H62.8169L325.07 449.299Z" fill="#EC5463"/>
<path d="M1174.65 396.791C1165.63 403.577 1160.28 399.741 1163.1 388.236L1172.96 346.05C1175.21 333.443 1171.3 320.49 1162.54 311.534L1134.37 284.688C1125.92 277.018 1128.17 270.528 1139.16 270.233H1180.28C1192.05 269.236 1202.13 261.002 1205.92 249.287L1218.87 202.971C1221.97 191.761 1227.61 191.466 1231.27 202.971L1246.76 248.402C1251.48 260.379 1262.56 268.266 1274.93 268.463H1316.9C1327.89 268.463 1330.14 274.953 1321.69 282.623L1289.86 312.124C1281.21 321.019 1277.59 333.97 1280.28 346.345L1290.42 383.516C1293.52 394.726 1288.45 398.856 1278.87 392.956L1244.79 370.831C1234.47 364.371 1221.59 364.371 1211.27 370.831L1174.65 396.791Z" fill="#ED5565"/>
<path d="M1512.68 514.79C1503.66 521.576 1498.31 517.74 1501.13 506.235L1510.99 464.049C1513.24 451.442 1509.33 438.489 1500.56 429.533L1472.4 402.687C1463.95 395.017 1466.2 388.527 1477.18 388.232H1518.31C1530.08 387.235 1540.16 379.001 1543.95 367.286L1556.9 320.97C1560 309.76 1565.64 309.465 1569.3 320.97L1584.79 366.401C1589.51 378.378 1600.59 386.265 1612.96 386.462H1654.93C1665.92 386.462 1668.17 392.952 1659.72 400.622L1627.89 430.123C1619.24 439.018 1615.62 451.969 1618.31 464.344L1628.45 501.515C1631.55 512.725 1626.48 516.855 1616.9 510.955L1582.82 488.83C1572.5 482.37 1559.62 482.37 1549.3 488.83L1512.68 514.79Z" fill="#ED5565"/>
<path d="M1005.63 721.291C996.618 728.077 991.266 724.241 994.083 712.736L1003.94 670.55C1006.2 657.943 1002.29 644.99 993.52 636.034L965.351 609.188C956.9 601.518 959.154 595.028 970.14 594.733H1011.27C1023.04 593.736 1033.11 585.502 1036.9 573.787L1049.86 527.471C1052.96 516.261 1058.59 515.966 1062.25 527.471L1077.75 572.902C1082.47 584.879 1093.54 592.766 1105.91 592.963H1147.89C1158.87 592.963 1161.13 599.453 1152.67 607.123L1120.84 636.624C1112.2 645.519 1108.57 658.47 1111.27 670.845L1121.41 708.016C1124.51 719.226 1119.44 723.356 1109.86 717.456L1075.77 695.331C1065.45 688.871 1052.57 688.871 1042.25 695.331L1005.63 721.291Z" fill="#ED5565"/>
<path d="M1414.08 869.689C1407.6 874.409 1403.94 871.754 1405.63 863.789L1412.68 834.288C1414.18 825.31 1411.33 816.134 1405.07 809.802L1383.94 790.627C1378.03 785.316 1379.44 780.596 1387.32 780.301H1415.49C1423.92 779.576 1431.12 773.657 1433.8 765.256L1443.1 732.215C1445.35 724.25 1449.29 723.955 1452.11 732.215L1463.38 764.666C1466.6 772.927 1474.03 778.54 1482.53 779.121H1512.68C1520.56 779.121 1522.25 783.841 1516.34 789.152L1493.52 810.097C1487.33 816.459 1484.77 825.744 1486.76 834.583L1494.08 861.134C1496.34 869.099 1492.68 872.049 1485.91 867.919L1461.41 851.988C1454.02 847.447 1444.86 847.447 1437.46 851.988L1414.08 869.689Z" fill="#ED5565"/>
</svg>
