<svg width="2000" height="1417" viewBox="0 0 2000 1417" fill="none" xmlns="http://www.w3.org/2000/svg">
<path d="M1.22172e-10 220.954V486.462H2000V220.954C2000 112.77 1915.06 25.0686 1810.29 25.0686H190C139.635 24.9903 91.3072 45.5936 55.667 82.3377C20.0269 119.082 -5.71164e-05 168.951 1.22172e-10 220.954Z" fill="white"/>
<path d="M0 949.911H2000V487.338H0V949.911Z" fill="#ED5565"/>
<path d="M0 1215.72C0 1323.9 84.938 1411.6 189.714 1411.6H1810.29C1915.06 1411.6 2000 1323.9 2000 1215.72V950.211H0V1215.72Z" fill="#57A863"/>
<path d="M182 25.0684C81.6422 25.0684 0.285984 109.071 0.285984 212.694V1223.69C0.285984 1327.31 81.6422 1411.31 182 1411.31H514.286V24.7734L182 25.0684Z" fill="#ED5565"/>
<path d="M328.857 216.828H186V364.332H328.857V216.828Z" fill="white"/>
</svg>
