<svg width="2000" height="1417" viewBox="0 0 2000 1417" fill="none" xmlns="http://www.w3.org/2000/svg">
<path d="M1810.42 25.0664H524.789V1411.61H1810.42C1909.37 1411.61 1989.58 1327.6 1989.58 1223.98V212.987C1989.65 163.174 1970.81 115.375 1937.2 80.1248C1903.6 44.8744 1857.99 25.0663 1810.42 25.0664Z" fill="#57A863"/>
<path d="M1352.12 813.04C1336.91 823.955 1328.18 817.76 1332.4 799.469L1348.74 730.733C1352.49 710.148 1345.89 688.989 1331.27 674.681L1281.7 631.02C1267.61 618.629 1271.27 608.009 1289.87 607.419L1359.16 605.354C1378.83 603.994 1395.86 590.558 1402.54 571.133L1424.23 495.906C1429.58 477.615 1438.88 477.32 1445.36 495.906L1471.56 569.953C1479.49 588.891 1496.91 601.55 1516.63 602.699H1587.33C1605.92 602.699 1609.58 613.319 1595.5 625.71L1541.7 673.501C1527.35 687.833 1521.25 709.008 1525.64 729.257L1542.82 789.734C1547.89 808.025 1539.44 814.81 1523.39 804.78L1467.05 768.789C1449.32 758.791 1427.84 759.466 1410.71 770.559L1352.12 813.04ZM1592.96 887.677C1581.75 900.646 1569.5 912.588 1556.34 923.373C1427.43 1028.59 1242 1007.42 1137.75 875.582C1118.54 850.914 1103.14 823.239 1092.12 793.569C1080.48 764.352 1073.35 733.383 1070.99 701.822C1060.04 532.301 1182.37 385.572 1344.23 374.068C1361.01 372.609 1377.88 372.609 1394.65 374.068H1396.06C1399.59 374.331 1402.97 372.606 1404.95 369.544C1406.93 366.481 1407.2 362.545 1405.66 359.218C1404.11 355.892 1400.99 353.68 1397.47 353.417C1350.22 337.052 1300.34 330.635 1250.71 334.536C1153.1 341.057 1061.96 387.926 997.35 464.831C932.74 541.735 899.953 642.373 906.204 744.598V746.073C909.006 784.348 917.365 821.951 930.992 857.586C944.894 893.321 963.89 926.643 987.33 956.414C1118.48 1121.7 1351.34 1147.84 1512.96 1015.42C1551.77 983.775 1584.06 944.237 1607.89 899.182C1610.52 895.511 1610.52 890.463 1607.89 886.792C1605.81 884.699 1602.99 883.607 1600.1 883.775C1597.22 883.942 1594.53 885.355 1592.68 887.677H1592.96Z" fill="white"/>
<path d="M197.186 25.0684C98.2416 25.0684 18.0312 109.071 18.0312 212.694V1223.69C18.0312 1327.31 98.2416 1411.31 197.186 1411.31H525.073V24.7734L197.186 25.0684Z" fill="white"/>
</svg>
