<svg width="2000" height="1417" viewBox="0 0 2000 1417" fill="none" xmlns="http://www.w3.org/2000/svg">
<path d="M24.5039 732.788V1223.68C24.5284 1242.59 27.2825 1261.39 32.6729 1279.44C34.3631 1285.34 36.3349 1291.04 38.5884 1296.55C43.5357 1307.45 49.4789 1317.82 56.3349 1327.52C59.5274 1332.44 63.0016 1337.26 66.7574 1341.98C72.6919 1349.49 79.1916 1356.5 86.194 1362.93H87.6025C94.7655 1369.43 102.393 1375.34 110.419 1380.63C124.118 1389.54 138.898 1396.49 154.363 1401.28H156.053C162.72 1403.27 169.492 1404.84 176.335 1406H181.687C189.342 1407.11 197.058 1407.7 204.786 1407.77H1014.08C1014.08 1181.59 1014.08 955.421 1014.08 729.248L24.5039 732.788Z" fill="#4758A9"/>
<path d="M1996.34 212.404C1996.26 200.114 1995.03 187.862 1992.67 175.823C1992.67 170.218 1990.14 164.612 1988.73 159.302C1985.3 148.072 1980.87 137.206 1975.49 126.851C1973.8 123.901 1972.11 120.951 1970.42 118.001L1966.48 111.216L1962.25 105.316L1956.34 96.7605L1952.39 92.3354L1944.79 83.4851L1937.74 76.995L1932.11 71.3898H1930.42H1928.73C1920.85 64.8622 1912.47 59.0399 1903.66 53.9843L1896.34 50.1492L1892.96 48.3792L1888.17 46.0191L1882.53 43.954L1874.08 40.7089H1871.83H1866.48C1859.43 38.6981 1852.29 37.122 1845.07 35.9888H1841.69C1834.03 34.8572 1826.32 34.2658 1818.59 34.2188H1014.08C1014.08 270.225 1014.08 506.232 1014.08 742.239H1997.74V212.404H1996.34Z" fill="#ED5565"/>
<path d="M1014.08 1411.31H1818.59C1826.32 1411.26 1834.03 1410.67 1841.69 1409.54H1845.07C1852.29 1408.41 1859.43 1406.83 1866.48 1404.82H1871.83H1874.08L1882.53 1401.58L1888.17 1399.51L1892.39 1397.45L1898.31 1394.5L1903.94 1391.84L1911.83 1386.83L1917.46 1383.29L1922.81 1379.16L1927.88 1375.32L1931.26 1372.67L1934.08 1370.01C1941.82 1363.09 1948.98 1355.49 1955.49 1347.3L1961.41 1338.74L1965.63 1332.84L1969.57 1326.05C1971.26 1323.1 1972.96 1320.45 1974.65 1317.2C1980.03 1306.85 1984.46 1295.98 1987.88 1284.75C1987.88 1280.03 1990.42 1275.31 1991.27 1270.59V1267.35C1993.6 1255.41 1994.83 1243.25 1994.93 1231.06C1994.93 1231.06 1994.93 1231.06 1994.93 1229.59V732.793H1014.08C1014.08 958.966 1014.08 1185.14 1014.08 1411.31Z" fill="white"/>
<path d="M1430.42 1214.83C1417.46 1224.27 1409.85 1218.96 1413.8 1202.74L1427.88 1143.74C1431.12 1125.73 1425.51 1107.23 1412.95 1094.47L1370.7 1056.41C1358.59 1045.5 1361.69 1036.35 1377.74 1035.76L1436.61 1032.52C1453.41 1031.2 1467.88 1019.63 1473.52 1003.02L1492.11 936.936C1496.61 921.005 1504.78 920.71 1510.14 936.936L1532.39 1001.84C1538.75 1018.64 1553.76 1030.11 1570.98 1031.34H1631.26C1647.04 1031.34 1650.14 1040.48 1638.31 1051.4L1592.67 1091.52C1580.19 1104.18 1574.96 1122.76 1578.87 1140.49L1593.52 1193.59C1598.02 1209.52 1590.42 1215.72 1576.9 1206.87L1527.88 1175.3C1512.71 1166.71 1494.28 1167.38 1479.71 1177.07L1430.42 1214.83Z" fill="#ED5565"/>
<path d="M1014.1 24.7734H203.958C194.517 24.8833 185.098 25.7711 175.789 27.4285H171.564C162.76 29.1968 154.097 31.6623 145.649 34.8037L140.86 36.5738C132.611 39.8807 124.607 43.825 116.916 48.3741L113.536 50.4392C98.9267 59.259 85.717 70.406 74.381 83.4801L70.4373 87.9052C65.3661 93.8806 60.6619 100.187 56.3528 106.786C36.2967 137.778 25.5992 174.369 25.6486 211.809L25.6484 732.203H1014.1C1014.1 496.59 1014.1 260.78 1014.1 24.7734Z" fill="white"/>
<path d="M444.785 521.566C431.827 531.301 424.221 525.696 428.165 509.47L442.25 450.469C445.485 432.463 439.877 413.959 427.32 401.202L385.066 362.851C372.954 351.936 376.052 342.791 392.109 342.201L451.264 340.43C468.056 339.113 482.525 327.546 488.165 310.93L506.757 244.848C511.264 228.917 519.433 228.622 524.785 244.848L547.038 309.75C553.402 326.548 568.414 338.024 585.63 339.25H645.912C661.686 339.25 664.785 348.396 652.954 359.311L607.038 401.202C594.562 413.865 589.325 432.445 593.235 450.174L607.883 503.275C612.39 519.206 604.785 525.401 591.264 516.55L542.25 484.985C527.088 476.326 508.626 477.004 494.081 486.755L444.785 521.566Z" fill="#4758A9"/>
</svg>
