<svg width="2000" height="1417" viewBox="0 0 2000 1417" fill="none" xmlns="http://www.w3.org/2000/svg">
<g clip-path="url(#clip0)">
<path d="M2000 0H0V1416.04H2000V0Z" fill="#012169"/>
<path d="M0 0L1000 708.02L0 0ZM1000 0L0 708.02Z" fill="black"/>
<path d="M1000 0L0 708.02M0 0L1000 708.02L0 0Z" stroke="white" stroke-width="60"/>
<path d="M0 0L1000 708.02L0 0ZM1000 0L0 708.02Z" fill="black"/>
<path d="M1000 0L0 708.02M0 0L1000 708.02L0 0Z" stroke="#C8102E" stroke-width="40"/>
<path d="M500 0V944.027V0ZM0 354.01H1166.67Z" fill="black"/>
<path d="M0 354.01H1166.67M500 0V944.027V0Z" stroke="white" stroke-width="100"/>
<path d="M500 0V944.027V0ZM0 354.01H1166.67Z" fill="black"/>
<path d="M0 354.01H1166.67M500 0V944.027V0Z" stroke="#C8102E" stroke-width="60"/>
<path d="M1000 0V708.02H0V1416.04H2000V0H1000Z" fill="#012169"/>
<path d="M1334.53 750.879C1313.2 776.462 1292.87 813.846 1287.87 847.642C1273.8 942.705 1255.13 963.851 1226.33 943.46C1226.33 994.532 1257.93 998.403 1271.8 968.572C1271.8 1016.43 1284.07 1057.97 1311.73 1093.37C1323.4 1108.29 1325.6 1098.09 1320.07 1081.57C1314.53 1065.05 1314.53 1011.71 1303.47 981.127C1321.2 999.158 1347.27 988.962 1345.07 939.495C1322.33 958.376 1299.73 957.621 1297.4 912.779C1294.53 860.197 1309 783.825 1334.53 750.879Z" fill="#F7E017" stroke="black" stroke-width="0.6"/>
<path d="M1307.53 372.798C1309.07 353.917 1306.2 334.564 1296.47 322.387C1277.67 298.975 1259.27 306.716 1245.53 325.596C1225 309.925 1214.13 365.529 1190.87 356.183C1194.73 374.214 1200.87 382.049 1212.47 375.818C1200.27 391.489 1212.47 410.37 1198.07 429.156C1224.13 440.956 1238 420.565 1236.87 385.164C1246.87 397.72 1262.33 396.965 1270.67 382.804C1256.8 376.479 1256.73 359.487 1262.33 343.533C1270.67 320.026 1309.73 320.97 1307.53 372.798Z" fill="#F7E017" stroke="black" stroke-width="0.6"/>
<path d="M1367.67 645.904C1338.27 667.9 1284.53 658.459 1279.53 604.272C1274.53 550.085 1311.67 525.729 1321.67 518.743C1337.2 507.698 1349.4 527.334 1344.4 550.18C1361.6 541.589 1365.47 513.268 1357.13 496.842C1379.87 499.202 1400.93 474.846 1409.8 440.295C1401.8 451.057 1380.07 443.788 1362.2 442.183C1367.73 433.592 1367.67 416.789 1366 408.104C1347.2 435.48 1320 422.925 1284 502.223C1289.53 474.752 1300.07 419.809 1306.2 383.653C1306.8 380.066 1307.27 376.479 1307.6 372.797C1309.73 320.97 1270.73 320.026 1262.4 343.627C1271.53 358.165 1266.73 375.157 1263.47 400.929C1259.6 431.515 1251.27 502.223 1244.07 525.729C1241.87 488.818 1224.67 486.458 1221.33 468.427C1216.33 473.147 1213.6 485.703 1214.67 494.293C1208.53 484.853 1187.47 496.653 1179.73 482.493C1171.4 505.999 1184.73 529.6 1198.6 539.795C1190.53 540.55 1188.6 554.333 1179.73 554.333C1191.67 573.969 1203.87 581.804 1218 583.409C1232.13 585.014 1242.67 592.472 1251.27 616.733C1265.13 656.099 1317.93 681.588 1367.67 645.904Z" fill="#337321" stroke="black" stroke-width="0.6"/>
<path d="M1440.87 597.947C1424.27 663.085 1378.8 709.437 1358.27 716.517C1323.33 728.506 1252.13 777.501 1233.07 802.707C1230.07 801.763 1227.27 800.252 1225.2 798.175C1215.8 788.735 1208 758.149 1224.67 732.188C1276.8 663.085 1332.8 692.917 1367.73 645.81C1338.33 667.805 1284.6 658.365 1279.6 604.178C1311.2 615.978 1368.33 616.734 1413.73 547.631C1419.8 557.166 1437.53 586.997 1440.87 597.947Z" fill="#F7E017" stroke="black" stroke-width="0.6"/>
<path d="M1334.53 750.88C1308.2 782.504 1294.53 860.198 1297.33 912.78C1298.13 927.412 1301 937.325 1305.4 943.367C1307.33 913.535 1322 836.408 1359.4 802.046C1391 772.97 1440.33 707.832 1458.67 633.254C1455.33 619.943 1449.8 610.503 1439.27 601.062C1421.07 671.487 1372.47 705.283 1334.53 750.88Z" fill="#337321" stroke="black" stroke-width="0.6"/>
<path d="M1423.93 567.737C1414.53 587.751 1393.13 615.222 1372.66 626.267C1377.06 619.187 1378.46 610.219 1378.73 602.761C1352.66 616.921 1300.53 615.316 1279.46 604.366C1311.06 616.166 1368.2 616.921 1413.6 547.818C1418.13 554.804 1422 561.035 1423.93 567.737Z" fill="#316D3A" stroke="black" stroke-width="0.6"/>
<path d="M1224.67 732.188C1182.27 788.357 1210.26 837.352 1226.86 848.397C1222.46 887.669 1248.46 882.948 1247.93 915.895C1258.46 907.304 1261.26 884.459 1259.6 866.428C1272.93 886.819 1306.73 864.068 1313.93 901.735C1318.4 860.103 1295.66 818.566 1267.4 822.436C1279.06 807.521 1272.4 783.165 1261.33 776.934C1259.13 807.521 1234.73 807.521 1225.26 798.175C1215.8 788.735 1208 758.148 1224.67 732.188Z" fill="#337321" stroke="black" stroke-width="0.6"/>
<path d="M1316.4 1089.41C1311.8 1093.18 1312.13 1101.59 1315 1107.06C1320.8 1118.01 1310.87 1142.93 1329.67 1148.32C1335.2 1149.92 1339.47 1145.11 1341.6 1136.14C1347.4 1111.4 1328.87 1108.67 1327.2 1096.87C1325.53 1085.07 1320.27 1086.29 1316.4 1089.41Z" fill="#F7E017" stroke="black" stroke-width="0.6"/>
<path d="M1332.2 1135.76C1326 1139.82 1320.53 1145.58 1323.07 1173.8C1324.07 1185.51 1323.6 1213.83 1316.4 1214.21C1320.8 1217.32 1330.27 1220.72 1334.13 1213.45C1337.87 1222.33 1346.33 1219.78 1349.67 1208.73C1354.07 1213.83 1360.2 1205.24 1360.2 1197.78C1364.07 1201.28 1371.87 1196.18 1369.87 1179.37C1374.6 1181.73 1380.67 1177.01 1382.87 1172.67C1375.93 1170.69 1358.47 1157.38 1354.33 1146.81C1350.2 1136.14 1339.4 1131.04 1332.2 1135.76Z" fill="#F7E017" stroke="black" stroke-width="0.6"/>
<path d="M1236.13 341.739C1238.93 335.886 1242.07 330.41 1245.53 325.596" stroke="black" stroke-width="0.6"/>
<path d="M1341.6 445.676C1346.47 441.711 1353.93 441.239 1362.2 441.994" stroke="black" stroke-width="0.6"/>
<path d="M1334.13 1213.45C1332.2 1209.49 1331.47 1193.06 1332.87 1183.05" stroke="black" stroke-width="0.6"/>
<path d="M1349.67 1208.73C1346.6 1205.43 1340.8 1194 1339.8 1184" stroke="black" stroke-width="0.6"/>
<path d="M1360.2 1197.78C1356.33 1195.23 1346.87 1177.96 1344.8 1166.82" stroke="black" stroke-width="0.6"/>
<path d="M1369.86 1179.28C1365.26 1177.86 1351.26 1164.93 1345.46 1151.24" stroke="black" stroke-width="0.6"/>
<path d="M1625.47 733.039C1693.67 813.942 1698.07 878.23 1687.54 915.991C1682 880.685 1653.74 825.742 1624.34 811.582L1625.47 733.039Z" fill="#F7E017" stroke="black" stroke-width="0.6"/>
<path d="M1503.53 687.441H1629.93C1629.93 687.441 1629.93 734.548 1629.93 899.375C1629.93 1079.97 1559 1186.74 1486.87 1243.19C1414.8 1186.64 1343.8 1079.87 1343.8 899.375C1343.8 734.548 1343.8 687.441 1343.8 687.441H1432.53C1432.67 698.392 1433.4 714.913 1442.53 731.433C1463.47 728.507 1487.13 706.322 1503.53 687.441Z" fill="#337321" stroke="black" stroke-width="0.6"/>
<path d="M1629.93 687.441C1629.93 687.441 1629.93 734.548 1629.93 899.375C1629.93 953.846 1623.47 1001.71 1612.47 1043.34L1486.93 717.178L1361.4 1043.34C1350.4 1001.61 1343.93 953.846 1343.93 899.375C1343.93 734.548 1343.93 687.441 1343.93 687.441H1629.93V687.441Z" fill="#006EC7" stroke="black" stroke-width="0.6"/>
<path d="M1616.26 1027.76C1614.06 1037.39 1610 1052.97 1606.93 1062.6L1486.93 746.726L1366.93 1062.6C1363.8 1052.97 1359.8 1037.39 1357.6 1027.76L1487 688.102L1616.26 1027.76Z" fill="#F7E017"/>
<path d="M1543.93 1143.97C1547.27 1146.33 1553.4 1150.68 1556.13 1152.28C1562.8 1133.4 1563.87 1106.78 1561.67 1083.18C1554.47 1109.14 1530.07 1108.29 1523.4 1123.96C1527.47 1126.89 1531.27 1130.66 1534.53 1133.97C1526.2 1145.77 1506.73 1165.5 1495.67 1170.22V1001.8C1495.67 990.002 1492.87 980.184 1492.87 970.366C1492.87 970.366 1492.87 943.367 1492.87 935.532C1492.87 927.696 1491.73 916.273 1486.8 916.273C1481.8 916.273 1480.73 927.696 1480.73 935.532C1480.73 943.367 1480.73 970.366 1480.73 970.366C1480.73 980.184 1477.93 991.607 1477.93 1001.8V1170.22C1471.87 1145.11 1447.93 1153.7 1436.87 1128.58C1441.2 1127.07 1445.8 1126.6 1450.2 1127.83C1441.87 1087.8 1419.13 1084.69 1414.73 1072.89C1414.73 1089.41 1409.73 1127.83 1417.53 1144.35C1419.27 1141.42 1421.87 1138.31 1425.07 1135.67C1434.47 1164.74 1476.87 1164.84 1486.87 1212.7C1494.87 1195.04 1523.73 1174.65 1543.93 1143.97Z" fill="#F7E017" stroke="black" stroke-width="0.6"/>
<path d="M1486.86 1003.88C1496.26 1003.88 1526.2 999.536 1537.06 999.536C1539.86 999.536 1542.2 993.589 1542.2 986.225C1542.2 978.862 1539.93 972.915 1537.06 972.915C1526.26 972.915 1496.33 968.572 1486.86 968.572C1477.46 968.572 1447.53 972.915 1436.66 972.915C1433.86 972.915 1431.53 978.862 1431.53 986.225C1431.53 993.589 1433.8 999.536 1436.66 999.536C1447.53 999.536 1477.46 1003.88 1486.86 1003.88Z" fill="#F7E017" stroke="black" stroke-width="0.6"/>
<path d="M1480.8 934.87C1478.8 932.604 1476.2 931.188 1473.26 931.188C1467 931.188 1461.86 937.796 1461.86 945.915C1461.86 954.034 1466.93 960.642 1473.26 960.642C1479.53 960.642 1484.6 954.034 1484.6 945.915C1484.6 939.59 1491.06 939.59 1491.06 945.915C1491.06 958.659 1483.06 968.949 1473.26 968.949C1463.4 968.949 1455.46 958.659 1455.46 945.915C1455.46 933.171 1463.46 922.881 1473.26 922.881C1476.2 922.881 1479 923.825 1481.46 925.43C1481.26 927.507 1480.8 931.471 1480.8 934.87Z" fill="#F7E017" stroke="black" stroke-width="0.6"/>
<path d="M1436.73 999.536C1439.53 999.536 1441.8 993.588 1441.8 986.225C1441.8 978.861 1439.53 972.914 1436.73 972.914" fill="#F7E017"/>
<path d="M1436.73 999.536C1439.53 999.536 1441.8 993.588 1441.8 986.225C1441.8 978.861 1439.53 972.914 1436.73 972.914" stroke="black" stroke-width="0.6"/>
<path d="M1440.87 999.536C1443.67 999.536 1445.93 993.588 1445.93 986.225C1445.93 978.861 1443.67 972.914 1440.87 972.914" fill="#F7E017"/>
<path d="M1440.87 999.536C1443.67 999.536 1445.93 993.588 1445.93 986.225C1445.93 978.861 1443.67 972.914 1440.87 972.914" stroke="black" stroke-width="0.6"/>
<path d="M1468.27 1002.27C1471.67 1002.27 1474.4 995.098 1474.4 986.224C1474.4 977.35 1471.67 970.176 1468.27 970.176" fill="#F7E017"/>
<path d="M1468.27 1002.27C1471.67 1002.27 1474.4 995.098 1474.4 986.224C1474.4 977.35 1471.67 970.176 1468.27 970.176" stroke="black" stroke-width="0.6"/>
<path d="M1474.6 1002.94C1478.13 1002.94 1481 995.383 1481 986.132C1481 976.88 1478.13 969.328 1474.6 969.328" fill="#F7E017"/>
<path d="M1474.6 1002.94C1478.13 1002.94 1481 995.383 1481 986.132C1481 976.88 1478.13 969.328 1474.6 969.328" stroke="black" stroke-width="0.6"/>
<path d="M1495.93 1003.12C1499.53 1003.12 1502.4 995.477 1502.4 986.131C1502.4 976.785 1499.47 969.139 1495.93 969.139" fill="#F7E017"/>
<path d="M1495.93 1003.12C1499.53 1003.12 1502.4 995.477 1502.4 986.131C1502.4 976.785 1499.47 969.139 1495.93 969.139" stroke="black" stroke-width="0.6"/>
<path d="M1502.6 1002.65C1506.13 1002.65 1509 995.288 1509 986.225C1509 977.162 1506.13 969.799 1502.6 969.799" fill="#F7E017"/>
<path d="M1502.6 1002.65C1506.13 1002.65 1509 995.288 1509 986.225C1509 977.162 1506.13 969.799 1502.6 969.799" stroke="black" stroke-width="0.6"/>
<path d="M1532.4 999.725C1535.27 999.725 1537.6 993.683 1537.6 986.131C1537.6 978.579 1535.27 972.537 1532.4 972.537" fill="#F7E017"/>
<path d="M1532.4 999.725C1535.27 999.725 1537.6 993.683 1537.6 986.131C1537.6 978.579 1535.27 972.537 1532.4 972.537" stroke="black" stroke-width="0.6"/>
<path d="M1425.07 1135.67C1428.47 1132.74 1432.6 1130.1 1436.93 1128.68Z" fill="#F7E017"/>
<path d="M1425.07 1135.67C1428.47 1132.74 1432.6 1130.1 1436.93 1128.68" stroke="black" stroke-width="0.6"/>
<path d="M1537.86 1137.27C1536.86 1136.23 1535.73 1135.19 1534.6 1133.97Z" fill="#F7E017"/>
<path d="M1537.86 1137.27C1536.86 1136.23 1535.73 1135.19 1534.6 1133.97" stroke="black" stroke-width="0.6"/>
<path d="M1543.93 1143.97C1551.66 1132.17 1558.13 1118.86 1561.73 1103.57Z" fill="#F7E017"/>
<path d="M1543.93 1143.97C1551.66 1132.17 1558.13 1118.86 1561.73 1103.57" stroke="black" stroke-width="0.6"/>
<path d="M1461.46 837.352C1461.46 833.482 1463.66 831.877 1466.26 829.139C1469.4 825.835 1470.66 824.23 1473.46 824.23H1509.86C1512.53 824.23 1513.2 825.175 1513.2 828.762V898.714C1513.2 902.207 1512.6 903.245 1509.86 903.245H1461.46V836.597" fill="white"/>
<path d="M1461.46 837.352C1461.46 833.482 1463.66 831.877 1466.26 829.139C1469.4 825.835 1470.66 824.23 1473.46 824.23H1509.86C1512.53 824.23 1513.2 825.175 1513.2 828.762V898.714C1513.2 902.207 1512.6 903.245 1509.86 903.245H1461.46V836.597" stroke="black" stroke-width="0.6"/>
<path d="M1500.86 909.382C1505.66 909.382 1504.8 909.193 1508.13 904.473C1511.66 899.564 1511.33 899.941 1511.33 895.41V831.311C1511.33 828.007 1510.73 827.062 1508.26 827.062H1474.6C1471.93 827.062 1470.8 828.573 1467.93 831.688C1465.53 834.237 1463.53 835.842 1463.53 839.429V909.382H1500.86Z" fill="#E5E5E5" stroke="black" stroke-width="0.6"/>
<path d="M1504.46 907.871C1504.46 911.364 1503.86 912.402 1501.13 912.402H1464.73C1462 912.402 1461.46 911.458 1461.46 907.871V837.824C1461.46 834.331 1462.06 833.293 1464.73 833.293H1501.13C1503.86 833.293 1504.46 834.237 1504.46 837.824V907.871Z" fill="white" stroke="black" stroke-width="0.6"/>
<path d="M1575 646.376C1582.06 657.61 1584.4 672.62 1580.53 687.346H1570C1574.4 668.466 1571.66 650.529 1552.8 648.169C1524.6 644.676 1491.8 721.992 1442.46 731.338C1428.06 706.982 1428.8 660.63 1447.13 638.635C1437.66 600.024 1417.73 557.543 1403.86 539.229C1394.8 537.152 1384.33 536.113 1377.6 536.68C1384.8 514.684 1405.33 491.555 1422 482.115C1424.66 476.545 1427.6 471.164 1430.26 466.35C1431.93 436.141 1533.4 450.301 1555 469.087C1555.06 502.978 1564.46 615.789 1575 646.376Z" fill="#96877D" stroke="black" stroke-width="0.6"/>
<path d="M1452.07 667.05C1449.67 614.75 1434.73 571.608 1413.73 542.249C1423.73 546.214 1444.2 546.214 1458.07 532.054C1476.33 514.778 1524.07 484.569 1541.53 497.502C1542.93 501.845 1543.73 511.663 1542.67 517.893C1538.53 502.223 1492.47 526.484 1479.47 533.942C1467 542.155 1461.47 553.2 1465.87 577.933C1458.67 569.343 1461.13 561.035 1453.67 554.805C1456.67 565 1459.13 583.409 1460 598.324C1457.2 587.751 1452.27 565 1441.4 551.595C1450.8 577.461 1459 639.673 1455.13 672.714C1462.6 672.714 1479.13 662.329 1485.73 654.872C1479.93 666.672 1463.13 674.885 1452.33 678C1447.47 686.213 1444.13 707.454 1444.4 719.254C1443.67 704.716 1446.87 669.315 1452.07 667.05Z" fill="black"/>
<path d="M1575 646.375C1565.8 631.932 1548.67 624.096 1526.8 632.498C1530.13 630.138 1537.33 626.173 1543.73 624.663C1542.93 616.45 1537.67 581.049 1536.8 572.458L1542.93 568.965C1546 590.206 1549.87 614.467 1552.33 624.285C1554.27 625.04 1558.73 626.268 1562.6 629.005C1560.93 620.792 1551.53 561.507 1551.8 555.182L1560.13 548.857C1563.4 581.049 1568.67 627.778 1575 646.375Z" fill="black"/>
<path d="M1570.06 687.441C1574.46 668.561 1571.73 650.624 1552.86 648.264C1538.26 646.47 1522.4 666.578 1503.66 687.441H1570.06Z" fill="#96877D" stroke="black" stroke-width="0.6"/>
<path d="M1447.53 518.272C1439.2 519.877 1420.67 517.517 1411.2 513.175C1411.73 509.587 1412.73 506 1413.93 502.035C1408.13 507.511 1397.07 518.272 1392.87 525.73C1406.2 529.695 1433.67 531.678 1447.53 518.272Z" fill="#96877D" stroke="black" stroke-width="0.6"/>
<path d="M1447.2 638.73C1450.27 651.286 1452.27 663.37 1452.53 674.132" stroke="black" stroke-width="0.6"/>
<path d="M1422.07 482.209C1417.07 492.593 1412.67 503.733 1411.2 513.173C1420.6 517.516 1439.2 519.876 1447.53 518.271" stroke="black" stroke-width="0.6"/>
<path d="M1403.93 539.324C1407.53 540.174 1410.87 541.118 1413.73 542.251C1423.73 546.215 1444.2 546.215 1458.07 532.055C1471.93 517.895 1509.6 473.997 1552.33 469.277" stroke="black" stroke-width="0.6"/>
<path d="M1392.93 525.729C1406.27 529.694 1433.73 531.582 1447.53 518.272C1479.67 487.308 1510.73 469.182 1541.8 466.822" stroke="black" stroke-width="0.6"/>
<path d="M1625.47 733.039C1672 778.541 1706.4 822.533 1716.4 893.146C1726.4 963.759 1745.27 982.64 1768.54 963.759C1763 1004.54 1734.14 1009.26 1709.8 977.92C1712 1025.03 1698.74 1081.57 1664.34 1101.96C1662.14 1073.74 1675.34 1051.36 1671.54 1028.14C1669.87 1017.95 1669.34 994.346 1678.74 983.395C1660.47 991.986 1631.6 975.559 1628.87 937.043C1649.94 951.204 1677.07 953.564 1687.6 915.803C1698.07 878.23 1693.67 813.848 1625.47 733.039Z" fill="#337321" stroke="black" stroke-width="0.6"/>
<path d="M1684.27 365.622C1698.67 312.285 1736.4 317.76 1749.13 340.511C1786.27 310.68 1791.27 378.178 1822.87 364.867C1822.33 377.423 1811.8 389.223 1800.13 388.374C1812.33 404.044 1795.13 427.645 1821.2 441.711C1799 457.382 1768 440.956 1759.67 397.719C1752.47 418.11 1726.4 418.11 1715.87 401.684C1738.6 393.094 1736.93 363.262 1724.2 351.462C1711.33 339.567 1688.67 344.382 1684.27 365.622Z" fill="#337321" stroke="black" stroke-width="0.6"/>
<path d="M1571.8 483.155C1582.13 530.356 1603.53 574.348 1626.6 604.273C1653.2 638.825 1693.4 630.14 1715.86 597.193C1716.4 662.897 1668.33 667.995 1641.6 647.415C1629.8 638.353 1620.26 643.073 1631.6 657.611C1648.8 679.607 1686.4 695.938 1730.8 709.438C1808.4 732.944 1780.73 820.172 1758 819.323C1764.53 819.134 1769.86 809.505 1760.46 797.516C1693.13 711.704 1556.2 745.5 1558.4 553.957C1544 604.179 1484.66 584.543 1512.4 524.881C1521.26 535.076 1536.8 535.831 1541.26 520.161C1544.73 507.983 1542.46 486.742 1526.93 468.428C1529.46 468.145 1535 468.428 1534.4 459.365C1535.06 464.652 1538.46 472.487 1547.2 469.844C1549.66 475.414 1552.33 479.095 1555.86 477.113C1556.53 476.735 1558.66 475.225 1557.8 469.655C1558.46 480.228 1567.2 483.91 1571.8 483.155Z" fill="#337321" stroke="black" stroke-width="0.6"/>
<path d="M1641.53 647.414C1673.66 677.245 1710.06 677.245 1743.53 622.303C1754.06 605.027 1770.66 590.112 1782.33 588.507C1794 586.902 1793.4 571.231 1802.26 568.116C1796.73 565.756 1794.53 556.316 1786.2 557.543C1807 547.347 1800.86 523.747 1811.13 512.418C1802.8 516.761 1789.8 499.108 1777.86 521.481C1780.93 511.285 1776.73 499.108 1773.73 494.387C1774.86 506.188 1757.4 508.548 1754.06 538.379C1752.2 555.088 1745.73 554.05 1744.66 528.184C1743.86 509.209 1737.46 456.721 1729.73 430.099C1722 403.383 1720.2 366.755 1730.73 361.28C1729.13 357.503 1726.93 354.105 1724.2 351.651C1711.33 339.756 1688.73 344.57 1684.26 365.811C1669.86 419.148 1710.33 449.829 1707 507.887C1700.93 464.745 1651.53 453.7 1652.13 411.313C1636.06 421.508 1638.26 440.389 1644.4 455.305C1634.4 433.309 1611.66 469.465 1592.26 439.634C1590.06 478.905 1614.46 493.821 1634.4 495.331C1624.4 520.443 1637.73 541.683 1651 548.669C1651.53 504.677 1715.2 522.708 1715.86 598.136C1716.4 662.33 1667.6 667.805 1641.53 647.414Z" fill="#F7E017" stroke="black" stroke-width="0.6"/>
<path d="M1730.8 709.438C1808.4 732.944 1780.73 820.172 1758 819.322C1743.53 818.85 1729.73 801.669 1728.86 786.753C1712.26 799.309 1716.66 824.042 1729.4 833.86C1694.46 828.007 1679.8 860.576 1678.93 896.26C1685.33 879.74 1704.73 878.607 1711.93 882.1C1719.13 885.593 1737.73 887.575 1745.2 875.775C1739.06 883.233 1749.06 900.508 1740.46 913.819C1769.6 912.214 1782.33 873.792 1777.33 856.894C1815.06 808.371 1807.86 729.073 1730.8 709.438Z" fill="#F7E017" stroke="black" stroke-width="0.6"/>
<path d="M1671.74 1082.42C1676.8 1086.86 1676.14 1096.3 1672.74 1102.25C1665.87 1114.14 1676.2 1142.56 1655.07 1147.37C1648.8 1148.79 1644.2 1143.12 1642.14 1133.02C1636.4 1105.08 1657.2 1103.19 1659.4 1090.07C1661.67 1077.04 1667.47 1078.65 1671.74 1082.42Z" fill="#F7E017" stroke="black" stroke-width="0.6"/>
<path d="M1652.66 1133.12C1659.46 1138.02 1665.33 1144.82 1661.73 1176.16C1660.2 1189.19 1659.86 1220.82 1667.93 1221.67C1662.86 1224.87 1652.26 1227.99 1648.13 1219.68C1643.66 1229.31 1634.33 1225.91 1630.93 1213.45C1625.8 1218.83 1619.26 1208.83 1619.53 1200.52C1615.06 1204.2 1606.6 1198.06 1609.26 1179.37C1603.93 1181.73 1597.26 1176.07 1594.93 1171.16C1602.73 1169.37 1622.6 1155.58 1627.6 1143.97C1632.53 1132.45 1644.73 1127.45 1652.66 1133.12Z" fill="#F7E017" stroke="black" stroke-width="0.6"/>
<path d="M1648.06 1219.78C1650.33 1215.53 1651.66 1197.12 1650.4 1185.89" stroke="black" stroke-width="0.6"/>
<path d="M1630.93 1213.55C1634.46 1210.05 1641.26 1197.69 1642.66 1186.55" stroke="black" stroke-width="0.6"/>
<path d="M1619.47 1200.61C1623.87 1197.97 1634.94 1179.28 1637.6 1166.91" stroke="black" stroke-width="0.6"/>
<path d="M1609.2 1179.47C1614.34 1178.24 1630.4 1164.65 1637.27 1149.64" stroke="black" stroke-width="0.6"/>
<path d="M1558.4 554.051C1557.47 634.482 1581.07 675.264 1613.8 701.697C1601.67 691.407 1606.94 656.1 1590.54 644.677C1594.4 644.3 1600.54 652.135 1610.2 649.02C1605.47 634.104 1597.74 611.353 1579.74 608.238C1584.47 607.483 1594.74 609.843 1601.34 606.255C1591.94 585.77 1567 595.588 1558.4 554.051Z" fill="#F7E017" stroke="black" stroke-width="0.6"/>
<path d="M1552.53 477.489C1550.53 476.545 1548.86 473.713 1547.2 470.031C1538.46 472.675 1535.06 464.839 1534.4 459.553C1534.93 468.615 1529.46 468.238 1526.86 468.521C1542.46 486.835 1544.73 508.076 1541.26 520.254C1536.8 535.925 1521.33 535.169 1512.4 524.974C1511.26 558.298 1541.8 569.343 1552.86 527.334C1552.86 534.414 1559.26 533.659 1560.93 543.005C1568.8 524.974 1562.8 499.013 1552.53 477.489Z" fill="#F7E017" stroke="black" stroke-width="0.6"/>
<path d="M1503.8 318.138C1489.93 300.107 1483.53 269.898 1484.13 252.623C1484.67 235.347 1489.67 216.466 1507.4 224.396C1501.87 224.396 1505.73 240.067 1499.93 241.672C1504.67 244.032 1511 238.557 1511.87 234.969C1513 240.445 1520.2 238.934 1520.73 245.165C1523.53 242.049 1520.47 226.756 1516.33 223.547C1519.4 221.186 1521.07 209.009 1519.67 203.156C1516.87 203.911 1512.73 209.481 1511.93 217.316C1513.33 210.991 1511.67 195.32 1503.87 192.96C1501.67 197.303 1501.07 207.876 1504.13 213.729C1496.93 211.369 1486.4 218.071 1483.87 226.662C1484.4 216.278 1485.47 201.456 1490 192.11C1491.53 188.995 1487.8 183.52 1484.87 190.978C1479.47 176.062 1465.07 168.227 1458.67 175.684C1452.27 183.142 1443.73 172.192 1438.47 183.897C1433.2 195.698 1415.33 196.925 1416.27 209.386C1416.8 216.844 1415.53 228.361 1412.93 232.515C1406.53 242.71 1416 250.168 1417.67 259.231C1416.53 229.4 1450.07 171.342 1483.67 194.093C1480.6 201.551 1477.93 216.466 1477 234.497C1475.6 261.213 1478.4 298.88 1496.67 320.876L1503.8 318.138Z" fill="#337321" stroke="black" stroke-width="0.6"/>
<path d="M1513.73 224.68C1513.53 217.6 1522.2 208.443 1533.8 208.632C1547.8 208.821 1558.6 226.851 1569.8 225.152C1581 223.359 1575.47 232.232 1573.13 234.593C1570.8 236.953 1569.4 240.445 1570.2 244.788C1571 249.131 1569.6 251.963 1565.07 247.903C1555.07 239.029 1545.13 251.396 1531.93 244.599C1520.67 238.557 1514.07 235.253 1513.73 224.68Z" fill="#C8102E" stroke="black" stroke-width="0.6"/>
<path d="M1456.67 409.992C1451.13 385.258 1430.07 358.164 1419.8 351.934L1419.27 338.623C1424.8 335.508 1438.13 320.592 1444.2 312.285C1485.8 340.511 1542.33 300.484 1568.4 258.947L1578.4 267.538L1573.4 276.978L1568.13 273.013C1561.73 283.964 1537.93 315.683 1530.73 322.386C1540.4 325.879 1553.67 328.239 1557.33 327.956C1580.6 304.355 1598.87 283.209 1607.73 281.604L1615.2 295.764L1608.53 302.467L1603.27 298.124C1578.33 327.2 1550.07 390.733 1538.93 433.12C1523.47 428.4 1468 431.515 1456.67 409.992Z" fill="#96877D" stroke="black" stroke-width="0.6"/>
<path d="M1530.73 322.387C1527.13 321.065 1524.06 319.649 1522.13 318.139C1517.66 323.992 1506.6 329.089 1492.46 329.939" stroke="black" stroke-width="0.6"/>
<path d="M1458.87 401.307C1455.13 372.042 1461.07 339.662 1471.6 329.844C1494.6 351.462 1534 351.462 1557.27 327.861" stroke="black" stroke-width="0.6"/>
<path d="M1458.87 386.013C1476.6 385.258 1515.13 389.506 1524.53 391.488C1533.93 393.471 1549.73 398.946 1547.53 405.648" stroke="black" stroke-width="0.6"/>
<path d="M1467.07 381.861L1472.2 374.686L1467.07 367.512L1462 374.592L1467.07 381.861Z" stroke="black" stroke-width="0.6"/>
<path d="M1479.13 235.725C1472.73 223.17 1455.2 219.205 1451.4 236.103C1449.73 243.56 1447.27 251.396 1443.07 254.983C1438.93 258.476 1439.87 269.238 1441.67 273.864C1446.07 285.286 1442.2 296.237 1450.8 303.695C1450.8 294.632 1460.2 285.286 1468.27 282.926C1476.33 280.566 1488.47 270.371 1490.13 258.948C1491.87 247.431 1494.67 237.991 1479.13 235.725Z" fill="#337321" stroke="black" stroke-width="0.6"/>
<path d="M1439.2 348.725H1441.4L1441.46 370.154C1441.93 370.343 1442.4 370.72 1442.8 371.098L1455.86 360.431L1457 363.168L1443.86 373.93C1443.93 374.591 1444 375.346 1443.93 376.007L1457 386.674L1455.86 389.412L1442.66 378.839C1442.33 379.311 1441.86 379.783 1441.4 379.972V401.307H1439.2V379.877C1438.73 379.689 1438.26 379.311 1437.86 378.933L1424.8 389.601L1423.66 386.863L1436.8 376.101C1436.73 375.441 1436.66 374.685 1436.73 374.024L1423.66 363.357L1424.8 360.619L1437.93 371.287C1438.26 370.815 1438.73 370.343 1439.2 370.154V348.725Z" fill="#96877D" stroke="black" stroke-width="0.6"/>
<path d="M1458.93 401.212C1454.2 408.009 1447.6 412.163 1440.27 412.163C1425.73 412.163 1414 395.548 1414 374.968C1414 354.388 1425.73 337.773 1440.27 337.773C1448.8 337.773 1456.33 343.532 1461.13 352.406C1459.8 357.126 1458.2 367.605 1458.07 372.325C1457.13 359.486 1449.53 349.479 1440.2 349.479C1430.27 349.479 1422.27 360.902 1422.27 374.874C1422.27 388.94 1430.33 400.268 1440.2 400.268C1448.47 400.268 1455.67 392.055 1457.73 381.199C1457.8 386.108 1457.93 397.342 1458.93 401.212Z" fill="#96877D" stroke="black" stroke-width="0.6"/>
<path d="M1429.2 436.614C1427.53 433.876 1424.47 426.419 1424.8 420.943C1427.27 420.566 1432 422.926 1434.2 426.041C1433.93 422.076 1432.8 413.485 1433.4 409.521C1436.47 411.125 1442.8 416.223 1445.07 422.076C1444.53 418.111 1443.4 407.916 1444.53 401.685C1447.87 404.423 1453.4 411.881 1454.53 416.978C1454.8 409.143 1456.73 396.21 1458.4 393C1460.87 396.493 1464.8 399.703 1467.27 404.423C1467.8 398.098 1470.07 390.64 1473.33 388.752C1475.8 392.717 1479.73 401.685 1480.53 411.881C1483 410.748 1486.33 404.8 1487.73 401.685C1489.13 404.8 1490.53 410.276 1489.67 416.978C1492.73 413.013 1496.33 407.538 1497.13 402.818C1499.33 405.178 1503.53 411.031 1504.6 417.356C1504.07 412.258 1504.33 403.196 1503.2 398.098C1507.33 401.213 1510.67 406.688 1511.53 412.636C1512.67 407.16 1515.13 397.343 1517.33 394.983C1519.53 401.308 1521.8 408.765 1521.47 414.996C1522.87 411.031 1525.07 404.045 1527.27 402.44C1529.2 406.783 1528.93 416.223 1528.4 421.321C1530.33 417.356 1533.93 412.73 1536.13 411.125C1536.4 413.485 1536.67 418.206 1536.13 421.698C1538.6 419.716 1542.8 409.143 1544.2 403.668C1548.07 406.405 1551.93 415.846 1552.27 420.566C1555.07 418.961 1560.6 411.975 1562.27 408.01C1562.27 410.748 1563.13 418.206 1562 424.059C1563.67 421.698 1565.33 416.978 1566.13 414.996C1567.27 418.961 1566.4 428.307 1565.27 433.404C1567.73 430.289 1571.4 428.307 1573.6 428.307C1573.87 435.009 1570.53 446.715 1567.47 455.4C1540.93 444.922 1485.2 440.957 1429.2 436.614Z" fill="#337321" stroke="black" stroke-width="0.6"/>
<path d="M1522 228.738C1521.87 225.811 1526.4 219.297 1534.6 219.392C1544.4 219.486 1553.47 229.682 1561.27 228.926C1569.13 228.171 1565.27 231.853 1563.6 232.797C1561.93 233.741 1561 235.251 1561.53 236.951C1562.13 238.744 1561.13 239.877 1557.93 238.272C1550.93 234.685 1543.93 239.688 1534.73 236.951C1526.8 234.402 1522.2 233.08 1522 228.738Z" fill="#F7E017"/>
<path d="M1437.8 460.215C1429.47 474.375 1421.2 472.015 1419.53 462.952C1417.87 453.89 1424 449.642 1421.73 441.712C1419.53 433.876 1425.33 430.289 1428.13 433.876C1430.93 437.369 1439.8 426.041 1443.67 437.841C1447.53 449.642 1450.6 457.855 1448.4 462.575C1446.13 467.295 1439.47 464.935 1437.8 460.215Z" fill="#F7E017" stroke="black" stroke-width="0.6"/>
<path d="M1473.53 438.974C1472 433.782 1480.6 423.87 1485.07 430.95C1489.53 438.03 1496.47 423.303 1500.33 434.443C1504.2 445.677 1505.47 451.53 1507.4 457.76C1509.33 464.085 1496.87 467.389 1493 461.914C1493.53 465.596 1482.2 468.522 1479.13 457.949C1477.47 452.379 1475.67 445.866 1473.53 438.974Z" fill="#F7E017" stroke="black" stroke-width="0.6"/>
<path d="M1531.2 445.487C1529.13 440.012 1539.27 432.177 1544.53 442.183C1545.93 438.03 1555.93 437.274 1556.6 449.264C1557.27 461.253 1557.6 468.333 1557.87 473.053C1558.13 477.773 1551.8 482.116 1547.2 470.127C1539 472.487 1535.27 465.973 1534.33 459.176C1533.33 452.19 1532.33 448.792 1531.2 445.487Z" fill="#F7E017" stroke="black" stroke-width="0.6"/>
<path d="M1443.2 437.652C1441.93 433.687 1450.27 425.851 1455.93 431.799C1461.6 437.652 1469.47 426.701 1472.87 437.274C1479.67 458.703 1480.07 460.214 1478 464.368C1475.93 468.521 1467.07 466.916 1464.8 461.252C1464.4 465.217 1456.73 464.556 1452.73 461.441C1448.2 457.854 1445 444.732 1443.2 437.652Z" fill="#337321" stroke="black" stroke-width="0.6"/>
<path d="M1501.53 438.596C1499.6 432.554 1512.6 427.173 1518.33 437.841C1521.27 434.065 1527.6 433.876 1531.2 445.488C1534.8 457.099 1535.33 463.519 1532.73 466.445C1530.87 468.522 1524.13 470.127 1521.93 464.84C1518.87 467.578 1509.47 465.218 1507.4 457.76C1505.33 450.397 1503.53 443.883 1501.53 438.596Z" fill="#337321" stroke="black" stroke-width="0.6"/>
<path d="M1556.73 450.208C1556.47 444.733 1563.53 442.184 1566.13 450.208C1568.8 458.232 1577.2 450.963 1577.93 464.369C1578.07 466.918 1576.93 476.735 1574.33 481.456C1571.73 486.176 1558.8 481.456 1558 471.449C1557.13 461.348 1556.87 455.684 1556.73 450.208Z" fill="#337321" stroke="black" stroke-width="0.6"/>
<path d="M1437.8 460.214C1434.73 454.361 1430.6 444.921 1425.33 455.116" stroke="black" stroke-width="0.6"/>
<path d="M1464.87 461.157C1463.07 457.853 1460.73 452.283 1459.87 448.035" stroke="black" stroke-width="0.6"/>
<path d="M1493 462.007C1491.06 460.024 1488.13 456.154 1486.6 452" stroke="black" stroke-width="0.6"/>
<path d="M1490.46 441.334C1495.33 442.089 1498.66 448.603 1500.13 451.529C1501.66 454.456 1504.86 459.742 1507.33 460.403" stroke="black" stroke-width="0.6"/>
<path d="M1521.93 464.933C1520.27 461.157 1518.6 457.853 1518.2 455.115" stroke="black" stroke-width="0.6"/>
<path d="M1518.33 437.84C1520 441.144 1521.27 443.882 1522.2 447.091" stroke="black" stroke-width="0.6"/>
<path d="M1547.13 470.031C1544.93 464.178 1541.46 458.419 1538.53 456.531" stroke="black" stroke-width="0.6"/>
<path d="M1546.06 448.414C1546.33 460.026 1557.26 460.781 1557.73 468.994" stroke="black" stroke-width="0.6"/>
<path d="M1566.13 450.207C1567.27 453.134 1567.67 456.06 1567.8 460.969" stroke="black" stroke-width="0.6"/>
</g>
<defs>
<clipPath id="clip0">
<rect width="2000" height="1416.04" rx="186" fill="white"/>
</clipPath>
</defs>
</svg>
