<svg width="2000" height="1417" viewBox="0 0 2000 1417" fill="none" xmlns="http://www.w3.org/2000/svg">
<path d="M197.186 4.13485C98.2416 4.13485 18.0312 88.1376 18.0312 191.76V1202.75C18.0312 1252.52 36.9064 1300.24 70.5045 1335.42C104.103 1370.61 149.671 1390.38 197.186 1390.38H676.059C676.059 928.199 676.059 466.02 676.059 3.83984L197.186 4.13485Z" fill="#ED5565"/>
<path d="M676.059 4.13281C676.059 466.313 676.059 928.492 676.059 1390.67H1333.8C1333.8 928.492 1333.8 466.313 1333.8 4.13281H676.059Z" fill="white"/>
<path d="M1810.42 4.13281H1332.96C1332.96 466.313 1332.96 928.492 1332.96 1390.67H1810.42C1909.37 1390.67 1989.58 1306.67 1989.58 1203.05V191.758C1989.58 88.1355 1909.37 4.13281 1810.42 4.13281Z" fill="#ED5565"/>
</svg>
