<svg width="2000" height="1417" viewBox="0 0 2000 1417" fill="none" xmlns="http://www.w3.org/2000/svg">
<path d="M1799.72 3.54688H186.198C87.2534 3.54688 7.04297 87.5496 7.04297 191.172V711.567H1978.87V191.172C1978.87 87.5496 1898.66 3.54688 1799.72 3.54688Z" fill="#4758A9"/>
<path d="M7.0395 1202.17C7.0395 1305.79 87.2499 1389.79 186.194 1389.79H1799.43C1846.95 1389.79 1892.52 1370.02 1926.12 1334.84C1959.71 1299.65 1978.59 1251.93 1978.59 1202.17V711.566H6.75781L7.0395 1202.17Z" fill="#ED5565"/>
<path d="M60.5646 57.5352C26.2312 92.8106 6.93509 141.098 7.04342 191.469V1202.46C7.07579 1253.36 26.9109 1302.04 61.973 1337.28L711.269 711.569L60.5646 57.5352Z" fill="white"/>
<path d="M288.727 814.819C350.956 814.819 401.403 761.987 401.403 696.816C401.403 631.644 350.956 578.812 288.727 578.812C226.498 578.812 176.051 631.644 176.051 696.816C176.051 761.987 226.498 814.819 288.727 814.819Z" fill="#F6D660"/>
</svg>
