<svg width="2000" height="1417" viewBox="0 0 2000 1417" fill="none" xmlns="http://www.w3.org/2000/svg">
<path d="M1803.66 3.83984H190.139C91.1948 3.83984 10.9844 87.8425 10.9844 191.465V1202.75C10.9844 1306.38 91.1948 1390.38 190.139 1390.38H1803.66C1902.6 1390.38 1982.82 1306.38 1982.82 1202.75V191.465C1982.82 87.8425 1902.6 3.83984 1803.66 3.83984Z" fill="#434A54"/>
<path d="M1802.81 3.84194H190.136C142.317 3.73144 96.4522 23.7098 62.8125 59.3035L1918.87 1346.13C1959.36 1310.57 1982.76 1258.09 1982.81 1202.76V191.762C1982.89 141.796 1963.93 93.8622 1930.14 58.5862C1896.35 23.3102 1850.52 3.60618 1802.81 3.84194Z" fill="#ED5565"/>
<path d="M333.241 704.188C325.635 709.793 321.128 706.548 323.382 697.108L331.551 662.002C333.69 651.249 330.39 640.101 322.818 632.501L298.029 610.081C290.987 603.885 292.959 598.28 301.973 597.985H336.621C346.527 597.257 355.063 590.408 358.311 580.58L369.297 542.229C371.832 532.788 376.621 532.788 379.72 542.229L392.677 580.285C396.519 589.926 405.256 596.446 415.213 597.1H450.705C460.001 597.1 461.973 602.41 454.931 608.9L426.762 633.386C419.081 640.907 416.04 652.282 418.874 662.887L427.325 693.863C429.86 703.303 425.635 706.548 417.748 701.533L389.579 682.948C380.863 677.678 370.125 677.678 361.41 682.948L333.241 704.188Z" fill="white"/>
<path d="M617.459 802.43C609.854 808.036 605.628 804.79 607.6 795.35L615.769 760.244C617.965 749.489 614.656 738.312 607.037 730.743L582.248 708.323C575.206 702.128 577.178 696.522 586.192 696.227H620.84C630.746 695.499 639.282 688.65 642.53 678.822L653.516 640.471C656.051 631.031 660.84 631.031 663.938 640.471L676.051 678.527C679.893 688.168 688.63 694.688 698.586 695.342H733.798C743.093 695.342 745.065 700.653 738.023 707.143L709.854 731.628C702.173 739.15 699.132 750.525 701.967 761.129L710.417 792.105C712.952 801.545 708.727 804.79 700.84 799.775L672.671 781.19C663.955 775.92 653.217 775.92 644.502 781.19L617.459 802.43Z" fill="white"/>
<path d="M190.983 973.536C183.377 979.141 179.152 975.896 181.124 966.456L189.293 931.35C191.432 920.597 188.132 909.449 180.56 901.849L155.772 879.428C148.729 873.233 150.701 867.628 159.715 867.333H194.363C204.27 866.605 212.805 859.756 216.053 849.927L227.039 811.576C229.574 802.136 234.363 802.136 237.462 811.576L250.42 849.632C254.261 859.274 262.999 865.793 272.955 866.448H309.856C319.152 866.448 321.124 871.758 314.081 878.248L285.912 902.734C278.232 910.255 275.191 921.63 278.025 932.235L286.476 963.211C289.011 972.651 284.786 975.896 276.898 970.881L248.729 952.59C240.014 947.321 229.276 947.321 220.56 952.59L190.983 973.536Z" fill="white"/>
<path d="M388.163 1239.04C380.557 1244.65 376.332 1241.4 378.303 1231.96L386.472 1196.86C388.612 1186.1 385.312 1174.96 377.74 1167.36L352.951 1144.94C345.909 1138.74 347.881 1133.14 356.895 1132.84H391.543C401.449 1132.11 409.985 1125.26 413.233 1115.44L424.219 1077.08C426.754 1067.64 431.543 1067.64 434.641 1077.08L447.599 1115.14C451.441 1124.78 460.178 1131.3 470.134 1131.96H507.036C516.332 1131.96 518.303 1137.27 511.261 1143.76L483.092 1168.24C475.412 1175.76 472.37 1187.14 475.205 1197.74L483.656 1228.72C486.191 1238.16 481.965 1241.4 474.078 1236.39L445.909 1218.1C437.194 1212.83 426.456 1212.83 417.74 1218.1L388.163 1239.04Z" fill="white"/>
<path d="M460.28 975.601C455.21 979.436 452.111 977.371 453.52 970.881L459.153 946.691C460.482 939.479 458.259 932.052 453.238 926.925L436.337 911.585C431.548 907.159 432.675 903.619 439.153 903.324H462.815C469.573 902.735 475.34 897.973 477.463 891.229L484.787 864.678C486.477 858.188 489.858 858.188 491.83 864.678L500.844 890.639C503.449 897.289 509.482 901.769 516.337 902.144H540.28C546.477 902.144 547.886 905.979 543.097 910.11L524.787 926.925C519.829 932.082 517.799 939.575 519.435 946.691L525.351 967.931C527.041 974.421 525.351 976.781 518.872 973.241L499.435 960.556C493.525 956.911 486.191 956.911 480.28 960.556L460.28 975.601Z" fill="white"/>
<path d="M1201.97 413.018L1521.97 442.518L1432.11 785.023L1201.97 413.018Z" fill="#F6D660"/>
<path d="M1603.66 138.961L1498.59 456.685L1834.08 510.081L1603.66 138.961Z" fill="#F6D660"/>
</svg>
