<svg width="2000" height="1417" viewBox="0 0 2000 1417" fill="none" xmlns="http://www.w3.org/2000/svg">
<path d="M482.812 299.137L938.024 574.379C939.432 574.379 940.841 576.74 942.813 576.445H1996.33V299.432L482.812 299.137Z" fill="white"/>
<path d="M520.843 1107.75C508.449 1115.42 495.773 1122.5 483.66 1130.47C605.914 1130.47 727.885 1130.47 849.857 1130.47H1996.05V853.16H941.688L520.843 1107.75Z" fill="white"/>
<path d="M94.3639 1365.3C224.223 1287.12 353.801 1208.36 483.66 1129.29C495.772 1121.33 508.448 1114.25 520.843 1106.58L941.406 852.282L1169.29 714.513L946.477 579.989L942.533 576.744C940.843 576.744 939.434 576.744 937.744 574.679L482.533 299.436L94.9273 64.9043C50.1133 101.982 23.9619 158.497 23.9414 218.309V1213.08C24.1683 1272.37 50.0698 1328.36 94.3639 1365.3Z" fill="#3CAFDA"/>
<path d="M482.817 299.138H1996.34V218.011C1996.34 166.059 1976.63 116.234 1941.55 79.4988C1906.48 42.7632 1858.9 22.1253 1809.3 22.1253H211.549C169.29 22.0493 128.264 37.0303 95.2109 64.6065L482.817 299.138Z" fill="#EC5565"/>
<path d="M947.043 579.691L1169.86 714.215L941.973 851.984H1996.9V574.971H943.381L947.043 579.691Z" fill="#EC5565"/>
<path d="M483.663 1130.47C353.804 1208.35 223.945 1287.12 94.3672 1366.47C127.533 1394.56 168.9 1409.87 211.55 1409.84H1809.3C1912.6 1409.84 1996.34 1322.14 1996.34 1213.95V1131.94H850.424C728.17 1130.47 605.917 1130.76 483.663 1130.47Z" fill="#EC5565"/>
<path d="M324.504 862.308C309.293 873.518 299.997 867.028 304.222 847.852L319.433 776.165C322.738 754.336 315.451 732.215 299.997 717.164L248.448 671.437C233.8 658.457 237.18 647.542 256.053 646.952L326.757 645.182C346.772 643.789 363.957 629.765 370.138 609.781L390.701 531.603C395.771 512.723 405.349 512.428 412.11 531.603L440.279 609.19C448.761 628.832 466.797 642.065 487.321 643.706H559.433C578.307 643.706 582.25 654.917 568.448 667.897L514.645 717.459C499.486 732.629 493.625 755.361 499.433 776.46L518.307 839.887C523.94 859.063 515.208 866.143 498.87 855.523L439.433 817.466C421.752 807.379 400.274 807.942 383.095 818.941L324.504 862.308Z" fill="white"/>
</svg>
