<svg width="2000" height="1417" viewBox="0 0 2000 1417" fill="none" xmlns="http://www.w3.org/2000/svg">
<path d="M1982.82 220.071C1982.82 111.887 1899.08 24.1855 1795.78 24.1855H197.185C93.8842 24.1855 10.1426 111.887 10.1426 220.071V255.177H1981.97L1982.82 220.071Z" fill="#4658A9"/>
<path d="M1982.83 1214.55L1982.83 1180.03H11.001V1215.14C11.001 1267.09 30.7072 1316.91 65.7844 1353.65C100.862 1390.38 148.437 1411.02 198.043 1411.02H1795.79C1845.49 1411.02 1893.15 1390.3 1928.25 1353.44C1963.34 1316.58 1982.98 1266.6 1982.83 1214.55Z" fill="#4658A9"/>
<path d="M1982.83 255.181H11.001V293.827H1982.83V255.181Z" fill="white"/>
<path d="M1982.83 1141.09H11.001V1179.73H1982.83V1141.09Z" fill="white"/>
<path d="M1982.83 293.532H11.001V1140.8H1982.83V293.532Z" fill="#EC5565"/>
<path d="M961.691 718.048C961.691 888.146 830.024 1026.04 667.606 1026.04C505.188 1026.04 373.521 888.146 373.521 718.048C373.521 547.951 505.188 410.06 667.606 410.06C830.024 410.06 961.691 547.951 961.691 718.048Z" fill="white"/>
<path d="M507.043 971.749C502.568 971.686 498.228 970.136 494.648 967.324C487.174 961.723 484.084 951.656 487.043 942.543L528.733 808.609C537.843 779.478 527.937 747.52 504.226 729.547L395.493 646.65C388.01 641.044 384.851 631.011 387.684 621.843C390.516 612.675 398.687 606.481 407.888 606.528H542.536C571.764 606.624 597.711 586.958 606.761 557.852L648.451 423.918C651.204 414.652 659.468 408.402 668.733 408.578C677.998 408.402 686.261 414.652 689.014 423.918L730.705 557.852C739.754 586.958 765.702 606.624 794.93 606.528H929.578C938.778 606.481 946.95 612.675 949.782 621.843C952.614 631.011 949.455 641.044 941.972 646.65L833.24 729.547C809.529 747.52 799.622 779.478 808.733 808.609L850.423 942.543C853.376 951.722 850.284 961.846 842.793 967.527C835.302 973.208 825.153 973.126 817.747 967.324L707.043 885.016C683.444 867.057 651.486 867.057 627.888 885.016L519.155 967.914C515.587 970.458 511.36 971.796 507.043 971.749Z" fill="#EC5565"/>
</svg>
