<svg width="2000" height="1417" viewBox="0 0 2000 1417" fill="none" xmlns="http://www.w3.org/2000/svg">
<path d="M190.139 12.3868C91.1948 12.3868 10.9844 96.3895 10.9844 200.012V1211.01C10.9844 1314.63 91.1948 1398.63 190.139 1398.63H802.815V12.0918L190.139 12.3868Z" fill="#57A863"/>
<path d="M1982.82 1211.01V200.012C1982.82 96.3894 1902.61 12.3867 1803.66 12.3867H802.816V1398.93L1802.82 1398.93C1850.53 1399.16 1896.36 1379.46 1930.14 1344.18C1963.93 1308.91 1982.89 1260.97 1982.82 1211.01Z" fill="#ED5565"/>
<path d="M802.815 1042.84C980.636 1042.84 1124.79 891.877 1124.79 705.65C1124.79 519.422 980.636 368.455 802.815 368.455C624.995 368.455 480.844 519.422 480.844 705.65C480.844 891.877 624.995 1042.84 802.815 1042.84Z" fill="#FFCE54"/>
<path d="M969.578 535.736H635.775V752.863C634.449 842.159 696.052 918.874 780.282 932.818C827.982 939.435 876.094 924.226 912.332 891.075C948.57 857.924 969.427 810.039 969.578 759.648V536.031V535.736Z" fill="#ED5565"/>
<path d="M898.306 610.66V758.164C898.306 813.397 855.553 858.172 802.813 858.172C750.074 858.172 707.32 813.397 707.32 758.164V610.66H898.306Z" fill="white"/>
<path d="M802.817 702.41C818.375 702.41 830.987 689.202 830.987 672.909C830.987 656.616 818.375 643.408 802.817 643.408C787.26 643.408 774.648 656.616 774.648 672.909C774.648 689.202 787.26 702.41 802.817 702.41Z" fill="#4758A9"/>
<path d="M802.817 826.615C818.375 826.615 830.987 813.407 830.987 797.114C830.987 780.821 818.375 767.613 802.817 767.613C787.26 767.613 774.648 780.821 774.648 797.114C774.648 813.407 787.26 826.615 802.817 826.615Z" fill="#4758A9"/>
<path d="M802.817 764.652C818.375 764.652 830.987 751.444 830.987 735.151C830.987 718.858 818.375 705.65 802.817 705.65C787.26 705.65 774.648 718.858 774.648 735.151C774.648 751.444 787.26 764.652 802.817 764.652Z" fill="#4758A9"/>
<path d="M743.661 764.359C759.219 764.359 771.83 751.151 771.83 734.858C771.83 718.565 759.219 705.357 743.661 705.357C728.104 705.357 715.492 718.565 715.492 734.858C715.492 751.151 728.104 764.359 743.661 764.359Z" fill="#4758A9"/>
<path d="M861.97 764.652C877.527 764.652 890.139 751.444 890.139 735.151C890.139 718.858 877.527 705.65 861.97 705.65C846.412 705.65 833.801 718.858 833.801 735.151C833.801 751.444 846.412 764.652 861.97 764.652Z" fill="#4758A9"/>
</svg>
