<svg width="2000" height="1417" viewBox="0 0 2000 1417" fill="none" xmlns="http://www.w3.org/2000/svg">
<path d="M1.22172e-10 200.019V465.526H2000V200.019C2000 91.834 1915.06 4.13303 1810.29 4.13303H190C139.635 4.05472 91.3072 24.658 55.667 61.4022C20.0269 98.1463 -5.71164e-05 148.015 1.22172e-10 200.019Z" fill="#ED5565"/>
<path d="M0 928.694H2000V466.416H0V928.694Z" fill="white"/>
<path d="M0 1194.49C0 1302.67 84.938 1390.37 189.714 1390.37H1810.29C1915.06 1390.37 2000 1302.67 2000 1194.49V928.98H0V1194.49Z" fill="#4A89DC"/>
<path d="M1000.29 844.618C1079.18 844.618 1143.14 778.578 1143.14 697.114C1143.14 615.649 1079.18 549.609 1000.29 549.609C921.389 549.609 857.43 615.649 857.43 697.114C857.43 778.578 921.389 844.618 1000.29 844.618Z" fill="white" stroke="#ED5565" stroke-width="2" stroke-linejoin="round"/>
</svg>
