<svg width="2000" height="1417" viewBox="0 0 2000 1417" fill="none" xmlns="http://www.w3.org/2000/svg">
<path d="M63.6894 1361.46L584.534 952.281C586.274 950.718 588.281 949.516 590.45 948.741C608.196 932.515 628.196 919.24 646.788 903.605C725.098 842.243 803.126 780.586 881.718 719.224V715.979C785.098 640.752 689.323 564.64 592.704 489.413L591.013 486.463C582.898 481.771 575.254 476.236 568.196 469.942L233.83 207.385L64.8162 73.7461C24.431 111.064 1.42437 164.846 1.71761 221.25V1216.02C1.70389 1271.52 24.238 1324.4 63.6894 1361.46Z" fill="#EC5565"/>
<path d="M567.89 469.939C574.948 476.233 582.592 481.767 590.707 486.46H1970.99V220.952C1970.99 112.767 1887.25 25.0666 1783.95 25.0666H187.326C141.64 25.0077 97.5269 42.5421 63.3828 74.3329L232.397 207.972L567.89 469.939Z" fill="#434A54"/>
<path d="M591.55 489.405C688.17 564.632 783.945 640.745 880.565 715.972V719.217C802.255 780.283 723.945 842.235 645.635 903.597C627.043 918.937 607.043 933.098 589.297 948.733H1969.58V486.16H591.55V489.405Z" fill="white"/>
<path d="M584.509 952.276L63.6641 1361.45C97.7356 1393.18 141.736 1410.71 187.326 1410.72H1785.07C1888.37 1410.72 1972.11 1323.02 1972.11 1214.83V949.326H591.551C589.031 949.775 586.63 950.781 584.509 952.276Z" fill="#55A963"/>
</svg>
