<svg width="2000" height="1417" viewBox="0 0 2000 1417" fill="none" xmlns="http://www.w3.org/2000/svg">
<g clip-path="url(#clip0)">
<path d="M0 0H2000V1416.04H0V0Z" fill="#CE1126"/>
<path d="M0 354.01H2000V1062.03H0V354.01Z" fill="white"/>
<path d="M875.498 672.577V652.143L924.167 674.065L875.498 672.577Z" fill="#FF9C10"/>
<path d="M875.498 641.925V607.873C875.498 607.873 869.818 608.722 870.63 601.911C870.898 587.722 906.249 627.809 924.368 640.864L923.965 668.108L875.498 641.925Z" fill="#FF9C10"/>
<path d="M816.264 757.725V690.465L699.459 684.543L714.064 756.889L816.264 757.725Z" fill="#FF9C10"/>
<path d="M817.884 675.133L817.075 627.456L710.815 583.184L709.189 664.065L817.884 675.133Z" fill="#FF9C10"/>
<path d="M814.644 611.306L826.574 598.233C826.574 598.233 818.891 592.677 819.271 587.564C819.416 582.393 827 581.609 827.145 575.996C827.284 570.825 818.553 570.203 818.459 565.029C817.889 559.422 825.189 553.41 825.189 553.41L749.753 484.448L731.094 568.738L814.644 611.306Z" fill="#FF9C10"/>
<path d="M1171.55 757.722L1170.74 692.168L1289.16 682.802L1279.42 757.723L1171.55 757.722Z" fill="#FF9C10"/>
<path d="M1282.06 663.035C1280.7 652.393 1279.27 641.777 1276.95 631.34C1273.84 617.367 1269.87 603.62 1265.05 590.224C1264.7 589.235 1264.16 588.328 1263.8 587.343L1171.55 628.345L1172.39 676.887L1282.06 663.035Z" fill="#FF9C10"/>
<path d="M1219.02 505.437C1200.62 520.213 1182.22 534.989 1163.82 549.766C1163.91 554.007 1167.89 557.268 1168.99 561.328C1171.54 567.024 1166.47 572.06 1163.34 576.085C1160.8 579.798 1166.27 581.691 1168.09 583.885C1172.1 588.253 1168.61 595.098 1164.34 597.64C1169.48 600.907 1172.08 607.021 1173.21 613.044C1200.76 597.825 1228.31 582.605 1255.85 567.385C1245.97 545.272 1233.64 524.36 1219.02 505.437Z" fill="#FF9C10"/>
<path d="M1111.55 673.429L1112.36 653.841L1065.31 675.555L1111.55 673.429Z" fill="#FF9C10"/>
<path d="M1065.08 642.783C1065.08 642.783 1108.88 601.281 1118.21 593.617C1118.21 602.132 1113.14 608.726 1113.14 608.726V641.08L1065.28 664.917L1065.08 642.783Z" fill="#FF9C10"/>
<path d="M781.416 478.486L830.562 535.723C831.918 530.38 843.063 529.568 854.417 530.42C865.776 531.269 874.828 529.622 874.828 538.136C874.828 546.648 869.066 545.439 869.066 551.4C869.066 557.362 877.7 556.861 877.7 564.515C877.7 572.178 871.439 570.614 871.407 576.547C871.387 581.452 877.938 581.713 877.938 581.713L923.969 628.542L924.17 578.521L829.27 422.299L781.416 478.486Z" fill="#FF9C10"/>
<path d="M857.35 419.333L921.629 557.306C921.629 557.306 922.35 429.947 933.184 423.124L915.13 388.25L857.35 419.333Z" fill="#FF9C10"/>
<path d="M1064.81 404.686C1056.81 434.053 1048.81 463.42 1040.81 492.79C1048.29 493.736 1055.85 493.991 1063.37 493.549C1070.13 494.165 1064.87 500.897 1065.23 504.88C1065.19 522.941 1065.16 541.003 1065.13 559.061C1087.74 516.654 1110.35 474.243 1132.95 431.836C1117.36 423.192 1100.81 416.771 1084.15 410.894C1077.79 408.513 1071.34 406.45 1064.81 404.686V404.686Z" fill="#FF9C10"/>
<path d="M1149.23 441.497L1065.33 578.474L1065.23 631.225C1083.91 612.35 1102.68 593.574 1121.3 574.637C1124.84 569.322 1110.09 566.719 1117.46 560.243C1124.14 558.005 1125.27 546.544 1118.24 544.341C1112.44 535.303 1123.48 530.514 1130.44 531.503C1140.12 531.973 1150.1 529.264 1159.57 532.121C1164.79 537.416 1169.59 524.123 1174.7 521.131C1184.82 510.323 1194.95 499.526 1204.95 488.598C1188.47 470.35 1169.65 454.501 1149.23 441.497V441.497Z" fill="#FF9C10"/>
<path d="M932.815 973.338C912.186 974.575 891.63 989.359 881.996 997.275C899.294 1005.32 917.759 1011.59 937.407 1015.89C968.711 1021.48 1000.02 1021.43 1031.32 1021.43C1036.43 1020.75 1041.49 1019.98 1046.45 1019.11L1112.4 995.502C1112.4 995.502 1080.68 973.262 1055.53 974.224C1030.38 975.187 1013.41 1001.31 993.128 999.381C972.851 997.453 964.729 973.338 935.527 973.338C934.615 973.338 933.728 973.283 932.815 973.338Z" fill="#083D9C" stroke="#083D9C" stroke-width="2.057"/>
<path d="M1187.8 956.957C1187.8 956.957 1155.35 920.349 1117.23 919.498C1079.1 918.64 1089.65 936.524 1060.45 939.074C1031.25 941.63 1023.94 920.347 997.178 921.196C970.414 922.045 954.997 939.074 934.725 939.929C914.447 940.778 888.49 918.64 873.076 919.497C857.664 920.346 802.506 945.035 802.506 945.035L813.038 955.253L1187.8 956.957Z" fill="#083D9C" stroke="#083D9C" stroke-width="1.932"/>
<path d="M765.188 908.406L1227.53 910.113C1234.83 899.045 1204.82 872.653 1177.24 870.096C1154.53 870.945 1138.31 894.785 1119.65 895.64C1101 896.489 1079.91 870.945 1058.82 871.803C1037.73 872.652 1015.83 895.64 994.737 895.64C973.65 895.64 958.237 870.945 931.473 870.945C904.707 870.945 892.538 898.19 872.259 896.489C851.976 894.785 834.132 869.247 814.668 869.247C795.202 869.247 762.757 899.895 756.269 898.191C749.78 896.489 765.188 908.406 765.188 908.406V908.406Z" fill="#083D9C" stroke="#083D9C" stroke-width="1.932"/>
<path d="M943.934 861.453L1047.14 861.389C1047.14 861.389 1024.03 823.975 995.554 826.554C963.826 827.426 943.934 861.453 943.934 861.453Z" fill="#083D9C" stroke="#083D9C" stroke-width="1.932"/>
<path d="M1273.05 858.829H1131.82C1131.82 858.829 1150.1 847.491 1155.08 837.028C1164.22 842.261 1161.72 847.491 1180 848.363C1198.28 849.235 1215.72 826.568 1233.17 827.44C1250.62 828.311 1273.05 858.829 1273.05 858.829V858.829Z" fill="#083D9C" stroke="#083D9C" stroke-width="1.932"/>
<path d="M716.502 858.829H857.73C857.73 858.829 839.451 847.491 834.468 837.028C825.332 842.261 827.824 847.491 809.545 848.363C791.274 849.235 773.825 826.568 756.375 827.44C738.931 828.311 716.502 858.829 716.502 858.829V858.829Z" fill="#083D9C" stroke="#083D9C" stroke-width="1.932"/>
<path d="M827.634 813.079C827.634 813.079 821.145 798.608 820.336 780.73C794.373 771.369 773.287 801.162 754.631 802.014C735.979 802.863 716.514 780.73 716.514 780.73L727.055 812.23L827.634 813.079Z" fill="#083D9C" stroke="#083D9C" stroke-width="1.932"/>
<path d="M1264.03 812.23L1163.45 813.079C1163.45 813.079 1169.94 798.608 1170.75 780.73C1196.71 771.369 1217.79 801.162 1236.45 802.014C1255.11 802.863 1274.57 780.73 1274.57 780.73L1264.03 812.23Z" fill="#083D9C" stroke="#083D9C" stroke-width="1.932"/>
<path d="M969.58 813.081L1020.68 813.109C1020.68 813.109 1021.49 795.205 994.721 795.205C967.955 795.205 969.58 813.081 969.58 813.081V813.081Z" fill="#083D9C" stroke="#083D9C" stroke-width="1.932"/>
<path d="M942.799 638.529L1049.06 668.33V509.118C1000.39 511.674 959.839 412.063 1045.82 405.254C961.46 392.482 951.723 415.47 941.992 440.159L942.801 638.529H942.799Z" fill="#CE1126" stroke="#630810" stroke-width="1.9319" stroke-linejoin="round"/>
<path d="M966.407 782.44C943.295 822.62 881.508 810.703 867.059 782.654C862.73 781.366 865.291 609.593 865.291 609.593C865.291 609.593 858.387 606.292 858.068 601.011C857.752 595.677 867.456 595.193 867.456 588.366C867.456 581.544 857.546 584.218 857.348 577.351C857.39 570.785 867.927 571.69 867.456 565.622C866.899 558.784 855.654 559.796 855.178 553.491C854.813 548.483 863.22 544.116 865.556 541.864L857.707 541.743L840.009 542.123C827.436 542.137 840.226 544.999 840.042 552.614C839.927 557.589 833.666 560.898 833.106 565.223C832.908 569.663 842.065 572.782 842.18 578.111C842.285 582.865 833.184 583.189 833.511 587.607C834.076 595.084 841.572 596.728 841.459 601.256C841.344 605.777 831.372 607.501 831.346 611.109C831.694 618.088 832.79 787.74 832.79 787.74C848.679 874.164 940.405 896.151 966.407 782.44V782.44Z" fill="#CE1126" stroke="#630810" stroke-width="1.9319" stroke-linejoin="round"/>
<path d="M1026.88 782.439C1049.99 822.619 1111.77 810.703 1126.22 782.653C1130.55 781.365 1127.99 609.593 1127.99 609.593C1127.99 609.593 1134.9 606.292 1135.21 601.011C1135.53 595.676 1126.43 595.193 1126.43 588.365C1126.43 581.544 1135.74 584.217 1135.93 577.351C1135.89 570.785 1126.17 571.266 1126.64 565.195C1127.19 558.359 1134.83 559.157 1135.27 552.853C1135.63 547.423 1130.47 544.116 1128.13 541.864L1135.58 541.743L1153.27 542.123C1165.85 542.137 1153.06 544.999 1153.24 552.614C1153.36 557.589 1159.62 560.898 1160.18 565.223C1160.38 569.663 1151.22 572.782 1151.1 578.11C1151 582.865 1160.1 583.189 1159.77 587.606C1159.21 595.084 1151.71 596.728 1151.83 601.256C1151.94 605.777 1161.91 607.501 1161.94 611.109C1161.59 618.088 1160.5 787.74 1160.5 787.74C1144.6 874.164 1052.88 896.151 1026.88 782.439V782.439Z" fill="#CE1126" stroke="#630810" stroke-width="1.9319" stroke-linejoin="round"/>
<path d="M938.757 790.064C947.681 784.952 955.791 779.848 961.47 767.926L926.589 768.775C926.589 768.775 910.373 778.997 902.258 790.064L938.757 790.064Z" fill="#630810" stroke="#630810" stroke-width="2.7916" stroke-linecap="round"/>
<path d="M1051.49 790.064C1042.57 784.952 1034.46 779.848 1028.78 767.926L1063.66 768.775C1063.66 768.775 1079.88 778.997 1087.99 790.064L1051.49 790.064Z" fill="#630810" stroke="#630810" stroke-width="2.7916" stroke-linecap="round"/>
<path d="M875.48 754.315L1115.58 755.165Z" fill="#630810"/>
<path d="M875.48 754.315L1115.58 755.165" stroke="#630810" stroke-width="2.7916" stroke-linecap="round"/>
<path d="M886.834 693.888L915.225 733.904Z" fill="#630810"/>
<path d="M886.834 693.888L915.225 733.904" stroke="#630810" stroke-width="2.7916" stroke-linecap="round"/>
<path d="M886.834 733.891L917.66 694.729Z" fill="#630810"/>
<path d="M886.834 733.891L917.66 694.729" stroke="#630810" stroke-width="2.7916" stroke-linecap="round"/>
<path d="M903.064 691.299L902.254 715.987Z" fill="#630810"/>
<path d="M903.064 691.299L902.254 715.987" stroke="#630810" stroke-width="2.7916" stroke-linecap="round"/>
</g>
<defs>
<clipPath id="clip0">
<rect width="2000" height="1416.04" rx="186" fill="white"/>
</clipPath>
</defs>
</svg>
