<svg width="2000" height="1417" viewBox="0 0 2000 1417" fill="none" xmlns="http://www.w3.org/2000/svg">
<path d="M1792.96 12.3867H179.44C80.4955 12.3867 0.285156 96.3894 0.285156 200.012V1211.3C0.285156 1314.92 80.4955 1398.93 179.44 1398.93H1792.96C1891.91 1398.93 1972.12 1314.92 1972.12 1211.3V200.012C1972.12 96.3894 1891.91 12.3867 1792.96 12.3867Z" fill="#A54577"/>
<path d="M511.271 300.315L647.891 165.201L507.046 26.2521V12.3867H179.44C80.4955 12.3867 0.285156 96.3894 0.285156 200.012V1211.01C0.285156 1314.63 80.4955 1398.63 179.44 1398.63H507.046V1384.77L647.891 1245.82L510.989 1110.7L647.891 975.589L510.989 840.475L647.891 705.361L510.989 570.247L647.891 435.134L511.271 300.315Z" fill="white"/>
</svg>
