<svg width="2000" height="1417" viewBox="0 0 2000 1417" fill="none" xmlns="http://www.w3.org/2000/svg">
<path d="M197.186 12.3868C98.2416 12.3868 18.0312 96.3895 18.0312 200.012V1211.01C18.0312 1314.63 98.2416 1398.63 197.186 1398.63H676.059C676.059 936.451 676.059 474.272 676.059 12.0918L197.186 12.3868Z" fill="#4A89DC"/>
<path d="M676.059 12.3867C676.059 474.566 676.059 936.746 676.059 1398.93H1333.8C1333.8 936.746 1333.8 474.566 1333.8 12.3867H676.059Z" fill="#FFCE54"/>
<path d="M1810.42 12.3867H1332.96C1332.96 474.566 1332.96 936.746 1332.96 1398.93H1810.42C1909.37 1398.93 1989.58 1314.92 1989.58 1211.3V200.307C1989.65 150.495 1970.81 102.696 1937.2 67.4452C1903.6 32.1948 1857.99 12.3867 1810.42 12.3867Z" fill="#ED5565"/>
</svg>
