<svg width="2000" height="1417" viewBox="0 0 2000 1417" fill="none" xmlns="http://www.w3.org/2000/svg">
<path d="M1817.19 11.7988H203.667C104.722 11.7988 24.5117 95.8015 24.5117 199.424V1210.71C24.5117 1314.34 104.722 1398.34 203.667 1398.34H1817.19C1916.13 1398.34 1996.34 1314.34 1996.34 1210.71V199.424C1996.34 95.8015 1916.13 11.7988 1817.19 11.7988Z" fill="#3BAFDA"/>
<path d="M24.5083 1209.54C24.5083 1259.3 43.3835 1307.02 76.9815 1342.21C110.58 1377.4 156.148 1397.16 203.663 1397.16H1816.9C1864.42 1397.16 1909.99 1377.4 1943.58 1342.21C1977.18 1307.02 1996.06 1259.3 1996.06 1209.54V1132.84H24.2266L24.5083 1209.54Z" fill="#57A863"/>
<path d="M1686.48 483.817C1748.71 483.817 1799.15 430.985 1799.15 365.814C1799.15 300.642 1748.71 247.811 1686.48 247.811C1624.25 247.811 1573.8 300.642 1573.8 365.814C1573.8 430.985 1624.25 483.817 1686.48 483.817Z" fill="#FFCE54"/>
<path d="M1996.34 660.812H24.5117V1132.83H1996.34V660.812Z" fill="#FFCE54"/>
</svg>
