<svg width="2000" height="1417" viewBox="0 0 2000 1417" fill="none" xmlns="http://www.w3.org/2000/svg">
<path d="M1792.96 28.9072H179.44C80.4955 28.9072 0.285156 112.91 0.285156 216.533V1227.82C0.285156 1331.44 80.4955 1415.45 179.44 1415.45H1792.96C1891.91 1415.45 1972.12 1331.44 1972.12 1227.82V216.533C1972.12 112.91 1891.91 28.9072 1792.96 28.9072Z" fill="#57A863"/>
<path d="M281.688 1032.52H1718.31C1718.31 1032.52 1692.96 1091.52 1661.97 1091.52H338.026C307.04 1091.52 281.688 1032.52 281.688 1032.52Z" fill="white"/>
<path d="M1493.24 943.428H1436.9V1179.43H1493.24V943.428Z" fill="white"/>
<path d="M264.223 392.357C260.843 440.739 256.618 526.291 295.773 534.846C342.815 539.566 316.899 450.474 333.801 434.248C336.899 426.283 343.097 426.283 343.378 436.313V511.836C342.674 529.267 353.914 544.756 370.139 548.712C380.322 544.903 391.552 550.261 395.491 560.807C397.369 604.468 399.341 648.031 401.407 691.496C404.505 756.987 429.576 700.346 431.547 618.039C431.547 569.657 422.533 529.536 428.449 519.801C428.449 510.656 439.716 510.065 447.604 514.491C456.164 526.514 470.342 532.634 484.505 530.421C512.674 521.866 530.984 506.82 531.547 483.22C530.781 460.083 526.306 437.245 518.308 415.663C518.308 411.533 512.674 400.912 514.083 396.782C519.435 405.338 527.322 404.747 529.012 396.782C525.839 380.314 516.895 365.686 503.942 355.776C498.924 350.333 491.289 348.552 484.54 351.25C477.791 353.949 473.232 360.606 472.956 368.166C472.185 394.651 480.59 420.532 496.618 441.034C501.559 452.387 503.598 464.892 502.533 477.32C494.494 482.038 484.359 479.764 478.871 472.009C470.233 465.673 462.461 458.129 455.773 449.589C461.583 430.265 460.887 409.438 453.801 390.587C451.101 378.897 445.9 368.002 438.59 358.726C436.666 355.634 433.381 353.77 429.857 353.77C426.334 353.77 423.048 355.634 421.125 358.726C412.909 383.904 413.609 411.336 423.097 436.018C428.156 444.218 431.426 453.485 432.674 463.159C429.576 472.599 422.815 470.239 418.026 459.619C412.358 436.494 409.611 412.69 409.857 388.817C407.885 370.232 405.632 329.815 393.801 320.375C391.132 316.428 386.514 314.468 381.975 315.356C377.435 316.243 373.804 319.816 372.674 324.505C371.298 342.472 371.298 360.525 372.674 378.492C379.502 407.091 384.303 436.179 387.04 465.519C387.04 506.525 364.505 483.22 365.632 462.864C370.93 437.001 370.93 410.255 365.632 384.392C364.612 376.658 357.808 371.247 350.421 372.297H348.167C328.584 384.895 316.641 407.229 316.618 431.298C313.851 442.968 311.688 454.785 310.139 466.699C307.604 485.58 295.773 498.855 287.604 464.044C281.688 439.853 276.336 377.902 264.223 392.357ZM392.111 591.193C350.702 612.728 310.421 632.789 269.576 653.44C270.984 623.939 327.885 570.837 366.759 570.247C392.111 570.247 385.632 580.572 392.392 591.193H392.111ZM273.801 715.981C250.702 754.922 248.73 812.744 261.407 830.15C268.015 837.779 277.946 841.245 287.604 839.295C301.572 827.57 308.277 808.768 305.068 790.323C300.28 782.358 296.336 781.178 291.547 787.963C281.407 809.794 277.181 794.749 276.336 782.653C275.141 762.153 276.086 741.577 279.153 721.291C281.688 703.886 279.153 709.196 273.801 716.276V715.981ZM1259.72 653.735C1237.46 602.993 1206.48 552.842 1196.62 533.666C1186.76 514.491 1112.11 400.617 1101.97 387.637C1077.74 358.136 1141.12 400.322 1093.8 340.141L1060 310.64C1052.39 305.035 1034.08 294.709 1031.83 310.64C1030.22 322.543 1030.8 334.657 1033.52 346.336C1038.41 357.074 1044.77 367.011 1052.39 375.837C1131.14 485.97 1200.15 603.375 1258.59 726.602C1268.73 721.586 1266.48 661.11 1260.56 652.555L1259.72 653.735ZM1161.97 823.659C1162.47 831.546 1165.98 838.891 1171.7 844.049C1177.41 849.207 1184.87 851.745 1192.39 851.095C1225.35 846.965 1254.65 827.494 1281.41 775.868C1292.59 758.19 1299.55 737.953 1301.69 716.866C1305.04 618.563 1297.67 520.18 1279.72 423.628C1278.28 416.926 1278.28 409.975 1279.72 403.272C1284.63 402.281 1289.2 399.94 1292.96 396.487C1298.59 390.292 1278.03 339.846 1264.79 320.375C1260.56 311.525 1259.15 305.92 1252.11 320.375C1243.74 337.399 1239.76 356.414 1240.56 375.542C1256.34 490.89 1261.12 592.078 1271.55 707.426C1273.28 719.381 1270.44 731.567 1263.66 741.352C1234.81 775.487 1199.39 802.835 1159.72 821.594L1161.97 823.659ZM1608.17 823.659C1584.51 838.115 1584.51 854.93 1603.66 855.52C1636.62 851.39 1675.77 848.44 1702.53 805.664C1712.03 785.482 1717.59 763.517 1718.87 741.057C1723.26 644.174 1717.12 547.083 1700.56 451.654C1698.71 441.933 1697.67 432.062 1697.46 422.153C1699.72 416.253 1710.42 422.153 1714.36 416.253C1718.31 410.353 1686.2 364.626 1674.65 345.156C1670.42 336.306 1669.01 330.7 1661.97 345.156C1654.11 362.306 1651.74 381.65 1655.21 400.322C1672.82 509.729 1683.92 620.177 1688.45 731.027C1687.35 741.083 1685.18 750.979 1681.97 760.528C1672.51 775.111 1661.55 788.565 1649.29 800.649C1638.59 808.909 1615.77 817.169 1608.17 823.364V823.659ZM1625.91 711.261C1625.91 681.76 1625.91 656.685 1625.91 634.854C1625.7 615.832 1621.77 597.057 1614.36 579.687C1610.67 564.044 1608.68 548.01 1608.45 531.896C1605.35 514.196 1606.2 487.645 1601.41 466.699C1599.05 454.448 1597.64 442.017 1597.18 429.528C1599.15 423.628 1606.76 429.528 1610.42 423.038C1614.08 416.548 1591.27 350.171 1578.87 330.995C1574.65 322.44 1566.48 325.39 1556.62 339.256C1548.86 354.707 1548.04 372.962 1554.36 389.112C1580.17 511.943 1592.74 637.418 1591.83 763.183C1591.83 773.803 1626.76 731.617 1626.48 711.556L1625.91 711.261ZM1450.7 549.007C1427.1 540.275 1407.16 523.155 1394.36 500.625C1391.6 492.054 1392.31 482.67 1396.34 474.664C1401.9 469.556 1409.7 468.08 1416.62 470.829C1419.07 474.066 1420.88 477.775 1421.97 481.745C1430.14 485.875 1433.52 483.515 1434.36 479.975C1435.21 476.435 1431.83 470.239 1431.83 463.454C1432.45 456.076 1437.32 449.85 1444.11 447.763C1450.89 445.677 1458.2 448.158 1462.53 454.014C1467.81 463.944 1470.62 475.102 1470.7 486.465C1470.7 491.775 1462.81 486.465 1458.31 486.465C1454.15 488.719 1451.7 493.38 1452.11 498.265C1452.11 511.54 1449.86 532.781 1449.58 549.007H1450.7ZM1175.49 744.007C1177.3 699.266 1176.74 654.454 1173.8 609.778C1172.11 554.317 1163.66 446.934 1159.43 428.938C1154.93 395.307 1172.67 432.773 1170.14 413.008C1162.25 380.273 1147.1 349.949 1125.91 324.505C1119.43 314.475 1119.43 312.41 1109.29 326.865C1101.88 348.817 1101.88 372.766 1109.29 394.717C1123.62 459.627 1133.04 525.618 1137.46 592.078C1141.98 658.255 1142.55 724.663 1139.15 790.913C1158.85 783.391 1172.66 764.682 1174.65 742.827L1175.49 744.007ZM1675.77 678.515C1649.58 631.904 1609.86 581.162 1599.15 562.577C1588.45 543.991 1499.15 421.268 1486.48 409.173C1453.8 372.592 1501.41 403.272 1480.28 374.952C1468.74 360.152 1455.71 346.7 1441.41 334.831C1433.8 329.52 1429.01 319.49 1426.48 336.601C1425.66 351.732 1425.66 366.9 1426.48 382.032C1428.25 392.885 1432.72 403.058 1439.43 411.533C1527.78 517.729 1606.79 632.067 1675.49 753.152C1685.35 747.547 1682.25 687.956 1675.49 679.695L1675.77 678.515ZM689.857 544.286L687.04 563.167C686.186 566.168 683.551 568.225 680.561 568.225C677.572 568.225 674.937 566.168 674.083 563.167C669.012 538.976 648.449 536.026 635.773 573.197C627.322 580.277 612.111 581.753 610.421 571.132C612.392 546.057 602.815 541.631 583.66 554.612C577.463 505.05 571.266 457.554 565.068 407.108C572.596 410.635 581.396 409.253 587.604 403.567C579.716 377.312 562.815 323.62 553.519 319.785C549.012 313.885 545.068 317.72 539.153 319.785C527.084 323.506 519.906 336.467 522.815 349.286C534.646 425.398 542.533 483.515 554.083 559.627C555.826 568.335 550.548 576.889 542.252 578.802H539.716C524.223 567.887 520.28 545.466 494.083 546.352C472.171 549.642 454.712 567.214 450.702 590.013C446.946 606.399 446.946 623.483 450.702 639.869C461.292 653.284 478.973 657.944 494.364 651.374C501.961 645.069 510.537 640.179 519.716 636.919C522.533 640.459 519.716 680.875 465.069 712.146C431.547 728.077 405.069 731.617 390.702 702.706C381.688 684.71 390.702 615.973 369.576 631.904C305.069 808.909 520.843 832.805 545.069 638.984C547.322 631.019 556.336 623.054 558.026 636.034C552.956 811.269 390.984 823.364 363.378 768.198C356.889 749.276 353.647 729.301 353.801 709.196C349.576 674.68 332.674 687.955 329.857 722.176C327.846 736.331 327.186 750.661 327.885 764.953C336.618 903.312 545.35 844.015 579.153 729.552C597.181 666.125 576.336 619.514 585.914 619.809C601.968 634.542 626.363 632.962 640.561 616.268V614.793C641.936 612.633 644.079 611.137 646.512 610.638C648.945 610.139 651.468 610.68 653.519 612.138H654.928C663.231 618.351 673.785 620.265 683.6 617.336C693.414 614.408 701.42 606.956 705.35 597.093C709.028 575.35 711.286 553.37 712.111 531.306C703.639 532.94 696.082 537.899 690.984 545.171L689.857 544.286ZM498.59 608.893C495.06 610.908 490.929 611.436 487.04 610.368C482.982 610.703 479.079 608.659 476.9 605.058C476.813 600.33 478.538 595.761 481.688 592.373C484.237 589.164 488.215 587.604 492.15 588.27C496.085 588.937 499.39 591.731 500.843 595.618C502.393 600.148 501.535 605.2 498.59 608.893ZM734.646 351.646C710.702 423.923 748.449 503.28 774.364 495.61C793.238 503.87 805.069 466.109 812.956 424.513C818.308 413.008 822.252 411.533 824.787 417.728C824.787 472.894 828.449 485.285 841.97 502.1C858.105 516.861 882.173 516.861 898.308 502.1L921.688 477.32C927.129 471.888 935.684 471.888 941.125 477.32C946.025 487.989 953.382 497.214 962.533 504.165C978.662 509.903 996.496 505.942 1009.01 493.84C1017.74 478.205 1019.72 472.894 1023.66 466.994C1026.69 461.888 1033.03 460.196 1038.03 463.159L1040.28 464.929C1036.5 470.148 1035.34 476.956 1037.18 483.22C1040.94 486.784 1046.66 486.784 1050.42 483.22C1063.51 472.068 1073.29 457.225 1078.59 440.444C1078.59 427.463 1072.39 428.643 1067.89 431.298C1063.38 433.953 1061.69 436.313 1055.77 440.148C1046.21 444.381 1035.16 442.299 1027.6 434.838C1022.58 419.152 1018.35 403.199 1014.93 387.047C1014.93 387.047 1005.07 364.626 1014.93 363.446C1019.43 363.446 1029.29 366.986 1030.7 358.431C1029.73 341.469 1022.45 325.581 1010.42 314.18C1002.55 304.353 988.575 303.034 979.153 311.23L977.181 313.295C971.414 320.47 968.314 329.583 968.449 338.961C965.764 351.217 968.679 364.085 976.336 373.772C990.164 394.401 996.643 419.456 994.646 444.574C989.234 452.969 980.088 457.87 970.421 457.554C964.223 457.554 953.801 453.129 948.167 409.763C943.942 377.017 948.167 330.995 936.054 309.46C931.266 296.479 927.604 283.794 916.054 306.215C906.041 320.404 903.501 338.912 909.294 355.481C930.786 385.137 928.017 426.871 902.815 453.129C895.565 461.315 883.87 463.152 874.646 457.554C864.967 452.449 858.4 442.576 857.181 431.298C859.313 402.957 858.368 374.454 854.364 346.336C852.668 341.337 848.583 337.643 843.613 336.614C838.644 335.585 833.524 337.373 830.139 341.321C807.301 368.29 792.085 401.387 786.195 436.903C779.435 460.209 772.111 453.424 767.04 443.984C754.646 431.593 753.801 335.716 738.871 351.351L734.646 351.646ZM439.716 351.646C455.773 359.906 486.195 356.366 484.787 328.93C484.787 326.57 484.787 318.31 484.787 315.95C481.406 307.985 472.392 309.755 470.421 318.31C471.344 321.08 471.344 324.095 470.421 326.865C470.421 326.865 463.942 326.865 464.223 319.785C463.881 317.389 462.905 315.141 461.407 313.295C460.313 312.89 459.12 312.89 458.026 313.295C456.445 313.243 455.041 314.346 454.646 315.95C454.399 318.007 454.399 320.088 454.646 322.145C454.677 323.765 453.8 325.254 452.405 325.953C451.009 326.652 449.352 326.432 448.167 325.39C446.952 324.619 446.126 323.322 445.914 321.85C446.251 319.602 446.251 317.313 445.914 315.065C444.884 313.844 443.497 313.014 441.97 312.705C439.018 313.211 436.379 314.926 434.635 317.472C432.892 320.017 432.186 323.184 432.674 326.275C431.297 336.171 435.599 345.99 443.66 351.351L439.716 351.646ZM912.956 563.462C929.012 571.722 967.322 567.002 958.026 540.746C958.026 538.386 958.026 530.126 958.026 527.766C954.928 519.801 945.914 521.571 943.66 530.126C944.71 532.872 944.71 535.936 943.66 538.681C943.66 538.681 937.181 538.681 937.463 531.601C937.151 529.195 936.172 526.939 934.646 525.111C933.557 524.681 932.355 524.681 931.266 525.111C929.012 525.111 929.012 525.111 927.885 527.766C927.608 529.821 927.608 531.906 927.885 533.961C928.047 534.948 927.802 535.96 927.212 536.747C926.621 537.534 925.74 538.022 924.787 538.091C923.727 538.668 922.466 538.668 921.406 538.091C920.24 537.267 919.431 535.996 919.153 534.551C919.618 532.316 919.618 530.001 919.153 527.766C918.153 526.507 916.753 525.668 915.209 525.406C912.332 525.911 909.764 527.595 908.073 530.085C906.382 532.576 905.706 535.669 906.195 538.681C904.609 548.536 908.83 558.423 916.899 563.757L912.956 563.462ZM1188.73 474.959C1204.79 483.22 1235.21 479.68 1233.8 452.244C1233.8 449.884 1233.8 441.624 1233.8 439.263C1230.7 431.298 1221.69 433.068 1219.72 441.624C1220.64 444.393 1220.64 447.409 1219.72 450.179C1219.72 450.179 1213.24 450.179 1213.52 443.099C1213.22 440.688 1212.24 438.426 1210.7 436.608C1209.62 436.116 1208.4 436.116 1207.32 436.608C1205.74 436.556 1204.34 437.659 1203.94 439.263C1203.67 441.319 1203.67 443.404 1203.94 445.459C1204.1 446.445 1203.86 447.457 1203.27 448.244C1202.68 449.031 1201.8 449.52 1200.84 449.589C1199.78 450.166 1198.52 450.166 1197.46 449.589C1196.3 448.765 1195.49 447.493 1195.21 446.049C1195.53 443.799 1195.53 441.513 1195.21 439.263C1194.13 438.115 1192.76 437.298 1191.27 436.903C1185.29 437.816 1181.13 443.616 1181.97 449.884V451.654C1180.59 461.549 1184.9 471.369 1192.96 476.73L1188.73 474.959ZM1331.55 695.036C1311.98 724.712 1308.46 762.881 1322.25 795.929C1328.6 813.813 1340.9 828.692 1356.9 837.82C1361.63 842.422 1367.92 844.855 1374.38 844.578C1380.83 844.301 1386.91 841.337 1391.27 836.345L1393.24 833.69C1409.86 815.694 1410.14 769.378 1417.74 760.233C1418.85 754.34 1423.13 749.665 1428.71 748.268C1434.29 746.871 1440.13 749.011 1443.66 753.742C1449.66 762.813 1457.68 770.207 1467.04 775.278C1481 790.15 1503.35 791.795 1519.15 779.113C1532.5 771.358 1542.56 758.609 1547.32 743.417C1555.49 720.701 1550.98 615.088 1549.29 552.547C1549.29 547.532 1533.24 466.699 1533.24 465.814C1533.24 464.929 1531.27 424.513 1529.58 414.778C1529.58 410.943 1529.58 409.763 1532.11 410.353C1534.23 412.487 1536.72 414.187 1539.43 415.368C1543.66 415.368 1547.32 408.583 1544.79 401.797L1506.48 326.57C1503.38 323.325 1499.15 319.785 1494.36 326.57C1488.21 332.23 1484.72 340.415 1484.79 348.991C1484.79 366.691 1489.01 384.982 1490.14 402.682L1505.35 494.135C1510.42 559.332 1511.55 612.138 1516.34 677.925C1518.08 697.855 1512.21 717.697 1500 733.092C1494.12 737.216 1486.44 737.216 1480.56 733.092C1469.91 720.845 1460.48 707.501 1452.39 693.266C1449.26 688.322 1443.97 685.349 1438.31 685.349C1432.64 685.349 1427.35 688.322 1424.22 693.266C1401.69 716.571 1391.27 759.643 1376.05 789.733C1372.92 794.677 1367.63 797.65 1361.97 797.65C1356.3 797.65 1351.02 794.677 1347.89 789.733C1331.66 761.61 1325.66 728.303 1330.98 695.921L1331.55 695.036ZM1196.05 315.065C1211.6 327.315 1219.67 347.367 1217.18 367.576C1214.36 386.457 1206.76 406.518 1201.12 403.862C1195.49 401.207 1205.35 385.277 1199.43 368.166C1191.65 356.209 1184.68 343.689 1178.59 330.7C1177.57 325.846 1179.16 320.796 1182.74 317.536C1186.33 314.275 1191.33 313.328 1195.77 315.065H1196.05ZM1380.28 715.981C1381.62 688.708 1380.67 661.365 1377.46 634.264C1377.46 612.433 1354.08 445.459 1349.29 427.758C1343.66 396.487 1370.98 423.628 1367.89 405.338C1358.59 382.327 1334.93 348.991 1327.6 329.225C1323.1 320.67 1325.07 313 1315.21 326.865C1306.45 351.734 1303.36 378.406 1306.2 404.748C1329.86 535.731 1354.08 644.589 1350.42 769.083C1361.41 769.083 1374.36 741.942 1378.59 714.801L1380.28 715.981ZM1627.32 370.232C1640.69 385.797 1647.68 406.251 1646.76 427.168C1644.22 447.524 1637.18 469.354 1632.11 466.404C1630.1 453.634 1629.63 440.651 1630.7 427.758C1623.57 414.691 1617.17 401.196 1611.55 387.342C1609.93 382.592 1611.02 377.292 1614.37 373.664C1617.71 370.036 1622.73 368.706 1627.32 370.232ZM647.885 645.474C660.107 655.533 667.014 671.096 666.477 687.365C666.97 699.088 661.643 710.245 652.392 716.866C650.348 707.185 649.872 697.212 650.984 687.365C646.323 676.629 640.151 666.685 632.674 657.865C629.294 645.769 639.998 643.704 647.604 645.474H647.885ZM309.857 308.28C324.198 317.137 331.561 334.576 328.167 351.646C328.417 363.244 323.269 374.247 314.364 381.147C311.848 371.549 310.896 361.576 311.547 351.646C305.218 342.324 299.658 332.455 294.928 322.145C291.547 310.935 302.252 306.51 309.857 308.28ZM676.054 444.574C661.355 454.74 656.574 475.023 665.069 491.185C670.441 498.607 679.635 501.777 688.167 499.15C702.252 500.92 710.421 471.419 710.421 471.419C710.421 471.419 710.421 463.159 694.364 478.795C692.722 479.591 690.844 479.664 689.15 478.999C687.456 478.334 686.087 476.985 685.35 475.255C685.279 474.667 685.279 474.072 685.35 473.484C683.725 465.76 684.515 457.692 687.604 450.474C689.857 443.099 684.787 439.853 676.618 444.869L676.054 444.574ZM783.097 297.069C770.863 306.098 762.874 320.15 761.125 335.716C761.125 346.041 758.871 345.746 765.35 352.236C771.829 358.726 774.364 358.431 783.66 352.236C788.231 349.165 791.39 344.255 792.392 338.666C794.646 327.16 780.843 344.271 779.153 331.29C778.548 319.543 783.901 308.331 793.238 301.79C793.238 293.824 793.237 288.219 783.097 294.709V297.069ZM869.294 313.295C865.912 328.01 863.838 343.021 863.097 358.136C860.561 369.347 874.364 374.067 880.28 359.611C886.302 344.013 889.732 327.45 890.421 310.64C887.322 293.529 876.618 294.119 869.294 313V313.295ZM1412.96 605.943C1414.93 603.878 1489.58 546.942 1489.58 546.942C1497.18 543.991 1495.49 576.442 1492.11 576.442C1468.99 600.512 1442.24 620.444 1412.96 635.444C1406.66 626.714 1406.66 614.673 1412.96 605.943ZM1481.12 605.943C1494.36 612.728 1499.72 653.735 1498.03 664.945C1500.65 679.778 1493.35 694.588 1480.28 700.936C1478.02 689.293 1477.36 677.373 1478.31 665.535C1472.83 652.38 1468.77 638.626 1466.2 624.529C1464.15 619.833 1464.9 614.325 1468.1 610.403C1471.3 606.482 1476.38 604.858 1481.12 606.238V605.943ZM1036.34 782.948C1042.66 775.339 1049.96 768.687 1058.03 763.183C1062.92 761.266 1068.42 762.283 1072.39 765.838C1070.89 774.315 1069.95 782.89 1069.58 791.503C1069.65 793.671 1070.56 795.714 1072.1 797.161C1073.64 798.609 1075.68 799.336 1077.74 799.174H1079.72C1089.66 791.306 1101.92 787.339 1114.36 787.963C1123.38 787.963 1123.66 804.779 1118.03 805.074C1101.73 809.318 1085.88 815.247 1070.7 822.774C1066.31 825.821 1060.46 825.07 1056.9 821.004C1054.44 816.425 1054.44 810.833 1056.9 806.254C1056.9 797.994 1054.36 793.273 1047.89 794.454C1041.41 795.634 1038.59 799.174 1036.05 794.454C1034 791.266 1034.75 786.944 1037.74 784.718L1036.34 782.948ZM1559.72 804.779C1563.44 808.693 1563.44 815.025 1559.72 818.939C1554.65 823.954 1550.98 826.904 1545.63 831.92C1540.28 836.935 1541.69 843.13 1549.29 845.195C1566.06 843.682 1582.07 837.239 1595.49 826.609C1598.85 823.661 1600.09 818.827 1598.59 814.514C1594.04 812.205 1588.91 811.482 1583.94 812.449C1581.69 812.449 1574.65 812.449 1578.03 804.484C1580.52 800.758 1582.51 796.687 1583.94 792.388C1585.91 787.373 1583.94 783.833 1576.34 781.178C1569.62 780.028 1562.77 780.028 1556.05 781.178C1551.68 781.922 1548.53 785.981 1548.73 790.618C1549.5 796.883 1554.06 801.9 1560 803.009L1559.72 804.779ZM1130.98 652.849L1123.94 648.424H983.097C976.054 645.474 978.026 643.114 983.097 640.754C1016.62 636.034 1076.34 625.709 1080.28 565.232C1083.43 545.675 1075.08 526.044 1059.09 515.422C1043.09 504.8 1022.58 505.258 1007.03 516.585C991.483 527.912 983.938 547.898 987.885 567.297C987.885 575.557 990.421 591.488 982.533 593.258C930.984 598.273 874.928 632.199 872.956 656.685C869.857 659.045 862.815 652.26 863.66 641.934C861.388 597.378 849.339 553.969 828.449 515.081C812.111 497.97 817.181 503.575 806.477 511.836C799.428 520.452 796.524 531.968 798.59 543.106C798.59 543.106 811.829 582.638 822.815 609.778C831.951 638.237 835.122 668.423 832.111 698.281C813.658 738.015 784.211 771.013 747.604 792.978C736.25 798.446 723.183 798.446 711.829 792.978C705.082 788.09 701.497 779.672 702.533 771.148C739.841 750.064 769.891 717.252 788.449 677.335C796.95 655.734 797.75 631.651 790.702 609.483C788.645 597.852 783.578 587.035 776.054 578.212C780.561 574.967 793.801 585.588 795.773 578.212C791.99 560.062 783.398 543.396 770.984 530.126C763.838 521.453 751.459 520.157 742.815 527.176C731.753 540.151 728.794 558.628 735.209 574.672C740.843 589.128 755.773 591.783 766.477 620.694C768.486 630.505 767.902 640.705 764.787 650.194C746.049 674.395 724.362 695.917 700.28 714.211C698.59 716.276 700.28 714.211 700.28 705.361C700.28 696.511 703.942 672.91 702.815 672.91C684.223 685.595 678.026 724.537 674.646 736.042C627.604 770.263 574.364 795.044 543.66 830.74C527.604 857.29 653.801 801.239 668.449 793.568C671.524 802.295 675.391 810.692 679.998 818.644C696.388 839.746 723.046 848.86 748.167 841.95C788.665 824.173 823.048 793.925 846.759 755.217C848.861 749.436 855.039 746.531 860.561 748.727H861.97C880.28 792.093 933.237 823.069 1002.81 826.314C1018.59 805.959 1010.98 796.814 1004.51 791.798C989.611 785.954 976.278 776.443 965.632 764.068C964.227 750.049 972.488 736.948 985.35 732.797C1028.96 728.531 1072.08 719.837 1114.08 706.836C1115.81 690.441 1120.7 674.583 1128.45 660.225C1131.74 657.662 1134.27 654.188 1135.77 650.194L1130.98 652.849ZM1015.77 560.512C1020.26 556.601 1026.78 556.601 1031.27 560.512C1036.76 562.546 1040.17 568.318 1039.43 574.377C1034.95 578.288 1028.43 578.288 1023.94 574.377C1018.48 572.329 1015.18 566.515 1016.05 560.512H1015.77ZM959.435 710.376C943.45 712.18 931.317 726.284 931.266 743.122C936.9 775.278 923.66 764.068 915.773 759.938C894.651 747.082 880.325 724.793 876.899 699.461C876.415 691.091 882.437 683.865 890.421 683.235H892.956C912.311 686.981 931.886 689.347 951.547 690.316C967.885 690.316 976.054 704.771 960.843 710.376H959.435ZM709.012 356.366C719.966 347.803 722.234 331.571 714.083 320.08L711.547 317.13C701.095 311.608 688.76 311.608 678.308 317.13C667.498 326.952 665.438 343.701 673.519 356.071C681.688 360.201 689.857 369.051 684.505 373.772C659.435 403.272 590.421 451.064 598.59 452.834C613.623 455.19 628.908 455.19 643.942 452.834C670.797 428.596 695.672 402.051 718.308 373.477L709.012 365.511C706.541 363.869 705.788 360.452 707.322 357.841L709.012 356.071V356.366ZM698.026 356.366C692.944 356.51 688.369 353.157 686.759 348.106C684.363 344.659 684.984 339.848 688.167 337.191C693.25 337.046 697.824 340.4 699.435 345.451C701.767 348.973 701.021 353.797 697.745 356.366H698.026Z" fill="white"/>
</svg>
