<svg width="2000" height="1417" viewBox="0 0 2000 1417" fill="none" xmlns="http://www.w3.org/2000/svg">
<path d="M24.5039 211.229V476.737H1996.34V211.229C1996.34 103.045 1912.59 15.3438 1809.29 15.3438H211.546C108.246 15.3438 24.5039 103.045 24.5039 211.229Z" fill="#ED5565"/>
<path d="M24.5039 939.906H1996.34V477.628H24.5039V939.906Z" fill="white"/>
<path d="M24.5039 1205.7C24.5039 1313.88 108.246 1401.58 211.546 1401.58H1809.29C1912.59 1401.58 1996.34 1313.88 1996.34 1205.7V940.192H24.5039V1205.7Z" fill="#434A54"/>
<path d="M87.0391 65.2002C47.2323 102.286 24.473 155.432 24.5039 211.229V1206C24.473 1261.79 47.2323 1314.94 87.0391 1352.03L954.081 708.023L87.0391 65.2002Z" fill="#57A863"/>
</svg>
