<svg width="2000" height="1417" viewBox="0 0 2000 1417" fill="none" xmlns="http://www.w3.org/2000/svg">
<g clip-path="url(#clip0)">
<path d="M197.186 0C98.2419 0 18.0315 85.79 18.0315 191.617V1224.12C17.9567 1274.99 36.7989 1323.81 70.405 1359.81C104.011 1395.81 149.623 1416.04 197.186 1416.04H676.06C676.06 944.027 676.06 472.013 676.06 0L197.186 0Z" fill="#57A863"/>
<path d="M676.059 0C676.059 472.013 676.059 944.027 676.059 1416.04H1333.8C1333.8 944.027 1333.8 472.013 1333.8 0H676.059Z" fill="#FFCE54"/>
<path d="M1810.42 1.49588e-10H1332.96C1332.96 472.013 1332.96 944.027 1332.96 1416.04H1810.42C1909.37 1416.04 1989.58 1330.25 1989.58 1224.42V191.316C1989.42 85.6064 1909.26 -0.000130668 1810.42 1.49588e-10Z" fill="#ED5565"/>
<path d="M879.721 933.99C858.876 948.753 847.327 939.714 854.087 913.804L878.594 817.995C884.324 789.268 876.175 759.384 856.904 738.456L791.834 675.186C773.242 657.109 778.594 642.647 803.665 642.647H896.904C923.572 641.437 946.977 623.285 956.341 596.55L988.454 492.004C996.341 466.696 1009.02 466.696 1016.62 492.004L1048.74 597.153C1058.5 623.975 1081.65 642.545 1108.45 645.057L1203.38 648.974C1228.45 648.974 1231.55 664.641 1213.52 681.513L1139.44 746.59C1119.42 766.313 1110.45 795.771 1115.78 824.322L1136.62 909.887C1142.82 935.797 1130.99 944.836 1110.14 930.374L1034.09 877.348C1010.69 862.682 981.71 862.682 958.313 877.348L879.721 933.99Z" fill="#57A863"/>
</g>
<defs>
<clipPath id="clip0">
<rect width="2000" height="1416.04" fill="white"/>
</clipPath>
</defs>
</svg>
