<svg width="2000" height="1417" viewBox="0 0 2000 1417" fill="none" xmlns="http://www.w3.org/2000/svg">
<g clip-path="url(#clip0)">
<path d="M1818.29 1394.5H182C133.708 1394.58 87.371 1374.81 53.2229 1339.55C19.0748 1304.29 -0.0757664 1256.45 0.000225297 1206.58L0 686.482H2000L2000 1206.58C2000.08 1256.39 1980.96 1304.19 1946.88 1339.44C1912.79 1374.69 1866.53 1394.5 1818.29 1394.5Z" fill="white"/>
<path d="M0 195.584C0 91.9617 81.3563 7.95898 181.714 7.95898H1818C1918.36 7.95898 1999.71 91.9617 1999.71 195.584V686.478H0V195.584Z" fill="#ED5565"/>
<path d="M554.286 292.351C550.001 295.302 547.429 292.351 548.572 288.516L553.143 269.636C554.148 263.945 552.198 258.127 548.001 254.295L534.001 242.2C530.001 238.66 531.143 236.005 536.286 235.71H556.001C561.547 235.36 566.369 231.655 568.286 226.27L574.572 205.619C576.001 200.604 578.858 200.604 580.572 205.619L588.001 225.975C590.265 231.29 595.241 234.83 600.858 235.12H620.858C626.001 235.12 627.143 238.07 623.143 241.61L607.715 254.885C603.625 258.775 601.879 264.635 603.143 270.226L608.001 287.041C609.429 292.056 608.001 293.827 602.572 291.171L586.286 281.141C581.306 278.307 575.266 278.307 570.286 281.141L554.286 292.351ZM468.572 366.694C464.286 369.644 461.715 366.694 462.858 362.858L467.429 343.978C468.504 338.34 466.665 332.531 462.572 328.638L448.572 316.542C444.572 313.297 445.715 310.347 450.858 310.052H470.572C476.119 309.702 480.94 305.997 482.858 300.612L489.143 279.961C490.572 274.946 493.429 274.946 495.143 279.961L502.572 300.317C504.836 305.632 509.813 309.172 515.429 309.462H535.715C540.858 309.462 542.001 312.412 538.001 315.952L522.572 329.228C518.483 333.117 516.736 338.978 518.001 344.568L522.858 361.383C524.286 366.399 522.858 368.169 517.429 365.514L501.143 355.483C496.163 352.649 490.124 352.649 485.143 355.483L468.572 366.694ZM644.001 366.694C639.715 369.644 637.143 366.694 638.286 362.858L642.858 343.978C643.806 338.292 641.864 332.501 637.715 328.638L623.715 316.542C619.715 313.297 620.858 310.347 626.001 310.052H645.715C651.262 309.702 656.083 305.997 658.001 300.612L664.286 279.961C665.715 274.946 668.572 274.946 670.286 279.961L677.715 300.317C679.979 305.632 684.955 309.172 690.572 309.462H710.572C715.715 309.462 716.858 312.412 712.858 315.952L697.429 329.228C693.34 333.117 691.593 338.978 692.858 344.568L697.715 361.383C699.143 366.399 697.715 368.169 692.286 365.514L676.001 355.483C671.021 352.649 664.981 352.649 660.001 355.483L644.001 366.694ZM613.715 468.471C609.429 471.422 606.858 468.471 608.001 464.636L612.572 445.756C613.625 439.974 611.674 434.044 607.429 430.12L593.429 418.025C589.429 414.485 590.572 411.535 595.715 411.535H615.429C620.95 411.112 625.737 407.433 627.715 402.095L634.001 381.444C635.429 376.429 638.286 376.429 640.001 381.444L647.429 401.8C649.693 407.115 654.67 410.655 660.286 410.945H680.572C685.715 410.945 686.858 413.895 682.858 417.435L667.429 430.71C663.34 434.6 661.593 440.46 662.858 446.051L667.715 462.866C669.143 467.881 667.715 469.651 662.286 466.996L646.001 456.966C641.021 454.132 634.981 454.132 630.001 456.966L613.715 468.471ZM505.429 468.471C501.143 471.422 498.572 468.471 499.715 464.636L504.286 445.756C505.339 439.974 503.389 434.044 499.143 430.12L485.143 418.025C481.143 414.485 482.286 411.535 487.429 411.535H507.143C512.664 411.112 517.451 407.433 519.429 402.095L525.715 381.444C527.143 376.429 530.001 376.429 531.715 381.444L539.143 401.8C541.408 407.115 546.384 410.655 552.001 410.945H572.001C577.143 410.945 578.286 413.895 574.286 417.435L558.858 430.71C554.768 434.6 553.022 440.46 554.286 446.051L559.143 462.866C560.572 467.881 559.143 469.651 553.715 466.996L537.429 456.966C532.449 454.132 526.409 454.132 521.429 456.966L505.429 468.471ZM461.143 481.452C453.43 485.564 445.403 489.017 437.143 491.777C357.773 519.627 271.312 477.47 241.715 396.489C231.724 366.302 230.827 333.696 239.143 302.972C264.027 220.44 347.93 173.27 428.572 196.474C436.991 198.823 445.209 201.882 453.143 205.619C455.821 206.386 458.604 204.818 459.429 202.079C460.125 199.801 459.169 197.333 457.143 196.179C406.385 156.102 339.945 143.955 278.946 163.601C217.946 183.247 169.977 232.241 150.286 295.007C139.793 332.072 140.893 371.612 153.429 407.995C176.524 469.395 226.966 515.461 288.808 531.63C350.649 547.798 416.245 532.07 464.858 489.417C466.775 488.172 467.605 485.725 466.858 483.517C465.684 480.82 462.682 479.529 460.001 480.567L461.143 481.452Z" fill="white"/>
</g>
<defs>
<clipPath id="clip0">
<rect width="2000" height="1416.04" fill="white"/>
</clipPath>
</defs>
</svg>
