<svg width="2000" height="1417" viewBox="0 0 2000 1417" fill="none" xmlns="http://www.w3.org/2000/svg">
<g clip-path="url(#clip0)">
<path d="M2000 0H0V1416.04H2000V0Z" fill="#012169"/>
<path d="M0 0V79.1586L888.195 708.019H999.995V628.862L111.799 0.00236005H0L0 0ZM999.995 0V79.1562L111.799 708.016H0V628.86L888.195 0H999.995Z" fill="white"/>
<path d="M416.665 0V708.016H583.33V0H416.665ZM0 236.005V472.011H999.995V236.005H0Z" fill="white"/>
<path d="M0 283.207V424.81H999.995V283.207H0ZM449.998 0V708.016H549.997V0H449.998Z" fill="#C8102E"/>
<path d="M0 708.016L333.332 472.011H407.865L74.533 708.016H0H0ZM0 0L333.332 236.005H258.799L0 52.7732V0L0 0ZM592.13 236.005L925.462 0H999.995L666.663 236.005H592.13ZM999.995 708.016L666.663 472.011H741.196L999.995 655.246V708.016Z" fill="#C8102E"/>
<path d="M1473.78 1002.78C1473.78 1002.78 1468.23 1023.51 1465.07 1023.51C1461.91 1023.51 1450.43 1014.55 1450.43 1014.55C1450.43 1014.55 1442.12 1033.62 1437.76 1034.72C1433.41 1035.84 1421.93 1031.93 1421.93 1031.93C1421.93 1031.93 1410.85 1031.93 1410.46 1029.68C1410.06 1027.45 1410.85 1022.97 1410.85 1022.97C1410.85 1022.97 1395.03 1040.89 1391.46 1039.76C1387.9 1038.66 1376.03 1017.37 1376.03 1017.37L1374.05 1028.58L1351.49 1027.45L1331.71 1009.51C1331.71 1009.51 1320.63 1035.28 1320.23 1034.72C1319.84 1034.16 1300.84 1040.89 1300.84 1040.89L1299.65 1035.84L1286.99 1025.2C1286.99 1025.2 1296.88 1005.59 1296.88 1005.03C1296.88 1004.47 1292.13 1002.22 1292.13 1002.22L1285.01 1010.64L1270.37 1024.07L1255.73 1014.55L1262.06 997.739L1262.85 985.405L1274.33 960.759L1414.81 767.417L1484.07 948.425L1473.78 1002.78V1002.78Z" fill="#6A4C2D" stroke="black" stroke-width="0.621"/>
<path d="M1573.59 1014.51L1610.16 1012.63L1594.59 1001.75L1733.93 994.316L1714.24 983.693L1696.8 950.231L1624.6 942.539C1624.6 942.539 1619.16 936.7 1610.34 939.608C1609.97 931.659 1603.22 921.294 1603.22 921.294L1558.77 916.51L1531.02 943.337L1549.76 1011.32L1573.59 1014.51V1014.51Z" fill="white" stroke="black" stroke-width="0.621"/>
<path d="M1431.3 434.643L1434.98 416.915C1434.98 416.915 1441.42 401.532 1441.42 394.732C1441.42 387.955 1446.23 379.888 1446.23 379.888C1446.23 379.888 1460.95 373.885 1464.08 386.665C1479.92 352.757 1498.52 385.094 1498.52 385.094L1503.67 376.488L1514.17 358.244C1514.17 358.244 1529.09 378.059 1529.27 381.436C1529.46 384.836 1531.84 382.491 1531.84 382.491L1548.05 380.662C1548.05 380.662 1555.74 389.198 1554.13 405.425C1559.84 410.209 1564.99 438.278 1564.99 438.278L1431.3 434.643V434.643Z" fill="url(#paint0_linear)" stroke="black" stroke-width="0.621"/>
<path d="M1573.61 645.598C1576.4 643.182 1585.21 639.22 1584.14 620.976C1583.06 602.732 1571.9 600.598 1565.67 601.208C1559.43 601.817 1553.85 609.415 1553.85 609.415L1533.23 590.866C1533.23 590.866 1543.55 498.709 1554.5 492.941C1564.9 482.318 1566.73 477.722 1566.73 475.307C1566.73 472.868 1562.87 466.771 1562.87 466.771L1495.64 455.515L1432.07 466.161C1432.07 466.161 1427.13 476.807 1427.78 481.075C1428.42 485.32 1428.64 489.892 1440.02 502.367C1452.62 516.086 1461.28 594.829 1461.28 594.829C1461.28 594.829 1443.46 607.281 1442.38 605.757C1441.31 604.256 1435.94 602.732 1433.14 603.342C1430.36 603.951 1421.12 610.634 1421.12 627.964C1421.12 645.316 1430.36 655.353 1430.36 655.353C1430.36 655.353 1491.14 645.316 1500.16 669.024C1508.97 640.439 1566.73 650.475 1573.61 645.598V645.598Z" fill="#656263" stroke="black" stroke-width="0.621"/>
<path d="M1639.08 549.806C1639.08 549.806 1639.76 539.793 1644.8 535.032C1649.85 530.272 1683.48 527.88 1691.56 535.032C1699.63 542.184 1702.66 577.429 1702.66 577.429C1702.66 577.429 1707.71 589.811 1708.04 598.862C1708.37 607.914 1709.05 614.104 1709.05 614.104C1709.05 614.104 1735.96 663.654 1736.29 708.419C1739.32 738.903 1738.64 820.344 1730.25 851.297C1729.9 889.895 1718.47 915.127 1718.47 915.127C1718.47 915.127 1721.16 921.787 1720.82 928.939C1720.48 936.091 1717.79 942.751 1717.79 942.751L1757.14 970.375L1742.68 962.753C1742.68 962.753 1757.49 980.388 1757.14 979.919C1756.81 979.426 1740.66 968.944 1740.66 968.944L1750.42 982.756C1750.09 982.287 1726.54 967.514 1726.54 967.514C1726.54 967.514 1737.63 982.287 1736.97 981.818C1736.29 981.349 1719.14 969.906 1719.14 969.906C1719.14 969.906 1729.9 986.109 1729.57 985.148C1729.24 984.186 1714.1 975.627 1714.1 975.627L1714.76 983.717C1714.76 983.717 1702.66 982.756 1702.66 969.906C1696.6 965.145 1692.57 958.462 1692.57 958.462L1664.65 951.802L1633.02 817.952L1640.43 591.71L1642.45 580.29L1639.08 549.806V549.806Z" fill="black" stroke="black" stroke-opacity="0.97854" stroke-width="0.77625" stroke-linejoin="round"/>
<path d="M1617.95 1272.83C1617.95 1272.83 1601.76 1224.59 1593.69 1223.91C1586.41 1204.24 1619.01 1043.44 1682.09 1034.27C1716.77 1038.31 1684.94 1090.88 1662.14 1074.7C1664.98 1088.84 1676.38 1109.08 1676.38 1109.08C1676.38 1109.08 1631.25 1136.7 1617.95 1272.83Z" fill="#FFBB00" stroke="black" stroke-width="0.616796"/>
<path d="M1400.82 1279.86C1400.82 1279.86 1414.23 1224.94 1422.36 1224.26C1430.51 1223.58 1400.82 1041.24 1336.2 1039.88C1301.25 1043.96 1333.32 1096.81 1356.3 1080.54C1353.43 1094.8 1341.94 1115.13 1341.94 1115.13C1341.94 1115.13 1387.42 1142.92 1400.82 1279.86V1279.86Z" fill="#FFBB00" stroke="black" stroke-width="0.621"/>
<path d="M1460.1 936.866C1459.94 936.42 1444.06 943.924 1454.34 968.405C1455.12 958.932 1462.27 953.187 1462.27 953.187C1462.27 953.187 1451.38 971.501 1462.9 986.931C1464.31 972.368 1470.85 967.749 1470.85 967.749C1470.85 967.749 1462.75 1001.49 1471 1008.32C1471.95 994.857 1478.01 988.924 1478.01 988.924C1478.01 988.924 1470.69 1019.13 1477.23 1025.95C1478.01 1014.51 1483.45 1009.42 1483.45 1009.42C1483.45 1009.42 1480.19 1040.75 1488.75 1042.95C1488.92 1031.91 1495.15 1021.12 1495.15 1021.12C1495.15 1021.12 1492.33 1046.68 1505.73 1047.81C1505.89 1038.1 1508.38 1027.08 1508.38 1027.08C1508.38 1027.08 1514.45 1054.18 1523.33 1049.78C1523.18 1041.85 1523.48 1026.84 1523.33 1026.84C1523.17 1026.84 1528.93 1052.64 1539.53 1047.81C1537.97 1040.51 1540.14 1031.91 1540.14 1031.91C1540.14 1031.91 1545.75 1048.02 1555.87 1042.72C1557.59 1037.86 1555.41 1028.39 1555.41 1028.39C1555.41 1028.39 1570.2 1050.01 1574.72 1037C1579.24 1023.98 1562.88 1019.57 1562.88 1019.57H1573.94C1573.94 1019.57 1570.36 1006.35 1555.41 1003.46C1560.54 1000.16 1565.84 1002.59 1565.84 1002.59C1565.84 1002.59 1562.73 986.04 1547.46 984.281C1553.39 981.42 1559.93 983.413 1559.93 983.413C1559.93 983.413 1557.89 967.749 1541.08 963.34C1543.73 959.143 1550.89 960.479 1550.89 960.479C1550.89 960.479 1544.2 945.706 1536.56 946.574C1528.93 947.465 1459.94 936.655 1460.1 936.866V936.866Z" fill="#00713D" stroke="black" stroke-width="0.621"/>
<path d="M1528.15 1016.48C1528.15 1016.48 1534.23 1020.67 1534.08 1024.43" stroke="#3EC26D" stroke-width="0.77625" stroke-linecap="round"/>
<path d="M1531.74 1009.65C1531.74 1009.65 1539.53 1017.37 1539.38 1023.09" stroke="#3EC26D" stroke-width="0.77625" stroke-linecap="round"/>
<path d="M1538.58 1005.67C1538.58 1005.67 1544.83 1011.18 1545.12 1019.78" stroke="#3EC26D" stroke-width="0.77625" stroke-linecap="round"/>
<path d="M1549.02 1009.21C1549.02 1009.21 1552.15 1018.68 1551.05 1020.44" stroke="#3EC26D" stroke-width="0.77625" stroke-linecap="round"/>
<path d="M1555.26 1014.27C1555.72 1021.78 1554.78 1022.43 1554.78 1022.43" stroke="#3EC26D" stroke-width="0.77625" stroke-linecap="round"/>
<path d="M1478.47 966.857C1478.47 966.857 1485.79 973.47 1485.18 982.732" stroke="#3EC26D" stroke-width="0.77625" stroke-linecap="round"/>
<path d="M1478 974.807C1478 974.807 1481.43 979.427 1480.65 982.522" stroke="#3EC26D" stroke-width="0.77625" stroke-linecap="round"/>
<path d="M1487.05 967.093C1487.05 967.093 1491.87 976.566 1490.31 983.179" stroke="#3EC26D" stroke-width="0.77625" stroke-linecap="round"/>
<path d="M1495.29 973.259C1495.29 973.259 1497.48 979.215 1495.46 982.521" stroke="#3EC26D" stroke-width="0.77625" stroke-linecap="round"/>
<path d="M1499.18 976.12C1499.18 976.12 1501.83 982.076 1499.5 984.069" stroke="#3EC26D" stroke-width="0.77625" stroke-linecap="round"/>
<path d="M1496.24 995.746C1496.24 995.746 1503.08 997.95 1504.02 1005.22" stroke="#3EC26D" stroke-width="0.77625" stroke-linecap="round"/>
<path d="M1500.28 989.134C1500.28 989.134 1507.45 989.79 1508.23 1000.6" stroke="#3EC26D" stroke-width="0.77625" stroke-linecap="round"/>
<path d="M1509.78 985.383C1509.93 985.383 1514.6 997.085 1513.82 1000.81" stroke="#3EC26D" stroke-width="0.77625" stroke-linecap="round"/>
<path d="M1518.97 986.486C1518.97 986.486 1520.83 997.742 1519.44 1001.26" stroke="#3EC26D" stroke-width="0.77625" stroke-linecap="round"/>
<path d="M1524.89 990.893C1524.89 991.128 1525.04 1003.91 1525.04 1003.91" stroke="#3EC26D" stroke-width="0.77625" stroke-linecap="round"/>
<path d="M1515.86 973.259C1515.86 973.259 1520.36 975.674 1520.05 981.865" stroke="#3EC26D" stroke-width="0.77625" stroke-linecap="round"/>
<path d="M1520.05 967.514C1520.05 967.514 1525.81 972.157 1525.2 980.974" stroke="#3EC26D" stroke-width="0.77625" stroke-linecap="round"/>
<path d="M1526.76 963.785C1526.76 963.785 1531.74 972.157 1529.87 981.419" stroke="#3EC26D" stroke-width="0.77625" stroke-linecap="round"/>
<path d="M1535.47 965.754C1535.47 965.754 1533.61 976.119 1534.38 980.317" stroke="#3EC26D" stroke-width="0.77625" stroke-linecap="round"/>
<path d="M1540.77 972.812C1540.77 972.812 1537.5 976.353 1539.21 980.762" stroke="#3EC26D" stroke-width="0.77625" stroke-linecap="round"/>
<path d="M1512.43 1013.17C1512.43 1013.17 1513.51 1021.12 1512.43 1022.43" stroke="#3EC26D" stroke-width="0.77625" stroke-linecap="round"/>
<path d="M1505.26 1008.55C1505.26 1008.55 1508.84 1017.37 1507.6 1021.77" stroke="#3EC26D" stroke-width="0.77625" stroke-linecap="round"/>
<path d="M1497.63 1008.11C1497.63 1008.11 1501.69 1014.72 1501.52 1020.02" stroke="#3EC26D" stroke-width="0.77625" stroke-linecap="round"/>
<path d="M1491.4 1009.42C1491.4 1009.42 1495.14 1014.51 1494.83 1017.37" stroke="#3EC26D" stroke-width="0.77625" stroke-linecap="round"/>
<path d="M1488.14 1017.13C1488.14 1017.13 1491.72 1022.43 1491.55 1023.54" stroke="#3EC26D" stroke-width="0.77625" stroke-linecap="round"/>
<path d="M1410.67 655.117C1427.84 654.671 1445.02 654.249 1462.19 653.804C1462.19 653.804 1496.22 653.804 1499.9 669.445C1506.34 648.598 1535.77 649.911 1535.77 649.911C1553.55 649.043 1571.34 648.176 1589.11 647.308C1589.42 708.09 1589.72 768.871 1590.03 829.652C1579.62 900.4 1543.43 950.348 1503.57 971.616C1456.05 949.902 1426.01 893.037 1416.2 828.339C1414.35 770.606 1412.51 712.85 1410.67 655.117V655.117Z" fill="white" stroke="black" stroke-width="0.621"/>
<path d="M1429.02 654.437L1504.05 937.568L1571.83 648.27C1550.8 650.193 1505.69 643.58 1500.1 670.735C1491.42 646.441 1443.96 656.243 1429.02 654.437V654.437Z" fill="#006B00" stroke="black" stroke-width="0.621"/>
<path d="M1480.09 807.727C1482.99 809.861 1482.91 730.883 1486.7 728.444C1487.78 721.901 1488.32 719.041 1489.68 712.099C1486.42 703.916 1471.81 704.314 1466.4 711.279C1468.83 722.3 1469.91 725.982 1469.91 725.982C1477.23 742.748 1475.77 809.509 1480.09 807.727V807.727Z" fill="#FFC900" stroke="#006B00" stroke-width="0.427981" stroke-linecap="round"/>
<path d="M1459.99 197.306C1459.99 197.306 1465.3 188.775 1465.54 186.73C1465.78 184.683 1489.63 183.318 1503.84 145.792C1511.79 126.005 1503.84 137.603 1503.84 137.603L1503.36 128.05C1503.36 128.05 1513.25 114.747 1509.64 107.581C1506.01 100.418 1507.22 116.794 1501.44 116.452C1495.66 116.109 1498.79 98.712 1498.79 98.712C1498.79 98.712 1498.31 96.6649 1496.62 95.6415C1494.2 95.9827 1494.93 102.123 1492.76 102.806C1490.59 103.488 1488.67 88.4772 1488.67 88.4772C1488.67 88.4772 1485.06 81.6543 1481.91 103.147C1483.6 126.005 1493.97 121.568 1493.97 136.581C1493.97 151.591 1484.81 163.19 1482.16 163.532C1479.51 163.872 1480.47 150.909 1480.47 150.909C1480.47 150.909 1479.03 144.768 1478.07 144.768C1477.11 144.768 1483.37 143.403 1482.41 126.346C1480.24 105.876 1478.55 131.122 1474.69 130.097C1470.84 129.075 1473.73 111.335 1475.17 109.288C1476.61 107.241 1473.48 98.7125 1465.06 120.546C1464.33 131.122 1463.37 117.817 1461.68 118.499C1458.8 127.028 1459.28 133.169 1463.37 141.016C1469.39 148.862 1473.25 156.708 1473 160.802C1472.77 164.897 1469.63 174.108 1465.3 174.108C1460.97 174.108 1465.54 162.85 1465.3 159.095C1465.06 155.343 1457.84 141.698 1457.84 141.698C1457.84 141.698 1452.77 130.097 1453.25 129.757C1453.73 129.415 1452.77 127.71 1450.37 139.651C1447.95 151.591 1445.05 131.805 1445.05 131.805C1445.05 131.805 1441.69 146.472 1448.91 155.343C1443.38 154.321 1442.9 157.391 1442.9 157.391C1442.9 161.485 1450.37 163.19 1451.33 170.353C1452.29 177.52 1443.61 181.612 1443.61 181.612C1443.61 181.612 1447.24 188.775 1457.34 174.79C1457.59 183.659 1453.5 189.8 1453.5 189.8C1456.86 191.96 1459.51 191.732 1459.99 197.306V197.306Z" fill="#CDAD56" stroke="black" stroke-width="0.77625" stroke-linejoin="round"/>
<path d="M1426.93 197.306C1426.93 197.306 1422.43 187.839 1422.23 185.975C1422.01 184.113 1400.07 188.329 1389.69 150.43C1382.94 132.425 1389.69 142.98 1389.69 142.98L1390.1 134.287C1390.1 134.287 1382.92 121.84 1385.99 115.321C1389.05 108.802 1387.79 123.702 1391.74 123.732C1396.64 123.423 1393.99 107.59 1393.99 107.59C1393.99 107.59 1394.4 105.728 1395.83 104.797C1397.87 105.106 1398.71 114.446 1400.55 115.068C1402.39 115.689 1406.2 104.077 1407.39 101.689C1409.08 101.347 1409.02 92.0691 1411.68 111.625C1410.26 132.425 1398.09 128.39 1398.09 142.049C1398.09 155.706 1405.85 166.261 1408.1 166.573C1410.36 166.882 1409.54 155.087 1409.54 155.087C1409.54 155.087 1410.77 149.499 1411.58 149.499C1412.41 149.499 1404.43 151.668 1405.26 136.147C1407.09 121.615 1411.17 137.082 1414.45 136.149C1417.73 135.218 1414.07 120.783 1415.01 118.578C1415.23 116.374 1420.04 106.907 1421.92 127.799C1422.53 137.422 1426.24 119.516 1427.66 120.138C1430.13 127.897 1426.59 138.262 1423.11 145.402C1417.99 152.54 1415.67 160.363 1415.89 164.089C1416.09 167.813 1417.3 172.442 1420.99 172.442C1424.66 172.442 1422.23 165.951 1422.43 162.537C1422.63 159.123 1428.77 148.068 1428.77 148.068C1429.98 145.341 1428.97 140.243 1430.24 137.887C1432.25 137.917 1433.08 133.978 1435.11 144.842C1437.17 155.706 1439.62 137.701 1439.62 137.701C1439.62 137.701 1442.48 151.051 1436.34 159.123C1441.04 158.192 1441.46 160.985 1441.46 160.985C1441.46 164.711 1439.22 166.261 1438.39 172.78C1437.56 179.299 1440.84 183.025 1440.84 183.025C1440.84 183.025 1437.78 189.544 1429.19 176.815C1428.97 184.887 1432.46 190.475 1432.46 190.475C1429.58 192.442 1427.35 192.234 1426.93 197.306V197.306Z" fill="#CDAD56" stroke="black" stroke-width="0.682417" stroke-linejoin="round"/>
<path d="M1559.31 696.67C1554.83 690.902 1554.3 695.943 1552.09 694.654C1551 694.02 1550.16 692.59 1549.21 691.277C1548.4 690.081 1547.42 689.588 1546.35 688.955C1545.93 690.667 1545.54 692.355 1545.12 694.067C1544.71 695.779 1546.26 698.616 1546.23 701.173C1545.92 704.971 1544.82 708.137 1541.45 709.427C1542.41 706.73 1542.95 706.613 1542.65 703.306C1542.52 701.665 1539.26 698.734 1539.66 697.186C1540.25 694.677 1541.28 691.793 1540.52 689.284C1539.14 690.62 1537.32 689.917 1535.95 690.737C1534.77 691.464 1534.71 694.536 1533.08 695.803C1531.43 696.905 1527.77 696.365 1524.7 693.903C1526.57 691.91 1528.11 693.247 1529.99 691.253C1530.91 690.245 1530.88 685.954 1531.81 684.945C1532.75 683.937 1534.99 682.882 1535.91 681.873C1535.07 680.513 1535.12 678.379 1534.27 677.019C1533.45 675.659 1529.72 675.941 1528.88 674.604C1527.19 671.884 1527.52 668.32 1525.83 665.623C1530.18 667.827 1529.56 670.829 1530.65 670.594C1532.7 669.187 1534.76 668.929 1535.83 669.562C1536.92 670.219 1538.98 674.018 1540.05 674.651C1540.47 672.939 1541.06 670.782 1541.46 669.07C1541.88 667.358 1539.64 664.403 1540.04 662.692C1540.87 659.291 1542.89 656.266 1543.7 652.843C1544 656.149 1544.38 658.916 1544.67 662.199C1544.82 663.841 1547.11 664.708 1547.26 666.35C1547.41 668.015 1546.07 671.814 1546.2 673.478C1547.46 673.127 1549.26 673.361 1550.5 673.009C1551.76 672.658 1552.59 668.554 1553.83 668.202C1556.33 667.499 1558.14 667.71 1560.67 668.39C1558.8 670.852 1557.36 670.688 1556.18 672.939C1555.26 673.947 1556.55 677.254 1553.85 679.575C1552.84 680.42 1550.17 679.411 1549.23 680.42C1550.07 681.78 1550.92 683.116 1551.76 684.476C1552.59 685.836 1556.37 686.47 1557.21 687.83C1558.88 690.526 1559.78 693.762 1559.31 696.67V696.67Z" fill="#FFC900"/>
<path d="M1443.94 699.462C1448.43 693.693 1448.96 698.735 1451.18 697.445C1452.25 696.788 1453.1 695.358 1454.04 694.068C1454.85 692.872 1455.83 692.38 1456.91 691.723C1457.32 693.435 1457.73 695.147 1458.13 696.859C1458.55 698.571 1457.01 701.385 1457.04 703.941C1457.34 707.763 1458.43 710.905 1461.81 712.218C1460.85 709.522 1460.3 709.381 1460.6 706.098C1460.75 704.456 1463.99 701.525 1463.6 699.954C1463 697.468 1461.97 694.561 1462.74 692.052C1464.13 693.412 1465.93 692.708 1467.32 693.505C1468.48 694.256 1468.56 697.328 1470.17 698.594C1471.84 699.696 1475.5 699.157 1478.55 696.695C1476.68 694.678 1475.14 696.038 1473.27 694.021C1472.34 693.036 1472.39 688.722 1471.45 687.737C1470.52 686.728 1468.28 685.65 1467.34 684.641C1468.18 683.305 1468.13 681.147 1468.98 679.787C1469.82 678.451 1473.55 678.732 1474.38 677.372C1476.07 674.675 1475.75 671.111 1477.42 668.391C1473.07 670.595 1473.71 673.597 1472.62 673.386C1470.55 671.979 1468.5 671.697 1467.42 672.354C1466.35 672.987 1464.28 676.786 1463.2 677.442C1462.79 675.731 1462.21 673.573 1461.79 671.861C1461.38 670.15 1463.63 667.195 1463.22 665.483C1462.4 662.059 1460.37 659.058 1459.56 655.634C1459.26 658.917 1458.88 661.684 1458.58 664.991C1458.43 666.632 1456.14 667.5 1456 669.141C1455.86 670.783 1457.2 674.605 1457.06 676.246C1455.8 675.895 1453.99 676.129 1452.75 675.801C1451.51 675.426 1450.68 671.322 1449.42 670.97C1446.92 670.267 1445.13 670.478 1442.58 671.158C1444.45 673.644 1445.89 673.456 1447.07 675.731C1448 676.739 1446.71 680.045 1449.4 682.367C1450.41 683.211 1453.1 682.203 1454.02 683.211C1453.18 684.548 1452.34 685.908 1451.51 687.268C1450.66 688.628 1446.89 689.261 1446.06 690.598C1444.37 693.318 1443.48 696.554 1443.94 699.462V699.462Z" fill="#FFC900"/>
<path d="M1555.29 714.915C1551.22 719.394 1524.97 728.797 1524.69 761.087C1524.42 793.378 1529.29 800.741 1524.42 801.561C1514.95 801.561 1513.59 765.59 1513.86 749.644C1514.14 733.698 1514.41 736.16 1514.41 736.16C1514.41 736.16 1520.9 738.599 1520.37 746.384C1519.82 754.146 1526.86 727.156 1524.42 719.816C1528.75 725.936 1534.44 723.498 1534.44 723.076C1534.44 722.677 1531.2 717.776 1529.84 714.094C1528.48 710.413 1534.71 716.134 1534.71 716.134C1534.71 716.134 1534.97 709.991 1529.56 710.413C1522.52 710.413 1530.65 707.13 1530.65 707.13C1530.65 707.13 1534.71 712.453 1537.42 706.731C1534.44 702.229 1530.1 699.767 1530.1 699.767C1530.1 699.767 1526.31 689.566 1521.18 687.526C1515.22 685.462 1516.03 691.184 1509.26 690.387C1507.91 694.045 1507.91 694.467 1510.61 695.686C1506.01 700.189 1508.44 709.17 1508.44 709.17C1508.44 709.17 1515.76 704.691 1515.48 712.031C1515.22 719.394 1511.16 718.175 1508.44 713.672C1506.01 711.632 1505.2 715.712 1505.2 715.712L1508.99 721.434C1508.99 721.434 1501.69 721.035 1499.78 727.977C1503.84 727.578 1506.01 729.219 1506.01 729.219C1506.01 729.219 1497.61 734.519 1496.8 737.38C1495.99 740.241 1495.73 734.12 1495.46 734.12C1495.18 734.12 1487.33 730.017 1487.33 730.017L1484.61 747.698C1484.61 747.698 1490.05 755.366 1493.01 752.903C1495.99 750.465 1501.41 743.102 1504.65 745.142C1495.18 755.366 1485.71 770.069 1480.56 772.132C1479.22 770.491 1474.61 763.948 1472.71 767.208C1470.82 770.491 1472.18 774.571 1474.61 774.172C1477.05 773.75 1466.76 777.432 1468.92 783.576C1471.08 789.696 1470.82 789.297 1472.71 787.656C1474.61 786.014 1471.08 785.616 1478.12 782.755C1485.16 779.894 1484.9 777.033 1484.9 777.033C1484.9 777.033 1483.54 781.512 1479.75 782.755C1475.95 783.974 1472.99 783.974 1473.8 785.616C1474.61 787.234 1476.24 790.095 1475.69 791.736C1475.14 793.378 1483.54 783.153 1485.71 791.337C1491.39 790.915 1495.18 781.113 1492.48 775.392C1492.75 781.512 1495.46 783.576 1493.82 786.436C1492.2 789.297 1506.56 777.033 1499.52 769.67C1501.41 775.79 1501.69 780.715 1501.69 780.715C1501.69 780.715 1504.93 780.293 1505.75 778.651C1506.56 777.033 1504.12 783.153 1505.2 784.373C1506.27 785.616 1511.43 792.557 1509.26 797.458C1507.91 794.597 1507.63 790.095 1506.01 790.517C1504.39 790.915 1497.61 797.88 1493.56 798.278C1489.5 798.677 1498.43 819.547 1498.43 819.547C1498.43 819.547 1492.2 818.304 1491.39 819.125C1490.58 819.946 1486.52 811.762 1485.71 816.686C1484.35 822.807 1487.07 820.345 1487.07 820.345C1487.07 820.345 1483.54 817.906 1481.65 820.767C1479.75 823.628 1477.86 826.488 1479.22 827.708C1480.56 828.927 1486.52 828.927 1487.33 828.529C1488.14 828.13 1480.56 829.349 1480.03 830.569C1479.48 831.788 1478.4 836.29 1480.03 837.932C1481.65 839.573 1485.71 837.111 1485.97 835.892C1486.25 834.649 1486.52 840.371 1486.52 840.371C1486.52 840.371 1493.56 841.191 1493.56 830.991C1493.56 820.767 1494.1 838.33 1494.1 838.33C1494.1 838.33 1501.14 839.972 1501.41 829.748C1501.69 819.547 1502.22 836.712 1502.22 836.712C1502.22 836.712 1506.82 834.649 1506.82 833.031C1506.82 831.389 1506.56 853.455 1503.31 859.599C1498.16 854.675 1494.91 862.859 1494.91 862.859C1494.91 862.859 1495.18 874.701 1494.63 877.562C1494.1 880.423 1498.16 875.944 1498.43 874.701C1498.71 873.481 1503.58 870.222 1503.84 869.401C1504.12 868.58 1505.46 864.5 1505.46 864.5C1505.46 864.5 1504.39 870.222 1502.5 871.043C1500.59 871.84 1498.71 874.701 1499.52 877.163C1500.33 879.625 1503.31 881.243 1504.39 883.705C1505.46 886.144 1509.26 869.401 1509.26 869.401L1509.54 873.083C1509.54 873.083 1514.41 871.441 1514.95 868.182C1515.48 864.899 1509.8 862.038 1514.41 856.738C1519.01 851.415 1514.41 861.639 1514.41 861.639C1514.41 861.639 1516.03 869.401 1517.11 869.401C1518.2 869.401 1520.9 854.675 1518.2 851.017C1515.48 847.335 1522.26 855.496 1522.26 855.496C1522.26 855.496 1526.05 840.371 1521.99 838.33C1517.92 836.29 1516.03 835.47 1516.03 835.47C1516.03 835.47 1518.2 831.389 1517.11 830.991C1516.03 830.569 1522.8 839.972 1523.88 837.51C1524.97 835.071 1526.59 827.708 1518.74 823.628C1510.88 819.547 1518.46 808.08 1518.46 808.08C1518.46 808.08 1523.35 816.264 1526.86 811.762C1530.37 807.283 1526.59 807.283 1526.59 807.283C1526.59 807.283 1536.6 798.278 1536.88 793.776C1534.97 793.378 1531.73 794.198 1531.73 794.198C1531.73 794.198 1537.42 788.875 1536.07 780.293C1533.9 784.795 1530.92 784.795 1530.92 784.795C1530.92 784.795 1535.8 777.854 1534.97 771.311C1532.01 774.571 1532.27 777.033 1530.37 776.212C1528.48 775.392 1525.24 749.644 1532.82 748.003C1540.39 746.384 1536.33 760.689 1536.6 760.689C1536.88 760.689 1547.97 754.146 1536.6 743.524C1539.31 742.281 1544.99 749.644 1544.99 749.644C1544.99 749.644 1542.56 731.658 1530.37 742.703C1533.35 738.201 1535.25 735.34 1537.69 736.16C1540.12 736.981 1548.78 735.738 1548.78 732.08C1546.63 729.618 1542.03 733.3 1539.58 732.08C1537.14 730.837 1556.92 728.797 1555.29 714.915V714.915Z" fill="#FFC900" stroke="#006B00" stroke-width="0.427981" stroke-linecap="round" stroke-linejoin="round"/>
<path d="M1469.46 725.519C1469.46 725.519 1480.29 716.935 1485.7 727.575" stroke="#006B00" stroke-width="0.42798" stroke-linecap="round"/>
<path d="M1490.04 743.915C1489.76 743.915 1486.24 749.228 1485.43 749.228" stroke="#006B00" stroke-width="0.42798" stroke-linecap="round"/>
<path d="M1497.35 761.083C1497.35 761.083 1507.36 762.311 1513.86 747.186" stroke="#006B00" stroke-width="0.42798" stroke-linecap="round"/>
<path d="M1508.17 756.583C1508.17 756.583 1508.99 764.766 1510.61 764.766C1512.23 764.766 1507.91 766.808 1506.28 765.166C1508.17 768.851 1509.26 775.392 1506.28 777.835" stroke="#006B00" stroke-width="0.42798" stroke-linecap="round"/>
<path d="M1503.03 859.588C1503.03 859.588 1499.51 865.301 1495.18 865.715Z" fill="#E80000"/>
<path d="M1503.03 859.588C1503.03 859.588 1499.51 865.301 1495.18 865.715" stroke="#006B00" stroke-width="0.42798" stroke-linecap="round"/>
<path d="M1507.09 833.423C1507.09 833.423 1504.93 817.083 1506.28 812.985C1507.09 807.672 1510.61 805.629 1513.32 798.688" stroke="#006B00" stroke-width="0.42798" stroke-linecap="round"/>
<path d="M1506.01 821.569C1506.01 821.569 1503.3 831.381 1491.39 828.11" stroke="#006B00" stroke-width="0.42798" stroke-linecap="round"/>
<path d="M1509.26 797.046C1509.26 797.046 1510.07 810.128 1499.24 805.229" stroke="#006B00" stroke-width="0.42798" stroke-linecap="round"/>
<path d="M1495.99 738.2C1495.99 738.2 1491.66 743.914 1493.28 751.683" stroke="#006B00" stroke-width="0.42798" stroke-linecap="round"/>
<path d="M1512.23 723.89C1512.23 723.89 1517.92 720.619 1519 718.977C1520.08 717.349 1521.98 714.078 1522.52 711.622C1523.06 709.179 1518.73 705.494 1520.9 700.183C1522.25 697.73 1524.14 697.322 1527.4 700.183C1530.64 703.038 1524.42 691.192 1521.17 690.783C1517.92 690.374 1515.75 694.053 1514.95 693.234C1514.13 692.417 1515.21 696.505 1513.86 696.505C1512.5 696.505 1516.56 699.774 1516.3 701.823C1516.02 703.866 1520.62 710.808 1520.36 712.45C1520.08 714.078 1513.58 723.476 1512.23 723.89V723.89Z" fill="#006B00"/>
<path d="M1516.3 696.914C1518.77 696.065 1519.17 697.008 1518.73 700.184C1517.57 699.302 1517.15 698.559 1516.3 696.914Z" fill="#FFC900" stroke="#FFC900" stroke-width="0.42798" stroke-linecap="round" stroke-linejoin="round"/>
<path d="M1499 879.011C1499 879.011 1498.09 887.568 1500.32 888.275C1500.21 884.965 1500.8 882.709 1501.35 881.827C1500.87 881.494 1499.11 879.064 1499 879.011V879.011Z" fill="#E80000" stroke="#006B00" stroke-width="0.42798" stroke-linejoin="round"/>
<path d="M1493.98 868.477C1491.93 868.037 1488.47 870.6 1489.46 873.697C1491.13 871.534 1492.67 873.87 1493.84 871.668C1494.19 871.054 1494.1 869.251 1493.98 868.477Z" fill="#E80000" stroke="#006B00" stroke-width="0.42798" stroke-linejoin="round"/>
<path d="M1493.96 862.364C1493.96 862.364 1490.74 861.59 1490.29 864.967C1492.51 864.54 1493.18 864.18 1493.92 864.887C1494.13 864.166 1493.93 862.538 1493.96 862.364Z" fill="#E80000" stroke="#006B00" stroke-width="0.42798" stroke-linejoin="round"/>
<path d="M1480.29 814.16C1480.29 814.16 1482.22 815.254 1482.77 818.244C1484.31 816.803 1485.04 810.462 1480.29 814.16Z" fill="#E80000" stroke="#006B00" stroke-width="0.342384" stroke-linejoin="round"/>
<path d="M1475.49 821.434C1475.57 821.381 1479.55 817.736 1479.96 821.221C1479.12 822.489 1478.75 823.316 1478.09 823.597C1477.58 823.597 1476.55 821.221 1475.49 821.434Z" fill="#E80000" stroke="#006B00" stroke-width="0.342384" stroke-linejoin="round"/>
<path d="M1475.09 833.25C1475.16 833.197 1477.65 829.886 1478.6 832.089C1479.55 834.305 1477.83 834.185 1477.83 834.185C1477.83 834.185 1476.96 833.584 1475.09 833.25Z" fill="#E80000" stroke="#006B00" stroke-width="0.342384" stroke-linejoin="round"/>
<path d="M1471.58 767.463C1471.55 767.463 1468.4 765.635 1467.08 768.945C1469.17 769.332 1469.9 770.44 1470.85 771.548C1470.59 770.16 1470.16 768.064 1471.58 767.463Z" fill="#E80000" stroke="#006B00" stroke-width="0.342384" stroke-linejoin="round"/>
<path d="M1465.48 792.238C1465.48 792.238 1465.62 786.672 1467.37 784.402C1468.36 785.23 1468.65 786.552 1469.32 788.207C1468 788.647 1466.24 788.768 1465.48 792.238Z" fill="#E80000" stroke="#006B00" stroke-width="0.342384" stroke-linejoin="round"/>
<path d="M1473.88 788.262C1473.88 788.262 1470.42 790.692 1471.55 793.348C1472.68 791.519 1473.93 792.08 1473.93 792.027C1473.93 791.973 1473.93 788.329 1473.88 788.262Z" fill="#E80000" stroke="#006B00" stroke-width="0.342384" stroke-linejoin="round"/>
<path d="M1468.88 734.945C1467.63 737.054 1470.41 741.633 1473.33 740.966C1474.07 736 1469.61 733.41 1468.88 734.945V734.945Z" fill="#FFC900" stroke="#006B00" stroke-width="0.342384" stroke-linejoin="round"/>
<path d="M1472.09 731.138C1472.09 731.138 1472.64 735.063 1475.16 734.008C1474.76 730.978 1473 728.708 1473 728.708C1472.9 729.603 1473.37 730.978 1472.09 731.138V731.138Z" fill="#E80000" stroke="#006B00" stroke-width="0.342384" stroke-linejoin="round"/>
<path d="M1473.77 742.514C1473.77 742.514 1475.16 744.77 1477.9 740.137C1476.66 740.685 1474.47 739.029 1474.47 739.029C1474.47 739.029 1474.47 742.233 1473.77 742.514Z" fill="#E80000" stroke="#006B00" stroke-width="0.342384" stroke-linejoin="round"/>
<path d="M1468.72 725.946C1467.48 728.042 1469.24 730.965 1472.16 730.311C1472.89 725.345 1469.45 724.41 1468.72 725.946Z" fill="#FFC900" stroke="#006B00" stroke-width="0.342384" stroke-linejoin="round"/>
<path d="M1469.89 706.333C1469.89 706.333 1481.55 701.619 1487.74 708.701C1493.92 715.759 1493.92 709.358 1493.92 709.358C1493.92 709.358 1502.96 714.071 1505.58 713.063C1508.19 712.054 1503.67 713.414 1507.23 710.366C1510.81 707.341 1500.1 711.046 1499.15 704.644C1497.48 700.611 1499.38 695.546 1495.59 697.234C1492.98 692.521 1497.25 689.168 1496.3 684.102C1493.69 686.799 1492.25 683.094 1490.11 689.824C1485.13 688.487 1489.4 678.709 1483.93 677.701C1483.93 684.782 1479.89 685.111 1479.64 689.168C1477.28 691.512 1466.81 700.283 1469.89 706.333V706.333Z" fill="url(#paint1_linear)"/>
<path d="M1335.76 1243.23C1343.32 1240.65 1384.29 1256.06 1400.09 1280.03C1396.73 1237.32 1388.38 1204.61 1388.38 1204.61C1388.38 1204.61 1363.97 1194.74 1360.61 1199.5C1355.7 1206.82 1340.94 1228.79 1335.76 1243.23Z" fill="#C01500" stroke="black" stroke-width="0.621"/>
<path d="M1323.27 1045.98C1320.4 1046.66 1317.53 1049.38 1314.66 1056.15C1311.3 1067.67 1308.91 1096.81 1304.12 1103.59C1299.34 1110.37 1295.03 1111.05 1295.03 1117.17C1295.03 1123.27 1295.51 1137.5 1308.43 1142.92C1321.36 1143.6 1341.94 1113.77 1341.94 1113.77C1341.94 1113.77 1352.48 1097.49 1356.78 1079.88C1331.89 1092.08 1314.18 1059.53 1323.27 1045.98V1045.98Z" fill="#C01500" stroke="black" stroke-width="0.621"/>
<path d="M1683.3 1236.43C1675.8 1233.88 1634.37 1249.19 1618.68 1273.02C1622.01 1230.57 1630.31 1198.02 1630.31 1198.02C1633.21 1196.92 1654.27 1188.22 1657.6 1192.96C1662.47 1200.23 1678.17 1222.08 1683.3 1236.43Z" fill="#C01500" stroke="black" stroke-width="0.616796"/>
<path d="M1694.91 1040.33C1697.76 1041.01 1698.77 1046.3 1701.1 1053.06C1704.41 1064.5 1707.84 1081.2 1712.59 1087.93C1717.35 1094.68 1721.62 1104.65 1721.62 1110.72C1721.62 1116.79 1720.63 1124.98 1707.79 1130.37C1694.97 1131.05 1676.38 1107.72 1676.38 1107.72C1676.38 1107.72 1665.93 1091.56 1661.66 1074.02C1686.36 1086.17 1702.36 1054.93 1694.91 1040.33V1040.33Z" fill="#C01500" stroke="black" stroke-width="0.616796"/>
<path d="M1308.91 1205.97C1308.91 1205.97 1334.76 1231.04 1335.24 1242.58C1404.66 1096.81 1581.79 1051.39 1682.79 1232.4C1696.2 1207.31 1710.08 1199.2 1710.08 1199.2C1603.81 1002.59 1392.21 1027 1308.91 1205.97V1205.97Z" fill="#FFBB00" stroke="black" stroke-width="0.621"/>
<path d="M1572.26 648.316L1582.38 647.964L1564.31 680.372L1585.99 716.203L1543.35 792.273L1583.59 860.84C1579.17 876.2 1574.03 890.176 1567.19 902.815L1544.08 866.632L1585.99 792.625L1551.54 737.354L1572.26 648.316V648.316Z" fill="#1E5AA6" stroke="black" stroke-width="0.621"/>
<path d="M1427.71 654.787L1416.86 655.139L1437.1 686.163L1415.67 724.034L1460.23 792.624L1423.37 862.551C1427.79 877.91 1434.14 894.958 1440.96 907.574L1462.88 868.343L1417.84 797.384L1450.85 738.033L1427.71 654.787V654.787Z" fill="#1E5AA6" stroke="black" stroke-width="0.621"/>
<path d="M1477.82 839.009L1461.93 869.025L1518.78 962.167C1528.81 954.991 1536.69 946.807 1545.29 936.935L1515.65 888.488L1527.7 838.329L1545.04 866.633L1490.84 964.558C1481.76 959.095 1471.73 950.559 1462.65 939.983L1491.32 888.488L1477.82 839.009V839.009Z" fill="#1E5AA6" stroke="black" stroke-width="0.621"/>
<path d="M1460.23 792.272L1470.6 810.704L1463.84 785.8L1460.23 792.272V792.272Z" fill="#1E5AA6" stroke="black" stroke-width="0.621"/>
<path d="M1534.44 808.571C1534.66 808.22 1542.8 792.86 1542.8 792.86L1539.64 786.74L1534.44 808.571V808.571Z" fill="#1E5AA6" stroke="black" stroke-width="0.601432"/>
<path d="M1654.24 552.315C1654.24 552.315 1664.24 540.192 1671.36 539.84" stroke="#FFF700" stroke-width="0.621" stroke-linecap="round"/>
<path d="M1655.68 550.626C1655.91 550.298 1715.38 538.502 1717.27 535.806" stroke="#FFF700" stroke-width="0.621" stroke-linecap="round"/>
<path d="M1655.91 551.305C1656.14 550.953 1722.5 543.214 1722.5 543.214" stroke="#FFF700" stroke-width="0.621" stroke-linecap="round"/>
<path d="M1655.68 551.635C1655.68 551.635 1726.31 546.922 1730.6 551.987" stroke="#FFF700" stroke-width="0.621" stroke-linecap="round"/>
<path d="M1655.43 551.305C1655.43 551.305 1724.65 551.985 1725.84 554.33" stroke="#FFF700" stroke-width="0.621" stroke-linecap="round"/>
<path d="M1655.68 551.305L1722.27 559.044" stroke="#FFF700" stroke-width="0.621" stroke-linecap="round"/>
<path d="M1654.97 551.987C1655.2 551.987 1722.75 560.405 1729.41 572.529" stroke="#FFF700" stroke-width="0.621" stroke-linecap="round"/>
<path d="M1732.96 589.693C1732.73 589.365 1709.9 550.954 1654.72 551.634" stroke="#FFF700" stroke-width="0.621" stroke-linecap="round"/>
<path d="M1654.97 552.315C1654.97 552.315 1693.26 556.02 1705.38 574.873" stroke="#FFF700" stroke-width="0.621" stroke-linecap="round"/>
<path d="M1655.68 551.635C1655.68 551.635 1680.4 544.905 1706.34 589.037" stroke="#FFF700" stroke-width="0.621" stroke-linecap="round"/>
<path d="M1640.1 591.71C1640.1 591.71 1674.41 593.633 1674.41 598.393C1674.41 603.153 1648.84 612.205 1648.51 632.207C1648.18 652.21 1668.02 653.64 1669.36 678.872C1670.7 704.127 1653.89 707.926 1650.53 714.609C1647.15 717.939 1639.09 753.653 1640.1 774.617C1641.11 795.581 1645.48 866.54 1653.21 880.844C1659.27 887.503 1668.35 908.936 1678.1 902.277C1687.85 895.594 1681.13 871.323 1680.12 864.64C1679.11 857.98 1684.16 847.029 1684.16 837.016C1684.16 827.003 1680.45 818.913 1680.8 816.545C1681.13 814.153 1708.04 825.596 1706.35 863.21C1704.68 900.846 1693.92 889.403 1693.92 889.403C1693.92 889.403 1697.28 935.622 1688.86 941.813C1673.73 953.233 1662.63 939.421 1662.63 939.421L1664.06 948.824L1652.55 940.382C1652.55 940.382 1637.74 910.367 1634.38 897.024C1631.02 883.705 1626.98 824.166 1628.32 811.292C1629.66 798.442 1630.67 723.169 1630.01 719.37C1629.33 715.547 1626.65 652.679 1628.32 643.158C1630.01 633.638 1640.43 591.71 1640.1 591.71V591.71Z" fill="url(#paint2_linear)" stroke="black" stroke-width="0.621"/>
<path d="M1603.1 579.329C1603.1 579.329 1626.98 546.476 1640.78 550.275C1647.83 550.275 1641.11 557.427 1641.11 557.427C1641.11 557.427 1653.21 558.858 1654.9 566.479C1655.23 569.809 1649.17 570.77 1649.17 570.77C1649.17 570.77 1654.22 572.2 1654.55 578.391C1654.9 584.582 1603.43 579.798 1603.1 579.329V579.329Z" fill="#FF7000" stroke="black" stroke-width="0.621"/>
<path d="M1604.44 577.897C1604.44 577.897 1630.01 573.137 1640.77 557.895" stroke="black" stroke-width="0.621"/>
<path d="M1630.34 567.908C1630.34 567.908 1649.17 566.946 1649.17 570.768" stroke="black" stroke-width="0.621"/>
<path d="M1697.28 957.525C1697.28 957.525 1713.42 952.272 1717.8 944.182C1720.49 941.321 1734.62 974.198 1697.28 957.525Z" fill="white" stroke="black" stroke-width="0.77625" stroke-linejoin="round"/>
<path d="M1692.9 768.427C1692.9 768.427 1694.92 786.061 1689.21 797.95C1686.18 802.71 1677.09 810.824 1677.09 816.545C1677.09 822.244 1680.45 829.865 1679.79 836.548C1679.11 843.208 1674.08 849.891 1674.41 855.589C1674.41 861.311 1680.12 891.795 1679.44 892.264" stroke="white" stroke-width="0.77625" stroke-linecap="round"/>
<path d="M1663.31 711.28C1663.31 711.28 1650.53 717.471 1647.83 735.574" stroke="white" stroke-width="0.77625" stroke-linecap="round"/>
<path d="M1657.91 567.908C1657.91 567.908 1662.3 585.05 1676.43 568.846C1667.34 551.236 1657.91 568.377 1657.91 567.908Z" fill="#C75B00" stroke="black" stroke-width="0.621"/>
<path d="M1668.35 567.188C1668.35 568.108 1667.67 568.855 1666.84 568.855C1666 568.855 1665.32 568.108 1665.32 567.188C1665.32 566.267 1666 565.521 1666.84 565.521C1667.67 565.521 1668.35 566.267 1668.35 567.188Z" fill="black"/>
<path d="M1542.41 528.114C1542.41 528.114 1569.2 569.174 1586.54 568.729C1589.69 580.782 1578.66 591.991 1574.25 597.337C1565.43 593.327 1557.45 598.064 1536.96 562.374C1538.24 539.604 1542.72 529.005 1542.41 528.114Z" fill="white" stroke="black" stroke-width="0.621"/>
<path d="M1578.66 432.603C1582.12 417.431 1589.06 405.378 1595.03 404.041C1593.46 392.434 1607.65 341.126 1648.94 321.475C1651.45 347.809 1631.28 373.697 1631.28 373.697C1631.28 373.697 1692.11 358.971 1704.4 337.093C1703.14 346.918 1690.85 408.051 1625.92 407.606C1650.51 440.646 1618.05 466.98 1604.18 458.937C1629.71 431.266 1596.94 414.758 1578.66 432.603V432.603Z" fill="white" stroke="black" stroke-width="0.621"/>
<path d="M1599.46 411.195C1611.74 400.033 1616.15 400.033 1626.25 402.261C1619 403.597 1619 404.043 1619 404.043C1619 404.043 1618.37 405.379 1622.77 411.195C1617.74 409.389 1613.32 405.379 1599.46 411.195Z" fill="#CCCCCD" stroke="#CCCCCC" stroke-width="0.621"/>
<path d="M1594.72 404.042C1594.72 404.042 1619 385.751 1632.54 373.252" stroke="black" stroke-width="0.621"/>
<path d="M1573.92 597.291C1573.92 597.291 1607.34 610.236 1611.11 542.396C1603.86 512.943 1593.78 449.559 1609.23 431.268C1595.03 417.433 1579.6 431.714 1579.6 431.714C1578.66 434.832 1566.04 460.275 1583.06 504.9C1542.72 489.728 1559.12 543.732 1559.12 543.732C1560.69 535.244 1582.12 527.224 1587.48 570.512C1589.69 581.228 1572.98 597.737 1573.92 597.291V597.291Z" fill="#0000FF" stroke="black" stroke-width="0.621"/>
<path d="M1611.43 542.839C1611.43 542.839 1646.74 516.06 1645.78 453.145C1615.84 454.036 1605.12 508.908 1605.12 508.908L1611.43 542.839Z" fill="#0000FF" stroke="black" stroke-width="0.621"/>
<path d="M1453.22 539.722C1453.22 539.722 1427.07 571.848 1412.25 561.577C1401.22 570.957 1388.3 554.448 1388.3 554.448C1388.3 554.448 1403.42 633.426 1457.64 576.303C1456.69 558.903 1453.84 541.058 1453.22 539.722V539.722Z" fill="white" stroke="black" stroke-width="0.621"/>
<path d="M1411.93 560.239C1414.13 543.731 1423.27 535.688 1430.53 551.305C1440.3 554.002 1450.07 497.324 1415.39 506.68C1425.16 432.603 1395.86 404.933 1395.86 404.933C1395.86 404.933 1385.46 487.053 1390.19 502.225C1394.91 517.397 1383.25 474.109 1345.75 462.056C1345.12 524.104 1387.67 553.111 1387.67 553.111C1387.67 553.111 1399.64 568.728 1411.93 560.239V560.239Z" fill="#0000FF" stroke="black" stroke-width="0.621"/>
<path d="M1415.39 506.235C1415.39 506.235 1399.02 525.886 1402.79 552.665" stroke="black" stroke-width="0.621"/>
<path d="M1390.5 503.562C1390.5 503.562 1386.72 522.743 1394.92 549.968" stroke="black" stroke-width="0.621"/>
<path d="M1387.98 556.23C1387.98 556.23 1395.55 538.83 1411.93 561.131" stroke="black" stroke-width="0.621"/>
<path d="M1391.13 435.722C1391.13 435.277 1366.24 435.722 1381.05 471.436C1370.02 476.337 1345.43 453.591 1362.45 423.224C1306.67 421.442 1283.98 383.524 1283.98 348.701C1300.37 372.807 1339.45 362.982 1353.31 377.708C1336.29 355.408 1339.76 324.595 1339.76 324.595C1339.76 324.595 1387.35 344.691 1395.86 404.488C1393.02 416.095 1391.76 436.614 1391.13 435.722V435.722Z" fill="white" stroke="black" stroke-width="0.621"/>
<path d="M1352.85 376.162C1362.03 389.387 1385.63 393.35 1397.61 408.077" stroke="black" stroke-width="0.621"/>
<path d="M1363.71 415.204C1363.71 415.204 1383.25 411.64 1388.91 421.442C1381.27 421.442 1378.72 418.768 1367.68 424.584C1370.79 422.333 1369.94 418.323 1371.64 418.323C1373.34 418.323 1364.56 415.204 1363.71 415.204V415.204Z" fill="#CCCCCD" stroke="#CCCCCC" stroke-width="0.58859"/>
<path d="M1461.1 198.755C1461.1 198.755 1471.81 185.365 1483.47 197.416C1478.2 219.709 1459.21 211.251 1459.21 211.251C1459.21 211.251 1459.84 222.408 1457.95 227.762C1461.74 231.812 1464.87 245.169 1464.87 245.169C1464.87 245.169 1484.41 238.474 1488.52 250.525C1496 249.061 1501.44 250.525 1501.44 250.525C1501.44 250.525 1516.57 245.169 1521.92 245.169C1527.29 245.169 1544.29 251.416 1545.87 255.878C1547.46 260.341 1553.12 290.244 1556.91 289.796C1560.69 289.35 1547.77 296.936 1544.29 289.35C1540.83 281.762 1541.78 299.168 1541.78 299.168C1541.78 299.168 1552.49 315.234 1553.75 318.803C1555.01 322.367 1547.14 351.374 1553.12 371.471C1547.87 372.151 1547.46 379.936 1547.46 379.936C1547.16 388.776 1539.26 391.098 1539.26 391.098L1537.37 379.045L1532.01 383.524L1534.21 374.144C1534.21 374.144 1541.46 349.147 1542.09 341.127C1542.72 333.084 1535.47 318.803 1529.8 318.803C1524.12 318.803 1520.03 344.246 1520.03 344.246C1520.03 344.246 1517.2 363.427 1518.15 365.21C1519.09 366.992 1514.35 358.972 1514.35 358.972C1514.35 358.972 1511.84 370.58 1509.95 374.144C1508.06 377.708 1503.95 379.045 1503.95 379.045C1503.95 379.045 1501.12 367.437 1502.07 362.982C1503.01 358.526 1517.52 341.127 1516.26 328.628C1514.98 316.13 1516.26 319.248 1515.93 318.803C1515.61 318.357 1508.38 309.432 1508.06 304.524C1507.75 299.614 1498.6 310.771 1486.63 307.2C1482.96 316.27 1482.53 338.876 1482.53 338.876C1482.53 338.876 1481.27 366.101 1483.78 369.243C1486.32 372.362 1477.49 379.045 1477.49 379.045L1471.18 391.098C1471.18 391.098 1468.98 383.524 1468.98 383.969C1468.98 384.415 1464.56 388.425 1464.56 388.425L1467.09 379.49C1466.93 372.737 1473.22 354.282 1473.22 338.665C1473.22 323.047 1474.01 306.309 1474.01 306.309C1474.01 306.309 1462.35 305.415 1462.67 322.367C1462.98 339.345 1459.84 340.236 1460.47 345.137C1461.1 350.038 1464.24 363.873 1463.3 367.906C1462.35 371.916 1458.58 373.253 1458.58 373.253L1457.64 375.481C1457.64 375.481 1445.98 383.078 1446.29 386.197C1446.61 389.316 1445.98 377.263 1445.98 377.263L1445.33 364.319C1445.33 364.319 1452.27 358.081 1452.27 342.463C1452.27 326.846 1450.68 324.618 1450.99 321.054C1451.31 317.466 1452.9 304.522 1452.58 303.185C1452.27 301.846 1445.98 306.754 1444.07 306.754C1442.18 306.754 1447.55 297.384 1448.18 290.689C1448.81 283.994 1441.87 296.936 1436.21 289.35C1438.84 281.11 1442.81 278.638 1443.44 272.391C1444.07 266.144 1439.04 277.747 1434.62 273.285C1434.98 267.296 1439.35 262.127 1439.35 262.127C1439.35 262.127 1435.76 261.504 1434.3 262.127C1431.47 260.788 1437.47 254.539 1437.78 245.614C1438.09 236.689 1434.3 233.118 1434.3 232.672C1434.3 232.227 1428.01 224.639 1427.07 221.515C1426.12 218.392 1426.12 214.82 1426.12 214.82C1426.12 214.82 1415.71 225.532 1403.42 202.772C1414.68 189.164 1426.75 199.2 1426.75 199.2C1426.75 199.2 1429.9 186.704 1444.39 187.597C1458.89 188.491 1461.73 200.094 1461.1 198.755V198.755Z" fill="#923F00" stroke="black" stroke-width="0.621"/>
<path d="M1540.39 429.603C1540.64 429.603 1567.15 430.728 1567.41 450.801C1567.68 470.85 1559.28 465.668 1559.02 465.668C1558.75 465.668 1539.59 462.315 1539.59 462.315L1540.39 429.603Z" fill="#0000FF" stroke="black" stroke-width="0.621"/>
<path d="M1514.65 424.02C1514.65 424.02 1547.72 423.669 1545.88 444.093C1544.05 464.541 1535.65 460.461 1535.65 460.461L1519.64 458.585L1514.65 424.02V424.02Z" fill="#FFFEFF" stroke="black" stroke-width="0.621"/>
<path d="M1496.02 421.792L1515.18 424.02C1515.18 424.02 1526.73 426.248 1526.21 441.865C1525.68 457.483 1514.39 457.858 1514.39 457.858L1495.76 456.357L1496.02 421.792Z" fill="#0000FF" stroke="black" stroke-width="0.621"/>
<path d="M1451.15 429.603C1450.88 429.603 1424.37 430.728 1424.1 450.801C1423.85 470.85 1432.25 465.668 1432.52 465.668C1432.78 465.668 1451.94 462.315 1451.94 462.315L1451.15 429.603Z" fill="white" stroke="black" stroke-width="0.621"/>
<path d="M1476.86 424.02C1476.86 424.02 1443.79 423.669 1445.63 444.093C1447.47 464.541 1455.87 460.461 1455.87 460.461L1471.88 458.585L1476.86 424.02V424.02Z" fill="#0000FF" stroke="black" stroke-width="0.621"/>
<path d="M1495.51 421.792L1476.35 424.02C1476.35 424.02 1464.79 426.248 1465.32 441.865C1465.85 457.483 1477.13 457.858 1477.13 457.858L1495.76 456.357L1495.51 421.792Z" fill="white" stroke="black" stroke-width="0.621"/>
<path d="M1546.81 647.45C1546.81 647.45 1560.59 618.7 1566.4 621.772C1571.47 624.164 1567.61 646.418 1565.19 648.481L1546.81 647.45V647.45Z" fill="#5E0043" stroke="black" stroke-width="0.621"/>
<path d="M1452.37 652.584C1448.03 644.025 1441.74 620.411 1435.94 626.907C1430.86 629.299 1434.73 651.552 1437.15 653.616L1452.37 652.584Z" fill="#5E0043" stroke="black" stroke-width="0.621"/>
<path d="M1461.5 595.721C1461.5 595.721 1488.34 619.147 1497.15 619.756C1505.96 620.366 1533.88 589.342 1533.88 589.342" stroke="black" stroke-width="0.621"/>
<path d="M1464.08 503.891L1469.23 494.77L1495.01 513.318L1521.21 496.88L1526.36 504.501L1497.15 533.696L1464.08 503.891V503.891Z" fill="#5E0043" stroke="black" stroke-width="0.621"/>
<path d="M1443.61 503.399C1445.7 507.127 1462.36 535.806 1465.37 559.537C1468.37 583.268 1463.65 526.989 1463.65 526.989C1463.65 526.989 1484.26 541.293 1484.91 550.415C1485.56 559.537 1494.76 549.806 1495.21 548.234L1435.51 493.339L1443.61 503.399Z" fill="#474747" stroke="#474747" stroke-width="0.77625" stroke-linejoin="round"/>
<path d="M1545.47 501.758C1545.47 501.758 1523.78 542.208 1526.36 586.294C1521.89 565.189 1525.5 530.343 1525.5 530.343L1520.78 534.611C1520.78 534.611 1515.85 564.415 1509.6 568.964C1508.56 565.424 1508.76 564.11 1508.76 564.11C1508.76 564.11 1502.1 576.257 1500.81 577.477C1499.52 578.696 1501.24 618.537 1501.24 618.537C1501.24 618.537 1503.48 647.427 1506.04 647.122C1503.11 649.139 1499.52 652.304 1499.52 652.304L1496.85 575.202L1502.95 566.526C1502.95 566.526 1511.11 552.55 1511.76 538.855C1508.21 543.123 1504.24 544.342 1504.24 544.342C1504.24 544.342 1503.16 563.806 1499.95 566.526C1496.72 569.269 1496.64 574.358 1496.64 574.358L1495.88 548.915L1545.47 501.758V501.758Z" fill="#474747" stroke="#474747" stroke-width="0.77625" stroke-linejoin="round"/>
<path d="M1495.86 548.586L1500.06 670.22" stroke="black" stroke-width="0.77625" stroke-linecap="round"/>
<path d="M1443.03 606.67C1443.03 606.67 1452.9 614.901 1456.56 639.828C1488.77 636.475 1498.87 652.608 1498.87 652.608C1498.87 652.608 1525.28 634.669 1537.54 637.999C1541.83 625.243 1554.07 608.804 1554.07 608.804" stroke="black" stroke-width="0.621"/>
<path d="M1429.55 487.453L1495.86 548.891L1555.57 492.025C1555.57 492.025 1568.02 482.294 1566.95 475.306C1565.89 468.294 1561.58 471.038 1559.43 472.257C1557.29 473.477 1496.93 534 1496.93 534L1432.71 476.502C1432.71 476.502 1427.99 474.391 1427.13 478.636C1426.27 482.903 1428.9 485.319 1429.55 487.453V487.453Z" fill="#B4B6B9" stroke="black" stroke-width="0.621"/>
<path d="M1548.14 471.506C1548.14 471.506 1531.16 461.306 1531.16 470.146C1531.16 478.963 1531.64 479.878 1534.37 485.553C1537.09 491.204 1532.29 494.839 1532.29 494.839C1532.29 494.839 1531.64 492.353 1530.68 488.484C1529.72 484.638 1520.6 481.918 1519.8 477.392C1519.01 472.843 1521.72 465.597 1516.27 464.706C1510.84 463.791 1505.56 467.872 1504.43 476.712C1503.31 485.553 1496.27 506.165 1496.27 506.165L1497.23 459.266C1509.19 460.462 1531.38 464.167 1548.45 466.957C1543.33 465.832 1550.37 467.426 1550.22 469.912C1549.74 471.952 1547.97 472.163 1548.14 471.506V471.506Z" fill="#474747" stroke="#474747" stroke-width="0.77625" stroke-linejoin="round"/>
<path d="M1488.11 459.712C1485.08 459.712 1469.86 462.198 1466.02 465.387C1462.17 468.553 1472.26 473.524 1470.98 477.839C1469.71 482.153 1469.54 490.759 1464.74 488.954C1459.94 487.125 1443.78 475.799 1443.3 471.953C1442.81 468.107 1439.45 467.873 1439.45 467.873C1439.45 467.873 1485.87 459.032 1488.11 459.712Z" fill="#474747" stroke="#474747" stroke-width="0.77625" stroke-linejoin="round"/>
<path d="M1495.43 454.317L1495.31 511.957" stroke="black" stroke-width="0.621"/>
<path d="M1464.08 386.409C1464.08 386.409 1445.48 429.158 1445.12 430.471" stroke="black" stroke-width="0.621"/>
<path d="M1498.34 385.354C1498.34 385.354 1506.44 400.995 1505.51 405.427C1508.82 409.086 1512.52 423.695 1512.52 423.695" fill="url(#paint3_linear)"/>
<path d="M1498.34 385.354C1498.34 385.354 1506.44 400.995 1505.51 405.427C1508.82 409.086 1512.52 423.695 1512.52 423.695" stroke="black" stroke-width="0.621"/>
<path d="M1529.64 382.751C1529.64 382.751 1512.15 417.691 1512.7 420.294" stroke="black" stroke-width="0.621"/>
<path d="M1440.03 216.609C1439.64 218.563 1437.41 219.32 1435.05 218.299C1432.7 217.278 1431.11 214.867 1431.51 212.913C1431.91 210.959 1434.13 210.203 1436.49 211.224C1438.84 212.244 1440.43 214.656 1440.03 216.609Z" fill="black"/>
<path d="M1447.1 215.92C1447.5 217.874 1449.73 218.63 1452.08 217.61C1454.44 216.589 1456.02 214.178 1455.63 212.224C1455.23 210.27 1453 209.513 1450.65 210.534C1448.29 211.555 1446.71 213.966 1447.1 215.92Z" fill="black"/>
<path d="M1651.84 939.679C1651.84 939.679 1645.35 941.414 1645.56 942.259C1645.76 943.126 1626.7 943.994 1626.3 943.126C1625.89 942.259 1623.45 947.722 1623.45 947.722L1626.5 945.143C1626.5 945.143 1631.15 952.014 1632.58 951.451C1634 950.888 1631.96 954.03 1632.38 954.617C1632.78 955.179 1634.2 953.468 1634.2 953.468L1665.7 952.717L1651.84 939.679Z" fill="#FF7000" stroke="black" stroke-width="0.621" stroke-linejoin="round"/>
<path d="M1663.58 953.56L1637.84 954.615C1637.84 954.615 1631.37 962.94 1630.95 964.933C1630.56 966.95 1635.21 967.512 1635.21 967.512L1636.63 974.407L1639.88 972.695C1639.88 972.695 1661.76 977.291 1681.84 970.96C1691.98 965.941 1693.75 959.915 1686.65 956.257C1679.56 952.599 1663.78 953.701 1663.58 953.56Z" fill="#FF7000" stroke="black" stroke-width="0.77625" stroke-linejoin="round"/>
<path d="M1575.46 1028.32L1621.78 1025.39L1613.15 1015.02L1738.43 1007.87L1734.11 993.777L1593.84 1001.75L1610.72 1012.91L1572.83 1014.51L1573.96 1020.09L1564.02 1019.55C1564.02 1019.55 1575.08 1025.64 1575.46 1028.32V1028.32Z" fill="url(#paint4_linear)" stroke="black" stroke-width="0.621"/>
<path d="M1627.39 665.998C1623.7 663.395 1607.52 660.276 1589.49 676.949L1590.23 735.831C1590.23 735.831 1616.71 715.5 1629.6 720.19C1628.85 701.946 1628.85 678.52 1627.39 665.998V665.998Z" fill="url(#paint5_linear)" stroke="black" stroke-width="0.621"/>
<path d="M1371.28 844.753L1262.06 998.302" stroke="black" stroke-width="0.621"/>
<path d="M1419.96 845.881L1331.31 1011.2" stroke="black" stroke-width="0.621"/>
<path d="M1416.01 802.733L1297.68 1005.6" stroke="black" stroke-width="0.621"/>
<path d="M1294.11 1002.78L1305.59 983.739" stroke="black" stroke-width="0.621"/>
<path d="M1438.56 904.714L1392.65 994.385" stroke="black" stroke-width="0.621"/>
<path d="M1390.67 1006.16L1391.86 1040.33" stroke="black" stroke-width="0.621"/>
<path d="M1459.53 936.091L1410.86 1022.41" stroke="black" stroke-width="0.621"/>
<path d="M1450.83 1015.68L1470.62 969.718" stroke="black" stroke-width="0.621"/>
<path d="M1458.35 960.761L1434.6 998.867" stroke="black" stroke-width="0.621"/>
<path d="M1451.23 924.907L1435 952.906" stroke="black" stroke-width="0.621"/>
<path d="M1430.25 883.986C1430.25 883.986 1380.78 986.531 1381.57 994.95" stroke="black" stroke-width="0.621"/>
<path d="M1425.1 870.548C1423.92 871.65 1382.36 949.55 1382.36 949.55" stroke="black" stroke-width="0.621"/>
<path d="M1379.99 974.196L1372.47 987.093" stroke="black" stroke-width="0.621"/>
<path d="M1362.97 1006.72L1351.49 1028.01" stroke="black" stroke-width="0.621"/>
<path d="M1365.88 608.733C1365.88 608.733 1362.53 623.647 1365.88 631.104C1369.23 638.561 1390.29 698.897 1390.29 698.897C1390.29 698.897 1404.66 673.806 1409.93 673.126C1415.19 672.469 1412.79 738.222 1412.79 738.222C1412.79 738.222 1404.18 749.736 1398.91 749.056C1393.65 748.376 1411.83 774.827 1411.35 797.198C1410.87 819.569 1387.42 930.744 1378.8 932.76C1370.19 934.8 1382.63 912.429 1382.16 906.333C1381.68 900.236 1379.28 904.292 1377.37 897.515C1375.45 890.739 1380.24 880.561 1379.28 873.784C1378.33 867.008 1374.02 868.368 1373.54 863.631C1373.06 858.871 1376.41 857.534 1375.93 852.094C1375.45 846.677 1370.19 848.037 1370.67 843.276C1371.15 838.54 1371.62 840.58 1371.15 831.763C1370.67 822.946 1369.71 837.86 1364.44 838.54C1359.18 839.22 1354.87 856.174 1354.87 856.174C1354.87 856.174 1344.34 877.185 1333.8 867.688C1340.03 886.682 1335.24 894.819 1332.85 895.475C1330.45 896.155 1334.76 910.389 1329.02 911.069C1323.27 911.749 1333.33 942.937 1326.62 945.658C1333.8 950.394 1328.06 956.491 1328.06 956.491C1328.06 956.491 1311.47 958.461 1315.13 989.039C1266.3 964.628 1242.37 922.607 1242.85 879.905C1243.33 837.18 1252.9 798.558 1276.36 784.324C1283.06 749.056 1294.55 711.091 1294.55 711.091C1294.55 711.091 1292.63 695.497 1294.07 685.343C1295.51 675.166 1302.21 665.012 1302.21 665.012C1302.21 665.012 1301.25 640.601 1301.73 628.408C1302.21 616.19 1305.56 610.773 1306.04 603.997C1306.52 597.22 1304.6 562.631 1309.39 556.534C1314.18 550.438 1323.27 551.118 1328.06 547.061C1332.85 542.981 1339.07 535.524 1345.29 536.204C1351.52 536.884 1356.78 542.981 1356.78 542.981C1356.78 542.981 1380.24 542.981 1381.68 555.854C1383.11 568.752 1376.89 573.489 1376.89 573.489C1376.89 573.489 1380.24 591.803 1365.88 608.733Z" fill="#8A9396" stroke="#2B2B2B" stroke-width="0.621"/>
<path d="M1345.05 561.768C1345.81 563.733 1344.09 567.105 1341.23 569.299C1338.37 571.493 1335.44 571.678 1334.69 569.713C1333.94 567.748 1335.65 564.376 1338.51 562.182C1341.37 559.988 1344.3 559.803 1345.05 561.768Z" fill="#CECFCF" stroke="#2B2B2B" stroke-width="0.621"/>
<path d="M1341.08 565.194C1341.08 566.433 1340.28 567.438 1339.3 567.438C1338.32 567.438 1337.52 566.433 1337.52 565.194C1337.52 563.954 1338.32 562.95 1339.3 562.95C1340.28 562.95 1341.08 563.954 1341.08 565.194Z" fill="black"/>
<path d="M1376.08 587.631C1376.08 587.631 1381.89 624.4 1374.94 649.772" stroke="#2B2B2B" stroke-width="0.388125"/>
<path d="M1377.87 571.542C1377.87 571.542 1389.21 592.788 1387.75 619.216" stroke="#2B2B2B" stroke-width="0.388125"/>
<path d="M1378.96 566.877C1379.33 566.877 1388.48 578.274 1388.11 586.035" stroke="#2B2B2B" stroke-width="0.388125"/>
<path d="M1381.16 562.209C1381.16 562.209 1387.39 568.424 1388.85 574.638" stroke="#2B2B2B" stroke-width="0.388125"/>
<path d="M1378.24 558.576C1378.24 558.576 1355.92 609.884 1358.84 642.01" stroke="black" stroke-width="0.621"/>
<path d="M1379.7 557.028C1379.7 557.028 1350.06 581.908 1344.57 663.255" stroke="#2B2B2B" stroke-width="0.388125"/>
<path d="M1376.4 572.059L1364.7 584.487" stroke="black" stroke-width="0.621"/>
<path d="M1333.59 667.921C1333.59 667.921 1350.06 571.027 1379.33 557.028" stroke="#2B2B2B" stroke-width="0.388125"/>
<path d="M1390.68 700.564C1390.68 700.564 1406.42 672.589 1410.08 673.621C1413.74 674.652 1412.63 738.389 1412.63 738.389C1412.63 738.389 1400.92 750.817 1398.37 750.301C1395.8 749.785 1411.53 780.363 1411.17 791.76C1410.8 803.156 1410.44 803.156 1410.44 803.156C1410.44 803.156 1410.44 796.426 1406.78 785.546C1403.12 774.665 1405.31 762.213 1381.53 734.754C1375.67 717.659 1393.24 745.119 1396.89 740.968C1400.55 736.841 1390.31 701.08 1390.68 700.564V700.564Z" fill="#2B2B2B" stroke="#2B2B2B" stroke-width="0.621"/>
<path d="M1362.7 542.981C1362.7 542.981 1356.09 545.537 1355.19 549.36C1354.29 553.205 1350.38 557.028 1348.27 555.738C1346.17 554.472 1342.26 549.782 1342.26 549.782" stroke="#2B2B2B" stroke-width="0.621"/>
<path d="M1325.12 575.765C1325.12 575.765 1315.19 589.811 1320.01 591.523C1324.82 593.211 1329.93 580.455 1329.93 580.455C1329.93 580.455 1329.93 602.169 1334.14 598.745C1338.35 595.345 1350.68 583.011 1350.68 583.011C1350.68 583.011 1354.89 582.565 1355.79 583.011C1356.69 583.433 1367.21 596.189 1374.13 591.523C1370.22 605.991 1365.71 607.703 1365.71 607.703C1365.71 607.703 1358.49 620.905 1349.17 617.904C1339.85 614.926 1337.45 609.391 1337.45 609.391C1337.45 609.391 1329.63 610.259 1327.22 605.147C1324.82 600.035 1323.92 597.057 1323.92 597.057C1323.92 597.057 1319.41 603.435 1318.2 600.457C1317 597.479 1318.2 580.009 1325.12 575.765V575.765Z" fill="#2B2B2B" stroke="#2B2B2B" stroke-width="0.77625" stroke-linejoin="round"/>
<path d="M1381.35 556.183C1381.35 556.183 1363.01 548.515 1356.69 561.295C1350.38 574.051 1351.88 581.297 1355.19 582.564" stroke="#2B2B2B" stroke-width="0.621"/>
<path d="M1384.18 555.456C1384.18 558.518 1382.63 561 1380.72 561C1378.81 561 1377.26 558.518 1377.26 555.456C1377.26 552.394 1378.81 549.911 1380.72 549.911C1382.63 549.911 1384.18 552.394 1384.18 555.456Z" fill="black"/>
<path d="M1330.79 621.726C1330.79 621.726 1338.27 638.024 1347.19 642.503C1356.11 646.982 1341.01 650.851 1332.09 642.315C1325.62 629.887 1327.34 620.929 1327.34 620.929C1327.34 620.929 1329.07 618.467 1330.79 621.726V621.726Z" fill="#2B2B2B" stroke="#2B2B2B" stroke-width="0.621"/>
<path d="M1394.8 717.869C1394.8 717.869 1373.8 676.528 1367.76 674.276C1361.72 672.049 1372.36 670.22 1378.84 678.966C1385.31 687.713 1377.11 664.709 1377.11 664.709L1394.8 717.869Z" fill="#2B2B2B" stroke="#2B2B2B" stroke-width="0.621"/>
<path d="M1328.78 956.775C1336.83 953.727 1371.93 985.29 1379.84 993.239C1387.75 1001.17 1404.3 996.077 1404.3 996.077C1404.3 996.077 1396.66 1002.6 1391.92 1004.24C1387.18 1005.86 1406.02 1005.86 1406.02 1005.86C1406.02 1005.86 1361.14 1023.37 1315.55 989.37C1311.38 962.895 1325.33 956.986 1328.78 956.775V956.775Z" fill="#2B2B2B" stroke="#2B2B2B" stroke-width="0.77625" stroke-linejoin="round"/>
<path d="M1380.13 728.045C1380.13 728.045 1374.23 726.427 1371.21 721.526C1368.19 716.649 1363.88 704.619 1359.42 699.531C1354.96 694.442 1332.67 677.136 1324.61 678.356C1316.56 679.575 1314.11 677.136 1313.1 675.706C1312.1 674.275 1308.79 676.316 1309.36 682.225C1309.94 688.134 1303.18 701.172 1305.63 707.269C1308.07 713.389 1319.58 738.223 1321.88 739.043C1324.18 739.864 1322.74 753.512 1322.74 753.512C1322.74 753.512 1332.95 768.168 1335.54 768.988C1338.13 769.809 1340.72 772.459 1340.43 775.906C1340.14 779.377 1329.21 798.324 1329.21 798.324C1329.21 798.324 1317.42 807.071 1317.28 811.972C1317.13 816.849 1320.15 827.026 1329.5 830.286C1338.85 833.545 1364.02 830.895 1365.32 827.847C1366.61 824.799 1368.62 806.461 1367.76 804.632C1366.9 802.803 1360.71 797.292 1357.55 798.113C1354.38 798.934 1351.51 802.592 1351.79 803.412C1352.08 804.233 1347.34 807.68 1347.34 804.421C1347.34 801.161 1356.68 786.505 1357.55 787.725C1358.41 788.944 1371.64 790.773 1374.09 800.153C1376.53 809.509 1376.53 816.239 1383.44 815.231C1390.34 814.199 1399.98 805.242 1400.84 786.505C1401.7 767.769 1393.08 755.13 1390.92 753.301C1388.76 751.472 1381.57 745.351 1380.99 742.514C1380.42 739.653 1378.98 730.297 1380.13 728.045V728.045Z" fill="#2B2B2B" stroke="#2B2B2B" stroke-width="0.621"/>
<path d="M1255.71 810.753C1255.71 810.753 1278.01 802.592 1283.76 802.803C1289.52 802.991 1311.23 817.248 1317.56 826.018C1323.89 834.765 1336.84 855.542 1345.32 853.712C1353.81 851.883 1356.25 849.445 1356.25 849.445L1352.95 858.402C1352.95 858.402 1346.04 861.052 1342.59 859.833C1339.14 858.613 1332.38 855.542 1325.62 846.185C1318.86 836.805 1298 811.55 1280.31 813.379C1262.62 815.232 1252.41 839.877 1252.41 839.877C1252.41 839.877 1252.55 827.848 1253.27 825.198C1253.99 822.548 1249.53 830.896 1249.53 830.896L1255.71 810.753V810.753Z" fill="#2B2B2B" stroke="#2B2B2B" stroke-width="0.621"/>
<path d="M1337.84 835.188C1337.98 835.375 1343.45 837.415 1352.66 837.415C1361.86 837.415 1366.75 831.717 1366.75 831.717L1366.18 826.629L1367.61 819.5C1367.61 819.5 1374.66 829.677 1374.52 831.717C1374.37 833.757 1371.64 834.578 1371.64 834.578L1370.63 829.677L1368.19 833.968C1368.19 833.968 1354.81 849.023 1347.48 846.795C1340.14 844.544 1333.38 837.838 1335.25 836.196C1337.12 834.578 1338.13 835.188 1337.84 835.188V835.188Z" fill="#2B2B2B" stroke="#2B2B2B" stroke-width="0.621"/>
<path d="M1305.33 861.873C1305.33 861.873 1297.28 861.662 1293.68 864.101C1290.09 866.539 1288.79 869.611 1286.35 869.189C1283.9 868.79 1282.03 864.312 1282.75 862.483C1283.76 859.622 1288.51 855.963 1297.57 856.972C1306.63 858.004 1305.33 861.873 1305.33 861.873V861.873Z" fill="#2B2B2B" stroke="#2B2B2B" stroke-width="0.621"/>
<path d="M1333.53 892.827C1333.53 892.217 1332.95 876.131 1328.49 869.612C1324.03 863.093 1318.57 863.093 1316.12 863.89C1313.68 864.711 1325.18 871.839 1326.33 876.529C1327.49 881.219 1331.22 894.257 1330.22 897.517C1329.21 900.753 1327.34 888.348 1320.29 884.877C1313.25 881.407 1303.46 883.259 1305.48 887.738C1307.49 892.217 1315.4 888.137 1319.43 897.704C1323.46 907.272 1326.48 917.472 1326.48 917.472L1327.77 910.531L1331.37 909.124L1331.8 895.875L1333.53 892.827V892.827Z" fill="#2B2B2B" stroke="#2B2B2B" stroke-width="0.621"/>
<path d="M1327.77 944.956L1320.44 924.179C1320.44 924.179 1318.14 910.954 1311.95 907.272C1305.77 903.614 1297.57 904.224 1297.42 908.703C1297.28 913.182 1310.66 918.88 1311.52 921.342C1312.38 923.781 1311.95 927.861 1310.8 928.049C1309.65 928.26 1303.75 925 1300.73 926.008C1297.71 927.04 1295.99 932.527 1291.53 930.909C1287.07 929.268 1283.33 909.125 1285.06 907.085C1286.78 905.044 1281.75 910.743 1280.74 905.443C1279.73 900.143 1282.18 883.658 1280.45 881.618C1278.73 879.578 1270.38 872.45 1270.24 871.019C1270.1 869.612 1270.67 789.977 1317.7 855.964C1297.57 822.15 1289.66 825.808 1285.92 825.621C1283.19 825.621 1264.92 827.848 1260.32 860.842C1255.71 893.836 1250.25 873.27 1250.25 873.27C1250.25 873.27 1249.24 887.528 1254.13 891.608C1259.02 895.665 1251.83 907.483 1251.83 907.483C1251.83 907.483 1243.06 877.139 1244.35 863.89C1242.62 874.49 1242.77 900.753 1253.84 929.479C1266.79 948.825 1279.01 966.764 1311.52 986.907C1328.64 949.857 1327.77 945.378 1327.77 944.956Z" fill="#2B2B2B" stroke="#2B2B2B" stroke-width="0.77625" stroke-linejoin="round"/>
<path d="M1297 945.166C1297 945.166 1306.49 946.784 1309.08 953.725C1311.67 960.643 1312.82 971.242 1312.82 971.242C1314.4 966.763 1315.12 962.894 1318.28 959.635C1321.45 956.375 1323.75 955.953 1323.6 953.514C1323.46 951.075 1313.54 936.208 1308.5 935.387C1303.47 934.567 1294.69 943.126 1294.69 943.126C1294.69 943.126 1293.11 946.385 1297 945.166Z" fill="#8A9396" stroke="#2B2B2B" stroke-width="0.77625" stroke-linejoin="round"/>
<path d="M1318.68 980.199C1318.68 980.199 1343.28 996.075 1383.8 997.106" stroke="#8A9396" stroke-width="0.77625" stroke-linecap="round"/>
<path d="M1400.8 818.49C1400.8 818.49 1398.7 847.732 1382.82 905.418" stroke="#2B2B2B" stroke-width="0.77625" stroke-linecap="round"/>
<path d="M1397.64 836.475C1397.64 836.475 1392.87 857.463 1379.64 873.197" stroke="#2B2B2B" stroke-width="0.621"/>
<path d="M1325.72 1199.41L1329.98 1192.59L1331.35 1194.29L1330.97 1194.89C1330.76 1195.23 1330.64 1195.45 1330.61 1195.57C1330.56 1195.79 1330.56 1196 1330.61 1196.19C1330.66 1196.38 1330.79 1196.61 1331 1196.88L1336.64 1203.93C1336.86 1204.21 1337.01 1204.37 1337.08 1204.41C1337.15 1204.44 1337.23 1204.43 1337.32 1204.38C1337.41 1204.32 1337.54 1204.16 1337.7 1203.89C1338.26 1202.99 1338.63 1202.17 1338.8 1201.43C1338.98 1200.67 1339.02 1199.85 1338.93 1198.97C1338.83 1198.07 1338.57 1197.07 1338.14 1195.97L1339.73 1194.69L1342.23 1201.09L1335.58 1211.75L1334.22 1210.04L1334.64 1209.37C1334.81 1209.1 1334.91 1208.86 1334.95 1208.65C1334.98 1208.45 1334.98 1208.26 1334.93 1208.1C1334.88 1207.92 1334.75 1207.69 1334.53 1207.42L1328.95 1200.43C1328.71 1200.14 1328.52 1199.96 1328.38 1199.9C1328.24 1199.83 1328.1 1199.82 1327.98 1199.89C1327.86 1199.94 1327.72 1200.1 1327.55 1200.38L1327.09 1201.12L1325.72 1199.41L1325.72 1199.41Z" fill="black"/>
<path d="M1335.06 1184.64L1342.86 1173.71L1346.85 1176.4L1346.07 1178.72C1345.39 1178.32 1344.76 1178.11 1344.19 1178.08C1343.63 1178.04 1343.13 1178.19 1342.7 1178.53C1342.28 1178.85 1341.84 1179.33 1341.4 1179.95L1339.97 1181.95L1342.28 1185.25L1342.75 1184.59C1343.1 1184.1 1343.31 1183.73 1343.39 1183.49C1343.46 1183.24 1343.47 1183 1343.42 1182.77C1343.36 1182.54 1343.17 1182.19 1342.85 1181.73L1342.49 1181.23L1343.69 1179.56L1347.6 1185.16L1346.41 1186.83L1346.01 1186.26C1345.74 1185.87 1345.51 1185.64 1345.32 1185.56C1345.13 1185.47 1344.96 1185.47 1344.81 1185.56C1344.65 1185.65 1344.38 1185.97 1343.99 1186.51L1343.57 1187.1L1345.69 1190.14C1345.92 1190.46 1346.07 1190.64 1346.14 1190.68C1346.21 1190.72 1346.29 1190.71 1346.38 1190.66C1346.47 1190.61 1346.63 1190.43 1346.84 1190.13L1347.63 1189.03C1348.21 1188.21 1348.62 1187.4 1348.86 1186.6C1349.1 1185.8 1349.19 1184.91 1349.13 1183.95C1349.08 1182.97 1348.88 1182 1348.54 1181.04L1350.19 1179.92L1352.4 1186.55L1344.31 1197.88L1343.03 1196.05L1343.27 1195.72C1343.58 1195.28 1343.77 1194.96 1343.83 1194.74C1343.89 1194.53 1343.89 1194.31 1343.83 1194.09C1343.78 1193.96 1343.61 1193.68 1343.3 1193.24L1338.25 1186.02C1337.98 1185.63 1337.78 1185.4 1337.66 1185.34C1337.54 1185.27 1337.42 1185.26 1337.3 1185.32C1337.17 1185.37 1336.99 1185.56 1336.75 1185.89L1336.34 1186.47L1335.06 1184.64L1335.06 1184.64Z" fill="black"/>
<path d="M1351.52 1162.32C1353.1 1160.4 1354.8 1159.53 1356.6 1159.71C1358.41 1159.89 1359.97 1161.05 1361.26 1163.19C1362.13 1164.63 1362.68 1166.18 1362.91 1167.84C1363.13 1169.5 1363.03 1171.12 1362.61 1172.69C1362.18 1174.25 1361.41 1175.7 1360.29 1177.06C1358.81 1178.84 1357.26 1179.73 1355.62 1179.72C1353.65 1179.71 1351.96 1178.55 1350.56 1176.23C1349.25 1174.07 1348.68 1171.7 1348.85 1169.12C1349.02 1166.54 1349.91 1164.27 1351.52 1162.32V1162.32ZM1352.91 1164.54C1352.15 1165.46 1351.79 1166.6 1351.82 1167.95C1351.87 1169.64 1352.38 1171.29 1353.35 1172.9C1354.32 1174.5 1355.35 1175.45 1356.44 1175.75C1357.37 1176 1358.21 1175.67 1358.96 1174.77C1359.71 1173.86 1360.07 1172.73 1360.03 1171.39C1359.99 1169.79 1359.48 1168.2 1358.52 1166.6C1357.84 1165.48 1357.16 1164.67 1356.46 1164.19C1355.78 1163.69 1355.13 1163.49 1354.51 1163.58C1353.9 1163.67 1353.36 1163.99 1352.91 1164.54H1352.91Z" fill="black"/>
<path d="M1365.81 1145.86L1366.83 1144.85L1367.2 1145.26L1373.29 1139.26L1373.17 1138.62L1374.2 1137.6L1378.17 1141.65L1377.08 1143.78C1376.32 1143.2 1375.81 1142.85 1375.54 1142.71C1375 1142.45 1374.48 1142.34 1373.97 1142.38C1373.59 1142.41 1373.26 1142.56 1373 1142.82C1372.88 1142.94 1372.81 1143.07 1372.81 1143.2C1372.8 1143.33 1372.87 1143.54 1373.02 1143.84L1377.34 1152.63C1377.59 1153.15 1377.77 1153.46 1377.86 1153.57C1377.95 1153.68 1378.04 1153.74 1378.14 1153.76C1378.24 1153.77 1378.35 1153.74 1378.48 1153.66C1378.6 1153.58 1378.89 1153.3 1379.36 1152.84L1380.4 1154.95L1375.13 1160.14L1374.09 1158.02L1374.41 1157.71C1374.76 1157.37 1374.97 1157.11 1375.04 1156.96C1375.11 1156.8 1375.13 1156.61 1375.11 1156.41C1375.08 1156.2 1374.94 1155.84 1374.7 1155.35L1370.28 1146.36C1370.16 1146.1 1370.06 1145.96 1369.98 1145.93C1369.91 1145.91 1369.81 1145.96 1369.67 1146.09C1369.4 1146.36 1369.17 1146.8 1368.98 1147.41C1368.79 1148.02 1368.7 1148.71 1368.69 1149.48C1368.69 1149.79 1368.75 1150.58 1368.88 1151.85L1367.11 1152.53L1365.81 1145.86H1365.81Z" fill="black"/>
<path d="M1377.78 1135.01L1387.17 1126.96L1390.6 1130.9L1389.46 1132.89C1388.86 1132.28 1388.29 1131.87 1387.74 1131.65C1387.2 1131.43 1386.69 1131.41 1386.22 1131.6C1385.75 1131.77 1385.25 1132.09 1384.72 1132.55L1383 1134.02L1384.7 1137.99L1385.26 1137.51C1385.69 1137.15 1385.95 1136.86 1386.06 1136.65C1386.18 1136.43 1386.22 1136.2 1386.21 1135.96C1386.19 1135.72 1386.07 1135.32 1385.83 1134.76L1385.57 1134.16L1387.01 1132.92L1389.89 1139.66L1388.45 1140.89L1388.16 1140.21C1387.96 1139.74 1387.77 1139.44 1387.6 1139.3C1387.44 1139.15 1387.27 1139.09 1387.1 1139.13C1386.94 1139.17 1386.62 1139.39 1386.16 1139.79L1385.65 1140.22L1387.21 1143.88C1387.38 1144.27 1387.49 1144.49 1387.56 1144.55C1387.62 1144.61 1387.7 1144.63 1387.79 1144.61C1387.89 1144.59 1388.07 1144.47 1388.33 1144.25L1389.27 1143.44C1389.98 1142.83 1390.51 1142.18 1390.88 1141.49C1391.24 1140.78 1391.47 1139.95 1391.58 1139C1391.68 1138.03 1391.65 1137.02 1391.48 1135.97L1393.27 1135.42L1394.32 1142.61L1384.59 1150.95L1383.65 1148.75L1383.93 1148.5C1384.31 1148.18 1384.55 1147.93 1384.64 1147.74C1384.74 1147.55 1384.77 1147.34 1384.75 1147.1C1384.72 1146.97 1384.6 1146.63 1384.37 1146.1L1380.66 1137.42C1380.46 1136.94 1380.3 1136.66 1380.19 1136.55C1380.08 1136.45 1379.97 1136.4 1379.84 1136.41C1379.71 1136.42 1379.51 1136.55 1379.22 1136.79L1378.72 1137.22L1377.78 1135.01L1377.78 1135.01Z" fill="black"/>
<path d="M1391.09 1123.74L1398.28 1118.44C1398.74 1118.1 1399.27 1117.78 1399.86 1117.5C1400.46 1117.21 1401.05 1117.11 1401.64 1117.19C1402.23 1117.26 1402.77 1117.51 1403.24 1117.95C1403.71 1118.39 1404.09 1118.99 1404.37 1119.76C1404.83 1121.02 1404.89 1122.27 1404.54 1123.52C1404.19 1124.76 1403.63 1125.82 1402.85 1126.69L1406.71 1128.88L1406.87 1128.98C1407.13 1129.14 1407.35 1129.23 1407.52 1129.27C1407.7 1129.31 1407.86 1129.3 1408.01 1129.26C1408.16 1129.22 1408.35 1129.12 1408.57 1128.95L1409.08 1128.58L1409.92 1130.87L1406.18 1133.62L1399.81 1129.26L1398.84 1129.98L1400.05 1133.27C1400.26 1133.84 1400.42 1134.19 1400.52 1134.31C1400.62 1134.43 1400.73 1134.49 1400.85 1134.5C1400.98 1134.5 1401.19 1134.39 1401.49 1134.17L1402.02 1133.78L1402.86 1136.06L1397.16 1140.26L1396.32 1137.98L1396.83 1137.6C1397.11 1137.39 1397.29 1137.21 1397.37 1137.05C1397.45 1136.88 1397.49 1136.69 1397.49 1136.48C1397.48 1136.37 1397.39 1136.06 1397.2 1135.56L1393.79 1126.26C1393.66 1125.9 1393.54 1125.66 1393.44 1125.54C1393.34 1125.41 1393.24 1125.36 1393.12 1125.38C1392.96 1125.39 1392.79 1125.46 1392.62 1125.59L1392.39 1125.77L1391.95 1126.09L1391.09 1123.74L1391.09 1123.74ZM1396.38 1123.28L1397.95 1127.56L1399.69 1126.28C1400.37 1125.78 1400.84 1125.32 1401.11 1124.9C1401.39 1124.47 1401.55 1124.03 1401.59 1123.57C1401.64 1123.11 1401.58 1122.65 1401.41 1122.17C1401.25 1121.74 1401.03 1121.43 1400.76 1121.24C1400.48 1121.04 1400.17 1120.97 1399.82 1121.04C1399.48 1121.1 1398.97 1121.38 1398.31 1121.87L1396.38 1123.28L1396.38 1123.28Z" fill="black"/>
<path d="M1405.95 1112.96L1413.38 1108.35C1413.86 1108.05 1414.4 1107.79 1415 1107.56C1415.61 1107.33 1416.21 1107.28 1416.79 1107.42C1417.38 1107.55 1417.9 1107.85 1418.35 1108.33C1418.8 1108.81 1419.15 1109.45 1419.4 1110.25C1419.8 1111.54 1419.79 1112.8 1419.39 1114.01C1418.98 1115.22 1418.37 1116.22 1417.56 1117.02L1421.3 1119.56L1421.46 1119.68C1421.71 1119.86 1421.92 1119.98 1422.09 1120.03C1422.27 1120.08 1422.43 1120.09 1422.58 1120.07C1422.73 1120.04 1422.92 1119.96 1423.16 1119.81L1423.68 1119.49L1424.41 1121.85L1420.55 1124.24L1414.4 1119.29L1413.4 1119.92L1414.45 1123.32C1414.63 1123.9 1414.77 1124.27 1414.87 1124.4C1414.96 1124.53 1415.07 1124.6 1415.19 1124.62C1415.32 1124.63 1415.54 1124.54 1415.84 1124.35L1416.4 1124.01L1417.13 1126.37L1411.23 1130.02L1410.5 1127.66L1411.04 1127.33C1411.32 1127.16 1411.51 1126.99 1411.6 1126.84C1411.69 1126.67 1411.74 1126.49 1411.74 1126.28C1411.74 1126.17 1411.66 1125.85 1411.5 1125.34L1408.53 1115.73C1408.42 1115.36 1408.31 1115.11 1408.22 1114.98C1408.13 1114.84 1408.02 1114.78 1407.91 1114.79C1407.74 1114.79 1407.57 1114.84 1407.39 1114.95L1407.16 1115.12L1406.71 1115.39L1405.95 1112.96H1405.95ZM1411.26 1113.01L1412.63 1117.42L1414.42 1116.31C1415.12 1115.88 1415.61 1115.46 1415.9 1115.07C1416.2 1114.66 1416.38 1114.23 1416.44 1113.78C1416.52 1113.33 1416.48 1112.86 1416.33 1112.37C1416.19 1111.92 1415.98 1111.59 1415.72 1111.38C1415.46 1111.15 1415.15 1111.05 1414.8 1111.09C1414.45 1111.12 1413.93 1111.35 1413.25 1111.77L1411.26 1113.01H1411.26Z" fill="black"/>
<path d="M1425.75 1101.31L1428.52 1099.87L1435.71 1111.47C1436.1 1112.08 1436.39 1112.43 1436.59 1112.52C1436.79 1112.61 1437.1 1112.54 1437.52 1112.31L1438.14 1114.73L1432.29 1117.75L1431.67 1115.33L1432.02 1115.14C1432.35 1114.97 1432.56 1114.79 1432.66 1114.61C1432.76 1114.42 1432.78 1114.23 1432.74 1114.06C1432.7 1113.91 1432.56 1113.62 1432.33 1113.21L1431.55 1111.81L1427.79 1113.75L1427.78 1115.76C1427.79 1116.19 1427.8 1116.46 1427.83 1116.57C1427.87 1116.71 1427.93 1116.81 1428.02 1116.89C1428.12 1116.96 1428.26 1116.98 1428.42 1116.95C1428.53 1116.93 1428.81 1116.81 1429.27 1116.57L1429.89 1118.99L1425.11 1121.47L1424.48 1119.04C1424.79 1118.89 1425.01 1118.73 1425.13 1118.58C1425.25 1118.44 1425.34 1118.26 1425.39 1118.07C1425.44 1117.87 1425.47 1117.53 1425.48 1117.07L1425.75 1101.31L1425.75 1101.31ZM1427.79 1110.92L1430.27 1109.65L1427.82 1105.45L1427.79 1110.92L1427.79 1110.92Z" fill="black"/>
<path d="M1436.01 1096.07L1441.73 1093.74L1446.13 1103.74L1446.2 1091.92L1452.01 1089.55L1452.52 1092.02L1451.89 1092.28C1451.55 1092.42 1451.34 1092.62 1451.25 1092.87C1451.16 1093.12 1451.17 1093.53 1451.29 1094.08L1453.35 1104.25C1453.44 1104.69 1453.52 1104.96 1453.58 1105.06C1453.67 1105.21 1453.77 1105.3 1453.88 1105.33C1454.03 1105.37 1454.22 1105.35 1454.43 1105.27L1455.15 1104.97L1455.65 1107.45L1449.57 1109.93L1449.07 1107.45L1449.54 1107.26C1449.88 1107.12 1450.11 1106.99 1450.21 1106.86C1450.32 1106.73 1450.38 1106.58 1450.41 1106.41C1450.43 1106.22 1450.4 1105.91 1450.32 1105.48L1448.08 1094.47L1448.01 1110.56L1446.26 1111.28L1440.36 1098.13L1442.57 1109.01C1442.62 1109.26 1442.69 1109.44 1442.78 1109.56C1442.88 1109.67 1442.99 1109.74 1443.12 1109.77C1443.25 1109.78 1443.45 1109.74 1443.71 1109.64L1444.32 1109.39L1444.82 1111.86L1439.65 1113.97L1439.14 1111.5L1439.65 1111.29C1439.97 1111.16 1440.18 1111.03 1440.28 1110.91C1440.38 1110.77 1440.45 1110.61 1440.46 1110.42C1440.49 1110.21 1440.45 1109.87 1440.36 1109.4L1438.32 1099.37C1438.22 1098.91 1438.14 1098.62 1438.07 1098.5C1437.98 1098.33 1437.87 1098.23 1437.74 1098.18C1437.62 1098.14 1437.44 1098.17 1437.2 1098.27L1436.51 1098.55L1436.01 1096.07L1436.01 1096.07Z" fill="black"/>
<path d="M1462.3 1086.29L1469.13 1084.48C1470 1084.26 1470.73 1084.19 1471.33 1084.3C1471.94 1084.39 1472.48 1084.64 1472.96 1085.04C1473.44 1085.43 1473.84 1085.95 1474.15 1086.59C1474.47 1087.23 1474.67 1087.93 1474.78 1088.71C1474.98 1090.28 1474.73 1091.7 1474.02 1092.99C1473.31 1094.27 1472.21 1095.11 1470.71 1095.51L1468.51 1096.09L1468.96 1099.52C1469.01 1099.95 1469.07 1100.21 1469.13 1100.31C1469.21 1100.46 1469.31 1100.57 1469.43 1100.61C1469.56 1100.66 1469.76 1100.65 1470.03 1100.58L1470.69 1100.4L1471.02 1102.94L1464.72 1104.61L1464.38 1102.07L1464.82 1101.96C1465.2 1101.86 1465.45 1101.75 1465.56 1101.64C1465.68 1101.53 1465.75 1101.38 1465.78 1101.2C1465.82 1101.01 1465.8 1100.65 1465.73 1100.11L1464.4 1090.04C1464.32 1089.48 1464.25 1089.12 1464.18 1088.96C1464.1 1088.79 1464.01 1088.68 1463.89 1088.63C1463.77 1088.57 1463.56 1088.58 1463.26 1088.66L1462.64 1088.83L1462.3 1086.29L1462.3 1086.29ZM1467.44 1088.03L1468.13 1093.23L1469.23 1092.94C1469.91 1092.76 1470.39 1092.53 1470.68 1092.26C1470.97 1091.97 1471.18 1091.6 1471.32 1091.15C1471.45 1090.69 1471.49 1090.18 1471.41 1089.62C1471.3 1088.77 1470.99 1088.17 1470.46 1087.8C1470.07 1087.52 1469.55 1087.47 1468.88 1087.65L1467.44 1088.03L1467.44 1088.03Z" fill="black"/>
<path d="M1476.26 1082.68L1484.31 1081.25C1484.83 1081.16 1485.4 1081.13 1486.02 1081.15C1486.65 1081.18 1487.23 1081.37 1487.76 1081.73C1488.3 1082.1 1488.74 1082.6 1489.08 1083.24C1489.41 1083.88 1489.62 1084.63 1489.69 1085.5C1489.82 1086.9 1489.56 1088.11 1488.93 1089.11C1488.3 1090.1 1487.51 1090.81 1486.57 1091.25L1489.64 1095.2L1489.77 1095.38C1489.97 1095.65 1490.15 1095.84 1490.31 1095.97C1490.47 1096.08 1490.62 1096.16 1490.77 1096.2C1490.92 1096.23 1491.12 1096.23 1491.38 1096.19L1491.94 1096.09L1492.16 1098.64L1487.98 1099.38L1483.08 1092.16L1482 1092.35L1482.32 1096.03C1482.38 1096.67 1482.44 1097.07 1482.51 1097.24C1482.57 1097.4 1482.66 1097.51 1482.77 1097.58C1482.89 1097.64 1483.12 1097.64 1483.45 1097.58L1484.05 1097.48L1484.27 1100.04L1477.89 1101.16L1477.66 1098.61L1478.24 1098.5C1478.55 1098.45 1478.76 1098.37 1478.88 1098.26C1479 1098.14 1479.09 1097.98 1479.13 1097.78C1479.15 1097.67 1479.14 1097.34 1479.09 1096.78L1478.17 1086.38C1478.14 1085.97 1478.09 1085.69 1478.02 1085.53C1477.96 1085.36 1477.88 1085.26 1477.77 1085.22C1477.61 1085.15 1477.44 1085.13 1477.24 1085.17L1476.98 1085.23L1476.49 1085.31L1476.26 1082.68L1476.26 1082.68ZM1481.34 1084.86L1481.76 1089.65L1483.7 1089.3C1484.46 1089.17 1485.02 1088.97 1485.38 1088.71C1485.74 1088.44 1486 1088.1 1486.15 1087.7C1486.31 1087.29 1486.37 1086.83 1486.32 1086.3C1486.28 1085.81 1486.15 1085.41 1485.94 1085.1C1485.74 1084.78 1485.46 1084.56 1485.11 1084.45C1484.78 1084.34 1484.23 1084.35 1483.49 1084.48L1481.34 1084.86L1481.34 1084.86Z" fill="black"/>
<path d="M1499.93 1078.99C1502.02 1078.82 1503.74 1079.58 1505.1 1081.28C1506.46 1082.97 1507.2 1085.22 1507.32 1088.04C1507.39 1089.93 1507.16 1091.64 1506.63 1093.15C1506.1 1094.66 1505.33 1095.86 1504.32 1096.75C1503.32 1097.62 1502.08 1098.12 1500.61 1098.24C1498.67 1098.39 1497.05 1097.77 1495.76 1096.35C1494.19 1094.65 1493.34 1092.28 1493.22 1089.23C1493.11 1086.39 1493.67 1084.02 1494.9 1082.11C1496.14 1080.2 1497.82 1079.16 1499.93 1078.99V1078.99ZM1500.09 1081.95C1499.09 1082.03 1498.32 1082.62 1497.77 1083.73C1497.08 1085.12 1496.78 1086.87 1496.87 1088.97C1496.95 1091.08 1497.36 1092.72 1498.1 1093.89C1498.74 1094.89 1499.55 1095.35 1500.53 1095.27C1501.52 1095.19 1502.28 1094.61 1502.83 1093.51C1503.48 1092.2 1503.76 1090.5 1503.67 1088.4C1503.61 1086.92 1503.41 1085.7 1503.07 1084.72C1502.74 1083.74 1502.3 1083.02 1501.78 1082.56C1501.25 1082.1 1500.69 1081.9 1500.09 1081.95L1500.09 1081.95Z" fill="black"/>
<path d="M1509.96 1078.68L1516.91 1078.74C1517.79 1078.75 1518.52 1078.88 1519.1 1079.14C1519.68 1079.4 1520.18 1079.79 1520.59 1080.31C1521.01 1080.83 1521.34 1081.44 1521.56 1082.16C1521.78 1082.86 1521.89 1083.61 1521.89 1084.4C1521.88 1086 1521.44 1087.33 1520.57 1088.4C1519.7 1089.47 1518.51 1090 1516.99 1089.98L1514.74 1089.97L1514.73 1093.45C1514.73 1093.89 1514.75 1094.16 1514.79 1094.28C1514.85 1094.45 1514.93 1094.57 1515.04 1094.66C1515.16 1094.74 1515.36 1094.78 1515.64 1094.78L1516.31 1094.79L1516.3 1097.36L1509.88 1097.31L1509.89 1094.73L1510.34 1094.74C1510.73 1094.74 1510.99 1094.7 1511.11 1094.62C1511.24 1094.54 1511.33 1094.42 1511.39 1094.25C1511.44 1094.07 1511.47 1093.71 1511.48 1093.17L1511.52 1082.93C1511.52 1082.36 1511.5 1081.98 1511.45 1081.8C1511.4 1081.62 1511.32 1081.48 1511.21 1081.4C1511.1 1081.31 1510.89 1081.27 1510.58 1081.26L1509.95 1081.26L1509.96 1078.68L1509.96 1078.68ZM1514.78 1081.77L1514.76 1087.05L1515.88 1087.06C1516.56 1087.07 1517.07 1086.98 1517.39 1086.78C1517.71 1086.58 1517.97 1086.28 1518.17 1085.87C1518.36 1085.45 1518.46 1084.96 1518.46 1084.39C1518.47 1083.53 1518.24 1082.85 1517.78 1082.35C1517.43 1081.98 1516.92 1081.78 1516.24 1081.78L1514.78 1081.77L1514.78 1081.77Z" fill="black"/>
<path d="M1524.21 1078.89L1532.3 1079.68C1532.82 1079.73 1533.39 1079.86 1533.99 1080.05C1534.61 1080.24 1535.15 1080.59 1535.63 1081.09C1536.11 1081.59 1536.47 1082.2 1536.71 1082.92C1536.95 1083.64 1537.05 1084.44 1537.01 1085.31C1536.94 1086.72 1536.53 1087.83 1535.77 1088.64C1535.02 1089.44 1534.15 1089.93 1533.17 1090.1L1535.65 1094.82L1535.75 1095.03C1535.91 1095.35 1536.06 1095.59 1536.2 1095.75C1536.34 1095.91 1536.48 1096.02 1536.62 1096.1C1536.76 1096.18 1536.96 1096.23 1537.21 1096.25L1537.78 1096.31L1537.65 1098.88L1533.45 1098.47L1529.62 1090.05L1528.53 1089.94L1528.35 1093.65C1528.32 1094.29 1528.32 1094.7 1528.37 1094.88C1528.41 1095.05 1528.48 1095.19 1528.58 1095.29C1528.69 1095.38 1528.91 1095.44 1529.24 1095.48L1529.85 1095.53L1529.72 1098.11L1523.3 1097.48L1523.43 1094.91L1524.01 1094.97C1524.32 1095 1524.54 1094.97 1524.67 1094.9C1524.81 1094.81 1524.91 1094.68 1524.98 1094.5C1525.02 1094.39 1525.05 1094.06 1525.08 1093.5L1525.59 1083.04C1525.61 1082.64 1525.59 1082.34 1525.55 1082.17C1525.52 1081.99 1525.45 1081.87 1525.34 1081.8C1525.2 1081.69 1525.03 1081.62 1524.83 1081.61L1524.57 1081.59L1524.08 1081.55L1524.21 1078.89L1524.21 1078.89ZM1528.9 1082.42L1528.66 1087.23L1530.61 1087.42C1531.38 1087.49 1531.95 1087.45 1532.34 1087.29C1532.73 1087.12 1533.03 1086.86 1533.24 1086.51C1533.45 1086.15 1533.57 1085.71 1533.59 1085.18C1533.62 1084.69 1533.55 1084.26 1533.38 1083.9C1533.22 1083.53 1532.98 1083.24 1532.66 1083.04C1532.34 1082.84 1531.81 1082.7 1531.06 1082.63L1528.9 1082.42L1528.9 1082.42Z" fill="black"/>
<path d="M1540.47 1080.7L1546.84 1081.8L1546.62 1084.35L1546.04 1084.25C1545.7 1084.2 1545.47 1084.2 1545.35 1084.27C1545.24 1084.33 1545.15 1084.45 1545.08 1084.63C1545.01 1084.8 1544.96 1085.14 1544.91 1085.65L1544.03 1095.88C1543.99 1096.44 1543.98 1096.8 1544.01 1096.97C1544.04 1097.14 1544.1 1097.26 1544.2 1097.35C1544.33 1097.48 1544.52 1097.57 1544.78 1097.61L1545.47 1097.73L1545.25 1100.29L1538.89 1099.2L1539.11 1096.64L1539.62 1096.73C1539.99 1096.79 1540.23 1096.79 1540.35 1096.74C1540.47 1096.68 1540.56 1096.58 1540.63 1096.43C1540.7 1096.27 1540.75 1095.95 1540.79 1095.46L1541.67 1085.19C1541.72 1084.61 1541.73 1084.23 1541.69 1084.05C1541.65 1083.85 1541.58 1083.69 1541.46 1083.58C1541.38 1083.49 1541.17 1083.42 1540.83 1083.36L1540.25 1083.26L1540.47 1080.7L1540.47 1080.7Z" fill="black"/>
<path d="M1554.15 1083.39L1557.06 1084.1L1559.22 1099.23C1559.34 1100.03 1559.47 1100.54 1559.61 1100.76C1559.76 1100.97 1560.05 1101.13 1560.49 1101.23L1560.18 1103.77L1554.05 1102.27L1554.36 1099.73L1554.73 1099.81C1555.07 1099.89 1555.32 1099.89 1555.47 1099.8C1555.62 1099.7 1555.71 1099.56 1555.73 1099.37C1555.75 1099.22 1555.73 1098.88 1555.67 1098.36L1555.5 1096.59L1551.55 1095.63L1550.84 1097.36C1550.69 1097.74 1550.61 1097.98 1550.59 1098.11C1550.58 1098.25 1550.6 1098.38 1550.65 1098.51C1550.71 1098.64 1550.82 1098.76 1550.97 1098.85C1551.07 1098.91 1551.36 1099 1551.84 1099.11L1551.53 1101.65L1546.51 1100.43L1546.82 1097.89C1547.14 1097.97 1547.38 1097.98 1547.54 1097.94C1547.7 1097.9 1547.84 1097.81 1547.95 1097.68C1548.07 1097.54 1548.21 1097.27 1548.38 1096.87L1554.15 1083.39H1554.15ZM1552.54 1093.17L1555.14 1093.81L1554.49 1088.45L1552.54 1093.17L1552.54 1093.17Z" fill="black"/>
<path d="M1565.03 1086.1L1570.8 1088.16L1571.07 1099.94L1575.31 1089.76L1581.19 1091.85L1580.74 1094.35L1580.11 1094.12C1579.77 1094 1579.51 1094.02 1579.34 1094.18C1579.18 1094.33 1579.05 1094.69 1578.95 1095.25L1577.13 1105.51C1577.05 1105.96 1577.02 1106.25 1577.04 1106.37C1577.06 1106.56 1577.11 1106.71 1577.2 1106.82C1577.32 1106.97 1577.48 1107.08 1577.7 1107.16L1578.42 1107.42L1577.98 1109.92L1571.84 1107.73L1572.29 1105.23L1572.76 1105.4C1573.11 1105.53 1573.35 1105.57 1573.49 1105.54C1573.62 1105.5 1573.73 1105.42 1573.82 1105.28C1573.91 1105.14 1573.99 1104.85 1574.07 1104.42L1576.04 1093.31L1570.27 1107.17L1568.51 1106.55L1568.07 1090.98L1566.12 1101.97C1566.07 1102.22 1566.07 1102.42 1566.11 1102.58C1566.15 1102.74 1566.22 1102.88 1566.32 1103C1566.43 1103.12 1566.62 1103.22 1566.88 1103.31L1567.49 1103.53L1567.05 1106.03L1561.83 1104.17L1562.27 1101.67L1562.78 1101.85C1563.11 1101.97 1563.33 1102.01 1563.46 1101.97C1563.6 1101.93 1563.71 1101.83 1563.8 1101.68C1563.89 1101.52 1563.98 1101.2 1564.06 1100.73L1565.86 1090.6C1565.94 1090.13 1565.97 1089.82 1565.96 1089.67C1565.94 1089.46 1565.88 1089.29 1565.78 1089.16C1565.69 1089.04 1565.52 1088.93 1565.28 1088.85L1564.59 1088.6L1565.03 1086.1L1565.03 1086.1Z" fill="black"/>
<path d="M1591.43 1096.52L1597.95 1099.9C1598.78 1100.33 1599.44 1100.8 1599.92 1101.33C1600.4 1101.84 1600.78 1102.45 1601.05 1103.13C1601.32 1103.82 1601.47 1104.56 1601.51 1105.34C1601.55 1106.11 1601.48 1106.87 1601.29 1107.61C1600.9 1109.11 1600.17 1110.15 1599.09 1110.74C1598.02 1111.33 1596.77 1111.26 1595.34 1110.52L1593.24 1109.43L1592.39 1112.7C1592.29 1113.11 1592.24 1113.38 1592.25 1113.51C1592.26 1113.7 1592.31 1113.86 1592.4 1113.99C1592.49 1114.12 1592.67 1114.26 1592.93 1114.39L1593.56 1114.72L1592.93 1117.14L1586.91 1114.02L1587.54 1111.6L1587.95 1111.81C1588.32 1112 1588.57 1112.09 1588.71 1112.08C1588.84 1112.06 1588.96 1111.99 1589.05 1111.86C1589.15 1111.72 1589.26 1111.39 1589.4 1110.88L1591.88 1101.26C1592.02 1100.73 1592.08 1100.36 1592.08 1100.17C1592.08 1099.97 1592.03 1099.81 1591.95 1099.68C1591.87 1099.54 1591.68 1099.4 1591.39 1099.25L1590.8 1098.94L1591.43 1096.52L1591.43 1096.52ZM1595.22 1101.73L1593.94 1106.69L1595 1107.24C1595.64 1107.57 1596.14 1107.73 1596.48 1107.7C1596.83 1107.66 1597.15 1107.5 1597.43 1107.21C1597.72 1106.91 1597.93 1106.49 1598.07 1105.96C1598.28 1105.16 1598.22 1104.41 1597.9 1103.71C1597.67 1103.19 1597.23 1102.77 1596.6 1102.44L1595.22 1101.73H1595.22Z" fill="black"/>
<path d="M1604.87 1103.56L1612.28 1108.21C1612.76 1108.51 1613.26 1108.9 1613.79 1109.37C1614.32 1109.85 1614.75 1110.44 1615.07 1111.14C1615.4 1111.84 1615.59 1112.59 1615.65 1113.39C1615.7 1114.18 1615.6 1114.97 1615.36 1115.77C1614.95 1117.07 1614.3 1117.91 1613.39 1118.31C1612.49 1118.7 1611.56 1118.74 1610.59 1118.42L1611.79 1124.05L1611.84 1124.3C1611.91 1124.68 1611.99 1124.98 1612.08 1125.2C1612.17 1125.41 1612.27 1125.59 1612.39 1125.73C1612.5 1125.87 1612.68 1126.01 1612.91 1126.16L1613.43 1126.48L1612.7 1128.84L1608.84 1126.43L1607.27 1116.66L1606.27 1116.04L1605.21 1119.43C1605.03 1120.02 1604.93 1120.41 1604.93 1120.6C1604.92 1120.78 1604.96 1120.95 1605.03 1121.09C1605.11 1121.23 1605.3 1121.39 1605.61 1121.58L1606.16 1121.93L1605.42 1124.29L1599.54 1120.6L1600.28 1118.24L1600.81 1118.58C1601.1 1118.76 1601.31 1118.84 1601.45 1118.83C1601.6 1118.82 1601.73 1118.74 1601.84 1118.61C1601.9 1118.53 1602.01 1118.23 1602.17 1117.72L1605.16 1108.13C1605.28 1107.76 1605.34 1107.48 1605.34 1107.29C1605.35 1107.1 1605.31 1106.96 1605.23 1106.85C1605.12 1106.67 1604.98 1106.53 1604.8 1106.41L1604.56 1106.27L1604.11 1105.99L1604.87 1103.56L1604.87 1103.56ZM1608.43 1109.14L1607.05 1113.55L1608.83 1114.67C1609.53 1115.1 1610.09 1115.34 1610.49 1115.38C1610.9 1115.41 1611.24 1115.31 1611.52 1115.08C1611.8 1114.85 1612.02 1114.49 1612.18 1114C1612.32 1113.55 1612.35 1113.12 1612.28 1112.69C1612.23 1112.27 1612.07 1111.88 1611.81 1111.54C1611.56 1111.19 1611.09 1110.81 1610.41 1110.38L1608.43 1109.14H1608.43Z" fill="black"/>
<path d="M1626.61 1117.79C1628.45 1119.18 1629.64 1121.1 1630.18 1123.54C1630.73 1125.99 1630.53 1128.46 1629.6 1130.95C1628.97 1132.63 1628.15 1133.92 1627.14 1134.82C1626.13 1135.72 1625.03 1136.18 1623.85 1136.19C1622.67 1136.2 1621.43 1135.72 1620.13 1134.74C1618.42 1133.45 1617.26 1131.72 1616.67 1129.56C1615.96 1126.96 1616.1 1124.3 1617.12 1121.61C1618.06 1119.1 1619.41 1117.48 1621.16 1116.76C1622.92 1116.04 1624.74 1116.38 1626.61 1117.79V1117.79ZM1625.66 1120.43C1624.77 1119.77 1623.9 1119.71 1623.02 1120.25C1621.92 1120.93 1621.03 1122.21 1620.33 1124.07C1619.63 1125.93 1619.38 1127.64 1619.58 1129.18C1619.76 1130.51 1620.28 1131.5 1621.15 1132.15C1622.02 1132.81 1622.89 1132.87 1623.76 1132.33C1624.79 1131.69 1625.66 1130.44 1626.35 1128.58C1626.84 1127.28 1627.12 1126.08 1627.19 1124.99C1627.26 1123.91 1627.16 1122.98 1626.87 1122.2C1626.59 1121.42 1626.18 1120.83 1625.66 1120.43V1120.43Z" fill="black"/>
<path d="M1636.38 1125.14L1637.44 1126.07L1637.32 1126.7L1643.61 1132.26L1643.99 1131.85L1645.05 1132.79L1643.99 1139.55L1642.18 1138.98C1642.26 1137.76 1642.28 1136.95 1642.26 1136.55C1642.22 1135.75 1642.09 1135.02 1641.86 1134.38C1641.69 1133.89 1641.47 1133.53 1641.2 1133.29C1641.07 1133.18 1640.96 1133.15 1640.87 1133.19C1640.79 1133.23 1640.68 1133.41 1640.54 1133.72L1636.54 1142.81C1636.3 1143.35 1636.17 1143.69 1636.13 1143.85C1636.1 1144.01 1636.1 1144.16 1636.13 1144.3C1636.16 1144.43 1636.22 1144.56 1636.32 1144.69C1636.42 1144.82 1636.72 1145.09 1637.2 1145.52L1636.24 1147.71L1630.8 1142.9L1631.76 1140.72L1632.09 1141C1632.45 1141.33 1632.7 1141.5 1632.82 1141.53C1632.96 1141.55 1633.08 1141.51 1633.21 1141.39C1633.33 1141.27 1633.51 1140.96 1633.73 1140.44L1637.83 1131.15C1637.94 1130.89 1637.99 1130.7 1637.98 1130.6C1637.97 1130.49 1637.89 1130.38 1637.75 1130.25C1637.48 1130.01 1637.1 1129.88 1636.63 1129.88C1636.16 1129.87 1635.67 1130.02 1635.17 1130.32C1634.97 1130.43 1634.48 1130.83 1633.71 1131.5L1632.57 1129.47L1636.38 1125.14L1636.38 1125.14Z" fill="black"/>
<path d="M1648.16 1136.44L1657.09 1145.49L1655.89 1151.51L1654.14 1150.81C1654.3 1149.79 1654.34 1148.88 1654.27 1148.08C1654.2 1147.29 1654.01 1146.62 1653.7 1146.08C1653.41 1145.54 1653 1145.01 1652.5 1144.5L1650.86 1142.84L1648.95 1146.62L1649.49 1147.16C1649.89 1147.57 1650.18 1147.81 1650.36 1147.87C1650.55 1147.93 1650.72 1147.9 1650.87 1147.79C1651.02 1147.67 1651.23 1147.35 1651.5 1146.82L1651.79 1146.24L1653.15 1147.63L1649.92 1154.03L1648.55 1152.65L1648.88 1152C1649.1 1151.56 1649.23 1151.19 1649.25 1150.91C1649.28 1150.64 1649.25 1150.4 1649.16 1150.2C1649.07 1150 1648.81 1149.67 1648.37 1149.23L1647.88 1148.74L1646.13 1152.21C1645.94 1152.58 1645.84 1152.82 1645.82 1152.92C1645.81 1153.03 1645.83 1153.14 1645.88 1153.26C1645.93 1153.38 1646.08 1153.56 1646.33 1153.81L1647.22 1154.72C1647.89 1155.4 1648.53 1155.84 1649.12 1156.04C1649.72 1156.23 1650.35 1156.21 1651.01 1155.97C1651.68 1155.73 1652.33 1155.29 1652.94 1154.65L1654 1156.76L1649.75 1160.96L1640.5 1151.59L1641.56 1149.49L1641.83 1149.77C1642.19 1150.13 1642.45 1150.34 1642.61 1150.39C1642.77 1150.44 1642.92 1150.4 1643.06 1150.27C1643.14 1150.19 1643.31 1149.89 1643.57 1149.39L1647.74 1141.13C1647.96 1140.68 1648.09 1140.37 1648.11 1140.18C1648.14 1140 1648.13 1139.84 1648.07 1139.68C1648.01 1139.51 1647.85 1139.29 1647.58 1139.02L1647.1 1138.54L1648.16 1136.44L1648.16 1136.44Z" fill="black"/>
<path d="M1662.86 1163.04L1667.83 1168.81L1666.66 1170.82L1666.29 1170.39C1666.05 1170.11 1665.86 1169.94 1665.73 1169.9C1665.61 1169.86 1665.48 1169.88 1665.36 1169.97C1665.24 1170.05 1665.07 1170.28 1664.85 1170.65L1662.24 1175.17L1660.74 1173.43L1660.96 1171.95C1660.25 1171.84 1659.59 1171.61 1658.98 1171.26C1658.36 1170.9 1657.79 1170.41 1657.26 1169.8C1656.33 1168.72 1655.67 1167.42 1655.28 1165.89C1654.89 1164.36 1654.8 1162.77 1655.02 1161.1C1655.24 1159.43 1655.77 1157.89 1656.59 1156.46C1657.41 1155.05 1658.36 1154.04 1659.45 1153.44C1660.53 1152.84 1661.66 1152.67 1662.82 1152.95C1663.98 1153.22 1665.03 1153.89 1665.95 1154.97C1666.4 1155.49 1666.8 1156.09 1667.14 1156.77C1667.5 1157.44 1667.76 1158.1 1667.92 1158.74L1668.56 1158.41L1669.58 1159.59L1667.73 1165.43L1666.03 1164.49C1666.18 1162.92 1666.23 1161.78 1666.18 1161.09C1666.14 1160.41 1666.01 1159.76 1665.79 1159.15C1665.57 1158.54 1665.3 1158.04 1664.97 1157.67C1664.51 1157.13 1663.97 1156.82 1663.35 1156.73C1662.73 1156.64 1662.09 1156.83 1661.44 1157.29C1660.78 1157.74 1660.16 1158.48 1659.56 1159.51C1658.9 1160.65 1658.46 1161.78 1658.23 1162.91C1658 1164.04 1657.98 1165.05 1658.16 1165.93C1658.34 1166.81 1658.68 1167.54 1659.17 1168.12C1659.52 1168.52 1659.91 1168.81 1660.34 1168.97C1660.77 1169.14 1661.12 1169.16 1661.38 1169.05C1661.64 1168.94 1661.89 1168.67 1662.13 1168.25L1662.44 1167.73C1662.65 1167.36 1662.77 1167.11 1662.79 1166.98C1662.81 1166.78 1662.8 1166.59 1662.74 1166.42C1662.69 1166.26 1662.53 1166.03 1662.27 1165.72L1661.69 1165.05L1662.86 1163.04H1662.86Z" fill="black"/>
<path d="M1677.06 1169.06L1679.21 1171.91L1675.17 1186.24C1674.95 1187.01 1674.86 1187.53 1674.9 1187.82C1674.94 1188.12 1675.12 1188.48 1675.45 1188.9L1674.21 1190.78L1669.66 1184.77L1670.9 1182.88L1671.18 1183.24C1671.44 1183.57 1671.64 1183.76 1671.81 1183.8C1671.97 1183.84 1672.1 1183.79 1672.19 1183.65C1672.27 1183.54 1672.38 1183.24 1672.53 1182.76L1673.07 1181.14L1670.14 1177.27L1668.87 1178.17C1668.61 1178.37 1668.44 1178.51 1668.38 1178.6C1668.32 1178.71 1668.28 1178.83 1668.27 1178.99C1668.27 1179.14 1668.32 1179.32 1668.41 1179.52C1668.47 1179.65 1668.68 1179.95 1669.03 1180.41L1667.79 1182.3L1664.07 1177.37L1665.31 1175.49C1665.55 1175.81 1665.75 1176.01 1665.89 1176.1C1666.04 1176.18 1666.19 1176.21 1666.34 1176.19C1666.49 1176.17 1666.71 1176.06 1667.01 1175.85L1677.06 1169.06L1677.06 1169.06ZM1671.92 1175.99L1673.85 1178.54L1675.38 1173.55L1671.92 1175.99V1175.99Z" fill="black"/>
<path d="M1685.71 1179.93L1686.57 1181.2L1686.34 1181.77L1691.45 1189.39L1691.89 1189.12L1692.75 1190.4L1690.54 1196.58L1688.88 1195.38C1689.17 1194.23 1689.34 1193.46 1689.39 1193.05C1689.49 1192.26 1689.49 1191.52 1689.38 1190.81C1689.3 1190.28 1689.15 1189.85 1688.93 1189.52C1688.83 1189.37 1688.73 1189.3 1688.63 1189.31C1688.54 1189.32 1688.41 1189.45 1688.22 1189.71L1682.74 1197.09C1682.42 1197.53 1682.23 1197.82 1682.16 1197.96C1682.1 1198.1 1682.08 1198.24 1682.08 1198.39C1682.08 1198.53 1682.12 1198.68 1682.2 1198.84C1682.27 1198.99 1682.51 1199.36 1682.9 1199.95L1681.59 1201.73L1677.16 1195.15L1678.48 1193.37L1678.75 1193.77C1679.04 1194.21 1679.25 1194.46 1679.37 1194.53C1679.49 1194.6 1679.62 1194.6 1679.76 1194.54C1679.91 1194.47 1680.13 1194.23 1680.44 1193.81L1686.05 1186.26C1686.2 1186.04 1686.29 1185.88 1686.29 1185.78C1686.3 1185.67 1686.25 1185.53 1686.13 1185.36C1685.91 1185.03 1685.57 1184.77 1685.11 1184.6C1684.66 1184.43 1684.16 1184.4 1683.62 1184.51C1683.41 1184.55 1682.86 1184.76 1682 1185.13L1681.25 1182.76L1685.71 1179.93L1685.71 1179.93Z" fill="black"/>
</g>
<defs>
<linearGradient id="paint0_linear" x1="1570.92" y1="415.071" x2="1572.41" y2="346.202" gradientUnits="userSpaceOnUse">
<stop stop-color="#474747"/>
<stop offset="1" stop-color="#FF5500"/>
</linearGradient>
<linearGradient id="paint1_linear" x1="1554.27" y1="674.118" x2="1554.46" y2="713.197" gradientUnits="userSpaceOnUse">
<stop stop-color="#B50000"/>
<stop offset="1" stop-color="#FFC500"/>
</linearGradient>
<linearGradient id="paint2_linear" x1="1675.08" y1="697.889" x2="1720.09" y2="697.467" gradientUnits="userSpaceOnUse">
<stop stop-color="#D5DFFF"/>
<stop offset="1" stop-color="white"/>
</linearGradient>
<linearGradient id="paint3_linear" x1="1562.29" y1="402" x2="1578.41" y2="402" gradientUnits="userSpaceOnUse">
<stop stop-color="#474747"/>
<stop offset="1" stop-color="#FF5500"/>
</linearGradient>
<linearGradient id="paint4_linear" x1="1796.57" y1="1018.2" x2="1781.17" y2="950.59" gradientUnits="userSpaceOnUse">
<stop stop-color="#D5DFFF"/>
<stop offset="1" stop-color="white"/>
</linearGradient>
<linearGradient id="paint5_linear" x1="1686.04" y1="721.683" x2="1654.55" y2="685.786" gradientUnits="userSpaceOnUse">
<stop stop-color="#D5DFFF"/>
<stop offset="1" stop-color="white"/>
</linearGradient>
<clipPath id="clip0">
<rect width="2000" height="1416.04" rx="186" fill="white"/>
</clipPath>
</defs>
</svg>
