<svg width="2000" height="1417" viewBox="0 0 2000 1417" fill="none" xmlns="http://www.w3.org/2000/svg">
<g clip-path="url(#clip0)">
<path fill-rule="evenodd" clip-rule="evenodd" d="M0 0H666.667V1416.04H0V0Z" fill="#72706F"/>
<path fill-rule="evenodd" clip-rule="evenodd" d="M666.668 0H1333.33V1416.04H666.668V0Z" fill="#C2C1C1"/>
<path fill-rule="evenodd" clip-rule="evenodd" d="M1333.33 0H2000V1416.04H1333.33V0Z" fill="#969594"/>
<path d="M1161.22 957.193H848.871V924.109C848.871 867.779 854.765 821.879 866.832 786.71C878.899 751.242 896.861 719.351 920.715 690.142C944.569 660.933 998.171 609.669 1081.52 536.349C1125.86 497.901 1148.03 462.732 1148.03 430.841C1148.03 398.652 1139.05 373.913 1121.37 356.031C1103.41 338.446 1076.47 329.504 1040.27 329.504C1001.26 329.504 969.265 343.215 943.727 370.635C918.189 397.757 901.912 445.743 894.896 513.698L575.809 471.673C586.754 347.089 629.411 246.946 703.5 170.943C777.869 94.9408 891.809 57.0894 1045.32 57.0894C1164.87 57.0894 1261.13 83.6153 1334.66 136.37C1434.29 208.199 1484.24 303.574 1484.24 422.794C1484.24 472.269 1471.33 520.255 1445.51 566.154C1419.97 612.054 1367.21 668.385 1287.79 734.551C1232.51 781.345 1197.43 818.601 1182.83 846.915C1168.52 874.932 1161.22 911.89 1161.22 957.193H1161.22ZM837.926 1045.42H1172.73V1358.96H837.926V1045.42Z" fill="white" stroke="black" stroke-width="0.1524"/>
</g>
<defs>
<clipPath id="clip0">
<rect width="2000" height="1416.04" rx="186" fill="white"/>
</clipPath>
</defs>
</svg>
