<svg width="2000" height="1417" viewBox="0 0 2000 1417" fill="none" xmlns="http://www.w3.org/2000/svg">
<path d="M1799.72 28.0249H186.202C87.2573 28.0249 7.04688 112.028 7.04688 215.65V1226.94C7.04688 1330.56 87.2573 1414.56 186.202 1414.56H1799.72C1898.67 1414.56 1978.88 1330.56 1978.88 1226.94V215.65C1978.88 112.028 1898.67 28.0249 1799.72 28.0249Z" fill="#57A863"/>
<path d="M1819.44 29.5273C1812.87 29.1524 1806.29 29.1524 1799.72 29.5273H186.202C87.2573 29.5273 7.04688 113.53 7.04688 217.153V1228.15C7.04688 1228.15 7.04688 1230.21 7.04688 1231.1L20.2863 1222.25L795.779 884.756L1819.44 29.5273Z" fill="#4758A9"/>
<path d="M1978.9 231.575V215.645C1978.82 139.948 1935.25 71.7373 1868.48 42.7698L1861.72 40.1148H1860.31L1845.38 35.0996L1829.04 31.5595C1823.12 31.5595 1817.21 31.5595 1811.29 30.0845L8.47656 1230.77C8.57585 1237.77 9.04605 1244.76 9.88501 1251.71C9.88501 1253.78 9.88501 1256.14 9.88501 1258.2C9.88501 1260.27 12.1385 1270 13.547 1275.9C13.547 1275.9 13.547 1277.67 13.547 1278.85C32.4596 1349.03 88.4841 1401.38 157.209 1413.08H161.998C169.932 1414.23 177.931 1414.82 185.941 1414.85H201.716L1978.34 231.87L1978.9 231.575Z" fill="#FFCE54"/>
<path d="M184.231 354.015C176.344 359.03 172.119 355.49 175.217 346.345L186.203 311.239C188.774 300.887 186.355 289.873 179.724 281.738L156.907 257.547C150.429 250.467 152.682 245.157 161.978 245.747L196.626 247.222C206.724 247.114 215.798 240.74 219.724 230.997L233.527 192.94C236.907 183.795 241.696 183.795 244.231 192.94L254.091 232.177C257.015 242.194 265.291 249.474 275.217 250.762L310.429 253.712C319.724 253.712 321.133 259.907 313.809 265.808L285.64 288.523C277.401 295.714 273.432 306.949 275.217 318.024L281.414 349.885C283.105 359.62 278.598 362.865 270.992 356.965L242.823 336.315C234.107 331.045 223.369 331.045 214.654 336.315L184.231 354.015Z" fill="white"/>
<path d="M522.263 354.015C514.375 359.03 510.15 355.49 513.249 346.345L524.234 311.239C526.805 300.887 524.386 289.873 517.756 281.738L494.939 257.547C488.46 250.467 490.713 245.157 500.009 245.747L534.657 247.222C544.755 247.114 553.829 240.74 557.756 230.997L571.558 192.94C574.939 183.795 579.727 183.795 582.263 192.94L592.122 232.177C595.047 242.194 603.322 249.474 613.249 250.762L648.46 253.712C657.756 253.712 659.164 259.907 651.84 265.808L623.671 288.523C615.433 295.714 611.464 306.949 613.249 318.024L619.446 349.885C621.136 359.62 616.629 362.865 609.023 356.965L580.854 336.315C572.139 331.045 561.401 331.045 552.685 336.315L522.263 354.015Z" fill="white"/>
<path d="M522.263 678.515C514.375 683.53 510.15 679.99 513.249 670.845L524.234 635.739C526.805 625.387 524.386 614.373 517.756 606.238L494.939 582.047C488.46 574.967 490.713 569.657 500.009 570.247L534.657 571.722C544.755 571.614 553.829 565.24 557.756 555.497L571.558 517.44C574.939 508.295 579.727 508.295 582.263 517.44L592.122 556.677C595.047 566.694 603.322 573.974 613.249 575.262L648.46 578.212C657.756 578.212 659.164 584.407 651.84 590.308L623.671 613.023C615.433 620.215 611.464 631.449 613.249 642.524L619.446 674.385C621.136 684.12 616.629 687.365 609.023 681.465L580.854 660.815C572.139 655.545 561.401 655.545 552.685 660.815L522.263 678.515Z" fill="white"/>
<path d="M184.231 678.515C176.344 683.53 172.119 679.99 175.217 670.845L186.203 635.739C188.774 625.387 186.355 614.373 179.724 606.238L156.907 582.047C150.429 574.967 152.682 569.657 161.978 570.247L196.626 571.722C206.724 571.614 215.798 565.24 219.724 555.497L233.527 517.44C236.907 508.295 241.696 508.295 244.231 517.44L254.091 556.677C257.015 566.694 265.291 573.974 275.217 575.262L310.429 578.212C319.724 578.212 321.133 584.407 313.809 590.308L285.64 613.023C277.401 620.215 273.432 631.449 275.217 642.524L281.414 674.385C283.105 684.12 278.598 687.365 270.992 681.465L242.823 660.815C234.107 655.545 223.369 655.545 214.654 660.815L184.231 678.515Z" fill="white"/>
<path d="M353.247 515.382C345.36 520.397 341.134 516.857 344.233 507.712L355.219 472.606C357.789 462.254 355.37 451.241 348.74 443.105L325.923 418.915C319.444 411.834 321.698 406.524 330.993 407.114L365.641 408.589C375.739 408.481 384.813 402.107 388.74 392.364L402.543 354.308C405.923 345.162 410.712 345.162 413.247 354.308L423.106 393.544C426.031 403.561 434.306 410.841 444.233 412.129L479.444 415.079C488.74 415.079 490.148 421.275 482.824 427.175L454.655 449.89C446.417 457.082 442.448 468.316 444.233 479.391L450.43 511.252C452.12 520.987 447.613 524.233 440.008 518.332L411.839 497.682C403.123 492.412 392.385 492.412 383.67 497.682L353.247 515.382Z" fill="white"/>
</svg>
