<svg width="2000" height="1417" viewBox="0 0 2000 1417" fill="none" xmlns="http://www.w3.org/2000/svg">
<path d="M25.3477 220.365V485.873H1997.18V220.365C1997.18 112.181 1913.44 24.4797 1810.14 24.4797H212.672C163.016 24.4014 115.369 45.0047 80.2306 81.7489C45.0924 118.493 25.3476 168.362 25.3477 220.365Z" fill="#4A89DC"/>
<path d="M25.3477 949.336H1997.18V487.058H25.3477V949.336Z" fill="white"/>
<path d="M25.3477 1215.13C25.3477 1323.31 109.089 1411.02 212.39 1411.02H1810.14C1913.44 1411.02 1997.18 1323.31 1997.18 1215.13V949.622H25.3477V1215.13Z" fill="#4A89DC"/>
<path d="M1011.26 865.258C1089.05 865.258 1152.11 799.218 1152.11 717.754C1152.11 636.289 1089.05 570.25 1011.26 570.25C933.476 570.25 870.418 636.289 870.418 717.754C870.418 799.218 933.476 865.258 1011.26 865.258Z" fill="white" stroke="#FFCE54" stroke-width="2" stroke-linejoin="round"/>
</svg>
