<svg width="2000" height="1417" viewBox="0 0 2000 1417" fill="none" xmlns="http://www.w3.org/2000/svg">
<path d="M1817.19 20.0657H203.952C105.007 20.0657 24.7969 104.068 24.7969 207.691V728.085H1996.63V206.511C1996.01 103.234 1915.81 19.9012 1817.19 20.0657Z" fill="white"/>
<path d="M24.5083 1218.68C24.5083 1322.31 104.719 1406.31 203.663 1406.31H1816.9C1915.85 1406.31 1996.06 1322.31 1996.06 1218.68V728.086H24.2266L24.5083 1218.68Z" fill="#3BAFDA"/>
<path d="M551.266 767.034C546.91 767.034 543.378 770.732 543.378 775.294C543.378 779.856 546.91 783.554 551.266 783.554C555.622 783.554 559.153 779.856 559.153 775.294C559.153 770.732 555.622 767.034 551.266 767.034ZM635.773 877.072C631.417 877.072 627.885 880.77 627.885 885.332C627.885 889.894 631.417 893.593 635.773 893.593C640.129 893.593 643.66 889.894 643.66 885.332C643.66 880.77 640.129 877.072 635.773 877.072ZM1492.96 721.898C1491.28 715.259 1494.2 708.287 1500 705.082C1505.63 698.297 1509.29 691.217 1501.69 684.432H1498.87C1504.22 674.401 1501.41 662.306 1494.65 661.716C1482.58 661.032 1470.69 664.905 1461.13 672.631C1443.66 654.636 1440.28 674.401 1435.21 691.807C1431.54 689.306 1426.99 688.657 1422.82 690.037C1424.32 705.775 1420.2 721.538 1411.27 734.288C1404.22 736.943 1395.49 739.893 1387.32 743.433C1390.4 740.542 1392.56 736.733 1393.52 732.518C1394.31 724.895 1398.63 718.166 1405.07 714.522C1411.9 711.411 1415.14 703.187 1412.39 695.937C1410.3 694.14 1409.33 691.281 1409.86 688.502C1410.39 685.724 1412.34 683.478 1414.93 682.662C1420.58 681.074 1423.96 675.031 1422.53 669.091C1419.14 663.586 1418.12 656.84 1419.72 650.506C1421.97 645.196 1412.11 640.18 1403.66 648.736C1396.28 656.447 1393.57 667.796 1396.62 678.236C1398.31 685.022 1390.7 684.137 1386.2 682.957C1389.92 678.916 1391.86 673.425 1391.54 667.817C1391.22 662.21 1388.67 657 1384.51 653.456C1375.77 646.671 1374.36 651.981 1367.6 660.831C1364.02 664.871 1362.74 670.588 1364.22 675.876C1365.2 677.91 1365.36 680.267 1364.68 682.426C1363.99 684.585 1362.51 686.369 1360.56 687.382C1358.3 688.753 1356.91 691.283 1356.91 694.019C1356.91 696.756 1358.3 699.286 1360.56 700.657C1365.91 705.377 1365.35 708.622 1360.56 714.522C1356.05 721.033 1356.05 729.843 1360.56 736.353C1363.94 742.408 1364.95 749.597 1363.38 756.414C1361.84 769.233 1356.64 781.266 1348.45 790.93C1342.65 797.401 1338.15 805.025 1335.21 813.35C1326.32 822.517 1315.92 829.915 1304.51 835.181C1305.07 831.171 1305.07 827.095 1304.51 823.086C1306.48 815.255 1307.8 807.259 1308.45 799.19C1308.98 797.781 1309.74 796.482 1310.7 795.355C1321.12 785.029 1313.24 771.754 1320 765.854C1326.76 759.954 1326.48 753.169 1320 753.759C1313.52 754.349 1316.05 753.759 1316.05 751.399C1316.93 748.871 1317.97 746.408 1319.15 744.023V742.548C1320.76 740.761 1322 738.654 1322.82 736.353L1325.35 732.518C1327.88 735.524 1329.79 739.037 1330.98 742.843C1327.6 750.219 1328.73 757.594 1334.65 756.414C1348.45 765.559 1358.31 758.774 1347.04 743.433C1349.01 738.418 1347.04 736.353 1337.74 736.353C1333.95 733.301 1331.03 729.22 1329.29 724.553C1331.55 711.277 1340.28 697.707 1340.28 690.922C1341.12 682.601 1344.59 674.812 1350.14 668.796C1357.32 658.489 1360.72 645.818 1359.72 633.1C1365.88 623.164 1373.71 614.47 1382.82 607.434C1388.45 603.009 1392.67 595.339 1387.6 592.094C1384.92 590.79 1383.19 587.969 1383.19 584.866C1383.19 581.763 1384.92 578.943 1387.6 577.639C1392.04 575.374 1394.55 570.354 1393.8 565.248C1401.97 561.708 1408.17 565.248 1408.17 569.378C1408.17 573.509 1410.7 576.754 1414.93 575.574C1420.14 574.5 1425.49 574.5 1430.7 575.574C1437.74 575.574 1436.34 575.574 1435.77 569.378C1435.21 563.183 1435.77 561.118 1441.41 566.723C1442.44 568.382 1444.07 569.535 1445.92 569.923C1447.78 570.312 1449.7 569.903 1451.27 568.788L1453.24 566.723C1454.48 560.045 1451.68 553.254 1446.2 549.613C1440.56 546.073 1438.03 542.533 1440.56 539.288C1443.1 536.043 1444.22 535.747 1435.49 533.387C1418.5 529.943 1401.05 536.372 1389.86 550.203L1387.32 547.253C1383.66 544.598 1385.07 541.058 1387.32 537.222C1389.58 533.387 1387.32 528.077 1377.18 533.682C1370.22 536.499 1365.26 543.049 1364.22 550.793C1364.22 555.808 1364.22 557.578 1357.74 559.938C1351.5 563.008 1348.75 570.742 1351.55 577.344C1353.56 581.741 1357.41 584.905 1361.97 585.899C1367.32 585.899 1369.01 594.159 1361.97 591.799C1354.93 589.439 1347.6 591.799 1350.98 599.174C1351.67 608.01 1351.67 616.889 1350.98 625.725C1346.54 632.331 1344.54 640.404 1345.35 648.441C1344.17 656.944 1341.08 665.032 1336.34 672.041C1336.34 652.276 1334.36 606.254 1334.08 569.673C1334.92 566.088 1334.92 562.344 1334.08 558.758C1338.03 544.303 1349.01 518.047 1362.25 516.572C1367.13 517.353 1371.95 514.884 1374.36 510.377C1374.21 508.732 1374.68 507.09 1375.69 505.816C1376.7 504.542 1378.14 503.741 1379.72 503.592C1383.1 503.592 1384.51 497.396 1379.72 492.381C1378.18 490.154 1377.55 487.376 1377.97 484.663C1378.4 481.949 1379.83 479.524 1381.97 477.926H1383.38C1388.97 475.964 1392 469.63 1390.14 463.765V461.405C1387.06 457.162 1381.93 455.144 1376.94 456.214C1371.96 457.283 1368 461.251 1366.76 466.421C1363.94 472.321 1362.25 474.681 1358.03 471.731C1354.76 469.617 1350.62 469.683 1347.41 471.899C1344.21 474.116 1342.52 478.079 1343.1 482.056C1347.77 495.744 1346.33 510.91 1339.15 523.357L1337.46 526.602C1337.46 521.587 1339.72 517.162 1340.56 514.507C1343.25 506.707 1340.59 497.99 1334.08 493.266C1328.73 491.496 1329.29 489.136 1334.08 480.581C1340.56 464.355 1334.08 460.225 1326.48 456.98C1320.27 455.28 1315.42 450.204 1313.8 443.705C1312.96 440.54 1310.92 437.871 1308.15 436.313C1305.39 434.755 1302.14 434.441 1299.15 435.445C1295.81 436.382 1293.12 439.001 1291.99 442.431C1290.86 445.862 1291.43 449.656 1293.52 452.555C1295.29 454.385 1296.29 456.882 1296.29 459.488C1296.29 462.094 1295.29 464.591 1293.52 466.421C1289.86 470.846 1293.52 479.696 1302.53 477.336C1301.81 482.906 1304.68 488.309 1309.58 490.611C1312.96 493.266 1311.55 497.396 1307.89 503.887C1307.74 501.326 1306.61 498.935 1304.75 497.266C1302.89 495.596 1300.46 494.792 1298.03 495.036C1289.29 496.806 1287.6 495.036 1285.35 488.841C1280.9 483.259 1272.98 482.47 1267.6 487.071C1260.84 492.971 1251.27 510.967 1270.98 508.902C1279.43 508.902 1283.66 508.902 1279.43 513.917C1276.47 517.099 1275.71 521.879 1277.53 525.895C1279.36 529.911 1283.38 532.312 1287.6 531.912C1293.42 531.792 1299.18 533 1304.51 535.452C1296.34 538.698 1295.49 543.713 1302.25 547.253C1313.51 549.127 1322.9 557.265 1326.76 568.493C1328.1 576.682 1328.86 584.966 1329.01 593.274C1329.01 596.519 1326.2 593.274 1326.48 593.274C1326.48 591.808 1325.34 590.619 1323.94 590.619C1319.43 580.884 1313.24 576.164 1309.58 579.114C1307.8 586.528 1310.47 594.331 1316.34 598.879C1311.55 605.664 1316.34 613.335 1321.41 611.565C1323.97 609.446 1327.58 609.446 1330.14 611.565C1332.38 625.132 1332.38 639.003 1330.14 652.571C1328.49 660.294 1329.28 668.368 1332.39 675.581C1334.38 683.311 1334.38 691.453 1332.39 699.182C1328.79 708.933 1324.16 718.234 1318.59 726.913C1314.45 728.659 1311.05 731.905 1309.01 736.058C1309.83 728.061 1312.43 720.379 1316.62 713.637C1318.85 711.387 1319.81 708.098 1319.19 704.925C1318.56 701.752 1316.42 699.138 1313.52 698.002C1306.76 695.052 1291.55 701.542 1299.72 725.143C1298.03 719.833 1293.24 721.013 1288.73 729.273C1284.51 734.457 1284.51 742.085 1288.73 747.268C1293.04 750.687 1294.03 757.047 1290.98 761.724C1288.14 767.459 1289.98 774.523 1295.21 777.949C1300.02 783.314 1301.93 790.855 1300.28 798.01C1299.44 806.641 1299.44 815.339 1300.28 823.971C1297.74 834.591 1293.52 844.621 1291.55 853.471C1290.27 858.073 1288.17 862.379 1285.35 866.157C1286.8 862.941 1287.39 859.37 1287.04 855.831C1286.42 850.926 1287.63 845.958 1290.42 841.966C1293.06 836.274 1291.39 829.42 1286.48 825.741C1284.3 824.339 1282.75 822.087 1282.17 819.484C1281.59 816.88 1282.02 814.141 1283.38 811.875L1285.35 809.515C1287.29 807.508 1287.67 804.368 1286.27 801.916C1284.86 799.465 1282.04 798.338 1279.43 799.19H1276.34C1276.34 783.259 1273.8 752.874 1273.24 740.188C1272.31 726.463 1277.14 712.996 1286.48 703.312C1289.55 701.837 1291.93 699.138 1293.1 695.814C1294.26 692.49 1294.11 688.817 1292.67 685.612C1291.54 682.953 1291.47 679.931 1292.47 677.216C1293.48 674.501 1295.48 672.32 1298.03 671.156C1304.08 666.559 1306.22 658.145 1303.15 651.005C1300.08 643.866 1292.65 639.962 1285.35 641.655C1292.11 633.69 1282.25 616.875 1288.17 612.155C1293.24 609.401 1296.63 604.154 1297.2 598.203C1297.77 592.253 1295.43 586.404 1290.98 582.654C1294.08 571.148 1284.22 569.968 1287.04 560.233C1289.86 550.498 1282.25 547.548 1276.62 556.103C1270.98 564.658 1269.58 562.888 1265.63 557.873C1263.52 554.305 1259.91 551.996 1255.92 551.647C1251.92 551.298 1248 552.951 1245.35 556.103C1242.53 580.294 1241.41 742.548 1262.82 745.203C1262.82 753.759 1267.04 781.489 1269.29 800.075C1267.72 799.386 1266.28 798.385 1265.07 797.125C1259.15 791.815 1256.9 798.895 1259.72 805.68C1262.53 812.465 1253.8 810.4 1259.72 817.775C1262.14 821.547 1264.13 825.607 1265.63 829.871C1256.34 823.971 1251.55 836.656 1254.65 847.866C1256.27 853.602 1256.84 859.608 1256.34 865.567V863.797C1251.45 859.591 1247.59 854.232 1245.07 848.161V843.146C1245.11 839.095 1246.39 835.164 1248.73 831.936C1254.65 823.971 1262.53 812.76 1241.69 792.7C1230.13 809.585 1221.72 828.601 1216.9 848.751C1218.67 860.653 1224.97 871.296 1234.36 878.252C1230.88 878.03 1227.47 879.434 1225.07 882.087C1223.2 886.085 1219.15 888.44 1214.93 887.987H1212.96C1205.7 885.37 1197.68 886.697 1191.55 891.527C1186.1 897.232 1182.72 904.74 1181.97 912.768C1182.48 918.784 1180.42 924.728 1176.34 928.994C1172.11 932.239 1166.76 939.909 1174.36 945.219C1178.44 946.882 1182.96 946.882 1187.04 945.219C1176.27 954.781 1164.1 962.452 1150.98 967.935C1154.03 955.112 1154.79 941.811 1153.24 928.699L1137.18 948.464C1140.56 985.34 1119.15 994.19 1096.05 1011.3C1077.74 1024.58 1035.77 1058.21 1008.17 1081.81C1005.07 1078.56 1002.53 1075.32 1000.28 1072.37C979.472 1049.03 956.12 1028.34 930.702 1010.71C907.212 995.706 882.518 982.874 856.9 972.36C840.872 964.298 828.596 949.848 822.815 932.239C821.901 918.354 812.777 906.557 799.998 902.738C803.844 901.698 806.351 897.825 805.851 893.699C805.35 889.573 801.998 886.48 798.026 886.48C794.054 886.48 790.702 889.573 790.202 893.699C789.701 897.825 792.209 901.698 796.054 902.738H791.266C787.362 884.991 787.944 866.485 792.956 849.046C799.405 825.181 796.885 799.635 785.914 777.654C782.875 792.752 777.243 807.145 769.294 820.135C762.197 848.155 766.915 878.016 782.252 902.148H767.885C765.35 897.723 763.378 893.298 761.97 890.642C760.561 887.987 751.547 881.792 743.942 874.417C743.587 858.529 746.77 842.772 753.238 828.396C759.153 816.3 742.252 786.8 745.069 757.004C740.558 762.818 736.859 769.275 734.083 776.179C734.519 768.614 734.519 761.029 734.083 753.464C749.926 724.8 751.192 689.782 737.463 659.946C747.084 634.555 754.439 608.285 759.435 581.474L756.9 584.129C760.561 554.628 756.9 525.127 756.9 520.407C744.547 548.123 738.107 578.324 738.026 608.91C735.569 614.078 733.679 619.521 732.392 625.135C729.595 609.826 724.051 595.21 716.054 582.064C698.308 644.016 722.815 678.236 728.73 705.672C728.73 710.687 727.322 715.408 726.477 720.718C719.998 702.427 704.223 684.432 700.843 670.861C690.421 712.162 717.181 762.609 729.012 792.7C727.937 797.656 727.184 802.682 726.759 807.745C725.929 803.1 724.408 798.621 722.252 794.47C712.708 779.273 706.193 762.215 703.097 744.318C696.944 756.177 693.747 769.469 693.801 782.964C693.801 780.014 693.801 777.359 691.829 774.999C694.222 773.066 695.295 769.832 694.561 766.761C693.828 763.69 691.429 761.366 688.449 760.839C687.962 743.01 690.052 725.207 694.646 708.032C688.572 705.565 684.784 699.194 685.35 692.397C685.35 686.497 685.35 681.482 685.35 672.631C697.686 637.273 702.4 599.494 699.153 562.003C695.873 569.713 691.812 577.032 687.04 583.834C682.939 565.521 691.631 546.7 707.885 538.698C752.956 501.527 744.505 476.156 760.843 463.47C743.999 472.571 728.45 484.089 714.646 497.691C732.122 475.513 744.118 449.171 749.576 420.989C729.714 433.245 714.643 452.478 707.04 475.271C705.833 489.538 702.996 503.602 698.59 517.162L694.928 523.062C699.42 496.866 697.678 469.914 689.857 444.59C687.018 458.315 682.071 471.466 675.209 483.531C668.703 507.994 670.905 534.099 681.407 556.988C678.833 569.388 678.262 582.152 679.716 594.749C673.249 603.222 669.24 613.461 668.167 624.25C664.505 649.326 682.815 656.111 679.435 674.991C678.222 683.589 677.563 692.262 677.463 700.952C676.524 704.142 677.663 707.601 680.28 709.507C683.609 713.003 684.508 718.3 682.533 722.783C682.533 726.028 679.153 737.533 677.181 749.628C674.599 744.827 673.06 739.489 672.674 733.993C668.549 741.671 665.781 750.066 664.505 758.774C653.237 725.143 684.505 724.553 653.519 656.111C647.14 672.727 643.704 690.421 643.378 708.327C641.886 694.792 638.467 681.567 633.237 669.091C636.054 642.54 650.702 644.901 649.294 610.09C645.167 591.52 646.045 572.116 651.829 554.038C643.807 562.528 637.402 572.54 632.956 583.539C627.932 568.034 625.177 551.821 624.787 535.452C611.796 557.532 605.783 583.34 607.604 609.205C598.173 601.734 589.906 592.778 583.097 582.654C589.294 626.02 596.899 654.341 609.012 663.191C614.085 667.348 618.382 672.448 621.688 678.236C617.972 678.982 615.285 682.386 615.285 686.349C615.285 690.312 617.972 693.716 621.688 694.462C624.028 694.585 626.299 693.612 627.885 691.807C629.857 695.937 631.547 700.067 632.956 704.492L629.012 702.132C614.269 697.041 601.059 687.987 590.702 675.876C591.606 698.443 604.731 718.488 624.505 727.503C638.884 736.775 651.886 748.205 663.097 761.429C661.815 773.96 663.862 786.619 669.012 798.01C655.692 787.418 644.169 774.552 634.928 759.954C635.103 791.018 651.848 819.372 678.308 833.411C688.449 838.012 697.93 844.069 706.477 851.406L709.294 853.766C711.549 865.476 718.535 875.59 728.449 881.497C737.79 887.315 746.162 894.689 753.238 903.328C723.097 903.328 685.632 899.788 675.209 898.313C667.885 888.282 661.125 878.547 656.336 871.467C659.917 840.077 651.961 808.436 634.083 782.964C625.485 803.969 625.485 827.747 634.083 848.751C630.897 846.036 627.395 843.756 623.66 841.966C620.04 833.341 615.901 824.965 611.266 816.89C605.068 787.39 617.463 771.459 569.857 718.653C565.627 734.361 566.621 751.109 572.674 766.149C567.681 756.85 563.802 746.941 561.125 736.648C552.956 702.132 525.35 705.377 514.364 688.267C529.294 743.728 539.716 749.924 549.576 757.594C560.426 766.486 570.512 776.358 579.716 787.095C561.406 784.144 544.223 791.815 532.674 778.244C545.35 819.545 596.618 809.22 615.773 839.016C611.838 838.624 607.877 838.624 603.942 839.016C588.256 840.604 572.491 836.992 558.871 828.691C569.857 864.977 628.449 852.291 651.547 880.612C656.864 886.374 661.327 892.937 664.787 900.083L661.406 901.853L637.463 900.378C602.815 870.877 594.928 861.142 545.632 863.797C556.841 874.67 568.902 884.538 581.688 893.298C559.986 894.812 539.466 904.2 523.66 919.848C538.525 919.815 553.381 920.602 568.167 922.208C565.28 933.37 559.646 943.542 551.829 951.709C574.364 936.664 599.153 941.974 617.181 934.304C633.601 928.217 649.002 919.456 662.815 908.343H665.069C661.915 910.161 660.336 913.984 661.232 917.636C662.128 921.287 665.271 923.84 668.871 923.84C672.471 923.84 675.614 921.287 676.51 917.636C677.406 913.984 675.828 910.161 672.674 908.343H678.871L691.829 910.113C691.222 913.492 692.606 916.924 695.342 918.825C698.079 920.725 701.636 920.725 704.372 918.825C707.109 916.924 708.492 913.492 707.885 910.113C724.787 910.113 743.66 912.178 755.209 911.588H761.125C765.632 917.783 768.73 923.093 771.547 926.928C778.064 934.829 785.025 942.316 792.392 949.349C781.669 951.236 770.721 951.236 759.998 949.349H755.773C759.573 948.243 762.008 944.367 761.475 940.274C760.942 936.182 757.604 933.13 753.66 933.13C749.716 933.13 746.378 936.182 745.845 940.274C745.312 944.367 747.747 948.243 751.547 949.349C742.047 950.544 732.635 952.416 723.378 954.954C695.209 949.349 675.491 927.518 636.899 941.679C644.993 943.716 652.458 947.879 658.59 953.774C618.59 950.529 582.533 978.555 574.083 978.555C586.708 981.783 599.681 983.27 612.674 982.98L604.505 986.225C567.839 983.574 532.503 1001.13 511.266 1032.54C528.828 1026.25 546.946 1021.8 565.35 1019.27C559.639 1028.08 551.754 1035.12 542.533 1039.62C573.58 1050.29 607.298 1034.61 620.561 1003.34C618.126 1016.17 611.685 1027.79 602.252 1036.38C622.737 1031.16 640.621 1018.11 652.392 999.796C651.245 1003.87 650.304 1008.01 649.576 1012.19C659.503 1002.22 672.257 995.901 685.914 994.19C703.378 990.06 712.674 968.23 728.73 960.854C725.325 962.623 721.54 963.436 717.745 963.215C722.867 960.478 728.667 959.448 734.364 960.264C736.089 960.943 737.991 960.943 739.716 960.264C738.115 964.255 739.727 968.864 743.411 970.827C747.095 972.79 751.601 971.441 753.738 967.736C755.876 964.031 754.92 959.227 751.547 956.724C754.787 955.282 758.448 955.282 761.688 956.724C767.402 959.924 774.109 960.563 780.28 958.494C785.573 956.045 791.606 956.045 796.9 958.494C785.986 964.711 778.028 975.396 774.928 987.995C763.945 1003.93 757.323 1022.69 755.773 1042.28C769.746 1037.38 782.136 1028.49 791.547 1016.61C797.088 1006.2 798.886 994.065 796.618 982.39C795.847 974.938 795.847 967.421 796.618 959.969C798.868 961.407 800.714 963.443 801.97 965.87C803.964 972.931 810.466 977.512 817.463 976.785C823.551 976.258 829.647 977.7 834.928 980.915C852.094 986.977 868.768 994.475 884.787 1003.34C920.643 1026.21 954.823 1051.85 987.04 1080.04L997.745 1091.25L989.576 1098.62C982.194 1103.87 976.189 1110.97 972.111 1119.27C968.784 1127.87 962.573 1134.9 954.646 1139.04C946.299 1143 939.738 1150.19 936.336 1159.1C928.275 1165.18 920.819 1172.1 914.083 1179.75C906.208 1189.98 907.32 1204.86 916.618 1213.68C920.831 1208.83 924.001 1203.1 925.914 1196.86C931.43 1186.86 938.921 1178.21 947.885 1171.49C953.816 1168.86 958.276 1163.54 959.998 1157.03C963.451 1149.48 968.808 1143.05 975.491 1138.45C983.998 1133.47 991.018 1126.12 995.773 1117.21C999.067 1111.74 1002.84 1106.61 1007.04 1101.87C1013.4 1108.71 1018.8 1116.46 1023.1 1124.88C1029.29 1136.25 1037.51 1146.27 1047.32 1154.38C1056.7 1163.47 1064.68 1174.01 1070.98 1185.65C1075.45 1195.22 1080.93 1204.22 1087.32 1212.5C1089.24 1214.57 1091.42 1216.36 1093.8 1217.81C1099.08 1201.41 1096.11 1183.33 1085.91 1169.72C1076.89 1163.26 1069.92 1154.11 1065.91 1143.46C1062.44 1133.67 1055.61 1125.57 1046.76 1120.75C1035.64 1111.87 1025.27 1102 1015.77 1091.25C1019.42 1087.47 1023.27 1083.92 1027.32 1080.63C1041.12 1069.42 1111.83 1019.56 1133.52 1000.09C1141.22 991.913 1149.72 984.597 1158.87 978.26C1164.76 979.147 1170.73 979.147 1176.62 978.26C1183.93 979.3 1189.36 985.873 1189.29 993.6C1189.29 1000.98 1194.08 1001.86 1201.41 1000.39C1203.6 999.496 1206.08 999.817 1208.01 1001.24C1209.93 1002.66 1211.05 1005 1210.98 1007.47C1213.08 1015.32 1220.11 1020.59 1227.89 1020.15L1267.89 1001.57C1267.01 995.49 1267.7 989.281 1269.86 983.57C1272.39 980.03 1266.76 975.31 1259.43 973.54C1252.61 971.532 1245.3 973.968 1240.84 979.735C1238.95 982.033 1236.09 983.198 1233.21 982.843C1230.33 982.488 1227.81 980.661 1226.48 977.965C1223.17 971.725 1216.95 967.793 1210.14 967.64C1206.44 969.685 1202.01 969.685 1198.31 967.64C1192.34 965.755 1185.89 966.612 1180.56 970C1177.07 971.646 1173.37 972.739 1169.58 973.245C1174.92 970.361 1179.77 966.573 1183.94 962.034C1192.45 956.628 1202.16 953.676 1212.11 953.479C1214.41 956.941 1218.23 958.941 1222.25 958.789C1232.23 962.677 1242.98 963.894 1253.52 962.329L1258.59 959.969C1273.17 961.23 1287.45 965.019 1300.84 971.18C1309.95 977.203 1320.27 980.939 1330.98 982.095C1340.84 982.095 1338.87 987.11 1337.74 991.83C1330.21 999.483 1326.65 1010.46 1328.17 1021.33C1330.68 1025.67 1331.86 1030.72 1331.55 1035.79C1330.72 1037.65 1331.23 1039.86 1332.78 1041.13C1334.32 1042.4 1336.5 1042.38 1338.03 1041.1C1341.41 1038.15 1343.66 1041.1 1342.53 1045.82C1342.14 1048.45 1343.25 1051.07 1345.38 1052.53C1347.5 1054 1350.24 1054.02 1352.39 1052.6C1358.31 1049.06 1361.69 1052.6 1362.82 1056.73C1363.94 1060.86 1381.41 1060.86 1379.72 1053.78C1378.03 1046.7 1377.74 1042.28 1382.53 1040.51C1386.1 1037.71 1387.76 1032.96 1386.76 1028.41C1388.24 1028.82 1389.79 1028.82 1391.27 1028.41C1394.59 1025.96 1395.77 1021.37 1394.08 1017.5C1396.59 1020.49 1400.14 1022.3 1403.94 1022.51C1400.85 1029.85 1400.26 1038.07 1402.25 1045.82C1406.76 1054.96 1409.86 1052.6 1414.36 1047.59C1418.87 1042.57 1424.22 1047.59 1419.43 1054.37C1416.06 1060.27 1417.66 1067.91 1423.1 1071.78C1427.56 1074.97 1433.64 1073.93 1436.9 1069.42C1440.65 1066.69 1441.65 1061.33 1439.15 1057.32C1437.58 1051.93 1439.52 1046.08 1443.94 1042.87C1448.45 1037.56 1450.7 1025.46 1443.94 1023.69C1438.01 1022.43 1432.88 1018.56 1429.86 1013.07C1436.55 1016.47 1444.6 1013.57 1447.89 1006.58C1453.8 999.5 1445.07 991.535 1435.21 987.995C1425.35 984.455 1425.35 978.26 1427.6 977.08C1429.86 975.9 1427.6 971.18 1418.31 969.115C1397.67 967.482 1376.91 969.476 1356.9 975.015H1349.58C1338.85 975.501 1328.13 973.798 1318.03 970H1320C1328.73 970 1338.03 964.69 1344.22 965.28C1348.44 966.162 1352.7 963.99 1354.65 959.969C1357.74 956.429 1359.43 954.069 1363.94 955.839C1365.62 957.096 1367.8 957.349 1369.7 956.505C1371.59 955.662 1372.94 953.845 1373.24 951.709L1375.49 948.169C1378.72 951.024 1382.6 952.955 1386.76 953.774C1390.63 954.633 1393.87 957.373 1395.49 961.149C1398.68 964.488 1403.85 964.488 1407.04 961.149L1408.73 959.084C1436.9 955.544 1424.79 939.319 1406.76 939.614C1403.1 933.124 1396.05 939.614 1393.52 942.564C1391.68 945.109 1388.4 945.969 1385.63 944.629L1381.12 942.269L1388.17 937.254C1392.96 934.304 1393.52 929.289 1388.17 926.928C1382.82 924.568 1386.2 919.553 1392.67 914.833C1399.15 910.113 1399.15 902.738 1390.98 895.658C1386.64 892.234 1380.98 891.209 1375.79 892.904C1370.6 894.6 1366.5 898.809 1364.79 904.213C1361.12 913.653 1358.59 914.243 1353.52 911.883C1355.57 906.67 1358.02 901.638 1360.84 896.838C1365.35 888.872 1358.59 884.152 1349.29 884.742C1343.07 884.253 1337.13 887.59 1334.08 893.298C1332.37 897.117 1329.02 899.855 1325.07 900.673C1319.06 902.753 1314.91 908.509 1314.65 915.128C1309.38 927.213 1301.58 937.901 1291.83 946.399C1288.7 950.329 1284.46 953.118 1279.72 954.364L1267.89 951.414C1269.81 949.534 1270.57 946.69 1269.86 944.039C1268.2 938.229 1269.84 931.939 1274.08 927.814C1277.11 922.445 1277.11 915.776 1274.08 910.408C1272.51 907.145 1271.37 903.671 1270.7 900.083C1281.12 891.527 1292.11 887.397 1296.9 882.677C1302.82 877.889 1310.32 875.766 1317.74 876.777C1331.62 876.76 1345.37 874.06 1358.31 868.812C1370.07 868.9 1381.19 874.402 1388.73 883.857C1391.77 891.871 1399.09 897.211 1407.32 897.428C1411.95 893.306 1418.75 893.306 1423.38 897.428C1427.45 902.311 1434.13 903.758 1439.72 900.968C1443.33 897.908 1448.5 897.908 1452.11 900.968C1457.74 903.623 1470.98 905.098 1464.79 884.447L1470.7 880.612C1481.12 872.942 1481.41 868.812 1474.93 861.142C1471.01 854.893 1463.94 851.654 1456.9 852.881C1453.21 853.95 1449.32 853.95 1445.63 852.881C1467.6 835.771 1458.03 831.051 1440.84 823.381C1423.66 815.71 1416.9 823.381 1416.34 828.396C1415.77 833.411 1413.24 834.296 1406.48 831.051C1400.86 828.404 1394.24 830.714 1391.27 836.361C1391.27 839.901 1388.73 840.786 1383.38 840.786C1375.81 843.026 1369.47 848.482 1365.91 855.831C1363.91 856.526 1362.01 857.52 1360.28 858.782C1330.42 874.417 1306.76 862.322 1296.9 868.222C1301.88 858.844 1305.94 848.96 1309.01 838.721C1315.79 837.949 1322.33 835.634 1328.17 831.936C1329.38 832.619 1330.28 833.792 1330.65 835.184C1331.03 836.575 1330.84 838.066 1330.14 839.311C1327.89 842.261 1330.14 851.996 1337.18 849.636C1347.04 857.602 1362.82 857.897 1350.42 838.131C1350.84 836.249 1350.5 834.272 1349.49 832.657C1348.48 831.041 1346.88 829.928 1345.07 829.576H1342.25C1338.97 830.412 1335.51 829.533 1332.96 827.216C1338.65 823.103 1343.45 817.775 1347.04 811.58C1349.36 806.604 1352.97 802.412 1357.46 799.485C1367.25 788.165 1373.11 773.717 1374.08 758.479L1379.43 755.234C1392.71 744.272 1410.65 741.782 1426.2 748.743C1437.6 759.678 1453.24 764.375 1468.45 761.429C1475.79 755.678 1485.02 753.235 1494.08 754.644C1499.84 756.914 1506.35 755.003 1510.14 749.923C1511.14 745.047 1514.78 741.237 1519.43 740.188C1526.76 738.123 1526.76 720.128 1499.43 721.898H1492.96ZM673.237 962.329C670.692 963.134 668.237 964.222 665.914 965.575L672.956 961.739H674.646L673.237 962.329ZM620.561 986.225C622.223 983.082 624.418 980.282 627.04 977.965H631.547C627.58 980.462 623.976 983.542 620.843 987.11L620.561 986.225ZM807.885 956.724C794.75 949.254 784.717 936.96 779.716 922.208C773.312 919.223 767.914 914.289 764.223 908.048C776.491 905.261 789.134 910.651 796.054 921.618C799.56 934.697 804.773 947.205 811.547 958.789L807.885 956.724ZM1237.18 878.252H1235.49H1237.18ZM1242.82 889.757C1243.88 892.39 1245.41 894.792 1247.32 896.838C1245.02 895.206 1243.49 892.635 1243.1 889.757H1242.82ZM1246.48 870.287C1243.79 873.166 1242.11 876.906 1241.69 880.907C1242.47 876.643 1244.31 872.672 1247.04 869.402L1246.48 870.287ZM669.857 874.122C665.501 874.122 661.97 877.82 661.97 882.382C661.97 886.944 665.501 890.642 669.857 890.642C674.213 890.642 677.745 886.944 677.745 882.382C677.745 877.82 674.213 874.122 669.857 874.122ZM743.66 851.406C739.304 851.406 735.773 855.105 735.773 859.667C735.773 864.229 739.304 867.927 743.66 867.927C748.016 867.927 751.547 864.229 751.547 859.667C751.547 855.105 748.016 851.406 743.66 851.406Z" fill="#57A863"/>
<path d="M1109.3 519.812C1105.07 518.518 1100.73 517.727 1096.34 517.452C1104.51 520.992 1107.04 512.142 1103.94 507.421C1100.85 502.701 1103.94 500.931 1106.2 495.326C1107.72 490.222 1109.9 485.359 1112.68 480.871H1114.65C1118.59 482.641 1123.38 475.56 1118.31 470.84C1126.16 458.572 1135.64 447.545 1146.48 438.094C1144.05 437.761 1141.59 437.761 1139.15 438.094L1141.97 433.079C1143.44 433.556 1145.01 433.556 1146.48 433.079C1150.84 433.06 1154.56 429.781 1155.32 425.288C1156.08 420.796 1153.66 416.376 1149.58 414.789C1149.58 410.659 1151.83 406.529 1152.68 402.398C1158.12 402.398 1162.54 397.776 1162.54 392.073C1162.54 386.371 1158.12 381.748 1152.68 381.748C1151.54 375.678 1148.8 370.06 1144.79 365.522C1146.17 362.89 1146.14 359.69 1144.7 357.091C1143.25 354.493 1140.62 352.878 1137.75 352.837C1135.5 352.801 1133.35 353.766 1131.83 355.492C1128.21 353.516 1124.44 351.839 1120.56 350.477C1121.51 348.328 1121.6 345.869 1120.81 343.651C1120.01 341.434 1118.4 339.642 1116.34 338.677H1113.24C1108.84 338.674 1105.22 342.327 1105.07 346.937L1092.39 344.282C1094.1 341.991 1094.43 338.887 1093.24 336.263C1092.04 333.639 1089.54 331.946 1086.76 331.891C1084.38 331.883 1082.16 333.133 1080.85 335.216C1079.54 337.299 1079.33 339.932 1080.28 342.217L1071.83 340.742C1072.34 337.085 1069.96 333.676 1066.48 333.071C1063.45 333.019 1060.83 335.264 1060.28 338.382L1051.55 336.317C1050.64 334.261 1048.64 332.981 1046.48 333.071C1045.46 332.783 1044.39 332.783 1043.38 333.071H1039.44C1041.51 332.619 1043.38 331.481 1044.79 329.826C1049.3 323.336 1044.79 319.796 1037.18 323.041C1029.58 326.286 1027.61 318.616 1025.63 309.176C1025.53 300.29 1020.29 292.357 1012.39 289.115L1009.58 286.165C1013.75 282.716 1016.31 277.562 1016.62 272.005C1017.38 263.766 1012.75 256.023 1005.35 253.124V243.684H1018.87V227.753H1005.35V212.708H991.831V228.048H978.31V243.979H991.831V253.419C984.429 256.318 979.808 264.061 980.563 272.3C980.87 277.857 983.433 283.011 987.606 286.46L984.789 289.41C976.888 292.652 971.653 300.585 971.549 309.471C969.578 318.911 965.916 326.286 960 323.336C954.085 320.386 947.887 323.336 952.394 330.121C953.757 331.83 955.653 332.98 957.747 333.366H953.803C952.788 333.078 951.719 333.078 950.704 333.366C948.543 333.276 946.543 334.556 945.634 336.612L936.901 338.677C936.351 335.559 933.731 333.314 930.704 333.366C927.237 333.524 924.504 336.517 924.507 340.152L916.056 341.627C916.794 339.791 916.791 337.72 916.048 335.887C915.305 334.053 913.886 332.612 912.113 331.891H909.578C906.803 331.946 904.296 333.639 903.103 336.263C901.91 338.887 902.235 341.991 903.944 344.282L890.986 346.937C890.989 342.488 887.626 338.835 883.38 338.677C880.605 338.82 878.074 340.383 876.612 342.858C875.149 345.332 874.942 348.401 876.056 351.067C872.192 352.459 868.427 354.135 864.789 356.082C863.289 354.324 861.123 353.352 858.873 353.427C856.02 353.53 853.409 355.134 851.931 357.693C850.454 360.251 850.31 363.418 851.549 366.112C847.636 370.724 844.92 376.311 843.662 382.338C838.217 382.338 833.803 386.961 833.803 392.663C833.803 398.366 838.217 402.988 843.662 402.988C844.388 407.196 845.424 411.339 846.761 415.379C842.676 416.966 840.261 421.386 841.022 425.878C841.783 430.371 845.503 433.65 849.859 433.669C851.334 434.097 852.892 434.097 854.366 433.669L857.183 438.684C854.752 438.351 852.29 438.351 849.859 438.684C860.657 448.175 870.138 459.196 878.028 471.43C872.958 476.15 878.028 483.231 881.69 481.461H883.662C886.437 485.949 888.617 490.812 890.141 495.916C890.141 501.521 891.831 505.061 892.394 508.011C892.958 510.961 892.394 521.582 900 518.042C893.992 518.009 888.012 518.903 882.254 520.697C779.437 554.033 756.901 685.311 815.775 807.445C824.751 904.191 902.398 977.991 995.211 977.991C1088.03 977.991 1165.67 904.191 1174.65 807.445C1234.65 684.426 1211.27 552.853 1109.3 519.812ZM1051.27 530.137C1038.03 537.512 1020.56 548.428 1008.73 555.803C1007.08 554.411 1005.16 553.405 1003.1 552.853C1003.1 544.297 1001.41 545.477 996.338 545.477C991.268 545.477 990.141 545.477 989.578 552.853C987.521 553.405 985.6 554.411 983.944 555.803C971.549 548.133 952.958 536.627 939.437 529.252C959.132 532.055 978.998 533.337 998.873 533.087C1016.38 533.223 1033.88 532.238 1051.27 530.137ZM948.732 385.288C939.056 396.517 939.056 413.59 948.732 424.819C942.76 415.045 933.983 407.505 923.662 403.283L967.606 349.297L972.113 347.232C972.832 362.693 977.715 377.626 986.197 390.303C982.032 399.521 979.913 409.606 980 419.804C976.684 403.013 964.569 389.639 948.732 385.288ZM917.183 435.734C913.867 431.52 909.976 427.842 905.634 424.819L910.986 418.329C911.805 424.629 913.919 430.668 917.183 436.029V435.734ZM1080.56 435.734C1081.65 433.746 1082.59 431.675 1083.38 429.539C1083.5 428.264 1083.5 426.979 1083.38 425.704C1083.5 424.035 1083.5 422.358 1083.38 420.689C1083.26 419.907 1083.26 419.11 1083.38 418.329L1088.73 424.819C1084.37 427.932 1080.48 431.711 1077.18 436.029L1080.56 435.734ZM1074.65 403.283C1064.33 407.505 1055.55 415.045 1049.58 424.819C1059.25 413.59 1059.25 396.517 1049.58 385.288C1034.11 389.733 1022.28 402.804 1018.87 419.214C1018.96 409.016 1016.84 398.931 1012.68 389.713C1021.16 377.036 1026.04 362.103 1026.76 346.642L1031.27 348.707L1074.65 403.283Z" fill="#FFCE54"/>
</svg>
