<svg width="2000" height="1417" viewBox="0 0 2000 1417" fill="none" xmlns="http://www.w3.org/2000/svg">
<path d="M1817.18 7.07617H203.659C104.714 7.07617 24.5039 91.0789 24.5039 194.701V1205.99C24.5039 1309.61 104.714 1393.62 203.659 1393.62H1817.18C1916.12 1393.62 1996.33 1309.61 1996.33 1205.99V194.701C1996.33 91.0789 1916.12 7.07617 1817.18 7.07617Z" fill="#4A89DC"/>
<path d="M886.478 922.488C865.633 936.943 854.084 928.093 860.845 903.017L885.352 809.204C891.135 781.074 882.978 751.786 863.662 731.322L798.873 669.371C780.281 651.67 785.633 637.51 810.704 637.51H903.943C930.611 636.325 954.017 618.551 963.38 592.373L995.493 490.005C1003.38 465.225 1016.06 465.225 1023.66 490.005L1055.77 592.963C1065.54 619.227 1088.69 637.41 1115.49 639.87L1210.42 643.705C1235.49 643.705 1240 659.045 1220.56 675.566L1146.48 739.287C1126.45 758.599 1117.49 787.443 1122.82 815.4L1143.66 899.182C1149.86 924.553 1138.03 933.403 1117.18 919.243L1042.25 867.321C1018.86 852.96 989.876 852.96 966.479 867.321L886.478 922.488Z" fill="white"/>
</svg>
