<svg width="2000" height="1417" viewBox="0 0 2000 1417" fill="none" xmlns="http://www.w3.org/2000/svg">
<path d="M7.04688 224.205V489.712H1978.88V224.205C1978.88 116.02 1895.14 28.3193 1791.84 28.3193H194.089C90.7885 28.3193 7.04688 116.02 7.04688 224.205Z" fill="#ED5565"/>
<path d="M7.04688 952.882H1978.88V490.604H7.04688V952.882Z" fill="#4758A9"/>
<path d="M7.04688 1218.68C7.04688 1326.86 90.7885 1414.56 194.089 1414.56H1791.84C1895.14 1414.56 1978.88 1326.86 1978.88 1218.68V953.167H7.04688V1218.68Z" fill="white"/>
<path d="M741.69 547.53L720.845 414.776H795.493L748.732 340.434L720.563 323.323H608.169L572.958 547.53H511.831L476.338 323.323H364.226L335.775 340.434L289.014 414.776H363.944L343.099 547.53H232.395L413.24 1031.05H670.986L852.394 547.53H741.69Z" fill="#FFCE54"/>
</svg>
