<svg width="2000" height="1417" viewBox="0 0 2000 1417" fill="none" xmlns="http://www.w3.org/2000/svg">
<path d="M1.20451e-10 212.112V477.62H1971.83V212.112C1971.83 103.928 1888.09 16.2268 1784.79 16.2268H187.324C137.668 16.1485 90.0211 36.7518 54.883 73.4959C19.7448 110.24 -5.6312e-05 160.109 1.20451e-10 212.112Z" fill="#434A54"/>
<path d="M0 941.084H1971.83V478.511H0V941.084Z" fill="#ED5565"/>
<path d="M0 1206.88C0 1315.06 83.7417 1402.76 187.042 1402.76H1784.79C1888.09 1402.76 1971.83 1315.06 1971.83 1206.88V941.369H0V1206.88Z" fill="#57A863"/>
<path d="M1972.12 915.124H0.285156V966.751H1972.12V915.124Z" fill="white"/>
<path d="M1971.83 504.466V452.84H0V504.466H1971.83Z" fill="white"/>
<path d="M62.8204 66.083C23.0135 103.169 0.254211 156.315 0.285188 212.112V1206.88C0.254211 1262.68 23.0135 1315.82 62.8204 1352.91L929.581 708.021L62.8204 66.083Z" fill="#4758A9"/>
<path d="M285.629 885.024C274.362 900.954 263.657 897.709 262.249 877.354L257.178 802.421C254.509 780.495 241.638 761.379 222.812 751.385L161.122 721.884C143.657 713.919 143.939 702.119 161.122 695.628L227.883 671.143C246.725 663.065 259.217 644.077 259.714 622.761L257.742 539.569C257.742 519.509 266.192 515.968 278.023 532.194L326.192 598.866C339.28 615.481 360.334 622.717 380.277 617.451L449.291 595.326C467.319 589.425 474.08 598.866 464.502 615.976L426.756 681.763C416.956 701.173 417.489 724.522 428.164 743.42L463.657 799.176C474.361 815.992 467.883 825.727 449.291 820.712L382.531 802.716C362.267 798.453 341.401 806.152 328.164 822.777L285.629 885.024Z" fill="#FFCE54"/>
</svg>
