<svg width="2000" height="1417" viewBox="0 0 2000 1417" fill="none" xmlns="http://www.w3.org/2000/svg">
<g clip-path="url(#clip0)">
<path d="M11 224.793V490.3H1982.83V224.793C1982.83 116.608 1899.09 28.9072 1795.79 28.9072H197.197C94.2268 29.3945 10.9989 116.953 11 224.793Z" fill="#57A863"/>
<path d="M11 953.763H1982.83V491.485H11V953.763Z" fill="#FFCE54"/>
<path d="M10.9857 1219.56C10.6738 1327.63 93.9923 1415.54 197.183 1416.03H1794.93C1898.23 1416.03 1981.97 1328.33 1981.97 1220.15V954.638H10.1406L10.9857 1219.56Z" fill="#57A863"/>
<path d="M70.7109 76.998C32.5517 112.49 10.7142 163.383 10.7109 216.832V1227.83C10.7142 1281.27 32.5517 1332.17 70.7109 1367.66L799.443 722.181L70.7109 76.998Z" fill="#ED5565"/>
<path d="M1056.62 865.258C1042.26 874.698 1034.09 868.798 1038.59 852.572L1055.78 793.571C1059.96 775.251 1054.23 756.001 1040.85 743.419L995.776 703.593C982.818 692.383 986.48 682.943 1003.95 682.943H1068.73C1086.87 682.477 1103.07 670.937 1110.14 653.442L1132.4 587.655C1137.75 571.724 1146.76 571.724 1152.11 587.655L1174.65 654.032C1182.15 671.153 1198.1 682.512 1216.06 683.533L1282.26 685.893C1299.44 685.893 1302.82 695.923 1289.3 706.543L1237.75 747.549C1223.93 759.359 1217.53 778.23 1221.13 796.521L1235.78 850.507C1240 866.733 1231.83 872.633 1217.18 863.488L1164.51 830.152C1147.96 820.921 1128.1 820.921 1111.55 830.152L1056.62 865.258Z" fill="#434A54"/>
<path d="M1554.09 865.258C1539.72 874.698 1531.55 868.798 1536.06 852.572L1553.24 793.571C1557.43 775.251 1551.7 756.001 1538.31 743.419L1493.24 703.593C1480.28 692.383 1483.95 682.943 1501.41 682.943H1566.2C1584.34 682.477 1600.53 670.937 1607.61 653.442L1629.86 587.655C1635.21 571.724 1644.23 571.724 1649.58 587.655L1672.11 654.032C1679.62 671.153 1695.56 682.512 1713.52 683.533L1779.72 685.893C1796.9 685.893 1800.28 695.923 1786.76 706.543L1735.21 747.549C1721.29 759.291 1714.78 778.173 1718.31 796.521L1732.96 850.507C1737.18 866.733 1729.02 872.633 1714.37 863.488L1661.97 829.857C1645.42 820.626 1625.57 820.626 1609.02 829.857L1554.09 865.258Z" fill="#434A54"/>
</g>
<defs>
<clipPath id="clip0">
<rect width="2000" height="1416.04" fill="white"/>
</clipPath>
</defs>
</svg>
