<svg width="2000" height="1417" viewBox="0 0 2000 1417" fill="none" xmlns="http://www.w3.org/2000/svg">
<path d="M10.9844 220.365V485.873H1982.82V220.365C1982.82 112.181 1899.07 24.4797 1795.77 24.4797H197.182C94.2111 24.967 10.9833 112.525 10.9844 220.365Z" fill="#57A863"/>
<path d="M10.9844 1215.14C10.9844 1323.33 94.7261 1411.03 198.027 1411.03H1795.77C1899.07 1411.03 1982.82 1323.33 1982.82 1215.14V949.636H10.9844V1215.14Z" fill="#57A863"/>
<path d="M1982.82 486.764H10.9844V949.337H1982.82V486.764Z" fill="#ED5565"/>
<path d="M1982.82 900.943H10.9844V997.706H1982.82V900.943Z" fill="white"/>
<path d="M1982.82 438.379H10.9844V535.142H1982.82V438.379Z" fill="white"/>
<path d="M920.279 858.172C907.321 867.317 899.997 861.712 904.223 845.782L919.434 786.78C923.03 769.025 917.962 750.559 905.913 737.513L865.631 698.572C854.082 687.362 857.462 678.512 872.955 678.512H929.575C946.449 677.424 961.025 665.771 966.476 649.011L986.195 584.404C990.983 568.769 998.871 568.769 1003.94 584.404L1023.94 649.306C1029.87 665.697 1044.18 677.136 1060.84 678.807L1120 681.167C1135.21 681.167 1138.31 690.902 1126.48 701.227L1080.28 741.349C1067.83 753.677 1062.3 771.835 1065.63 789.435L1078.59 842.241C1082.53 858.172 1074.93 863.777 1061.97 854.927L1014.93 822.181C1000.42 813.194 982.392 813.194 967.885 822.181L920.279 858.172Z" fill="#FFCE54"/>
</svg>
