<svg width="2000" height="1417" viewBox="0 0 2000 1417" fill="none" xmlns="http://www.w3.org/2000/svg">
<path d="M17.7461 204.153V469.661H1989.58V204.153C1989.58 95.9685 1905.84 8.26758 1802.53 8.26758H204.788C101.488 8.26758 17.7461 95.9685 17.7461 204.153Z" fill="white"/>
<path d="M17.7461 932.83H1989.58V470.552H17.7461V932.83Z" fill="#4758A9"/>
<path d="M17.7461 1198.62C17.7461 1306.81 101.488 1394.51 204.788 1394.51H1802.82C1906.12 1394.51 1989.86 1306.81 1989.86 1198.62V933.116H18.0278L17.7461 1198.62Z" fill="#ED5565"/>
<path d="M669.573 1050.82C663.246 1050.84 656.961 1049.75 650.981 1047.58C640.277 1043.74 390.136 949.342 387.883 712.745V410.952C387.883 378.366 413.106 351.95 444.221 351.95H894.925C926.04 351.95 951.263 378.366 951.263 410.952V711.565C951.263 947.572 697.742 1043.15 688.164 1047.28C682.202 1049.55 675.916 1050.75 669.573 1050.82ZM500.559 470.249V711.86C500.559 836.354 622.249 905.681 669.573 928.102C716.897 905.681 838.587 835.764 838.587 711.86V470.249H500.559Z" fill="white"/>
<path d="M444.227 410.957V711.571C446.198 909.521 669.579 991.533 669.579 991.533C669.579 991.533 894.931 909.521 894.931 711.571V410.957H444.227Z" fill="#ED5565"/>
<path d="M704.79 400.041H634.367V861.434H704.79V400.041Z" fill="white"/>
<path d="M790.421 485.587H548.73V559.339H790.421V485.587Z" fill="white"/>
<path d="M827.89 633.096H510.988V706.848H827.89V633.096Z" fill="white"/>
<path d="M669.295 991.831C669.295 991.831 849.858 925.749 887.323 769.395H450.703C490.14 925.749 669.295 991.831 669.295 991.831Z" fill="#4758A9"/>
</svg>
