<svg width="2000" height="1417" viewBox="0 0 2000 1417" fill="none" xmlns="http://www.w3.org/2000/svg">
<path d="M7.04688 202.962V468.469H1978.88V202.962C1978.88 94.7771 1895.14 7.07617 1791.84 7.07617H194.089C90.7885 7.07617 7.04688 94.7771 7.04688 202.962Z" fill="white"/>
<path d="M7.04688 931.638H1978.88V469.36H7.04688V931.638Z" fill="#4758A9"/>
<path d="M7.04688 1197.43C7.04688 1305.62 90.7885 1393.32 194.089 1393.32H1791.84C1895.14 1393.32 1978.88 1305.62 1978.88 1197.43V931.924H7.04688V1197.43Z" fill="#ED5565"/>
<path d="M940.564 149.569V450.182C940.564 686.189 687.043 781.772 677.465 785.902C671.486 788.069 665.201 789.166 658.874 789.147C652.546 789.166 646.261 788.069 640.282 785.902C629.578 782.067 379.437 687.664 377.184 451.067V149.569H940.564ZM489.86 208.571V450.182C489.86 574.676 611.55 644.003 658.874 666.424C706.198 644.003 827.888 574.086 827.888 450.182V208.571H489.86Z" fill="#ED5565"/>
<path d="M433.527 149.569V450.182C435.499 648.133 658.879 730.145 658.879 730.145C658.879 730.145 884.231 648.133 884.231 450.182V149.569H433.527Z" fill="#4758A9"/>
<path d="M450.707 538.978C503.383 672.912 658.594 730.144 658.594 730.144C658.594 730.144 814.651 672.912 866.763 539.568L658.594 321.557L450.707 538.978Z" fill="white"/>
</svg>
