<svg width="2000" height="1417" viewBox="0 0 2000 1417" fill="none" xmlns="http://www.w3.org/2000/svg">
<path d="M1792.96 24.4797H179.44C80.4955 24.4797 0.285156 108.482 0.285156 212.105V1223.39C0.285156 1327.02 80.4955 1411.02 179.44 1411.02H1792.96C1891.91 1411.02 1972.12 1327.02 1972.12 1223.39V212.105C1972.12 108.482 1891.91 24.4797 1792.96 24.4797Z" fill="#4758A9"/>
<path d="M1972.12 245.736H0.285156V1189.76H1972.12V245.736Z" fill="#FFCE54"/>
<path d="M1972.12 334.239H0.285156V1101.26H1972.12V334.239Z" fill="#ED5565"/>
<path d="M1577.74 599.746H450.984V629.247H1577.74V599.746Z" fill="#FFCE54"/>
<path d="M1746.76 717.745H310.141V776.746H1746.76V717.745Z" fill="#FFCE54"/>
<path d="M845.353 983.252C985.369 983.252 1098.87 864.38 1098.87 717.745C1098.87 571.109 985.369 452.237 845.353 452.237C705.337 452.237 591.832 571.109 591.832 717.745C591.832 864.38 705.337 983.252 845.353 983.252Z" fill="#434A54"/>
<path d="M1155.21 983.252C1295.22 983.252 1408.73 864.38 1408.73 717.745C1408.73 571.109 1295.22 452.237 1155.21 452.237C1015.19 452.237 901.688 571.109 901.688 717.745C901.688 864.38 1015.19 983.252 1155.21 983.252Z" fill="white"/>
</svg>
