<svg width="2000" height="1417" viewBox="0 0 2000 1417" fill="none" xmlns="http://www.w3.org/2000/svg">
<g clip-path="url(#clip0)">
<path d="M0 0H2000V1416.04H0V0Z" fill="#012A87"/>
<path d="M0 0H2000V708.02H0V0Z" fill="#DC171D"/>
<path d="M0 0V1416.04L888.889 708.02L0 0Z" fill="white"/>
<path d="M449.051 534.471L449.323 523.509C449.323 523.509 443.78 514.133 450.213 504.058C450.213 504.058 436.547 496.38 439.728 484.357C439.728 484.357 427.37 481.001 428.279 466.566C428.279 466.566 414.94 465.583 413.559 453.523C413.559 453.523 400.221 455.856 394.351 444.105C394.351 444.105 381.339 446.806 377.669 437.119C377.669 437.119 365.021 441.772 357.515 430.385C357.515 430.385 344.158 436.116 338.561 425.368C333.037 436.079 319.68 430.385 319.68 430.385C312.266 441.731 299.527 437.023 299.527 437.023C295.983 446.748 283.008 443.989 283.008 443.989C277.156 455.742 263.836 453.406 263.836 453.406C262.528 465.429 249.207 466.411 249.207 466.411C250.261 480.883 237.922 484.166 237.922 484.166C241.175 496.187 227.527 503.846 227.527 503.846C234.124 513.978 228.636 523.279 228.636 523.279L228.327 533.388L449.087 534.471H449.053H449.051Z" fill="#F9D90F" stroke="black" stroke-width="0.4"/>
<path d="M338.961 468.396C344.876 474.739 339.346 478.205 333.89 474.95C320.402 464.109 304.639 458.099 282.958 464.652C251.807 464.773 218.715 462.782 203.584 480.332C202.506 483.719 194.059 496.476 226.735 477.758C224.698 490.702 239.898 480.121 251.649 474.247C243.553 483.236 264.045 484.71 277.005 475.886C270.634 484.962 281.824 484.718 292.439 484.779C307.964 485.295 299.388 499.634 272.816 500.225C270.878 500.083 263.428 503.793 273.477 506.544C278.131 506.79 274.345 513.682 290.455 504.906C289.454 510.042 296.357 509.047 306.109 505.842C311.64 510.458 316.129 505.673 320.881 503.268C341.235 511.717 368.111 520.177 375.341 490.864C392.328 488.786 406.388 486.138 398.776 479.273C420.905 488.854 422.186 485.158 421.85 480.432C432.462 484.69 444.806 490.456 439.779 481.094C449.982 483.862 461.156 484.825 469.869 490.361C478.697 495.216 475.84 486.733 473.767 482.914C469.245 475.232 463.528 472.965 450.636 472.684C439.704 472.446 388.474 457.279 361.826 473.647C361.826 473.647 362.45 473.647 361.982 473.647C361.514 473.647 350.913 463.056 350.913 463.056C353.352 462.986 355.113 461.683 356.525 459.746C366.919 460.302 377.313 459.244 387.707 456.27C392.442 454.701 395.142 457.694 395.034 459.911C399.366 451.819 393.369 450.144 388.954 450.478C371.372 451.536 360.817 450.56 352.316 448.989C335.463 440.06 315.179 453.758 333.919 465.041L338.961 468.396Z" fill="#BC715F" stroke="black" stroke-width="0.4"/>
<path d="M342.922 452.547C339.396 453.105 335.756 453.554 334.348 456.147C334.451 451.88 340.434 451.586 342.922 452.547Z" fill="black"/>
<path d="M341.051 455.775C341.891 455.775 342.571 455.034 342.571 454.12C342.571 453.206 341.891 452.465 341.051 452.465C340.212 452.465 339.531 453.206 339.531 454.12C339.531 455.034 340.212 455.775 341.051 455.775Z" fill="black"/>
<path d="M149.891 505.909C156.851 547.859 164.576 590.854 168.374 634.772C176.643 699.818 139.388 754.429 154.671 818.686C163.793 849.519 195.721 867.442 224.943 870.994C263.708 878.775 310.57 871.018 338.866 901.81C367.163 871.013 414.025 878.775 452.79 870.994C482.011 867.442 513.939 849.519 523.062 818.686C538.345 754.429 501.09 699.818 509.358 634.772C513.156 590.854 520.882 547.859 527.842 505.909C459.606 545.252 392.184 494.07 338.866 526.793C285.549 494.07 218.126 545.252 149.891 505.909V505.909Z" fill="#DC171D" stroke="black" stroke-width="0.4"/>
<path d="M175.328 539.792C181.34 574.404 188.012 609.878 191.293 646.114C198.434 699.781 166.257 744.84 179.457 797.856C187.336 823.296 214.912 838.084 240.151 841.015C273.633 847.434 314.108 841.026 338.548 866.44C362.987 841.03 403.463 847.434 436.944 841.015C462.183 838.084 489.759 823.296 497.639 797.856C510.839 744.84 478.661 699.781 485.803 646.114C489.083 609.878 495.756 574.404 501.767 539.792C442.832 572.253 384.598 530.024 338.548 557.023C292.497 530.024 234.264 572.253 175.328 539.792Z" fill="#62AFE1" stroke="black" stroke-width="0.40063"/>
<path d="M306.562 636.832L237.602 687.025V747.455H439.499V687.025L370.538 636.832H306.562Z" fill="white" stroke="black" stroke-width="0.9" stroke-linecap="round"/>
<path d="M221.223 737.448V749.001H227.863V808.348H449.238V749.001H455.879V737.448H221.223Z" fill="white" stroke="black" stroke-width="0.9" stroke-linecap="round"/>
<path d="M338.547 571.383L306.562 604.446V636.832H370.539V604.446L338.547 571.383Z" fill="white" stroke="black" stroke-width="0.9" stroke-linecap="round"/>
<path d="M247.57 695.226H267.799V729.248H247.57V695.226Z" fill="white" stroke="black" stroke-width="0.9" stroke-linecap="round"/>
<path d="M304.996 695.226H325.225V729.248H304.996V695.226Z" fill="white" stroke="black" stroke-width="0.9" stroke-linecap="round"/>
<path d="M429.53 695.226H409.301V729.248H429.53V695.226Z" fill="white" stroke="black" stroke-width="0.9" stroke-linecap="round"/>
<path d="M372.108 695.226H351.879V729.248H372.108V695.226Z" fill="white" stroke="black" stroke-width="0.9" stroke-linecap="round"/>
<path d="M247.57 754.389H267.799V788.411H247.57V754.389Z" fill="white" stroke="black" stroke-width="0.9" stroke-linecap="round"/>
<path d="M429.53 754.389H409.301V788.411H429.53V754.389Z" fill="white" stroke="black" stroke-width="0.9" stroke-linecap="round"/>
<path d="M354.408 752.463H322.695V808.35H354.408V752.463Z" fill="white" stroke="black" stroke-width="0.9" stroke-linecap="round"/>
<path d="M304.257 737.448H290.035V808.348H304.257V737.448Z" fill="white" stroke="black" stroke-width="0.9" stroke-linecap="round"/>
<path d="M372.844 737.448H387.072V808.348H372.844V737.448Z" fill="white" stroke="black" stroke-width="0.9" stroke-linecap="round"/>
<path d="M392.353 739.88V722.368H284.75V739.88H392.353Z" fill="white" stroke="black" stroke-width="0.9" stroke-linecap="round"/>
<path d="M306.562 604.445H370.539Z" fill="white"/>
<path d="M306.562 604.445H370.539" stroke="black" stroke-width="0.9"/>
<path d="M237.602 687.023H439.499Z" fill="white"/>
<path d="M237.602 687.023H439.499" stroke="black" stroke-width="0.9"/>
<path d="M216.152 800.942H460.95V819.315H216.152V800.942Z" fill="white" stroke="black" stroke-width="0.9" stroke-linecap="round"/>
<path d="M350.757 611.455H326.344V629.818H350.757V611.455Z" fill="white" stroke="black" stroke-width="0.9" stroke-linecap="round"/>
<path d="M292.438 722.368V739.88" stroke="black"/>
<path d="M384.668 722.368V739.88" stroke="black"/>
<path d="M376.98 722.368V739.88" stroke="black"/>
<path d="M369.293 722.368V739.88" stroke="black"/>
<path d="M361.609 722.368V739.88" stroke="black"/>
<path d="M353.922 722.368V739.88" stroke="black"/>
<path d="M346.238 722.368V739.88" stroke="black"/>
<path d="M338.551 722.368V739.88" stroke="black"/>
<path d="M330.863 722.368V739.88" stroke="black"/>
<path d="M323.18 722.368V739.88" stroke="black"/>
<path d="M315.492 722.368V739.88" stroke="black"/>
<path d="M307.809 722.368V739.88" stroke="black"/>
<path d="M300.121 722.368V739.88" stroke="black"/>
<path d="M392.352 723.562V739.879" stroke="black" stroke-width="0.9"/>
<path d="M234.837 568.011C250.033 578.309 257.22 587.831 257.255 596.662C238.344 595.594 221.243 586.141 234.837 568.011Z" fill="#008830" stroke="black" stroke-width="0.45"/>
<path d="M247.073 577.378C261.707 586.22 269.953 595.846 272.496 606.173C257.629 608.92 241.769 601.469 247.073 577.378Z" fill="#008830" stroke="black" stroke-width="0.45"/>
<path d="M228.156 592.573C230.126 610.328 227.714 623.086 221.389 631.383C210.493 620.3 206.74 602.321 228.156 592.573Z" fill="#008830" stroke="black" stroke-width="0.45"/>
<path d="M228.175 592.626C241.922 602.949 249.239 613.388 250.815 623.93C235.767 625.115 220.672 616.048 228.175 592.626Z" fill="#008830" stroke="black" stroke-width="0.45"/>
<path d="M237.306 578.414L243.64 582.615L250.438 581.903L253.29 586.891C253.29 586.891 252.525 597.141 252.52 598.076C252.515 599.012 254.621 604.745 254.621 604.745L249.994 608.316L237.601 613.708L226.01 603.71L218.704 604.513L215.5 594.874L219.101 586.655L228.146 580.419L237.306 578.414Z" fill="#008830" stroke="black" stroke-width="0.45"/>
<path d="M225.41 583.518C219.454 600.24 211.777 610.383 202.564 614.652C197.702 599.484 202.174 581.691 225.41 583.518Z" fill="#008830" stroke="black" stroke-width="0.45"/>
<path d="M225.379 584.735C208.858 581.281 198.162 574.931 192.664 565.994C205.941 558.38 223.208 560.102 225.379 584.735V584.735Z" fill="#008830" stroke="black" stroke-width="0.45"/>
<path d="M256.969 585.333C273.74 586.913 285.681 583.986 293.31 577.034C282.562 565.788 265.529 562.323 256.969 585.333Z" fill="#008830" stroke="black" stroke-width="0.45"/>
<path d="M257.02 585.352C267.133 599.645 277.171 607.11 287.141 608.48C287.823 592.474 278.853 576.713 257.02 585.352Z" fill="#008830" stroke="black" stroke-width="0.45"/>
<path d="M251.751 594.089C264.356 605.942 270.557 617.166 271.042 627.828C255.962 627.263 241.887 616.503 251.751 594.089Z" fill="#008830" stroke="black" stroke-width="0.45"/>
<path d="M246.556 613.731C255.181 629.085 257.884 641.778 255.301 652.093C241.092 646.699 230.754 631.913 246.556 613.731Z" fill="#008830" stroke="black" stroke-width="0.45"/>
<path d="M240.489 612.738C242.399 630.501 239.944 643.25 233.591 651.522C222.732 640.397 219.041 622.404 240.489 612.738Z" fill="#008830" stroke="black" stroke-width="0.45"/>
<path d="M229.534 592.811C228.322 591.898 227.409 590.31 227.196 588.742C227.014 587.403 227.117 586.543 227.685 584.656C227.973 583.7 228.201 582.896 228.192 582.869C228.184 582.842 227.959 582.772 227.692 582.714C227.229 582.612 227.172 582.644 226.338 583.462C223.485 586.26 220.882 587.601 219.1 587.191C217.034 586.715 216.243 583.673 217.393 580.623C218.368 578.031 220.2 576.445 222.539 576.164C223.404 576.06 223.769 576.097 224.779 576.39C225.442 576.583 225.96 576.683 225.93 576.614C225.9 576.544 225.396 576.164 224.81 575.769C221.926 573.827 220.22 571.58 220.106 569.572C220.022 568.114 220.921 566.715 222.46 565.907C225.047 564.55 228.285 565.517 229.79 568.096C230.513 569.335 230.701 570.32 230.698 572.868C230.697 574.346 230.755 575.193 230.86 575.24C230.95 575.28 231.187 575.51 231.388 575.751L231.752 576.189L233.181 574.946C234.637 573.679 235.69 572.906 236.873 572.237C238.508 571.313 240.435 571.051 241.4 571.623C243.514 572.875 243.506 576.957 241.382 579.752C239.66 582.019 237.042 582.819 234.651 581.807C234.115 581.58 233.355 581.303 232.964 581.191L232.252 580.987L233.354 582.474C234.839 584.48 235.674 585.916 236.249 587.455C237.335 590.359 236.783 592.599 234.744 593.559C233.174 594.299 231.117 594.004 229.534 592.811V592.811Z" fill="#F9D90F" stroke="black" stroke-width="0.45"/>
<path d="M232.368 580.201C232.003 581.174 231.329 581.97 230.495 582.414C229.66 582.858 228.733 582.914 227.918 582.569C227.103 582.224 226.466 581.507 226.148 580.575C225.829 579.643 225.856 578.573 226.221 577.6C226.586 576.627 227.26 575.831 228.095 575.387C228.929 574.943 229.856 574.887 230.671 575.232C231.487 575.577 232.123 576.295 232.442 577.226C232.76 578.158 232.733 579.228 232.368 580.201V580.201Z" fill="#F9D90F" stroke="black" stroke-width="0.45"/>
<path d="M244.687 573.95C244.698 575.325 244.917 576.191 245.723 578.06C246.132 579.008 246.462 579.806 246.458 579.835C246.453 579.863 246.248 579.953 246 580.034C245.57 580.176 245.511 580.149 244.598 579.387C241.475 576.783 238.793 575.639 237.143 576.205C235.229 576.863 234.894 580.02 236.419 583.024C237.715 585.576 239.69 587.034 241.971 587.123C242.815 587.156 243.16 587.088 244.086 586.705C244.695 586.454 245.178 586.308 245.159 586.381C245.14 586.455 244.71 586.883 244.203 587.334C241.708 589.55 240.386 591.976 240.555 594.026C240.678 595.515 241.734 596.862 243.321 597.553C245.989 598.716 248.958 597.461 250.042 594.713C250.563 593.394 250.606 592.377 250.249 589.788C250.043 588.286 249.98 587.42 250.075 587.363C250.155 587.316 250.351 587.062 250.509 586.8L250.798 586.324L252.34 587.468C253.911 588.633 255.028 589.33 256.254 589.91C257.95 590.713 259.833 590.817 260.679 590.155C262.531 588.705 261.956 584.557 259.532 581.895C257.566 579.735 254.946 579.142 252.795 580.371C252.313 580.647 251.624 580.993 251.264 581.139L250.61 581.406L251.459 579.802C252.604 577.638 253.205 576.109 253.542 574.497C254.179 571.454 253.338 569.225 251.251 568.419C249.643 567.8 247.713 568.273 246.52 569.46C245.327 570.647 244.673 572.338 244.687 573.95V573.95Z" fill="#F9D90F" stroke="black" stroke-width="0.449764"/>
<path d="M244.869 582.033C245.305 581.064 246.045 580.282 246.926 579.858C247.808 579.434 248.759 579.404 249.571 579.774C250.383 580.144 250.988 580.883 251.254 581.83C251.52 582.777 251.425 583.853 250.99 584.823C250.554 585.792 249.815 586.574 248.933 586.998C248.051 587.422 247.1 587.452 246.288 587.082C245.477 586.713 244.871 585.973 244.605 585.026C244.339 584.079 244.434 583.003 244.869 582.033V582.033Z" fill="#F9D90F" stroke="black" stroke-width="0.45"/>
<path d="M225.068 612.029C224.904 610.499 225.034 609.508 225.685 607.321C226.015 606.213 226.278 605.281 226.269 605.251C226.261 605.22 226.022 605.148 225.738 605.091C225.244 604.992 225.183 605.03 224.271 606.001C221.155 609.318 218.339 610.954 216.442 610.549C214.243 610.079 213.467 606.618 214.766 603.073C215.87 600.062 217.866 598.174 220.374 597.764C221.303 597.613 221.693 597.641 222.766 597.94C223.471 598.137 224.023 598.233 223.993 598.155C223.963 598.076 223.432 597.658 222.814 597.227C219.772 595.104 217.999 592.589 217.923 590.288C217.868 588.617 218.862 586.978 220.527 585.994C223.325 584.34 226.767 585.33 228.319 588.235C229.064 589.629 229.241 590.753 229.18 593.678C229.145 595.375 229.187 596.345 229.299 596.395C229.394 596.437 229.643 596.693 229.852 596.962L230.232 597.451L231.789 595.971C233.375 594.463 234.52 593.536 235.801 592.725C237.571 591.603 239.639 591.231 240.658 591.851C242.892 593.21 242.789 597.896 240.453 601.183C238.558 603.85 235.739 604.865 233.204 603.792C232.635 603.552 231.829 603.261 231.413 603.147L230.656 602.94L231.8 604.606C233.344 606.854 234.204 608.471 234.784 610.216C235.879 613.51 235.236 616.101 233.033 617.279C231.336 618.186 229.142 617.924 227.671 616.767C226.2 615.61 225.26 613.821 225.068 612.029V612.029Z" fill="#F9D90F" stroke="black" stroke-width="0.45"/>
<path d="M230.71 601.948C230.304 603.093 229.574 604.045 228.68 604.595C227.787 605.146 226.804 605.249 225.947 604.882C225.09 604.516 224.43 603.709 224.111 602.64C223.793 601.572 223.842 600.328 224.249 599.183C224.655 598.038 225.385 597.086 226.279 596.535C227.172 595.985 228.155 595.882 229.012 596.248C229.869 596.615 230.529 597.422 230.848 598.49C231.166 599.559 231.117 600.803 230.71 601.948V601.948Z" fill="#F9D90F" stroke="black" stroke-width="0.45"/>
<path d="M246.374 596.836C246.236 598.342 246.379 599.313 247.052 601.449C247.393 602.531 247.666 603.441 247.658 603.471C247.65 603.501 247.416 603.577 247.137 603.639C246.652 603.746 246.591 603.71 245.68 602.774C242.562 599.577 239.766 598.026 237.904 598.462C235.746 598.967 235.034 602.384 236.366 605.84C237.498 608.777 239.491 610.592 241.967 610.944C242.883 611.075 243.266 611.039 244.318 610.723C245.009 610.516 245.552 610.41 245.523 610.488C245.494 610.567 244.978 610.987 244.376 611.424C241.414 613.57 239.706 616.076 239.665 618.338C239.635 619.981 240.638 621.572 242.292 622.505C245.072 624.074 248.445 623.033 249.929 620.148C250.642 618.763 250.8 617.656 250.697 614.783C250.636 613.116 250.664 612.162 250.772 612.111C250.866 612.068 251.107 611.812 251.308 611.543L251.675 611.054L253.23 612.478C254.814 613.928 255.956 614.816 257.228 615.587C258.988 616.654 261.029 616.978 262.023 616.348C264.202 614.968 264.03 610.367 261.682 607.184C259.776 604.602 256.986 603.661 254.507 604.765C253.95 605.013 253.161 605.315 252.753 605.435L252.011 605.654L253.113 603.994C254.598 601.755 255.421 600.149 255.966 598.423C256.995 595.165 256.324 592.632 254.137 591.519C252.453 590.661 250.297 590.963 248.866 592.129C247.435 593.295 246.537 595.071 246.374 596.836V596.836Z" fill="#F9D90F" stroke="black" stroke-width="0.45"/>
<path d="M248.37 603.979C247.306 604.169 246.344 604.738 245.694 605.559C245.044 606.38 244.76 607.386 244.904 608.356C245.049 609.326 245.611 610.18 246.465 610.731C247.32 611.282 248.397 611.484 249.461 611.293C250.525 611.102 251.488 610.534 252.138 609.713C252.788 608.892 253.072 607.886 252.927 606.916C252.782 605.946 252.221 605.092 251.366 604.541C250.512 603.99 249.434 603.788 248.37 603.979V603.979Z" fill="#F9D90F" stroke="black" stroke-width="0.45"/>
<path d="M472.798 640.504H464.325V634.109H457.107V626.801H448.844L448.837 580.425L439.425 562.936L430.014 580.425V626.801H421.75V634.109H414.532V640.504H406.059V649.944L472.798 650.146V640.504Z" fill="white" stroke="black" stroke-width="0.8"/>
<path d="M339.296 931.621C373.206 931.737 414.912 924.385 434.447 913.658L477.353 909.624L478.207 965.218C441.862 986.5 357.941 991.073 339.478 990.919C320.996 991.073 236.04 986.425 199.531 965.064L200.004 909.431L243 913.541C262.535 924.214 305.513 931.621 339.387 931.621H339.296" fill="#F9D90F"/>
<path d="M199.531 965.065L243.777 954.317L199.679 947.615L199.531 965.065Z" fill="#F9B60F"/>
<path d="M89.0778 694.491L126.877 707.265L115.446 772.256L79.6644 778.159C79.6644 778.159 73.6311 743.986 89.0778 694.452" fill="#F9D90F"/>
<path d="M79.6641 778.161L102.907 744.103L115.446 772.258L79.6641 778.161Z" fill="#F9B60F"/>
<path d="M89.0778 694.491L126.877 707.265L115.446 772.256L79.6644 778.159C79.6644 778.159 73.6311 743.986 89.0778 694.452V694.491V694.491Z" stroke="black" stroke-width="0.40063"/>
<path d="M199.531 965.065L244.059 954.317" stroke="black" stroke-width="0.40063"/>
<path d="M102.941 743.896L115.445 772.257" stroke="black" stroke-width="0.40063"/>
<path d="M478.207 965.219L433.961 954.471L478.059 947.769L478.207 965.219Z" fill="#F9B60F"/>
<path d="M588.658 694.644L550.859 707.418L562.29 772.41L598.072 778.313C598.072 778.313 604.105 744.139 588.658 694.605" fill="#F9D90F"/>
<path d="M598.071 778.314L574.828 744.256L562.289 772.411L598.071 778.314Z" fill="#F9B60F"/>
<path d="M588.658 694.644L550.859 707.418L562.29 772.41L598.072 778.313C598.072 778.313 604.105 744.139 588.658 694.605V694.645V694.644Z" stroke="black" stroke-width="0.40063"/>
<path d="M478.204 965.219L433.676 954.471" stroke="black" stroke-width="0.40063"/>
<path d="M574.793 744.05L562.289 772.411" stroke="black" stroke-width="0.40063"/>
<path d="M339.296 931.621C373.206 931.737 414.912 924.385 434.447 913.658L477.353 909.624L478.207 965.218C441.862 986.5 357.941 991.073 339.478 990.919C320.996 991.073 236.04 986.425 199.531 965.064L200.004 909.431L243 913.541C262.535 924.214 305.513 931.621 339.387 931.621H339.296" stroke="black" stroke-width="0.40063"/>
<path d="M611.263 741.46L574.827 744.256C574.01 777.042 570.266 902.159 429.574 908.951L433.954 954.471C605.212 956.36 618.223 801.008 611.263 741.46Z" fill="#F9D90F"/>
<path d="M611.263 741.46L574.827 744.256C574.01 777.042 570.266 902.159 429.574 908.951L433.954 954.471C605.212 956.36 618.223 801.008 611.263 741.46Z" stroke="black" stroke-width="0.40063"/>
<path d="M66.471 741.306L102.907 744.102C103.724 776.888 107.468 902.005 248.16 908.797L243.78 954.317C72.5224 956.206 59.5108 800.854 66.471 741.306Z" fill="#F9D90F"/>
<path d="M66.471 741.306L102.907 744.102C103.724 776.888 107.468 902.005 248.16 908.797L243.78 954.317C72.5224 956.206 59.5108 800.854 66.471 741.306Z" stroke="black" stroke-width="0.40063"/>
<path d="M315.408 959.023C314.445 959.679 313.137 959.855 311.628 959.776L304.832 959.409L305.413 950.399L312.155 950.784C313.482 950.88 314.536 951.152 315.19 951.575C316.553 952.327 317.153 953.718 317.026 955.646C316.935 957.306 316.389 958.388 315.39 959.023H315.408ZM303.978 973.208L304.65 962.226L312.573 962.807C315.136 963.019 317.044 962.305 318.334 960.914C319.679 959.563 320.369 957.79 320.46 955.783C320.624 953.446 320.06 951.536 318.752 950.127C317.498 948.777 315.717 948.063 313.482 947.833L302.16 947.081L300.598 972.936L303.96 973.169" fill="#012A87"/>
<path d="M329.737 951.575L338.024 951.672C339.223 951.787 340.168 951.942 340.859 952.289C342.131 952.926 342.731 954.2 342.731 956.052C342.731 957.791 342.258 958.948 341.331 959.643C340.441 960.278 339.151 960.567 337.606 960.567L329.646 960.471L329.719 951.575H329.737ZM329.592 974.48L329.665 963.442L337.443 963.56C338.824 963.56 339.841 963.674 340.55 964.041C341.695 964.6 342.258 965.779 342.313 967.398L342.513 971.74C342.568 972.782 342.586 973.421 342.64 973.843C342.749 974.152 342.804 974.48 342.949 974.713H347.129L347.056 974.152C346.583 973.882 346.202 973.363 346.038 972.57C345.893 972.068 345.82 971.315 345.784 970.37L345.711 966.916C345.656 965.353 345.402 964.274 344.839 963.674C344.348 962.979 343.676 962.381 342.64 962.015C343.803 961.361 344.675 960.608 345.311 959.68C345.911 958.657 346.22 957.364 346.22 955.784C346.22 952.812 345.075 950.784 342.749 949.686C341.495 949.088 339.896 948.777 338.006 948.741L326.321 948.623L326.23 974.557H329.592" fill="#012A87"/>
<path d="M357.273 969.057C355.783 967.13 354.983 964.718 354.802 961.862C354.638 958.271 355.292 955.533 356.837 953.678C358.4 951.671 360.417 950.709 363.052 950.554C365.705 950.4 367.886 951.307 369.503 953.08C371.157 954.819 372.102 957.231 372.265 960.241C372.356 963.133 371.884 965.7 370.63 967.957C369.394 970.256 367.341 971.549 364.306 971.624C361.144 971.799 358.781 971.008 357.273 969.057ZM353.275 952.733C351.712 955.299 351.076 958.271 351.24 961.862C351.476 965.738 352.603 968.944 354.729 971.356C357.091 973.768 360.217 974.981 364.07 974.75C368.195 974.557 371.302 972.897 373.41 969.85C375.119 967.091 375.936 963.886 375.755 959.93C375.518 956.399 374.555 953.524 372.756 951.382C370.485 948.507 367.159 947.235 362.652 947.428C358.4 947.716 355.274 949.375 353.257 952.733" fill="#012A87"/>
<path d="M83.1522 789.456L83.7155 792.696C82.3527 792.985 81.2623 793.566 80.4627 794.319C79.0271 795.745 78.5364 797.888 79.027 800.802C79.2454 802.035 79.6631 803.251 80.1901 804.218C81.2808 806.186 82.6979 806.975 84.497 806.666C85.8237 806.416 86.6959 805.877 87.1139 804.874C87.5136 803.888 87.8048 802.383 87.8955 800.455L88.0591 796.806C88.171 794.548 88.404 792.775 88.8765 791.789C89.6212 790.014 91.0209 788.914 93.1107 788.549C95.3459 788.123 97.3086 788.663 98.9986 790.014C100.707 791.268 101.834 793.448 102.252 796.343C102.779 798.988 102.543 801.362 101.56 803.502C100.615 805.588 98.7983 806.859 96.0179 807.4L95.4725 804.121C96.7627 803.62 97.7259 803.135 98.362 802.462C99.4528 801.167 99.7794 799.297 99.3609 796.731C99.0339 794.645 98.362 793.294 97.3437 792.621C96.3448 791.828 95.3448 791.519 94.2545 791.714C93.0368 791.907 92.2373 792.621 91.8556 793.778C91.6193 794.548 91.4379 796.15 91.2744 798.602L91.1109 802.383C91.0213 804.158 90.766 805.626 90.2027 806.63C89.3124 808.48 87.8039 809.619 85.605 809.985C82.8246 810.487 80.6802 809.812 79.1538 807.921C77.5909 806.068 76.6277 803.849 76.1371 801.09C75.5918 797.809 75.9915 795.262 77.2278 793.219C78.4818 791.116 80.4626 789.9 83.1522 789.495" fill="#012A87"/>
<path d="M81.6055 823.669L105.629 815.989L111.227 833.952L108.301 834.936L103.721 820.175L96.416 822.511L100.65 836.152L97.8516 837.097L93.6538 823.418L85.5125 826.002L90.1646 841.092L87.2935 841.962L81.6055 823.669" fill="#012A87"/>
<path d="M92.2578 854.809L114.356 842.365L116.718 846.744L101.526 863.801L123.714 859.769L126.004 864.112L103.961 876.481L102.398 873.604L115.41 866.331C115.882 866.04 116.609 865.615 117.663 865.019C118.699 864.517 119.862 863.84 121.025 863.203L98.9271 867.198L97.3097 864.149L112.393 847.149L111.666 847.537C111.194 847.824 110.376 848.251 109.267 848.924C108.177 849.64 107.359 850.082 106.832 850.313L93.8571 857.704L92.2579 854.773" fill="#012A87"/>
<path d="M133.434 889.37C132.326 889.102 131.236 888.425 130.163 887.248L125.493 882.134L131.781 876.017L136.488 881.113C137.396 882.059 137.978 882.983 138.287 883.776C138.722 885.299 138.287 886.69 136.96 888C135.761 889.177 134.561 889.66 133.434 889.37ZM115.68 891.744L123.385 884.238L128.855 890.123C130.618 892.033 132.417 892.902 134.307 892.865C136.233 892.747 137.887 891.995 139.341 890.528C140.976 888.984 141.757 887.171 141.757 885.224C141.735 883.331 140.922 881.557 139.413 879.898L131.563 871.386L113.281 889.216L115.644 891.744" fill="#012A87"/>
<path d="M137.723 912.584L150.97 890.528L166.635 900.64L165 903.266L152.133 895.084L148.154 901.761L159.984 909.381L158.457 911.91L146.609 904.327L142.102 911.793L155.132 920.111L153.569 922.716L137.723 912.584" fill="#012A87"/>
<path d="M176.939 908.319L184.899 911.003C186.026 911.367 186.843 911.831 187.388 912.353C188.406 913.376 188.679 914.841 188.079 916.616C187.589 918.16 186.844 919.163 185.681 919.59C184.645 919.781 183.336 919.781 181.81 919.279L174.305 916.734L176.94 908.319L176.939 908.319ZM170.07 929.988L173.378 919.472L180.792 922.038C182.119 922.407 183.082 922.909 183.554 923.428C184.463 924.296 184.736 925.589 184.281 927.192L183.173 931.378C182.918 932.4 182.791 933.076 182.682 933.385C182.682 933.714 182.682 934.062 182.738 934.291L186.645 935.642L186.881 935.044C186.464 934.697 186.227 934.062 186.245 933.271C186.335 932.786 186.464 932.016 186.718 931.127L187.663 927.769C188.045 926.303 188.19 925.203 187.844 924.414C187.553 923.582 187.063 922.829 186.245 922.117C187.481 921.884 188.553 921.479 189.462 920.765C190.316 919.974 191.043 918.874 191.479 917.332C192.369 914.532 191.879 912.197 189.916 910.422C188.935 909.498 187.536 908.704 185.7 907.971L174.579 904.326L166.801 928.927L170.054 929.988" fill="#012A87"/>
<path d="M466.757 913.855C469.064 913.546 471.049 913.753 472.835 914.494C475.465 915.503 477.178 917.679 478.173 920.931L474.869 921.269C474.225 919.505 473.259 918.272 471.916 917.547C470.608 916.866 468.945 916.636 467.015 916.851C464.763 917.105 462.924 918.208 461.589 920.054C460.268 922.029 459.79 924.727 460.206 928.217C460.558 931.104 461.458 933.579 463.03 935.274C464.475 937.002 466.673 937.689 469.584 937.389C471.766 937.112 473.542 936.271 474.828 934.743C476.165 933.297 476.626 931.033 476.314 928.074L468.611 928.966L468.328 926.16L479.051 924.917L480.612 938.408L478.485 938.649L477.29 935.499C476.348 936.854 475.419 937.887 474.613 938.471C473.257 939.504 471.454 940.12 469.221 940.356C466.325 940.692 463.718 940.024 461.401 938.294C458.869 936.12 457.3 932.99 456.824 928.723C456.292 924.528 457.052 920.994 458.972 918.27C460.799 915.639 463.364 914.172 466.759 913.817" fill="#012A87"/>
<path d="M491.492 912.023L499.252 909.44C500.317 909.077 501.23 908.985 502.008 909.117C503.409 909.293 504.406 910.225 504.924 912.02C505.417 913.55 505.366 914.867 504.708 915.762C504.013 916.689 502.954 917.34 501.438 917.852L494.148 920.249L491.492 912.022L491.492 912.023ZM498.329 933.278L494.987 922.966L502.205 920.583C503.556 920.193 504.491 919.991 505.181 920.1C506.437 920.326 507.366 921.181 507.947 922.751L509.415 926.684C509.734 927.658 509.996 928.254 510.217 928.53C510.31 928.874 510.534 929.091 510.703 929.323L514.62 927.998L514.427 927.443C513.858 927.417 513.32 927.052 512.937 926.373C512.653 925.891 512.394 925.201 512.016 924.392L510.876 921.171C510.36 919.772 509.806 918.9 509.15 918.359C508.49 917.933 507.646 917.63 506.635 917.51C507.455 916.584 508.061 915.651 508.318 914.532C508.594 913.397 508.537 912.113 508.077 910.66C507.203 907.924 505.464 906.374 502.946 906.07C501.616 905.896 500.075 906.126 498.289 906.701L487.392 910.252L495.148 934.43L498.343 933.352" fill="#012A87"/>
<path d="M527.049 920.972L514.238 899.265L529.587 889.842L531.141 892.463L518.562 900.201L522.506 906.836L534.121 899.636L535.571 902.175L523.956 909.377L528.3 916.69L541.099 908.808L542.655 911.372L527.032 920.972" fill="#012A87"/>
<path d="M540.482 883.286L544.572 878.916C546.465 876.968 548.422 876.136 550.511 876.496C552.602 876.78 554.692 878.045 556.887 880.256C557.49 880.792 558.016 881.476 558.557 882.235C559.5 883.654 560.04 884.887 560.367 886.105C560.629 887.627 560.504 888.996 559.955 890.289C559.627 890.932 559.064 891.678 558.228 892.565L554.121 896.897L540.483 883.25L540.482 883.286ZM560.769 894.112C563.67 891.007 564.41 887.556 562.943 883.551C562.083 881.381 560.722 879.246 558.8 877.349C556.383 874.882 553.814 873.558 551.066 873.207C548.016 872.82 545.373 873.868 543.013 876.376L536.049 883.628L553.785 901.44L560.75 894.15" fill="#012A87"/>
<path d="M575.727 874.1L554.938 860.132L556.787 857.349L577.616 871.244L575.744 874.138" fill="#012A87"/>
<path d="M584.363 858.465L561.827 847.776L569.246 831.142L571.984 832.395L565.929 846.106L572.718 849.274L578.373 836.65L580.967 837.917L575.367 850.522L582.958 854.174L589.162 840.302L591.9 841.534L584.345 858.464" fill="#012A87"/>
<path d="M595.59 828.297L571.698 821.587L572.654 817.708L595.236 810.822L575.85 805.39L576.684 802.349L600.581 808.907L599.666 812.676L577.041 819.73L596.431 825.069L595.608 828.298" fill="#012A87"/>
<path d="M594.395 794.994L594.823 791.835C596.216 791.937 597.404 791.765 598.317 791.304C600.108 790.393 601.201 788.556 601.578 785.786C601.736 784.486 601.728 783.343 601.484 782.248C601.048 780.135 599.968 778.925 598.17 778.656C596.835 778.445 595.857 778.737 595.13 779.472C594.47 780.321 593.759 781.558 593.188 783.329L591.95 786.582C591.15 788.712 590.43 790.175 589.682 790.983C588.477 792.5 586.847 792.968 584.797 792.725C582.608 792.382 580.857 791.385 579.657 789.573C578.416 787.908 577.969 785.588 578.403 782.764C578.719 780.181 579.627 778.035 581.162 776.347C582.583 774.804 584.722 774.133 587.409 774.555L587.034 777.717C585.712 777.656 584.648 777.851 583.857 778.376C582.432 779.115 581.596 780.778 581.266 783.25C580.989 785.296 581.203 786.687 581.913 787.769C582.629 788.68 583.554 789.282 584.658 789.426C585.834 789.591 586.778 789.242 587.459 788.321C587.95 787.687 588.559 786.294 589.4 784.033L590.627 780.611C591.226 779.03 591.918 777.828 592.703 776.985C594.101 775.59 595.877 775.054 598.068 775.325C600.738 775.744 602.604 776.99 603.504 779.163C604.385 781.354 604.667 783.741 604.329 786.418C603.905 789.445 602.864 791.792 601.05 793.318C599.234 794.878 597.031 795.338 594.395 794.994" fill="#012A87"/>
</g>
<defs>
<clipPath id="clip0">
<rect width="2000" height="1416.04" rx="186" fill="white"/>
</clipPath>
</defs>
</svg>
