<svg width="2000" height="1417" viewBox="0 0 2000 1417" fill="none" xmlns="http://www.w3.org/2000/svg">
<path d="M109.297 1386.54L123.663 1383L1996.06 479.976V216.239C1996.06 112.616 1915.85 28.6133 1816.9 28.6133H1312.68L64.2266 1344.94C76.9191 1361.35 92.1547 1375.41 109.297 1386.54Z" fill="#ED5565"/>
<path d="M203.944 29.5107C104.999 29.5107 24.7891 113.513 24.7891 217.136V1228.13C24.7767 1255.12 30.3507 1281.79 41.1271 1306.31L680.282 29.5107H203.944Z" fill="#4758A9"/>
<path d="M707.045 29.5107H680.284L40.8477 1306.31C44.785 1315.33 49.4004 1324.01 54.6505 1332.27C57.7491 1336.99 60.8477 1341.41 64.2279 1345.84L1312.68 29.5107H707.045Z" fill="#FFCE54"/>
<path d="M1996.34 911.285V479.688L123.945 1382.71L1996.34 911.285Z" fill="white"/>
<path d="M123.944 1382.71L112.395 1388.31C140.051 1405.68 171.694 1414.86 203.944 1414.86H1817.18C1916.13 1414.86 1996.34 1330.86 1996.34 1227.24V911.579L123.944 1382.71Z" fill="#57A863"/>
</svg>
