<svg width="2000" height="1417" viewBox="0 0 2000 1417" fill="none" xmlns="http://www.w3.org/2000/svg">
<path d="M24.5039 219.482V484.99H1996.34V219.482C1996.34 111.298 1912.59 23.5969 1809.29 23.5969H211.546C108.246 23.5969 24.5039 111.298 24.5039 219.482Z" fill="#ED5565"/>
<path d="M24.5039 1213.97C24.5039 1322.15 108.246 1409.85 211.546 1409.85H1809.29C1912.59 1409.85 1996.34 1322.15 1996.34 1213.97V948.459H24.5039V1213.97Z" fill="#434A54"/>
<path d="M1996.34 485.881H24.5039V948.454H1996.34V485.881Z" fill="white"/>
<path d="M680.279 855.524C667.321 864.669 659.997 859.064 664.223 843.133L679.434 784.132C683.03 766.377 677.962 747.911 665.913 734.865L625.631 695.924C614.082 684.714 617.462 675.864 632.955 675.864H690.702C707.576 674.775 722.152 663.123 727.603 646.363L747.321 581.756C752.11 566.12 759.997 566.12 765.068 581.756L785.068 646.658C791 663.049 805.308 674.487 821.969 676.159L881.124 678.519C896.336 678.519 899.434 688.254 887.603 698.579L841.406 738.7C828.959 751.029 823.428 769.187 826.758 786.787L839.716 839.593C843.659 855.524 836.054 861.129 823.096 852.279L776.054 819.533C761.547 810.545 743.518 810.545 729.012 819.533L680.279 855.524Z" fill="#57A863"/>
<path d="M1187.32 855.524C1174.36 864.669 1167.04 859.064 1171.27 843.133L1186.48 784.132C1190.07 766.377 1185 747.911 1172.96 734.865L1132.67 695.924C1121.12 684.714 1124.51 675.864 1140 675.864H1197.74C1214.62 674.775 1229.19 663.123 1234.65 646.363L1254.36 581.756C1259.15 566.12 1267.04 566.12 1272.11 581.756L1292.11 646.658C1298.04 663.049 1312.35 674.487 1329.01 676.159L1388.17 678.519C1403.38 678.519 1406.48 688.254 1394.65 698.579L1348.45 738.7C1336 751.029 1330.47 769.187 1333.8 786.787L1346.76 839.593C1350.7 855.524 1343.1 861.129 1330.14 852.279L1283.1 819.533C1268.59 810.545 1250.56 810.545 1236.05 819.533L1187.32 855.524Z" fill="#57A863"/>
</svg>
