<svg width="2000" height="1417" viewBox="0 0 2000 1417" fill="none" xmlns="http://www.w3.org/2000/svg">
<path d="M1814.36 10.6211H171.546C88.4649 21.3515 22.3082 88.5877 9.57422 175.236V1229.01C23.4865 1324.65 101.986 1395.33 194.363 1395.39H1792.11C1841.72 1395.39 1889.29 1374.75 1924.37 1338.02C1959.45 1301.28 1979.15 1251.46 1979.15 1199.5V206.507C1979.83 106.806 1908.89 22.4808 1814.36 10.6211Z" fill="#4658A9"/>
<path d="M710.423 9.1499H192.113C89.5837 10.282 7.03727 97.6522 7.04297 205.035V716.285H711.268L710.423 9.1499Z" fill="#4658A9"/>
<path d="M303.659 522.762V716.288H413.518V518.337L602.532 716.288H710.138V627.785L512.955 421.279H710.138V303.276H512.955L710.138 96.7701V8.26758H602.251L413.518 205.923V8.26758H303.659V201.793L130.138 20.0679C86.1017 36.7795 49.627 70.1379 27.8846 113.586L208.448 302.686H6.75781V420.689H208.448L6.75781 631.915V715.402H119.434L303.659 522.762Z" fill="white"/>
<path d="M331.828 442.521V717.174H385.349V438.391L651.547 717.174H710.138V678.528L434.645 390.01H710.138V332.483H434.645L710.138 43.9647V7.67871H651.265L385.068 286.462V7.67871H331.547V282.036L96.8987 35.9995C77.9238 48.0554 61.1386 63.5368 47.3212 81.7258L286.476 332.188H6.75781V389.715H286.476L6.75781 682.658V714.814H69.5747L331.828 442.521Z" fill="#EC5463"/>
<path fill-rule="evenodd" clip-rule="evenodd" d="M1600.28 375.841V584.707C1600.28 756.107 1536.06 913.052 1345.35 1008.34C1154.65 913.052 1090.42 756.107 1090.42 584.707V375.841H1600.28Z" stroke="white" stroke-width="2" stroke-linecap="round" stroke-linejoin="round"/>
<path d="M1600.28 375.841V584.707C1600.28 756.107 1536.06 913.052 1345.35 1008.34C1154.65 913.052 1090.42 756.107 1090.42 584.707V375.841H1600.28Z" fill="#F2D660"/>
<path d="M1226.47 467.604C1222.68 464.543 1218.03 462.883 1213.24 462.884C1214.21 452.161 1207.47 442.333 1197.46 439.873C1190.42 437.218 1187.88 434.268 1186.76 428.663C1185.49 422.898 1181.05 418.484 1175.49 417.452C1169.74 415 1164.77 410.913 1161.12 405.652C1158.59 402.407 1157.74 402.997 1155.77 408.602C1153.8 414.207 1146.47 424.533 1153.24 424.828C1148.13 427.919 1146.17 434.607 1148.73 440.168C1145.35 443.118 1142.81 447.248 1148.73 448.723C1154.64 450.198 1154.64 451.673 1154.93 452.853C1150.7 452.853 1149.57 461.409 1159.43 463.474C1157.18 463.474 1156.33 470.849 1159.43 470.849C1153.8 470.849 1149.29 479.404 1142.25 479.404C1135.21 479.404 1131.55 480.879 1131.26 484.124C1130.19 487.549 1128.12 490.538 1125.35 492.68C1129.25 493.569 1133.34 492.713 1136.62 490.319C1139.71 487.91 1143.94 487.91 1147.04 490.319C1150.78 492.899 1155.26 494.045 1159.71 493.565C1153.45 497.307 1148.96 503.615 1147.32 510.97C1146.69 517.253 1143.24 522.844 1138.02 526.015C1132.24 528.544 1127.61 533.294 1125.07 539.291C1128.82 550.171 1137.12 558.651 1147.6 562.301C1158.77 566.668 1169.01 573.283 1177.74 581.772C1183.94 588.852 1186.47 583.837 1195.49 595.932C1204.5 608.028 1213.24 631.333 1223.66 635.169C1234.33 639.868 1246.65 635.094 1251.83 624.253C1258.59 612.158 1262.81 488.254 1228.16 467.604H1226.47Z" fill="#E77329"/>
<path d="M1242.25 415.973C1233.52 425.708 1222.53 435.443 1224.5 452.554C1226.48 469.664 1228.17 498.28 1212.95 508.015C1204.88 512.77 1199.55 521.381 1198.71 531.044C1197.86 540.706 1201.61 550.186 1208.73 556.397C1222.44 568.17 1230.57 585.623 1230.98 604.188C1234.08 620.413 1241.97 633.689 1254.36 622.183C1266.76 624.249 1273.52 618.938 1273.52 608.613C1273.52 598.288 1273.52 592.388 1283.38 589.143C1290.8 587.256 1296.82 581.609 1299.43 574.097C1303.66 565.542 1306.19 561.412 1303.66 556.397C1300.95 548.853 1300.46 540.634 1302.25 532.796C1304.22 525.126 1299.71 520.996 1297.46 515.98C1294.86 511.358 1294.06 505.867 1295.21 500.64C1296.24 495.099 1293.74 489.493 1289.01 486.775C1284.97 484.622 1282.79 479.926 1283.66 475.269C1283.66 470.254 1280.56 467.009 1276.05 463.174C1270.97 459.244 1268.03 452.973 1268.17 446.359C1263.86 433.345 1254.72 422.706 1242.81 416.858L1242.25 415.973Z" fill="white" stroke="white" stroke-width="0.1" stroke-linecap="round" stroke-linejoin="round"/>
<path d="M1245.63 626.3C1266.19 620.694 1264.5 585.293 1261.41 570.543C1255.23 553.73 1253.57 535.466 1256.62 517.736C1265.35 493.841 1246.19 471.42 1250.98 462.275C1254.36 457.434 1255.68 451.353 1254.65 445.459C1254.65 442.509 1249.29 440.444 1249.01 445.459C1249.01 450.185 1246.93 454.647 1243.38 457.555C1239.72 461.39 1240.56 469.65 1243.38 479.09C1249.46 492.432 1249.46 507.935 1243.38 521.277" fill="#E77329"/>
<path d="M1391.55 696.222C1394.93 701.532 1391.55 707.138 1397.47 709.498C1403.38 711.858 1397.47 721.593 1406.48 725.133C1415.49 728.673 1406.48 737.228 1414.37 741.359C1422.25 745.489 1414.37 753.454 1422.54 758.469C1430.7 763.484 1420.85 774.399 1427.89 778.53C1434.93 782.66 1425.63 793.87 1433.8 798C1441.97 802.13 1430.42 810.686 1437.75 816.881C1445.07 823.076 1436.06 832.221 1443.66 837.531C1451.27 842.841 1438.87 850.512 1446.48 858.182C1454.08 865.852 1444.51 870.277 1448.73 879.422C1452.96 888.568 1445.92 908.923 1429.58 908.923C1420.57 920.207 1406.98 926.339 1392.96 925.444C1384.79 931.639 1358.59 940.194 1345.07 925.444C1331.55 939.014 1305.35 930.459 1297.18 925.444C1283.16 926.339 1269.57 920.207 1260.56 908.923C1244.23 911.283 1238.31 886.798 1241.41 879.422C1244.51 872.047 1238.03 864.082 1243.66 858.182C1249.3 852.282 1238.87 842.841 1246.48 837.531C1254.09 832.221 1244.79 822.781 1252.39 816.881C1260 810.981 1248.17 802.13 1256.34 798C1264.51 793.87 1256.34 782.66 1262.25 778.53C1268.17 774.399 1258.31 763.189 1267.61 758.469C1276.9 753.749 1267.61 744.899 1275.78 741.359C1283.94 737.818 1275.78 728.083 1283.66 725.133C1291.55 722.183 1285.92 712.153 1292.68 709.498C1299.44 706.843 1294.93 701.237 1298.59 695.927C1328.99 705.551 1361.43 705.551 1391.83 695.927L1391.55 696.222Z" fill="#51C161"/>
<path d="M1305.35 728.391C1305.6 731.57 1304.69 734.73 1302.82 737.242C1297.46 744.617 1305.07 748.157 1299.44 756.122C1293.8 764.087 1299.44 768.808 1294.08 775.593C1288.73 782.378 1294.08 788.278 1288.73 795.653C1283.38 803.028 1288.73 807.749 1283.38 814.534C1278.03 821.319 1283.38 828.694 1278.03 835.184C1272.68 841.675 1278.03 850.525 1272.11 858.49C1266.2 866.455 1272.11 872.65 1267.32 878.551C1262.54 884.451 1267.32 890.646 1262.54 895.071C1269.58 889.466 1269.58 880.911 1274.65 876.781C1279.72 872.65 1272.96 866.455 1274.65 863.21C1276.34 859.965 1274.65 847.28 1280.56 841.085C1286.48 834.889 1280.56 822.794 1285.92 818.369C1291.27 813.944 1285.92 801.258 1292.96 797.128C1300 792.998 1292.96 782.378 1297.75 777.068C1302.54 771.758 1297.75 762.907 1302.54 756.417C1307.32 749.927 1302.54 743.732 1305.92 738.127C1309.3 732.521 1307.32 718.066 1303.66 728.096L1305.35 728.391Z" fill="#FCC300"/>
<path d="M1322.25 736.059C1318.31 744.024 1325.07 745.794 1320 753.76C1314.93 761.725 1322.82 767.92 1317.18 775.885C1311.55 783.85 1320 787.98 1314.93 795.946C1309.86 803.911 1317.18 808.041 1312.67 814.236C1308.17 820.431 1316.06 826.332 1310.42 833.707C1304.79 841.082 1312.67 846.392 1308.17 853.177C1303.66 859.963 1309.86 867.338 1305.91 872.648C1301.97 877.958 1308.73 886.218 1303.1 893.298C1297.46 900.379 1303.1 905.394 1300.84 910.409C1307.89 908.049 1305.35 898.019 1307.89 895.659C1310.42 893.298 1307.89 879.433 1310.98 875.893C1314.08 872.353 1308.45 860.848 1310.98 856.127C1313.52 851.407 1310.98 842.262 1315.77 836.067C1320.56 829.872 1314.37 821.316 1317.18 817.186C1320 813.056 1314.93 803.321 1318.59 798.011C1322.25 792.701 1318.59 784.145 1321.13 779.13C1323.66 774.115 1321.13 763.79 1322.82 759.955C1324.51 756.12 1329.01 739.009 1322.82 736.059H1322.25Z" fill="#FCC300"/>
<path d="M1344.79 742.541C1340.84 753.161 1347.6 757.586 1344.79 765.847C1341.97 774.107 1347.6 780.892 1344.79 790.037C1341.97 799.183 1349.58 806.263 1344.79 819.538C1340 832.814 1347.89 834.584 1344.79 846.384C1341.69 858.184 1350.7 867.625 1344.79 875.885C1338.87 884.145 1351.55 888.865 1344.79 899.19C1341.97 904.206 1344.79 916.596 1349.86 901.55C1354.93 886.505 1346.48 884.735 1349.86 878.54C1353.24 872.345 1348.45 856.119 1349.86 849.039C1351.27 841.959 1345.91 828.978 1349.86 819.538C1353.8 810.098 1343.94 800.658 1347.89 792.692C1351.83 784.727 1346.2 774.992 1349.58 768.502C1352.96 762.012 1347.04 753.456 1349.58 749.916C1352.11 746.376 1348.17 732.806 1344.79 743.131V742.541Z" fill="#FCC300"/>
<path d="M1388.73 703.589C1388.73 634.557 1379.43 610.661 1345.07 610.661C1310.7 610.661 1301.41 634.557 1301.41 703.589H1389.01H1388.73Z" fill="#EC5565"/>
<path d="M1344.78 713.641C1358.02 713.711 1371.16 711.417 1383.66 706.856C1395.49 702.136 1396.33 697.711 1392.11 692.401C1387.88 687.091 1382.81 690.926 1376.62 692.401C1355.8 698.569 1333.77 698.569 1312.95 692.401C1306.76 689.451 1300.56 687.386 1297.46 692.401C1294.36 697.416 1294.08 702.136 1305.91 706.856C1318.4 711.422 1331.55 713.717 1344.78 713.641Z" fill="#EC5565"/>
<path d="M1478.03 622.174L1493.52 651.675C1500 663.475 1505.35 666.13 1510.14 662.59C1514.93 659.05 1510.14 649.315 1507.04 644.889C1503.94 640.464 1482.25 618.929 1482.25 618.929L1478.03 623.649V622.174Z" fill="#EC5565"/>
<path d="M1475.77 623.35L1481.97 655.506C1484.51 669.076 1488.73 673.501 1494.36 672.026C1500 670.551 1499.15 659.931 1496.9 654.031C1494.65 648.131 1481.41 620.4 1481.41 620.4L1475.77 623.35Z" fill="#EC5565"/>
<path d="M1472.11 623.963C1472.11 623.963 1472.11 642.844 1472.11 657.004C1472.11 671.165 1475.49 676.18 1481.12 675.885C1486.76 675.59 1487.88 664.97 1486.76 659.069C1485.63 653.169 1478.02 622.488 1478.02 622.488L1472.11 623.963Z" fill="#EC5565"/>
<path d="M1464.78 622.174L1449.29 651.675C1442.81 663.475 1437.46 666.13 1432.67 662.59C1427.88 659.05 1432.67 649.315 1435.77 644.889C1438.87 640.464 1460.56 618.929 1460.56 618.929L1464.78 623.649V622.174Z" fill="#EC5565"/>
<path d="M1468.16 623.35L1461.97 655.506C1459.43 669.076 1455.21 673.501 1449.57 672.026C1443.94 670.551 1444.78 659.931 1447.04 654.031C1449.29 648.131 1462.53 620.4 1462.53 620.4L1468.16 623.35Z" fill="#EC5565"/>
<path d="M1472.11 623.963C1472.11 623.963 1472.11 642.844 1472.11 657.004C1472.11 671.165 1468.73 676.18 1463.1 675.885C1457.46 675.59 1456.34 664.97 1457.46 659.069C1458.59 653.169 1466.2 622.488 1466.2 622.488L1472.11 623.963Z" fill="#EC5565"/>
<path d="M1481.97 477.638C1494.08 465.139 1507.61 454.24 1522.25 445.187C1547.88 428.961 1566.48 415.686 1569.86 419.226C1557.75 431.732 1544.22 442.631 1529.57 451.677C1511.26 464.657 1489.29 484.128 1489.29 484.128L1481.97 477.638Z" fill="#EC5565"/>
<path d="M1483.66 490.609C1497.29 482.144 1511.4 474.558 1525.91 467.894C1546.79 458.971 1569.73 456.713 1591.83 461.403C1572.07 464.483 1552.5 468.818 1533.24 474.384C1518.72 481.044 1504.61 488.63 1490.98 497.1L1483.66 490.609Z" fill="#EC5565"/>
<path d="M1483.66 513.035C1497.41 506.711 1511.52 501.292 1525.91 496.81C1548.11 489.534 1571.89 489.534 1594.08 496.81C1590.42 500.055 1558.87 496.81 1537.74 503.3C1521.98 507.169 1506.61 512.603 1491.83 519.526L1484.51 513.035H1483.66Z" fill="#EC5565"/>
<path d="M1485.06 536.029C1498.61 526.221 1514.52 520.599 1530.98 519.803C1551.57 517.37 1572.15 524.482 1587.32 539.274C1583.66 542.519 1554.36 524.818 1532.39 527.473C1517.87 529.228 1503.91 534.369 1491.54 542.519L1484.22 536.029H1485.06Z" fill="#EC5565"/>
<path d="M1478.03 464.361C1478.03 464.361 1501.69 448.135 1501.69 434.86C1499.71 423.122 1495.18 412.018 1488.45 402.409C1494.37 402.409 1507.6 421.88 1507.6 434.86C1507.6 447.84 1485.35 470.556 1485.35 470.556L1478.03 464.066V464.361Z" fill="#EC5565"/>
<path d="M1478.03 464.357C1475.79 454.708 1474.84 444.779 1475.21 434.857C1475.42 418.856 1481.82 403.63 1492.96 392.67C1492.96 397.686 1481.13 415.386 1481.13 434.857C1481.6 446.856 1483.02 458.794 1485.35 470.553L1478.03 464.062V464.357Z" fill="#EC5565"/>
<path d="M1461.97 477.638C1449.86 465.139 1436.33 454.24 1421.69 445.187C1396.06 428.961 1377.47 415.686 1374.09 419.226C1386.19 431.732 1399.72 442.631 1414.37 451.677C1432.68 464.657 1454.65 484.128 1454.65 484.128L1461.97 477.638Z" fill="#EC5565"/>
<path d="M1460.28 490.609C1446.65 482.144 1432.54 474.558 1418.03 467.894C1397.15 458.971 1374.22 456.713 1352.11 461.403C1371.88 464.483 1391.44 468.818 1410.7 474.384C1425.22 481.044 1439.33 488.63 1452.96 497.1L1460.28 490.609Z" fill="#EC5565"/>
<path d="M1460.28 513.035C1446.53 506.711 1432.42 501.292 1418.03 496.81C1395.84 489.534 1372.05 489.534 1349.86 496.81C1353.52 500.055 1385.07 496.81 1406.2 503.3C1421.96 507.169 1437.33 512.603 1452.11 519.526L1459.44 513.035H1460.28Z" fill="#EC5565"/>
<path d="M1458.87 536.029C1445.32 526.221 1429.41 520.599 1412.96 519.803C1392.36 517.37 1371.78 524.482 1356.62 539.274C1360.28 542.519 1389.57 524.818 1411.55 527.473C1426.06 529.228 1440.02 534.369 1452.39 542.519L1459.72 536.029H1458.87Z" fill="#EC5565"/>
<path d="M1464.79 464.361C1464.79 464.361 1441.13 448.135 1441.13 434.86C1443.1 423.122 1447.63 412.018 1454.37 402.409C1448.45 402.409 1435.21 421.88 1435.21 434.86C1435.21 447.84 1457.46 470.556 1457.46 470.556L1464.79 464.066V464.361Z" fill="#EC5565"/>
<path d="M1464.79 464.357C1467.03 454.708 1467.97 444.779 1467.61 434.857C1467.4 418.856 1460.99 403.63 1449.86 392.67C1449.86 397.686 1461.69 415.386 1461.69 434.857C1461.21 446.856 1459.8 458.794 1457.47 470.553L1464.79 464.062V464.357Z" fill="#EC5565"/>
<path d="M1549.29 698.579C1542.14 676.502 1538.15 653.437 1537.46 630.137C1537.46 611.846 1542.81 522.754 1543.37 487.058C1543.94 451.362 1522.81 431.891 1502.25 431.891C1494.26 431.849 1486.63 435.359 1481.26 441.547C1475.89 447.735 1473.28 456.021 1474.08 464.342H1482.81C1482.5 458.429 1484.53 452.643 1488.42 448.345C1492.31 444.048 1497.72 441.617 1503.37 441.626C1521.12 441.626 1534.64 456.967 1535.77 487.058C1535.77 521.869 1532.11 612.436 1532.95 636.627C1534.75 658.24 1540.79 679.23 1550.7 698.284L1549.29 698.579Z" fill="#EC5565"/>
<path d="M1395.49 698.579C1403.87 676.854 1407.89 653.558 1407.32 630.137C1407.32 611.846 1401.97 522.754 1401.41 487.058C1400.84 451.362 1421.97 431.891 1442.53 431.891C1450.52 431.849 1458.15 435.359 1463.52 441.547C1468.89 447.735 1471.5 456.021 1470.7 464.342H1461.97C1462.28 458.429 1460.25 452.643 1456.36 448.345C1452.47 444.048 1447.06 441.617 1441.41 441.626C1423.66 441.626 1410.14 456.967 1409.01 487.058C1409.01 521.869 1412.67 612.436 1411.83 636.627C1411.03 658.427 1404.92 679.65 1394.08 698.284L1395.49 698.579Z" fill="#EC5565"/>
<path d="M1472.11 623.647C1488.45 623.647 1490.42 617.157 1490.42 617.157C1490.42 617.157 1494.08 604.176 1492.11 600.931C1490.14 597.686 1472.11 597.686 1472.11 597.686V623.647Z" fill="#EC5565"/>
<path d="M1472.11 610.671C1489.85 610.671 1492.67 604.181 1492.67 604.181C1492.67 604.181 1498.58 591.201 1495.49 587.956C1492.39 584.71 1471.82 584.71 1471.82 584.71V610.671H1472.11Z" fill="#EC5565"/>
<path d="M1472.11 597.703C1480.43 597.945 1488.64 595.693 1495.77 591.213C1495.77 591.213 1501.69 578.232 1498.59 574.987C1489.98 572.479 1481.04 571.384 1472.11 571.742V597.703Z" fill="#EC5565"/>
<path d="M1472.11 581.463C1498.59 581.463 1498.59 573.203 1498.59 573.203C1498.59 573.203 1504.5 560.223 1501.41 556.978C1492.07 555.549 1482.58 555.549 1473.24 556.978V582.938L1472.11 581.463Z" fill="#EC5565"/>
<path d="M1472.11 568.5C1498.59 568.5 1500.28 562.009 1500.28 562.009C1500.28 562.009 1506.2 549.029 1503.1 545.784C1492.48 543.233 1481.59 542.142 1470.7 542.539V568.5H1472.11Z" fill="#EC5565"/>
<path d="M1472.11 552.259C1498.59 552.259 1504.5 545.769 1504.5 545.769C1504.5 545.769 1510.42 532.788 1507.32 529.543C1495.75 526.991 1483.93 525.902 1472.11 526.298V552.259Z" fill="#EC5565"/>
<path d="M1472.11 536.047C1484.18 537.078 1496.31 534.844 1507.32 529.557C1507.32 529.557 1510.14 516.576 1507.32 513.331C1495.75 510.779 1483.93 509.69 1472.11 510.086V536.047Z" fill="#EC5565"/>
<path d="M1472.11 519.512C1484.18 520.543 1496.31 518.309 1507.32 513.022C1507.32 513.022 1507.32 500.041 1504.5 496.796C1493.89 494.245 1483 493.154 1472.11 493.551V519.512Z" fill="#EC5565"/>
<path d="M1472.11 503.287C1498.59 503.287 1504.5 496.796 1504.5 496.796C1504.5 496.796 1504.5 483.816 1501.69 480.571C1492.48 478.162 1483 477.07 1473.52 477.326V503.287H1472.11Z" fill="#EC5565"/>
<path d="M1472.11 462.578C1483.84 463.324 1494.43 470.197 1500.28 480.869L1494.36 487.064C1491.26 490.309 1470.7 490.309 1470.98 490.309V462.578H1472.11Z" fill="#EC5565"/>
<path d="M1471.83 623.647C1455.49 623.647 1453.52 617.157 1453.52 617.157C1453.52 617.157 1449.86 604.176 1451.83 600.931C1453.8 597.686 1471.83 597.686 1471.83 597.686V623.647Z" fill="#EC5565"/>
<path d="M1471.83 610.671C1454.08 610.671 1451.27 604.181 1451.27 604.181C1451.27 604.181 1445.35 591.201 1448.45 587.956C1451.55 584.71 1472.11 584.71 1472.11 584.71V610.671H1471.83Z" fill="#EC5565"/>
<path d="M1471.83 597.703C1463.51 597.945 1455.3 595.693 1448.17 591.213C1448.17 591.213 1442.25 578.232 1445.35 574.987C1453.96 572.479 1462.9 571.384 1471.83 571.742V597.703Z" fill="#EC5565"/>
<path d="M1471.83 581.463C1445.35 581.463 1445.35 573.203 1445.35 573.203C1445.35 573.203 1439.44 560.223 1442.53 556.978C1451.87 555.549 1461.36 555.549 1470.7 556.978V582.938L1471.83 581.463Z" fill="#EC5565"/>
<path d="M1471.83 568.5C1445.35 568.5 1443.66 562.009 1443.66 562.009C1443.66 562.009 1437.74 549.029 1440.84 545.784C1451.46 543.233 1462.35 542.142 1473.24 542.539V568.5H1471.83Z" fill="#EC5565"/>
<path d="M1471.83 552.259C1445.35 552.259 1439.43 545.769 1439.43 545.769C1439.43 545.769 1433.52 532.788 1436.62 529.543C1448.19 526.991 1460.01 525.902 1471.83 526.298V552.259Z" fill="#EC5565"/>
<path d="M1471.83 536.047C1459.75 537.078 1447.63 534.844 1436.62 529.557C1436.62 529.557 1433.8 516.576 1436.62 513.331C1448.19 510.779 1460.01 509.69 1471.83 510.086V536.047Z" fill="#EC5565"/>
<path d="M1471.83 519.512C1459.76 520.543 1447.63 518.309 1436.62 513.022C1436.62 513.022 1436.62 500.041 1439.44 496.796C1450.06 494.245 1460.95 493.154 1471.83 493.551V519.512Z" fill="#EC5565"/>
<path d="M1471.82 503.287C1445.35 503.287 1439.43 496.796 1439.43 496.796C1439.43 496.796 1439.43 483.816 1442.25 480.571C1451.45 478.162 1460.93 477.07 1470.42 477.326V503.287H1471.82Z" fill="#EC5565"/>
<path d="M1471.83 462.578C1460.1 463.324 1449.51 470.197 1443.66 480.869L1449.57 487.064C1452.67 490.309 1473.23 490.309 1472.95 490.309V462.578H1471.83Z" fill="#EC5565"/>
</svg>
