<svg width="2000" height="1417" viewBox="0 0 2000 1417" fill="none" xmlns="http://www.w3.org/2000/svg">
<path d="M183.381 20.6554C84.437 20.6554 4.22656 104.658 4.22656 208.281V1219.27C4.22656 1322.9 84.437 1406.9 183.381 1406.9H662.255C662.255 944.72 662.255 482.54 662.255 20.3604L183.381 20.6554Z" fill="#4758A9"/>
<path d="M661.689 20.6553C661.689 482.835 661.689 945.015 661.689 1407.19H1319.44C1319.44 945.015 1319.44 482.835 1319.44 20.6553H661.689Z" fill="#FFCE54"/>
<path d="M1796.62 20.6553H1319.15C1319.15 482.835 1319.15 945.015 1319.15 1407.19H1796.62C1895.56 1407.19 1975.77 1323.19 1975.77 1219.57V208.281C1975.77 104.658 1895.56 20.6553 1796.62 20.6553Z" fill="#ED5565"/>
</svg>
