<svg width="2000" height="1417" viewBox="0 0 2000 1417" fill="none" xmlns="http://www.w3.org/2000/svg">
<path d="M24.5083 1200.97C24.5083 1304.6 104.719 1388.6 203.663 1388.6H1816.9C1915.85 1388.6 1996.06 1304.6 1996.06 1200.97V1041.96H24.2266L24.5083 1200.97Z" fill="#FFCE54"/>
<path d="M1996.34 695.339H24.5117V1041.97H1996.34V695.339Z" fill="#57A863"/>
<path d="M1996.34 348.685H24.5117V695.32H1996.34V348.685Z" fill="#FFCE54"/>
<path d="M1817.19 2.06005H203.952C105.007 2.06005 24.7969 86.0628 24.7969 189.685V348.695H1996.63V189.685C1996.63 139.873 1977.71 92.1049 1944.06 56.9098C1910.4 21.7148 1864.76 1.98173 1817.19 2.06005Z" fill="#57A863"/>
<path d="M785.079 2.05981H203.952C105.007 2.05981 24.7969 86.0625 24.7969 189.685V695.329H785.36L785.079 2.05981Z" fill="#ED5565"/>
<path d="M281.689 571.141C260.844 585.597 249.295 576.746 256.056 551.376L280.563 457.563C286.346 429.432 278.189 400.145 258.873 379.681L194.084 317.729C175.492 300.028 180.844 285.868 205.915 285.868H299.154C325.822 284.683 349.227 266.909 358.591 240.732L390.704 138.364C398.591 113.583 411.267 113.583 418.873 138.364L450.985 241.322C460.746 267.585 483.896 285.768 510.704 288.228L605.633 292.063C630.704 292.063 635.211 307.404 615.774 323.924L541.689 387.646C521.665 406.957 512.698 435.802 518.027 463.758L538.873 547.54C545.07 572.911 533.239 581.761 512.394 567.601L436.337 515.68C412.94 501.319 383.96 501.319 360.563 515.68L281.689 571.141Z" fill="white"/>
</svg>
