<svg width="2000" height="1417" viewBox="0 0 2000 1417" fill="none" xmlns="http://www.w3.org/2000/svg">
<path d="M1971.85 191.16C1971.77 178.871 1970.54 166.619 1968.19 154.579C1968.19 148.974 1965.65 143.369 1964.24 138.059C1960.82 126.828 1956.39 115.962 1951 105.608C1949.31 102.658 1947.62 99.7078 1945.93 97.0527L1941.99 90.2675L1937.76 84.0723L1931.85 75.5171L1927.91 71.092L1920.3 62.2417L1913.26 55.7516L1907.62 50.1464H1905.93H1904.24C1896.37 43.62 1887.98 37.7977 1879.17 32.7409L1871.85 28.9058L1868.47 27.1357L1863.68 24.7757L1858.05 22.7106L1849.6 19.4655H1847.34H1841.99C1834.95 17.4567 1827.8 15.8806 1820.58 14.7454H1817.2C1809.55 13.6155 1801.83 13.0242 1794.1 12.9753H179.455C170.013 13.0852 160.594 13.973 151.286 15.6304H147.06C138.256 17.3987 129.593 19.8642 121.145 23.0056L116.356 24.7757C108.107 28.0826 100.103 32.0269 92.4123 36.576L89.032 38.6411C74.4228 47.4609 61.2131 58.6079 49.8771 71.682L45.9334 76.1071C40.8622 82.0825 36.158 88.3887 31.8489 94.9877C11.7928 125.98 1.09527 162.571 1.1447 200.011V1211C1.16918 1229.91 3.92331 1248.71 9.31372 1266.76C11.0039 1272.66 12.9757 1278.36 15.2292 1283.87C19.7711 1295.03 25.3371 1305.7 31.8489 1315.73C35.0414 1320.65 38.5156 1325.47 42.2715 1330.19C48.205 1337.7 54.7048 1344.71 61.7081 1351.13H63.1165C70.2809 1357.63 77.9087 1363.55 85.9334 1368.83C99.6318 1377.75 114.412 1384.69 129.877 1389.48H131.567C138.233 1391.47 145.006 1393.05 151.849 1394.2H157.201C164.856 1395.32 172.572 1395.91 180.3 1395.97H1793.54C1801.27 1395.93 1808.98 1395.34 1816.64 1394.2H1820.02C1827.24 1393.07 1834.38 1391.49 1841.43 1389.48H1846.78H1849.03L1857.48 1386.24L1863.12 1384.17L1867.34 1382.11L1873.26 1379.16L1878.89 1376.5L1886.78 1371.49L1892.41 1367.95L1897.76 1363.82L1902.83 1359.98L1906.22 1357.33L1909.03 1354.67C1916.77 1347.75 1923.93 1340.15 1930.44 1331.96L1936.36 1323.4L1940.58 1317.5L1944.52 1310.72C1946.22 1307.77 1947.91 1305.11 1949.6 1302.16C1954.98 1291.81 1959.41 1280.94 1962.83 1269.71C1962.83 1264.99 1965.37 1260.27 1966.22 1255.55V1252.31C1968.55 1240.36 1969.78 1228.21 1969.88 1216.02C1969.88 1216.02 1969.88 1216.02 1969.88 1214.54V191.16H1971.85Z" fill="white"/>
<path d="M1971.85 191.455C1971.77 179.165 1970.54 166.913 1968.19 154.874C1968.19 149.269 1965.65 143.663 1964.24 138.353C1960.82 127.122 1956.39 116.257 1951 105.902C1949.31 102.952 1947.62 100.002 1945.93 97.3471L1941.99 90.562L1937.76 84.3668L1931.85 75.8115L1927.91 71.3864L1920.3 62.5362L1913.26 56.046L1907.62 50.4408H1905.93H1904.24C1896.37 43.9144 1887.98 38.0921 1879.17 33.0353L1871.85 29.2002L1868.47 27.4302L1863.68 25.0701L1858.05 23.005L1849.6 19.76H1847.34H1841.99C1834.95 17.7511 1827.8 16.1751 1820.58 15.0398H1817.2C1809.55 13.91 1801.83 13.3186 1794.1 13.2698H179.455C170.013 13.3797 160.594 14.2674 151.286 15.9249H147.06C138.256 17.6931 129.593 20.1586 121.145 23.3001L116.356 25.0701C108.107 28.377 100.103 32.3213 92.4123 36.8704L89.032 38.9355C74.4228 47.7553 61.2131 58.9023 49.8771 71.9764L45.9334 76.4016C40.8622 82.3769 36.158 88.6831 31.8489 95.2821C11.7928 126.275 1.09527 162.865 1.1447 200.305L1.14453 410.351H1972.98L1971.85 191.455Z" fill="#ED5565"/>
<path d="M0 1202.46C0.0244829 1221.37 2.77861 1240.16 8.16901 1258.21C9.85915 1264.11 11.831 1269.82 14.0845 1275.32C18.6264 1286.48 24.1924 1297.15 30.7042 1307.18C33.8967 1312.1 37.3709 1316.92 41.1268 1321.64C47.0603 1329.15 53.5601 1336.16 60.5634 1342.58H61.9718C69.1362 1349.08 76.764 1355 84.7887 1360.28C98.4871 1369.2 113.267 1376.14 128.732 1380.94H130.423C137.089 1382.92 143.861 1384.5 150.704 1385.66H156.056C161.972 1385.66 167.887 1385.66 173.803 1385.66H1797.75C1803.66 1385.66 1809.58 1385.66 1815.49 1385.66H1818.87C1826.09 1384.52 1833.24 1382.94 1840.28 1380.94H1845.63H1847.89L1856.34 1377.69L1861.97 1375.63L1866.2 1373.56L1872.11 1370.61L1877.75 1367.96L1885.63 1362.94L1891.27 1359.4L1896.62 1355.27L1901.69 1351.43L1905.07 1348.78L1907.89 1346.12C1915.62 1339.2 1922.78 1331.6 1929.3 1323.41L1935.21 1314.85L1939.44 1308.95L1943.38 1302.17C1945.07 1299.22 1946.76 1296.56 1948.45 1293.61C1953.83 1283.26 1958.27 1272.39 1961.69 1261.16C1961.69 1256.44 1964.23 1251.72 1965.07 1247V1243.76C1967.41 1231.81 1968.63 1219.66 1968.73 1207.47C1968.73 1207.47 1968.73 1207.47 1968.73 1206V995.064H0V1202.46Z" fill="#57A863"/>
<path d="M985.916 903.898C1038.19 903.871 1090.29 910.308 1141.13 923.074C1145.84 924.366 1150.75 921.859 1152.68 917.174L1195.49 819.821C1196.76 816.906 1196.73 813.558 1195.43 810.662C1194.13 807.766 1191.68 805.614 1188.73 804.776C1055.78 767.37 915.766 767.37 782.817 804.776C779.868 805.614 777.418 807.766 776.117 810.662C774.816 813.558 774.794 816.906 776.057 819.821L818.874 917.174C820.803 921.859 825.71 924.366 830.423 923.074C881.351 910.285 933.544 903.848 985.916 903.898Z" fill="#FFCE54"/>
<path d="M1053.81 732.497C1053.81 693.313 1023.47 661.548 986.059 661.548C948.644 661.548 918.312 693.313 918.312 732.497H1053.81Z" fill="#FFCE54" stroke="#FFCE54" stroke-width="0.6" stroke-linecap="round" stroke-linejoin="round"/>
<path d="M861.69 628.954C860.436 628.959 859.266 628.291 858.591 627.184L843.943 600.929L815.774 607.124C814.314 607.444 812.826 606.725 812.112 605.354C811.218 604.027 811.218 602.255 812.112 600.929L831.549 578.213L816.901 551.957C816.007 550.631 816.007 548.858 816.901 547.532C818.103 546.727 819.642 546.727 820.845 547.532L847.324 559.922L866.76 537.207C867.842 536.117 869.449 535.828 870.815 536.478C872.182 537.129 873.031 538.587 872.957 540.157L869.859 569.658L896.338 582.048C897.692 582.773 898.476 584.3 898.309 585.883C898.2 587.517 897.035 588.859 895.493 589.128L867.324 595.323L864.225 624.824C864.116 626.458 862.951 627.8 861.408 628.069L861.69 628.954Z" fill="#FFCE54"/>
<path d="M1110.42 628.956C1108.88 628.687 1107.72 627.345 1107.61 625.711L1104.51 596.21L1076.34 590.015C1074.8 589.746 1073.63 588.404 1073.52 586.77C1073.36 585.187 1074.14 583.661 1075.49 582.935L1101.97 570.545L1098.87 541.044C1098.71 539.461 1099.49 537.934 1100.85 537.209C1102.05 536.404 1103.59 536.404 1104.79 537.209L1124.23 559.924L1150.71 547.534C1151.91 546.729 1153.45 546.729 1154.65 547.534C1155.54 548.86 1155.54 550.633 1154.65 551.959L1140 578.215L1159.44 600.931C1160.49 601.563 1161.15 602.738 1161.15 604.012C1161.16 605.287 1160.52 606.468 1159.46 607.11C1158.41 607.752 1157.11 607.758 1156.06 607.126L1127.89 600.931L1113.24 627.186C1112.62 628.209 1111.58 628.865 1110.42 628.956Z" fill="#FFCE54"/>
<path d="M960.567 560.516H958.595C957.827 559.257 957.827 557.645 958.595 556.386L967.609 526.885L944.229 508.89C943.081 507.905 942.613 506.293 943.046 504.806C943.478 503.319 944.724 502.252 946.201 502.105H974.37L983.384 472.604C983.86 471.059 985.214 469.995 986.764 469.949C988.314 469.995 989.668 471.059 990.145 472.604L999.159 502.105H1027.33C1028.8 502.252 1030.05 503.319 1030.48 504.806C1030.92 506.293 1030.45 507.905 1029.3 508.89L1005.92 526.885L1014.93 556.386C1015.7 557.645 1015.7 559.257 1014.93 560.516C1013.67 561.453 1011.97 561.453 1010.71 560.516L987.328 542.521L963.947 560.516H960.567Z" fill="#FFCE54"/>
<path d="M1172.95 775.573C1171.62 775.583 1170.41 774.775 1169.86 773.508L1155.49 745.777L1127.32 751.972C1125.69 752.95 1123.61 752.355 1122.67 750.645C1121.74 748.934 1122.31 746.755 1123.94 745.777L1143.38 723.061L1128.73 696.806C1127.83 695.479 1127.83 693.707 1128.73 692.38C1129.93 691.576 1131.47 691.576 1132.67 692.38L1159.15 704.771L1178.59 682.055C1179.79 681.251 1181.33 681.251 1182.53 682.055C1183.89 682.781 1184.67 684.307 1184.5 685.89L1181.4 715.391L1207.88 727.781C1209.75 727.781 1211.26 729.366 1211.26 731.322C1211.26 733.277 1209.75 734.862 1207.88 734.862L1179.71 739.582L1176.33 772.918C1176.14 774.51 1175.01 775.806 1173.52 776.163L1172.95 775.573Z" fill="#FFCE54"/>
<path d="M799.15 774.097C797.608 773.828 796.442 772.486 796.333 770.852L793.235 741.351L765.066 735.156C763.523 734.887 762.358 733.545 762.249 731.911C762.082 730.328 762.867 728.801 764.221 728.076L790.7 715.685L787.601 686.184C787.434 684.601 788.219 683.075 789.573 682.349C790.775 681.545 792.314 681.545 793.516 682.349L812.953 705.065L839.432 692.675C840.634 691.87 842.173 691.87 843.376 692.675C844.27 694.001 844.27 695.773 843.376 697.1L828.728 723.356L848.164 746.071C849.059 747.397 849.059 749.17 848.164 750.496C847.45 751.868 845.962 752.587 844.502 752.266L816.333 746.071L801.685 772.327C801.126 773.275 800.201 773.921 799.15 774.097Z" fill="#FFCE54"/>
</svg>
