<svg width="2000" height="1417" viewBox="0 0 2000 1417" fill="none" xmlns="http://www.w3.org/2000/svg">
<g clip-path="url(#clip0)">
<path d="M2000 0H0V1416.04H2000V0Z" fill="#012169"/>
<path d="M365.974 1222.93C346.047 1222.7 553.334 1066.49 726.829 866.405C954.211 604.176 1443.94 184.331 1587.91 116.108C1602.96 108.977 1557.05 152.411 1551.09 166.48C1397.37 424.106 1520.06 910.253 1712.17 1154.64C1769.93 1217.2 1766.97 1220.48 1874.06 1226.61V1240.77L365.974 1222.93V1222.93Z" fill="#FFD100"/>
<path d="M353.474 1251.35C353.474 1251.35 338.848 1266.14 338.891 1277.16C338.938 1289.39 355.297 1305.55 355.297 1305.55L1842.79 1328.79L1870.13 1302.97L1831.85 1269.41L353.474 1251.35V1251.35Z" fill="#FFD100"/>
</g>
<defs>
<clipPath id="clip0">
<rect width="2000" height="1416.04" rx="186" fill="white"/>
</clipPath>
</defs>
</svg>
