<svg width="2000" height="1417" viewBox="0 0 2000 1417" fill="none" xmlns="http://www.w3.org/2000/svg">
<path d="M1817.18 10.3271H203.659C104.714 10.3271 24.5039 94.3299 24.5039 197.952V1209.24C24.5039 1312.86 104.714 1396.87 203.659 1396.87H1817.18C1916.12 1396.87 1996.33 1312.86 1996.33 1209.24V197.952C1996.33 94.3299 1916.12 10.3271 1817.18 10.3271Z" fill="#57A863"/>
<path d="M503.378 10.3271H221.688V1396.87H503.378V10.3271Z" fill="#ED5565"/>
<path d="M1005.63 237.479C1011.55 238.954 1012.11 242.789 1005.63 246.034L984.79 257.835C978.784 261.716 974.99 268.448 974.649 275.83V299.431C974.649 306.216 971.269 307.691 967.043 302.676L950.987 284.385C946.147 279.4 938.898 277.998 932.677 280.845L909.015 292.646C903.381 295.596 901.128 292.646 904.226 287.04L916.902 262.555C919.877 256.108 919.113 248.453 914.931 242.789L899.438 223.614C895.212 218.599 896.902 215.058 903.381 215.943L927.325 219.189C934.301 219.638 941.007 216.294 945.071 210.338L956.339 191.458C959.719 185.853 963.381 186.443 964.508 192.933L968.17 216.828C969.717 223.888 974.777 229.526 981.409 231.579L1005.63 237.479ZM1081.69 275.535C1092.89 279.789 1103.72 285.019 1114.09 291.171C1161.5 319.754 1196.13 366.901 1210.34 422.232C1224.55 477.562 1217.18 536.539 1189.86 586.179L1188.17 589.129C1176.95 608.702 1162.99 626.403 1146.76 641.64C1093.8 695.043 1017.93 715.374 946.985 695.18C876.036 674.987 820.435 617.24 800.564 543.108C798.798 539.425 794.569 537.861 790.987 539.568C788.217 540.951 786.621 544.054 787.043 547.238C788.175 583.646 796.521 619.41 811.55 652.261C848.538 730.527 918.471 786.061 1000.41 802.239C1082.35 818.416 1166.79 793.359 1228.45 734.568C1248.02 716.135 1264.74 694.64 1278.03 670.846C1322.85 591.927 1326.57 494.64 1287.93 412.216C1249.29 329.792 1173.51 273.384 1086.48 262.26C1083.4 261.534 1080.22 262.961 1078.59 265.8C1076.67 269.306 1077.8 273.78 1081.13 275.83L1081.69 275.535ZM892.959 148.977C898.874 150.452 899.438 154.287 892.959 157.532L872.114 169.332C866.108 173.213 862.314 179.945 861.973 187.328V210.928C861.973 217.714 858.592 219.189 854.367 214.173L838.311 195.883C833.471 190.897 826.222 189.496 820.001 192.343L796.339 204.143C790.705 207.093 788.452 204.143 791.55 198.538L804.226 174.052C807.201 167.605 806.437 159.951 802.254 154.287L786.762 135.111C782.536 130.096 784.226 126.556 790.705 127.441L814.649 130.686C821.625 131.136 828.331 127.791 832.395 121.836L843.663 102.955C847.043 97.3501 850.705 97.9401 851.832 104.43L855.494 128.326C857.041 135.385 862.101 141.023 868.733 143.076L892.959 148.977ZM864.79 266.98C870.705 268.455 871.269 272.29 864.79 275.535L843.945 287.335C837.939 291.217 834.145 297.949 833.804 305.331V328.932C833.804 335.717 830.423 337.192 826.198 332.177L810.142 313.886C805.302 308.9 798.053 307.499 791.832 310.346L768.17 322.146C762.536 325.097 760.283 322.146 763.381 316.541L776.057 292.056C779.032 285.609 778.268 277.954 774.085 272.29L758.592 253.115C754.367 248.099 756.057 244.559 762.536 245.444L786.48 248.689C793.456 249.139 800.162 245.795 804.226 239.839L815.494 220.959C818.874 215.353 822.536 215.943 823.663 222.729L827.325 246.624C828.872 253.684 833.932 259.321 840.564 261.375L864.79 266.98ZM723.945 325.982C729.86 327.457 730.423 331.292 723.945 334.537L703.1 346.337C697.094 350.218 693.3 356.95 692.959 364.333V387.933C692.959 394.718 689.578 396.194 685.353 391.178L669.297 372.888C664.457 367.902 657.208 366.501 650.987 369.348L627.325 381.148C621.691 384.098 619.438 381.148 622.536 375.543L635.212 351.057C638.187 344.61 637.423 336.956 633.24 331.292L617.747 312.116C613.522 307.101 615.212 303.561 621.691 304.446L645.635 307.691C652.611 308.141 659.317 304.796 663.381 298.841L674.649 279.96C678.029 274.355 681.691 274.945 682.818 281.435L686.48 305.331C688.027 312.39 693.087 318.028 699.719 320.081L723.945 325.982ZM836.621 414.484C842.536 415.959 843.1 419.794 836.621 423.039L815.776 434.84C809.77 438.721 805.976 445.453 805.635 452.835V476.436C805.635 483.221 802.254 484.696 798.029 479.681L781.973 461.39C777.133 456.405 769.884 455.003 763.663 457.85L740.001 469.651C734.367 472.601 732.114 469.651 735.212 464.045L747.888 439.56C750.863 433.113 750.099 425.458 745.916 419.794L730.423 400.619C726.198 395.604 727.888 392.063 734.367 392.948L758.311 396.194C765.287 396.643 771.993 393.299 776.057 387.343L787.325 368.463C790.705 362.858 794.367 363.448 795.494 369.938L799.156 393.833C800.703 400.893 805.763 406.531 812.395 408.584L836.621 414.484Z" fill="white"/>
</svg>
