<svg width="2000" height="1417" viewBox="0 0 2000 1417" fill="none" xmlns="http://www.w3.org/2000/svg">
<path d="M82.2524 1363.24L117.745 1335.51C379.154 1130.18 640.468 924.858 901.689 719.532C822.534 656.696 742.816 594.744 663.379 532.202L80.5623 74.6443C40.1771 111.963 17.1705 165.745 17.4637 222.148V1216.92C17.9213 1273.19 41.5349 1326.52 82.2524 1363.24ZM178.872 728.678L241.689 694.162C259.075 683.627 268.564 663.051 265.633 642.24L250.703 562.588C247.041 543.413 255.774 538.692 269.858 552.263L328.168 608.609C343.98 622.118 365.531 625.617 384.506 617.755L449.858 585.304C467.041 576.748 475.21 585.304 468.168 602.709L439.999 672.331C433.103 692.624 437.314 715.24 450.985 731.333L494.928 779.124C508.168 793.58 503.379 803.905 484.224 802.135L414.647 795.645C393.739 794.8 374.107 806.159 363.661 825.145L329.858 890.342C320.844 907.453 310.14 905.978 305.633 886.802L288.731 815.41C282.427 794.422 266.601 778.069 246.478 771.749L180.844 754.638C163.943 749.328 162.252 737.528 179.154 728.678H178.872Z" fill="#434A54"/>
<path d="M1343.1 719.226C1291.55 748.726 1238.87 773.802 1186.76 801.533L106.198 1367.36L94.9302 1373.26C126.787 1397.76 165.268 1410.98 204.789 1411.02H1802.82C1852.42 1411.02 1900 1390.38 1935.08 1353.65C1970.15 1316.91 1989.86 1267.09 1989.86 1215.13V220.367C1989.86 112.182 1906.12 24.4811 1802.82 24.4811H204.789C164.145 24.3093 124.567 38.0912 92.1133 63.7172L1270.99 681.17C1295.78 694.15 1320 705.655 1343.1 719.226Z" fill="#EC5565"/>
<path d="M901.408 719.237C640.187 924.76 378.873 1130.09 117.464 1335.21L81.9714 1362.95C85.9151 1366.49 90.1404 1370.03 94.3658 1373.27L105.633 1367.37L1186.2 801.544C1238.31 773.814 1290.7 747.558 1342.53 719.237C1319.44 705.372 1294.93 693.866 1271.27 681.181L92.3939 63.7285C88.2625 67.0719 84.2249 70.5137 80.2812 74.0538L663.661 531.022C742.816 594.449 822.535 656.4 901.408 719.237Z" fill="#F2D660"/>
<path d="M182.534 754.037L248.168 771.148C268.291 777.468 284.117 793.821 290.421 814.809L307.322 886.201C311.829 905.376 322.815 906.852 331.548 889.741L365.351 824.544C375.797 805.558 395.429 794.199 416.337 795.043L485.914 801.534C505.069 803.304 509.858 792.978 496.618 778.523L452.675 730.732C439.003 714.639 434.792 692.023 441.689 671.73L469.858 602.108C476.9 584.112 469.858 576.147 451.548 584.702L386.196 617.153C367.221 625.015 345.67 621.517 329.858 608.008L271.548 551.662C257.463 538.091 249.013 542.811 252.393 561.987L267.322 641.639C270.253 662.449 260.764 683.026 243.379 693.561L180.562 728.076C162.252 737.517 163.942 749.317 182.534 754.037Z" fill="white"/>
</svg>
