<svg width="2000" height="1417" viewBox="0 0 2000 1417" fill="none" xmlns="http://www.w3.org/2000/svg">
<path d="M1982.82 199.428C1982.74 187.138 1981.51 174.886 1979.15 162.847C1979.15 157.242 1976.62 151.636 1975.21 146.326C1971.79 135.095 1967.35 124.23 1961.97 113.875C1960.28 110.925 1958.59 107.975 1956.9 105.32L1952.96 98.5349L1948.73 92.3397L1942.82 83.7844L1938.87 79.3593L1931.27 70.5091L1924.22 64.0189L1918.59 58.4137H1916.9H1915.21C1907.33 51.8873 1898.95 46.065 1890.14 41.0082L1882.82 37.1731L1879.44 35.4031L1874.65 33.043L1869.01 30.9779L1860.56 27.7329H1858.31H1852.96C1845.91 25.724 1838.77 24.148 1831.55 23.0127H1828.17C1820.51 21.8829 1812.8 21.2915 1805.07 21.2427H999.153C999.153 257.249 999.153 493.256 999.153 729.263H10.9844V1209.54C11.0089 1228.45 13.763 1247.24 19.1534 1265.29C20.8435 1271.19 22.8154 1276.9 25.0689 1282.4C29.6107 1293.56 35.1768 1304.23 41.6886 1314.26C44.8811 1319.18 48.3553 1324 52.1111 1328.72C58.0447 1336.23 64.5444 1343.24 71.5478 1349.67H72.9562C80.1205 1356.16 87.7484 1362.08 95.7731 1367.37C109.472 1376.28 124.252 1383.23 139.717 1388.02H140.844C147.51 1390.01 154.282 1391.58 161.125 1392.74H166.477C174.132 1393.85 181.848 1394.44 189.576 1394.51H1802.82C1810.54 1394.46 1818.26 1393.87 1825.91 1392.74H1829.29C1836.51 1391.6 1843.66 1390.02 1850.7 1388.02H1856.05H1858.31L1866.76 1384.77L1872.39 1382.71L1876.62 1380.64L1882.53 1377.69L1888.17 1375.04L1896.05 1370.02L1901.69 1366.48L1907.04 1362.35L1912.11 1358.52L1915.49 1355.86L1918.31 1353.21C1926.04 1346.28 1933.2 1338.68 1939.72 1330.49L1945.63 1321.93L1949.86 1316.03L1953.8 1309.25C1955.49 1306.3 1957.18 1303.64 1958.87 1300.69C1964.25 1290.34 1968.69 1279.47 1972.11 1268.24C1972.11 1263.52 1974.65 1258.8 1975.49 1254.08V1250.84C1977.83 1238.89 1979.06 1226.74 1979.15 1214.55C1979.15 1214.55 1979.15 1214.55 1979.15 1213.08V199.428H1982.82Z" fill="#ED5565"/>
<path d="M999.168 11.7983H190.154C180.712 11.9082 171.293 12.796 161.985 14.4534H157.759C148.955 16.2217 140.292 18.6872 131.844 21.8286L127.055 23.5987C118.806 26.9056 110.803 30.8499 103.112 35.399L99.7313 37.4641C85.122 46.2839 71.9123 57.4309 60.5763 70.505L56.6327 74.9301C51.5615 80.9055 46.8572 87.2117 42.5481 93.8107C22.4921 124.803 11.7945 161.394 11.8439 198.834L11.8438 719.818H1000.01C999.45 483.812 999.168 247.805 999.168 11.7983Z" fill="white"/>
<path d="M631.828 292.066H575.49V233.064C575.49 200.478 550.266 174.062 519.152 174.062H490.983C459.868 174.062 434.645 200.478 434.645 233.064V292.066H378.307C347.192 292.066 321.969 318.482 321.969 351.067V380.568C321.969 413.154 347.192 439.57 378.307 439.57H434.645V498.572C434.645 531.157 459.868 557.573 490.983 557.573H519.152C550.266 557.573 575.49 531.157 575.49 498.572V439.57H631.828C662.943 439.57 688.166 413.154 688.166 380.568V351.067C688.166 318.482 662.943 292.066 631.828 292.066Z" fill="#ED5565"/>
</svg>
