<svg width="2000" height="1417" viewBox="0 0 2000 1417" fill="none" xmlns="http://www.w3.org/2000/svg">
<path d="M1792.96 11.7983H179.44C80.4955 11.7983 0.285156 95.801 0.285156 199.424V1210.71C0.285156 1314.33 80.4955 1398.34 179.44 1398.34H1792.96C1891.91 1398.34 1972.12 1314.33 1972.12 1210.71V199.424C1972.12 95.801 1891.91 11.7983 1792.96 11.7983Z" fill="#ED5565"/>
<path d="M0 199.451C0.146281 100.066 74.2677 18.0412 169.014 12.4158L1971.83 1213.69C1970.29 1316.16 1890.53 1398.38 1792.68 1398.37H1776.62L0 215.382V199.451Z" fill="#434A54"/>
<path d="M3.38028 164.912L1843.94 1390.38C1827.4 1395.59 1810.23 1398.28 1792.96 1398.34H1698.31L0 267.87V199.723C0.092175 188.035 1.22382 176.381 3.38028 164.912Z" fill="white"/>
<path d="M1965.07 1261.45L110.141 26.2543C132.089 16.6509 155.649 11.7362 179.436 11.7989H245.915L1972.11 1162.33V1209.53C1972.1 1227.1 1969.73 1244.58 1965.07 1261.45Z" fill="white"/>
</svg>
