<svg width="2000" height="1417" viewBox="0 0 2000 1417" fill="none" xmlns="http://www.w3.org/2000/svg">
<path d="M1810.42 12.0928H196.901C97.9565 12.0928 17.7461 96.0955 17.7461 199.718V1211.01C17.7461 1314.63 97.9565 1398.63 196.901 1398.63H1810.42C1909.37 1398.63 1989.58 1314.63 1989.58 1211.01V199.718C1989.58 96.0955 1909.37 12.0928 1810.42 12.0928Z" fill="#ED5565"/>
<path d="M1003.66 1093.9C1208.55 1093.9 1374.64 919.952 1374.64 705.375C1374.64 490.798 1208.55 316.849 1003.66 316.849C798.768 316.849 632.672 490.798 632.672 705.375C632.672 919.952 798.768 1093.9 1003.66 1093.9Z" fill="white"/>
<path d="M1154.93 812.161C1144.22 819.537 1138.31 814.816 1141.69 802.131L1154.64 754.34C1157.96 740.018 1153.91 724.919 1143.94 714.514L1110.98 682.653C1101.69 673.507 1104.5 666.427 1117.18 666.427H1165.07C1178.68 665.834 1190.69 656.946 1195.77 643.712L1212.67 591.495C1216.9 578.81 1223.38 578.81 1227.04 591.495L1243.38 644.007C1248.11 657.494 1259.85 666.914 1273.52 668.197L1322.25 670.557C1334.93 670.557 1337.46 678.523 1327.32 686.783L1289.01 718.939C1278.72 728.672 1274.02 743.32 1276.62 757.585L1286.76 800.361C1289.86 813.341 1283.94 817.767 1273.24 810.391L1234.36 783.841C1222.35 776.507 1207.5 776.507 1195.49 783.841L1154.93 812.161ZM1173.52 900.664C1162.98 906.003 1152.06 910.442 1140.84 913.939C1032.98 947.338 919.629 883.105 887.32 770.27C876.224 727.332 877.202 681.952 890.137 639.582C909.465 579.328 953.001 530.949 1009.29 507.177C1065.58 483.404 1128.98 486.618 1182.81 515.973C1184.57 516.617 1186.5 516.476 1188.15 515.583C1189.8 514.69 1191.03 513.124 1191.55 511.253C1192.71 508.219 1191.65 504.747 1189.01 502.993C1163.08 479.59 1132.9 461.928 1100.28 451.071C964.492 405.683 819.016 482.581 773.236 623.946C765.05 649.351 760.586 675.908 759.996 702.713C759.893 806.49 816.546 901.16 905.768 946.309C994.99 991.457 1101.02 979.106 1178.59 914.529C1181.63 912.563 1182.78 908.526 1181.27 905.136C1179.76 901.747 1176.06 900.078 1172.67 901.254L1173.52 900.664Z" fill="#ED5565"/>
</svg>
