<svg width="2000" height="1417" viewBox="0 0 2000 1417" fill="none" xmlns="http://www.w3.org/2000/svg">
<path d="M1799.72 10.3271H186.202C87.2573 10.3271 7.04688 94.3299 7.04688 197.952V1209.24C7.04688 1312.86 87.2573 1396.87 186.202 1396.87H1799.72C1898.67 1396.87 1978.88 1312.86 1978.88 1209.24V197.952C1978.88 94.3299 1898.67 10.3271 1799.72 10.3271Z" fill="#ED5565"/>
<path d="M1154.93 867.044C1138.88 878.254 1129.86 871.174 1135.21 851.704L1154.93 778.246C1159.57 756.311 1153.44 733.4 1138.6 717.18L1089.02 668.503C1074.93 654.638 1078.88 643.428 1098.31 643.428H1170.43C1191.14 642.459 1209.32 628.649 1216.62 608.322L1242.26 528.374C1248.17 508.904 1258.03 508.904 1263.95 528.374L1288.17 609.207C1295.31 629.742 1313.04 644.186 1333.81 646.378L1408.45 649.033C1427.61 649.033 1431.27 661.128 1416.06 674.108L1358.31 723.67C1342.81 738.658 1335.78 760.962 1339.72 782.672L1355.22 848.458C1359.72 868.224 1350.43 875.304 1334.37 864.094L1276.34 826.038C1258.35 814.565 1235.74 814.565 1217.75 826.038L1154.93 867.044ZM1183.1 1002.45H1181.69C1165.82 1010.57 1149.34 1017.28 1132.4 1022.51C969.908 1073.05 799.056 976.12 750.708 805.977L749.018 800.077C715.949 682.675 747.034 555.737 829.973 469.493C912.911 383.249 1034.34 351.598 1146.2 387.065C1162.82 392.789 1178.93 399.993 1194.37 408.601H1195.78C1200.8 410.335 1206.28 407.967 1208.68 403.027C1211.07 398.087 1209.66 392.057 1205.36 388.835C1166.51 352.94 1121.08 325.735 1071.83 308.888C953.155 270.353 824.087 292.38 723.229 368.382C622.372 444.384 561.417 565.55 558.595 695.644C557.797 736.69 562.732 777.637 573.243 817.188C608.42 949.131 704.937 1053.48 829.738 1094.51C954.54 1135.54 1090.69 1107.67 1191.55 1020.45C1195.65 1017.35 1197.11 1011.68 1195.08 1006.84C1193.04 1002 1188.05 999.311 1183.1 1000.39V1002.45Z" fill="white"/>
</svg>
