<svg width="2000" height="1417" viewBox="0 0 2000 1417" fill="none" xmlns="http://www.w3.org/2000/svg">
<path d="M1817.18 20.9487H258.588L12.1094 274.066V1239.04C26.0216 1334.68 104.521 1405.36 196.898 1405.42H1794.36C1897.66 1405.42 1981.41 1317.72 1981.41 1209.54V215.359C1981.4 116.42 1910.95 33.0181 1817.18 20.9487Z" fill="#3BAFDA"/>
<path d="M715.49 20.9487H197.18C94.6501 22.0808 12.1037 109.451 12.1094 216.834V728.084H716.335L715.49 20.9487Z" fill="#4658A9"/>
<path d="M309.87 534.263V727.789H419.729V531.018L608.743 728.969H716.349V640.466L519.166 433.96H716.349V315.957H519.166L716.349 109.451V20.9487H608.462L419.729 218.604V20.9487H309.87V214.474L136.349 32.7491C92.3126 49.4606 55.838 82.8191 34.0955 126.267L214.659 315.367H12.9688V433.37H214.659L12.9688 644.596V728.084H125.645L309.87 534.263Z" fill="white"/>
<path d="M338.043 453.431V728.084H391.564V449.301L657.761 728.084H716.353V691.798L440.86 403.28H716.353V345.753H440.86L716.353 57.2348V20.9487H657.479L391.282 299.732V20.9487H338.043V295.011L103.395 48.9745C84.4199 61.0304 67.6347 76.5118 53.8173 94.7008L292.972 345.163H13.2539V402.69H292.972L13.2539 695.633V727.789H76.0708L338.043 453.431Z" fill="#EC5463"/>
<path d="M1423.94 722.183C1416.61 727.494 1412.39 724.544 1414.64 715.398L1422.25 681.472C1424.18 671.41 1420.98 661.02 1413.8 654.036L1390.42 632.501C1383.66 626.306 1385.35 621.291 1394.36 620.995H1427.32C1436.77 620.212 1444.86 613.594 1447.88 604.18L1458.3 567.304C1460.84 558.454 1465.35 558.159 1468.16 567.304L1480.56 603.59C1484.22 612.909 1492.64 619.214 1502.25 619.815H1535.77C1544.5 619.815 1546.47 625.126 1539.71 631.026L1514.36 654.627C1507.48 661.791 1504.61 672.156 1506.75 682.062L1514.92 711.563C1517.46 720.413 1513.23 723.954 1505.63 718.938L1477.46 701.238C1468.87 695.501 1457.88 695.501 1449.29 701.238L1423.94 722.183Z" fill="#FFCE54"/>
<path d="M1584.51 662.014C1577.18 667.324 1572.96 664.374 1575.21 655.229L1582.82 621.303C1584.75 611.241 1581.55 600.85 1574.37 593.867L1550.99 572.331C1544.23 566.136 1545.92 561.121 1554.93 560.826H1587.89C1597.34 560.042 1605.43 553.424 1608.45 544.011L1618.87 507.135C1621.41 498.284 1625.92 497.989 1628.73 507.135L1641.13 543.421C1644.79 552.74 1653.21 559.044 1662.82 559.646H1696.34C1705.07 559.646 1707.04 564.956 1700.28 570.856L1674.93 594.457C1668.05 601.621 1665.18 611.986 1667.32 621.893L1675.49 651.394C1678.03 660.244 1673.8 663.784 1666.2 658.769L1638.03 641.068C1629.44 635.332 1618.45 635.332 1609.86 641.068L1584.51 662.014Z" fill="#FFCE54"/>
<path d="M1550.98 1013.35C1543.66 1018.66 1539.43 1015.71 1541.68 1006.56L1549.29 973.519C1551.22 963.457 1548.02 953.066 1540.84 946.083L1517.46 924.548C1510.7 918.353 1512.39 913.337 1521.4 913.042H1554.36C1563.81 912.259 1571.91 905.641 1574.92 896.227L1585.35 859.351C1587.88 850.501 1592.39 850.206 1595.21 859.351L1607.6 895.637C1611.26 904.956 1619.69 911.261 1629.29 911.862H1661.97C1670.7 911.862 1672.67 917.173 1665.91 923.073L1640.56 946.673C1633.68 953.837 1630.81 964.202 1632.95 974.109L1641.12 1003.61C1643.66 1012.46 1639.43 1016 1631.83 1010.99L1603.66 993.285C1595.07 987.548 1584.08 987.548 1575.49 993.285L1550.98 1013.35Z" fill="#FFCE54"/>
<path d="M1718.31 524.23C1710.98 529.54 1706.76 526.59 1709.01 517.445L1716.62 483.519C1718.55 473.456 1715.35 463.066 1708.17 456.083L1684.79 434.547C1678.03 428.352 1679.72 423.337 1688.73 423.042H1721.69C1731.14 422.258 1739.23 415.64 1742.25 406.226L1752.68 369.35C1755.21 360.5 1759.72 360.205 1762.53 369.35L1774.93 405.636C1778.59 414.955 1787.01 421.26 1796.62 421.862H1830.14C1838.87 421.862 1840.84 427.172 1834.08 433.072L1808.73 456.673C1801.86 463.837 1798.98 474.202 1801.13 484.109L1809.3 513.609C1811.83 522.46 1807.6 526 1800 520.985L1771.83 503.284C1763.24 497.547 1752.25 497.547 1743.66 503.284L1718.31 524.23Z" fill="#FFCE54"/>
<path d="M1718.31 900.365C1710.98 905.676 1706.76 902.726 1709.01 893.58L1716.62 859.654C1718.55 849.592 1715.35 839.202 1708.17 832.218L1684.79 810.683C1678.03 804.488 1679.72 799.473 1688.73 799.178H1721.69C1731.14 798.394 1739.23 791.776 1742.25 782.362L1752.68 745.486C1755.21 736.636 1759.72 736.341 1762.53 745.486L1774.93 781.772C1778.59 791.091 1787.01 797.396 1796.62 797.998H1830.14C1838.87 797.998 1840.84 803.308 1834.08 809.208L1808.73 832.809C1801.86 839.973 1798.98 850.338 1801.13 860.244L1809.3 889.745C1811.83 898.595 1807.6 902.135 1800 897.12L1771.83 879.42C1763.24 873.683 1752.25 873.683 1743.66 879.42L1718.31 900.365Z" fill="#FFCE54"/>
<path d="M1227.32 1003.02C1220 1008.33 1215.77 1005.38 1218.02 996.235L1225.63 962.309C1227.56 952.247 1224.36 941.856 1217.18 934.873L1193.8 913.338C1187.04 907.143 1188.73 902.127 1197.74 901.832H1230.7C1240.15 901.048 1248.25 894.431 1251.26 885.017L1261.69 848.141C1264.22 839.291 1268.73 838.996 1271.55 848.141L1283.94 884.427C1287.6 893.746 1296.03 900.051 1305.63 900.652H1339.15C1347.88 900.652 1349.86 905.963 1343.1 911.863L1317.74 935.463C1310.87 942.627 1307.99 952.992 1310.14 962.899L1318.31 992.4C1320.84 1001.25 1316.62 1004.79 1309.01 999.775L1280.84 982.075C1272.25 976.338 1261.26 976.338 1252.67 982.075L1227.32 1003.02Z" fill="#FFCE54"/>
<path d="M1423.94 1146.1C1416.61 1151.41 1412.39 1148.46 1414.64 1139.32L1422.25 1105.39C1424.18 1095.33 1420.98 1084.94 1413.8 1077.95L1390.42 1056.42C1383.66 1050.22 1385.35 1045.21 1394.36 1044.91H1427.32C1436.77 1044.13 1444.86 1037.51 1447.88 1028.1L1458.3 991.222C1460.84 982.372 1465.35 982.077 1468.16 991.222L1480.56 1027.51C1484.22 1036.83 1492.64 1043.13 1502.25 1043.73H1535.77C1544.5 1043.73 1546.47 1049.04 1539.71 1054.94L1514.36 1078.54C1507.48 1085.71 1504.61 1096.07 1506.75 1105.98L1514.92 1135.48C1517.46 1144.33 1513.23 1147.87 1505.63 1142.86L1477.46 1125.16C1468.87 1119.42 1457.88 1119.42 1449.29 1125.16L1423.94 1146.1Z" fill="#FFCE54"/>
<path d="M1227.32 1193.03C1220 1198.34 1215.77 1195.39 1218.02 1186.24L1225.63 1152.32C1227.56 1142.26 1224.36 1131.87 1217.18 1124.88L1193.8 1103.35C1187.04 1097.15 1188.73 1092.14 1197.74 1091.84H1230.7C1240.15 1091.06 1248.25 1084.44 1251.26 1075.03L1261.69 1038.15C1264.22 1029.3 1268.73 1029 1271.55 1038.15L1283.94 1074.44C1287.6 1083.75 1296.03 1090.06 1305.63 1090.66H1339.15C1347.88 1090.66 1349.86 1095.97 1343.1 1101.87L1317.74 1125.47C1310.87 1132.64 1307.99 1143 1310.14 1152.91L1318.31 1182.41C1320.84 1191.26 1316.62 1194.8 1309.01 1189.78L1280.84 1172.08C1272.25 1166.35 1261.26 1166.35 1252.67 1172.08L1227.32 1193.03Z" fill="#FFCE54"/>
<path d="M1007.88 1257.91C1000.56 1263.22 996.334 1260.27 998.587 1251.12L1006.19 1217.2C1008.12 1207.13 1004.92 1196.74 997.742 1189.76L974.362 1168.22C967.601 1162.03 969.292 1157.01 978.306 1156.72H1011.26C1020.72 1155.93 1028.81 1149.32 1031.83 1139.9L1042.25 1103.03C1044.78 1094.18 1049.29 1093.88 1052.11 1103.03L1064.5 1139.31C1068.16 1148.63 1076.59 1154.94 1086.19 1155.54H1119.71C1128.45 1155.54 1130.42 1160.85 1123.66 1166.75L1098.31 1190.35C1091.43 1197.51 1088.56 1207.88 1090.7 1217.79L1098.87 1247.29C1101.4 1256.14 1097.18 1259.68 1089.57 1254.66L1061.4 1236.96C1052.81 1231.22 1041.83 1231.22 1033.24 1236.96L1007.88 1257.91Z" fill="#FFCE54"/>
</svg>
