<svg width="2000" height="1417" viewBox="0 0 2000 1417" fill="none" xmlns="http://www.w3.org/2000/svg">
<path d="M1982.82 191.175C1982.74 178.885 1981.51 166.633 1979.15 154.594C1979.15 148.989 1976.62 143.383 1975.21 138.073C1971.79 126.842 1967.35 115.977 1961.97 105.622C1960.28 102.672 1958.59 99.7222 1956.9 97.0671L1952.96 90.2819L1948.73 84.0868L1942.82 75.5315L1938.87 71.1064L1931.27 62.2561L1924.22 55.766L1918.59 50.1608H1916.9H1915.21C1907.33 43.6344 1898.95 37.8121 1890.14 32.7553L1882.82 28.9202L1879.44 27.1501L1874.65 24.7901L1869.01 22.725L1860.56 19.4799H1858.31H1852.96C1845.91 17.4711 1838.77 15.895 1831.55 14.7598H1828.17C1820.51 13.63 1812.8 13.0386 1805.07 12.9897H999.153C999.153 248.996 999.153 485.003 999.153 721.01H10.9844V1211.9C11.0089 1230.81 13.763 1249.61 19.1534 1267.66C20.8435 1273.56 22.8154 1279.26 25.0689 1284.77C29.6107 1295.93 35.1768 1306.6 41.6886 1316.63C44.8811 1321.55 48.3553 1326.37 52.1111 1331.09C58.0447 1338.6 64.5444 1345.61 71.5478 1352.03H72.9562C80.1205 1358.53 87.7484 1364.45 95.7731 1369.73C109.472 1378.65 124.252 1385.59 139.717 1390.38H140.844C147.51 1392.37 154.282 1393.95 161.125 1395.1H166.477C174.132 1396.22 181.848 1396.81 189.576 1396.87H1802.82C1810.54 1396.83 1818.26 1396.24 1825.91 1395.1H1829.29C1836.51 1393.97 1843.66 1392.39 1850.7 1390.38H1856.05H1858.31L1866.76 1387.14L1872.39 1385.07L1876.62 1383.01L1882.53 1380.06L1888.17 1377.4L1896.05 1372.39L1901.69 1368.85L1907.04 1364.72L1912.11 1360.88L1915.49 1358.23L1918.31 1355.57C1926.04 1348.65 1933.2 1341.05 1939.72 1332.86L1945.63 1324.3L1949.86 1318.4L1953.8 1311.62C1955.49 1308.67 1957.18 1306.01 1958.87 1303.06C1964.25 1292.71 1968.69 1281.84 1972.11 1270.61C1972.11 1265.89 1974.65 1261.17 1975.49 1256.45V1253.2C1977.83 1241.26 1979.06 1229.11 1979.15 1216.92C1979.15 1216.92 1979.15 1216.92 1979.15 1215.44V191.175H1982.82Z" fill="#ED5565"/>
<path d="M999.168 3.25098H190.154C180.712 3.36087 171.293 4.24864 161.985 5.90605H157.759C148.955 7.67432 140.292 10.1398 131.844 13.2813L127.055 15.0513C118.806 18.3582 110.803 22.3025 103.112 26.8516L99.7313 28.9167C85.122 37.7365 71.9123 48.8835 60.5763 61.9576L56.6327 66.3828C51.5615 72.3581 46.8572 78.6643 42.5481 85.2633C22.4921 116.256 11.7945 152.847 11.8439 190.286L11.8438 710.681H1000.01C999.45 475.068 999.168 239.258 999.168 3.25098Z" fill="#4758A9"/>
<path d="M667.041 416.559C667.42 407.393 669.728 398.427 673.802 390.304L685.069 369.358C688.735 361.751 688.735 352.774 685.069 345.167L673.238 323.632C669.324 315.549 667.023 306.716 666.478 297.671V272.89C665.933 264.412 661.668 256.677 654.929 251.945L634.929 240.144C627.487 235.328 621.218 228.763 616.619 220.969L605.069 200.023C600.613 192.896 593.191 188.408 585.069 187.928H561.408C552.662 187.484 544.11 185.069 536.337 180.848L516.055 168.457C508.694 164.613 500.036 164.613 492.675 168.457L472.957 180.553C465.211 184.847 456.644 187.266 447.886 187.633H425.069C416.948 188.113 409.526 192.601 405.069 199.728L393.239 221.264C388.577 229.006 382.321 235.558 374.929 240.439L354.647 252.83C347.808 257.463 343.511 265.256 343.098 273.775V297.966C342.775 307.011 340.563 315.873 336.619 323.927L325.069 344.872C321.404 352.479 321.404 361.456 325.069 369.063L336.9 390.599C340.974 398.722 343.283 407.688 343.661 416.854V442.52C344.163 451.012 348.439 458.766 355.21 463.466L375.21 475.266C382.652 480.082 388.921 486.648 393.52 494.442L405.069 515.387C409.526 522.514 416.948 527.002 425.069 527.482H448.731C457.477 527.926 466.029 530.341 473.802 534.563L494.365 546.953C501.628 550.792 510.201 550.792 517.464 546.953L537.182 534.858C544.942 530.6 553.501 528.183 562.253 527.777H585.069C593.191 527.297 600.613 522.809 605.069 515.682L616.9 494.147C621.554 486.398 627.812 479.845 635.21 474.971L655.774 462.581C662.506 457.882 666.692 450.1 667.041 441.635V417.739V416.559Z" fill="white"/>
</svg>
