<svg width="2000" height="1417" viewBox="0 0 2000 1417" fill="none" xmlns="http://www.w3.org/2000/svg">
<path d="M1810.43 3.83936H196.905C97.9604 3.83936 17.75 87.8421 17.75 191.465V1202.75C17.75 1306.38 97.9604 1390.38 196.905 1390.38H1810.43C1909.37 1390.38 1989.58 1306.38 1989.58 1202.75V191.465C1989.58 87.8421 1909.37 3.83936 1810.43 3.83936Z" fill="#4A89DC"/>
<path d="M1830.99 5.03337C1824.42 4.65782 1817.84 4.65782 1811.27 5.03337H197.19C98.2455 5.03337 18.0352 89.0361 18.0352 192.659V1203.65L806.767 860.262L1830.99 5.03337Z" fill="#57A863"/>
<path d="M1989.58 191.478C1989.43 92.0928 1915.31 10.0681 1820.57 4.44263L17.75 1205.72C19.2886 1308.19 99.0501 1390.4 196.905 1390.39H212.961L1989.58 206.523V191.478Z" fill="#434A54"/>
<path d="M1986.48 156.953L145.918 1382.42C162.458 1387.63 179.631 1390.32 196.904 1390.38H291.552L1989.58 259.911V191.764C1989.58 180.085 1988.54 168.431 1986.48 156.953Z" fill="#FFCE54"/>
<path d="M24.5071 1253.5L1879.44 18.2954C1857.49 8.69188 1833.93 3.77724 1810.14 3.83995H1743.66L17.4648 1154.37V1203.64C17.6606 1220.51 20.0294 1237.28 24.5071 1253.5Z" fill="#FFCE54"/>
</svg>
