<svg width="2000" height="1417" viewBox="0 0 2000 1417" fill="none" xmlns="http://www.w3.org/2000/svg">
<path d="M0 1218.97C0 1322.59 80.2104 1406.59 179.155 1406.59H1792.39C1891.34 1406.59 1971.55 1322.59 1971.55 1218.97V1175.6H0V1218.97Z" fill="#ED5565"/>
<path d="M1972.12 944.34H0.285156V1175.33H1972.12V944.34Z" fill="#F6BB42"/>
<path d="M1972.12 713.345H0.285156V944.336H1972.12V713.345Z" fill="#434A54"/>
<path d="M1972.12 482.35H0.285156V713.341H1972.12V482.35Z" fill="#ED5565"/>
<path d="M1972.12 251.061H0.285156V482.052H1972.12V251.061Z" fill="#F6BB42"/>
<path d="M1792.68 20.0657H179.437C80.8206 19.9012 0.620102 103.234 0 206.511V249.877H1971.83V206.511C1971.21 103.349 1891.18 20.0636 1792.68 20.0657Z" fill="#434A54"/>
<path d="M986.196 944.333C1108.01 944.333 1206.76 840.914 1206.76 713.341C1206.76 585.768 1108.01 482.35 986.196 482.35C864.382 482.35 765.633 585.768 765.633 713.341C765.633 840.914 864.382 944.333 986.196 944.333Z" fill="white"/>
</svg>
