<svg width="2000" height="1417" viewBox="0 0 2000 1417" fill="none" xmlns="http://www.w3.org/2000/svg">
<path d="M960.001 944.836C1081.81 944.836 1180.56 839.217 1180.56 708.93C1180.56 578.642 1081.81 473.023 960.001 473.023C838.187 473.023 739.438 578.642 739.438 708.93C739.438 839.217 838.187 944.836 960.001 944.836Z" fill="white"/>
<path d="M1982.83 1216.9V1130.73H11L11 1216.9C10.9389 1312.57 74.2162 1394.89 161.986 1413.34H1831C1919.11 1395.27 1982.81 1312.85 1982.83 1216.9Z" fill="#4758A9"/>
<path d="M1982.83 848.129H11V1130.43H1982.83V848.129Z" fill="white"/>
<path d="M1982.83 565.821H11V848.125H1982.83V565.821Z" fill="#4758A9"/>
<path d="M1982.83 283.22H11V565.524H1982.83V283.22Z" fill="white"/>
<path d="M11 200.965V283.216H1982.83V200.965C1982.83 90.479 1899.09 0.912109 1795.79 0.912109H197.197C94.2268 1.4097 10.9989 90.831 11 200.965Z" fill="#4758A9"/>
<path d="M803.098 0H197.183C93.8823 0 10.1406 89.5669 10.1406 200.053V847.214H802.253L803.098 0Z" fill="white"/>
<path d="M643.663 512.179C644.163 498.631 647.432 485.364 653.241 473.313L670.142 443.184C675.469 431.807 675.469 418.408 670.142 407.03L652.959 375.094C647.021 362.972 643.655 349.599 643.1 335.927V298.869C642.103 286.579 635.868 275.465 626.199 268.74L598.03 250.965C587.201 243.71 578.051 233.924 571.269 222.343L554.649 192.214C548.362 181.872 537.971 175.204 526.48 174.137H491.832C479.058 173.486 466.566 169.888 455.213 163.592L425.354 145.214C414.726 139.468 402.178 139.468 391.551 145.214L363.382 163.291C352.165 169.684 339.744 173.288 327.044 173.836H290.142C278.17 174.537 267.208 181.237 260.565 191.913L243.382 223.849C236.69 235.914 227.543 246.212 216.621 253.977L186.762 272.657C177.2 279.447 171.075 290.55 170.142 302.786V338.639C169.643 352.187 166.374 365.453 160.565 377.504L143.663 407.633C138.336 419.011 138.336 432.409 143.663 443.787L161.128 475.723C167.035 487.75 170.4 501.018 170.987 514.589V551.647C172.09 563.978 178.425 575.084 188.17 581.776L216.339 599.551C227.168 606.806 236.318 616.592 243.1 628.174L259.72 658.302C266.363 668.978 277.325 675.678 289.297 676.379H323.663C336.443 676.992 348.943 680.592 360.283 686.924L390.142 705.303C400.868 711.053 413.501 711.053 424.227 705.303L452.396 687.225C463.726 680.865 476.231 677.264 489.015 676.68H522.537C534.027 675.614 544.418 668.945 550.706 658.603L567.889 626.667C574.58 614.602 583.727 604.305 594.649 596.539L624.508 577.859C634.147 571.102 640.372 560.006 641.41 547.73L643.663 512.179Z" fill="#F6D660"/>
</svg>
