<svg width="2000" height="1417" viewBox="0 0 2000 1417" fill="none" xmlns="http://www.w3.org/2000/svg">
<path d="M197.179 1404.55H1824.5C1889.35 1399.12 1946.85 1358.79 1976.33 1298.06H45.0664C74.5986 1358.88 132.224 1399.22 197.179 1404.55Z" fill="#ED5565"/>
<path d="M25.6328 1191.25V1230.78C28.1017 1254.14 34.5915 1276.82 44.7877 1297.75H1975.77C1985.97 1276.82 1992.46 1254.14 1994.93 1230.78V1191.25H25.6328Z" fill="white"/>
<path d="M1995.21 1084.74H25.6328V1191.24H1995.21V1084.74Z" fill="#ED5565"/>
<path d="M1995.21 978.264H25.6328V1084.76H1995.21V978.264Z" fill="white"/>
<path d="M1995.21 871.756H25.6328V978.254H1995.21V871.756Z" fill="#ED5565"/>
<path d="M1995.21 765.247H25.6328V871.745H1995.21V765.247Z" fill="white"/>
<path d="M1995.21 658.767H25.6328V765.265H1995.21V658.767Z" fill="#ED5565"/>
<path d="M1995.21 552.258H25.6328V658.756H1995.21V552.258Z" fill="white"/>
<path d="M1995.21 445.777H25.6328V552.275H1995.21V445.777Z" fill="#ED5565"/>
<path d="M1995.21 338.975H25.6328V445.473H1995.21V338.975Z" fill="white"/>
<path d="M1995.21 232.467H25.6328V338.965H1995.21V232.467Z" fill="#ED5565"/>
<path d="M1995.21 232.485V192.954C1992.78 169.502 1986.29 146.71 1976.06 125.692H45.0729C34.8442 146.71 28.3534 169.502 25.918 192.954V232.485H1995.21Z" fill="white"/>
<path d="M1824.22 19.4775H197.183C132.331 24.9071 74.8324 65.2382 45.3516 125.976H1976.34C1946.81 65.1533 1889.18 24.808 1824.22 19.4775Z" fill="#ED5565"/>
<path d="M960.288 765.259V19.4775H197.189C107.786 26.9732 36.0476 99.8755 26.2031 193.237V765.259H960.288Z" fill="#4A89DC"/>
<path d="M141.406 109.745L133.8 134.526H109.012L129.012 149.571L121.406 174.352L141.406 159.012L161.406 174.352L153.8 149.571L173.8 134.526H149.012L141.406 109.745Z" fill="white"/>
<path d="M141.406 234.82L133.8 259.601H109.012L129.012 274.941L121.406 299.427L141.406 284.382L161.406 299.427L153.8 274.941L173.8 259.601H149.012L141.406 234.82Z" fill="white"/>
<path d="M141.406 359.924L133.8 384.705H109.012L129.012 400.045L121.406 424.826L141.406 409.485L161.406 424.826L153.8 400.045L173.8 384.705H149.012L141.406 359.924Z" fill="white"/>
<path d="M141.406 485.293L133.8 509.779H109.012L129.012 525.119L121.406 549.9L141.406 534.559L161.406 549.9L153.8 525.119L173.8 509.779H149.012L141.406 485.293Z" fill="white"/>
<path d="M149.012 634.853L141.406 610.367L133.8 634.853H109.012L129.012 650.193L121.406 674.974L141.406 659.634L161.406 674.974L153.8 650.193L173.8 634.853H149.012Z" fill="white"/>
<path d="M211.551 172.297L203.945 197.078H179.156L199.156 212.418L191.551 236.904L211.551 221.563L231.832 236.904L224.227 212.418L244.227 197.078H219.438L211.551 172.297Z" fill="white"/>
<path d="M211.551 297.372L203.945 322.153H179.156L199.156 337.493L191.551 361.979L211.551 346.933L231.832 361.979L224.227 337.493L244.227 322.153H219.438L211.551 297.372Z" fill="white"/>
<path d="M211.551 422.741L203.945 447.227H179.156L199.156 462.567L191.551 487.348L211.551 472.008L231.832 487.348L224.227 462.567L244.227 447.227H219.438L211.551 422.741Z" fill="white"/>
<path d="M219.438 572.33L211.551 547.845L203.945 572.33H179.156L199.156 587.671L191.551 612.452L211.551 597.111L231.832 612.452L224.227 587.671L244.227 572.33H219.438Z" fill="white"/>
<path d="M281.973 109.745L274.367 134.526H249.578L269.578 149.571L261.973 174.352L281.973 159.012L301.973 174.352L294.367 149.571L314.367 134.526H289.578L281.973 109.745Z" fill="white"/>
<path d="M281.973 234.82L274.367 259.601H249.578L269.578 274.941L261.973 299.427L281.973 284.382L301.973 299.427L294.367 274.941L314.367 259.601H289.578L281.973 234.82Z" fill="white"/>
<path d="M281.973 359.924L274.367 384.705H249.578L269.578 400.045L261.973 424.826L281.973 409.485L301.973 424.826L294.367 400.045L314.367 384.705H289.578L281.973 359.924Z" fill="white"/>
<path d="M281.973 485.293L274.367 509.779H249.578L269.578 525.119L261.973 549.9L281.973 534.559L301.973 549.9L294.367 525.119L314.367 509.779H289.578L281.973 485.293Z" fill="white"/>
<path d="M289.578 634.853L281.973 610.367L274.367 634.853H249.578L269.578 650.193L261.973 674.974L281.973 659.634L301.973 674.974L294.367 650.193L314.367 634.853H289.578Z" fill="white"/>
<path d="M352.113 172.297L344.507 197.078H319.719L339.719 212.418L332.113 236.904L352.113 221.563L372.395 236.904L364.789 212.418L384.789 197.078H360L352.113 172.297Z" fill="white"/>
<path d="M352.113 297.372L344.507 322.153H319.719L339.719 337.493L332.113 361.979L352.113 346.933L372.395 361.979L364.789 337.493L384.789 322.153H360L352.113 297.372Z" fill="white"/>
<path d="M352.113 422.741L344.507 447.227H319.719L339.719 462.567L332.113 487.348L352.113 472.008L372.395 487.348L364.789 462.567L384.789 447.227H360L352.113 422.741Z" fill="white"/>
<path d="M360 572.33L352.113 547.845L344.507 572.33H319.719L339.719 587.671L332.113 612.452L352.113 597.111L372.395 612.452L364.789 587.671L384.789 572.33H360Z" fill="white"/>
<path d="M422.535 109.745L414.929 134.526H390.141L410.141 149.571L402.535 174.352L422.535 159.012L442.535 174.352L434.929 149.571L454.929 134.526H430.141L422.535 109.745Z" fill="white"/>
<path d="M422.535 234.82L414.929 259.601H390.141L410.141 274.941L402.535 299.427L422.535 284.382L442.535 299.427L434.929 274.941L454.929 259.601H430.141L422.535 234.82Z" fill="white"/>
<path d="M422.535 359.924L414.929 384.705H390.141L410.141 400.045L402.535 424.826L422.535 409.485L442.535 424.826L434.929 400.045L454.929 384.705H430.141L422.535 359.924Z" fill="white"/>
<path d="M422.535 485.293L414.929 509.779H390.141L410.141 525.119L402.535 549.9L422.535 534.559L442.535 549.9L434.929 525.119L454.929 509.779H430.141L422.535 485.293Z" fill="white"/>
<path d="M430.141 634.853L422.535 610.367L414.929 634.853H390.141L410.141 650.193L402.535 674.974L422.535 659.634L442.535 674.974L434.929 650.193L454.929 634.853H430.141Z" fill="white"/>
<path d="M492.676 172.297L485.07 197.078H460.281L480.281 212.418L472.676 236.904L492.676 221.563L512.957 236.904L505.07 212.418L525.352 197.078H500.563L492.676 172.297Z" fill="white"/>
<path d="M492.676 297.372L485.07 322.153H460.281L480.281 337.493L472.676 361.979L492.676 346.933L512.957 361.979L505.07 337.493L525.352 322.153H500.563L492.676 297.372Z" fill="white"/>
<path d="M492.676 422.741L485.07 447.227H460.281L480.281 462.567L472.676 487.348L492.676 472.008L512.957 487.348L505.07 462.567L525.352 447.227H500.563L492.676 422.741Z" fill="white"/>
<path d="M500.563 572.33L492.676 547.845L485.07 572.33H460.281L480.281 587.671L472.676 612.452L492.676 597.111L512.957 612.452L505.07 587.671L525.352 572.33H500.563Z" fill="white"/>
<path d="M563.097 109.745L555.492 134.526H530.703L550.703 149.571L543.097 174.352L563.097 159.012L583.097 174.352L575.492 149.571L595.492 134.526H570.703L563.097 109.745Z" fill="white"/>
<path d="M563.097 234.82L555.492 259.601H530.703L550.703 274.941L543.097 299.427L563.097 284.382L583.097 299.427L575.492 274.941L595.492 259.601H570.703L563.097 234.82Z" fill="white"/>
<path d="M563.097 359.924L555.492 384.705H530.703L550.703 400.045L543.097 424.826L563.097 409.485L583.097 424.826L575.492 400.045L595.492 384.705H570.703L563.097 359.924Z" fill="white"/>
<path d="M563.097 485.293L555.492 509.779H530.703L550.703 525.119L543.097 549.9L563.097 534.559L583.097 549.9L575.492 525.119L595.492 509.779H570.703L563.097 485.293Z" fill="white"/>
<path d="M570.703 634.853L563.097 610.367L555.492 634.853H530.703L550.703 650.193L543.097 674.974L563.097 659.634L583.097 674.974L575.492 650.193L595.492 634.853H570.703Z" fill="white"/>
<path d="M633.238 172.297L625.632 197.078H600.844L620.844 212.418L613.238 236.904L633.238 221.563L653.52 236.904L645.632 212.418L665.914 197.078H641.125L633.238 172.297Z" fill="white"/>
<path d="M633.238 297.372L625.632 322.153H600.844L620.844 337.493L613.238 361.979L633.238 346.933L653.52 361.979L645.632 337.493L665.914 322.153H641.125L633.238 297.372Z" fill="white"/>
<path d="M633.238 422.741L625.632 447.227H600.844L620.844 462.567L613.238 487.348L633.238 472.008L653.52 487.348L645.632 462.567L665.914 447.227H641.125L633.238 422.741Z" fill="white"/>
<path d="M641.125 572.33L633.238 547.845L625.632 572.33H600.844L620.844 587.671L613.238 612.452L633.238 597.111L653.52 612.452L645.632 587.671L665.914 572.33H641.125Z" fill="white"/>
<path d="M703.66 109.745L696.054 134.526H671.266L691.266 149.571L683.66 174.352L703.66 159.012L723.66 174.352L716.054 149.571L736.054 134.526H711.266L703.66 109.745Z" fill="white"/>
<path d="M703.66 234.82L696.054 259.601H671.266L691.266 274.941L683.66 299.427L703.66 284.382L723.66 299.427L716.054 274.941L736.054 259.601H711.266L703.66 234.82Z" fill="white"/>
<path d="M703.66 359.924L696.054 384.705H671.266L691.266 400.045L683.66 424.826L703.66 409.485L723.66 424.826L716.054 400.045L736.054 384.705H711.266L703.66 359.924Z" fill="white"/>
<path d="M703.66 485.293L696.054 509.779H671.266L691.266 525.119L683.66 549.9L703.66 534.559L723.66 549.9L716.054 525.119L736.054 509.779H711.266L703.66 485.293Z" fill="white"/>
<path d="M711.266 634.853L703.66 610.367L696.054 634.853H671.266L691.266 650.193L683.66 674.974L703.66 659.634L723.66 674.974L716.054 650.193L736.054 634.853H711.266Z" fill="white"/>
<path d="M773.801 172.297L766.195 197.078H741.406L761.406 212.418L753.801 236.904L773.801 221.563L794.082 236.904L786.195 212.418L806.477 197.078H781.688L773.801 172.297Z" fill="white"/>
<path d="M773.801 297.372L766.195 322.153H741.406L761.406 337.493L753.801 361.979L773.801 346.933L794.082 361.979L786.195 337.493L806.477 322.153H781.688L773.801 297.372Z" fill="white"/>
<path d="M773.801 422.741L766.195 447.227H741.406L761.406 462.567L753.801 487.348L773.801 472.008L794.082 487.348L786.195 462.567L806.477 447.227H781.688L773.801 422.741Z" fill="white"/>
<path d="M781.688 572.33L773.801 547.845L766.195 572.33H741.406L761.406 587.671L753.801 612.452L773.801 597.111L794.082 612.452L786.195 587.671L806.477 572.33H781.688Z" fill="white"/>
<path d="M831.828 149.571L824.223 174.352L844.222 159.012L864.223 174.352L856.617 149.571L876.617 134.526H851.828L844.222 109.745L836.617 134.526H811.828L831.828 149.571Z" fill="white"/>
<path d="M844.222 234.82L836.617 259.601H811.828L831.828 274.941L824.223 299.427L844.222 284.382L864.223 299.427L856.617 274.941L876.617 259.601H851.828L844.222 234.82Z" fill="white"/>
<path d="M844.222 359.924L836.617 384.705H811.828L831.828 400.045L824.223 424.826L844.222 409.485L864.223 424.826L856.617 400.045L876.617 384.705H851.828L844.222 359.924Z" fill="white"/>
<path d="M844.222 485.293L836.617 509.779H811.828L831.828 525.119L824.223 549.9L844.222 534.559L864.223 549.9L856.617 525.119L876.617 509.779H851.828L844.222 485.293Z" fill="white"/>
<path d="M851.828 634.853L844.222 610.367L836.617 634.853H811.828L831.828 650.193L824.223 674.974L844.222 659.634L864.223 674.974L856.617 650.193L876.617 634.853H851.828Z" fill="white"/>
</svg>
