<svg width="2000" height="1417" viewBox="0 0 2000 1417" fill="none" xmlns="http://www.w3.org/2000/svg">
<g clip-path="url(#clip0)">
<path d="M1792.96 28.333H179.44C80.4955 28.333 0.285156 112.336 0.285156 215.958V1227.25C0.285156 1330.87 80.4955 1414.87 179.44 1414.87H1792.96C1891.91 1414.87 1972.12 1330.87 1972.12 1227.25V215.958C1972.12 112.336 1891.91 28.333 1792.96 28.333Z" fill="#ED5565"/>
<path d="M1792.68 29.5393H179.44C80.4955 29.5393 0.285156 113.542 0.285156 217.164V501.552H1972.12V217.164C1972.12 167.352 1953.2 119.584 1919.54 84.389C1885.88 49.194 1840.24 29.461 1792.68 29.5393Z" fill="#3BAFDA"/>
<path d="M411.273 392.965C375.796 411.157 334.457 412.002 298.329 395.275C262.201 378.547 234.976 345.956 223.949 306.232C216.54 277.935 217.225 247.982 225.921 220.09C249.275 146.693 324.375 106.319 394.935 129.227C402.128 131.624 409.103 134.684 415.78 138.372C418.265 139.146 420.888 137.708 421.695 135.127C422.141 133.165 421.486 131.107 420.005 129.817C403.116 114.352 383.361 102.702 361.977 95.5961C310.789 77.9043 254.614 86.844 210.755 119.661C166.895 152.479 140.614 205.238 140.005 261.686C139.437 279.324 141.528 296.946 146.202 313.902C158.27 358.602 186.817 396.44 225.55 419.074C264.283 441.708 310.022 447.28 352.681 434.561H354.653C376.326 427.839 396.523 416.712 414.09 401.815C415.632 400.569 416.3 398.47 415.78 396.505C415.098 394.109 412.751 392.687 410.428 393.26L411.273 392.965ZM507.047 383.524C522.605 383.524 535.216 396.732 535.216 413.025C535.216 429.318 522.605 442.526 507.047 442.526C491.49 442.526 478.878 429.318 478.878 413.025C478.878 396.732 491.49 383.524 507.047 383.524ZM619.723 383.524C635.281 383.524 647.892 396.732 647.892 413.025C647.892 429.318 635.281 442.526 619.723 442.526C604.166 442.526 591.554 429.318 591.554 413.025C591.554 396.732 604.166 383.524 619.723 383.524ZM619.723 265.521C635.281 265.521 647.892 278.729 647.892 295.022C647.892 311.315 635.281 324.523 619.723 324.523C604.166 324.523 591.554 311.315 591.554 295.022C591.554 278.729 604.166 265.521 619.723 265.521ZM732.4 147.518C747.957 147.518 760.569 160.726 760.569 177.018C760.569 193.311 747.957 206.519 732.4 206.519C716.842 206.519 704.231 193.311 704.231 177.018C704.231 160.726 716.842 147.518 732.4 147.518ZM732.4 265.521C747.957 265.521 760.569 278.729 760.569 295.022C760.569 311.315 747.957 324.523 732.4 324.523C716.842 324.523 704.231 311.315 704.231 295.022C704.231 278.729 716.842 265.521 732.4 265.521ZM732.4 383.524C747.957 383.524 760.569 396.732 760.569 413.025C760.569 429.318 747.957 442.526 732.4 442.526C716.842 442.526 704.231 429.318 704.231 413.025C704.231 396.732 716.842 383.524 732.4 383.524ZM845.076 147.518C860.633 147.518 873.245 160.726 873.245 177.018C873.245 193.311 860.633 206.519 845.076 206.519C829.518 206.519 816.907 193.311 816.907 177.018C816.907 160.726 829.518 147.518 845.076 147.518ZM845.076 265.521C860.633 265.521 873.245 278.729 873.245 295.022C873.245 311.315 860.633 324.523 845.076 324.523C829.518 324.523 816.907 311.315 816.907 295.022C816.907 278.729 829.518 265.521 845.076 265.521ZM845.076 383.524C860.633 383.524 873.245 396.732 873.245 413.025C873.245 429.318 860.633 442.526 845.076 442.526C829.518 442.526 816.907 429.318 816.907 413.025C816.907 396.732 829.518 383.524 845.076 383.524ZM957.752 147.518C973.309 147.518 985.921 160.726 985.921 177.018C985.921 193.311 973.309 206.519 957.752 206.519C942.194 206.519 929.583 193.311 929.583 177.018C929.583 160.726 942.194 147.518 957.752 147.518ZM957.752 265.521C973.309 265.521 985.921 278.729 985.921 295.022C985.921 311.315 973.309 324.523 957.752 324.523C942.194 324.523 929.583 311.315 929.583 295.022C929.583 278.729 942.194 265.521 957.752 265.521ZM957.752 383.524C973.309 383.524 985.921 396.732 985.921 413.025C985.921 429.318 973.309 442.526 957.752 442.526C942.194 442.526 929.583 429.318 929.583 413.025C929.583 396.732 942.194 383.524 957.752 383.524Z" fill="white"/>
<path d="M1792.68 1416.06H179.44C131.681 1416.14 85.8677 1396.24 52.176 1360.79C18.4843 1325.34 -0.296885 1277.27 0.00354974 1227.25L0 944.045H1971.83V1228.43C1971.83 1332.06 1891.62 1416.06 1792.68 1416.06Z" fill="#52C162"/>
<path d="M1972.12 544.607H0.285156V898.617H1972.12V544.607Z" fill="#F5F7FA"/>
</g>
<defs>
<clipPath id="clip0">
<rect width="2000" height="1416.04" fill="white"/>
</clipPath>
</defs>
</svg>
