<svg width="2000" height="1417" viewBox="0 0 2000 1417" fill="none" xmlns="http://www.w3.org/2000/svg">
<path d="M664.509 26.3047H185.636C86.6915 26.3047 6.48115 108.593 6.48115 210.101V1200.46C6.17295 1206.72 6.17295 1212.99 6.48115 1219.25C7.65641 1231.4 10.0156 1243.41 13.5234 1255.08C15.2135 1260.86 17.1854 1266.45 19.4389 1271.84C23.9792 1282.77 29.5453 1293.23 36.0586 1303.05C39.2511 1307.87 42.7253 1312.59 46.4812 1317.21C58.9726 1332.57 73.8139 1345.75 90.4248 1356.23C118.606 1374.77 151.313 1384.79 184.791 1385.13H993.523C993.523 932.378 993.523 479.63 993.523 26.8827L664.509 26.3047Z" fill="#FFCE54"/>
<path d="M1978.88 210.094C1978.87 197.669 1977.65 185.276 1975.21 173.104C1975.21 167.613 1972.68 162.122 1971.27 156.92C1967.85 145.919 1963.41 135.275 1958.03 125.132C1956.34 122.242 1954.65 119.352 1952.96 116.462L1949.02 109.815L1944.79 104.036L1938.88 95.6549L1934.93 91.3201L1927.33 82.6505L1920.29 76.2927L1914.65 70.802L1910.99 68.2011C1903.11 61.8078 1894.73 56.1044 1885.92 51.1508L1876.62 46.527L1870.14 43.3481L1859.72 39.3023L1853.81 36.9904H1848.45C1832.87 32.4651 1816.76 30.1319 1800.57 30.0547H995.215C995.215 482.802 995.215 935.55 995.215 1388.3H1799.72C1815.92 1388.22 1832.03 1385.88 1847.61 1381.36H1852.96L1858.88 1379.05L1869.3 1375L1875.78 1371.82L1885.07 1367.2H1886.48C1890.99 1364.6 1895.5 1362 1899.72 1358.82L1906.48 1353.62L1913.52 1348.13L1916.34 1345.53C1924.08 1338.74 1931.24 1331.3 1937.75 1323.27L1943.67 1314.89L1947.89 1309.11L1951.83 1302.47C1953.52 1299.58 1955.21 1296.98 1956.91 1293.8C1962.29 1283.65 1966.72 1273.01 1970.14 1262.01C1970.14 1257.39 1972.68 1252.76 1973.52 1248.14V1244.38C1975.96 1232.21 1977.18 1219.82 1977.19 1207.39V210.383L1978.88 210.094Z" fill="white"/>
<path d="M1756.06 558.903L1745.92 568.151V546.188L1717.75 513.243L1729.58 502.84C1731.75 505.091 1735.24 505.252 1737.6 503.21C1739.96 501.169 1740.39 497.61 1738.59 495.037V493.592L1746.2 486.945V488.39C1748.58 490.666 1752.27 490.666 1754.65 488.39C1756.8 486.143 1756.8 482.546 1754.65 480.299L1749.58 474.23L1754.65 469.606H1757.19C1764.22 469.526 1769.97 463.813 1770.27 456.601C1770.56 449.388 1765.31 443.197 1758.31 442.505C1751.3 441.813 1744.99 446.863 1743.95 454.001L1737.19 459.492L1734.09 455.735C1732.22 452.942 1728.5 452.23 1725.78 454.145C1723.05 456.061 1722.36 459.877 1724.23 462.671L1716.62 469.317L1720.85 465.849C1704.98 462.585 1690.96 453.164 1681.69 439.551C1669.31 417.629 1641.96 410.131 1620.57 422.79L1616.9 425.391C1602.7 433.477 1592.48 447.324 1588.74 463.538C1586.7 476.555 1586.7 489.822 1588.74 502.84C1590.71 523.358 1595.78 550.812 1600.28 573.064L1586.48 584.912C1584.29 582.709 1580.78 582.709 1578.59 584.912C1576.41 587.257 1576.41 590.948 1578.59 593.293L1566.76 603.697C1563.38 595.894 1552.68 572.775 1549.02 561.504C1554.58 561.039 1559.44 557.49 1561.69 552.257C1565.35 557.459 1569.02 547.922 1564.79 544.165L1567.04 536.94C1569.86 539.541 1572.12 533.184 1569.86 530.294C1569.86 527.115 1571.83 523.647 1572.68 520.179C1573.59 520.51 1574.58 520.51 1575.5 520.179C1577.88 520.184 1579.85 518.284 1580 515.844C1580.01 513.559 1578.28 511.662 1576.06 511.509L1577.47 501.106C1577.47 501.106 1577.47 499.083 1577.47 497.927C1582.54 497.927 1585.92 492.147 1577.47 490.413L1578.88 481.455C1583.66 481.455 1585.35 475.675 1578.88 473.652V462.382C1582.03 462.227 1584.51 459.555 1584.51 456.313C1584.52 453.174 1582.2 450.543 1579.16 450.244L1580.85 435.795L1576.62 438.107V433.772C1580.28 433.772 1580.85 427.414 1574.65 425.68C1574.65 422.598 1573.71 419.515 1571.83 416.432C1576.62 416.432 1578.03 410.075 1571.83 408.341H1568.74C1567.05 404.341 1565.07 400.476 1562.82 396.781C1565.53 396.164 1567.45 393.701 1567.45 390.857C1567.45 388.013 1565.53 385.55 1562.82 384.933L1564.79 370.483L1549.58 378.575L1554.09 385.511C1540.48 366.704 1521.15 353.079 1499.16 346.786C1500.04 345.305 1500.53 343.61 1500.57 341.874C1500.53 337.228 1497.57 333.14 1493.24 331.759V319.333H1502.54V310.663H1493.24V298.814H1486.2V311.241H1477.47V319.911H1486.2V332.626C1482.3 334.259 1479.75 338.135 1479.72 342.452C1479.76 344.188 1480.24 345.883 1481.13 347.364C1459.36 353.479 1440.21 366.911 1426.76 385.511L1430.71 379.153L1415.78 371.061L1417.47 385.511C1415.1 384.971 1412.65 385.968 1411.29 388.026C1409.93 390.084 1409.93 392.786 1411.29 394.844C1412.65 396.902 1415.1 397.899 1417.47 397.359C1415.21 401.116 1413.24 404.873 1411.27 408.919H1408.45C1401.41 410.653 1402.82 418.455 1408.45 417.01C1408.45 420.189 1406.2 423.079 1405.35 426.258C1399.16 427.992 1400 434.061 1403.38 434.35V438.685L1399.16 436.373L1400.85 450.822C1397.91 451.256 1395.75 453.85 1395.78 456.891C1395.7 458.424 1396.22 459.926 1397.23 461.064C1398.23 462.203 1399.63 462.885 1401.13 462.96C1401.13 466.716 1401.13 470.473 1401.13 474.23C1394.37 476.253 1396.06 483.478 1401.13 482.033L1402.54 490.991C1394.93 492.725 1398.59 499.95 1402.54 498.505C1402.66 499.561 1402.66 500.628 1402.54 501.684V512.087C1400.43 512.379 1398.86 514.237 1398.88 516.422C1398.88 518.816 1400.77 520.757 1403.1 520.757C1404 521.142 1405.02 521.142 1405.92 520.757C1405.92 524.225 1407.89 527.693 1409.02 530.872C1406.76 533.762 1409.02 540.119 1411.55 537.518L1414.09 544.743C1409.86 548.5 1414.09 558.036 1416.9 552.835C1418.55 557.259 1422.46 560.377 1427.04 560.926C1423.66 571.619 1412.4 595.894 1409.02 603.986L1397.19 593.582C1399.29 590.949 1398.91 587.067 1396.34 584.912C1393.77 582.758 1389.99 583.146 1387.89 585.779L1374.09 573.931C1378.59 551.679 1383.66 524.225 1385.64 503.707C1387.67 490.689 1387.67 477.422 1385.64 464.404C1381.97 448.083 1371.73 434.119 1357.47 425.969C1337.45 411.318 1309.66 415.961 1295.21 436.373L1292.68 440.129C1283.42 453.742 1269.39 463.163 1253.52 466.427L1257.75 470.184L1250.14 463.538C1252.01 460.744 1251.32 456.928 1248.59 455.012C1245.87 453.097 1242.15 453.809 1240.28 456.602L1237.19 460.359L1230.43 454.868C1229.38 447.73 1223.07 442.68 1216.06 443.372C1209.06 444.064 1203.81 450.255 1204.11 457.467C1204.4 464.68 1210.15 470.393 1217.19 470.473H1219.72L1224.79 475.097L1219.72 481.166C1217.57 483.413 1217.57 487.01 1219.72 489.257C1222.1 491.533 1225.79 491.533 1228.17 489.257V487.812L1235.78 494.459V495.904C1233.98 498.477 1234.41 502.036 1236.77 504.077C1239.13 506.119 1242.62 505.958 1244.79 503.707L1256.62 514.11L1228.45 547.055V569.018L1218.31 559.77L1190.14 590.114V609.765L1229.3 643.288L1255.78 612.655V606.875L1264.23 601.385L1266.2 599.073L1281.13 589.247L1279.16 591.848V613.522L1268.17 604.564L1241.97 635.485V654.847L1282.26 689.815L1335.5 626.238C1338.03 629.994 1341.13 633.751 1344.51 637.797C1351.95 646.342 1361.79 652.3 1372.68 654.847C1386.64 658.468 1401.26 658.468 1415.21 654.847L1375.21 619.88L1418.03 657.448C1415.82 662.719 1418.06 668.841 1423.1 671.32H1425.35C1432 672.48 1438.28 675.254 1443.66 679.411C1440.05 683.403 1440.05 689.58 1443.66 693.572L1447.33 697.04C1424.26 714.49 1404.01 735.554 1387.33 759.461L1376.06 768.709L1366.2 756.571L1352.96 768.131C1340.84 761.439 1327.29 757.962 1313.52 758.016C1297.55 758.083 1281.92 762.792 1268.45 771.598C1265.09 767.331 1260 764.881 1254.65 764.952C1247.11 764.902 1240.36 769.748 1237.82 777.034C1235.29 784.32 1237.52 792.456 1243.38 797.318C1234.9 810.972 1230.31 826.789 1230.14 842.978C1230.09 859.647 1234.89 875.952 1243.95 889.794C1239.49 893.311 1236.88 898.762 1236.9 904.533C1236.9 914.588 1244.85 922.739 1254.65 922.739C1260.46 922.671 1265.9 919.775 1269.3 914.936C1282.55 923.469 1297.88 927.978 1313.52 927.941C1320.55 927.997 1327.56 927.123 1334.37 925.34C1375.98 946.255 1421.11 958.81 1467.33 962.33V987.472C1463.76 988.187 1461.18 991.397 1461.18 995.131C1461.18 998.864 1463.76 1002.07 1467.33 1002.79V1020.13C1465.1 1020.12 1463.25 1021.89 1463.1 1024.17C1463.19 1025.44 1463.8 1026.6 1464.79 1027.35C1462.48 1030.33 1461.1 1033.96 1460.85 1037.76C1460.85 1044.69 1458.31 1100.47 1458.31 1105.09C1463.66 1105.46 1469.02 1105.46 1474.37 1105.09V1107.4C1487.14 1109.68 1500.19 1109.68 1512.96 1107.4L1510.99 1042.96C1510.59 1039.2 1509.74 1035.52 1508.45 1031.98C1508.72 1031.03 1508.72 1030.03 1508.45 1029.09C1508.45 1026.85 1506.69 1025.04 1504.51 1025.04H1502.26V1009.72C1505.83 1009.01 1508.4 1005.8 1508.4 1002.07C1508.4 998.333 1505.83 995.123 1502.26 994.408V962.041C1546.8 957.718 1590.11 944.67 1629.86 923.606C1638.91 926.872 1648.44 928.533 1658.03 928.519C1673.67 928.556 1689.01 924.047 1702.26 915.514C1705.65 920.353 1711.09 923.249 1716.9 923.317C1726.75 923.318 1734.78 915.212 1734.93 905.111C1734.84 899.3 1732.14 893.858 1727.61 890.372C1736.66 876.53 1741.47 860.225 1741.41 843.556C1741.24 827.367 1736.65 811.55 1728.17 797.896C1734.43 793.217 1736.93 784.872 1734.33 777.393C1731.73 769.913 1724.63 765.085 1716.9 765.53C1711.55 765.459 1706.47 767.909 1703.1 772.176C1689.63 763.37 1674 758.661 1658.03 758.594C1644.27 758.54 1630.71 762.017 1618.59 768.709L1605.35 757.149L1595.5 769.287L1584.23 760.039C1567.61 736.436 1547.56 715.58 1524.79 698.196L1529.02 694.15C1532.63 690.158 1532.63 683.981 1529.02 679.989H1527.33C1532.57 676 1538.64 673.327 1545.07 672.187C1550.53 670.891 1554.01 665.404 1552.96 659.76V657.448L1595.78 619.88L1555.5 654.847C1569.45 658.468 1584.07 658.468 1598.03 654.847C1608.92 652.3 1618.76 646.342 1626.2 637.797C1629.58 633.751 1632.68 629.994 1635.21 626.238L1688.45 689.815L1728.74 654.847V635.774L1702.54 604.853L1691.55 613.811V592.137L1689.58 589.536L1704.51 599.362L1706.48 601.674L1714.93 607.164V613.233L1741.41 643.866L1780.57 610.343V590.692L1756.06 558.903ZM1675.21 509.198L1640.57 538.096C1638.88 531.161 1637.19 523.936 1635.78 517L1632.68 472.207C1633.26 470.217 1634.02 468.283 1634.93 466.427L1644.79 470.184C1654.65 484.056 1671.27 505.73 1675.21 509.487V509.198ZM1709.86 478.854L1675.78 507.753L1709.86 478.854ZM1518.03 638.953C1512.2 648.675 1504.77 657.281 1496.06 664.384C1494.39 661.182 1491.15 659.182 1487.61 659.182C1483.78 659.209 1480.3 661.445 1478.59 664.962C1469.65 657.723 1462.02 648.918 1456.06 638.953C1455.38 635.644 1453.1 632.924 1450.01 631.75C1446.92 630.576 1443.46 631.113 1440.85 633.173L1438.31 630.861C1448.64 611.074 1457.22 590.377 1463.95 569.018C1471.55 569.018 1479.72 569.018 1488.45 569.018H1510.14C1516.96 590.249 1525.54 610.842 1535.78 630.572L1533.24 632.884C1530.67 630.826 1527.25 630.253 1524.17 631.364C1521.1 632.475 1518.78 635.117 1518.03 638.375V638.953ZM1329.3 471.34L1339.16 467.583C1340.07 469.439 1340.83 471.373 1341.41 473.363L1338.31 518.156C1336.9 525.092 1335.21 532.317 1333.52 539.252L1298.88 510.353C1302.82 506.886 1319.44 485.212 1329.3 472.496V471.34ZM1264.23 478.565L1297.19 507.464L1264.23 478.565ZM1410.43 787.204C1429.09 779.096 1446.03 767.314 1460.28 752.525C1447.4 789.842 1425.84 823.371 1397.47 850.203C1397.6 847.99 1397.6 845.77 1397.47 843.556C1397.55 835.219 1396.32 826.922 1393.81 818.992L1408.17 807.144L1399.72 797.318L1410.43 787.204ZM1377.75 921.005C1384.43 919.455 1389.64 914.101 1391.15 907.248C1392.65 900.395 1390.18 893.265 1384.79 888.927C1386.54 886.128 1388.14 883.234 1389.58 880.258C1424.56 855.824 1451.87 821.487 1468.17 781.424V941.523C1437.18 939.49 1406.68 932.569 1377.75 921.005ZM1503.66 782.002C1520.82 823.025 1549.32 857.989 1585.64 882.57L1589.3 888.927C1585.14 892.678 1582.92 898.208 1583.31 903.878C1583.69 909.548 1586.64 914.707 1591.27 917.826C1563.5 930.257 1533.88 937.781 1503.66 940.078V782.002ZM1580 818.703C1577.49 826.633 1576.25 834.93 1576.34 843.267C1576.34 846.157 1576.34 849.047 1576.34 851.937C1545.86 823.961 1522.88 788.443 1509.58 748.768C1524.88 765.002 1543.17 777.967 1563.38 786.915L1573.81 796.74L1565.35 806.566L1580 818.703Z" fill="#ED5565"/>
</svg>
