<svg width="2000" height="1417" viewBox="0 0 2000 1417" fill="none" xmlns="http://www.w3.org/2000/svg">
<path d="M1810.42 20.9492H196.901C97.9565 20.9492 17.7461 104.952 17.7461 208.575V1219.86C17.7461 1323.49 97.9565 1407.49 196.901 1407.49H1810.42C1909.37 1407.49 1989.58 1323.49 1989.58 1219.86V208.575C1989.58 104.952 1909.37 20.9492 1810.42 20.9492Z" fill="#FFCE54"/>
<path d="M197.186 20.9493C98.2416 20.9493 18.0312 104.952 18.0312 208.575V1219.57C18.0312 1323.19 98.2416 1407.19 197.186 1407.19H581.411V20.6543L197.186 20.9493Z" fill="#4758A9"/>
<path d="M1810.42 20.9493C1909.37 20.9493 1989.58 104.952 1989.58 208.575V1219.57C1989.58 1323.19 1909.37 1407.19 1810.42 1407.19H1426.2V20.6543L1810.42 20.9493Z" fill="#57A863"/>
<path d="M685.074 669.968L825.919 523.938L966.764 669.968L825.919 815.997L685.074 669.968Z" fill="#57A863"/>
<path d="M864.223 857.595L1005.07 711.565L1145.91 857.595L1005.07 1003.62L864.223 857.595Z" fill="#57A863"/>
<path d="M1042.25 669.968L1183.1 523.938L1323.94 669.968L1183.1 815.997L1042.25 669.968Z" fill="#57A863"/>
</svg>
