<svg width="2000" height="1417" viewBox="0 0 2000 1417" fill="none" xmlns="http://www.w3.org/2000/svg">
<path d="M24.5039 223.012V488.52H1996.34V223.012C1996.34 114.828 1912.59 27.127 1809.29 27.127H211.546C108.246 27.127 24.5039 114.828 24.5039 223.012Z" fill="#F6D660"/>
<path d="M24.5039 951.688H1996.34V489.41H24.5039V951.688Z" fill="#4758A9"/>
<path d="M24.5039 1217.5C24.5039 1325.68 108.246 1413.38 211.546 1413.38H1809.29C1912.59 1413.38 1996.34 1325.68 1996.34 1217.5V951.99H24.5039V1217.5Z" fill="#ED5565"/>
<path d="M973.516 702.707C967.318 707.132 963.656 704.477 965.347 697.102L972.67 669.076C974.411 660.64 971.727 651.871 965.628 646.066L945.628 628.07C939.713 623.055 941.403 618.63 949.29 618.63H977.459C985.613 618.374 992.827 613.028 995.769 605.06L1005.35 575.559C1007.6 568.184 1011.54 568.184 1014.08 575.559L1024.22 605.06C1027.54 612.839 1034.69 618.061 1042.81 618.63H1070.98C1078.59 618.63 1079.99 623.055 1074.08 628.07L1051.54 647.246C1045.33 652.849 1042.62 661.607 1044.5 669.961L1051.26 694.742C1053.52 702.117 1049.57 704.772 1043.37 700.642L1019.71 685.597C1012.55 681.335 1003.78 681.335 996.614 685.597L973.516 702.707Z" fill="white"/>
<path d="M846.476 756.677C842.533 763.758 838.307 763.168 836.899 756.677L830.702 727.176C828.382 719 822.21 712.648 814.364 710.361L788.448 704.461C781.124 702.691 780.561 698.266 788.448 694.431L813.8 679.975C820.784 675.654 824.74 667.483 823.941 659.03L818.589 627.464C817.181 619.793 820.561 618.023 825.913 623.334L848.73 644.869C855.023 650.169 863.628 651.31 870.984 647.819L897.181 634.249C903.941 630.709 907.322 634.249 904.223 641.034L892.955 669.06C890.263 677.059 891.876 685.957 897.181 692.365L914.082 710.951C919.434 716.556 917.181 720.686 909.575 720.391L881.406 718.621C873.056 718.53 865.263 723.002 860.843 730.422L846.476 756.677Z" fill="white"/>
<path d="M683.655 855.497C676.613 858.447 673.514 855.497 676.895 848.122L689.571 822.456C693.021 814.726 692.381 805.673 687.881 798.56L671.824 776.435C667.317 770.239 669.571 766.109 677.176 767.879L705.345 774.075C713.228 775.409 721.135 771.843 725.627 764.929L741.12 737.494C745.064 730.708 748.726 731.593 749.571 739.264L753.233 771.124C754.874 779.571 760.833 786.379 768.726 788.825L796.895 796.2C804.219 797.97 805.064 802.69 796.895 806.23L770.979 819.801C763.923 823.926 759.516 831.693 759.43 840.156L761.12 865.822C761.12 873.492 757.176 875.262 751.824 869.952L732.106 849.892C725.843 844.193 717.211 842.296 709.289 844.877L683.655 855.497Z" fill="white"/>
<path d="M1160.56 730.136C1156.14 722.716 1148.35 718.245 1140 718.336L1111.83 720.106C1103.94 720.106 1101.97 716.271 1107.32 710.666L1124.22 692.08C1129.53 685.671 1131.14 676.774 1128.45 668.774L1117.18 640.749C1114.08 633.373 1117.18 630.423 1124.22 633.963L1150.42 647.534C1157.78 651.025 1166.38 649.884 1172.67 644.584L1195.49 623.048C1200.84 617.738 1204.51 619.803 1202.82 627.178L1197.46 658.744C1196.66 667.198 1200.62 675.369 1207.6 679.69L1232.96 694.145C1239.72 697.98 1239.15 702.7 1232.96 704.175L1207.04 710.076C1199.19 712.362 1193.02 718.715 1190.7 726.891L1184.51 756.392C1183.1 764.062 1178.59 764.652 1174.93 756.392L1160.56 730.136Z" fill="white"/>
<path d="M1310.13 843.404C1302.21 840.823 1293.58 842.72 1287.32 848.419L1267.6 868.48C1262.25 874.085 1258.02 872.315 1258.3 864.349L1259.99 838.684C1259.91 830.221 1255.5 822.454 1248.44 818.328L1222.53 804.758C1215.77 801.218 1216.33 796.793 1222.53 794.728L1250.7 787.352C1258.59 784.907 1264.55 778.099 1266.19 769.652L1269.85 737.791C1269.85 730.121 1274.64 729.236 1278.3 736.021L1293.8 763.457C1298.29 770.37 1306.2 773.936 1314.08 772.602L1342.25 766.407C1349.85 764.637 1352.39 768.472 1347.6 774.962L1331.54 797.088C1327.04 804.2 1326.4 813.254 1329.85 820.983L1342.53 846.649C1345.91 853.434 1342.53 856.974 1335.77 854.024L1310.13 843.404Z" fill="white"/>
</svg>
