<svg width="2000" height="1417" viewBox="0 0 2000 1417" fill="none" xmlns="http://www.w3.org/2000/svg">
<path d="M1830.99 10.623H189.015C105.934 21.3535 39.777 88.5897 27.043 175.238V1229.01C40.9552 1324.65 119.454 1395.33 211.832 1395.39H1809.58C1859.18 1395.39 1906.76 1374.75 1941.84 1338.02C1976.91 1301.28 1996.62 1251.46 1996.62 1199.51V206.509C1997.25 106.507 1925.85 22.0671 1830.99 10.623Z" fill="#4658A9"/>
<path d="M727.9 9.15039H209.59C107.06 10.2824 24.5138 97.6527 24.5195 205.036V716.285H728.745L727.9 9.15039Z" fill="#4658A9"/>
<path d="M321.407 522.764V716.289H431.266V518.339L620.28 716.289H727.886V627.787L530.702 421.281H727.886V303.278H530.702L727.886 96.772V8.26953H619.716L430.984 205.925V8.26953H321.125V201.795L147.604 20.0699C103.567 36.7814 67.0928 70.1399 45.3503 113.587L225.914 302.688H24.2235V420.691H225.35L23.6602 631.917V715.404H136.336L321.407 522.764Z" fill="white"/>
<path d="M349.59 442.522V717.175H403.111V438.392L669.308 717.175H727.9V678.529L452.407 390.011H727.9V332.484H452.407L727.9 43.9657V7.67969H669.027L402.829 286.463V7.67969H349.308V282.037L114.66 36.0005C95.6855 48.0564 78.9003 63.5378 65.0829 81.7268L304.238 332.189H24.5195V389.716H304.238L24.5195 682.659V714.815H87.3364L349.59 442.522Z" fill="#EC5463"/>
<path d="M1136.9 393.266L1587.6 390.611V815.423C1587.6 870.59 1499.72 926.641 1362.25 998.329C1219.15 921.036 1136.9 874.13 1136.9 814.538V393.266Z" fill="#51C161"/>
<path d="M1361.69 1027.82C1357.18 1027.84 1352.74 1026.73 1348.73 1024.58C1203.94 946.399 1108.17 894.772 1107.04 814.825L1108.73 393.258C1108.73 376.965 1121.34 363.757 1136.9 363.757L1587.6 361.102C1595.09 361.057 1602.29 364.135 1607.6 369.657C1612.88 375.225 1615.81 382.761 1615.77 390.603V815.415C1615.77 885.627 1531.26 943.154 1373.52 1024.87C1369.83 1026.74 1365.79 1027.75 1361.69 1027.82ZM1164.5 422.759L1162.81 814.53C1162.81 856.716 1253.8 907.163 1360 965.279C1428.45 929.583 1558.59 859.666 1557.18 816.005V420.399L1164.5 422.759Z" fill="white"/>
<path d="M1136.9 393.266L1587.6 390.611V815.423C1587.6 870.59 1499.72 926.641 1362.25 998.329C1219.15 921.036 1136.9 874.13 1136.9 814.538V393.266Z" fill="#51C161"/>
<path d="M1191.27 861.127L1218.03 820.121L1246.2 861.127" stroke="#F5BB43" stroke-width="0.08"/>
<path d="M1223.1 846.086C1223.1 849.181 1220.7 851.691 1217.75 851.691C1214.79 851.691 1212.39 849.181 1212.39 846.086C1212.39 842.99 1214.79 840.48 1217.75 840.48C1220.7 840.48 1223.1 842.99 1223.1 846.086Z" fill="#FCEA83" stroke="#51C161" stroke-width="0.05" stroke-linecap="round" stroke-linejoin="round"/>
<path d="M1196.05 891.518H1237.46C1237.74 887.892 1236.12 884.393 1233.24 882.372C1254.93 879.127 1249.29 859.362 1267.32 858.182C1270.7 858.182 1257.74 866.737 1257.74 866.737C1257.74 866.737 1246.76 874.702 1251.83 878.832C1256.9 882.962 1257.46 876.767 1258.03 872.932C1258.59 869.097 1275.49 866.442 1273.24 855.232C1270.98 844.021 1245.07 861.427 1245.07 861.427H1228.17C1228.17 859.362 1222.53 851.396 1217.46 851.396C1212.39 851.396 1207.6 861.427 1207.6 861.427H1169.29C1169.29 861.427 1169.29 871.752 1187.32 873.817C1190.15 878.069 1194.19 881.271 1198.87 882.962C1196.65 885.156 1195.59 888.354 1196.05 891.518Z" fill="#FCEA83" stroke="#51C161" stroke-width="0.05" stroke-linecap="round" stroke-linejoin="round"/>
<path d="M1199.16 882.672H1233.52" stroke="#51C161" stroke-width="0.05" stroke-linecap="round" stroke-linejoin="round"/>
<path d="M1183.1 861.43C1183.1 861.43 1185.91 878.245 1198.59 882.375" stroke="#51C161" stroke-width="0.05" stroke-linecap="round" stroke-linejoin="round"/>
<path d="M1181.42 861.425C1181.42 854.934 1185.09 853.754 1187.62 845.789C1190.16 837.824 1181.42 838.709 1183.4 833.694C1185.37 828.679 1185.09 822.779 1178.61 818.648C1178.61 826.024 1170.44 832.809 1170.44 838.709C1170.44 844.609 1175.23 843.429 1174.66 852.574C1174.1 861.72 1174.66 856.705 1172.97 861.72L1181.42 861.425Z" fill="#EC5565" stroke="#51C161" stroke-width="0.05" stroke-linecap="round" stroke-linejoin="round"/>
<path d="M1222.82 821.31C1222.82 824.08 1220.67 826.325 1218.03 826.325C1215.38 826.325 1213.24 824.08 1213.24 821.31C1213.24 818.54 1215.38 816.295 1218.03 816.295C1220.67 816.295 1222.82 818.54 1222.82 821.31Z" fill="#FCEA83" stroke="#51C161" stroke-width="0.05" stroke-linecap="round" stroke-linejoin="round"/>
<path d="M1189.58 777.067L1216.34 736.061L1244.51 777.067" stroke="#F5BB43" stroke-width="0.08"/>
<path d="M1221.69 761.732C1221.69 764.828 1219.29 767.337 1216.34 767.337C1213.38 767.337 1210.98 764.828 1210.98 761.732C1210.98 758.636 1213.38 756.127 1216.34 756.127C1217.76 756.127 1219.12 756.717 1220.12 757.769C1221.12 758.82 1221.69 760.246 1221.69 761.732Z" fill="#FCEA83" stroke="#51C161" stroke-width="0.05" stroke-linecap="round" stroke-linejoin="round"/>
<path d="M1194.64 807.162H1236.05C1236.33 803.537 1234.71 800.038 1231.83 798.017C1253.52 794.772 1247.88 775.006 1265.91 773.826C1269.29 773.826 1256.33 782.381 1256.33 782.381C1256.33 782.381 1245.35 790.347 1250.42 794.477C1255.49 798.607 1256.05 792.412 1256.62 788.577C1257.18 784.742 1274.08 782.086 1271.83 770.876C1269.57 759.666 1243.66 777.071 1243.66 777.071H1226.76C1226.76 775.006 1221.12 767.041 1216.05 767.041C1210.98 767.041 1206.19 777.071 1206.19 777.071H1167.88C1167.88 777.071 1167.88 787.397 1185.91 789.462C1188.74 793.713 1192.78 796.915 1197.46 798.607C1195.24 800.8 1194.18 803.999 1194.64 807.162Z" fill="#FCEA83" stroke="#51C161" stroke-width="0.05" stroke-linecap="round" stroke-linejoin="round"/>
<path d="M1197.75 798.318H1232.11" stroke="#51C161" stroke-width="0.05" stroke-linecap="round" stroke-linejoin="round"/>
<path d="M1183.1 777.074C1183.1 777.074 1185.91 793.89 1198.59 798.02" stroke="#51C161" stroke-width="0.05" stroke-linecap="round" stroke-linejoin="round"/>
<path d="M1179.73 777.071C1179.73 770.581 1183.39 769.401 1185.93 761.436C1188.46 753.47 1179.73 754.355 1181.7 749.34C1183.67 744.325 1183.39 738.425 1176.91 734.295C1176.91 741.67 1168.74 748.455 1168.74 754.355C1168.74 760.256 1173.53 759.076 1172.97 768.221C1172.4 777.366 1172.97 772.351 1171.28 777.366L1179.73 777.071Z" fill="#EC5565" stroke="#51C161" stroke-width="0.05" stroke-linecap="round" stroke-linejoin="round"/>
<path d="M1221.12 737.544C1221.12 740.314 1218.98 742.56 1216.33 742.56C1213.69 742.56 1211.54 740.314 1211.54 737.544C1211.54 734.775 1213.69 732.529 1216.33 732.529C1218.98 732.529 1221.12 734.775 1221.12 737.544Z" fill="#FCEA83" stroke="#51C161" stroke-width="0.05" stroke-linecap="round" stroke-linejoin="round"/>
<path d="M1472.68 700.364L1499.44 659.357L1527.61 700.364" stroke="#F5BB43" stroke-width="0.08"/>
<path d="M1504.51 685.027C1504.51 688.123 1502.11 690.632 1499.16 690.632C1496.2 690.632 1493.8 688.123 1493.8 685.027C1493.8 681.931 1496.2 679.422 1499.16 679.422C1502.11 679.422 1504.51 681.931 1504.51 685.027Z" fill="#FCEA83" stroke="#51C161" stroke-width="0.05" stroke-linecap="round" stroke-linejoin="round"/>
<path d="M1477.46 730.459H1518.87C1519.15 726.834 1517.53 723.335 1514.65 721.314C1536.34 718.069 1530.7 698.303 1548.73 697.123C1552.11 697.123 1539.15 705.678 1539.15 705.678C1539.15 705.678 1528.17 713.644 1533.24 717.774C1538.31 721.904 1538.87 715.709 1539.44 711.874C1540 708.038 1556.9 705.383 1554.65 694.173C1552.39 682.963 1526.48 700.368 1526.48 700.368H1509.58C1509.58 698.303 1503.94 690.338 1498.87 690.338C1493.8 690.338 1489.01 700.368 1489.01 700.368H1450.7C1450.7 700.368 1450.7 710.694 1468.73 712.759C1471.56 717.01 1475.6 720.212 1480.28 721.904C1478.06 724.097 1477 727.296 1477.46 730.459Z" fill="#FCEA83" stroke="#51C161" stroke-width="0.05" stroke-linecap="round" stroke-linejoin="round"/>
<path d="M1480.57 721.908H1514.93" stroke="#51C161" stroke-width="0.05" stroke-linecap="round" stroke-linejoin="round"/>
<path d="M1464.79 700.666C1464.79 700.666 1467.6 717.481 1480.28 721.612" stroke="#51C161" stroke-width="0.05" stroke-linecap="round" stroke-linejoin="round"/>
<path d="M1462.83 700.368C1462.83 693.878 1466.5 692.698 1469.03 684.733C1471.57 676.767 1462.83 677.652 1464.81 672.637C1466.78 667.622 1466.5 661.722 1460.02 657.592C1460.02 664.967 1451.85 671.752 1451.85 677.652C1451.85 683.553 1456.64 682.372 1456.07 691.518C1455.51 700.663 1456.07 695.648 1454.38 700.663L1462.83 700.368Z" fill="#EC5565" stroke="#51C161" stroke-width="0.05" stroke-linecap="round" stroke-linejoin="round"/>
<path d="M1504.23 660.546C1504.23 663.316 1502.08 665.562 1499.44 665.562C1496.79 665.562 1494.65 663.316 1494.65 660.546C1494.65 657.777 1496.79 655.531 1499.44 655.531C1502.08 655.531 1504.23 657.777 1504.23 660.546Z" fill="#FCEA83" stroke="#51C161" stroke-width="0.05" stroke-linecap="round" stroke-linejoin="round"/>
<path d="M1196.33 619.51L1223.09 578.504L1251.26 619.51" stroke="#F5BB43" stroke-width="0.08"/>
<path d="M1228.17 602.998C1228.17 606.093 1225.77 608.603 1222.81 608.603C1219.86 608.603 1217.46 606.093 1217.46 602.998C1217.46 599.902 1219.86 597.393 1222.81 597.393C1225.77 597.393 1228.17 599.902 1228.17 602.998Z" fill="#FCEA83" stroke="#51C161" stroke-width="0.05" stroke-linecap="round" stroke-linejoin="round"/>
<path d="M1201.12 649.018H1242.53C1242.81 645.392 1241.19 641.893 1238.31 639.872C1260 636.627 1254.36 616.862 1272.39 615.682C1275.77 615.682 1262.81 624.237 1262.81 624.237C1262.81 624.237 1251.83 632.202 1256.9 636.332C1261.97 640.462 1262.53 634.267 1263.1 630.432C1263.66 626.597 1280.56 623.942 1278.31 612.732C1276.05 601.521 1250.14 618.927 1250.14 618.927H1233.24C1233.24 616.862 1227.6 608.896 1222.53 608.896C1217.46 608.896 1212.67 618.927 1212.67 618.927H1174.64C1174.64 618.927 1174.64 629.252 1192.67 631.317C1195.5 635.569 1199.55 638.771 1204.22 640.462C1201.89 642.596 1200.73 645.804 1201.12 649.018Z" fill="#FCEA83" stroke="#51C161" stroke-width="0.05" stroke-linecap="round" stroke-linejoin="round"/>
<path d="M1204.22 639.879H1239.43" stroke="#51C161" stroke-width="0.05" stroke-linecap="round" stroke-linejoin="round"/>
<path d="M1188.45 619.52C1188.45 619.52 1191.27 636.335 1203.94 640.465" stroke="#51C161" stroke-width="0.05" stroke-linecap="round" stroke-linejoin="round"/>
<path d="M1186.49 619.514C1186.49 613.024 1190.15 611.844 1192.69 603.879C1195.22 595.914 1186.49 596.799 1188.46 591.784C1190.43 586.769 1190.15 580.868 1183.67 576.738C1183.67 584.113 1175.5 590.899 1175.5 596.799C1175.5 602.699 1180.29 601.519 1179.73 610.664C1179.17 619.809 1179.73 614.794 1178.04 619.809L1186.49 619.514Z" fill="#EC5565" stroke="#51C161" stroke-width="0.05" stroke-linecap="round" stroke-linejoin="round"/>
<path d="M1227.88 578.517C1227.88 581.287 1225.74 583.532 1223.09 583.532C1220.45 583.532 1218.3 581.287 1218.3 578.517C1218.3 575.747 1220.45 573.502 1223.09 573.502C1225.74 573.502 1227.88 575.747 1227.88 578.517Z" fill="#FCEA83" stroke="#51C161" stroke-width="0.05" stroke-linecap="round" stroke-linejoin="round"/>
<path d="M1196.89 537.805L1223.66 496.799L1251.82 537.805" stroke="#F5BB43" stroke-width="0.08"/>
<path d="M1228.73 522.468C1228.73 525.564 1226.33 528.074 1223.38 528.074C1220.42 528.074 1218.02 525.564 1218.02 522.468C1218.02 519.373 1220.42 516.863 1223.38 516.863C1226.33 516.863 1228.73 519.373 1228.73 522.468Z" fill="#FCEA83" stroke="#51C161" stroke-width="0.05" stroke-linecap="round" stroke-linejoin="round"/>
<path d="M1201.97 568.195H1243.38C1243.65 564.57 1242.04 561.071 1239.15 559.05C1260.84 555.805 1255.21 536.039 1273.24 534.859C1276.62 534.859 1263.66 543.415 1263.66 543.415C1263.66 543.415 1252.67 551.38 1257.74 555.51C1262.81 559.64 1263.38 553.445 1263.94 549.61C1264.5 545.775 1281.4 543.12 1279.15 531.909C1276.9 520.699 1250.98 538.105 1250.98 538.105H1234.08C1234.08 536.039 1228.45 528.074 1223.38 528.074C1218.31 528.074 1213.52 538.105 1213.52 538.105H1175.21C1175.21 538.105 1175.21 548.43 1193.24 550.495C1196.06 554.746 1200.11 557.948 1204.78 559.64C1202.56 561.834 1201.51 565.032 1201.97 568.195Z" fill="#FCEA83" stroke="#51C161" stroke-width="0.05" stroke-linecap="round" stroke-linejoin="round"/>
<path d="M1204.78 560.527H1239.43" stroke="#51C161" stroke-width="0.05" stroke-linecap="round" stroke-linejoin="round"/>
<path d="M1189.01 538.107C1189.01 538.107 1191.83 554.923 1204.5 559.053" stroke="#51C161" stroke-width="0.05" stroke-linecap="round" stroke-linejoin="round"/>
<path d="M1187.05 537.81C1187.05 531.319 1190.71 530.139 1193.25 522.174C1195.78 514.209 1187.05 515.094 1189.02 510.079C1191 505.064 1190.71 499.163 1184.24 495.033C1184.24 502.408 1176.07 509.194 1176.07 515.094C1176.07 520.994 1180.86 519.814 1180.29 528.959C1179.73 538.105 1180.29 533.089 1178.6 538.105L1187.05 537.81Z" fill="#EC5565" stroke="#51C161" stroke-width="0.05" stroke-linecap="round" stroke-linejoin="round"/>
<path d="M1228.44 497.988C1228.44 500.758 1226.3 503.003 1223.66 503.003C1221.01 503.003 1218.87 500.758 1218.87 497.988C1218.87 495.218 1221.01 492.973 1223.66 492.973C1226.3 492.973 1228.44 495.218 1228.44 497.988Z" fill="#FCEA83" stroke="#51C161" stroke-width="0.05" stroke-linecap="round" stroke-linejoin="round"/>
<path d="M1198.3 456.071L1225.07 415.064L1253.23 456.071" stroke="#F5BB43" stroke-width="0.08"/>
<path d="M1230.14 440.734C1230.14 443.83 1227.74 446.339 1224.79 446.339C1221.83 446.339 1219.43 443.83 1219.43 440.734C1219.43 437.638 1221.83 435.129 1224.79 435.129C1227.74 435.129 1230.14 437.638 1230.14 440.734Z" fill="#FCEA83" stroke="#51C161" stroke-width="0.05" stroke-linecap="round" stroke-linejoin="round"/>
<path d="M1203.38 486.461H1244.79C1245.07 482.836 1243.45 479.336 1240.56 477.316C1262.25 474.071 1256.62 454.305 1274.65 453.125C1278.03 453.125 1265.07 461.68 1265.07 461.68C1265.07 461.68 1254.08 469.645 1259.15 473.776C1264.22 477.906 1264.79 471.711 1265.35 467.875C1265.91 464.04 1282.81 461.385 1280.56 450.175C1278.31 438.965 1252.39 456.37 1252.39 456.37H1235.49C1235.49 454.305 1229.86 446.34 1224.79 446.34C1219.72 446.34 1214.93 456.37 1214.93 456.37H1176.62C1176.62 456.37 1176.62 466.695 1194.65 468.76C1197.47 473.012 1201.52 476.214 1206.19 477.906C1203.97 480.099 1202.92 483.298 1203.38 486.461Z" fill="#FCEA83" stroke="#51C161" stroke-width="0.05" stroke-linecap="round" stroke-linejoin="round"/>
<path d="M1206.19 477.615H1239.43" stroke="#51C161" stroke-width="0.05" stroke-linecap="round" stroke-linejoin="round"/>
<path d="M1190.42 456.373C1190.42 456.373 1193.24 473.189 1205.91 477.319" stroke="#51C161" stroke-width="0.05" stroke-linecap="round" stroke-linejoin="round"/>
<path d="M1188.46 456.075C1188.46 449.585 1192.12 448.405 1194.66 440.44C1197.19 432.474 1188.46 433.359 1190.43 428.344C1192.41 423.329 1192.12 417.429 1185.65 413.299C1185.65 420.674 1177.48 427.459 1177.48 433.359C1177.48 439.26 1182.27 438.08 1181.7 447.225C1181.14 456.37 1181.7 451.355 1180.01 456.37L1188.46 456.075Z" fill="#EC5565" stroke="#51C161" stroke-width="0.05" stroke-linecap="round" stroke-linejoin="round"/>
<path d="M1229.85 416.253C1229.85 419.023 1227.71 421.269 1225.07 421.269C1222.42 421.269 1220.28 419.023 1220.28 416.253C1220.28 413.484 1222.42 411.238 1225.07 411.238C1227.71 411.238 1229.85 413.484 1229.85 416.253Z" fill="#FCEA83" stroke="#51C161" stroke-width="0.05" stroke-linecap="round" stroke-linejoin="round"/>
<path d="M1474.64 457.276L1501.41 416.27L1529.57 457.276" stroke="#F5BB43" stroke-width="0.08"/>
<path d="M1506.76 442.529C1506.76 445.625 1504.37 448.134 1501.41 448.134C1498.45 448.134 1496.06 445.625 1496.06 442.529C1496.06 439.433 1498.45 436.924 1501.41 436.924C1502.83 436.924 1504.19 437.514 1505.2 438.566C1506.2 439.617 1506.76 441.042 1506.76 442.529Z" fill="#FCEA83" stroke="#51C161" stroke-width="0.05" stroke-linecap="round" stroke-linejoin="round"/>
<path d="M1479.72 487.666H1521.13C1521.4 484.041 1519.79 480.541 1516.9 478.521C1538.59 475.276 1532.96 455.51 1550.99 454.33C1554.37 454.33 1541.41 462.885 1541.41 462.885C1541.41 462.885 1530.42 470.851 1535.49 474.981C1540.56 479.111 1541.13 472.916 1541.69 469.08C1542.25 465.245 1559.15 462.59 1556.9 451.38C1554.65 440.17 1528.73 457.575 1528.73 457.575H1511.83C1511.83 455.51 1506.2 447.545 1501.13 447.545C1496.06 447.545 1491.27 457.575 1491.27 457.575H1452.96C1452.96 457.575 1452.96 467.9 1470.99 469.965C1473.81 474.217 1477.86 477.419 1482.53 479.111C1480.31 481.304 1479.26 484.503 1479.72 487.666Z" fill="#FCEA83" stroke="#51C161" stroke-width="0.05" stroke-linecap="round" stroke-linejoin="round"/>
<path d="M1482.53 478.82H1516.9" stroke="#51C161" stroke-width="0.05" stroke-linecap="round" stroke-linejoin="round"/>
<path d="M1467.04 457.578C1467.04 457.578 1469.86 474.394 1482.53 478.524" stroke="#51C161" stroke-width="0.05" stroke-linecap="round" stroke-linejoin="round"/>
<path d="M1464.8 457.573C1464.8 451.083 1468.46 449.903 1471 441.938C1473.53 433.972 1464.8 434.857 1466.77 429.842C1468.75 424.827 1468.46 418.927 1461.99 414.797C1461.99 422.172 1453.82 428.957 1453.82 434.857C1453.82 440.758 1458.61 439.578 1458.04 448.723C1457.48 457.868 1458.04 452.853 1456.35 457.868L1464.8 457.573Z" fill="#EC5565" stroke="#51C161" stroke-width="0.05" stroke-linecap="round" stroke-linejoin="round"/>
<path d="M1506.19 417.459C1506.19 420.228 1504.05 422.474 1501.41 422.474C1498.76 422.474 1496.62 420.228 1496.62 417.459C1496.62 414.689 1498.76 412.443 1501.41 412.443C1504.05 412.443 1506.19 414.689 1506.19 417.459Z" fill="#FCEA83" stroke="#51C161" stroke-width="0.05" stroke-linecap="round" stroke-linejoin="round"/>
<path d="M1472.11 537.51L1498.87 496.504L1527.04 537.51" stroke="#F5BB43" stroke-width="0.08"/>
<path d="M1504.22 522.468C1504.22 525.564 1501.83 528.074 1498.87 528.074C1495.92 528.074 1493.52 525.564 1493.52 522.468C1493.52 519.373 1495.92 516.863 1498.87 516.863C1501.83 516.863 1504.22 519.373 1504.22 522.468Z" fill="#FCEA83" stroke="#51C161" stroke-width="0.05" stroke-linecap="round" stroke-linejoin="round"/>
<path d="M1477.18 567.9H1518.59C1518.87 564.275 1517.25 560.776 1514.37 558.755C1536.06 555.51 1530.42 535.745 1548.45 534.564C1551.83 534.564 1538.87 543.12 1538.87 543.12C1538.87 543.12 1527.89 551.085 1532.96 555.215C1538.03 559.345 1538.59 553.15 1539.15 549.315C1539.72 545.48 1556.62 542.825 1554.37 531.614C1552.11 520.404 1526.2 537.81 1526.2 537.81H1509.29C1509.29 535.745 1503.66 527.779 1498.59 527.779C1493.52 527.779 1488.73 537.81 1488.73 537.81H1450.7C1450.7 537.81 1450.7 548.135 1468.73 550.2C1471.56 554.451 1475.6 557.653 1480.28 559.345C1477.95 561.479 1476.79 564.686 1477.18 567.9Z" fill="#FCEA83" stroke="#51C161" stroke-width="0.05" stroke-linecap="round" stroke-linejoin="round"/>
<path d="M1480 560.525H1514.37" stroke="#51C161" stroke-width="0.05" stroke-linecap="round" stroke-linejoin="round"/>
<path d="M1464.79 537.812C1464.79 537.812 1467.6 554.628 1480.28 558.758" stroke="#51C161" stroke-width="0.05" stroke-linecap="round" stroke-linejoin="round"/>
<path d="M1462.26 537.808C1462.26 531.317 1465.92 530.137 1468.46 522.172C1470.99 514.207 1462.26 515.092 1464.23 510.077C1466.2 505.062 1465.92 499.161 1459.44 495.031C1459.44 502.406 1451.27 509.192 1451.27 515.092C1451.27 520.992 1456.06 519.812 1455.5 528.957C1454.94 538.103 1455.5 533.087 1453.81 538.103L1462.26 537.808Z" fill="#EC5565" stroke="#51C161" stroke-width="0.05" stroke-linecap="round" stroke-linejoin="round"/>
<path d="M1503.66 497.693C1503.66 500.463 1501.52 502.708 1498.87 502.708C1496.23 502.708 1494.08 500.463 1494.08 497.693C1494.08 494.923 1496.23 492.678 1498.87 492.678C1501.52 492.678 1503.66 494.923 1503.66 497.693Z" fill="#FCEA83" stroke="#51C161" stroke-width="0.05" stroke-linecap="round" stroke-linejoin="round"/>
<path d="M1468.73 619.51L1495.49 578.504L1523.66 619.51" stroke="#F5BB43" stroke-width="0.08"/>
<path d="M1500.85 604.174C1500.85 607.269 1498.45 609.779 1495.5 609.779C1492.54 609.779 1490.14 607.269 1490.14 604.174C1490.14 601.078 1492.54 598.568 1495.5 598.568C1498.45 598.568 1500.85 601.078 1500.85 604.174Z" fill="#FCEA83" stroke="#51C161" stroke-width="0.05" stroke-linecap="round" stroke-linejoin="round"/>
<path d="M1473.8 649.018H1515.21C1515.49 645.392 1513.87 641.893 1510.99 639.872C1532.68 636.627 1527.04 616.862 1545.07 615.682C1548.45 615.682 1535.49 624.237 1535.49 624.237C1535.49 624.237 1524.51 632.202 1529.58 636.332C1534.65 640.462 1535.21 634.267 1535.78 630.432C1536.34 626.597 1553.24 623.942 1550.99 612.732C1548.73 601.521 1522.82 618.927 1522.82 618.927H1505.92C1505.92 616.862 1500.28 608.896 1495.21 608.896C1490.14 608.896 1485.35 618.927 1485.35 618.927H1447.04C1447.04 618.927 1447.04 629.252 1465.07 631.317C1467.9 635.569 1471.94 638.771 1476.62 640.462C1474.4 642.656 1473.34 645.854 1473.8 649.018Z" fill="#FCEA83" stroke="#51C161" stroke-width="0.05" stroke-linecap="round" stroke-linejoin="round"/>
<path d="M1476.62 641.055H1510.98" stroke="#51C161" stroke-width="0.05" stroke-linecap="round" stroke-linejoin="round"/>
<path d="M1460.85 619.518C1460.85 619.518 1463.66 636.333 1476.34 640.463" stroke="#51C161" stroke-width="0.05" stroke-linecap="round" stroke-linejoin="round"/>
<path d="M1458.89 619.514C1458.89 613.024 1462.55 611.844 1465.09 603.879C1467.62 595.914 1458.89 596.799 1460.86 591.784C1462.83 586.769 1462.55 580.868 1456.07 576.738C1456.07 584.113 1447.9 590.899 1447.9 596.799C1447.9 602.699 1452.69 601.519 1452.13 610.664C1451.56 619.809 1452.13 614.794 1450.44 619.809L1458.89 619.514Z" fill="#EC5565" stroke="#51C161" stroke-width="0.05" stroke-linecap="round" stroke-linejoin="round"/>
<path d="M1500.28 579.693C1500.28 582.463 1498.14 584.708 1495.49 584.708C1492.85 584.708 1490.7 582.463 1490.7 579.693C1490.7 576.923 1492.85 574.678 1495.49 574.678C1498.14 574.678 1500.28 576.923 1500.28 579.693Z" fill="#FCEA83" stroke="#51C161" stroke-width="0.05" stroke-linecap="round" stroke-linejoin="round"/>
<path d="M1472.11 862.037L1498.87 821.031L1527.04 862.037" stroke="#F5BB43" stroke-width="0.1"/>
<path d="M1504.22 846.674C1504.22 849.769 1501.83 852.279 1498.87 852.279C1495.92 852.279 1493.52 849.769 1493.52 846.674C1493.52 843.578 1495.92 841.068 1498.87 841.068C1500.29 841.068 1501.65 841.659 1502.66 842.71C1503.66 843.761 1504.22 845.187 1504.22 846.674Z" fill="#FCEA83" stroke="#51C161" stroke-width="0.06" stroke-linecap="round" stroke-linejoin="round"/>
<path d="M1477.18 892.4H1518.59C1518.87 888.775 1517.25 885.276 1514.37 883.255C1536.06 880.01 1530.42 860.245 1548.45 859.065C1551.83 859.065 1538.87 867.62 1538.87 867.62C1538.87 867.62 1527.89 875.585 1532.96 879.715C1538.03 883.845 1538.59 877.65 1539.15 873.815C1539.72 869.98 1556.62 867.325 1554.37 856.114C1552.11 844.904 1526.2 862.31 1526.2 862.31H1509.29C1509.29 860.245 1503.66 852.279 1498.59 852.279C1493.52 852.279 1488.73 862.31 1488.73 862.31H1450.7C1450.7 862.31 1450.7 872.635 1468.73 874.7C1471.56 878.951 1475.6 882.153 1480.28 883.845C1477.95 885.979 1476.79 889.186 1477.18 892.4Z" fill="#FCEA83" stroke="#51C161" stroke-width="0.06" stroke-linecap="round" stroke-linejoin="round"/>
<path d="M1480 885.025H1514.37" stroke="#51C161" stroke-width="0.06" stroke-linecap="round" stroke-linejoin="round"/>
<path d="M1464.79 862.312C1464.79 862.312 1467.61 879.128 1480.28 883.258" stroke="#51C161" stroke-width="0.06" stroke-linecap="round" stroke-linejoin="round"/>
<path d="M1462.26 862.014C1462.26 855.524 1465.92 854.344 1468.45 846.379C1470.99 838.414 1462.26 839.299 1464.23 834.284C1466.2 829.269 1465.92 823.368 1459.44 819.238C1459.44 826.613 1451.27 833.399 1451.27 839.299C1451.27 845.199 1456.06 844.019 1455.49 853.164C1454.93 862.309 1455.49 857.294 1453.8 862.309L1462.26 862.014Z" fill="#EC5565" stroke="#51C161" stroke-width="0.06" stroke-linecap="round" stroke-linejoin="round"/>
<path d="M1503.66 822.193C1503.66 824.963 1501.52 827.208 1498.87 827.208C1496.23 827.208 1494.09 824.963 1494.09 822.193C1494.09 819.423 1496.23 817.178 1498.87 817.178C1500.14 817.178 1501.36 817.706 1502.26 818.647C1503.16 819.587 1503.66 820.863 1503.66 822.193Z" fill="#FCEA83" stroke="#51C161" stroke-width="0.06" stroke-linecap="round" stroke-linejoin="round"/>
<path d="M1471.83 780.893L1498.59 739.887L1526.76 780.893" stroke="#F5BB43" stroke-width="0.08"/>
<path d="M1503.67 767.027C1503.67 770.123 1501.27 772.632 1498.31 772.632C1495.36 772.632 1492.96 770.123 1492.96 767.027C1492.96 763.931 1495.36 761.422 1498.31 761.422C1501.27 761.422 1503.67 763.931 1503.67 767.027Z" fill="#FCEA83" stroke="#51C161" stroke-width="0.05" stroke-linecap="round" stroke-linejoin="round"/>
<path d="M1476.62 811.283H1518.03C1518.31 807.658 1516.69 804.159 1513.8 802.138C1535.49 798.893 1529.86 779.127 1547.89 777.947C1551.27 777.947 1538.31 786.503 1538.31 786.503C1538.31 786.503 1527.32 794.468 1532.39 798.598C1537.47 802.728 1538.03 796.533 1538.59 792.698C1539.16 788.863 1556.06 786.208 1553.8 774.997C1551.55 763.787 1525.63 781.192 1525.63 781.192H1508.73C1508.73 779.127 1503.1 771.162 1498.03 771.162C1492.96 771.162 1488.17 781.192 1488.17 781.192H1449.86C1449.86 781.192 1449.86 791.518 1467.89 793.583C1470.72 797.834 1474.76 801.036 1479.44 802.728C1477.21 804.922 1476.16 808.12 1476.62 811.283Z" fill="#FCEA83" stroke="#51C161" stroke-width="0.05" stroke-linecap="round" stroke-linejoin="round"/>
<path d="M1479.72 802.438H1514.09" stroke="#51C161" stroke-width="0.05" stroke-linecap="round" stroke-linejoin="round"/>
<path d="M1464.79 781.195C1464.79 781.195 1467.6 798.011 1480.28 802.141" stroke="#51C161" stroke-width="0.05" stroke-linecap="round" stroke-linejoin="round"/>
<path d="M1461.99 780.897C1461.99 774.407 1465.65 773.227 1468.19 765.262C1470.72 757.297 1461.99 758.182 1463.96 753.167C1465.93 748.151 1465.65 742.251 1459.17 738.121C1459.17 745.496 1451 752.281 1451 758.182C1451 764.082 1455.79 762.902 1455.23 772.047C1454.67 781.192 1455.23 776.177 1453.54 781.192L1461.99 780.897Z" fill="#EC5565" stroke="#51C161" stroke-width="0.05" stroke-linecap="round" stroke-linejoin="round"/>
<path d="M1503.38 741.076C1503.38 743.846 1501.24 746.091 1498.59 746.091C1495.95 746.091 1493.8 743.846 1493.8 741.076C1493.8 738.306 1495.95 736.061 1498.59 736.061C1501.24 736.061 1503.38 738.306 1503.38 741.076Z" fill="#FCEA83" stroke="#51C161" stroke-width="0.05" stroke-linecap="round" stroke-linejoin="round"/>
<path d="M1246.75 705.659L1273.51 664.652L1301.68 705.659" stroke="#F5BB43" stroke-width="0.08"/>
<path d="M1278.59 690.324C1278.59 693.42 1276.19 695.929 1273.23 695.929C1270.28 695.929 1267.88 693.42 1267.88 690.324C1267.88 687.228 1270.28 684.719 1273.23 684.719C1274.65 684.719 1276.02 685.309 1277.02 686.36C1278.02 687.412 1278.59 688.837 1278.59 690.324Z" fill="#FCEA83" stroke="#51C161" stroke-width="0.05" stroke-linecap="round" stroke-linejoin="round"/>
<path d="M1251.83 735.756H1293.24C1293.51 732.131 1291.9 728.631 1289.01 726.611C1310.7 723.366 1305.07 703.6 1323.09 702.42C1326.47 702.42 1313.52 710.975 1313.52 710.975C1313.52 710.975 1302.53 718.94 1307.6 723.071C1312.67 727.201 1313.24 721.005 1313.8 717.17C1314.36 713.335 1331.26 710.68 1329.01 699.47C1326.76 688.26 1300.84 705.665 1300.84 705.665H1283.94C1283.94 703.6 1278.31 695.635 1273.24 695.635C1268.16 695.635 1263.38 705.665 1263.38 705.665H1225.35C1225.35 705.665 1225.35 715.99 1243.38 718.055C1246.2 722.307 1250.25 725.509 1254.93 727.201C1252.6 729.335 1251.44 732.542 1251.83 735.756Z" fill="#FCEA83" stroke="#51C161" stroke-width="0.05" stroke-linecap="round" stroke-linejoin="round"/>
<path d="M1254.64 727.205H1289.01" stroke="#51C161" stroke-width="0.05" stroke-linecap="round" stroke-linejoin="round"/>
<path d="M1239.43 705.961C1239.43 705.961 1242.25 722.776 1254.92 726.907" stroke="#51C161" stroke-width="0.05" stroke-linecap="round" stroke-linejoin="round"/>
<path d="M1236.9 705.663C1236.9 699.173 1240.57 697.993 1243.1 690.027C1245.64 682.062 1236.9 682.947 1238.88 677.932C1240.85 672.917 1240.57 667.017 1234.09 662.887C1234.09 670.262 1225.92 677.047 1225.92 682.947C1225.92 688.847 1230.71 687.667 1230.14 696.813C1229.58 705.958 1230.14 700.943 1228.45 705.958L1236.9 705.663Z" fill="#EC5565" stroke="#51C161" stroke-width="0.05" stroke-linecap="round" stroke-linejoin="round"/>
<path d="M1278.3 665.548C1278.3 668.318 1276.16 670.563 1273.52 670.563C1270.87 670.563 1268.73 668.318 1268.73 665.548C1268.73 662.779 1270.87 660.533 1273.52 660.533C1276.16 660.533 1278.3 662.779 1278.3 665.548Z" fill="#FCEA83" stroke="#51C161" stroke-width="0.05" stroke-linecap="round" stroke-linejoin="round"/>
<path d="M1389.29 900.399C1389.29 900.399 1400 926.36 1412.39 910.429C1424.79 894.499 1420.28 887.419 1420.28 887.419L1392.11 871.783L1383.94 889.779L1389.29 900.399Z" fill="#FCEA83" stroke="white" stroke-width="0.05" stroke-linecap="round" stroke-linejoin="round"/>
<path d="M1412.96 896.849C1412.96 896.849 1414.65 896.849 1416.34 894.488C1418.03 892.128 1412.96 890.358 1410.99 887.408L1408.73 892.423L1412.96 896.849Z" fill="#FFC6B5" stroke="white" stroke-width="0.05" stroke-linecap="round" stroke-linejoin="round"/>
<path d="M1350.7 890.075L1326.47 903.94C1326.47 903.94 1314.64 906.3 1313.52 903.94C1312.39 901.58 1313.52 899.22 1320 898.925C1326.47 898.63 1343.38 882.404 1343.38 882.404L1350.7 890.075Z" fill="#FFC6B5" stroke="white" stroke-width="0.05" stroke-linecap="round" stroke-linejoin="round"/>
<path d="M1352.12 438.984V448.129C1352.12 451.374 1344.23 457.865 1344.51 459.635C1344.79 461.405 1348.45 461.995 1348.45 461.995C1348.45 461.995 1347.05 468.485 1348.45 468.78C1349.86 469.075 1344.51 477.335 1348.45 479.4C1352.53 482.057 1357.18 483.581 1361.98 483.825C1365.07 483.825 1361.98 495.921 1361.98 495.921L1353.53 514.801L1399.72 509.786L1390.14 493.856C1390.14 493.856 1385.64 490.611 1386.76 481.76C1387.89 472.91 1386.76 431.609 1386.76 431.609L1353.81 426.889L1352.12 438.984Z" fill="#FFC6B5"/>
<path d="M1342.54 510.389C1333.41 515.756 1327.88 525.981 1328.18 536.939C1324.23 555.82 1322.26 574.405 1322.26 574.405C1322.26 574.405 1304.51 595.351 1299.16 603.906C1293.81 612.462 1285.64 626.917 1282.82 630.752C1280.01 634.587 1268.18 648.158 1268.46 653.173C1268.74 658.188 1265.64 680.313 1277.47 682.673C1280.57 682.673 1290.15 657.008 1290.15 657.008C1290.15 657.008 1290.15 645.502 1287.33 643.142C1284.51 640.782 1294.37 633.407 1294.37 633.407L1318.88 614.232C1323.39 610.396 1335.5 595.941 1335.5 595.941L1342.54 510.389Z" fill="#FFC6B5" stroke="white" stroke-width="0.05" stroke-linecap="round" stroke-linejoin="round"/>
<path d="M1359.72 495.623C1359.72 495.623 1363.66 506.539 1372.39 504.769C1379.25 502.615 1385.66 499.11 1391.27 494.443C1391.27 494.443 1399.44 494.443 1400.56 494.443C1401.69 494.443 1422.53 516.569 1421.69 523.944C1420.84 531.319 1412.11 528.664 1408.73 533.089C1403.75 539.814 1401.25 548.192 1401.69 556.69C1404.02 564.209 1405.81 571.901 1407.04 579.701C1407.04 583.831 1403.1 585.011 1403.1 587.076C1403.1 589.141 1405.91 592.976 1405.91 597.106C1405.91 601.236 1402.25 607.137 1402.82 611.267C1403.38 615.397 1402.82 627.197 1402.82 627.197V682.364C1404.56 683.47 1405.79 685.287 1406.2 687.379C1406.2 690.624 1426.48 781.782 1426.48 781.782C1426.48 781.782 1426.48 784.732 1423.38 784.142C1420.28 783.552 1431.55 798.302 1431.83 802.432C1432.11 806.562 1442.25 838.423 1441.97 842.848C1441.72 847.786 1440.77 852.658 1439.15 857.304C1439.15 857.304 1445.63 877.364 1444.51 880.609C1443.38 883.854 1430.98 883.559 1430.98 883.559H1427.6C1427.6 883.559 1427.6 887.69 1425.63 887.985C1423.66 888.28 1405.63 887.985 1405.63 887.985C1405.63 887.985 1400.56 896.245 1397.46 895.95C1394.37 895.655 1390.7 890.05 1389.58 890.935C1388.45 891.82 1392.39 897.13 1391.27 898.9C1390.14 900.67 1375.21 903.915 1372.11 896.54C1369.01 889.165 1373.8 890.935 1372.11 889.46C1370.42 887.985 1364.22 883.854 1362.25 885.034C1360.28 886.214 1367.6 888.28 1367.32 891.23C1367.04 894.18 1360.84 899.195 1358.31 899.195C1355.77 899.195 1350.14 887.689 1341.97 888.87C1337.27 889.545 1332.64 890.731 1328.17 892.41C1323.74 894.553 1318.96 895.756 1314.08 895.95C1311.03 895.468 1308.63 892.955 1308.17 889.755C1309.31 885.678 1310.25 881.542 1310.98 877.364C1310.98 875.004 1308.17 872.349 1308.17 868.514C1309.75 862.732 1312.02 857.181 1314.93 851.994V792.992C1314.93 792.992 1308.73 792.992 1308.45 788.862C1308.17 784.732 1318.03 697.704 1319.44 692.099C1320.84 686.494 1324.79 666.433 1324.79 666.433C1324.79 666.433 1320.28 668.498 1320 666.433C1319.72 664.368 1333.52 614.512 1333.52 614.512C1333.52 614.512 1335.77 589.731 1335.77 583.241C1336.05 578.033 1336.05 572.813 1335.77 567.605C1335.77 567.605 1323.38 562.295 1323.1 553.74C1323.1 540.465 1334.65 533.089 1336.34 528.664L1342.25 511.259C1345.69 503.684 1352.04 497.999 1359.72 495.623Z" fill="white" stroke="white" stroke-width="0.05" stroke-linecap="round" stroke-linejoin="round"/>
<path d="M1355.21 893.599C1355.21 893.599 1327.04 909.53 1321.97 910.71C1316.9 911.89 1315.21 905.399 1319.16 904.219C1322.68 903.355 1326.26 902.764 1329.86 902.449C1326.53 899.769 1323.33 896.913 1320.28 893.894L1334.09 888.584C1334.09 888.584 1338.31 896.844 1340.85 895.959C1344.56 894.121 1348.05 891.845 1351.27 889.174L1355.21 893.599Z" fill="#FCEA83" stroke="white" stroke-width="0.05" stroke-linecap="round" stroke-linejoin="round"/>
<path d="M1396.06 902.452C1398.88 906.288 1400 912.483 1406.2 908.943C1412.4 905.403 1403.1 898.322 1403.1 898.322L1396.06 902.452Z" fill="#FFC6B5" stroke="white" stroke-width="0.05" stroke-linecap="round" stroke-linejoin="round"/>
<path d="M1408.45 901.848C1410.06 903.351 1412.48 903.351 1414.09 901.848C1416.91 898.898 1408.74 892.998 1408.74 892.998L1404.79 897.718L1408.45 901.848Z" fill="#FFC6B5" stroke="white" stroke-width="0.05" stroke-linecap="round" stroke-linejoin="round"/>
<path d="M1398.59 507.74C1398.59 507.74 1371.83 525.736 1372.68 531.931" stroke="white" stroke-width="0.05" stroke-linecap="round" stroke-linejoin="round"/>
<path d="M1404.51 510.977C1404.51 510.977 1398.59 517.762 1398.31 517.762" stroke="white" stroke-width="0.05" stroke-linecap="round" stroke-linejoin="round"/>
<path d="M1412.67 518.656C1412.67 518.656 1399.43 529.867 1401.69 537.242" stroke="white" stroke-width="0.05" stroke-linecap="round" stroke-linejoin="round"/>
<path d="M1350.42 506.27C1350.42 506.27 1346.48 514.825 1347.32 517.48C1350.8 523.839 1353.63 530.562 1355.77 537.54C1356.32 541.255 1356.32 545.036 1355.77 548.751" stroke="white" stroke-width="0.05" stroke-linecap="round" stroke-linejoin="round"/>
<path d="M1343.38 521.893C1343.78 525.978 1344.83 529.966 1346.48 533.693C1349.59 537.845 1351.97 542.539 1353.52 547.558" stroke="white" stroke-width="0.05" stroke-linecap="round" stroke-linejoin="round"/>
<path d="M1341.12 563.791C1341.12 563.791 1349.01 567.921 1356.05 552.285" stroke="white" stroke-width="0.05" stroke-linecap="round" stroke-linejoin="round"/>
<path d="M1367.61 541.076C1367.61 541.076 1361.97 556.417 1371.55 562.022C1377.66 566.358 1385.29 567.654 1392.4 565.562C1395.42 564.352 1398.34 562.872 1401.13 561.137" stroke="white" stroke-width="0.05" stroke-linecap="round" stroke-linejoin="round"/>
<path d="M1363.38 560.525C1363.38 560.525 1363.38 581.176 1392.96 601.531" stroke="white" stroke-width="0.05" stroke-linecap="round" stroke-linejoin="round"/>
<path d="M1364.79 579.414C1364.6 589.428 1368.62 599.023 1375.77 605.67" stroke="white" stroke-width="0.05" stroke-linecap="round" stroke-linejoin="round"/>
<path d="M1358.59 557.877C1358.59 557.877 1349.86 584.723 1343.1 587.378" stroke="white" stroke-width="0.05" stroke-linecap="round" stroke-linejoin="round"/>
<path d="M1356.05 577.648C1355.98 586.479 1355.04 595.278 1353.23 603.904" stroke="white" stroke-width="0.05" stroke-linecap="round" stroke-linejoin="round"/>
<path d="M1352.11 608.93C1352.11 608.93 1358.03 616.895 1364.79 616.01C1371.55 615.125 1374.09 607.16 1378.59 608.635C1384.53 611.724 1391.13 613.147 1397.75 612.765" stroke="white" stroke-width="0.05" stroke-linecap="round" stroke-linejoin="round"/>
<path d="M1380.28 619.545C1380.28 619.545 1380.28 635.475 1383.1 636.95C1385.91 638.425 1384.51 653.176 1384.51 653.176" stroke="white" stroke-width="0.05" stroke-linecap="round" stroke-linejoin="round"/>
<path d="M1344.79 613.043C1344.78 619.88 1344.12 626.698 1342.82 633.399C1339.87 640.38 1338.25 647.894 1338.03 655.524" stroke="white" stroke-width="0.05" stroke-linecap="round" stroke-linejoin="round"/>
<path d="M1326.76 664.666C1329.05 663.08 1331.22 661.304 1333.24 659.355" stroke="white" stroke-width="0.05" stroke-linecap="round" stroke-linejoin="round"/>
<path d="M1336.06 662.619C1329.2 692.756 1326.08 723.69 1326.76 754.662" stroke="white" stroke-width="0.05" stroke-linecap="round" stroke-linejoin="round"/>
<path d="M1338.87 665.562C1335.86 682.482 1334.64 699.695 1335.21 716.894" stroke="white" stroke-width="0.05" stroke-linecap="round" stroke-linejoin="round"/>
<path d="M1335.78 664.385L1360.85 666.155" stroke="white" stroke-width="0.05" stroke-linecap="round" stroke-linejoin="round"/>
<path d="M1364.51 662.619C1369.61 665.097 1375.23 666.212 1380.85 665.864" stroke="white" stroke-width="0.05" stroke-linecap="round" stroke-linejoin="round"/>
<path d="M1361.41 683.863C1361.41 683.863 1361.41 757.91 1358.31 774.136" stroke="white" stroke-width="0.05" stroke-linecap="round" stroke-linejoin="round"/>
<path d="M1398.31 700.664C1400.76 724.555 1404.9 748.221 1410.71 771.466" stroke="white" stroke-width="0.05" stroke-linecap="round" stroke-linejoin="round"/>
<path d="M1383.1 708.049C1384.6 728.922 1387.14 749.699 1390.7 770.295" stroke="white" stroke-width="0.05" stroke-linecap="round" stroke-linejoin="round"/>
<path d="M1315.21 791.237C1321.96 788.603 1328.04 784.362 1332.96 778.847C1342.53 792.417 1357.18 778.847 1357.18 778.847C1357.18 778.847 1380 795.072 1390.14 777.077C1405.63 787.697 1413.52 775.602 1413.52 775.602C1413.52 775.602 1419.15 784.747 1423.38 783.862" stroke="white" stroke-width="0.05" stroke-linecap="round" stroke-linejoin="round"/>
<path d="M1398.59 790.344C1403.01 816.703 1412.6 841.816 1426.76 864.096" stroke="white" stroke-width="0.05" stroke-linecap="round" stroke-linejoin="round"/>
<path d="M1338.31 784.459C1338.31 784.459 1339.72 832.545 1342.53 866.176" stroke="white" stroke-width="0.05" stroke-linecap="round" stroke-linejoin="round"/>
<path d="M1336.34 838.447C1336 849.729 1334.87 860.97 1332.96 872.078" stroke="white" stroke-width="0.05" stroke-linecap="round" stroke-linejoin="round"/>
<path d="M1318.59 875.319C1318.59 875.319 1321.97 888.889 1338.31 875.319C1354.65 861.748 1354.93 880.039 1355.77 881.809C1356.62 883.579 1359.15 897.149 1365.35 885.939" stroke="white" stroke-width="0.05" stroke-linecap="round" stroke-linejoin="round"/>
<path d="M1378.31 868.233C1378.31 868.233 1375.49 896.259 1399.16 875.608C1422.82 854.958 1427.33 875.608 1427.33 881.509" stroke="white" stroke-width="0.05" stroke-linecap="round" stroke-linejoin="round"/>
<path d="M1350.14 436.929C1353.46 437.855 1356.96 437.855 1360.28 436.929C1363.94 434.864 1368.17 433.684 1370.99 436.929C1373.8 440.174 1376.06 441.059 1376.06 441.059C1376.06 441.059 1371.55 452.565 1376.06 454.04C1380.56 455.515 1382.54 454.04 1382.82 456.99C1383.1 459.94 1378.87 462.005 1380 463.48C1381.13 464.955 1383.38 467.02 1383.66 468.2C1383.94 469.38 1380.85 474.69 1381.97 476.165C1383.1 477.64 1385.63 482.36 1387.32 482.36C1389.01 482.36 1387.32 490.326 1393.24 488.261C1396.2 487.46 1398.28 484.678 1398.31 481.475C1401.54 480.856 1404.21 478.502 1405.35 475.28C1405.98 472.406 1407.86 470.005 1410.42 468.79C1410.42 468.79 1417.47 464.66 1408.17 458.465C1408.17 414.509 1380 419.229 1380 419.229C1380 419.229 1376.62 411.263 1371.27 412.443C1365.92 413.624 1365.63 419.819 1361.69 419.229C1357.75 418.639 1356.9 415.689 1356.62 415.984C1355.04 418.547 1353.81 421.327 1352.96 424.244C1352.96 425.719 1342.54 422.179 1343.38 430.144C1344.23 438.109 1350.42 437.519 1350.14 436.929Z" fill="#9C5100"/>
<path fill-rule="evenodd" clip-rule="evenodd" d="M1355.77 451.102C1355.77 451.102 1360 451.102 1360.56 451.102C1361.13 451.102 1356.9 452.307 1355.77 451.102Z" stroke="white" stroke-width="0.09" stroke-linecap="round" stroke-linejoin="round"/>
<path d="M1420.28 525.719C1424.57 538.497 1428.24 551.494 1431.27 564.66C1433.69 579.075 1434.92 593.684 1434.93 608.321C1433.52 612.746 1418.31 633.692 1416.34 637.822C1414.37 641.952 1403.66 663.488 1403.66 663.488C1402.84 670.562 1401.52 677.562 1399.72 684.433C1399.72 684.433 1402.82 690.333 1402.54 691.808C1402.25 693.283 1393.8 702.429 1390.14 701.544C1386.48 700.659 1380.85 696.234 1380.56 692.103C1380.09 684.967 1381.15 677.809 1383.66 671.158C1386.48 667.618 1400.28 632.807 1401.41 630.742C1406.5 619.633 1410.92 608.204 1414.65 596.521C1414.11 589.306 1411.34 582.472 1406.76 577.05C1397.18 549.024 1401.13 531.029 1420.28 525.719Z" fill="#FFC6B5" stroke="white" stroke-width="0.05" stroke-linecap="round" stroke-linejoin="round"/>
<path d="M1280.84 659.943V673.809" stroke="white" stroke-width="0.05" stroke-linecap="round" stroke-linejoin="round"/>
<path d="M1267.61 659.061C1271.71 665.954 1274.3 673.71 1275.21 681.776" stroke="white" stroke-width="0.05" stroke-linecap="round" stroke-linejoin="round"/>
<path d="M1380.28 689.757C1380.28 689.757 1386.48 689.757 1386.48 700.082C1390.42 686.512 1398.59 686.217 1398.59 686.217" stroke="white" stroke-width="0.05" stroke-linecap="round" stroke-linejoin="round"/>
<path d="M1389.29 900.372C1389.29 900.372 1400 926.332 1412.39 910.402C1424.79 894.471 1420.28 887.391 1420.28 887.391L1392.11 871.756L1383.94 889.751L1389.29 900.372Z" fill="#FCEA83" stroke="#FCEA83" stroke-width="0.05" stroke-linecap="round" stroke-linejoin="round"/>
<path d="M1412.96 896.819C1412.96 896.819 1414.65 896.819 1416.34 894.459C1418.03 892.099 1412.96 890.329 1410.98 887.379L1408.73 892.394L1412.96 896.819Z" fill="#FFC6B5" stroke="#FFC6B5" stroke-width="0.05" stroke-linecap="round" stroke-linejoin="round"/>
<path d="M1350.7 890.047L1326.47 903.913C1326.47 903.913 1314.64 906.273 1313.52 903.913C1312.39 901.553 1313.52 899.193 1320 898.898C1326.47 898.603 1343.38 882.377 1343.38 882.377L1350.7 890.047Z" fill="#FFC6B5" stroke="#FFC6B5" stroke-width="0.05" stroke-linecap="round" stroke-linejoin="round"/>
<path d="M1342.53 510.361C1333.41 515.729 1327.87 525.954 1328.17 536.912C1324.22 555.793 1322.25 574.378 1322.25 574.378C1322.25 574.378 1304.51 595.324 1299.15 603.879C1293.8 612.434 1285.63 626.89 1282.82 630.725C1280 634.56 1268.17 648.13 1268.45 653.145C1268.73 658.16 1265.63 680.286 1277.46 682.646C1280.56 682.646 1290.14 656.98 1290.14 656.98C1290.14 656.98 1290.14 645.475 1287.32 643.115C1284.51 640.755 1294.36 633.38 1294.36 633.38L1318.87 614.204C1323.38 610.369 1335.49 595.914 1335.49 595.914L1342.53 510.361Z" fill="#FFC6B5" stroke="#FFC6B5" stroke-width="0.05" stroke-linecap="round" stroke-linejoin="round"/>
<path d="M1359.72 495.623C1359.72 495.623 1363.66 506.539 1372.39 504.769C1379.25 502.615 1385.66 499.11 1391.27 494.443C1391.27 494.443 1399.44 494.443 1400.56 494.443C1401.69 494.443 1422.53 516.569 1421.69 523.944C1420.84 531.319 1412.11 528.664 1408.73 533.089C1403.75 539.814 1401.25 548.192 1401.69 556.69C1404.02 564.209 1405.81 571.901 1407.04 579.701C1407.04 583.831 1403.1 585.011 1403.1 587.076C1403.1 589.141 1405.91 592.976 1405.91 597.106C1405.91 601.236 1402.25 607.137 1402.82 611.267C1403.38 615.397 1402.82 627.197 1402.82 627.197V682.364C1404.56 683.47 1405.79 685.287 1406.2 687.379C1406.2 690.624 1426.48 781.781 1426.48 781.781C1426.48 781.781 1426.48 784.732 1423.38 784.142C1420.28 783.552 1431.55 798.302 1431.83 802.432C1432.11 806.562 1442.25 838.423 1441.97 842.848C1441.72 847.786 1440.77 852.658 1439.15 857.304C1439.15 857.304 1445.63 877.364 1444.51 880.609C1443.38 883.854 1430.98 883.559 1430.98 883.559H1427.6C1427.6 883.559 1427.6 887.69 1425.63 887.985C1423.66 888.28 1405.63 887.985 1405.63 887.985C1405.63 887.985 1400.56 896.245 1397.46 895.95C1394.37 895.655 1390.7 890.05 1389.58 890.935C1388.45 891.82 1392.39 897.13 1391.27 898.9C1390.14 900.67 1375.21 903.915 1372.11 896.54C1369.01 889.165 1373.8 890.935 1372.11 889.46C1370.42 887.984 1364.22 883.854 1362.25 885.034C1360.28 886.214 1367.6 888.28 1367.32 891.23C1367.04 894.18 1360.84 899.195 1358.31 899.195C1355.77 899.195 1350.14 887.689 1341.97 888.87C1337.27 889.545 1332.64 890.731 1328.17 892.41C1323.74 894.553 1318.96 895.756 1314.08 895.95C1311.03 895.468 1308.63 892.955 1308.17 889.755C1309.31 885.678 1310.25 881.542 1310.98 877.364C1310.98 875.004 1308.17 872.349 1308.17 868.514C1309.75 862.732 1312.02 857.181 1314.93 851.993V792.992C1314.93 792.992 1308.73 792.992 1308.45 788.862C1308.17 784.732 1318.03 697.704 1319.44 692.099C1320.84 686.494 1324.79 666.433 1324.79 666.433C1324.79 666.433 1320.28 668.498 1320 666.433C1319.72 664.368 1333.52 614.512 1333.52 614.512C1333.52 614.512 1335.77 589.731 1335.77 583.241C1336.05 578.033 1336.05 572.813 1335.77 567.605C1335.77 567.605 1323.38 562.295 1323.1 553.74C1323.1 540.465 1334.65 533.089 1336.34 528.664L1342.25 511.259C1345.69 503.684 1352.04 497.999 1359.72 495.623Z" fill="white"/>
<path d="M1355.21 893.599C1355.21 893.599 1327.04 909.53 1321.97 910.71C1316.9 911.89 1315.21 905.399 1319.16 904.219C1322.68 903.355 1326.25 902.764 1329.86 902.449C1326.53 899.769 1323.33 896.914 1320.28 893.894L1334.08 888.584C1334.08 888.584 1338.31 896.844 1340.85 895.959C1344.56 894.121 1348.05 891.845 1351.27 889.174L1355.21 893.599Z" fill="#FCEA83" stroke="#FCEA83" stroke-width="0.05" stroke-linecap="round" stroke-linejoin="round"/>
<path d="M1396.06 902.425C1398.88 906.26 1400 912.455 1406.2 908.915C1412.4 905.375 1403.1 898.295 1403.1 898.295L1396.06 902.425Z" fill="#FFC6B5" stroke="#FFC6B5" stroke-width="0.05" stroke-linecap="round" stroke-linejoin="round"/>
<path d="M1408.45 901.848C1410.05 903.351 1412.48 903.351 1414.08 901.848C1416.9 898.898 1408.73 892.998 1408.73 892.998L1404.79 897.718L1408.45 901.848Z" fill="#FFC6B5" stroke="#FFC6B5" stroke-width="0.05" stroke-linecap="round" stroke-linejoin="round"/>
<path fill-rule="evenodd" clip-rule="evenodd" d="M1355.77 451.074C1355.77 451.074 1360 451.074 1360.56 451.074C1361.13 451.074 1356.9 452.279 1355.77 451.074Z" stroke="#51C161" stroke-width="0.09" stroke-linecap="round" stroke-linejoin="round"/>
<path d="M1420.28 525.719C1424.57 538.497 1428.24 551.494 1431.27 564.66C1433.69 579.075 1434.92 593.684 1434.93 608.321C1433.52 612.746 1418.31 633.692 1416.34 637.822C1414.37 641.952 1403.66 663.488 1403.66 663.488C1402.84 670.562 1401.52 677.563 1399.72 684.433C1399.72 684.433 1402.82 690.333 1402.54 691.808C1402.25 693.284 1393.8 702.429 1390.14 701.544C1386.48 700.659 1380.85 696.234 1380.56 692.104C1380.09 684.967 1381.15 677.809 1383.66 671.158C1386.48 667.618 1400.28 632.807 1401.41 630.742C1406.5 619.633 1410.92 608.204 1414.65 596.521C1414.11 589.306 1411.34 582.472 1406.76 577.05C1397.18 549.024 1401.13 531.029 1420.28 525.719Z" fill="#FFC6B5" stroke="#FFC6B5" stroke-width="0.05" stroke-linecap="round" stroke-linejoin="round"/>
</svg>
