<svg width="2000" height="1417" viewBox="0 0 2000 1417" fill="none" xmlns="http://www.w3.org/2000/svg">
<path d="M1795.77 2.94336H198.027C94.7261 2.94336 10.9844 90.6443 10.9844 198.829V1193.6C10.9844 1301.78 94.7261 1389.48 198.027 1389.48H1795.77C1899.07 1389.48 1982.82 1301.78 1982.82 1193.6V198.829C1982.82 90.6443 1899.07 2.94336 1795.77 2.94336Z" fill="white"/>
<path d="M671.829 918.952C671.829 918.952 670.421 908.627 689.294 900.957C708.167 893.287 709.575 864.966 705.913 846.085C700.642 855.775 693.197 863.977 684.223 869.981C673.443 875.968 665.944 886.876 663.942 899.482C663.805 903.955 663.239 908.403 662.252 912.757C656.344 897.077 658.925 879.282 669.012 866.146C687.105 846.088 690.43 815.949 677.181 792.099C676.248 804.538 671.162 816.236 662.815 825.14C649.575 837.235 647.885 838.12 648.167 866.736C648.167 866.736 648.167 876.766 643.378 880.011C638.046 871.955 633.693 863.234 630.421 854.051C627.604 843.725 626.477 839.3 638.026 827.205C638.026 827.205 675.491 801.834 648.449 746.373C647.444 757.642 642.534 768.136 634.646 775.873C621.688 787.084 622.815 794.754 622.252 814.224C621.688 833.695 620.28 832.515 618.871 835.17C617.463 837.825 594.928 789.444 613.519 764.958C632.111 740.472 641.688 735.457 621.97 690.026C622.373 703.482 616.745 716.36 606.759 724.837C590.421 736.342 594.364 763.188 594.364 763.188C594.909 769.094 594.137 775.052 592.111 780.593C592.111 780.593 569.294 733.687 592.111 708.611C609.596 691.379 613.659 663.904 601.97 641.94C600.952 650.422 596.807 658.151 590.421 663.475C580.28 671.145 572.111 678.816 573.801 708.021C574.334 716.813 573.766 725.64 572.111 734.277C567.073 724.889 562.922 715.009 559.716 704.776C555.927 694.298 557.185 682.549 563.097 673.21C585.93 645.291 586.639 604.331 564.787 575.563C563.739 586.485 560.474 597.046 555.209 606.539C549.117 620.947 548.119 637.156 552.392 652.265C553.21 661.284 551.651 670.365 547.885 678.521C539.14 660.262 535.156 639.908 536.336 619.519C539.986 587.946 525.079 557.188 498.59 541.637C498.59 541.637 478.026 591.788 506.195 617.454C520.559 632.858 530.934 651.846 536.336 672.62C536.336 672.62 518.026 670.85 501.688 637.219C491.567 616.855 470.512 605.125 448.73 607.719C453.729 640.134 476.645 666.337 507.04 674.39C507.04 674.39 540.561 680.291 547.04 706.251C547.04 706.251 552.674 723.952 554.928 733.392C546.471 729.042 539.347 722.296 534.364 713.922C524.505 698.581 525.914 696.811 492.674 693.566C484.71 692.483 477.398 688.392 472.111 682.061C472.111 682.061 486.195 737.227 521.97 736.637C521.97 736.637 554.646 733.097 573.237 778.233L564.787 772.333C552.421 764.921 537.891 762.508 523.942 765.548C511.694 768.225 498.966 767.097 487.322 762.303C487.322 762.303 511.547 808.914 545.914 795.049C580.28 781.184 596.618 831.63 597.181 832.515C593.438 829.382 589.865 826.033 586.477 822.485C574.681 811.833 557.979 809.516 543.942 816.585C532.741 820.164 520.776 820.164 509.576 816.585C520.511 837.903 543.067 849.715 565.914 846.085C586.936 841.647 607.826 854.293 614.646 875.586C611.621 873.703 608.705 871.634 605.914 869.391C602.252 866.441 589.294 858.476 561.125 867.326C532.956 876.176 522.815 867.326 522.815 867.326C532.583 884.946 549.285 897.147 568.449 900.662C576.513 900.668 584.55 899.678 592.392 897.712C606.509 891.517 622.838 896.721 631.266 910.102C628.162 910.409 625.038 909.796 622.252 908.332C610.298 904.162 597.154 906.364 587.04 914.232C578.292 922.932 566.373 927.236 554.364 926.033C572.903 941.244 598.52 942.774 618.59 929.868C618.59 929.868 631.829 919.837 641.688 927.508C651.547 935.178 671.829 918.952 671.829 918.952Z" fill="#55A963"/>
<path d="M1201.41 678.522C1215.11 690.798 1235.31 690.798 1249.01 678.522C1255.85 685.723 1265.75 688.733 1275.21 686.487C1292.67 683.242 1295.77 673.507 1297.46 668.197C1306.02 673.493 1316.46 674.258 1325.63 670.262C1332.66 666.955 1337.48 659.993 1338.31 651.971C1350.67 654.577 1363.44 650.342 1372.11 640.761C1383.66 624.83 1376.62 609.195 1370.42 607.425C1370.42 607.425 1394.65 613.915 1401.12 592.379C1404.78 582.424 1401.94 571.135 1394.08 564.354C1418.87 564.746 1443.38 558.983 1465.63 547.538C1465.63 547.538 1482.81 536.033 1472.67 524.233C1472.67 524.233 1518.31 516.562 1529.01 497.387C1532.26 493.403 1533.52 488.039 1532.39 482.931C1532.25 479.899 1529.94 477.474 1527.04 477.326C1551.07 474.129 1574.04 465.032 1594.08 450.775C1598.45 445.39 1599.83 438.021 1597.74 431.305C1597.31 429.546 1596.65 427.859 1595.77 426.29C1621.25 420.764 1645.33 409.71 1666.48 393.839C1674.23 386.339 1676.8 374.631 1672.96 364.338C1672.96 364.338 1752.11 341.622 1733.8 305.336C1733.8 305.336 1770.7 292.651 1759.15 257.84C1759.15 257.84 1789.86 241.614 1776.34 215.654C1762.81 189.693 1724.22 220.079 1677.74 233.354C1677.74 233.354 1551.83 274.95 1489.86 285.866L1313.8 560.519L1210.98 602.115L1201.41 678.522Z" fill="#F5BB43"/>
<path d="M1200.28 476.736C1214.82 468.544 1232.5 469.452 1246.2 479.097C1251.44 483.276 1258.7 483.276 1263.95 479.097C1267.42 475.658 1269.21 470.757 1268.83 465.769C1268.45 460.781 1265.92 456.244 1261.97 453.431C1249.62 442.095 1242.83 425.52 1243.48 408.334C1244.14 391.148 1252.18 375.194 1265.35 364.928C1265.35 364.928 1313.8 335.427 1490.71 287.341C1498.1 285.054 1505.84 284.253 1513.52 284.981C1521.44 287.031 1527.62 293.505 1529.58 301.797C1531.85 309.347 1531.14 317.538 1527.59 324.529C1524.04 331.519 1517.96 336.722 1510.71 338.968C1502.74 342.668 1494.55 345.821 1486.2 348.408C1494.33 346.76 1502.45 351.319 1505.64 359.323C1511.27 372.894 1503.1 386.759 1477.47 395.609C1472.13 397.718 1466.67 399.491 1461.13 400.919C1461.13 400.919 1482.54 407.41 1472.4 425.405C1462.89 439.639 1447.29 448.032 1430.71 447.826C1430.71 447.826 1454.93 450.481 1437.75 474.671C1430.05 484.813 1418.78 491.295 1406.48 492.667C1406.48 492.667 1424.51 492.667 1415.49 510.072C1403.68 527.473 1384.62 537.893 1364.23 538.098C1357.86 538.824 1351.44 538.824 1345.07 538.098C1345.07 538.098 1365.07 548.423 1353.24 566.124C1345.55 574.835 1334.36 579.212 1323.1 577.924C1326.4 588.265 1322.12 599.594 1312.96 604.77C1305.4 608.013 1296.75 606.654 1290.42 601.23C1293.47 613.29 1287.59 625.862 1276.62 630.731C1269.47 633.704 1261.51 633.704 1254.37 630.731C1254.37 630.731 1244.23 654.626 1207.89 637.811C1171.55 620.996 1200.28 476.736 1200.28 476.736Z" fill="#F5BB43"/>
<path d="M740.282 869.966C740.282 869.966 719.155 908.022 693.521 908.612C693.521 908.612 649.577 903.007 637.183 915.102C625.716 923.941 618.107 937.222 616.056 951.978C612.394 973.514 623.099 977.939 625.634 979.119C625.976 983.104 628.015 986.715 631.186 988.948C634.356 991.18 638.319 991.796 641.972 990.624C641.972 990.624 641.972 1006.55 668.451 998.884C694.93 991.214 704.789 993.574 709.577 967.024C714.366 940.473 719.155 940.768 723.662 937.523C728.169 934.278 741.408 929.263 749.859 923.952C764.705 914.92 780.488 907.695 796.901 902.417C807.042 902.417 804.789 865.836 804.789 865.836H778.873L766.479 846.365L740.282 869.966Z" fill="#F5BB43"/>
<path d="M1430.14 615.371L1434.36 759.335L1410.14 744.585L1369.85 927.195L1353.23 914.805L1392.39 739.865L1365.07 740.455L1430.14 615.371Z" fill="#3CAFDA"/>
<path d="M1587.04 679.393L1529.57 808.901L1514.64 783.235L1393.24 933.395L1380.28 918.054L1500.84 769.665L1476.62 756.095L1587.04 679.393Z" fill="#3CAFDA"/>
<path d="M643.379 579.092L659.999 631.898L745.351 618.033V580.272L643.379 579.092Z" fill="#F4C53D"/>
<path d="M1534.65 584.711L1505.07 724.84L1485.07 703.599L1376.62 922.201L1360 911.875L1469.01 693.864L1442.54 686.489L1534.65 584.711Z" fill="#3CAFDA"/>
<path d="M821.971 678.522C808.267 690.798 788.069 690.798 774.365 678.522C767.525 685.723 757.627 688.733 748.168 686.487C730.703 683.242 727.605 673.507 725.915 668.197C717.36 673.493 706.922 674.258 697.746 670.262C690.718 666.955 685.893 659.993 685.069 651.971C672.71 654.577 659.941 650.342 651.267 640.761C639.717 624.83 646.76 609.195 652.957 607.425C652.957 607.425 628.731 613.915 622.253 592.379C618.596 582.424 621.433 571.135 629.295 564.354C604.512 564.746 579.992 558.983 557.745 547.538C557.745 547.538 540.562 536.033 550.703 524.233C550.703 524.233 505.069 516.562 494.365 497.387C491.112 493.403 489.858 488.039 490.985 482.931C491.126 479.899 493.442 477.474 496.337 477.326C472.305 474.129 449.334 465.032 429.295 450.775C424.931 445.39 423.545 438.021 425.633 431.305C426.067 429.546 426.73 427.859 427.605 426.29C402.131 420.764 378.045 409.71 356.9 393.839C349.148 386.339 346.577 374.631 350.422 364.338C350.422 364.338 271.267 341.622 289.576 305.336C289.576 305.336 252.675 292.651 264.224 257.84C264.224 257.84 233.52 241.614 247.041 215.654C260.562 189.693 299.154 220.079 345.633 233.354C345.633 233.354 471.548 274.95 533.52 285.866L709.577 560.519L812.393 602.115L821.971 678.522Z" fill="#F5BB43"/>
<path d="M823.095 476.736C808.556 468.544 790.882 469.452 777.179 479.097C771.937 483.276 764.675 483.276 759.433 479.097C755.961 475.658 754.165 470.757 754.548 465.769C754.932 460.781 757.453 456.244 761.405 453.431C773.756 442.095 780.553 425.52 779.896 408.334C779.24 391.148 771.201 375.194 758.024 364.928C758.024 364.928 709.574 335.427 532.672 287.341C525.277 285.054 517.535 284.253 509.855 284.981C501.938 287.031 495.756 293.505 493.799 301.797C491.523 309.347 492.24 317.538 495.79 324.529C499.339 331.519 505.423 336.722 512.672 338.968C520.637 342.668 528.823 345.821 537.179 348.408C529.049 346.76 520.931 351.319 517.743 359.323C512.109 372.894 520.278 386.759 545.912 395.609C551.252 397.718 556.708 399.491 562.25 400.919C562.25 400.919 540.841 407.41 550.982 425.405C560.484 439.639 576.09 448.032 592.672 447.826C592.672 447.826 568.447 450.481 585.63 474.671C593.331 484.813 604.595 491.295 616.898 492.667C616.898 492.667 598.869 492.667 607.884 510.072C619.701 527.473 638.763 537.893 659.151 538.098C665.517 538.824 671.94 538.824 678.306 538.098C678.306 538.098 658.306 548.423 670.137 566.124C677.833 574.835 689.014 579.212 700.278 577.924C696.975 588.265 701.255 599.594 710.419 604.77C717.981 608.013 726.633 606.654 732.954 601.23C729.907 613.29 735.789 625.862 746.757 630.731C753.903 633.704 761.864 633.704 769.01 630.731C769.01 630.731 779.151 654.626 815.489 637.811C851.827 620.996 823.095 476.736 823.095 476.736Z" fill="#F5BB43"/>
<path d="M825.348 694.428C816.716 721.74 800.052 745.491 777.743 762.28C759.684 778.925 748.312 802.113 745.912 827.181C745.912 862.582 739.996 866.418 727.32 878.513C742.058 879.682 756.492 873.7 766.475 862.287C766.475 862.287 766.475 891.788 761.968 895.623C757.461 899.459 770.137 895.623 782.25 882.348C786.268 877.965 790.928 874.281 796.053 871.433C791.591 884.516 791.002 898.705 794.363 912.144C796.441 906.641 800.97 902.56 806.475 901.229C820.143 896.379 830.121 883.998 832.391 869.073C832.391 869.073 837.179 850.192 866.475 833.672C866.475 833.672 899.715 820.691 898.87 804.171C898.025 787.65 825.348 694.428 825.348 694.428Z" fill="#F5BB43"/>
<path d="M1283.1 869.966C1283.1 869.966 1304.23 908.022 1329.86 908.612C1329.86 908.612 1373.8 903.007 1386.2 915.102C1397.67 923.941 1405.27 937.222 1407.32 951.978C1410.99 973.514 1400.28 977.939 1397.75 979.119C1397.41 983.104 1395.37 986.715 1392.2 988.948C1389.02 991.18 1385.06 991.796 1381.41 990.624C1381.41 990.624 1381.41 1006.55 1354.93 998.884C1328.45 991.214 1318.59 993.574 1313.8 967.024C1309.01 940.473 1304.23 940.768 1299.72 937.523C1295.21 934.278 1281.97 929.263 1273.52 923.952C1258.68 914.92 1242.89 907.695 1226.48 902.417C1216.34 902.417 1218.59 865.836 1218.59 865.836H1244.51L1256.9 846.365L1283.1 869.966Z" fill="#F5BB43"/>
<path d="M1198.03 694.428C1206.66 721.74 1223.32 745.491 1245.63 762.28C1263.69 778.925 1275.06 802.113 1277.46 827.181C1277.46 862.582 1283.38 866.418 1296.05 878.513C1281.32 879.682 1266.88 873.7 1256.9 862.287C1256.9 862.287 1256.9 891.788 1261.41 895.623C1265.91 899.459 1253.24 895.623 1241.12 882.348C1237.11 877.965 1232.45 874.281 1227.32 871.433C1231.78 884.516 1232.37 898.705 1229.01 912.144C1226.93 906.641 1222.4 902.56 1216.9 901.229C1203.23 896.379 1193.25 883.998 1190.98 869.073C1190.98 869.073 1186.19 850.192 1156.9 833.672C1156.9 833.672 1123.66 820.691 1124.5 804.171C1125.35 787.65 1198.03 694.428 1198.03 694.428Z" fill="#F5BB43"/>
<path d="M1044.5 1080.89C1044.5 1080.89 1052.11 1116 1078.59 1113.05C1078.59 1113.05 1097.18 1111.28 1095.77 1078.53C1095.77 1078.53 1123.94 1093.87 1127.88 1055.82C1127.88 1055.82 1152.96 1062.01 1152.67 1026.32C1152.67 1026.32 1176.05 1030.74 1173.24 998.88C1179.72 1001.16 1186.87 999.708 1192.06 995.052C1197.26 990.397 1199.74 983.224 1198.59 976.165C1198.59 976.165 1258.03 965.839 1134.36 847.836L1024.22 916.573L1044.5 1080.89Z" fill="#F5BB43"/>
<path d="M1032.11 923.67C1036.91 928.48 1043.74 930.347 1050.16 928.604C1056.59 926.861 1061.7 921.757 1063.66 915.115C1063.66 915.115 1081.41 915.115 1084.22 900.069C1092.58 899.071 1099.45 892.704 1101.41 884.139C1101.41 884.139 1121.12 882.074 1120.56 864.373C1120.56 864.373 1156.62 861.423 1120.56 818.942C1084.51 776.461 1023.66 889.744 1023.66 889.744L1032.11 923.67Z" fill="#F5BB43"/>
<path d="M978.874 1080.89C978.874 1080.89 971.269 1116 944.79 1113.05C944.79 1113.05 926.198 1111.28 927.607 1078.53C927.607 1078.53 899.438 1093.87 895.494 1055.82C895.494 1055.82 870.424 1062.01 870.705 1026.32C870.705 1026.32 847.325 1030.74 850.142 998.88C843.66 1001.16 836.51 999.708 831.314 995.052C826.118 990.397 823.641 983.224 824.79 976.165C824.79 976.165 765.353 965.839 889.015 847.836L999.156 916.573L978.874 1080.89Z" fill="#F5BB43"/>
<path d="M991.269 923.67C986.474 928.48 979.644 930.347 973.217 928.604C966.79 926.861 961.682 921.757 959.719 915.115C959.719 915.115 941.973 915.115 939.156 900.069C930.8 899.071 923.933 892.704 921.973 884.139C921.973 884.139 902.255 882.074 902.818 864.373C902.818 864.373 866.762 861.423 902.818 818.942C938.874 776.461 999.72 889.744 999.72 889.744L991.269 923.67Z" fill="#F5BB43"/>
<path d="M1011.83 913.037C1029.57 913.037 1049.85 1031.04 1044.5 1099.78C1042.53 1125.15 1029.57 1146.09 1011.83 1146.09C994.08 1146.09 980.841 1125.15 979.151 1099.78C973.799 1029.57 994.08 913.037 1011.83 913.037Z" fill="#F5BB43"/>
<path d="M1011.83 950.519C1027.39 950.519 1040 933.348 1040 912.167C1040 890.987 1027.39 873.816 1011.83 873.816C996.272 873.816 983.66 890.987 983.66 912.167C983.66 933.348 996.272 950.519 1011.83 950.519Z" fill="#F5BB43"/>
<path d="M1011.83 903.594C1011.83 903.594 1220.84 806.537 1221.4 582.035H802.25C802.532 806.832 1011.83 903.594 1011.83 903.594Z" fill="white"/>
<path d="M834.367 582.33V725.704C843.541 744.65 854.286 762.715 866.48 779.691V582.035L834.367 582.33Z" fill="#EC5565"/>
<path d="M898.875 582.332V818.339C898.875 818.339 919.157 838.99 930.988 847.84V580.857L898.875 582.332Z" fill="#EC5565"/>
<path d="M963.379 582.328V874.681C963.379 874.681 986.477 890.317 995.492 895.332V582.328H963.379Z" fill="#EC5565"/>
<path d="M1189.01 582.33V725.704C1179.84 744.649 1169.09 762.714 1156.9 779.691V582.035L1189.01 582.33Z" fill="#EC5565"/>
<path d="M1124.51 582.332V818.339C1124.51 818.339 1104.23 838.99 1092.39 847.84V580.857L1124.51 582.332Z" fill="#EC5565"/>
<path d="M1060 582.328V874.681C1060 874.681 1036.9 890.317 1027.89 895.332V582.328H1060Z" fill="#EC5565"/>
<path d="M1349.85 988.859L1341.69 1023.67L1363.94 1046.98L1332.39 1186.22L1304.22 1146.98L1262.81 1167.34L1294.36 1028.1L1322.53 1019.54L1330.14 984.729C1336.94 982.229 1344.5 983.812 1349.85 988.859Z" fill="#3CAFDA"/>
<path d="M1357.18 965.854L1341.12 997.125L1357.18 1026.63L1294.08 1152L1276.34 1105.98L1231.55 1113.65L1294.65 988.275H1323.94L1339.43 957.004C1346.37 956.768 1352.98 960.067 1357.18 965.854Z" fill="#3CAFDA"/>
<path d="M1360 974.983L1317.46 1031.62L1327.32 1063.78L1240.28 1170.28L1232.39 1121.01L1187.04 1117.47L1274.08 1010.97L1302.25 1018.64L1347.32 959.643C1347.32 959.643 1360.56 964.658 1360 974.983Z" fill="#3CAFDA"/>
<path d="M667.324 982.674C667.324 982.674 667.324 964.088 689.296 962.613L755.775 1059.38C755.775 1059.38 753.24 1065.57 723.099 1064.98C720.996 1065.13 719.148 1066.5 718.31 1068.52C699.209 1041.34 682.162 1012.63 667.324 982.674Z" fill="#55A963"/>
<path d="M1121.69 400.903C1116.9 407.393 1097.47 409.753 1097.47 409.753C1109.69 420.31 1119.35 433.758 1125.63 448.989C1134.37 472 893.241 448.989 893.241 448.989C900.585 442.853 906.548 435.097 910.705 426.273C902.918 428.478 894.611 425.845 889.297 419.488C889.297 419.488 897.184 422.143 907.607 405.623C914.928 395.447 923.775 386.58 933.804 379.367C933.804 379.367 928.734 382.612 916.621 375.827C916.621 375.827 937.466 373.172 944.79 335.706C946.516 328.322 949.681 321.392 954.086 315.35C961.973 303.255 960.283 317.71 974.931 299.125C974.931 299.125 981.691 286.144 974.931 278.179C968.17 270.214 962.818 273.164 950.705 265.494C938.593 257.823 932.959 253.398 937.184 241.598C939.669 234.477 946.675 230.249 953.804 231.568C955.212 231.568 956.057 221.242 969.578 214.162C987.284 209.107 1005.96 209.107 1023.66 214.162C1042.04 221.774 1056.33 237.392 1062.82 256.938C1075.21 289.979 1059.44 302.665 1093.52 352.521C1086.09 354.111 1078.42 354.111 1070.99 352.521C1083.3 373.242 1100.85 389.987 1121.69 400.903Z" fill="#F4C53D"/>
<path d="M928.73 374.667L932.392 393.547L1097.18 384.992L1072.96 352.246L928.73 374.667Z" fill="#F4C53D"/>
<path d="M1020.84 265.497C1017.31 263.452 1014.24 260.635 1011.83 257.237C1009.05 252.92 1004.69 249.998 999.786 249.16C994.879 248.322 989.86 249.644 985.915 252.812C982.393 257.017 977.801 260.086 972.676 261.662C977.113 263.179 981.227 265.583 984.788 268.742C989.159 273.944 995.678 276.587 1002.25 275.822C1009.58 275.822 1010.7 270.807 1014.08 268.447C1016.12 266.99 1018.42 265.985 1020.84 265.497Z" fill="#F5BB43"/>
<path d="M1020.84 265.497C1017.31 263.452 1014.24 260.635 1011.83 257.237C1009.05 252.92 1004.69 249.998 999.786 249.16C994.879 248.322 989.86 249.644 985.915 252.812C982.393 257.017 977.801 260.086 972.676 261.662C977.113 263.179 981.227 265.583 984.788 268.742C989.159 273.944 995.678 276.587 1002.25 275.822C1009.58 275.822 1010.7 270.807 1014.08 268.447C1016.12 266.99 1018.42 265.985 1020.84 265.497Z" fill="#010002"/>
<path d="M1221.4 419.195C1154.64 451.792 1077.2 450.048 1011.83 414.475C946.459 450.048 869.018 451.792 802.25 419.195V582.334H1221.4V419.195Z" fill="#4658A9"/>
<path d="M279.997 841.933C290.138 837.508 297.462 833.378 297.462 822.168C296.724 816.018 295.306 809.979 293.236 804.172L225.067 585.866C222.76 577.809 219.937 569.924 216.617 562.265C213.518 556.07 207.603 553.71 199.434 550.17H286.194C276.898 554.89 268.166 558.43 268.166 569.051C268.538 574.793 269.676 580.454 271.546 585.866L323.941 757.266L376.053 585.866C377.958 580.464 379.096 574.798 379.434 569.051C379.434 558.43 370.419 554.3 361.687 550.17H446.194C439.208 551.771 433.065 556.095 429.011 562.265C425.689 569.924 422.866 577.808 420.56 585.866L352.391 804.172C350.495 810.134 349.081 816.252 348.166 822.463C348.166 822.463 345.067 836.328 365.631 842.228L279.997 841.933Z" fill="#3CAFDA"/>
<path d="M1733.8 819.513V572.296C1733.99 568.924 1733.31 565.562 1731.83 562.56C1727.81 557.061 1722.46 552.784 1716.34 550.17H1794.36C1788.11 552.536 1782.7 556.862 1778.87 562.56C1777.37 565.66 1776.69 569.123 1776.9 572.591V819.808C1776.69 823.275 1777.37 826.739 1778.87 829.838C1783.05 835.168 1788.35 839.41 1794.36 842.228H1716.34C1722.37 839.458 1727.69 835.209 1731.83 829.838C1733.38 826.651 1734.06 823.079 1733.8 819.513Z" fill="#3CAFDA"/>
<path d="M891.547 295.014C891.547 295.014 887.04 252.238 919.716 248.107C936.715 244.911 954.197 246.024 970.702 251.352L985.913 282.918L980.561 304.159L959.434 314.189C959.434 314.189 963.096 281.738 934.645 280.853C927.067 281.811 919.406 281.811 911.828 280.853C901.406 279.673 894.082 292.949 891.547 295.014Z" fill="#F4C53D"/>
</svg>
