<svg width="2000" height="1417" viewBox="0 0 2000 1417" fill="none" xmlns="http://www.w3.org/2000/svg">
<path d="M1803.66 7.38477H190.139C91.1948 7.38477 10.9844 91.3875 10.9844 195.01V1206.3C10.9844 1309.92 91.1948 1393.92 190.139 1393.92H1803.66C1902.6 1393.92 1982.82 1309.92 1982.82 1206.3V195.01C1982.82 91.3875 1902.6 7.38477 1803.66 7.38477Z" fill="#ED5565"/>
<path d="M873.236 922.796C852.391 937.252 840.842 928.401 847.603 903.326L872.11 809.513C877.892 781.382 869.736 752.095 850.419 731.631L785.631 669.679C767.039 651.979 772.391 637.818 797.462 637.818H890.701C917.369 636.633 940.774 618.859 950.138 592.682L982.25 490.314C990.138 465.533 1002.81 465.533 1010.42 490.314L1042.25 592.977C1052.01 619.24 1075.16 637.424 1101.97 639.883L1196.9 643.718C1221.97 643.718 1226.48 659.059 1207.04 675.579L1132.95 739.301C1112.93 758.612 1103.96 787.457 1109.29 815.413L1130.14 899.196C1136.33 924.566 1124.5 933.417 1103.66 919.256L1027.6 867.335C1004.21 852.974 975.225 852.974 951.828 867.335L873.236 922.796Z" fill="#F6D660"/>
</svg>
