<svg width="2000" height="1417" viewBox="0 0 2000 1417" fill="none" xmlns="http://www.w3.org/2000/svg">
<path d="M1810.43 28.9219H196.905C97.9604 28.9219 17.75 112.925 17.75 216.547V1227.84C17.75 1331.46 97.9604 1415.46 196.905 1415.46H1810.43C1909.37 1415.46 1989.58 1331.46 1989.58 1227.84V216.547C1989.58 112.925 1909.37 28.9219 1810.43 28.9219Z" fill="#57A863"/>
<path d="M1810.43 29.512H197.19C98.2455 29.512 18.0352 113.515 18.0352 217.137V619.528H1989.87V216.842C1989.79 167.081 1970.84 119.389 1937.19 84.2574C1903.54 49.1262 1857.94 29.4336 1810.43 29.512Z" fill="#ED5565"/>
<path d="M879.154 649.026H1989.86V575.274H897.464L69.013 85.5605C52.4523 103.351 39.4304 124.409 30.7031 147.512L879.154 649.026Z" fill="#434A54"/>
<path d="M879.154 796.523L30.7031 1298.04C39.4371 1321.14 52.4582 1342.19 69.013 1359.99L897.745 870.866H1989.86V796.523H879.154Z" fill="#434A54"/>
<path d="M879.162 649.038L30.7112 147.523C22.3577 169.488 18.0564 192.913 18.0352 216.555V1227.55C18.0564 1251.19 22.3577 1274.62 30.7112 1296.58L879.162 795.067H1989.87V647.563L879.162 649.038Z" fill="#FFCE54"/>
<path d="M17.4648 722.183L20.5634 264.625L778.592 722.183L20.5634 1180.04L17.4648 722.183Z" fill="#434A54"/>
</svg>
