<svg width="2000" height="1417" viewBox="0 0 2000 1417" fill="none" xmlns="http://www.w3.org/2000/svg">
<path d="M1791.84 20.0654H194.089C90.7885 20.0654 7.04688 107.766 7.04688 215.951V1210.72C7.04688 1318.9 90.7885 1406.6 194.089 1406.6H1791.84C1895.14 1406.6 1978.88 1318.9 1978.88 1210.72V215.951C1978.88 107.766 1895.14 20.0654 1791.84 20.0654Z" fill="white"/>
<path d="M1814.37 21.5371H171.55C88.4688 32.2676 22.3121 99.5037 9.57812 186.152V1239.04C23.4904 1334.68 101.989 1405.36 194.367 1405.42H1792.11C1895.41 1405.42 1979.16 1317.72 1979.16 1209.54V215.948C1979.12 116.809 1908.36 33.3322 1814.37 21.5371Z" fill="#ED5565"/>
<path d="M710.427 20.0654H192.117C89.5876 21.1975 7.04118 108.568 7.04688 215.951V727.2H711.272L710.427 20.0654Z" fill="#4658A9"/>
<path d="M271.555 284.979C265.64 289.404 262.541 287.044 263.95 279.374L270.147 251.938C271.586 243.753 269.053 235.353 263.386 229.518L244.513 212.112C239.161 207.097 240.569 202.967 247.612 202.672H274.091C281.722 202.033 288.258 196.697 290.71 189.102L298.879 159.601C300.851 152.226 304.513 152.226 306.767 159.601L316.626 189.102C319.43 196.626 326.116 201.792 333.809 202.377H361.978C369.02 202.377 370.429 206.507 365.077 211.522L344.513 230.698C338.866 236.534 336.519 245.025 338.316 253.118L344.795 277.309C346.767 284.684 344.795 287.339 337.471 283.504L315.499 269.049C308.908 264.918 300.682 264.918 294.091 269.049L271.555 284.979Z" fill="white"/>
<path d="M488.458 361.979C482.824 366.405 479.444 364.044 480.852 356.374L487.049 328.938C488.438 320.756 485.912 312.381 480.289 306.518L461.415 289.112C456.063 284.097 457.472 279.967 464.514 279.672H490.993C498.589 278.792 504.928 273.201 507.049 265.512L515.218 236.011C517.19 228.636 520.852 228.636 523.106 236.011L532.965 265.512C535.769 273.037 542.455 278.202 550.148 278.787H578.317C585.359 278.787 586.768 282.917 581.416 287.932L560.852 307.108C555.253 312.974 552.914 321.437 554.655 329.529L561.134 353.719C563.106 361.094 561.134 363.749 553.81 359.914L531.838 345.459C525.265 341.262 517.003 341.262 510.43 345.459L488.458 361.979Z" fill="white"/>
<path d="M163.383 496.497C157.468 500.922 154.369 498.562 156.059 490.892L162.256 463.456C163.645 455.274 161.119 446.898 155.496 441.035L136.622 423.63C131.27 418.615 132.679 414.485 139.721 414.19H166.2C173.86 413.628 180.432 408.262 182.82 400.619L190.989 371.118C192.961 363.743 196.622 363.743 198.876 371.118L208.735 400.619C211.539 408.144 218.225 413.31 225.918 413.895H254.087C261.13 413.895 262.538 418.025 257.186 423.04L236.622 442.215C231.023 448.082 228.684 456.544 230.425 464.636L236.904 488.827C238.876 496.202 236.904 498.857 229.58 495.022L207.608 480.566C201.035 476.369 192.773 476.369 186.2 480.566L163.383 496.497Z" fill="white"/>
<path d="M425.073 593.272C420.848 596.517 418.594 593.272 419.721 589.437L424.228 569.671C425.224 563.86 423.434 557.907 419.439 553.741L405.918 541.35C401.975 537.81 403.101 534.86 408.172 534.565H427.045C432.508 534.13 437.18 530.285 438.876 524.83L444.792 503.294C446.2 497.984 448.735 497.984 450.425 503.294L457.468 524.535C459.518 529.919 464.339 533.592 469.862 533.975H489.017C494.087 533.975 495.214 536.925 491.27 540.465L476.623 554.036C472.594 558.174 470.89 564.197 472.116 569.966L476.904 587.372C476.904 592.682 476.904 594.452 471.552 591.797L455.778 581.471C451.017 578.446 445.045 578.446 440.285 581.471L425.073 593.272Z" fill="white"/>
</svg>
