<svg width="2000" height="1417" viewBox="0 0 2000 1417" fill="none" xmlns="http://www.w3.org/2000/svg">
<path d="M1803.67 16.2266H190.147C91.2026 16.2266 10.9922 100.229 10.9922 203.852V1215.14C10.9922 1318.76 91.2026 1402.77 190.147 1402.77H1803.67C1902.61 1402.77 1982.82 1318.76 1982.82 1215.14V203.852C1982.82 100.229 1902.61 16.2266 1803.67 16.2266Z" fill="#4758A9"/>
<path d="M1802.82 16.2287H190.147C91.2026 16.2287 10.9922 100.231 10.9922 203.854V606.245H1982.82V203.854C1982.82 153.939 1963.83 106.081 1930.05 70.8689C1896.27 35.6568 1850.48 15.9932 1802.82 16.2287Z" fill="#ED5565"/>
<path d="M1022.28 472.018L247.63 14.7554H191.292C92.3471 14.7554 12.1367 98.7581 12.1367 202.381V1213.37C12.1367 1317 92.3471 1401 191.292 1401H247.63L1022.28 943.737H1982.56V472.018H1022.28ZM985.94 796.528L125.094 1304.53C97.7156 1283.14 81.6249 1249.44 81.7142 1213.67V203.856C81.6249 168.084 97.7156 134.381 125.094 112.993L985.94 619.523H1912.98V796.528H985.94Z" fill="white"/>
<path d="M125.637 29.5107C56.4723 57.3265 10.7918 126.859 10.707 204.451V1215.44C10.7918 1293.04 56.4723 1362.57 125.637 1390.38L1003.66 872.055H1982.54V547.545H1003.95L125.637 29.5107Z" fill="#57A863"/>
<path d="M10.9922 220.374V309.466L687.612 709.497L10.9922 1109.53V1198.62L828.457 709.497L10.9922 220.374Z" fill="#FFCE54"/>
<path d="M687.612 709.496L10.9922 309.465V709.496V1109.53L687.612 709.496Z" fill="#434A54"/>
</svg>
