<svg width="2000" height="1417" viewBox="0 0 2000 1417" fill="none" xmlns="http://www.w3.org/2000/svg">
<path d="M1810.42 7.97266H196.901C97.9565 7.97266 17.7461 91.9754 17.7461 195.598V1206.89C17.7461 1310.51 97.9565 1394.51 196.901 1394.51H1810.42C1909.37 1394.51 1989.58 1310.51 1989.58 1206.89V195.598C1989.58 91.9754 1909.37 7.97266 1810.42 7.97266Z" fill="#52C162"/>
<path d="M1707.89 1394.5H1810.43C1857.94 1394.5 1903.51 1374.74 1937.11 1339.55C1970.71 1304.36 1989.58 1256.64 1989.58 1206.88V597.98H1707.89V1394.5Z" fill="#F6D660"/>
<path d="M1426.2 1394.5V597.98H1707.89V1394.5H1426.2Z" fill="#434A54"/>
<path d="M1144.5 1394.5V597.98H1426.19V1394.5H1144.5Z" fill="#ED5565"/>
<path d="M1370.43 269.635L1428.74 176.707C1437.05 164.602 1450.03 156.942 1464.23 155.762H1605.07L1651.83 450.77H1435.78L1463.95 269.635H1370.71H1370.43Z" fill="#F6D660"/>
</svg>
