<svg width="2000" height="1417" viewBox="0 0 2000 1417" fill="none" xmlns="http://www.w3.org/2000/svg">
<g clip-path="url(#clip0)">
<path d="M41.1295 1302.77C39.1576 1298.25 37.4675 1293.43 35.7773 1288.61C37.4675 1293.43 39.4393 1297.95 41.1295 1302.77Z" fill="#52C162"/>
<path d="M34.369 1284.08C34.369 1279.56 31.8338 1274.74 30.707 1270.22C31.8338 1274.74 32.9606 1279.56 34.369 1284.08Z" fill="#52C162"/>
<path d="M28.1793 1265.41C28.1793 1260.59 26.4892 1255.77 25.9258 1250.95C28.1793 1255.17 28.1793 1259.99 28.1793 1265.41Z" fill="#52C162"/>
<path d="M26.5008 1244.6C26.156 1237.78 26.156 1230.94 26.5008 1224.12C26.1581 1230.94 26.1581 1237.78 26.5008 1244.6Z" fill="#52C162"/>
<path d="M72.1109 1353.06C68.1673 1348.54 64.5053 1343.72 61.125 1338.6C64.5053 1343.62 68.1673 1348.44 72.1109 1353.06Z" fill="#52C162"/>
<path d="M49.8587 1320.52C47.3235 1316 45.0699 1311.18 42.8164 1306.06C45.0699 1310.88 47.3235 1315.7 49.8587 1320.52Z" fill="#52C162"/>
<path d="M1997.18 1224.44V1213.29H255.491L86.4773 1367.25C81.9702 1362.83 77.651 1358.31 73.5195 1353.69C107.186 1393.21 154.799 1415.83 204.787 1416.05H1818.03C1916.97 1416.05 1997.18 1330.26 1997.18 1224.44Z" fill="#52C162"/>
<path d="M60.2836 1337.41C57.185 1332.89 54.0864 1327.77 51.2695 1322.95C54.6498 1327.97 57.6545 1332.79 60.2836 1337.41Z" fill="#52C162"/>
<path d="M255.496 1213.28H1997.19V1010.22H479.721L255.496 1213.28Z" fill="#F6BB42"/>
<path d="M479.715 1010.2H1997.18V807.438H704.222L479.715 1010.2Z" fill="#ED5565"/>
<path d="M814.084 708.028L704.225 807.452H1997.18V604.688H700L814.084 708.028Z" fill="#434A54"/>
<path d="M699.999 604.675H1997.18V401.91H475.773L699.999 604.675Z" fill="#ED5565"/>
<path d="M475.777 401.925H1997.19V199.16H251.27L475.777 401.925Z" fill="#F6BB42"/>
<path d="M36.0547 127.438C37.7448 122.617 39.435 117.797 41.4068 113.277C39.435 118.098 37.4631 122.617 36.0547 127.438Z" fill="#52C162"/>
<path d="M30.707 145.818C30.707 140.998 32.9606 136.478 34.369 131.959C32.9606 136.478 31.8338 141.299 30.707 145.818Z" fill="#52C162"/>
<path d="M25.3563 191.608C25.0114 184.784 25.0114 177.945 25.3563 171.121C25.0136 177.945 25.0136 184.784 25.3563 191.608Z" fill="#52C162"/>
<path d="M28.168 166.016C28.168 161.196 28.168 156.375 30.4215 151.555C28.168 156.074 28.168 160.895 28.168 166.016Z" fill="#52C162"/>
<path d="M51.2695 93.1082C54.0864 88.2876 57.185 83.1658 60.2836 78.6465C57.6545 83.2662 54.6498 88.0868 51.2695 93.1082Z" fill="#52C162"/>
<path d="M42.8164 109.968C45.0699 105.147 47.3235 100.326 49.8587 95.5059C47.3235 100.326 45.0699 104.846 42.8164 109.968Z" fill="#52C162"/>
<path d="M251.272 199.15H1997.75V191.618C1997.75 140.694 1978.8 91.8635 1945.08 55.9109C1911.36 19.9583 1865.64 -0.159192 1818.03 0.000948793H204.793C154.369 -0.0370652 106.28 22.7254 72.3984 62.6683C76.5299 57.8477 80.8491 53.3284 85.3562 49.1104L251.272 199.15Z" fill="#52C162"/>
<path d="M61.125 77.4265C64.5053 72.606 68.1673 67.7854 72.1109 62.9648C68.1673 67.5846 64.5053 72.4051 61.125 77.4265Z" fill="#52C162"/>
<path d="M255.493 1213.29H25.3526V1224.44C25.0127 1231.26 25.0127 1238.1 25.3526 1244.92C25.3526 1246.73 25.3526 1248.54 25.3526 1250.35C25.3526 1252.15 25.3526 1259.99 27.6062 1264.81C29.8597 1269.63 27.6062 1268.42 27.6062 1270.23C27.6062 1272.04 29.8597 1279.57 31.2681 1284.09L32.9583 1288.61C34.6484 1293.43 36.3386 1298.25 38.3104 1302.77L39.7188 1306.08C41.9724 1310.91 44.2259 1315.73 46.7611 1320.55V1322.96C49.578 1327.78 52.6766 1332.9 55.7752 1337.42C59.1555 1342.24 62.8174 1347.06 66.7611 1351.88C70.8925 1356.7 75.2118 1361.22 79.7188 1365.44L255.493 1213.29Z" fill="white"/>
<path d="M479.722 1010.22H25.3555V1213.28H255.496L479.722 1010.22Z" fill="white"/>
<path d="M704.229 807.438H25.3555V1010.2H479.722L704.229 807.438Z" fill="white"/>
<path d="M814.088 708.028L700.003 604.688H25.3555V807.452H704.229L814.088 708.028Z" fill="white"/>
<path d="M475.778 401.91H25.3555V604.675H700.003L475.778 401.91Z" fill="white"/>
<path d="M251.271 199.16H25.3555V401.925H475.778L251.271 199.16Z" fill="white"/>
<path d="M84.5083 48.8125C80.0013 53.2313 75.682 57.7506 71.5506 62.3703C67.6069 66.8896 63.945 71.7102 60.5647 76.832C57.4661 81.3513 54.3675 86.4731 51.5506 91.2937V93.704C49.0154 98.2233 46.7619 103.044 44.5083 108.166L42.8182 111.48C40.8464 115.999 39.1562 120.82 37.4661 125.64L35.7759 130.159C35.7759 134.679 33.2407 139.499 32.114 144.019C30.9872 148.538 32.114 147.634 32.114 149.442C32.114 151.249 30.4238 159.083 29.8604 163.903C29.2971 168.724 29.8604 167.519 29.8604 169.327C29.5205 176.151 29.5205 182.99 29.8604 189.814V197.045H255.213L84.5083 48.8125Z" fill="white"/>
<path d="M245.919 788.156C242.408 768.72 243.868 748.631 250.144 730.008L273.524 661.014C279.021 643.874 276.691 624.971 267.23 609.94C257.77 594.91 242.271 585.489 225.355 584.487L244.792 559.481C253.179 548.707 266.221 543.405 279.181 545.499C292.142 547.594 303.136 556.781 308.172 569.724L324.51 612.205L455.215 711.027C457.713 712.931 458.837 716.297 458.032 719.463L429.863 842.99C429.087 846.489 426.183 848.974 422.82 849.016H262.82C259.267 849.086 256.179 846.419 255.496 842.689L245.919 788.156Z" fill="#F6BB42"/>
</g>
<defs>
<clipPath id="clip0">
<rect width="2000" height="1416.04" fill="white"/>
</clipPath>
</defs>
</svg>
